<svg width="41" height="57" viewBox="0 0 41 57" fill="none" xmlns="http://www.w3.org/2000/svg">
<path d="M5.06003 56.18C2.71003 56.18 0.790029 54.3 0.780029 51.99L0.660034 4.68997C0.660034 2.35997 2.57002 0.469971 4.93002 0.469971L36.19 0.529968C38.54 0.529968 40.46 2.42997 40.46 4.74997V51.96C40.46 54.26 38.55 56.14 36.21 56.15L5.06003 56.19V56.18Z" fill="#C9C9C9"/>
<path d="M5.44998 56.06C3.12998 56.06 1.23999 54.18 1.23999 51.86V4.66997C1.23999 2.34997 3.12998 0.469971 5.44998 0.469971H36.25C38.58 0.469971 40.46 2.34997 40.46 4.66997V51.86C40.46 54.18 38.57 56.06 36.25 56.06H5.44998Z" fill="white"/>
<path d="M4.15001 7.88C4.15001 7.95 4.03002 8.07 3.77002 8.23C3.49002 8.41 3.25001 8.5 3.04001 8.5C2.93001 8.5 2.84001 8.45001 2.78001 8.35001C2.73001 8.27001 2.71002 8.2 2.71002 8.14V4.97C2.71002 4.91 2.71001 4.86 2.68001 4.84C2.66001 4.82 2.63001 4.8 2.59001 4.8C2.57001 4.8 2.52001 4.80001 2.45001 4.82001C2.37001 4.84001 2.32001 4.84 2.28001 4.83C2.26001 4.81 2.26001 4.79 2.26001 4.78C2.26001 4.73 2.31002 4.68 2.41002 4.62C2.51002 4.56 2.61002 4.47 2.71002 4.38C2.80002 4.31 2.88002 4.23 2.97002 4.16C3.06002 4.1 3.14001 4.06 3.20001 4.06C3.30001 4.06 3.40002 4.11 3.50002 4.22C3.60002 4.33 3.64001 4.43 3.64001 4.53V7.89C3.64001 7.89 3.67001 7.91999 3.68001 7.92999C3.71001 7.94999 3.73002 7.97 3.75002 7.97C3.78002 7.96 3.81002 7.95 3.83002 7.94C3.88002 7.91 3.95001 7.87 4.03001 7.81H4.13002L4.15001 7.87V7.88Z" fill="#333333"/>
<path d="M8.03003 6.34C8.03003 6.58 7.98004 6.80999 7.88004 7.03999C7.72004 7.39999 7.45003 7.71001 7.06003 7.99001C6.84003 8.14001 6.68003 8.25 6.58003 8.3C6.34003 8.44 6.06004 8.5 5.74004 8.5C5.27004 8.5 4.89003 8.29 4.58003 7.89C4.30003 7.51 4.16003 7.06 4.16003 6.55C4.16003 6.22 4.25003 5.87999 4.42003 5.53999C4.53003 5.31999 4.67004 5.12 4.85004 4.92C5.07004 4.68 5.29003 4.48 5.53003 4.34C5.83003 4.15 6.11002 4.06 6.40002 4.06C6.90002 4.06 7.30003 4.29999 7.61003 4.78999C7.89003 5.22999 8.03003 5.75 8.03003 6.34ZM7.10004 7.00999C7.10004 6.70999 7.06003 6.42 6.98003 6.14C6.90003 5.86 6.78003 5.6 6.62003 5.36C6.45003 5.09 6.28004 4.9 6.13004 4.8C6.02004 4.72 5.92004 4.67999 5.82004 4.67999C5.59004 4.67999 5.41003 4.78999 5.26003 5.00999C5.12003 5.22999 5.04002 5.47 5.04002 5.75C5.04002 5.92 5.06003 6.08 5.09003 6.23C5.14003 6.46 5.23003 6.71999 5.37003 7.00999C5.52003 7.34999 5.70003 7.59999 5.89003 7.75999C6.05003 7.88999 6.21003 7.95 6.36003 7.95C6.60003 7.95 6.78003 7.87 6.91003 7.7C7.04003 7.53 7.11003 7.29999 7.11003 7.00999H7.10004Z" fill="#333333"/>
<path d="M37.8201 49.18C37.8201 49.11 37.9501 48.99 38.2001 48.83C38.4801 48.65 38.7201 48.55 38.9301 48.55C39.0401 48.55 39.1301 48.6 39.1901 48.7C39.2401 48.78 39.2601 48.85 39.2601 48.91V52.08C39.2601 52.15 39.2601 52.19 39.2901 52.21C39.3101 52.23 39.3401 52.24 39.3801 52.24C39.4001 52.24 39.4501 52.24 39.5201 52.21C39.5901 52.19 39.6501 52.19 39.6901 52.2C39.7101 52.22 39.7101 52.24 39.7101 52.26C39.7101 52.3 39.6601 52.36 39.5601 52.42C39.4601 52.49 39.3601 52.56 39.2601 52.66C39.1801 52.73 39.0901 52.81 39.0001 52.88C38.9101 52.94 38.8301 52.98 38.7701 52.98C38.6701 52.98 38.5701 52.93 38.4801 52.81C38.3801 52.7 38.3401 52.6 38.3401 52.5V49.14C38.3401 49.14 38.3101 49.1 38.3001 49.1C38.2701 49.07 38.2501 49.06 38.2301 49.06C38.2001 49.06 38.1701 49.08 38.1501 49.09C38.1001 49.12 38.0301 49.16 37.9501 49.22H37.8501L37.8301 49.16L37.8201 49.18Z" fill="#333333"/>
<path d="M33.9399 50.72C33.9399 50.48 33.9899 50.25 34.0899 50.02C34.2499 49.66 34.5199 49.34 34.9099 49.07C35.1299 48.92 35.2899 48.81 35.3899 48.76C35.6299 48.63 35.9099 48.56 36.2299 48.56C36.6999 48.56 37.0799 48.76 37.3799 49.17C37.6599 49.55 37.7999 49.99 37.7999 50.51C37.7999 50.84 37.7099 51.18 37.5399 51.52C37.4299 51.74 37.2899 51.94 37.1099 52.14C36.8899 52.38 36.6699 52.58 36.4299 52.72C36.1299 52.91 35.8399 53 35.5599 53C35.0599 53 34.6599 52.75 34.3499 52.27C34.0699 51.83 33.9399 51.31 33.9399 50.72ZM34.8699 50.06C34.8699 50.36 34.9099 50.64 34.9899 50.93C35.0699 51.21 35.1899 51.47 35.3499 51.72C35.5199 51.98 35.6799 52.17 35.8399 52.28C35.9499 52.36 36.0499 52.4 36.1499 52.4C36.3799 52.4 36.5599 52.29 36.7099 52.07C36.8499 51.85 36.9299 51.61 36.9299 51.33C36.9299 51.16 36.9099 51 36.8799 50.85C36.8299 50.62 36.7399 50.36 36.5999 50.07C36.4499 49.73 36.2699 49.48 36.0799 49.32C35.9199 49.19 35.7599 49.13 35.5999 49.13C35.3599 49.13 35.1799 49.21 35.0499 49.38C34.9199 49.55 34.8599 49.78 34.8599 50.07L34.8699 50.06Z" fill="#333333"/>
<path d="M30.46 7.91999C30.5 7.73999 30.52 7.57 30.52 7.38C30.52 6.05 29.44 4.96999 28.11 4.97999C26.78 4.97999 25.7 6.05 25.7 7.38C25.7 7.67 25.75 7.94 25.84 8.19C24.67 8.28 23.74 9.26 23.74 10.46C23.74 11.72 24.76 12.73 26.02 12.73C26.35 12.73 27.54 12.36 27.8 12.21L26.26 14.85H30.02L28.48 12.21C28.79 12.4 30.1 12.73 30.42 12.73C31.75 12.73 32.83 11.65 32.83 10.32C32.83 9 31.77 7.94 30.46 7.91V7.91999Z" fill="#333333"/>
<g style="mix-blend-mode:color-burn" opacity="0.2">
<path d="M30.46 7.91999C30.5 7.73999 30.52 7.57 30.52 7.38C30.52 6.05 29.44 4.96999 28.11 4.97999C28.11 4.97999 28.11 4.97999 28.1 4.97999V14.86H30.02L28.48 12.22C28.79 12.41 30.1 12.74 30.42 12.74C31.75 12.74 32.83 11.66 32.83 10.33C32.83 9.00999 31.77 7.94999 30.46 7.91999Z" fill="#616161"/>
</g>
<path d="M23.1 14.93C23.14 14.75 23.16 14.58 23.16 14.39C23.16 13.06 22.08 11.98 20.75 11.99C19.42 11.99 18.34 13.06 18.34 14.39C18.34 14.68 18.39 14.95 18.49 15.2C17.32 15.29 16.39 16.27 16.39 17.47C16.39 18.73 17.41 19.74 18.67 19.75C19 19.75 20.19 19.38 20.45 19.23L18.91 21.87H22.67L21.13 19.22C21.44 19.41 22.75 19.74 23.07 19.74C24.4 19.74 25.48 18.66 25.48 17.33C25.48 16.02 24.42 14.95 23.11 14.93H23.1Z" fill="#333333"/>
<g style="mix-blend-mode:color-burn" opacity="0.2">
<path d="M23.1 14.93C23.14 14.75 23.16 14.58 23.16 14.39C23.16 13.06 22.08 11.98 20.75 11.99H20.74V21.87H22.66L21.12 19.23C21.43 19.42 22.74 19.75 23.06 19.75C24.39 19.75 25.47 18.67 25.47 17.34C25.47 16.03 24.41 14.96 23.1 14.94V14.93Z" fill="#616161"/>
</g>
<path d="M30.46 20.09C30.5 19.91 30.52 19.74 30.52 19.55C30.52 18.22 29.44 17.14 28.11 17.15C26.78 17.15 25.7 18.22 25.7 19.55C25.7 19.84 25.75 20.11 25.84 20.36C24.67 20.45 23.74 21.43 23.74 22.63C23.74 23.89 24.76 24.9 26.02 24.9C26.35 24.9 27.54 24.53 27.8 24.38L26.26 27.02H30.02L28.48 24.38C28.79 24.57 30.1 24.9 30.42 24.9C31.75 24.9 32.83 23.82 32.83 22.49C32.83 21.18 31.77 20.11 30.46 20.08V20.09Z" fill="#333333"/>
<g style="mix-blend-mode:color-burn" opacity="0.2">
<path d="M30.46 20.09C30.5 19.91 30.52 19.74 30.52 19.55C30.52 18.22 29.44 17.14 28.11 17.15H28.1V27.03H30.02L28.48 24.39C28.79 24.58 30.1 24.91 30.42 24.91C31.75 24.91 32.83 23.83 32.83 22.5C32.83 21.19 31.77 20.12 30.46 20.09Z" fill="#616161"/>
</g>
<path d="M11.27 7.91999C11.23 7.73999 11.21 7.57 11.21 7.38C11.21 6.05 12.29 4.96999 13.62 4.97999C14.95 4.97999 16.03 6.05 16.03 7.38C16.03 7.67 15.98 7.94 15.89 8.19C17.06 8.28 17.99 9.26 17.99 10.46C17.99 11.72 16.97 12.73 15.71 12.73C15.38 12.73 14.19 12.36 13.93 12.21L15.47 14.85H11.71L13.25 12.21C12.94 12.4 11.63 12.73 11.31 12.73C9.98003 12.73 8.90002 11.65 8.90002 10.32C8.90002 9 9.96003 7.94 11.27 7.91V7.91999Z" fill="#333333"/>
<g style="mix-blend-mode:color-burn" opacity="0.2">
<path d="M11.27 7.91999C11.23 7.73999 11.21 7.57 11.21 7.38C11.21 6.05 12.29 4.96999 13.62 4.97999V14.86H11.7L13.24 12.22C12.93 12.41 11.62 12.74 11.3 12.74C9.97002 12.74 8.89001 11.66 8.89001 10.33C8.89001 9.00999 9.95001 7.94999 11.26 7.91999H11.27Z" fill="#616161"/>
</g>
<path d="M11.27 20.09C11.23 19.91 11.21 19.74 11.21 19.55C11.21 18.22 12.29 17.14 13.62 17.15C14.95 17.15 16.03 18.22 16.03 19.55C16.03 19.84 15.98 20.11 15.89 20.36C17.06 20.45 17.99 21.43 17.99 22.63C17.99 23.89 16.97 24.9 15.71 24.9C15.38 24.9 14.19 24.53 13.93 24.38L15.47 27.02H11.71L13.25 24.38C12.94 24.57 11.63 24.9 11.31 24.9C9.98003 24.9 8.90002 23.82 8.90002 22.49C8.90002 21.18 9.96003 20.11 11.27 20.08V20.09Z" fill="#333333"/>
<g style="mix-blend-mode:color-burn" opacity="0.2">
<path d="M11.27 20.09C11.23 19.91 11.21 19.74 11.21 19.55C11.21 18.22 12.29 17.14 13.62 17.15V27.03H11.7L13.24 24.39C12.93 24.58 11.62 24.91 11.3 24.91C9.97002 24.91 8.89001 23.83 8.89001 22.5C8.89001 21.19 9.95001 20.12 11.26 20.09H11.27Z" fill="#616161"/>
</g>
<path d="M30.46 48.61C30.5 48.78 30.52 48.96 30.52 49.15C30.52 50.48 29.44 51.56 28.11 51.55C26.78 51.55 25.7 50.48 25.7 49.15C25.7 48.86 25.75 48.59 25.84 48.34C24.67 48.25 23.74 47.27 23.74 46.07C23.74 44.81 24.76 43.8 26.02 43.79C26.35 43.79 27.54 44.16 27.8 44.31L26.26 41.67H30.02L28.48 44.31C28.79 44.12 30.1 43.79 30.42 43.79C31.75 43.79 32.83 44.87 32.83 46.2C32.83 47.52 31.77 48.58 30.46 48.61Z" fill="#333333"/>
<g style="mix-blend-mode:color-burn" opacity="0.2">
<path d="M30.46 48.61C30.5 48.78 30.52 48.96 30.52 49.15C30.52 50.48 29.44 51.56 28.11 51.55H28.1V41.67H30.02L28.48 44.31C28.79 44.12 30.1 43.79 30.42 43.79C31.75 43.79 32.83 44.87 32.83 46.2C32.83 47.52 31.77 48.58 30.46 48.61Z" fill="#616161"/>
</g>
<path d="M23.1 41.6C23.14 41.77 23.16 41.95 23.16 42.14C23.16 43.47 22.08 44.55 20.75 44.54C19.42 44.54 18.34 43.46 18.34 42.14C18.34 41.85 18.39 41.58 18.49 41.33C17.32 41.24 16.39 40.26 16.39 39.06C16.39 37.8 17.41 36.78 18.67 36.78C19 36.78 20.19 37.15 20.45 37.3L18.91 34.65H22.67L21.13 37.3C21.44 37.11 22.75 36.78 23.07 36.78C24.4 36.78 25.48 37.86 25.48 39.19C25.48 40.5 24.42 41.58 23.11 41.6H23.1Z" fill="#333333"/>
<g style="mix-blend-mode:color-burn" opacity="0.2">
<path d="M23.1 41.6C23.14 41.77 23.16 41.95 23.16 42.14C23.16 43.47 22.08 44.55 20.75 44.54H20.74V34.66H22.66L21.12 37.3C21.43 37.11 22.74 36.78 23.06 36.78C24.39 36.78 25.47 37.86 25.47 39.19C25.47 40.5 24.41 41.58 23.1 41.6Z" fill="#616161"/>
</g>
<path d="M30.46 36.45C30.5 36.62 30.52 36.8 30.52 36.99C30.52 38.32 29.44 39.4 28.11 39.39C26.78 39.39 25.7 38.32 25.7 36.99C25.7 36.7 25.75 36.43 25.84 36.18C24.67 36.09 23.74 35.11 23.74 33.91C23.74 32.65 24.76 31.64 26.02 31.63C26.35 31.63 27.54 32 27.8 32.15L26.26 29.51H30.02L28.48 32.15C28.79 31.96 30.1 31.63 30.42 31.63C31.75 31.63 32.83 32.71 32.83 34.04C32.83 35.35 31.77 36.42 30.46 36.44V36.45Z" fill="#333333"/>
<g style="mix-blend-mode:color-burn" opacity="0.2">
<path d="M30.46 36.45C30.5 36.62 30.52 36.8 30.52 36.99C30.52 38.32 29.44 39.4 28.11 39.39H28.1V29.51H30.02L28.48 32.15C28.79 31.96 30.1 31.63 30.42 31.63C31.75 31.63 32.83 32.71 32.83 34.04C32.83 35.35 31.77 36.42 30.46 36.44V36.45Z" fill="#616161"/>
</g>
<path d="M11.27 48.61C11.23 48.78 11.21 48.96 11.21 49.15C11.21 50.48 12.29 51.56 13.62 51.55C14.95 51.55 16.03 50.48 16.03 49.15C16.03 48.86 15.98 48.59 15.89 48.34C17.06 48.25 17.99 47.27 17.99 46.07C17.99 44.81 16.97 43.8 15.71 43.79C15.38 43.79 14.19 44.16 13.93 44.31L15.47 41.67H11.71L13.25 44.31C12.94 44.12 11.63 43.79 11.31 43.79C9.98003 43.79 8.90002 44.87 8.90002 46.2C8.90002 47.52 9.96003 48.58 11.27 48.61Z" fill="#333333"/>
<g style="mix-blend-mode:color-burn" opacity="0.2">
<path d="M11.27 48.61C11.23 48.78 11.21 48.96 11.21 49.15C11.21 50.48 12.29 51.56 13.62 51.55V41.67H11.7L13.24 44.31C12.93 44.12 11.62 43.79 11.3 43.79C9.97002 43.79 8.89001 44.87 8.89001 46.2C8.89001 47.52 9.95001 48.58 11.26 48.61H11.27Z" fill="#616161"/>
</g>
<path d="M11.27 36.45C11.23 36.62 11.21 36.8 11.21 36.99C11.21 38.32 12.29 39.4 13.62 39.39C14.95 39.39 16.03 38.32 16.03 36.99C16.03 36.7 15.98 36.43 15.89 36.18C17.06 36.09 17.99 35.11 17.99 33.91C17.99 32.65 16.97 31.64 15.71 31.63C15.38 31.63 14.19 32 13.93 32.15L15.47 29.51H11.71L13.25 32.15C12.94 31.96 11.63 31.63 11.31 31.63C9.98003 31.63 8.90002 32.71 8.90002 34.04C8.90002 35.35 9.96003 36.42 11.27 36.44V36.45Z" fill="#333333"/>
<g style="mix-blend-mode:color-burn" opacity="0.2">
<path d="M11.27 36.45C11.23 36.62 11.21 36.8 11.21 36.99C11.21 38.32 12.29 39.4 13.62 39.39V29.51H11.7L13.24 32.15C12.93 31.96 11.62 31.63 11.3 31.63C9.97002 31.63 8.89001 32.71 8.89001 34.04C8.89001 35.35 9.95001 36.42 11.26 36.44L11.27 36.45Z" fill="#616161"/>
</g>
<path d="M4.99995 11.28C4.99995 11.28 5.00995 11.2 5.00995 11.16C5.00995 10.86 4.75996 10.61 4.45996 10.61C4.15996 10.61 3.90996 10.86 3.90996 11.16C3.90996 11.23 3.91996 11.29 3.93996 11.35C3.66996 11.37 3.45996 11.6 3.45996 11.87C3.45996 12.16 3.68995 12.39 3.97995 12.39C4.05995 12.39 4.32995 12.3 4.38995 12.27L4.03995 12.87H4.89995L4.54996 12.27C4.61996 12.31 4.91995 12.39 4.99995 12.39C5.29995 12.39 5.54996 12.14 5.54996 11.84C5.54996 11.54 5.30995 11.3 5.00995 11.29L4.99995 11.28Z" fill="#333333"/>
<g style="mix-blend-mode:color-burn" opacity="0.2">
<path d="M4.99995 11.28C4.99995 11.28 5.00995 11.2 5.00995 11.16C5.00995 10.86 4.75996 10.61 4.45996 10.61V12.87H4.89995L4.54996 12.27C4.61996 12.31 4.91995 12.39 4.99995 12.39C5.29995 12.39 5.54996 12.14 5.54996 11.84C5.54996 11.54 5.30995 11.3 5.00995 11.29L4.99995 11.28Z" fill="#616161"/>
</g>
<path d="M37.83 46.6C37.83 46.6 37.8501 46.68 37.8501 46.72C37.8501 47.02 37.6 47.27 37.3 47.27C37 47.27 36.75 47.03 36.75 46.72C36.75 46.66 36.76 46.6 36.78 46.54C36.51 46.52 36.3 46.29 36.3 46.02C36.3 45.73 36.5301 45.5 36.8201 45.5C36.8901 45.5 37.17 45.58 37.22 45.62L36.87 45.02H37.73L37.3801 45.63C37.4501 45.59 37.7501 45.51 37.8201 45.51C38.1201 45.51 38.37 45.76 38.37 46.06C38.37 46.36 38.13 46.6 37.83 46.61V46.6Z" fill="#333333"/>
<g style="mix-blend-mode:color-burn" opacity="0.2">
<path d="M37.83 46.6C37.83 46.6 37.8501 46.68 37.8501 46.72C37.8501 47.02 37.6 47.27 37.3 47.27V45.01H37.7401L37.39 45.62C37.46 45.58 37.76 45.5 37.83 45.5C38.13 45.5 38.3801 45.75 38.3801 46.05C38.3801 46.35 38.14 46.59 37.84 46.6H37.83Z" fill="#616161"/>
</g>
</svg>
