<svg width="40" height="56" viewBox="0 0 40 56" fill="none" xmlns="http://www.w3.org/2000/svg">
<path d="M4.65001 55.07C2.33001 55.07 0.440007 53.22 0.440007 50.95L0.320007 4.37C0.320007 2.08 2.20001 0.210011 4.53001 0.220011L35.31 0.280008C37.63 0.280008 39.51 2.15 39.51 4.43V50.91C39.51 53.18 37.63 55.03 35.32 55.04L4.65001 55.08V55.07Z" fill="#C9C9C9"/>
<path d="M5.04001 54.95C2.75001 54.95 0.890015 53.09 0.890015 50.82V4.35999C0.890015 2.07999 2.75001 0.22998 5.04001 0.22998H35.37C37.66 0.22998 39.52 2.07999 39.52 4.35999V50.82C39.52 53.1 37.66 54.95 35.37 54.95H5.04001Z" fill="white"/>
<path d="M27.55 4.16003L31.64 9.32004L27.55 14.49L23.46 9.32004L27.55 4.16003Z" fill="#D66142"/>
<g style="mix-blend-mode:color-burn" opacity="0.2">
<path d="M27.58 4.19003L27.55 4.16003L23.46 9.32004L27.55 14.49L27.58 14.45V4.19003Z" fill="#616161"/>
</g>
<path d="M19.97 10.87L24.06 16.03L19.97 21.19L15.88 16.03L19.97 10.87Z" fill="#D66142"/>
<g style="mix-blend-mode:color-burn" opacity="0.2">
<path d="M19.99 10.9L19.97 10.87L15.88 16.03L19.97 21.19L19.99 21.16V10.9Z" fill="#616161"/>
</g>
<path d="M20.44 34.45L16.35 39.61L20.44 44.78L24.53 39.61L20.44 34.45Z" fill="#D66142"/>
<g style="mix-blend-mode:color-burn" opacity="0.2">
<path d="M20.41 34.48L20.44 34.45L24.53 39.61L20.44 44.78L20.41 44.75V34.48Z" fill="#616161"/>
</g>
<path d="M27.55 16.33L31.64 21.49L27.55 26.66L23.46 21.49L27.55 16.33Z" fill="#D66142"/>
<g style="mix-blend-mode:color-burn" opacity="0.2">
<path d="M27.58 16.36L27.55 16.33L23.46 21.49L27.55 26.66L27.58 26.63V16.36Z" fill="#616161"/>
</g>
<path d="M12.85 28.51L8.76001 33.67L12.85 38.84L16.95 33.67L12.85 28.51Z" fill="#D66142"/>
<g style="mix-blend-mode:color-burn" opacity="0.2">
<path d="M12.83 28.54L12.85 28.51L16.95 33.67L12.85 38.84L12.83 38.8V28.54Z" fill="#616161"/>
</g>
<path d="M12.85 40.68L8.76001 45.84L12.85 51.01L16.95 45.84L12.85 40.68Z" fill="#D66142"/>
<g style="mix-blend-mode:color-burn" opacity="0.2">
<path d="M12.83 40.71L12.85 40.68L16.95 45.84L12.85 51.01L12.83 50.97V40.71Z" fill="#616161"/>
</g>
<path d="M12.86 4.16003L16.95 9.32004L12.86 14.49L8.76001 9.32004L12.86 4.16003Z" fill="#D66142"/>
<g style="mix-blend-mode:color-burn" opacity="0.2">
<path d="M12.88 4.19003L12.86 4.16003L8.76001 9.32004L12.86 14.49L12.88 14.45V4.19003Z" fill="#616161"/>
</g>
<path d="M12.86 16.33L16.95 21.49L12.86 26.66L8.76001 21.49L12.86 16.33Z" fill="#D66142"/>
<g style="mix-blend-mode:color-burn" opacity="0.2">
<path d="M12.88 16.36L12.86 16.33L8.76001 21.49L12.86 26.66L12.88 26.63V16.36Z" fill="#616161"/>
</g>
<path d="M27.55 28.51L23.46 33.67L27.55 38.84L31.64 33.67L27.55 28.51Z" fill="#D66142"/>
<g style="mix-blend-mode:color-burn" opacity="0.2">
<path d="M27.52 28.54L27.55 28.51L31.64 33.67L27.55 38.84L27.52 38.8V28.54Z" fill="#616161"/>
</g>
<path d="M27.55 40.68L23.46 45.84L27.55 51.01L31.64 45.84L27.55 40.68Z" fill="#D66142"/>
<g style="mix-blend-mode:color-burn" opacity="0.2">
<path d="M27.52 40.71L27.55 40.68L31.64 45.84L27.55 51.01L27.52 50.97V40.71Z" fill="#616161"/>
</g>
<path d="M4.14001 12.66L2.95001 11.16L4.14001 9.66003L5.33001 11.16L4.14001 12.66Z" fill="#D66142"/>
<g style="mix-blend-mode:color-burn" opacity="0.2">
<path d="M4.14 9.66003L4.13 9.67003V12.65L4.14 12.66L5.33 11.16L4.14 9.66003Z" fill="#616161"/>
</g>
<path d="M3.76002 7.51001C3.76002 7.58001 3.64002 7.70002 3.39002 7.86002C3.11002 8.04002 2.88002 8.13002 2.68002 8.13002C2.57002 8.13002 2.48002 8.08001 2.42002 7.98001C2.37002 7.91001 2.35002 7.84001 2.35002 7.78001V4.66002C2.35002 4.60002 2.35002 4.55001 2.32002 4.53001C2.30002 4.51001 2.27002 4.50002 2.23002 4.50002C2.21002 4.50002 2.16002 4.50002 2.09002 4.52002C2.02002 4.54002 1.96002 4.54002 1.92002 4.52002C1.91002 4.50002 1.90002 4.48002 1.90002 4.47002C1.90002 4.43002 1.95002 4.37001 2.04002 4.31001C2.14002 4.25001 2.24002 4.17002 2.34002 4.08002C2.42002 4.01002 2.51002 3.93002 2.60002 3.86002C2.69002 3.80002 2.77002 3.76001 2.83002 3.76001C2.93002 3.76001 3.03002 3.81001 3.12002 3.92001C3.21002 4.03001 3.26002 4.13002 3.26002 4.22002V7.53001C3.26002 7.53001 3.29002 7.56002 3.30002 7.57002C3.33002 7.59002 3.35002 7.61002 3.37002 7.61002C3.40002 7.60002 3.43002 7.59002 3.45002 7.58002C3.50002 7.55002 3.57002 7.52002 3.65002 7.46002H3.75002L3.77002 7.52002L3.76002 7.51001Z" fill="#333333"/>
<path d="M7.57998 5.98999C7.57998 6.22999 7.52998 6.44998 7.43998 6.66998C7.27998 7.01998 7.00998 7.33999 6.63998 7.59999C6.41998 7.74999 6.26998 7.85999 6.16998 7.90999C5.92998 8.03999 5.64998 8.10999 5.33998 8.10999C4.87998 8.10999 4.49998 7.90998 4.19998 7.50998C3.91998 7.13998 3.78998 6.69999 3.78998 6.18999C3.78998 5.85999 3.86998 5.52998 4.03998 5.19998C4.14998 4.98998 4.28998 4.77998 4.45998 4.58998C4.67998 4.34998 4.89998 4.15999 5.12998 4.01999C5.41998 3.82999 5.70998 3.73999 5.97998 3.73999C6.46998 3.73999 6.86998 3.97999 7.16998 4.45999C7.43998 4.89999 7.57998 5.40999 7.57998 5.98999ZM6.66998 6.64998C6.66998 6.35998 6.62998 6.06998 6.54998 5.78998C6.46998 5.50998 6.34998 5.24999 6.19998 5.01999C6.02998 4.75999 5.86998 4.56999 5.70998 4.46999C5.59998 4.38999 5.49998 4.34999 5.39998 4.34999C5.17998 4.34999 4.98998 4.45998 4.84998 4.66998C4.70998 4.87998 4.63998 5.12998 4.63998 5.39998C4.63998 5.56998 4.65998 5.72998 4.68998 5.86998C4.73998 6.09998 4.82998 6.34998 4.95998 6.63998C5.10998 6.96998 5.27998 7.21999 5.46998 7.37999C5.62998 7.50999 5.77998 7.56999 5.93998 7.56999C6.16998 7.56999 6.34998 7.48999 6.47998 7.31999C6.60998 7.14999 6.66998 6.92998 6.66998 6.63998V6.64998Z" fill="#333333"/>
<path d="M36.91 48.17C36.91 48.1 37.03 47.98 37.28 47.82C37.56 47.64 37.79 47.55 37.99 47.55C38.1 47.55 38.19 47.6 38.25 47.7C38.3 47.78 38.32 47.84 38.32 47.91V51.03C38.32 51.09 38.32 51.14 38.35 51.16C38.37 51.18 38.4 51.19 38.44 51.19C38.46 51.19 38.51 51.19 38.58 51.16C38.65 51.14 38.71 51.14 38.74 51.15C38.76 51.17 38.76 51.19 38.76 51.2C38.76 51.24 38.71 51.3 38.61 51.36C38.51 51.42 38.41 51.5 38.31 51.59C38.23 51.66 38.14 51.74 38.05 51.81C37.96 51.87 37.88 51.91 37.82 51.91C37.72 51.91 37.62 51.86 37.53 51.75C37.44 51.64 37.39 51.54 37.39 51.44V48.13C37.39 48.13 37.36 48.1 37.35 48.09C37.32 48.07 37.3 48.05 37.29 48.05C37.26 48.06 37.23 48.07 37.21 48.08C37.16 48.1 37.09 48.15 37.01 48.2H36.91L36.89 48.14L36.91 48.17Z" fill="#333333"/>
<path d="M33.09 49.69C33.09 49.45 33.14 49.23 33.23 49C33.39 48.65 33.66 48.34 34.04 48.07C34.26 47.92 34.41 47.82 34.51 47.76C34.75 47.63 35.03 47.56 35.34 47.56C35.8 47.56 36.18 47.76 36.47 48.16C36.75 48.53 36.89 48.97 36.89 49.47C36.89 49.8 36.81 50.13 36.64 50.46C36.53 50.67 36.39 50.88 36.22 51.07C36 51.31 35.78 51.5 35.55 51.65C35.26 51.84 34.97 51.93 34.7 51.93C34.21 51.93 33.81 51.69 33.51 51.21C33.24 50.78 33.1 50.26 33.1 49.68L33.09 49.69ZM34 49.04C34 49.33 34.04 49.62 34.12 49.9C34.2 50.18 34.32 50.44 34.47 50.67C34.64 50.93 34.8 51.12 34.96 51.22C35.07 51.3 35.17 51.33 35.27 51.33C35.49 51.33 35.68 51.22 35.82 51.01C35.96 50.8 36.03 50.55 36.03 50.28C36.03 50.12 36.01 49.96 35.98 49.81C35.93 49.58 35.84 49.33 35.71 49.04C35.56 48.7 35.39 48.46 35.2 48.3C35.04 48.17 34.89 48.11 34.73 48.11C34.5 48.11 34.32 48.19 34.19 48.36C34.06 48.53 34 48.75 34 49.04Z" fill="#333333"/>
<path d="M36.52 43.02L37.71 44.52L36.52 46.02L35.33 44.52L36.52 43.02Z" fill="#D66142"/>
<g style="mix-blend-mode:color-burn" opacity="0.2">
<path d="M36.53 43.02H36.52L35.33 44.52L36.52 46.02L36.53 46.01V43.02Z" fill="#616161"/>
</g>
</svg>
