<svg width="41" height="57" viewBox="0 0 41 57" fill="none" xmlns="http://www.w3.org/2000/svg">
<path d="M4.74998 56.18C2.38998 56.18 0.469978 54.3 0.469978 51.99L0.349976 4.68997C0.349976 2.35997 2.25998 0.469971 4.61998 0.469971L35.88 0.529968C38.23 0.529968 40.15 2.42997 40.15 4.74997V51.95C40.15 54.26 38.24 56.14 35.9 56.14L4.75998 56.18H4.74998Z" fill="#C9C9C9"/>
<path d="M5.13004 56.06C2.81004 56.06 0.920044 54.17 0.920044 51.86V4.66997C0.920044 2.35997 2.81004 0.469971 5.13004 0.469971H35.93C38.25 0.469971 40.14 2.34997 40.14 4.66997V51.86C40.14 54.17 38.25 56.06 35.93 56.06H5.13004Z" fill="white"/>
<path d="M3.82994 7.88C3.82994 7.95 3.70994 8.07001 3.44994 8.24001C3.16994 8.42001 2.92994 8.50999 2.72994 8.50999C2.61994 8.50999 2.52994 8.46 2.45994 8.36C2.40994 8.28 2.38994 8.20999 2.38994 8.14999V4.97C2.38994 4.91 2.38994 4.86 2.35994 4.84C2.33994 4.82 2.30994 4.81 2.26994 4.81C2.24994 4.81 2.19994 4.81 2.12994 4.84C2.04994 4.86 1.99994 4.86001 1.95994 4.85001C1.93994 4.83001 1.93994 4.81 1.93994 4.8C1.93994 4.75 1.98994 4.7 2.08994 4.63C2.18994 4.57 2.28994 4.49 2.38994 4.39C2.46994 4.32 2.55994 4.24 2.64994 4.16C2.74994 4.1 2.81994 4.07001 2.87994 4.07001C2.97994 4.07001 3.07994 4.12 3.17994 4.23C3.26994 4.34 3.31994 4.43999 3.31994 4.53999V7.89999C3.31994 7.89999 3.34994 7.93 3.35994 7.94C3.38994 7.96 3.40994 7.97 3.42994 7.97C3.45994 7.97 3.48994 7.95 3.50994 7.94C3.55994 7.91 3.62994 7.87 3.70994 7.81H3.80994L3.82994 7.87V7.88Z" fill="#333333"/>
<path d="M7.70998 6.34C7.70998 6.58 7.65997 6.80999 7.55997 7.03999C7.39997 7.39999 7.12997 7.71001 6.73997 7.99001C6.51997 8.14001 6.35998 8.25 6.25998 8.3C6.01998 8.43 5.73998 8.5 5.41998 8.5C4.94998 8.5 4.56997 8.29 4.26997 7.89C3.98997 7.51 3.84998 7.07 3.84998 6.56C3.84998 6.23 3.92998 5.89 4.10998 5.55C4.21998 5.34 4.35998 5.12999 4.53998 4.92999C4.75998 4.68999 4.97998 4.49001 5.21998 4.35001C5.51998 4.16001 5.80997 4.07001 6.08997 4.07001C6.58997 4.07001 6.98998 4.32 7.29998 4.8C7.57998 5.24 7.70998 5.76001 7.70998 6.35001V6.34ZM6.77998 7.00999C6.77998 6.70999 6.73998 6.42 6.65998 6.14C6.57998 5.85 6.45998 5.59001 6.29998 5.35001C6.12998 5.09001 5.96997 4.89999 5.80997 4.78999C5.69997 4.70999 5.59998 4.67 5.49998 4.67C5.26998 4.67 5.08998 4.78001 4.93998 4.99001C4.79998 5.21001 4.71998 5.46 4.71998 5.73C4.71998 5.9 4.73997 6.06001 4.76997 6.21001C4.81997 6.44001 4.90998 6.70001 5.04998 6.99001C5.20998 7.33001 5.37998 7.58001 5.56998 7.74001C5.72998 7.87001 5.88998 7.94 6.04998 7.94C6.28998 7.94 6.46998 7.86 6.59998 7.69C6.72998 7.52 6.78998 7.29 6.78998 7L6.77998 7.00999Z" fill="#333333"/>
<path d="M37.5 49.18C37.5 49.11 37.63 48.99 37.88 48.83C38.16 48.65 38.4 48.55 38.61 48.55C38.72 48.55 38.8 48.6 38.87 48.7C38.92 48.77 38.94 48.84 38.94 48.91V52.08C38.94 52.14 38.95 52.19 38.97 52.21C38.99 52.23 39.02 52.24 39.06 52.24C39.08 52.24 39.13 52.24 39.2 52.21C39.27 52.2 39.33 52.19 39.37 52.21C39.39 52.23 39.39 52.25 39.39 52.26C39.39 52.3 39.34 52.36 39.24 52.42C39.14 52.48 39.04 52.56 38.93 52.66C38.85 52.73 38.76 52.81 38.67 52.88C38.58 52.94 38.5 52.98 38.44 52.98C38.34 52.98 38.24 52.93 38.15 52.82C38.05 52.71 38.01 52.61 38.01 52.51V49.15C38.01 49.15 37.98 49.12 37.97 49.11C37.94 49.08 37.92 49.07 37.9 49.07C37.87 49.08 37.84 49.09 37.82 49.1C37.76 49.13 37.7 49.17 37.62 49.23H37.52L37.5 49.17V49.18Z" fill="#333333"/>
<path d="M33.62 50.71C33.62 50.47 33.67 50.24 33.77 50.01C33.93 49.65 34.2 49.34 34.59 49.06C34.81 48.91 34.97 48.8 35.07 48.75C35.31 48.62 35.59 48.55 35.91 48.55C36.38 48.55 36.76 48.75 37.06 49.16C37.34 49.54 37.48 49.98 37.48 50.5C37.48 50.83 37.39 51.17 37.22 51.51C37.11 51.72 36.97 51.93 36.79 52.13C36.57 52.37 36.35 52.57 36.11 52.71C35.81 52.9 35.52 52.99 35.24 52.99C34.74 52.99 34.34 52.74 34.03 52.26C33.75 51.82 33.61 51.3 33.61 50.7L33.62 50.71ZM34.55 50.05C34.55 50.35 34.59 50.64 34.67 50.92C34.75 51.2 34.87 51.46 35.03 51.71C35.2 51.98 35.36 52.16 35.52 52.27C35.63 52.35 35.73 52.39 35.83 52.39C36.06 52.39 36.24 52.28 36.39 52.06C36.53 51.84 36.61 51.6 36.61 51.32C36.61 51.15 36.59 50.99 36.56 50.84C36.51 50.61 36.42 50.35 36.29 50.06C36.13 49.72 35.96 49.47 35.77 49.31C35.61 49.18 35.45 49.11 35.3 49.11C35.06 49.11 34.88 49.19 34.75 49.36C34.62 49.53 34.55 49.76 34.55 50.05Z" fill="#333333"/>
<g style="mix-blend-mode:color-burn" opacity="0.2">
<path d="M32.28 9.86C32.28 8.86 27.92 4.57001 27.92 4.57001V14.87H29.96L28.34 12.08C28.73 12.32 29.19 12.46 29.68 12.46C31.12 12.46 32.3 11.3 32.3 9.85001L32.28 9.86Z" fill="#616161"/>
</g>
<g style="mix-blend-mode:color-burn" opacity="0.2">
<path d="M32.28 22.22C32.28 21.22 27.92 16.93 27.92 16.93V27.23H29.96L28.34 24.44C28.73 24.68 29.19 24.82 29.68 24.82C31.12 24.82 32.3 23.66 32.3 22.21L32.28 22.22Z" fill="#616161"/>
</g>
<g style="mix-blend-mode:color-burn" opacity="0.2">
<path d="M8.82995 9.86C8.82995 8.86 13.1899 4.57001 13.1899 4.57001V14.87H11.1499L12.7799 12.08C12.3899 12.32 11.9299 12.46 11.4399 12.46C9.99995 12.46 8.81995 11.3 8.81995 9.85001L8.82995 9.86Z" fill="#616161"/>
</g>
<g style="mix-blend-mode:color-burn" opacity="0.2">
<path d="M16.24 16.92C16.24 15.92 20.6 11.63 20.6 11.63V21.93H18.56L20.18 19.14C19.79 19.37 19.33 19.51 18.84 19.52C17.4 19.52 16.23 18.35 16.23 16.91L16.24 16.92Z" fill="#616161"/>
</g>
<g style="mix-blend-mode:color-burn" opacity="0.2">
<path d="M8.82995 22.22C8.82995 21.22 13.1899 16.93 13.1899 16.93V27.23H11.1499L12.7799 24.44C12.3899 24.68 11.9299 24.82 11.4399 24.82C9.99995 24.82 8.81995 23.66 8.81995 22.21L8.82995 22.22Z" fill="#616161"/>
</g>
<g style="mix-blend-mode:color-burn" opacity="0.2">
<path d="M32.26 46.89C32.26 47.89 27.9 52.18 27.9 52.18V41.88H29.93L28.31 44.67C28.7 44.44 29.16 44.3 29.65 44.29C31.09 44.29 32.27 45.45 32.27 46.9L32.26 46.89Z" fill="#616161"/>
</g>
<g style="mix-blend-mode:color-burn" opacity="0.2">
<path d="M32.26 34.52C32.26 35.52 27.9 39.81 27.9 39.81V29.51H29.93L28.31 32.3C28.7 32.06 29.16 31.92 29.65 31.92C31.09 31.92 32.27 33.09 32.27 34.53L32.26 34.52Z" fill="#616161"/>
</g>
<g style="mix-blend-mode:color-burn" opacity="0.2">
<path d="M8.81004 46.89C8.81004 47.89 13.17 52.18 13.17 52.18V41.88H11.13L12.75 44.67C12.36 44.44 11.9 44.3 11.41 44.29C9.97004 44.29 8.79004 45.45 8.79004 46.9L8.81004 46.89Z" fill="#616161"/>
</g>
<g style="mix-blend-mode:color-burn" opacity="0.2">
<path d="M16.22 39.73C16.22 40.73 20.58 45.02 20.58 45.02V34.72H18.55L20.17 37.51C19.78 37.27 19.32 37.13 18.83 37.13C17.39 37.13 16.21 38.29 16.21 39.74L16.22 39.73Z" fill="#616161"/>
</g>
<g style="mix-blend-mode:color-burn" opacity="0.2">
<path d="M8.81004 34.52C8.81004 35.52 13.17 39.81 13.17 39.81V29.51H11.13L12.75 32.3C12.36 32.06 11.9 31.92 11.41 31.92C9.97004 31.92 8.79004 33.09 8.79004 34.53L8.81004 34.52Z" fill="#616161"/>
</g>
<g style="mix-blend-mode:color-burn" opacity="0.2">
<path d="M5.57003 11.76C5.57003 11.49 4.41003 10.35 4.41003 10.35V13.1H4.95003L4.52003 12.36C4.62003 12.42 4.75003 12.46 4.88003 12.46C5.26003 12.46 5.58003 12.15 5.58003 11.76H5.57003Z" fill="#616161"/>
</g>
<g style="mix-blend-mode:color-burn" opacity="0.2">
<path d="M35.9399 45.43C35.9399 45.7 37.0999 46.84 37.0999 46.84V44.09H36.5599L36.9899 44.83C36.8899 44.77 36.7699 44.73 36.6299 44.73C36.2499 44.73 35.9299 45.04 35.9299 45.43H35.9399Z" fill="#616161"/>
</g>
<path d="M5.80994 11.22C5.76994 11.92 4.37994 12.98 4.37994 12.98C4.37994 12.98 2.93994 11.91 2.93994 11.21C2.93994 10.73 3.32994 10.34 3.80994 10.34C4.07994 10.34 4.37994 10.58 4.37994 10.58C4.37994 10.58 4.65994 10.34 4.93994 10.34C5.41994 10.34 5.82994 10.73 5.80994 11.21V11.22Z" fill="#D66142"/>
<g style="mix-blend-mode:color-burn" opacity="0.2">
<path d="M4.95001 10.35C4.67001 10.35 4.39001 10.59 4.39001 10.59V12.98C4.39001 12.98 5.78001 11.92 5.82001 11.22C5.84001 10.74 5.43001 10.35 4.95001 10.35Z" fill="#616161"/>
</g>
<path d="M9.12 8.46997C9.23 10.45 13.2 13.46 13.2 13.46C13.2 13.46 17.29 10.43 17.29 8.43997C17.29 7.06997 16.17 5.96997 14.81 5.96997C14.04 5.96997 13.19 6.65997 13.19 6.65997C13.19 6.65997 12.38 5.96997 11.59 5.97997C10.22 5.99997 9.04999 7.09998 9.12999 8.45998L9.12 8.46997Z" fill="#D66142"/>
<g style="mix-blend-mode:color-burn" opacity="0.2">
<path d="M11.5801 5.98999C12.3701 5.98999 13.1801 6.66998 13.1801 6.66998C13.1801 6.66998 13.19 6.66998 13.21 6.64998V13.46H13.2C13.2 13.46 9.23005 10.45 9.12005 8.46999C9.05005 7.09999 10.2201 6.00999 11.5801 5.98999Z" fill="#616161"/>
</g>
<path d="M16.44 14.22C16.55 16.2 20.52 19.21 20.52 19.21C20.52 19.21 24.61 16.18 24.61 14.19C24.61 12.82 23.49 11.72 22.13 11.72C21.36 11.72 20.51 12.41 20.51 12.41C20.51 12.41 19.7 11.72 18.91 11.73C17.55 11.75 16.37 12.84 16.44 14.21V14.22Z" fill="#D66142"/>
<g style="mix-blend-mode:color-burn" opacity="0.2">
<path d="M18.91 11.74C19.7 11.73 20.51 12.42 20.51 12.42C20.51 12.42 20.52 12.42 20.54 12.4V19.21H20.53C20.53 19.21 16.55 16.2 16.45 14.22C16.38 12.85 17.55 11.76 18.92 11.74H18.91Z" fill="#616161"/>
</g>
<path d="M31.99 8.46997C31.88 10.45 27.91 13.46 27.91 13.46C27.91 13.46 23.8199 10.43 23.8199 8.43997C23.8199 7.06997 24.9399 5.96997 26.2999 5.96997C27.0699 5.96997 27.9199 6.65997 27.9199 6.65997C27.9199 6.65997 28.7299 5.96997 29.5199 5.97997C30.8899 5.99997 32.06 7.09998 31.99 8.45998V8.46997Z" fill="#D66142"/>
<g style="mix-blend-mode:color-burn" opacity="0.2">
<path d="M29.52 5.98999C28.73 5.98999 27.92 6.66998 27.92 6.66998C27.92 6.66998 27.91 6.66998 27.89 6.64998V13.46H27.9C27.9 13.46 31.87 10.45 31.98 8.46999C32.05 7.09999 30.88 6.00999 29.51 5.98999H29.52Z" fill="#616161"/>
</g>
<path d="M9.12 20.72C9.23 22.7 13.2 25.71 13.2 25.71C13.2 25.71 17.29 22.67 17.29 20.69C17.29 19.32 16.17 18.22 14.81 18.22C14.04 18.22 13.19 18.91 13.19 18.91C13.19 18.91 12.38 18.22 11.59 18.23C10.22 18.25 9.04999 19.34 9.12999 20.71L9.12 20.72Z" fill="#D66142"/>
<g style="mix-blend-mode:color-burn" opacity="0.2">
<path d="M11.5801 18.24C12.3701 18.23 13.1801 18.92 13.1801 18.92C13.1801 18.92 13.19 18.92 13.21 18.9V25.71H13.2C13.2 25.71 9.23005 22.7 9.12005 20.72C9.05005 19.35 10.2201 18.26 11.5801 18.24Z" fill="#616161"/>
</g>
<path d="M31.99 20.72C31.88 22.7 27.91 25.71 27.91 25.71C27.91 25.71 23.8199 22.67 23.8199 20.69C23.8199 19.32 24.9399 18.22 26.2999 18.22C27.0699 18.22 27.9199 18.91 27.9199 18.91C27.9199 18.91 28.7299 18.22 29.5199 18.23C30.8899 18.25 32.06 19.34 31.99 20.71V20.72Z" fill="#D66142"/>
<g style="mix-blend-mode:color-burn" opacity="0.2">
<path d="M29.52 18.24C28.73 18.23 27.92 18.92 27.92 18.92C27.92 18.92 27.91 18.92 27.89 18.9V25.71H27.9C27.9 25.71 31.87 22.7 31.98 20.72C32.05 19.35 30.88 18.26 29.51 18.24H29.52Z" fill="#616161"/>
</g>
<path d="M9.12 47.7C9.23 45.72 13.2 42.71 13.2 42.71C13.2 42.71 17.29 45.74 17.29 47.73C17.29 49.1 16.17 50.2 14.81 50.2C14.04 50.2 13.19 49.51 13.19 49.51C13.19 49.51 12.38 50.2 11.59 50.19C10.22 50.17 9.04999 49.07 9.12999 47.71L9.12 47.7Z" fill="#D66142"/>
<g style="mix-blend-mode:color-burn" opacity="0.2">
<path d="M11.5801 50.19C12.3701 50.2 13.1801 49.51 13.1801 49.51C13.1801 49.51 13.19 49.51 13.21 49.53V42.72H13.2C13.2 42.72 9.23005 45.73 9.12005 47.71C9.05005 49.08 10.2201 50.17 11.5801 50.19Z" fill="#616161"/>
</g>
<path d="M16.44 41.96C16.55 39.98 20.52 36.97 20.52 36.97C20.52 36.97 24.61 40 24.61 41.99C24.61 43.36 23.49 44.46 22.13 44.46C21.36 44.46 20.51 43.77 20.51 43.77C20.51 43.77 19.7 44.46 18.91 44.45C17.55 44.43 16.37 43.33 16.44 41.97V41.96Z" fill="#D66142"/>
<g style="mix-blend-mode:color-burn" opacity="0.2">
<path d="M18.91 44.44C19.7 44.44 20.51 43.76 20.51 43.76C20.51 43.76 20.52 43.76 20.54 43.78V36.97H20.53C20.53 36.97 16.55 39.98 16.45 41.96C16.38 43.33 17.55 44.42 18.92 44.44H18.91Z" fill="#616161"/>
</g>
<path d="M31.99 47.7C31.88 45.72 27.91 42.71 27.91 42.71C27.91 42.71 23.8199 45.74 23.8199 47.73C23.8199 49.1 24.9399 50.2 26.2999 50.2C27.0699 50.2 27.9199 49.51 27.9199 49.51C27.9199 49.51 28.7299 50.2 29.5199 50.19C30.8899 50.17 32.06 49.07 31.99 47.71V47.7Z" fill="#D66142"/>
<g style="mix-blend-mode:color-burn" opacity="0.2">
<path d="M29.52 50.19C28.73 50.2 27.92 49.51 27.92 49.51C27.92 49.51 27.91 49.51 27.89 49.53V42.72H27.9C27.9 42.72 31.87 45.73 31.98 47.71C32.05 49.08 30.88 50.17 29.51 50.19H29.52Z" fill="#616161"/>
</g>
<path d="M9.12 35.46C9.23 33.48 13.2 30.47 13.2 30.47C13.2 30.47 17.29 33.5 17.29 35.49C17.29 36.86 16.17 37.96 14.81 37.96C14.04 37.96 13.19 37.27 13.19 37.27C13.19 37.27 12.38 37.96 11.59 37.95C10.22 37.93 9.04999 36.83 9.12999 35.47L9.12 35.46Z" fill="#D66142"/>
<g style="mix-blend-mode:color-burn" opacity="0.2">
<path d="M11.5801 37.94C12.3701 37.95 13.1801 37.26 13.1801 37.26C13.1801 37.26 13.19 37.26 13.21 37.28V30.47H13.2C13.2 30.47 9.23005 33.48 9.12005 35.46C9.05005 36.83 10.2201 37.92 11.5801 37.94Z" fill="#616161"/>
</g>
<path d="M31.99 35.46C31.88 33.48 27.91 30.47 27.91 30.47C27.91 30.47 23.8199 33.5 23.8199 35.49C23.8199 36.86 24.9399 37.96 26.2999 37.96C27.0699 37.96 27.9199 37.27 27.9199 37.27C27.9199 37.27 28.7299 37.96 29.5199 37.95C30.8899 37.93 32.06 36.83 31.99 35.47V35.46Z" fill="#D66142"/>
<g style="mix-blend-mode:color-burn" opacity="0.2">
<path d="M29.52 37.94C28.73 37.95 27.92 37.26 27.92 37.26C27.92 37.26 27.91 37.26 27.89 37.28V30.47H27.9C27.9 30.47 31.87 33.48 31.98 35.46C32.05 36.83 30.88 37.92 29.51 37.94H29.52Z" fill="#616161"/>
</g>
<path d="M35.64 45.92C35.68 45.21 37.1 44.13 37.1 44.13C37.1 44.13 38.57 45.22 38.57 45.93C38.57 46.42 38.17 46.81 37.68 46.81C37.41 46.81 37.1 46.56 37.1 46.56C37.1 46.56 36.81 46.81 36.53 46.8C36.04 46.8 35.62 46.4 35.64 45.91V45.92Z" fill="#D66142"/>
<g style="mix-blend-mode:color-burn" opacity="0.2">
<path d="M36.53 46.8C36.81 46.8 37.1 46.56 37.1 46.56V44.11C37.1 44.11 35.67 45.19 35.64 45.9C35.61 46.39 36.04 46.78 36.53 46.79V46.8Z" fill="#616161"/>
</g>
</svg>
