<svg width="41" height="57" viewBox="0 0 41 57" fill="none" xmlns="http://www.w3.org/2000/svg">
<path d="M4.80002 56.49C2.45002 56.49 0.530023 54.62 0.520023 52.3L0.400024 5.00003C0.400024 2.67003 2.31002 0.780029 4.67002 0.780029L35.93 0.840027C38.28 0.840027 40.2 2.74003 40.2 5.06003V52.26C40.2 54.56 38.29 56.45 35.95 56.45L4.80002 56.49Z" fill="#C9C9C9"/>
<path d="M5.18998 56.38C2.86998 56.38 0.97998 54.5 0.97998 52.18V4.98999C0.97998 2.66999 2.86998 0.789978 5.18998 0.789978H36C38.32 0.789978 40.21 2.66999 40.21 4.98999V52.18C40.21 54.49 38.32 56.38 36 56.38H5.18998Z" fill="white"/>
<path d="M3.89 8.18999C3.89 8.25999 3.76 8.37998 3.51 8.53998C3.23 8.71998 2.99 8.80998 2.78 8.80998C2.67 8.80998 2.58 8.75999 2.52 8.65999C2.47 8.57999 2.45 8.50998 2.45 8.44998V5.27998C2.45 5.21998 2.45 5.16998 2.42 5.14998C2.4 5.12998 2.37 5.11998 2.33 5.11998C2.31 5.11998 2.26 5.11998 2.19 5.13998C2.11 5.15998 2.06 5.15998 2.02 5.14998C2 5.12998 2 5.10999 2 5.09999C2 5.05999 2.05 4.99998 2.15 4.92998C2.25 4.86998 2.35 4.78999 2.46 4.68999C2.55 4.61999 2.63 4.53999 2.72 4.45999C2.81 4.39999 2.89 4.35999 2.95 4.35999C3.05 4.35999 3.15 4.40998 3.25 4.52998C3.35 4.63998 3.39 4.73998 3.39 4.83998V8.19998C3.39 8.19998 3.42 8.22999 3.43 8.23999C3.46 8.25999 3.48 8.27998 3.5 8.27998C3.53 8.26998 3.56 8.25998 3.58 8.24998C3.63 8.22998 3.7 8.17998 3.78 8.11998H3.88L3.9 8.17998L3.89 8.18999Z" fill="#333333"/>
<path d="M7.76997 6.66C7.76997 6.9 7.71997 7.13 7.61997 7.36C7.45997 7.72 7.18997 8.03 6.79997 8.31C6.57997 8.46 6.41997 8.57 6.31997 8.62C6.07997 8.76 5.79997 8.82001 5.47997 8.82001C5.00997 8.82001 4.62998 8.62001 4.32998 8.21001C4.04998 7.83001 3.90997 7.39 3.90997 6.87C3.90997 6.54 3.99997 6.2 4.16997 5.86C4.27997 5.64 4.41997 5.44001 4.59997 5.24001C4.81997 5.00001 5.04997 4.79999 5.27997 4.64999C5.57997 4.45999 5.86997 4.37 6.14997 4.37C6.64997 4.37 7.04997 4.61001 7.35997 5.10001C7.63997 5.54001 7.77997 6.05999 7.77997 6.64999L7.76997 6.66ZM6.83997 7.33C6.83997 7.03 6.79997 6.74001 6.71997 6.46001C6.63997 6.18001 6.51997 5.91999 6.35997 5.67999C6.18997 5.40999 6.01997 5.23 5.86997 5.12C5.75997 5.04 5.65997 5 5.55997 5C5.32997 5 5.14997 5.11 4.99997 5.33C4.84997 5.55 4.77997 5.79001 4.77997 6.07001C4.77997 6.24001 4.79998 6.4 4.82998 6.55C4.87998 6.78 4.96997 7.04 5.10997 7.33C5.25997 7.67 5.43997 7.92 5.62997 8.08C5.78997 8.21 5.94997 8.28 6.09997 8.28C6.33997 8.28 6.51997 8.2 6.64997 8.03C6.77997 7.86 6.84997 7.63 6.84997 7.34L6.83997 7.33Z" fill="#333333"/>
<path d="M37.55 49.49C37.55 49.42 37.68 49.3 37.93 49.14C38.21 48.96 38.45 48.86 38.66 48.86C38.77 48.86 38.86 48.91 38.92 49.01C38.97 49.09 38.99 49.16 38.99 49.22V52.39C38.99 52.46 38.99 52.5 39.02 52.52C39.04 52.54 39.07 52.55 39.11 52.55C39.13 52.55 39.18 52.55 39.25 52.52C39.33 52.5 39.38 52.5 39.42 52.51C39.44 52.53 39.44 52.55 39.44 52.57C39.44 52.61 39.39 52.67 39.29 52.73C39.19 52.8 39.09 52.87 38.99 52.97C38.9 53.04 38.82 53.12 38.73 53.19C38.64 53.25 38.56 53.29 38.5 53.29C38.4 53.29 38.3 53.24 38.2 53.12C38.1 53.01 38.06 52.91 38.06 52.81V49.45C38.06 49.45 38.03 49.42 38.02 49.41C37.99 49.38 37.97 49.37 37.95 49.37C37.92 49.37 37.89 49.39 37.87 49.4C37.82 49.43 37.75 49.47 37.67 49.53H37.57L37.55 49.47V49.49Z" fill="#333333"/>
<path d="M33.67 51.03C33.67 50.79 33.72 50.56 33.82 50.33C33.98 49.97 34.25 49.66 34.64 49.38C34.86 49.22 35.02 49.12 35.12 49.07C35.36 48.94 35.64 48.87 35.96 48.87C36.43 48.87 36.81 49.07 37.11 49.48C37.39 49.86 37.53 50.3 37.53 50.82C37.53 51.15 37.44 51.49 37.27 51.83C37.16 52.04 37.02 52.25 36.84 52.45C36.62 52.69 36.39 52.89 36.16 53.04C35.86 53.23 35.57 53.32 35.29 53.32C34.79 53.32 34.39 53.08 34.08 52.59C33.8 52.15 33.67 51.63 33.67 51.03ZM34.6 50.37C34.6 50.66 34.64 50.96 34.72 51.24C34.8 51.52 34.92 51.78 35.08 52.03C35.25 52.3 35.41 52.48 35.57 52.59C35.68 52.67 35.78 52.71 35.88 52.71C36.11 52.71 36.29 52.6 36.44 52.38C36.59 52.16 36.66 51.92 36.66 51.64C36.66 51.47 36.64 51.31 36.61 51.16C36.56 50.93 36.47 50.67 36.33 50.38C36.18 50.04 36 49.79 35.81 49.63C35.65 49.5 35.49 49.43 35.33 49.43C35.09 49.43 34.91 49.51 34.78 49.68C34.65 49.85 34.58 50.08 34.58 50.37H34.6Z" fill="#333333"/>
<path d="M32.33 10.17C32.33 9.17 27.97 4.88 27.97 4.88C27.97 4.88 23.72 9.3 23.71 10.16C23.71 11.6 24.87 12.77 26.32 12.77C26.81 12.77 27.27 12.64 27.66 12.4L26.03 15.19H30L28.38 12.41C28.77 12.64 29.23 12.78 29.72 12.79C31.16 12.79 32.34 11.63 32.34 10.18L32.33 10.17Z" fill="#333333"/>
<g style="mix-blend-mode:color-burn" opacity="0.2">
<path d="M32.33 10.17C32.33 9.17 27.97 4.88 27.97 4.88V15.18H30.01L28.39 12.39C28.78 12.62 29.24 12.76 29.73 12.77C31.17 12.77 32.35 11.61 32.35 10.16L32.33 10.17Z" fill="#616161"/>
</g>
<path d="M32.33 22.54C32.33 21.54 27.97 17.25 27.97 17.25C27.97 17.25 23.72 21.67 23.71 22.53C23.71 23.97 24.87 25.14 26.32 25.14C26.81 25.14 27.27 25.01 27.66 24.77L26.03 27.56H30L28.38 24.77C28.77 25.01 29.23 25.15 29.72 25.15C31.16 25.15 32.34 23.99 32.34 22.54H32.33Z" fill="#333333"/>
<g style="mix-blend-mode:color-burn" opacity="0.2">
<path d="M32.33 22.54C32.33 21.54 27.97 17.25 27.97 17.25V27.55H30.01L28.39 24.76C28.78 25 29.24 25.14 29.73 25.14C31.17 25.14 32.35 23.98 32.35 22.53L32.33 22.54Z" fill="#616161"/>
</g>
<path d="M8.89001 10.17C8.89001 9.17 13.25 4.88 13.25 4.88C13.25 4.88 17.5 9.3 17.51 10.16C17.51 11.6 16.35 12.77 14.91 12.77C14.42 12.77 13.96 12.64 13.56 12.4L15.2 15.19H11.23L12.85 12.41C12.46 12.64 12 12.78 11.51 12.79C10.07 12.79 8.89001 11.63 8.89001 10.18V10.17Z" fill="#333333"/>
<g style="mix-blend-mode:color-burn" opacity="0.2">
<path d="M8.89 10.17C8.89 9.17 13.25 4.88 13.25 4.88V15.18H11.21L12.83 12.39C12.44 12.62 11.98 12.76 11.49 12.77C10.05 12.77 8.87 11.61 8.87 10.16L8.89 10.17Z" fill="#616161"/>
</g>
<path d="M16.29 17.24C16.29 16.24 20.65 11.95 20.65 11.95C20.65 11.95 24.9 16.37 24.91 17.23C24.91 18.67 23.75 19.84 22.3 19.84C21.81 19.84 21.35 19.71 20.96 19.47L22.6 22.26H18.63L20.25 19.48C19.86 19.72 19.4 19.86 18.91 19.86C17.47 19.86 16.29 18.7 16.29 17.25V17.24Z" fill="#333333"/>
<g style="mix-blend-mode:color-burn" opacity="0.2">
<path d="M16.29 17.24C16.29 16.24 20.65 11.95 20.65 11.95V22.25H18.61L20.23 19.46C19.84 19.7 19.38 19.84 18.89 19.84C17.45 19.84 16.27 18.68 16.27 17.23L16.29 17.24Z" fill="#616161"/>
</g>
<path d="M8.89001 22.54C8.89001 21.54 13.25 17.25 13.25 17.25C13.25 17.25 17.5 21.67 17.51 22.53C17.51 23.97 16.35 25.14 14.91 25.14C14.42 25.14 13.96 25.01 13.56 24.77L15.2 27.56H11.23L12.85 24.77C12.46 25.01 12 25.15 11.51 25.15C10.07 25.15 8.89001 23.99 8.89001 22.54Z" fill="#333333"/>
<g style="mix-blend-mode:color-burn" opacity="0.2">
<path d="M8.89 22.54C8.89 21.54 13.25 17.25 13.25 17.25V27.55H11.21L12.83 24.76C12.44 25 11.98 25.14 11.49 25.14C10.05 25.14 8.87 23.98 8.87 22.53L8.89 22.54Z" fill="#616161"/>
</g>
<path d="M32.31 47.2C32.31 48.2 27.95 52.49 27.95 52.49C27.95 52.49 23.7 48.07 23.69 47.21C23.69 45.77 24.85 44.59 26.29 44.59C26.78 44.59 27.24 44.72 27.63 44.96L26 42.17H29.97L28.35 44.95C28.74 44.71 29.2 44.57 29.69 44.57C31.13 44.57 32.31 45.73 32.31 47.18V47.2Z" fill="#333333"/>
<g style="mix-blend-mode:color-burn" opacity="0.2">
<path d="M32.31 47.2C32.31 48.2 27.95 52.49 27.95 52.49V42.19H29.99L28.37 44.98C28.76 44.74 29.22 44.6 29.71 44.6C31.15 44.6 32.33 45.76 32.33 47.21L32.31 47.2Z" fill="#616161"/>
</g>
<path d="M32.31 34.84C32.31 35.84 27.95 40.13 27.95 40.13C27.95 40.13 23.7 35.71 23.69 34.85C23.69 33.41 24.85 32.24 26.29 32.24C26.78 32.24 27.24 32.37 27.63 32.61L26 29.82H29.97L28.35 32.61C28.74 32.37 29.2 32.23 29.69 32.23C31.13 32.23 32.31 33.39 32.31 34.84Z" fill="#333333"/>
<g style="mix-blend-mode:color-burn" opacity="0.2">
<path d="M32.31 34.84C32.31 35.84 27.95 40.13 27.95 40.13V29.83H29.99L28.37 32.62C28.76 32.38 29.22 32.24 29.71 32.24C31.15 32.24 32.33 33.4 32.33 34.85L32.31 34.84Z" fill="#616161"/>
</g>
<path d="M8.86998 47.2C8.86998 48.2 13.23 52.49 13.23 52.49C13.23 52.49 17.48 48.07 17.49 47.21C17.49 45.77 16.33 44.59 14.88 44.59C14.39 44.59 13.93 44.72 13.54 44.96L15.17 42.17H11.2L12.82 44.95C12.43 44.71 11.97 44.57 11.48 44.57C10.04 44.57 8.85999 45.73 8.85999 47.18L8.86998 47.2Z" fill="#333333"/>
<g style="mix-blend-mode:color-burn" opacity="0.2">
<path d="M8.86998 47.2C8.86998 48.2 13.23 52.49 13.23 52.49V42.19H11.2L12.82 44.98C12.43 44.74 11.97 44.6 11.48 44.6C10.04 44.6 8.85999 45.76 8.85999 47.21L8.86998 47.2Z" fill="#616161"/>
</g>
<path d="M16.27 40.05C16.27 41.05 20.63 45.34 20.63 45.34C20.63 45.34 24.88 40.92 24.89 40.06C24.89 38.62 23.73 37.45 22.29 37.45C21.8 37.45 21.34 37.58 20.95 37.82L22.58 35.03H18.61L20.23 37.82C19.84 37.58 19.38 37.44 18.89 37.44C17.45 37.44 16.27 38.6 16.27 40.05Z" fill="#333333"/>
<g style="mix-blend-mode:color-burn" opacity="0.2">
<path d="M16.27 40.05C16.27 41.05 20.63 45.34 20.63 45.34V35.04H18.6L20.22 37.83C19.83 37.59 19.37 37.45 18.88 37.45C17.44 37.45 16.26 38.61 16.26 40.06L16.27 40.05Z" fill="#616161"/>
</g>
<path d="M8.86998 34.84C8.86998 35.84 13.23 40.13 13.23 40.13C13.23 40.13 17.48 35.71 17.49 34.85C17.49 33.41 16.33 32.24 14.88 32.24C14.39 32.24 13.93 32.37 13.54 32.61L15.17 29.82H11.2L12.82 32.61C12.43 32.37 11.97 32.23 11.48 32.23C10.04 32.23 8.85999 33.39 8.85999 34.84H8.86998Z" fill="#333333"/>
<g style="mix-blend-mode:color-burn" opacity="0.2">
<path d="M8.86998 34.84C8.86998 35.84 13.23 40.13 13.23 40.13V29.83H11.2L12.82 32.62C12.43 32.38 11.97 32.24 11.48 32.24C10.04 32.24 8.85999 33.4 8.85999 34.85L8.86998 34.84Z" fill="#616161"/>
</g>
<path d="M5.63003 12.08C5.63003 11.81 4.47003 10.67 4.47003 10.67C4.47003 10.67 3.34003 11.85 3.34003 12.08C3.34003 12.47 3.65003 12.78 4.03003 12.78C4.16003 12.78 4.28003 12.74 4.39003 12.68L3.96003 13.42H5.02003L4.59003 12.68C4.69003 12.74 4.82003 12.78 4.95003 12.78C5.33003 12.78 5.65003 12.47 5.65003 12.08H5.63003Z" fill="#333333"/>
<g style="mix-blend-mode:color-burn" opacity="0.2">
<path d="M5.62997 12.08C5.62997 11.81 4.46997 10.67 4.46997 10.67V13.42H5.00997L4.57997 12.68C4.67997 12.74 4.80997 12.78 4.93997 12.78C5.31997 12.78 5.63997 12.47 5.63997 12.08H5.62997Z" fill="#616161"/>
</g>
<path d="M35.99 45.75C35.99 46.02 37.15 47.16 37.15 47.16C37.15 47.16 38.29 45.98 38.29 45.75C38.29 45.37 37.98 45.05 37.59 45.05C37.46 45.05 37.34 45.09 37.23 45.15L37.67 44.41H36.61L37.04 45.15C36.94 45.09 36.81 45.05 36.68 45.05C36.3 45.05 35.98 45.36 35.98 45.75H35.99Z" fill="#333333"/>
<g style="mix-blend-mode:color-burn" opacity="0.2">
<path d="M35.99 45.75C35.99 46.02 37.15 47.16 37.15 47.16V44.41H36.61L37.04 45.15C36.94 45.09 36.81 45.05 36.68 45.05C36.3 45.05 35.98 45.36 35.98 45.75H35.99Z" fill="#616161"/>
</g>
</svg>
