<svg width="41" height="56" viewBox="0 0 41 56" fill="none" xmlns="http://www.w3.org/2000/svg">
<path d="M5.08995 55.6C2.73995 55.6 0.829962 53.73 0.819962 51.43L0.699951 4.26998C0.699951 1.94998 2.59996 0.0599858 4.95996 0.0699858L36.1199 0.129983C38.4699 0.129983 40.3699 2.01997 40.3699 4.33997V51.39C40.3699 53.69 38.47 55.57 36.13 55.57L5.07996 55.6H5.08995Z" fill="#C9C9C9"/>
<path d="M5.52007 55.45C3.21007 55.45 1.32007 53.57 1.32007 51.26V4.22003C1.32007 1.91003 3.21007 0.0300293 5.52007 0.0300293H36.2301C38.5501 0.0300293 40.4301 1.91003 40.4301 4.22003V51.26C40.4301 53.57 38.5501 55.45 36.2301 55.45H5.52007Z" fill="white"/>
<path d="M36.18 54.6H5.46997C3.67997 54.6 2.21997 53.15 2.21997 51.36V4.32002C2.21997 2.60002 3.57998 1.20001 4.31998 0.930008L4.42996 0.890015H35.3C38.35 1.13001 39.44 2.82002 39.44 4.32002V51.36C39.44 53.15 37.98 54.6 36.19 54.6H36.18ZM4.67996 2.18001C4.34996 2.39001 3.49997 3.25002 3.49997 4.32002V51.36C3.49997 52.44 4.37997 53.31 5.46997 53.31H36.18C37.26 53.31 38.15 52.43 38.15 51.36V4.32002C38.15 3.13002 37.05 2.33001 35.22 2.18001H4.67996Z" fill="#333333"/>
<path d="M8.12003 3.93001C7.99003 4.15001 7.84002 4.31001 7.65002 4.42001C7.46002 4.53001 7.27003 4.59001 7.09003 4.59001C7.03003 4.59001 6.81003 4.54001 6.45003 4.45001C6.28003 4.41001 6.12003 4.38002 5.98003 4.38002C5.89003 4.38002 5.80004 4.39002 5.71004 4.41002C5.62004 4.43002 5.54003 4.47002 5.48003 4.52002H5.41003V4.43001C5.54003 4.15001 5.69003 3.95002 5.86003 3.82002C6.04003 3.70002 6.27003 3.64001 6.55003 3.64001C6.76003 3.64001 6.95003 3.67002 7.14003 3.74002C7.33003 3.81002 7.51002 3.84001 7.68002 3.84001C7.74002 3.84001 7.80004 3.84001 7.88004 3.84001C7.96004 3.84001 8.04004 3.83002 8.13004 3.82002V3.92001L8.12003 3.93001ZM8.14003 7.50002C8.14003 7.90002 7.99003 8.22002 7.69003 8.46002C7.39003 8.70002 7.00003 8.82002 6.53003 8.82002C6.24003 8.82002 6.00003 8.76001 5.81003 8.65001C5.58003 8.52001 5.46004 8.32002 5.46004 8.07002C5.46004 7.95002 5.49003 7.85001 5.56003 7.76001C5.65003 7.64001 5.78003 7.58002 5.95003 7.58002C6.06003 7.58002 6.16004 7.61002 6.24004 7.69002C6.32004 7.77002 6.36003 7.85002 6.36003 7.96002C6.36003 8.13002 6.29003 8.25001 6.14003 8.31001C5.99003 8.37001 5.92003 8.42002 5.92003 8.44002C5.94003 8.49002 5.97003 8.53001 6.00003 8.56001C6.08003 8.64001 6.21003 8.67001 6.37003 8.67001C6.53003 8.67001 6.67002 8.63001 6.79002 8.56001C6.91002 8.48001 6.96004 8.38002 6.96004 8.24002V4.81001C7.17004 4.74001 7.37003 4.68002 7.55003 4.61002C7.73003 4.54002 7.90002 4.44001 8.04002 4.31001H8.14003V7.51001V7.50002Z" fill="#333333"/>
<path d="M33.67 48.68C33.67 48.28 33.82 47.96 34.12 47.72C34.42 47.48 34.81 47.35 35.28 47.35C35.57 47.35 35.81 47.41 36 47.52C36.23 47.65 36.3501 47.85 36.3501 48.1C36.3501 48.22 36.32 48.32 36.25 48.41C36.16 48.53 36.03 48.59 35.86 48.59C35.75 48.59 35.6501 48.55 35.5701 48.48C35.4901 48.41 35.45 48.32 35.45 48.21C35.45 48.04 35.52 47.92 35.67 47.86C35.82 47.8 35.89 47.76 35.89 47.73C35.87 47.68 35.84 47.64 35.81 47.61C35.72 47.53 35.6 47.49 35.44 47.49C35.28 47.49 35.1401 47.53 35.0201 47.61C34.9101 47.69 34.8501 47.79 34.8501 47.93V51.36C34.6401 51.43 34.44 51.5 34.26 51.57C34.08 51.63 33.9201 51.73 33.7701 51.87H33.67V48.67V48.68ZM33.69 52.25C33.81 52.04 33.97 51.87 34.16 51.76C34.35 51.64 34.54 51.59 34.72 51.59C34.78 51.59 35 51.64 35.36 51.73C35.53 51.77 35.69 51.8 35.83 51.8C35.92 51.8 36.0101 51.79 36.1001 51.77C36.1901 51.75 36.27 51.71 36.33 51.66H36.4V51.74C36.28 52.03 36.12 52.23 35.95 52.35C35.77 52.47 35.54 52.53 35.26 52.53C35.05 52.53 34.86 52.49 34.67 52.43C34.48 52.36 34.3001 52.33 34.1301 52.33C34.0701 52.33 34.01 52.33 33.93 52.33C33.86 52.33 33.77 52.34 33.68 52.36V52.25H33.69Z" fill="#333333"/>
<path d="M17.84 17.36L16.46 17.91L16.77 18.49L22.25 18.42L22.63 17.91L21.41 17.36H17.84Z" fill="#757575"/>
<path d="M21.41 15.65H17.84V19.37H21.41V15.65Z" fill="#EBB07A"/>
<g style="mix-blend-mode:color-burn" opacity="0.2">
<path d="M21.41 16.37V17.28C20.98 17.7 20.48 17.96 19.95 17.96H19.28C18.76 17.96 18.28 17.7 17.84 17.29V16.4L18.15 16.89L18.23 15.65H21L21.08 16.89L21.41 16.37Z" fill="#616161"/>
</g>
<path d="M21.62 6.51003C21.65 6.36003 21.69 6.21003 21.67 6.05003C21.61 5.56003 20.59 4.90002 19.62 4.90002C18.48 4.90002 17.62 5.49003 17.54 6.05003C17.51 6.29003 17.58 6.53003 17.66 6.75003C16.66 6.83003 15.86 7.67003 15.86 8.69003C15.86 9.77003 16.74 10.64 17.81 10.64C18.1 10.64 19.12 10.32 19.33 10.19H19.91C20.17 10.35 21.3 10.63 21.57 10.63C22.71 10.63 23.64 9.70003 23.63 8.56003C23.63 7.43003 22.72 6.52003 21.6 6.50003L21.62 6.51003Z" fill="#333333"/>
<path d="M19.95 7.16003H19.28C17.52 7.16003 16.09 8.37004 16.09 9.85004C16.09 9.85004 16.1 13.49 16.13 13.67C16.37 15.24 17.69 17.67 19.28 17.67H19.95C21.54 17.67 22.86 15.24 23.1 13.67C23.13 13.5 23.14 9.85004 23.14 9.85004C23.14 8.36004 21.71 7.16003 19.95 7.16003Z" fill="#EBB07A"/>
<path d="M18.85 17.17C18.84 17.23 18.83 17.29 18.83 17.36C18.83 17.83 19.21 18.21 19.68 18.21C20.15 18.21 20.53 17.83 20.53 17.36C20.53 17.26 20.51 17.16 20.48 17.07C20.89 17.04 21.22 16.69 21.22 16.27C21.22 15.82 20.86 15.46 20.41 15.46C20.29 15.46 19.87 15.59 19.78 15.64H19.54C19.43 15.58 18.96 15.46 18.85 15.46C18.38 15.46 18 15.84 18 16.31C18 16.78 18.37 17.15 18.84 17.16L18.85 17.17Z" fill="#333333"/>
<path d="M20.47 16.2699C20.37 16.2699 20.29 16.2399 20.25 16.2099L20.05 16.0899H19.22L19.01 16.2099C18.94 16.2499 18.87 16.2699 18.79 16.2699C18.67 16.2699 18.6 16.2699 18.47 16.1399C18.27 15.8999 19.35 14.4299 19.62 14.4299C19.89 14.4299 21.02 15.8199 20.79 16.1499C20.71 16.2299 20.59 16.2799 20.47 16.2799V16.2699Z" fill="#EBB07A"/>
<path d="M17.56 11.48C17.49 11.56 17.45 11.66 17.45 11.76C17.45 12.04 17.7199 12.26 18.0399 12.26C18.3599 12.26 18.63 12.04 18.63 11.76C18.63 11.65 18.59 11.55 18.52 11.48H17.55H17.56Z" fill="#333333"/>
<g style="mix-blend-mode:color-burn" opacity="0.2">
<path d="M19.8401 10.99H19.6201H19.3901L19.0701 13.32L19.6201 13.95L20.1601 13.32L19.8401 10.99Z" fill="#616161"/>
</g>
<path d="M21.66 11.48C21.73 11.56 21.77 11.66 21.77 11.76C21.77 12.04 21.5 12.26 21.18 12.26C20.86 12.26 20.59 12.04 20.59 11.76C20.59 11.65 20.63 11.55 20.7 11.48H21.67H21.66Z" fill="#333333"/>
<g style="mix-blend-mode:color-burn" opacity="0.2">
<path d="M20.28 15.13H18.98V15.45H20.28V15.13Z" fill="#616161"/>
</g>
<path d="M20.53 10.21L22.29 10.4299L20.53 10.64V10.21Z" fill="#333333"/>
<path d="M18.7 10.64L16.97 10.4299L18.7 10.21V10.64Z" fill="#333333"/>
<path d="M28.53 18.38L27.18 19.65L26.59 21.44C26.59 21.44 28.59 21.04 28.61 21.09L28.54 18.38H28.53Z" fill="#757575"/>
<path d="M10.85 18.38L12.2 19.65L12.79 21.44C12.79 21.44 10.79 21.04 10.77 21.09L10.84 18.38H10.85Z" fill="#757575"/>
<path d="M11.66 19.37L11.47 19.75L11.03 21.19C11.03 21.19 13.53 20.49 13.41 20.57L11.66 19.37Z" fill="#1C1C1C"/>
<path d="M30.15 23.32L28.8 23.72L26.37 24.45L26.22 24.49L23.1 25.42L23.01 25.45L22.82 25.5L21.87 25.79L21.5 25.9L20.32 26.25L19.72 26.43L17.43 27.12L16.95 27.25L16.84 27.29L16.24 27.47L15.86 27.58L14.77 27.9L13.14 28.4L13.13 27.93L13.12 26.58L12.04 28.41V28.72L10.9 29.06L8.16003 29.88V26.03L8.17003 25.84V25.82L8.19003 25.24L8.29002 25.02L8.83003 23.74L9.37003 22.47L9.94003 21.1L10.16 20.58L10.4 20.01L10.8 19.91L11.47 19.75L11.5 19.74L11.55 19.73L11.64 19.71L11.68 19.7L11.82 19.67L12.02 19.62L12.04 19.61L12.14 19.59L13.96 19.15L14.15 19.1L14.24 19.08L14.43 19.03L15.89 18.68L15.92 18.67L16.09 18.63L16.64 18.5L16.76 18.47L17.84 18.21H21.41L22.26 18.41L22.46 18.46L22.58 18.49L23.87 18.81L25.04 19.09L27.21 19.61L27.33 19.65L27.83 19.77L28.53 19.94H28.57L28.83 20.01L29.37 21.36L29.91 22.72L30.06 23.09L30.15 23.32Z" fill="#ABABAB"/>
<path opacity="0.2" d="M23.87 18.81L20.12 22.56L19.96 22.72L19.32 23.36H19.31L18.28 24.4L18.23 24.45L16.42 26.26L15.87 26.81L15.61 27.06L15.34 27.34L14.77 27.9L13.14 28.4L13.13 27.93L14.81 26.26L15.09 25.98L15.29 25.78L15.87 25.2L16.04 25.02L16.22 24.85L16.29 24.78L18.42 22.65L18.45 22.62L18.53 22.54L19.14 21.93L19.3 21.77L22.58 18.49L23.87 18.81Z" fill="white"/>
<path opacity="0.2" d="M28.53 19.94L26.27 22.19L23.07 25.39L23.01 25.45L22.82 25.5L21.87 25.79L21.5 25.9L20.32 26.25L19.72 26.43L17.43 27.12L16.95 27.25L16.84 27.29L16.92 27.2L17.27 26.86L18.88 25.25L19.04 25.09L19.91 24.22L20.01 24.12L20.86 23.27L25.04 19.09L27.21 19.61L27.33 19.65L27.83 19.77L28.53 19.94Z" fill="white"/>
<g style="mix-blend-mode:color-burn" opacity="0.2">
<path d="M23.1 25.42L23.01 25.45L22.82 25.51L21.87 25.79L21.5 25.9L20.31 26.25L19.72 26.43L17.42 27.12L16.94 27.26L16.83 27.29L16.23 27.47L15.85 27.58L15.6 27.06L15.08 25.97L13.4 22.46L12.58 20.76L12.5 20.6L12.04 19.64L12.03 19.6L12.13 19.58L13.95 19.14L14.14 19.09L14.22 19.07L14.42 19.02L15.88 18.67H15.91L16.08 18.62C16.6 19.15 17.81 20.34 19.29 21.76C19.56 22.02 19.83 22.28 20.11 22.55C20.35 22.78 20.6 23.02 20.85 23.26C21.58 23.96 22.33 24.68 23.06 25.38C23.06 25.38 23.08 25.4 23.09 25.41L23.1 25.42Z" fill="#616161"/>
</g>
<path d="M19.72 26.43L17.42 27.12L16.94 27.26L16.83 27.29L16.23 27.47L15.86 26.81L15.28 25.78L13.4 22.46L12.73 21.28L12.45 20.79L11.81 19.66L11.65 19.37L11.85 19.32L15.63 18.38C15.67 18.43 15.76 18.54 15.89 18.68C16.42 19.25 17.66 20.48 19.14 21.93C19.4 22.19 19.68 22.46 19.96 22.73C20.2 22.97 20.45 23.21 20.69 23.45C21.39 24.14 22.12 24.84 22.82 25.52L21.87 25.8L21.5 25.91L20.31 26.26L19.72 26.44V26.43Z" fill="#333333"/>
<path d="M16.46 17.91L16.64 18.5L19.47 20.14L19.38 18.21L16.46 17.91Z" fill="#EBEBEB"/>
<path d="M22.63 17.91L22.45 18.5L19.63 20.14L19.71 18.21L22.63 17.91Z" fill="#EBEBEB"/>
<g style="mix-blend-mode:color-burn" opacity="0.2">
<path d="M19.32 23.36L19.85 23.92C19.66 23.72 19.48 23.54 19.32 23.37C19.01 23.05 18.74 22.77 18.54 22.55C18.34 22.34 18.2 22.19 18.12 22.11L18.54 22.55L19.33 23.37L19.32 23.36Z" fill="#616161"/>
</g>
<g style="mix-blend-mode:color-burn" opacity="0.2">
<path d="M20.0099 24.12C20.6399 24.71 21.2699 25.28 21.8699 25.79L21.5 25.9L19.8999 24.22L19.19 23.48L19.11 23.4L18.3999 22.66L16.99 21.18L16.95 21.14C16.95 21.14 16.97 21.17 16.99 21.18C17.43 21.63 17.91 22.12 18.42 22.63C18.66 22.87 18.9099 23.11 19.1499 23.34C19.1799 23.37 19.1999 23.39 19.2299 23.42C19.4799 23.66 19.7299 23.89 19.9799 24.12H20.0099Z" fill="#616161"/>
</g>
<g style="mix-blend-mode:color-burn" opacity="0.2">
<path d="M17.43 27.12L16.95 27.25L16.92 27.2L16.42 26.26L15.87 25.2L15.25 24.02L14.5 22.71L16.04 25.02L16.69 25.99L17.27 26.86L17.43 27.12Z" fill="#616161"/>
</g>
<g style="mix-blend-mode:color-burn" opacity="0.2">
<path d="M20.32 26.25L19.72 26.43L19.29 25.77L18.88 25.25L18.23 24.45L17.91 24.06L18.28 24.4L19.04 25.09L20.32 26.25Z" fill="#616161"/>
</g>
<g style="mix-blend-mode:color-burn" opacity="0.2">
<path d="M13.1201 26.58L12.0401 28.41V28.72L10.9001 29.06L10.0701 28.9L11.2101 28.37L13.1201 26.58Z" fill="#616161"/>
</g>
<g style="mix-blend-mode:color-burn" opacity="0.2">
<path d="M30.1501 23.32L28.8001 23.72L26.3701 24.45L26.2201 24.49L26.0701 22.67L26.2701 22.19L26.5801 21.44L27.3301 19.65L27.8301 19.77L28.5301 19.94H28.5701L28.8301 20.01L29.3701 21.36L29.9101 22.72L30.0601 23.09L30.1501 23.32Z" fill="#616161"/>
</g>
<path d="M28.8 23.72L26.37 24.44V22.72L26.98 21.48L27.04 21.35L27.83 19.77L28.52 18.38C28.52 18.38 30.28 20.6 30.34 20.56C30.35 20.56 30.4 20.82 30.47 21.22C30.55 21.71 30.66 22.42 30.77 23.13L30.2 23.3L30.14 23.32L28.79 23.72H28.8Z" fill="#ABABAB"/>
<g style="mix-blend-mode:color-burn" opacity="0.2">
<path d="M13.1699 22.86L13.1199 25.93L8.93994 25.22C8.93994 25.22 8.93995 25.05 8.95995 24.88L10.1599 20.58L10.3999 20.01L11.4999 19.74H11.5499L11.6299 19.71H11.6699L13.1599 22.86H13.1699Z" fill="#616161"/>
</g>
<path d="M13.12 26.28L9.17003 25.93L8.16003 25.84C8.16003 25.84 8.16003 25.84 8.16003 25.82C8.17003 25.74 8.22003 25.44 8.28003 25.02C8.50003 23.54 8.95003 20.56 9.00003 20.56C9.06003 20.6 10.82 18.38 10.82 18.38V18.41L11.5 19.75L12.99 22.73L13.12 26.29V26.28Z" fill="#ABABAB"/>
<path opacity="0.2" d="M30.78 23.13L30.2101 23.3L30.15 23.33L29.86 23.41L29.54 23.5L28.8 23.72L29.37 21.37L29.51 20.79L28.54 18.38C28.64 18.51 30.2701 20.56 30.3501 20.56C30.3601 20.56 30.4 20.79 30.47 21.14C30.47 21.17 30.4801 21.2 30.4901 21.23C30.4901 21.26 30.5 21.3 30.51 21.34C30.53 21.5 30.5701 21.67 30.6001 21.87C30.6001 21.95 30.62 22.02 30.64 22.11C30.64 22.14 30.64 22.16 30.65 22.2C30.67 22.33 30.6901 22.47 30.7101 22.61C30.7101 22.64 30.7101 22.66 30.7101 22.68C30.7401 22.84 30.76 22.99 30.79 23.14L30.78 23.13Z" fill="white"/>
<path opacity="0.2" d="M10.83 18.41L9.87003 20.78L9.94003 21.09L10.77 24.56L9.17003 25.93L8.82004 26.23C8.82004 26.23 8.30004 28.34 8.24004 28.4C8.23004 28.41 8.20002 28.4 8.15002 28.4V25.84C8.15002 25.84 8.15002 25.84 8.15002 25.83L8.18002 25.24L8.27003 25.05V25.03V25.02C8.42003 24.01 8.68003 22.32 8.84003 21.34C8.85003 21.27 8.86003 21.2 8.87003 21.14C8.93003 20.79 8.97004 20.57 8.99004 20.57C9.08004 20.57 10.81 18.39 10.81 18.39H10.83V18.42V18.41Z" fill="white"/>
<path d="M19.61 6.44995L17.23 7.14995L15.9 8.94995V11.94L16.33 12.19L16.41 9.07996C16.41 9.07996 16.49 7.99995 17.42 7.99995C18.35 7.99995 19.61 8.64995 19.61 8.64995C19.61 8.64995 20.89 7.99995 21.8 7.99995C22.71 7.99995 22.81 9.07996 22.81 9.07996L22.88 12.19L23.31 11.94L23.58 9.10995L22.28 7.15996L19.6 6.45996L19.61 6.44995Z" fill="#333333"/>
<path d="M9.50005 23.35C9.41005 23.87 9.09004 24.25 8.78004 24.2C8.67004 24.18 8.58005 24.11 8.52005 24.02L8.70004 25.08L8.29004 25.01C8.44004 24 8.70005 22.31 8.86005 21.33C8.88005 21.31 8.89005 21.3 8.89005 21.3C8.89005 21.3 9.57004 23 9.51004 23.36L9.50005 23.35Z" fill="#333333"/>
<g style="mix-blend-mode:color-burn" opacity="0.2">
<path d="M15.53 19.65C15.52 19.59 15.5 19.53 15.47 19.47C15.27 19.06 14.75 18.86 14.28 19.03C13.79 19.19 13.52 19.68 13.69 20.13C13.73 20.23 13.79 20.32 13.86 20.39C13.4 20.6 13.14 21.11 13.3 21.58C13.48 22.09 14.0701 22.32 14.6001 22.08C14.7401 22.02 15.16 21.66 15.23 21.55L15.05 22.93L16.55 22.2L15.49 21.44C15.64 21.46 16.19 21.37 16.31 21.31C16.79 21.1 16.97 20.55 16.74 20.11C16.52 19.69 15.99 19.49 15.53 19.65Z" fill="#616161"/>
</g>
<path d="M15.5 19.81C15.49 19.75 15.47 19.68 15.44 19.62C15.25 19.18 14.74 18.97 14.29 19.16C13.85 19.35 13.64 19.86 13.83 20.31C13.87 20.4 13.93 20.49 14 20.56C13.62 20.76 13.45 21.22 13.62 21.61C13.8 22.03 14.28 22.22 14.7 22.05C14.81 22 15.16 21.71 15.22 21.62L15.08 22.72L16.33 22.18L15.44 21.52C15.57 21.54 16.05 21.46 16.16 21.42C16.61 21.23 16.81 20.71 16.62 20.27C16.43 19.83 15.93 19.63 15.49 19.81H15.5Z" fill="#FFD675"/>
<g style="mix-blend-mode:color-burn" opacity="0.2">
<path d="M15.43 21.78L15.92 22.14L15.35 22.38L15.43 21.77V21.78ZM14.39 21.91C14.14 21.91 13.92 21.76 13.83 21.54C13.71 21.25 13.83 20.91 14.11 20.76L14.36 20.63L14.17 20.42C14.12 20.37 14.08 20.3 14.05 20.23C13.91 19.9 14.06 19.51 14.4 19.36C14.48 19.32 14.57 19.3 14.66 19.3C14.93 19.3 15.16 19.46 15.26 19.7C15.28 19.74 15.29 19.78 15.3 19.85L15.35 20.1L15.59 20C15.67 19.97 15.75 19.95 15.84 19.95C16.1 19.95 16.34 20.11 16.45 20.35C16.52 20.51 16.52 20.69 16.45 20.86C16.39 21.02 16.26 21.15 16.1 21.22C16.03 21.25 15.67 21.31 15.51 21.31L15.06 21.49C15.01 21.56 14.71 21.81 14.63 21.85C14.55 21.88 14.47 21.9 14.39 21.9V21.91Z" fill="#616161"/>
</g>
<g style="mix-blend-mode:color-burn" opacity="0.2">
<path d="M30.78 23.13C30.76 22.99 30.74 22.85 30.71 22.71C30.71 22.69 30.71 22.67 30.71 22.65C30.71 22.63 30.71 22.61 30.71 22.59C30.69 22.45 30.67 22.31 30.65 22.18C30.65 22.14 30.64 22.12 30.64 22.09C30.62 22.01 30.61 21.93 30.6 21.85C30.57 21.65 30.54 21.48 30.51 21.32C30.51 21.28 30.5 21.25 30.49 21.21C30.49 21.18 30.49 21.15 30.47 21.12C30.41 20.77 30.37 20.54 30.35 20.54C30.27 20.54 28.64 18.49 28.54 18.36L27.22 19.59L25.05 19.06L23.88 18.78L22.59 18.46L22.47 18.43L22.64 17.87L21.42 17.32V16.94C22.3 16.11 22.95 14.67 23.11 13.62C23.12 13.55 23.13 12.81 23.14 12.01L23.33 11.9L23.6 9.06999L23.58 9.03998C23.62 8.86998 23.65 8.70998 23.65 8.52998C23.65 7.39998 22.74 6.48999 21.62 6.46999C21.65 6.31999 21.69 6.16998 21.67 6.00998C21.61 5.51998 20.59 4.85999 19.62 4.85999V26.42L19.73 26.39L20.32 26.21L21.51 25.86L21.88 25.75L22.83 25.47L23.02 25.41L23.11 25.38L26.23 24.45L26.38 24.4L28.81 23.68L29.94 23.34L30.16 23.28L30.2 23.26H30.22L30.79 23.09L30.78 23.13Z" fill="#616161"/>
</g>
<path d="M21.1001 38.42L22.4801 37.87L22.1701 37.29L16.6901 37.35L16.3101 37.87L17.5301 38.42H21.1001Z" fill="#757575"/>
<path d="M21.1 36.4H17.53V40.12H21.1V36.4Z" fill="#EBB07A"/>
<g style="mix-blend-mode:color-burn" opacity="0.2">
<path d="M17.53 39.41V38.5C17.97 38.08 18.46 37.82 18.99 37.82H19.66C20.18 37.82 20.67 38.08 21.1 38.48V39.37L20.79 38.88L20.71 40.12H17.94L17.86 38.88L17.53 39.4V39.41Z" fill="#616161"/>
</g>
<path d="M17.33 49.27C17.3 49.42 17.26 49.57 17.28 49.73C17.34 50.22 18.36 50.88 19.33 50.88C20.47 50.88 21.33 50.29 21.41 49.73C21.44 49.49 21.37 49.25 21.29 49.03C22.29 48.95 23.09 48.11 23.09 47.09C23.09 46.01 22.21 45.14 21.14 45.14C20.85 45.14 19.83 45.46 19.62 45.59H19.04C18.78 45.43 17.65 45.15 17.38 45.15C16.24 45.15 15.31 46.08 15.32 47.22C15.32 48.35 16.23 49.26 17.35 49.28L17.33 49.27Z" fill="#333333"/>
<path d="M18.9901 48.62H19.66C21.42 48.62 22.8501 47.42 22.8501 45.93C22.8501 45.93 22.84 42.29 22.81 42.12C22.56 40.55 21.25 38.12 19.66 38.12H18.9901C17.4001 38.12 16.08 40.55 15.84 42.12C15.81 42.29 15.8 45.93 15.8 45.93C15.8 47.42 17.2301 48.62 18.9901 48.62Z" fill="#EBB07A"/>
<path d="M20.1 38.61C20.11 38.55 20.12 38.49 20.12 38.42C20.12 37.95 19.74 37.57 19.27 37.57C18.8 37.57 18.42 37.95 18.42 38.42C18.42 38.52 18.44 38.62 18.47 38.71C18.05 38.74 17.73 39.09 17.73 39.51C17.73 39.95 18.09 40.31 18.54 40.31C18.66 40.31 19.08 40.18 19.17 40.13H19.41C19.52 40.19 19.98 40.31 20.1 40.31C20.57 40.31 20.95 39.93 20.95 39.46C20.95 38.99 20.57 38.62 20.11 38.61H20.1Z" fill="#333333"/>
<path d="M18.4701 39.51C18.5701 39.51 18.6501 39.54 18.6901 39.57L18.8901 39.69H19.7301L19.9401 39.57C20.0001 39.53 20.0801 39.51 20.1601 39.51C20.2801 39.51 20.3501 39.51 20.4801 39.64C20.6801 39.87 19.6001 41.35 19.3301 41.35C19.0601 41.35 17.9301 39.96 18.1601 39.63C18.2401 39.55 18.3601 39.5 18.4701 39.5V39.51Z" fill="#EBB07A"/>
<path d="M21.3801 44.3C21.4501 44.22 21.4901 44.12 21.4901 44.01C21.4901 43.73 21.2201 43.51 20.9001 43.51C20.5801 43.51 20.3101 43.74 20.3101 44.01C20.3101 44.12 20.3501 44.22 20.4201 44.3H21.3901H21.3801Z" fill="#333333"/>
<g style="mix-blend-mode:color-burn" opacity="0.2">
<path d="M19.1 44.79H19.33H19.56L19.87 42.45L19.33 41.83L18.78 42.45L19.1 44.79Z" fill="#616161"/>
</g>
<path d="M17.28 44.3C17.21 44.22 17.17 44.12 17.17 44.01C17.17 43.73 17.44 43.51 17.76 43.51C18.08 43.51 18.3501 43.74 18.3501 44.01C18.3501 44.12 18.3101 44.22 18.2401 44.3H17.2701H17.28Z" fill="#333333"/>
<g style="mix-blend-mode:color-burn" opacity="0.2">
<path d="M19.96 40.32H18.66V40.64H19.96V40.32Z" fill="#616161"/>
</g>
<path d="M18.42 45.57L16.65 45.35L18.42 45.14V45.57Z" fill="#333333"/>
<path d="M20.24 45.14L21.97 45.35L20.24 45.57V45.14Z" fill="#333333"/>
<path d="M10.42 37.4L11.77 36.13L12.36 34.34C12.36 34.34 10.35 34.74 10.34 34.69L10.41 37.4H10.42Z" fill="#757575"/>
<path d="M28.1 37.4L26.75 36.13L26.16 34.34C26.16 34.34 28.16 34.74 28.18 34.69L28.11 37.4H28.1Z" fill="#757575"/>
<path d="M27.2801 36.4L27.4701 36.02L27.9101 34.58C27.9101 34.58 25.4101 35.28 25.5301 35.2L27.2801 36.4Z" fill="#1C1C1C"/>
<path d="M8.79004 32.46L10.14 32.06L12.5701 31.33L12.73 31.29L15.84 30.36L15.93 30.33L16.12 30.27L17.0701 29.99L17.44 29.88L18.6301 29.52L19.22 29.35L21.51 28.66L21.9901 28.52L22.1001 28.49L22.7 28.31L23.08 28.19L24.17 27.87L25.8 27.38L25.81 27.85L25.8201 29.2L26.9 27.37V27.06L28.04 26.71L30.78 25.9V29.74L30.7701 29.94V29.96L30.75 30.54L30.65 30.75L30.11 32.03L29.5701 33.31L29 34.68L28.78 35.19L28.54 35.77L28.14 35.87L27.47 36.02L27.44 36.03L27.39 36.05L27.3 36.07H27.26L27.12 36.11L26.93 36.16H26.92L26.9 36.17L26.8 36.19L24.98 36.63L24.79 36.68L24.7 36.7L24.51 36.75L23.05 37.1H23.0201L22.8501 37.15L22.3 37.28L22.18 37.31L21.1001 37.57H17.53L16.68 37.36L16.48 37.31L16.36 37.29L15.0701 36.97L13.9 36.69L11.73 36.16L11.61 36.13L11.11 36.01L10.42 35.84L10.37 35.83L10.11 35.77L9.57005 34.42L9.03004 33.06L8.88005 32.69L8.79004 32.46Z" fill="#ABABAB"/>
<path opacity="0.2" d="M15.0701 36.97L18.8201 33.22L18.9801 33.06L19.6201 32.42L19.6301 32.41L20.6601 31.38L20.7101 31.33L22.5201 29.52L23.0701 28.97L23.3301 28.71L23.6001 28.44L24.1701 27.87L25.8001 27.38L25.8101 27.85L24.1301 29.52L23.8501 29.8L23.6501 29.99L23.0801 30.58L22.9001 30.75L22.7201 30.93L22.6501 31L20.5301 33.12L20.4901 33.16L20.4101 33.24L19.8001 33.85L19.6501 34.01L16.3601 37.29L15.0701 36.97Z" fill="white"/>
<path opacity="0.2" d="M10.42 35.84L12.67 33.58L15.87 30.38L15.93 30.33L16.12 30.27L17.0701 29.99L17.44 29.88L18.6301 29.52L19.22 29.35L21.51 28.66L21.9901 28.52L22.1001 28.49L22.0201 28.57L21.68 28.91L20.0701 30.52L19.9 30.68L19.03 31.55L18.93 31.65L18.09 32.5L13.9 36.69L11.73 36.16L11.61 36.13L11.11 36.01L10.42 35.84Z" fill="white"/>
<g style="mix-blend-mode:color-burn" opacity="0.2">
<path d="M15.84 30.36L15.93 30.33L16.12 30.28L17.07 30L17.44 29.89L18.63 29.53L19.22 29.35L21.52 28.66L22 28.52L22.11 28.49L22.71 28.31L23.09 28.2L23.34 28.72L23.86 29.81L25.54 33.32L26.36 35.02L26.44 35.18L26.9 36.13L26.91 36.17L26.81 36.19L24.99 36.63L24.8 36.68L24.72 36.7L24.52 36.75L23.06 37.1H23.03L22.86 37.15C22.34 36.62 21.12 35.43 19.65 34.01C19.38 33.75 19.11 33.49 18.83 33.22C18.59 32.98 18.34 32.75 18.09 32.51C17.36 31.81 16.61 31.09 15.88 30.39C15.88 30.39 15.86 30.37 15.85 30.36H15.84Z" fill="#616161"/>
</g>
<path d="M19.22 29.35L21.52 28.66L22 28.52L22.11 28.49L22.71 28.31L23.08 28.97L23.66 30L25.54 33.32L26.21 34.5L26.49 34.99L27.13 36.12L27.29 36.41L27.09 36.46L23.31 37.4C23.27 37.35 23.18 37.25 23.05 37.1C22.52 36.53 21.28 35.3 19.8 33.85C19.53 33.59 19.26 33.32 18.98 33.05C18.74 32.81 18.49 32.57 18.25 32.33C17.55 31.64 16.82 30.94 16.12 30.26L17.07 29.98L17.44 29.87L18.63 29.51L19.22 29.33V29.35Z" fill="#333333"/>
<path d="M22.48 37.87L22.3 37.28L19.48 35.64L19.56 37.57L22.48 37.87Z" fill="#EBEBEB"/>
<path d="M16.3101 37.87L16.4901 37.28L19.3201 35.64L19.2301 37.57L16.3101 37.87Z" fill="#EBEBEB"/>
<g style="mix-blend-mode:color-burn" opacity="0.2">
<path d="M19.62 32.42L19.09 31.86C19.28 32.05 19.46 32.24 19.62 32.41C19.93 32.74 20.2 33.02 20.4 33.24C20.6 33.45 20.74 33.6 20.82 33.68L20.4 33.24L19.61 32.42H19.62Z" fill="#616161"/>
</g>
<g style="mix-blend-mode:color-burn" opacity="0.2">
<path d="M18.9301 31.65C18.3001 31.06 17.6701 30.49 17.0701 29.98L17.4401 29.87L19.0401 31.55L19.7501 32.29L19.8301 32.37L20.5401 33.11L21.9401 34.59L21.9801 34.63C21.9801 34.63 21.9601 34.6 21.9401 34.59C21.5101 34.14 21.0201 33.65 20.5101 33.14C20.2701 32.9 20.0201 32.66 19.7801 32.42C19.7501 32.39 19.7301 32.37 19.7001 32.34C19.4501 32.1 19.2101 31.87 18.9501 31.63L18.9301 31.65Z" fill="#616161"/>
</g>
<g style="mix-blend-mode:color-burn" opacity="0.2">
<path d="M21.51 28.66L21.99 28.52L22.02 28.57L22.52 29.52L23.08 30.58L23.69 31.75L24.44 33.07L22.9 30.75L22.26 29.78L21.68 28.91L21.51 28.66Z" fill="#616161"/>
</g>
<g style="mix-blend-mode:color-burn" opacity="0.2">
<path d="M18.63 29.52L19.22 29.35L19.66 30.01L20.07 30.52L20.71 31.33L21.03 31.71L20.66 31.38L19.9 30.68L18.63 29.52Z" fill="#616161"/>
</g>
<g style="mix-blend-mode:color-burn" opacity="0.2">
<path d="M25.8201 29.2L26.9001 27.37V27.06L28.0401 26.71L28.8701 26.88L27.7301 27.4L25.8201 29.2Z" fill="#616161"/>
</g>
<g style="mix-blend-mode:color-burn" opacity="0.2">
<path d="M8.79004 32.46L10.14 32.06L12.5701 31.33L12.73 31.29L12.87 33.11L12.67 33.58L12.36 34.34L11.61 36.13L11.11 36.01L10.42 35.84L10.37 35.83L10.11 35.77L9.57005 34.42L9.03004 33.06L8.88005 32.69L8.79004 32.46Z" fill="#616161"/>
</g>
<path d="M10.14 32.06L12.57 31.34V33.06L11.96 34.3L11.89 34.43L11.1 36.01L10.41 37.4C10.41 37.4 8.65003 35.18 8.59003 35.22C8.58003 35.22 8.53004 34.96 8.46004 34.56C8.38004 34.07 8.27003 33.36 8.16003 32.65L8.73003 32.48L8.79002 32.46L10.14 32.06Z" fill="#ABABAB"/>
<g style="mix-blend-mode:color-burn" opacity="0.2">
<path d="M25.77 32.91L25.82 29.84L30 30.55C30 30.55 30 30.72 29.98 30.89L28.78 35.19L28.54 35.77L27.44 36.04H27.39L27.31 36.07H27.27L25.78 32.92L25.77 32.91Z" fill="#616161"/>
</g>
<path d="M25.8201 29.49L29.7701 29.85L30.7801 29.94C30.7801 29.94 30.7801 29.94 30.7801 29.96C30.7701 30.04 30.7201 30.34 30.6601 30.76C30.4401 32.24 29.9901 35.23 29.9401 35.23C29.8801 35.19 28.1201 37.41 28.1201 37.41V37.38L27.4401 36.05L25.9501 33.07L25.8201 29.51V29.49Z" fill="#ABABAB"/>
<path opacity="0.2" d="M8.16003 32.65L8.73003 32.48L8.79002 32.45L9.08003 32.37L9.40002 32.28L10.14 32.05L9.58003 34.41L9.44003 34.99L10.41 37.39C10.31 37.26 8.68004 35.21 8.60004 35.21C8.59004 35.21 8.55004 34.98 8.49004 34.63C8.49004 34.61 8.48003 34.58 8.47003 34.55C8.47003 34.52 8.46003 34.48 8.45003 34.44C8.42003 34.28 8.39003 34.1 8.36003 33.91C8.36003 33.83 8.34004 33.76 8.32004 33.67C8.32004 33.64 8.32003 33.62 8.31003 33.58C8.29003 33.45 8.27003 33.31 8.25003 33.16C8.25003 33.13 8.25003 33.11 8.25003 33.09C8.22003 32.94 8.20003 32.78 8.17003 32.63L8.16003 32.65Z" fill="white"/>
<path opacity="0.2" d="M28.11 37.37L29.07 35L29 34.69L28.17 31.22L29.77 29.85L30.12 29.55C30.12 29.55 30.64 27.44 30.7 27.38C30.71 27.37 30.74 27.37 30.79 27.39V29.95C30.79 29.95 30.79 29.95 30.79 29.96L30.76 30.55L30.68 30.74V30.76V30.77C30.53 31.78 30.27 33.47 30.11 34.45C30.1 34.52 30.09 34.59 30.08 34.65C30.02 35 29.98 35.22 29.96 35.22C29.87 35.22 28.14 37.4 28.14 37.4H28.12V37.37H28.11Z" fill="white"/>
<path d="M19.33 49.32L21.71 48.61L23.04 46.82V43.83L22.61 43.58L22.54 46.68C22.54 46.68 22.46 47.76 21.53 47.76C20.6 47.76 19.34 47.11 19.34 47.11C19.34 47.11 18.06 47.76 17.15 47.76C16.24 47.76 16.14 46.68 16.14 46.68L16.07 43.58L15.64 43.83L15.37 46.66L16.67 48.62L19.35 49.33L19.33 49.32Z" fill="#333333"/>
<path d="M29.44 32.42C29.53 31.9 29.85 31.52 30.16 31.57C30.27 31.59 30.36 31.65 30.42 31.75L30.24 30.69L30.65 30.75C30.5 31.76 30.24 33.45 30.08 34.43C30.06 34.46 30.05 34.47 30.05 34.47C30.05 34.47 29.37 32.77 29.43 32.41L29.44 32.42Z" fill="#333333"/>
<g style="mix-blend-mode:color-burn" opacity="0.2">
<path d="M23.4101 36.13C23.4201 36.19 23.4401 36.25 23.4701 36.31C23.6701 36.72 24.1901 36.91 24.6601 36.75C25.1501 36.59 25.4201 36.1 25.2501 35.65C25.2101 35.55 25.1501 35.46 25.0801 35.39C25.5401 35.18 25.8001 34.67 25.6401 34.2C25.4601 33.69 24.87 33.46 24.34 33.7C24.2 33.76 23.7801 34.12 23.7101 34.22L23.8901 32.84L22.3901 33.57L23.4501 34.33C23.3001 34.31 22.7501 34.4 22.6301 34.46C22.1501 34.67 21.9701 35.22 22.2001 35.66C22.4201 36.08 22.9501 36.28 23.4101 36.12V36.13Z" fill="#616161"/>
</g>
<path d="M23.44 35.96C23.45 36.02 23.47 36.08 23.5 36.15C23.69 36.59 24.2 36.8 24.65 36.61C25.09 36.42 25.3 35.9 25.11 35.46C25.07 35.36 25.01 35.28 24.95 35.21C25.33 35.01 25.5 34.55 25.33 34.16C25.15 33.74 24.67 33.54 24.25 33.72C24.14 33.77 23.79 34.06 23.73 34.15L23.87 33.05L22.62 33.59L23.51 34.25C23.38 34.23 22.89 34.31 22.79 34.35C22.35 34.54 22.14 35.06 22.33 35.5C22.52 35.94 23.0201 36.14 23.4601 35.97L23.44 35.96Z" fill="#FFD675"/>
<g style="mix-blend-mode:color-burn" opacity="0.2">
<path d="M23.51 34L23.02 33.64L23.59 33.4L23.51 34.01V34ZM24.55 33.87C24.8 33.87 25.02 34.02 25.11 34.24C25.23 34.53 25.11 34.87 24.83 35.02L24.58 35.15L24.78 35.36C24.83 35.41 24.87 35.48 24.9 35.55C25.04 35.89 24.89 36.27 24.55 36.42C24.47 36.46 24.38 36.47 24.29 36.47C24.02 36.47 23.79 36.31 23.68 36.07C23.66 36.03 23.65 35.98 23.64 35.92L23.59 35.67L23.35 35.77C23.27 35.81 23.19 35.82 23.1 35.82C22.83 35.82 22.6 35.66 22.49 35.42C22.42 35.26 22.42 35.08 22.49 34.91C22.56 34.75 22.68 34.62 22.84 34.55C22.91 34.52 23.27 34.46 23.43 34.46L23.88 34.28C23.93 34.21 24.23 33.96 24.31 33.92C24.39 33.88 24.47 33.87 24.55 33.87Z" fill="#616161"/>
</g>
<g style="mix-blend-mode:color-burn" opacity="0.2">
<path d="M8.16003 32.65C8.18003 32.79 8.20003 32.93 8.23003 33.07C8.23003 33.09 8.23003 33.11 8.23003 33.13C8.23003 33.15 8.23003 33.17 8.23003 33.18C8.25003 33.33 8.27002 33.47 8.29002 33.6C8.29002 33.64 8.30003 33.66 8.30003 33.69C8.32003 33.77 8.33003 33.85 8.34003 33.93C8.37003 34.12 8.40002 34.3 8.43002 34.46C8.43002 34.5 8.44003 34.53 8.45003 34.57C8.45003 34.6 8.45003 34.63 8.47003 34.65C8.53003 35 8.57003 35.23 8.58003 35.23C8.66003 35.23 10.29 37.28 10.39 37.41H10.4L11.72 36.17L13.89 36.69L15.06 36.98L16.35 37.3L16.47 37.33L16.3 37.89L17.52 38.44V38.82C16.64 39.65 15.99 41.09 15.83 42.13C15.82 42.21 15.81 42.94 15.8 43.75L15.61 43.86L15.34 46.69L15.36 46.72C15.32 46.88 15.29 47.05 15.29 47.23C15.29 48.36 16.2 49.27 17.32 49.29C17.29 49.44 17.25 49.59 17.27 49.75C17.33 50.24 18.35 50.9 19.32 50.9V29.34L19.21 29.37L18.62 29.55L17.43 29.91L17.06 30.02L16.11 30.3L15.92 30.35L15.83 30.38L12.71 31.31L12.56 31.36L10.13 32.08L9.00003 32.42L8.78003 32.48L8.74004 32.5H8.72003L8.15002 32.68L8.16003 32.65Z" fill="#616161"/>
</g>
<path d="M7.72 11.11C7.74 11.03 7.75 10.95 7.75 10.86C7.75 10.25 7.25 9.75 6.64 9.75C6.03 9.75 5.53 10.25 5.53 10.86C5.53 10.99 5.55001 11.12 5.60001 11.23C5.06001 11.28 4.63 11.73 4.63 12.28C4.63 12.83 5.09999 13.33 5.67999 13.33C5.82999 13.33 6.38 13.16 6.5 13.09L5.78999 14.31H7.52L6.81 13.09C6.95 13.18 7.56 13.33 7.7 13.33C8.31 13.33 8.81 12.83 8.81 12.22C8.81 11.61 8.32 11.12 7.72 11.11Z" fill="#333333"/>
<path d="M9.84004 23.43C9.76004 23.96 9.39004 24.34 9.01004 24.29C8.92004 24.27 8.56005 24.08 8.49005 24L8.77005 25.12L8.29004 25.05V25.03V25.02C8.44004 24.01 8.70005 22.32 8.86005 21.34C8.87005 21.27 8.88005 21.2 8.89005 21.14C9.22005 21.24 9.43005 21.68 9.35005 22.17C9.35005 22.25 9.32005 22.31 9.30005 22.38C9.67005 22.44 9.91004 22.92 9.84004 23.44V23.43Z" fill="#333333"/>
<path d="M30.78 23.13L30.21 23.3L30.15 23.33L29.86 23.41L29.54 23.5C29.54 23.5 29.54 23.46 29.53 23.43C29.45 22.91 29.69 22.44 30.07 22.37C30.05 22.3 30.03 22.23 30.02 22.16C29.94 21.68 30.14 21.24 30.47 21.13C30.47 21.16 30.48 21.19 30.49 21.22C30.49 21.25 30.5 21.29 30.51 21.33C30.53 21.49 30.57 21.66 30.6 21.86C30.6 21.94 30.62 22.01 30.64 22.1C30.64 22.13 30.64 22.15 30.65 22.19C30.67 22.32 30.69 22.46 30.71 22.6C30.71 22.63 30.71 22.65 30.71 22.67C30.74 22.83 30.76 22.98 30.79 23.13H30.78Z" fill="#333333"/>
<g style="mix-blend-mode:color-burn" opacity="0.2">
<path d="M7.72002 11.11C7.74002 11.03 7.75002 10.95 7.75002 10.86C7.75002 10.25 7.25001 9.75 6.64001 9.75V14.3H7.52002L6.81001 13.08C6.95001 13.17 7.56001 13.32 7.70001 13.32C8.31001 13.32 8.81001 12.82 8.81001 12.21C8.81001 11.6 8.32002 11.11 7.72002 11.1V11.11Z" fill="#616161"/>
</g>
<path d="M34.31 44.29C34.29 44.37 34.28 44.45 34.28 44.54C34.28 45.15 34.78 45.65 35.39 45.65C36 45.65 36.5 45.16 36.5 44.54C36.5 44.41 36.48 44.28 36.43 44.16C36.97 44.12 37.4 43.67 37.4 43.12C37.4 42.54 36.93 42.07 36.35 42.07C36.2 42.07 35.65 42.24 35.53 42.31L36.24 41.09H34.51L35.22 42.31C35.08 42.22 34.47 42.07 34.33 42.07C33.72 42.07 33.22 42.57 33.22 43.18C33.22 43.79 33.71 44.28 34.31 44.29Z" fill="#333333"/>
<g style="mix-blend-mode:color-burn" opacity="0.2">
<path d="M34.31 44.29C34.29 44.37 34.28 44.45 34.28 44.54C34.28 45.15 34.78 45.65 35.39 45.65V41.1H34.51L35.22 42.32C35.08 42.23 34.47 42.08 34.33 42.08C33.72 42.08 33.22 42.58 33.22 43.19C33.22 43.8 33.71 44.29 34.31 44.3V44.29Z" fill="#616161"/>
</g>
</svg>
