<svg width="40" height="56" viewBox="0 0 40 56" fill="none" xmlns="http://www.w3.org/2000/svg">
<path d="M4.4 55.98C2.05 55.98 0.13 54.1 0.12 51.79L0 4.49996C0 2.16996 1.91 0.279956 4.27 0.289956L35.53 0.349969C37.88 0.349969 39.8 2.24997 39.8 4.56997V51.76C39.8 54.07 37.89 55.95 35.55 55.95L4.41 55.99L4.4 55.98Z" fill="#C9C9C9"/>
<path d="M4.83 55.86C2.51 55.86 0.619995 53.98 0.619995 51.66V4.47002C0.619995 2.16002 2.51 0.27002 4.83 0.27002H35.63C37.95 0.27002 39.84 2.15002 39.84 4.47002V51.66C39.84 53.97 37.95 55.86 35.63 55.86H4.83Z" fill="white"/>
<path d="M35.58 54.98H4.78002C2.98002 54.98 1.52002 53.52 1.52002 51.73V4.54999C1.52002 2.82999 2.89002 1.41998 3.62002 1.14998L3.73002 1.10999H34.7C37.76 1.34999 38.85 3.03999 38.85 4.54999V51.73C38.85 53.52 37.39 54.98 35.59 54.98H35.58ZM3.99002 2.39998C3.66002 2.60998 2.81002 3.47999 2.81002 4.54999V51.73C2.81002 52.81 3.70002 53.69 4.79002 53.69H35.59C36.68 53.69 37.57 52.81 37.57 51.73V4.54999C37.57 3.34999 36.47 2.54998 34.63 2.39998H3.99002Z" fill="#D66142"/>
<path d="M5.91997 14.94L3.90997 12.39L5.91997 9.84998L7.93997 12.39L5.91997 14.94Z" fill="#D66142"/>
<g style="mix-blend-mode:color-burn" opacity="0.2">
<path d="M5.91999 9.84998L5.85999 9.92996V14.86L5.91999 14.94L7.93999 12.39L5.91999 9.84998Z" fill="#616161"/>
</g>
<path d="M7.44002 4.17001C7.31002 4.39001 7.16002 4.55001 6.97002 4.67001C6.78002 4.78001 6.59002 4.84001 6.41002 4.84001C6.35002 4.84001 6.13002 4.79001 5.76002 4.70001C5.59002 4.65001 5.43002 4.63002 5.28002 4.63002C5.19002 4.63002 5.10002 4.64002 5.01002 4.66002C4.92002 4.68002 4.84002 4.72002 4.78002 4.77002H4.71002V4.68001C4.84002 4.40001 4.99002 4.19002 5.17002 4.07002C5.35002 3.95002 5.58002 3.89001 5.86002 3.89001C6.07002 3.89001 6.27002 3.92002 6.45002 3.99002C6.64002 4.06002 6.82002 4.09001 7.00002 4.09001C7.06002 4.09001 7.12002 4.09001 7.20002 4.09001C7.28002 4.09001 7.36002 4.08002 7.45002 4.07002V4.17001H7.44002ZM7.46002 7.75002C7.46002 8.15002 7.31002 8.47002 7.00002 8.72002C6.70002 8.97002 6.31002 9.09001 5.84002 9.09001C5.55002 9.09001 5.31002 9.03001 5.11002 8.92001C4.88002 8.79001 4.76002 8.59001 4.76002 8.34001C4.76002 8.22001 4.79002 8.12001 4.86002 8.03001C4.95002 7.91001 5.08002 7.85002 5.25002 7.85002C5.36002 7.85002 5.46002 7.89002 5.54002 7.96002C5.62002 8.03002 5.67002 8.12001 5.67002 8.23001C5.67002 8.40001 5.60002 8.52002 5.45002 8.58002C5.30002 8.64002 5.23002 8.69002 5.23002 8.71002C5.25002 8.76002 5.28002 8.80002 5.31002 8.83002C5.40002 8.91002 5.52002 8.94002 5.68002 8.94002C5.84002 8.94002 5.98002 8.90002 6.10002 8.83002C6.22002 8.75002 6.27002 8.64001 6.27002 8.51001V5.07002C6.48002 5.00002 6.68002 4.93001 6.86002 4.87001C7.04002 4.80001 7.21002 4.70002 7.35002 4.57002H7.45002V7.78001L7.46002 7.75002Z" fill="#333333"/>
<path d="M34.6 41.85L36.61 44.4L34.6 46.94L32.58 44.4L34.6 41.85Z" fill="#D66142"/>
<g style="mix-blend-mode:color-burn" opacity="0.2">
<path d="M34.6 46.94L34.66 46.86V41.93L34.6 41.85L32.58 44.4L34.6 46.94Z" fill="#616161"/>
</g>
<path d="M33.06 49.04C33.06 48.64 33.21 48.32 33.51 48.08C33.81 47.84 34.2 47.71 34.67 47.71C34.96 47.71 35.2 47.76 35.4 47.88C35.63 48.01 35.75 48.21 35.75 48.46C35.75 48.58 35.72 48.68 35.65 48.77C35.56 48.89 35.43 48.95 35.26 48.95C35.15 48.95 35.05 48.91 34.97 48.84C34.89 48.77 34.84 48.68 34.84 48.57C34.84 48.4 34.91 48.28 35.06 48.22C35.21 48.16 35.28 48.12 35.28 48.09C35.26 48.04 35.23 48 35.2 47.97C35.11 47.89 34.99 47.86 34.83 47.86C34.67 47.86 34.53 47.9 34.41 47.97C34.29 48.05 34.24 48.16 34.24 48.29V51.73C34.03 51.8 33.83 51.87 33.65 51.94C33.47 52.01 33.3 52.11 33.16 52.23H33.06V49.02V49.04ZM33.08 52.62C33.21 52.41 33.36 52.24 33.55 52.12C33.74 52.01 33.93 51.95 34.11 51.95C34.17 51.95 34.39 52 34.76 52.09C34.94 52.14 35.09 52.16 35.24 52.16C35.33 52.16 35.42 52.16 35.51 52.13C35.6 52.11 35.68 52.07 35.75 52.02H35.82V52.1C35.69 52.39 35.54 52.59 35.36 52.71C35.18 52.83 34.95 52.9 34.67 52.9C34.46 52.9 34.26 52.87 34.07 52.8C33.88 52.73 33.7 52.7 33.52 52.7C33.46 52.7 33.4 52.7 33.32 52.7C33.24 52.7 33.16 52.7 33.07 52.72V52.62H33.08Z" fill="#333333"/>
<path d="M17.19 17.63L15.8 18.18L16.12 18.77L21.61 18.7L22 18.18L20.77 17.63H17.19Z" fill="#757575"/>
<path d="M20.77 15.92H17.19V19.66H20.77V15.92Z" fill="#EBB07A"/>
<g style="mix-blend-mode:color-burn" opacity="0.2">
<path d="M20.77 16.64V17.55C20.33 17.97 19.83 18.23 19.31 18.23H18.63C18.11 18.23 17.62 17.97 17.19 17.56V16.67L17.5 17.16L17.58 15.92H20.36L20.44 17.16L20.77 16.64Z" fill="#616161"/>
</g>
<path d="M19.31 7.38H18.63C16.86 7.38 15.43 8.59 15.43 10.08C15.43 10.08 15.44 13.73 15.47 13.91C15.71 15.49 17.04 17.92 18.63 17.92H19.31C20.9 17.92 22.22 15.48 22.47 13.91C22.5 13.74 22.51 10.08 22.51 10.08C22.51 8.59 21.08 7.38 19.31 7.38Z" fill="#EBB07A"/>
<path d="M22.18 7.37999L18.97 5.35999L15.76 7.37999L14.93 8.80998L15.26 12.2L15.69 12.45L15.76 9.33998L16.77 8.24998L18.97 9.28998L21.17 8.24998L22.18 9.33998L22.25 12.45L22.69 12.2L23.01 8.80998L22.18 7.37999Z" fill="#D66142"/>
<path d="M16.92 11.73C16.85 11.81 16.81 11.91 16.81 12.02C16.81 12.3 17.08 12.52 17.41 12.52C17.74 12.52 18 12.29 18 12.02C18 11.91 17.96 11.81 17.89 11.73H16.91H16.92Z" fill="#333333"/>
<g style="mix-blend-mode:color-burn" opacity="0.2">
<path d="M19.2 11.24H18.97H18.74L18.42 13.58L18.97 14.21L19.52 13.58L19.2 11.24Z" fill="#616161"/>
</g>
<path d="M21.03 11.73C21.1 11.81 21.14 11.91 21.14 12.02C21.14 12.3 20.87 12.52 20.55 12.52C20.23 12.52 19.96 12.29 19.96 12.02C19.96 11.91 20 11.81 20.07 11.73H21.05H21.03Z" fill="#333333"/>
<path d="M22.2 14.05L20.44 16.86L20.3 14.66L19.38 14.27L18.98 14.22L18.58 14.27L17.65 14.66L17.51 16.86L15.75 14.05L15.49 13.91C15.73 15.49 17.06 17.92 18.65 17.92H19.33C20.92 17.92 22.24 15.48 22.49 13.91L22.23 14.05H22.2Z" fill="#D66142"/>
<path d="M19.94 15.25L19.14 14.66H18.97H18.8L18 15.25L17.95 16.96H18.97H19.99L19.94 15.25Z" fill="#EBB07A"/>
<g style="mix-blend-mode:color-burn" opacity="0.2">
<path d="M19.63 15.33H18.32V15.7599H19.63V15.33Z" fill="#616161"/>
</g>
<path d="M19.88 10.46L21.66 10.6799L19.88 10.89V10.46Z" fill="#D66142"/>
<path d="M18.06 10.89L16.32 10.6799L18.06 10.46V10.89Z" fill="#D66142"/>
<path d="M27.91 18.65L26.56 19.92L25.96 21.72C25.96 21.72 27.97 21.32 27.98 21.37L27.91 18.65Z" fill="#757575"/>
<path d="M10.18 18.65L11.54 19.92L12.13 21.72C12.13 21.72 10.12 21.32 10.11 21.37L10.18 18.65Z" fill="#757575"/>
<path d="M10.99 19.65L10.8 20.03L10.36 21.47C10.36 21.47 12.86 20.77 12.75 20.85L10.99 19.65Z" fill="#B35137"/>
<path d="M29.54 23.61L28.18 24.01L25.75 24.74L25.59 24.78L22.46 25.72L22.38 25.74L22.19 25.8L21.23 26.09L20.86 26.2L19.67 26.55L19.08 26.73L16.78 27.42L16.3 27.56L16.19 27.59L15.59 27.77L15.21 27.88L14.12 28.21L12.47 28.7V28.24L12.46 26.88L11.38 28.71V29.03L10.23 29.37L7.47998 30.19V26.33L7.48998 26.14V26.12V26.11L7.51998 25.54L7.60998 25.32L8.14998 24.03L8.68998 22.75L9.26998 21.38L9.48998 20.87L9.72998 20.29L10.13 20.19L10.8 20.03L10.83 20.02L10.89 20.01L10.97 19.99L11.01 19.98L11.15 19.94L11.35 19.9L11.37 19.89L11.47 19.87L13.3 19.42L13.49 19.38L13.58 19.36L13.77 19.31L15.24 18.95H15.26L15.43 18.91L15.99 18.77L16.11 18.74L17.19 18.48H20.77L21.62 18.69L21.83 18.74L21.94 18.77L23.24 19.08L24.41 19.37L26.59 19.89L26.71 19.92L27.22 20.05L27.91 20.21L27.95 20.22L28.21 20.29L28.75 21.64L29.29 23L29.45 23.38L29.54 23.61Z" fill="#ABABAB"/>
<path opacity="0.2" d="M23.24 19.08L19.48 22.85L19.31 23.01L18.67 23.65V23.66L17.63 24.69L17.58 24.74L15.77 26.56L15.21 27.11L14.96 27.37L14.68 27.65L14.12 28.21L12.47 28.7V28.24L14.16 26.56L14.44 26.27L14.63 26.08L15.21 25.5L15.39 25.32L15.56 25.14L15.64 25.07L17.77 22.94L17.8 22.91L17.88 22.83V22.82L18.5 22.21L18.65 22.06L21.94 18.77L23.24 19.08Z" fill="white"/>
<path opacity="0.2" d="M27.91 20.21L25.64 22.48L22.44 25.69L22.38 25.74L22.19 25.8L21.23 26.09L20.86 26.2L19.67 26.55L19.08 26.73L16.78 27.42L16.3 27.56L16.19 27.59L16.27 27.51L16.61 27.17L18.23 25.55L18.39 25.39L19.26 24.52L19.37 24.41L20.21 23.56L24.41 19.37L26.59 19.89L26.71 19.92L27.22 20.05L27.91 20.21Z" fill="white"/>
<g style="mix-blend-mode:color-burn" opacity="0.2">
<path d="M22.46 25.72L22.37 25.75L22.18 25.81L21.23 26.09L20.86 26.2L19.67 26.55L19.08 26.73L16.78 27.42L16.3 27.56L16.19 27.59L15.59 27.77L15.21 27.88L14.96 27.36L14.44 26.27L12.75 22.75L11.93 21.04L11.85 20.87L11.39 19.91L11.37 19.88L11.47 19.86L13.3 19.42L13.49 19.37L13.57 19.35L13.77 19.3L15.23 18.95H15.26L15.43 18.9C15.95 19.43 17.17 20.62 18.65 22.05C18.92 22.31 19.19 22.58 19.48 22.84C19.72 23.08 19.97 23.31 20.22 23.55C20.95 24.25 21.71 24.98 22.44 25.68C22.44 25.68 22.46 25.7 22.47 25.71L22.46 25.72Z" fill="#616161"/>
</g>
<path d="M19.08 26.73L16.78 27.42L16.3 27.56L16.19 27.59L15.59 27.77L15.22 27.11L14.64 26.08L12.76 22.76L12.09 21.58L11.81 21.08L11.17 19.95L11.01 19.66L11.21 19.61L15 18.66C15.04 18.72 15.13 18.82 15.26 18.96C15.8 19.53 17.04 20.77 18.52 22.22C18.79 22.48 19.06 22.75 19.34 23.02C19.58 23.26 19.83 23.5 20.08 23.74C20.79 24.43 21.51 25.13 22.22 25.81L21.27 26.09L20.9 26.2L19.71 26.55L19.12 26.73H19.08Z" fill="#D66142"/>
<path d="M13.5 19.33L13.07 22.02L15.54 23.19V23.2V23.19L15.55 23.2L15.54 23.19L15.97 20.49L13.51 19.33L13.5 19.31V19.32H13.49L13.5 19.33Z" fill="#FFD675"/>
<g style="mix-blend-mode:color-burn" opacity="0.2">
<path d="M13.36 19.09L12.75 22.27L15.71 23.41V23.42L15.72 23.41V23.4L15.99 20.52L13.37 19.09L13.36 19.07V19.08H13.35L13.36 19.09Z" fill="#616161"/>
</g>
<g style="mix-blend-mode:color-burn" opacity="0.2">
<path d="M13.73 21.68L13.97 20.2L15.31 20.84L15.08 22.31L13.73 21.68Z" fill="#616161"/>
</g>
<path d="M15.8 18.18L15.99 18.77L18.82 20.42L18.74 18.48L15.8 18.18Z" fill="#EBEBEB"/>
<path d="M22 18.18L21.81 18.77L18.98 20.42L19.06 18.48L22 18.18Z" fill="#EBEBEB"/>
<g style="mix-blend-mode:color-burn" opacity="0.2">
<path d="M18.67 23.65L19.2 24.21C19.01 24.02 18.83 23.83 18.67 23.66C18.36 23.33 18.09 23.05 17.88 22.83C17.68 22.62 17.54 22.47 17.46 22.38L17.88 22.82L18.67 23.65Z" fill="#616161"/>
</g>
<g style="mix-blend-mode:color-burn" opacity="0.2">
<path d="M19.37 24.41C20 25 20.64 25.58 21.24 26.08L20.87 26.19L19.27 24.51L18.56 23.76L18.48 23.68L17.77 22.93L16.36 21.45L16.32 21.41C16.32 21.41 16.34 21.44 16.36 21.45C16.8 21.9 17.28 22.39 17.8 22.9C18.04 23.14 18.29 23.38 18.54 23.62C18.57 23.65 18.59 23.67 18.62 23.7C18.87 23.94 19.12 24.17 19.37 24.41Z" fill="#616161"/>
</g>
<g style="mix-blend-mode:color-burn" opacity="0.2">
<path d="M16.78 27.42L16.3 27.56L16.27 27.51L15.77 26.56L15.21 25.5L14.59 24.32L13.84 23L15.39 25.32L16.03 26.29L16.61 27.17L16.78 27.42Z" fill="#616161"/>
</g>
<g style="mix-blend-mode:color-burn" opacity="0.2">
<path d="M19.67 26.55L19.08 26.73L18.64 26.06L18.23 25.55L17.58 24.74L17.27 24.36L17.63 24.69L18.39 25.39L19.67 26.55Z" fill="#616161"/>
</g>
<g style="mix-blend-mode:color-burn" opacity="0.2">
<path d="M12.46 26.88L11.38 28.71V29.03L10.23 29.37L9.40002 29.2L10.54 28.68L12.46 26.88Z" fill="#616161"/>
</g>
<g style="mix-blend-mode:color-burn" opacity="0.2">
<path d="M29.54 23.61L28.18 24.01L25.75 24.74L25.59 24.78L25.44 22.96L25.64 22.48L25.96 21.73L26.71 19.92L27.22 20.05L27.91 20.21L27.95 20.22L28.21 20.29L28.75 21.64L29.29 23L29.45 23.38L29.54 23.61Z" fill="#616161"/>
</g>
<path d="M28.18 24.01L25.74 24.74V23.01L26.35 21.77L26.42 21.63L27.21 20.05L27.9 18.66C27.9 18.66 29.67 20.89 29.72 20.85C29.73 20.85 29.78 21.11 29.85 21.51C29.93 22 30.04 22.71 30.15 23.43L29.58 23.6L29.52 23.62L28.17 24.02L28.18 24.01Z" fill="#ABABAB"/>
<g style="mix-blend-mode:color-burn" opacity="0.2">
<path d="M12.51 23.15L12.46 26.23L8.27002 25.52C8.27002 25.52 8.27002 25.35 8.29002 25.18L9.49002 20.87L9.73002 20.29L10.83 20.02H10.88L10.96 19.98H11L12.5 23.14L12.51 23.15Z" fill="#616161"/>
</g>
<path d="M12.46 26.58L8.49999 26.22L7.48999 26.13C7.48999 26.13 7.48999 26.13 7.48999 26.11C7.49999 26.03 7.54999 25.73 7.60999 25.31C7.82999 23.83 8.27999 20.83 8.32999 20.83C8.38999 20.87 10.15 18.64 10.15 18.64V18.67L10.83 20.01L12.32 23L12.45 26.57L12.46 26.58Z" fill="#ABABAB"/>
<path opacity="0.2" d="M30.17 23.42L29.6 23.59L29.54 23.61L28.19 24.01L28.76 21.64L28.9 21.06L27.92 18.65C27.92 18.65 29.69 20.88 29.74 20.84C29.75 20.84 29.8 21.1 29.87 21.5C29.95 21.99 30.06 22.7 30.17 23.42Z" fill="white"/>
<path opacity="0.2" d="M10.16 18.68L9.18998 21.06L9.25998 21.37L10.1 24.85L8.49998 26.22L8.14998 26.52C8.14998 26.52 7.62998 28.64 7.56998 28.71C7.55998 28.72 7.52998 28.71 7.47998 28.7V26.14C7.47998 26.14 7.47998 26.14 7.47998 26.12L7.50998 25.54L7.59998 25.32C7.81998 23.84 8.26998 20.84 8.31998 20.84C8.37998 20.88 10.14 18.65 10.14 18.65H10.16V18.68Z" fill="white"/>
<path d="M8.21002 21.47L8.83002 23.12L7.71002 24.63L8.21002 21.47Z" fill="#D66142"/>
<path d="M30.18 23.42H30.17L29.6 23.59L29.45 23.38L29.25 23.12L29.29 23L29.86 21.51L29.87 21.47L30.18 23.42Z" fill="#D66142"/>
<g style="mix-blend-mode:color-burn" opacity="0.2">
<path d="M29.87 21.47V21.5C29.79 21.1 29.74 20.84 29.73 20.84C29.68 20.88 27.91 18.65 27.91 18.65L26.59 19.89L24.42 19.36L23.25 19.08L21.95 18.76L21.83 18.73L22 18.17L20.77 17.62V17.22C21.66 16.38 22.3 14.95 22.47 13.89C22.48 13.81 22.49 13.09 22.5 12.29L22.69 12.18L23.02 8.79997L22.19 7.36996L18.98 5.34998L18.89 5.40997V26.78L19.09 26.72L19.68 26.54L20.87 26.19L21.24 26.08L22.19 25.8L22.38 25.74L22.47 25.71L25.6 24.78L25.76 24.73L28.2 24L29.55 23.6L29.61 23.58L30.18 23.41H30.19L29.89 21.46L29.87 21.47Z" fill="#616161"/>
</g>
<path d="M20.47 38.86L21.86 38.31L21.54 37.72L16.05 37.79L15.66 38.31L16.89 38.86H20.47Z" fill="#757575"/>
<path d="M20.47 36.84H16.89V40.58H20.47V36.84Z" fill="#EBB07A"/>
<g style="mix-blend-mode:color-burn" opacity="0.2">
<path d="M16.89 39.85V38.94C17.33 38.52 17.83 38.26 18.35 38.26H19.03C19.55 38.26 20.04 38.52 20.47 38.93V39.82L20.16 39.33L20.08 40.57H17.3L17.22 39.33L16.89 39.85Z" fill="#616161"/>
</g>
<path d="M18.35 49.11H19.03C20.8 49.11 22.23 47.9 22.23 46.41C22.23 46.41 22.22 42.76 22.19 42.58C21.94 41 20.62 38.57 19.03 38.57H18.35C16.76 38.57 15.44 41 15.19 42.58C15.16 42.75 15.15 46.41 15.15 46.41C15.15 47.9 16.58 49.11 18.35 49.11Z" fill="#EBB07A"/>
<path d="M15.48 49.11L18.69 51.13L21.9 49.11L22.73 47.68L22.4 44.29L21.97 44.04L21.9 47.15L20.89 48.24L18.69 47.2L16.49 48.24L15.48 47.15L15.41 44.04L14.98 44.29L14.65 47.68L15.48 49.11Z" fill="#D66142"/>
<path d="M20.75 44.76C20.82 44.68 20.86 44.58 20.86 44.47C20.86 44.19 20.59 43.96 20.27 43.96C19.95 43.96 19.67 44.19 19.67 44.47C19.67 44.58 19.71 44.67 19.78 44.76H20.76H20.75Z" fill="#333333"/>
<g style="mix-blend-mode:color-burn" opacity="0.2">
<path d="M18.46 45.25H18.69H18.92L19.24 42.9L18.69 42.27L18.14 42.9L18.46 45.25Z" fill="#616161"/>
</g>
<path d="M16.63 44.76C16.56 44.68 16.52 44.58 16.52 44.47C16.52 44.19 16.79 43.96 17.11 43.96C17.43 43.96 17.7 44.19 17.7 44.47C17.7 44.58 17.66 44.67 17.59 44.76H16.61H16.63Z" fill="#333333"/>
<path d="M15.46 42.44L17.22 39.64L17.36 41.83L18.28 42.22L18.68 42.27L19.08 42.22L20.01 41.83L20.15 39.64L21.91 42.44L22.17 42.58C21.92 41 20.6 38.57 19.01 38.57H18.33C16.74 38.57 15.42 41 15.17 42.58L15.43 42.44H15.46Z" fill="#D66142"/>
<path d="M17.72 41.23L18.52 41.83H18.69H18.86L19.66 41.23L19.71 39.52H18.69H17.67L17.72 41.23Z" fill="#EBB07A"/>
<g style="mix-blend-mode:color-burn" opacity="0.2">
<path d="M19.35 40.73H18.04V41.16H19.35V40.73Z" fill="#616161"/>
</g>
<path d="M17.78 46.03L16 45.81L17.78 45.6V46.03Z" fill="#D66142"/>
<path d="M19.6 45.6L21.34 45.81L19.6 46.03V45.6Z" fill="#D66142"/>
<path d="M9.74998 37.83L11.1 36.56L11.69 34.76C11.69 34.76 9.67998 35.16 9.66998 35.11L9.73998 37.83H9.74998Z" fill="#757575"/>
<path d="M27.48 37.83L26.12 36.56L25.53 34.76C25.53 34.76 27.54 35.16 27.55 35.11L27.48 37.83Z" fill="#757575"/>
<path d="M26.67 36.84L26.86 36.46L27.3 35.02C27.3 35.02 24.8 35.72 24.91 35.64L26.67 36.84Z" fill="#B35137"/>
<path d="M8.13 32.88L9.48 32.48L11.91 31.75L12.07 31.7L15.2 30.77L15.28 30.74L15.47 30.69L16.43 30.4L16.8 30.29L17.99 29.93L18.58 29.76L20.88 29.07L21.36 28.93L21.47 28.9L22.07 28.72L22.45 28.61L23.54 28.28L25.19 27.79V28.25L25.2 29.61L26.29 27.78V27.46L27.43 27.12L30.18 26.3V30.16L30.17 30.35V30.37L30.14 30.95L30.05 31.17L29.51 32.45L28.97 33.73L28.39 35.11L28.17 35.62L27.93 36.2L27.53 36.3L26.86 36.46L26.83 36.47L26.78 36.48L26.69 36.5L26.65 36.51L26.51 36.54L26.31 36.59L26.29 36.6L26.19 36.62L24.36 37.06L24.17 37.11L24.08 37.13L23.89 37.18L22.42 37.53L22.4 37.54L22.23 37.58L21.68 37.72L21.55 37.75L20.47 38.01H16.89L16.04 37.8L15.83 37.75L15.72 37.72L14.42 37.41L13.25 37.12L11.07 36.59L10.95 36.57L10.45 36.44L9.75 36.28L9.71 36.27L9.45 36.2L8.91 34.84L8.37 33.48L8.21 33.11L8.13 32.88Z" fill="#ABABAB"/>
<path opacity="0.2" d="M14.42 37.41L18.18 33.64L18.35 33.48L18.99 32.84V32.83L20.03 31.8L20.08 31.74L21.89 29.93L22.45 29.37L22.7 29.12L22.98 28.85L23.54 28.28L25.19 27.79V28.25L23.51 29.93L23.22 30.21L23.03 30.41L22.45 30.99L22.27 31.17L22.1 31.35L22.02 31.42L19.89 33.55L19.86 33.58L19.78 33.66L19.17 34.28L19.01 34.43L15.72 37.72L14.42 37.41Z" fill="white"/>
<path opacity="0.2" d="M9.75 36.28L12.02 34.01L15.23 30.8L15.28 30.74L15.47 30.69L16.43 30.4L16.8 30.29L17.99 29.93L18.58 29.76L20.88 29.07L21.36 28.93L21.47 28.9L21.39 28.98L21.05 29.32L19.43 30.94L19.27 31.1L18.4 31.97L18.29 32.07L17.44 32.92L13.25 37.12L11.07 36.59L10.95 36.57L10.45 36.44L9.75 36.28Z" fill="white"/>
<g style="mix-blend-mode:color-burn" opacity="0.2">
<path d="M15.2 30.77L15.29 30.74L15.48 30.68L16.43 30.39L16.8 30.28L17.99 29.92L18.58 29.75L20.88 29.06L21.36 28.92L21.47 28.89L22.07 28.71L22.45 28.6L22.7 29.12L23.22 30.21L24.91 33.73L25.73 35.44L25.81 35.6L26.27 36.56L26.29 36.59L26.19 36.61L24.36 37.05L24.17 37.1L24.09 37.12L23.89 37.17L22.43 37.52H22.4L22.23 37.57C21.71 37.04 20.49 35.84 19.01 34.42C18.74 34.16 18.47 33.9 18.18 33.63C17.94 33.39 17.69 33.16 17.44 32.91C16.71 32.21 15.95 31.49 15.22 30.79C15.22 30.79 15.2 30.77 15.19 30.76L15.2 30.77Z" fill="#616161"/>
</g>
<path d="M18.58 29.76L20.88 29.07L21.36 28.93L21.47 28.9L22.07 28.72L22.44 29.38L23.02 30.41L24.9 33.73L25.57 34.92L25.85 35.41L26.49 36.54L26.66 36.83L26.46 36.88L22.67 37.83C22.63 37.78 22.54 37.67 22.41 37.53C21.87 36.96 20.63 35.72 19.15 34.27C18.88 34.01 18.61 33.74 18.33 33.47C18.09 33.23 17.84 32.99 17.59 32.75C16.88 32.06 16.16 31.36 15.45 30.68L16.4 30.39L16.77 30.28L17.96 29.92L18.55 29.75L18.58 29.76Z" fill="#D66142"/>
<path d="M24.16 37.16L24.59 34.46L22.13 33.3L22.12 33.29H22.11L22.12 33.3L21.69 35.99L24.15 37.16L24.16 37.17H24.17L24.16 37.16Z" fill="#FFD675"/>
<g style="mix-blend-mode:color-burn" opacity="0.2">
<path d="M24.3 37.4L24.91 34.22L21.95 33.08V33.06L21.94 33.07V33.09L21.67 35.97L24.29 37.4L24.3 37.41V37.4L24.31 37.41L24.3 37.4Z" fill="#616161"/>
</g>
<g style="mix-blend-mode:color-burn" opacity="0.2">
<path d="M23.93 34.81L23.69 36.28L22.35 35.65L22.58 34.18L23.93 34.81Z" fill="#616161"/>
</g>
<path d="M21.86 38.31L21.67 37.71L18.84 36.07L18.92 38.01L21.86 38.31Z" fill="#EBEBEB"/>
<path d="M15.66 38.31L15.85 37.71L18.68 36.07L18.6 38.01L15.66 38.31Z" fill="#EBEBEB"/>
<g style="mix-blend-mode:color-burn" opacity="0.2">
<path d="M18.99 32.84L18.46 32.28C18.65 32.48 18.83 32.66 18.99 32.83C19.3 33.16 19.57 33.44 19.78 33.66C19.98 33.87 20.12 34.02 20.2 34.1L19.78 33.66L18.99 32.84Z" fill="#616161"/>
</g>
<g style="mix-blend-mode:color-burn" opacity="0.2">
<path d="M18.29 32.07C17.66 31.47 17.02 30.9 16.42 30.4L16.79 30.29L18.39 31.97L19.1 32.72L19.18 32.8L19.89 33.55L21.3 35.03L21.34 35.07C21.34 35.07 21.32 35.04 21.3 35.03C20.86 34.58 20.38 34.09 19.86 33.58C19.62 33.34 19.37 33.1 19.12 32.86C19.09 32.83 19.07 32.81 19.04 32.78C18.79 32.54 18.54 32.31 18.29 32.07Z" fill="#616161"/>
</g>
<g style="mix-blend-mode:color-burn" opacity="0.2">
<path d="M20.88 29.07L21.36 28.93L21.39 28.98L21.89 29.93L22.45 30.99L23.07 32.17L23.82 33.49L22.27 31.17L21.63 30.2L21.05 29.32L20.88 29.07Z" fill="#616161"/>
</g>
<g style="mix-blend-mode:color-burn" opacity="0.2">
<path d="M17.99 29.93L18.58 29.76L19.02 30.42L19.43 30.94L20.08 31.74L20.4 32.13L20.03 31.8L19.27 31.1L17.99 29.93Z" fill="#616161"/>
</g>
<g style="mix-blend-mode:color-burn" opacity="0.2">
<path d="M25.2 29.61L26.29 27.78V27.46L27.43 27.12L28.26 27.29L27.12 27.81L25.2 29.61Z" fill="#616161"/>
</g>
<g style="mix-blend-mode:color-burn" opacity="0.2">
<path d="M8.13 32.88L9.48 32.48L11.91 31.75L12.07 31.7L12.22 33.53L12.02 34.01L11.7 34.76L10.95 36.57L10.45 36.44L9.75 36.28L9.71 36.27L9.45 36.2L8.91 34.84L8.37 33.48L8.21 33.11L8.13 32.88Z" fill="#616161"/>
</g>
<path d="M9.48 32.48L11.92 31.75V33.48L11.31 34.73L11.24 34.86L10.45 36.44L9.76 37.83C9.76 37.83 7.99 35.6 7.94 35.64C7.93 35.64 7.88 35.38 7.81 34.97C7.73 34.48 7.62 33.77 7.5 33.06L8.07 32.89L8.13 32.87L9.48 32.47V32.48Z" fill="#ABABAB"/>
<g style="mix-blend-mode:color-burn" opacity="0.2">
<path d="M25.15 33.34L25.2 30.26L29.39 30.97C29.39 30.97 29.39 31.14 29.37 31.31L28.17 35.62L27.93 36.2L26.83 36.47H26.78L26.7 36.5H26.66L25.16 33.34H25.15Z" fill="#616161"/>
</g>
<path d="M25.2 29.91L29.16 30.26L30.17 30.35C30.17 30.35 30.17 30.35 30.17 30.37C30.16 30.45 30.11 30.75 30.05 31.17C29.83 32.66 29.38 35.65 29.33 35.65C29.27 35.61 27.51 37.84 27.51 37.84V37.81L26.83 36.47L25.34 33.48L25.21 29.91H25.2Z" fill="#ABABAB"/>
<path opacity="0.2" d="M7.48998 33.07L8.05998 32.9L8.11998 32.88L9.46998 32.48L8.89998 34.85L8.75998 35.43L9.73998 37.84C9.73998 37.84 7.96998 35.61 7.91998 35.65C7.90998 35.65 7.85998 35.39 7.78998 34.98C7.70998 34.49 7.59998 33.78 7.47998 33.07H7.48998Z" fill="white"/>
<path opacity="0.2" d="M27.5 37.81L28.47 35.43L28.4 35.12L27.56 31.64L29.16 30.27L29.51 29.97C29.51 29.97 30.03 27.86 30.09 27.79C30.1 27.77 30.13 27.78 30.18 27.8V30.36C30.18 30.36 30.18 30.36 30.18 30.38L30.15 30.96L30.06 31.17C29.84 32.66 29.39 35.65 29.34 35.65C29.28 35.61 27.52 37.84 27.52 37.84H27.5V37.81Z" fill="white"/>
<path d="M29.46 35.02L28.83 33.37L29.95 31.86L29.46 35.02Z" fill="#D66142"/>
<path d="M7.47998 33.07H7.48998L8.05998 32.9L8.20998 33.11L8.40998 33.37L8.36998 33.48L7.79998 34.98L7.78998 35.02L7.47998 33.07Z" fill="#D66142"/>
<g style="mix-blend-mode:color-burn" opacity="0.2">
<path d="M18.73 29.71L18.58 29.76L17.99 29.93L16.8 30.29L16.43 30.4L15.48 30.69L15.29 30.75L15.2 30.78L12.07 31.71L11.92 31.75L9.47999 32.48L8.12999 32.88L8.06999 32.9L7.49999 33.07H7.48999L7.79999 35.02V34.99C7.87999 35.39 7.92999 35.66 7.93999 35.66C7.98999 35.62 9.75999 37.85 9.75999 37.85L11.08 36.61L13.25 37.14L14.42 37.43L15.72 37.75L15.84 37.78L15.67 38.34L16.9 38.89V39.29C16.01 40.13 15.37 41.56 15.2 42.62C15.19 42.69 15.18 43.42 15.17 44.22L14.98 44.33L14.65 47.71L15.48 49.14L18.69 51.16L18.73 51.14V29.75V29.71Z" fill="#616161"/>
</g>
</svg>
