<svg width="41" height="56" viewBox="0 0 41 56" fill="none" xmlns="http://www.w3.org/2000/svg">
<path d="M4.81994 55.53C2.47994 55.53 0.569937 53.66 0.559937 51.36L0.439941 4.29C0.439941 1.98 2.33994 0.0900151 4.68994 0.100015L35.7999 0.160013C38.1399 0.160013 40.0499 2.05001 40.0499 4.36001V51.33C40.0499 53.62 38.1499 55.5 35.8199 55.5L4.81994 55.54V55.53Z" fill="#C9C9C9"/>
<path d="M4.97003 55.47C2.66003 55.47 0.780029 53.6 0.780029 51.29V4.33003C0.780029 2.03003 2.66003 0.150024 4.97003 0.150024H35.62C37.93 0.150024 39.81 2.02003 39.81 4.33003V51.29C39.81 53.59 37.93 55.47 35.62 55.47H4.97003Z" fill="white"/>
<path d="M35.86 54.53H5.20996C3.41996 54.53 1.95996 53.08 1.95996 51.3V4.34004C1.95996 2.62004 3.31996 1.23005 4.04996 0.960052L4.15997 0.920044H34.98C38.03 1.16004 39.11 2.84004 39.11 4.34004V51.3C39.11 53.08 37.65 54.53 35.86 54.53ZM4.41996 2.20004C4.08996 2.41004 3.23996 3.27004 3.23996 4.34004V51.3C3.23996 52.38 4.11996 53.25 5.20996 53.25H35.86C36.94 53.25 37.82 52.37 37.82 51.3V4.34004C37.82 3.15004 36.73 2.35004 34.9 2.20004H4.41996Z" fill="#D66142"/>
<path d="M7.85001 3.95995C7.72001 4.16995 7.57001 4.33994 7.38001 4.44994C7.19001 4.55994 7.00001 4.61993 6.82001 4.61993C6.76001 4.61993 6.55002 4.57993 6.18002 4.47993C6.01002 4.43993 5.85001 4.40994 5.71001 4.40994C5.62001 4.40994 5.53002 4.41994 5.44002 4.43994C5.35002 4.45994 5.27001 4.49994 5.21001 4.54994H5.14001V4.46994C5.27001 4.18994 5.42001 3.97994 5.59001 3.85994C5.77001 3.73994 6.00001 3.67993 6.28001 3.67993C6.49001 3.67993 6.68002 3.70994 6.87002 3.77994C7.06002 3.84994 7.24002 3.87994 7.41002 3.87994C7.47002 3.87994 7.53002 3.87994 7.61002 3.87994C7.69002 3.87994 7.77002 3.86994 7.86002 3.85994V3.95995H7.85001ZM7.87002 7.51994C7.87002 7.91994 7.72001 8.23993 7.42001 8.47993C7.12001 8.71993 6.73002 8.83994 6.26002 8.83994C5.97002 8.83994 5.73002 8.77994 5.54002 8.66994C5.31002 8.53994 5.19002 8.33994 5.19002 8.08994C5.19002 7.96994 5.22002 7.86994 5.29002 7.77994C5.38002 7.65994 5.51002 7.59995 5.68002 7.59995C5.79002 7.59995 5.89002 7.62995 5.97002 7.70995C6.05002 7.77995 6.09001 7.86994 6.09001 7.96994C6.09001 8.13994 6.02002 8.25995 5.87002 8.31995C5.73002 8.37995 5.65002 8.41994 5.65002 8.44994C5.67002 8.49994 5.70002 8.53994 5.73002 8.55994C5.82002 8.63994 5.94001 8.67993 6.10001 8.67993C6.26001 8.67993 6.40002 8.63994 6.51002 8.55994C6.63002 8.47994 6.68002 8.37994 6.68002 8.23994V4.80994C6.89002 4.73994 7.09001 4.67994 7.27001 4.60994C7.45001 4.53994 7.61002 4.44995 7.76002 4.31995H7.86002V7.50993L7.87002 7.51994Z" fill="#333333"/>
<path d="M33.35 48.62C33.35 48.22 33.5 47.9 33.8 47.66C34.1 47.42 34.49 47.3 34.96 47.3C35.25 47.3 35.49 47.36 35.68 47.47C35.91 47.61 36.03 47.8 36.03 48.05C36.03 48.17 36 48.27 35.93 48.36C35.84 48.48 35.71 48.54 35.54 48.54C35.43 48.54 35.34 48.5 35.25 48.43C35.17 48.36 35.13 48.27 35.13 48.17C35.13 48 35.2 47.88 35.35 47.82C35.49 47.76 35.57 47.72 35.57 47.69C35.55 47.64 35.52 47.6 35.49 47.57C35.41 47.49 35.28 47.45 35.12 47.45C34.96 47.45 34.82 47.49 34.71 47.57C34.59 47.65 34.54 47.75 34.54 47.89V51.31C34.33 51.38 34.13 51.45 33.95 51.52C33.77 51.59 33.61 51.68 33.46 51.81H33.36V48.62H33.35ZM33.37 52.18C33.49 51.96 33.65 51.8 33.84 51.69C34.03 51.57 34.22 51.52 34.4 51.52C34.46 51.52 34.68 51.57 35.04 51.66C35.21 51.7 35.37 51.73 35.51 51.73C35.6 51.73 35.69 51.73 35.78 51.7C35.87 51.68 35.95 51.64 36.01 51.59H36.08V51.67C35.96 51.95 35.8 52.16 35.63 52.28C35.45 52.4 35.22 52.46 34.94 52.46C34.73 52.46 34.54 52.43 34.35 52.36C34.16 52.29 33.98 52.26 33.81 52.26C33.75 52.26 33.69 52.26 33.61 52.26C33.53 52.26 33.45 52.27 33.36 52.28V52.18H33.37Z" fill="#333333"/>
<path d="M17.55 17.36L16.17 17.91L16.49 18.49L21.95 18.43L22.34 17.91L21.12 17.36H17.55Z" fill="#757575"/>
<path d="M23.93 8.70999C23.91 9.01999 23.01 13.08 22.85 13.43C21.85 15.59 19.26 14.43 19.26 14.43C19.26 14.43 16.8 15.61 15.81 13.45C15.63 13.08 14.59 9.00998 14.59 8.67998C14.59 7.11998 15.87 5.85999 17.43 5.85999C18.31 5.85999 19.29 6.64998 19.29 6.64998C19.29 6.64998 20.21 5.85998 21.12 5.86998C22.69 5.88998 24.03 7.14999 23.95 8.70999H23.93Z" fill="#D66142"/>
<path d="M21.11 15.65H17.55V19.37H21.11V15.65Z" fill="#EBB07A"/>
<g style="mix-blend-mode:color-burn" opacity="0.2">
<path d="M21.1201 16.37V17.28C20.6901 17.69 20.1901 17.96 19.6601 17.96H18.9901C18.4801 17.96 17.9901 17.7 17.5601 17.3V16.41L17.8701 16.9L17.9501 15.66H20.7201L20.8001 16.9L21.1301 16.38L21.1201 16.37Z" fill="#616161"/>
</g>
<path d="M19.6601 7.17993H18.9901C17.2301 7.17993 15.8101 8.37993 15.8101 9.86993C15.8101 9.86993 15.8301 13.5099 15.8501 13.6799C16.0901 15.2499 17.4101 17.6699 18.9901 17.6699H19.6601C21.2501 17.6699 22.5601 15.2499 22.8101 13.6799C22.8401 13.5099 22.8501 9.86993 22.8501 9.86993C22.8501 8.37993 21.4301 7.17993 19.6601 7.17993Z" fill="#EBB07A"/>
<path d="M17.2801 11.49C17.2201 11.57 17.1801 11.67 17.1801 11.78C17.1801 12.06 17.4401 12.28 17.7701 12.28C18.1001 12.28 18.3601 12.05 18.3601 11.78C18.3601 11.67 18.3201 11.58 18.2501 11.49H17.2801Z" fill="#333333"/>
<g style="mix-blend-mode:color-burn" opacity="0.2">
<path d="M19.55 11H19.33H19.1L18.78 13.33L19.33 13.96L19.87 13.33L19.55 11Z" fill="#616161"/>
</g>
<path d="M21.37 11.49C21.44 11.57 21.48 11.67 21.48 11.78C21.48 12.06 21.22 12.28 20.89 12.28C20.56 12.28 20.3 12.05 20.3 11.78C20.3 11.67 20.34 11.58 20.41 11.49H21.38H21.37Z" fill="#333333"/>
<g style="mix-blend-mode:color-burn" opacity="0.2">
<path d="M19.9899 15.14H18.6899V15.46H19.9899V15.14Z" fill="#616161"/>
</g>
<path d="M20.23 10.23L22 10.44L20.23 10.66V10.23Z" fill="#D66142"/>
<path d="M18.4199 10.66L16.6899 10.44L18.4199 10.23V10.66Z" fill="#D66142"/>
<path d="M23.9299 8.64003C23.9099 8.95003 23.8099 9.28003 23.6499 9.62003C23.1899 8.71003 22.1999 8.09004 21.0999 8.07004C20.1999 8.06004 19.2699 8.85004 19.2699 8.85004C19.2699 8.85004 18.29 8.06003 17.41 8.06003C16.28 8.06003 15.2999 8.72003 14.8499 9.67003C14.6699 9.30003 14.5699 8.93004 14.5699 8.60004C14.5699 7.04004 15.85 5.78003 17.41 5.78003C18.29 5.78003 18.3699 6.13004 19.2499 6.13004C20.1299 6.13004 20.1899 5.78003 21.0999 5.80003C22.6699 5.82003 24.0099 7.08003 23.9299 8.64003Z" fill="#D66142"/>
<path d="M18.55 15.92C19.26 16.12 19.33 17.36 19.33 17.36C19.33 17.36 19.41 16.11 20.12 15.92H18.55Z" fill="#D66142"/>
<path d="M21.3199 15.15C21.3199 15.29 21.2699 15.44 21.1999 15.59C20.9899 15.19 20.5599 14.91 20.0699 14.91C19.6699 14.91 18.8299 14.91 18.4399 14.91C17.9399 14.91 17.5099 15.2 17.3099 15.62C17.2299 15.46 17.1899 15.29 17.1899 15.15C17.1899 14.46 17.7499 13.9 18.4499 13.9C18.8399 13.9 19.2599 14.48 19.2599 14.48C19.2599 14.48 19.6799 13.9 20.0799 13.9C20.7699 13.9 21.3699 14.46 21.3299 15.15H21.3199Z" fill="#D66142"/>
<path d="M28.22 18.38L26.87 19.64L26.28 21.43C26.28 21.43 28.28 21.03 28.29 21.08L28.22 18.37V18.38Z" fill="#757575"/>
<path d="M10.57 18.38L11.92 19.64L12.51 21.43C12.51 21.43 10.51 21.03 10.5 21.08L10.57 18.37V18.38Z" fill="#757575"/>
<path d="M11.38 19.37L11.19 19.75L10.75 21.19C10.75 21.19 13.24 20.49 13.13 20.57L11.38 19.38V19.37Z" fill="#9C4129"/>
<path d="M29.84 23.31L28.5 23.71L26.07 24.44L25.92 24.48L22.81 25.41L22.73 25.44L22.54 25.49L21.59 25.77L21.22 25.88L20.04 26.23L19.45 26.41L17.16 27.09L16.68 27.23L16.57 27.26L15.97 27.44L15.59 27.55L14.5 27.88L12.87 28.37V27.91L12.85 26.56L11.77 28.38V28.69L10.63 29.03L7.89001 29.84V25.8V25.79L7.92001 25.21L8.01002 25L8.55002 23.72L9.09001 22.45L9.67001 21.08L9.88001 20.57L10.12 19.99L10.52 19.89L11.18 19.73H11.21L11.26 19.71L11.34 19.69H11.38L11.52 19.64L11.71 19.59H11.73L11.83 19.56L13.65 19.12L13.84 19.07L13.92 19.05L14.12 19L15.58 18.65H15.61L15.78 18.6L16.33 18.47L16.45 18.44L17.53 18.18H21.09L21.94 18.39L22.15 18.44L22.27 18.47L23.56 18.79L24.73 19.07L26.89 19.59L27.02 19.62L27.52 19.74L28.21 19.91H28.25L28.51 19.98L29.05 21.33L29.59 22.68L29.74 23.05L29.83 23.28L29.84 23.31Z" fill="#ABABAB"/>
<path opacity="0.2" d="M23.58 18.81L19.83 22.56L19.67 22.72L19.03 23.35L19.02 23.36L17.99 24.39L17.94 24.44L16.14 26.24L15.58 26.8L15.33 27.05L15.06 27.33L14.49 27.89L12.86 28.38V27.92L14.53 26.24L14.81 25.96L15 25.77L15.58 25.19L15.76 25.02L15.93 24.84L16.01 24.77L18.13 22.65L18.16 22.62L18.24 22.53L18.85 21.92L19.01 21.77L22.28 18.49L23.58 18.81Z" fill="white"/>
<path opacity="0.2" d="M28.2201 19.93L25.9701 22.19L22.7701 25.38L22.7201 25.44L22.5201 25.49L21.5801 25.78L21.2101 25.89L20.0201 26.24L19.4301 26.42L17.1401 27.1L16.6601 27.24L16.5601 27.27L16.6401 27.19L16.9801 26.85L18.5901 25.24L18.7501 25.08L19.6201 24.21L19.7201 24.11L20.5601 23.27L24.7401 19.09L26.9001 19.62L27.0301 19.65L27.5301 19.77L28.2201 19.93Z" fill="white"/>
<g style="mix-blend-mode:color-burn" opacity="0.2">
<path d="M22.8 25.41L22.72 25.44L22.53 25.49L21.58 25.77L21.21 25.88L20.03 26.23L19.44 26.41L17.15 27.09L16.67 27.23L16.56 27.26L15.96 27.44L15.58 27.55L15.33 27.03L14.81 25.94L13.13 22.44L12.32 20.74L12.24 20.58L11.78 19.63L11.76 19.59L11.86 19.57L13.68 19.13L13.87 19.08L13.95 19.06L14.15 19.01L15.61 18.66H15.64L15.81 18.61C16.33 19.14 17.54 20.33 19.01 21.74C19.27 22 19.55 22.26 19.83 22.53C20.07 22.76 20.32 23 20.57 23.24C21.3 23.94 22.05 24.66 22.78 25.35C22.78 25.35 22.8 25.37 22.81 25.38L22.8 25.41Z" fill="#616161"/>
</g>
<path d="M19.43 26.42L17.14 27.1L16.66 27.24L16.55 27.27L15.95 27.45L15.58 26.79L15 25.76L13.12 22.45L12.45 21.27L12.17 20.78L11.53 19.65L11.37 19.36L11.57 19.31L15.34 18.37C15.38 18.42 15.47 18.53 15.6 18.67C16.13 19.24 17.37 20.47 18.84 21.91C19.11 22.17 19.38 22.44 19.66 22.7C19.9 22.94 20.15 23.18 20.39 23.41C21.09 24.1 21.82 24.8 22.51 25.47L21.56 25.75L21.19 25.86L20.01 26.21L19.42 26.39L19.43 26.42Z" fill="#D66142"/>
<path d="M16.17 17.91L16.35 18.5L19.18 20.14L19.09 18.21L16.17 17.91Z" fill="#EBEBEB"/>
<path d="M22.34 17.91L22.15 18.5L19.34 20.14L19.42 18.21L22.34 17.91Z" fill="#EBEBEB"/>
<g style="mix-blend-mode:color-burn" opacity="0.2">
<path d="M19.0299 23.35L19.5499 23.91C19.3599 23.71 19.1799 23.53 19.0199 23.36C18.7099 23.04 18.4399 22.76 18.2399 22.53C18.0399 22.32 17.8999 22.17 17.8199 22.09L18.2399 22.53L19.0299 23.35Z" fill="#616161"/>
</g>
<g style="mix-blend-mode:color-burn" opacity="0.2">
<path d="M19.7201 24.11C20.3501 24.7 20.9801 25.27 21.5801 25.77L21.2101 25.88L19.6201 24.2L18.9101 23.46L18.8301 23.38L18.1201 22.64L16.7201 21.17L16.6801 21.13C16.6801 21.13 16.7001 21.16 16.7201 21.17C17.1501 21.62 17.6401 22.11 18.1501 22.61C18.3901 22.85 18.6301 23.09 18.8801 23.32C18.9101 23.35 18.9301 23.37 18.9601 23.4C19.2101 23.63 19.4601 23.87 19.7101 24.1L19.7201 24.11Z" fill="#616161"/>
</g>
<g style="mix-blend-mode:color-burn" opacity="0.2">
<path d="M17.14 27.1L16.66 27.24L16.64 27.19L16.14 26.24L15.58 25.19L14.97 24.02L14.22 22.7L15.76 25.02L16.4 25.98L16.98 26.85L17.14 27.1Z" fill="#616161"/>
</g>
<g style="mix-blend-mode:color-burn" opacity="0.2">
<path d="M20.02 26.24L19.43 26.42L19 25.76L18.59 25.24L17.94 24.44L17.63 24.06L17.99 24.39L18.75 25.08L20.02 26.24Z" fill="#616161"/>
</g>
<g style="mix-blend-mode:color-burn" opacity="0.2">
<path d="M12.84 26.57L11.77 28.39V28.7L10.63 29.05L9.80005 28.88L10.94 28.36L12.84 26.57Z" fill="#616161"/>
</g>
<g style="mix-blend-mode:color-burn" opacity="0.2">
<path d="M29.84 23.31L28.5 23.71L26.07 24.44L25.91 24.48L25.77 22.66L25.97 22.19L26.28 21.44L27.03 19.65L27.53 19.77L28.22 19.93L28.26 19.94L28.52 20.01L29.06 21.36L29.6 22.71L29.75 23.08L29.84 23.31Z" fill="#616161"/>
</g>
<path d="M28.4999 23.71L26.0699 24.44V22.72L26.6799 21.48L26.7499 21.34L27.5399 19.76L28.2299 18.38C28.2299 18.38 29.9899 20.59 30.0399 20.56C30.0499 20.56 30.0999 20.82 30.1699 21.22C30.2499 21.71 30.3599 22.42 30.4699 23.13L29.91 23.29L29.8499 23.31L28.5099 23.71H28.4999Z" fill="#ABABAB"/>
<g style="mix-blend-mode:color-burn" opacity="0.2">
<path d="M12.89 22.86L12.84 25.92L8.67004 25.21C8.67004 25.21 8.67005 25.04 8.69005 24.87L9.88004 20.58L10.12 20L11.22 19.74H11.27L11.35 19.71H11.39L12.88 22.86H12.89Z" fill="#616161"/>
</g>
<path d="M12.84 26.27L8.90002 25.92L7.89001 25.83C7.89001 25.83 7.89001 25.83 7.89001 25.82C7.90001 25.73 7.95002 25.44 8.01002 25.02C8.23002 23.54 8.68002 20.56 8.73002 20.56C8.79002 20.6 10.54 18.38 10.54 18.38V18.41L11.22 19.74L12.71 22.71L12.84 26.26V26.27Z" fill="#ABABAB"/>
<path opacity="0.2" d="M30.47 23.13H30.46L29.9 23.29L29.84 23.31L29.76 23.33L29.55 23.39L28.49 23.71L29.05 21.35L29.19 20.77L28.22 18.37C28.32 18.5 29.95 20.54 30.03 20.54C30.04 20.54 30.09 20.8 30.16 21.21C30.16 21.24 30.17 21.28 30.18 21.32C30.19 21.39 30.21 21.46 30.22 21.55C30.23 21.64 30.25 21.74 30.27 21.84C30.27 21.92 30.29 22 30.31 22.08C30.31 22.11 30.31 22.14 30.32 22.16L30.36 22.41C30.36 22.46 30.38 22.52 30.39 22.58C30.39 22.6 30.39 22.62 30.39 22.64C30.42 22.79 30.44 22.95 30.47 23.11V23.13Z" fill="white"/>
<path opacity="0.2" d="M10.56 18.41L9.60001 20.78L9.67001 21.09L10.5 24.55L8.91002 25.92L8.56001 26.22C8.56001 26.22 8.04002 28.32 7.98002 28.39C7.97002 28.41 7.94001 28.39 7.89001 28.39V25.83C7.89001 25.83 7.89001 25.83 7.89001 25.82L7.92001 25.24L8.02001 25.03C8.04001 24.85 8.07001 24.68 8.10001 24.49C8.24001 23.57 8.42002 22.39 8.55002 21.56C8.56002 21.48 8.57002 21.41 8.58002 21.34C8.66002 20.87 8.72002 20.57 8.73002 20.57C8.82002 20.57 10.54 18.39 10.54 18.39H10.56V18.42V18.41Z" fill="white"/>
<path d="M9.37998 22.59C9.32998 22.98 8.10999 24.5 8.10999 24.5C8.10999 24.5 8.10999 24.49 8.10999 24.47C8.24999 23.55 8.42998 22.37 8.55998 21.54C8.69998 21.51 8.84998 21.49 8.91998 21.5C9.24998 21.54 9.45998 22.03 9.38998 22.59H9.37998Z" fill="#D66142"/>
<path d="M30.46 23.13L29.9 23.29L29.84 23.31L29.76 23.33C29.55 23.02 29.38 22.73 29.36 22.59C29.29 22.03 29.5 21.55 29.83 21.5C29.9 21.5 30.07 21.51 30.22 21.55C30.22 21.55 30.22 21.55 30.23 21.55L30.3 22.08V22.16L30.35 22.41L30.45 23.11L30.46 23.13Z" fill="#D66142"/>
<g style="mix-blend-mode:color-burn" opacity="0.2">
<path d="M16.21 19.64C16.7 20.55 15.57 23.05 15.57 23.05C15.57 23.05 12.99 22.09 12.72 21.12C12.56 20.53 12.86 19.9 13.38 19.67C13.67 19.54 14.12 19.65 14.12 19.65C14.12 19.65 14.33 19.25 14.64 19.12C15.19 18.89 15.9 19.08 16.21 19.64Z" fill="#616161"/>
</g>
<path d="M16.18 19.96C16.5 20.79 15.5 22.7 15.5 22.7C15.5 22.7 13.37 22.16 13.01 21.35C12.76 20.79 13 20.15 13.53 19.92C13.83 19.79 14.28 19.92 14.28 19.92C14.28 19.92 14.47 19.5 14.78 19.37C15.32 19.14 15.97 19.39 16.18 19.96Z" fill="#FFD675"/>
<g style="mix-blend-mode:color-burn" opacity="0.2">
<path d="M15.23 22.09C14.43 21.84 13.62 21.44 13.48 21.14C13.42 20.99 13.41 20.83 13.46 20.69C13.51 20.55 13.61 20.45 13.74 20.39C13.74 20.39 13.77 20.38 13.85 20.38C13.97 20.38 14.1 20.41 14.14 20.42L14.57 20.54L14.75 20.14C14.81 20.02 14.92 19.87 14.98 19.85C15.04 19.82 15.12 19.81 15.19 19.81C15.37 19.81 15.61 19.9 15.7 20.15C15.83 20.48 15.54 21.39 15.22 22.09H15.23Z" fill="#616161"/>
</g>
<g style="mix-blend-mode:color-burn" opacity="0.2">
<path d="M30.47 23.13C30.46 23.05 30.44 22.97 30.43 22.89C30.41 22.77 30.39 22.65 30.37 22.52C30.37 22.48 30.36 22.45 30.35 22.42L30.31 22.17C30.31 22.17 30.3 22.11 30.3 22.09L30.23 21.56C30.23 21.56 30.23 21.56 30.22 21.56C30.21 21.48 30.19 21.41 30.18 21.33C30.18 21.29 30.17 21.26 30.16 21.22C30.14 21.12 30.13 21.04 30.11 20.96C30.09 20.87 30.08 20.79 30.07 20.73C30.05 20.62 30.03 20.56 30.03 20.56C29.95 20.56 28.32 18.52 28.22 18.39L26.9 19.62L24.74 19.1L23.57 18.82L22.28 18.5L22.16 18.47L22.33 17.92L21.11 17.37V16.99C21.99 16.16 22.64 14.73 22.8 13.68C22.8 13.66 22.8 13.59 22.8 13.49C22.81 13.47 22.82 13.45 22.83 13.43C22.99 13.09 23.9 9.03002 23.91 8.71002C23.91 8.69002 23.91 8.66002 23.91 8.63002C23.99 7.07002 22.65 5.81001 21.08 5.79001C20.18 5.78001 20.11 6.12001 19.25 6.12001V26.46L19.42 26.41L20.01 26.23L21.19 25.88L21.56 25.77L22.51 25.49L22.7 25.44L22.78 25.41L25.89 24.48L26.04 24.44L28.47 23.71L29.53 23.4L29.6 23.38L29.78 23.33H29.82L29.85 23.31H29.88L30.33 23.17L30.43 23.14H30.44L30.47 23.13Z" fill="#616161"/>
</g>
<path d="M20.81 38.38L22.19 37.84L21.87 37.26L16.41 37.32L16.02 37.84L17.24 38.38H20.81Z" fill="#757575"/>
<path d="M14.43 47.03C14.45 46.72 15.35 42.66 15.51 42.32C16.51 40.15 19.1 41.31 19.1 41.31C19.1 41.31 21.55 40.13 22.55 42.29C22.73 42.66 23.78 46.72 23.78 47.06C23.78 48.62 22.5 49.88 20.94 49.88C20.06 49.88 19.08 49.09 19.08 49.09C19.08 49.09 18.16 49.88 17.26 49.87C15.69 49.85 14.35 48.59 14.43 47.03Z" fill="#D66142"/>
<path d="M20.8 36.37H17.24V40.09H20.8V36.37Z" fill="#EBB07A"/>
<g style="mix-blend-mode:color-burn" opacity="0.2">
<path d="M17.24 39.38V38.47C17.67 38.06 18.17 37.79 18.7 37.79H19.37C19.89 37.79 20.37 38.05 20.81 38.45V39.34L20.5 38.85L20.42 40.09H17.65L17.57 38.85L17.24 39.37V39.38Z" fill="#616161"/>
</g>
<path d="M18.7 48.57H19.37C21.13 48.57 22.55 47.37 22.55 45.88C22.55 45.88 22.54 42.24 22.51 42.07C22.27 40.5 20.95 38.08 19.37 38.08H18.7C17.12 38.08 15.8 40.5 15.55 42.07C15.52 42.24 15.51 45.88 15.51 45.88C15.51 47.36 16.94 48.57 18.7 48.57Z" fill="#EBB07A"/>
<path d="M21.08 44.26C21.15 44.18 21.19 44.08 21.19 43.98C21.19 43.7 20.93 43.48 20.6 43.48C20.27 43.48 20.01 43.7 20.01 43.98C20.01 44.09 20.05 44.18 20.12 44.26H21.09H21.08Z" fill="#333333"/>
<g style="mix-blend-mode:color-burn" opacity="0.2">
<path d="M18.81 44.75H19.03H19.26L19.58 42.41L19.03 41.79L18.49 42.41L18.81 44.75Z" fill="#616161"/>
</g>
<path d="M16.99 44.26C16.92 44.18 16.88 44.08 16.88 43.98C16.88 43.7 17.15 43.48 17.47 43.48C17.79 43.48 18.06 43.7 18.06 43.98C18.06 44.09 18.02 44.18 17.95 44.26H16.98H16.99Z" fill="#333333"/>
<g style="mix-blend-mode:color-burn" opacity="0.2">
<path d="M19.67 40.29H18.37V40.61H19.67V40.29Z" fill="#616161"/>
</g>
<path d="M18.13 45.52L16.36 45.31L18.13 45.1V45.52Z" fill="#D66142"/>
<path d="M19.9399 45.1L21.6699 45.31L19.9399 45.52V45.1Z" fill="#D66142"/>
<path d="M14.43 47.11C14.45 46.8 14.55 46.47 14.71 46.13C15.17 47.04 16.16 47.66 17.26 47.67C18.16 47.68 19.08 46.9 19.08 46.9C19.08 46.9 20.06 47.69 20.94 47.69C22.07 47.69 23.05 47.03 23.5 46.08C23.68 46.45 23.78 46.81 23.78 47.15C23.78 48.71 22.5 49.97 20.94 49.97C20.06 49.97 19.98 49.62 19.1 49.62C18.22 49.62 18.16 49.97 17.26 49.95C15.69 49.93 14.35 48.67 14.43 47.11Z" fill="#D66142"/>
<path d="M19.81 39.83C19.11 39.63 19.03 38.39 19.03 38.39C19.03 38.39 18.95 39.65 18.24 39.83H19.81Z" fill="#D66142"/>
<path d="M17.03 40.59C17.03 40.45 17.08 40.31 17.15 40.15C17.35 40.55 17.79 40.83 18.28 40.83C18.68 40.83 19.52 40.83 19.91 40.83C20.41 40.83 20.84 40.54 21.04 40.12C21.12 40.28 21.16 40.45 21.16 40.59C21.16 41.28 20.6 41.84 19.9 41.84C19.51 41.84 19.09 41.26 19.09 41.26C19.09 41.26 18.67 41.84 18.27 41.83C17.58 41.83 16.98 41.26 17.02 40.57L17.03 40.59Z" fill="#D66142"/>
<path d="M10.1399 37.37L11.4899 36.11L12.0799 34.32C12.0799 34.32 10.0799 34.72 10.0699 34.67L10.1399 37.37Z" fill="#757575"/>
<path d="M27.79 37.37L26.44 36.11L25.85 34.32C25.85 34.32 27.85 34.72 27.86 34.67L27.79 37.37Z" fill="#757575"/>
<path d="M26.98 36.37L27.17 35.99L27.61 34.56C27.61 34.56 25.12 35.25 25.23 35.18L26.98 36.37Z" fill="#9C4129"/>
<path d="M8.52002 32.44L9.87003 32.03L12.29 31.31L12.45 31.27L15.56 30.34L15.64 30.31L15.83 30.26L16.78 29.97L17.15 29.86L18.34 29.51L18.92 29.33L21.22 28.65L21.7 28.51L21.8 28.48L22.4 28.3L22.78 28.18L23.87 27.86L25.5 27.37V27.83L25.52 29.18L26.59 27.36V27.05L27.73 26.7L30.47 25.89V29.73L30.46 29.93V29.94L30.43 30.52L30.34 30.73L29.8 32.01L29.26 33.29L28.69 34.65L28.47 35.17L28.23 35.74L27.83 35.84L27.17 36L27.13 36.01L27.08 36.02L27 36.04L26.96 36.05L26.81 36.08L26.62 36.13L26.6 36.14L26.5 36.16L24.68 36.6L24.49 36.65L24.4 36.67L24.21 36.72L22.75 37.07L22.72 37.08L22.56 37.12L22 37.25L21.88 37.28L20.81 37.54H17.24L16.4 37.33L16.19 37.28L16.08 37.26L14.78 36.94L13.62 36.66L11.46 36.14L11.33 36.11L10.83 35.98L10.14 35.81H10.1L9.84002 35.74L9.30003 34.39L8.76003 33.04L8.61002 32.67L8.52002 32.44Z" fill="#ABABAB"/>
<path opacity="0.2" d="M14.78 36.94L18.53 33.19L18.69 33.03L19.33 32.4L19.34 32.39L20.36 31.36L20.42 31.31L22.22 29.5L22.77 28.95L23.03 28.7L23.3 28.42L23.87 27.86L25.5 27.37V27.83L23.83 29.5L23.55 29.79L23.35 29.98L22.78 30.56L22.6 30.73L22.43 30.91L22.35 30.98L20.23 33.1L20.2 33.13L20.12 33.21V33.22L19.51 33.83L19.35 33.98L16.08 37.26L14.78 36.94Z" fill="white"/>
<path opacity="0.2" d="M10.14 35.81L12.39 33.56L15.59 30.37L15.64 30.31L15.83 30.26L16.78 29.97L17.15 29.86L18.34 29.51L18.92 29.33L21.22 28.65L21.7 28.51L21.8 28.48L21.72 28.56L21.38 28.9L19.77 30.51L19.61 30.67L18.74 31.53L18.64 31.64L17.8 32.48L13.62 36.66L11.46 36.14L11.33 36.11L10.83 35.98L10.14 35.81Z" fill="white"/>
<g style="mix-blend-mode:color-burn" opacity="0.2">
<path d="M15.5601 30.34L15.6501 30.31L15.8401 30.26L16.7901 29.97L17.1601 29.86L18.3501 29.5L18.9401 29.32L21.2301 28.64L21.7101 28.5L21.8201 28.47L22.4201 28.29L22.8001 28.18L23.0501 28.69L23.5701 29.78L25.2501 33.28L26.0601 34.98L26.1401 35.14L26.6001 36.09L26.6101 36.12L26.5101 36.14L24.6901 36.58L24.5001 36.63L24.4201 36.65L24.2201 36.7L22.7601 37.05H22.7301L22.5601 37.1C22.0401 36.57 20.8301 35.38 19.3601 33.97C19.1001 33.71 18.8201 33.45 18.5401 33.18C18.3001 32.94 18.0601 32.71 17.8001 32.47C17.0701 31.77 16.3201 31.05 15.5901 30.35C15.5901 30.35 15.5701 30.33 15.5601 30.32V30.34Z" fill="#616161"/>
</g>
<path d="M18.92 29.33L21.21 28.65L21.69 28.51L21.8 28.48L22.4 28.3L22.77 28.95L23.35 29.98L25.23 33.29L25.9 34.47L26.18 34.96L26.82 36.09L26.98 36.38L26.78 36.43L23.01 37.37C22.97 37.32 22.88 37.21 22.75 37.07C22.22 36.5 20.98 35.27 19.51 33.83C19.24 33.57 18.97 33.3 18.69 33.04C18.45 32.8 18.2 32.56 17.96 32.32C17.26 31.63 16.53 30.93 15.84 30.26L16.79 29.97L17.16 29.86L18.35 29.5L18.94 29.32L18.92 29.33Z" fill="#D66142"/>
<path d="M22.1901 37.84L22.0001 37.25L19.1801 35.61L19.2701 37.54L22.1901 37.84Z" fill="#EBEBEB"/>
<path d="M16.02 37.84L16.2 37.25L19.02 35.61L18.94 37.54L16.02 37.84Z" fill="#EBEBEB"/>
<g style="mix-blend-mode:color-burn" opacity="0.2">
<path d="M19.3301 32.4L18.8101 31.84C19.0001 32.03 19.1801 32.22 19.3401 32.39C19.6501 32.72 19.9201 32.99 20.1201 33.21C20.3201 33.42 20.4601 33.57 20.5401 33.66L20.1201 33.22L19.3301 32.4Z" fill="#616161"/>
</g>
<g style="mix-blend-mode:color-burn" opacity="0.2">
<path d="M18.64 31.64C18.01 31.05 17.38 30.48 16.78 29.98L17.15 29.87L18.74 31.54L19.45 32.28L19.53 32.36L20.24 33.1L21.64 34.57L21.68 34.61C21.68 34.61 21.66 34.58 21.64 34.57C21.2 34.12 20.72 33.63 20.21 33.13C19.97 32.9 19.73 32.65 19.48 32.42C19.45 32.39 19.43 32.37 19.4 32.34C19.15 32.1 18.91 31.87 18.65 31.63L18.64 31.64Z" fill="#616161"/>
</g>
<g style="mix-blend-mode:color-burn" opacity="0.2">
<path d="M21.22 28.65L21.7 28.51L21.72 28.56L22.22 29.5L22.78 30.56L23.39 31.73L24.14 33.05L22.6 30.73L21.96 29.77L21.38 28.9L21.22 28.65Z" fill="#616161"/>
</g>
<g style="mix-blend-mode:color-burn" opacity="0.2">
<path d="M18.34 29.51L18.92 29.33L19.36 29.99L19.77 30.51L20.42 31.31L20.73 31.69L20.36 31.36L19.61 30.67L18.34 29.51Z" fill="#616161"/>
</g>
<g style="mix-blend-mode:color-burn" opacity="0.2">
<path d="M25.52 29.18L26.59 27.36V27.05L27.73 26.7L28.56 26.87L27.42 27.39L25.52 29.18Z" fill="#616161"/>
</g>
<g style="mix-blend-mode:color-burn" opacity="0.2">
<path d="M8.52002 32.44L9.87003 32.03L12.29 31.31L12.45 31.27L12.59 33.09L12.39 33.56L12.08 34.31L11.33 36.11L10.83 35.98L10.14 35.81H10.1L9.84002 35.74L9.30003 34.39L8.76003 33.04L8.61002 32.67L8.52002 32.44Z" fill="#616161"/>
</g>
<path d="M9.87003 32.03L12.3 31.31V33.03L11.69 34.27L11.63 34.41L10.84 35.99L10.15 37.37C10.15 37.37 8.39003 35.15 8.34003 35.19C8.33003 35.19 8.28003 34.93 8.21003 34.53C8.13003 34.04 8.02003 33.34 7.91003 32.63L8.48003 32.47L8.54003 32.45L9.89003 32.05L9.87003 32.03Z" fill="#ABABAB"/>
<g style="mix-blend-mode:color-burn" opacity="0.2">
<path d="M25.47 32.89L25.52 29.83L29.69 30.54C29.69 30.54 29.69 30.71 29.67 30.88L28.48 35.17L28.24 35.75L27.14 36.01H27.09L27.01 36.05H26.97L25.48 32.9L25.47 32.89Z" fill="#616161"/>
</g>
<path d="M25.52 29.48L29.46 29.83L30.47 29.92C30.47 29.92 30.47 29.92 30.47 29.93C30.46 30.01 30.41 30.31 30.35 30.73C30.13 32.21 29.68 35.19 29.63 35.19C29.57 35.15 27.82 37.37 27.82 37.37V37.34L27.14 36.01L25.65 33.04L25.52 29.49V29.48Z" fill="#ABABAB"/>
<path opacity="0.2" d="M7.89001 32.62H7.90002L8.46001 32.46L8.52001 32.44L8.60001 32.42L8.81001 32.36L9.87002 32.04L9.31001 34.4L9.17001 34.98L10.14 37.37C10.04 37.24 8.41002 35.2 8.33002 35.2C8.32002 35.2 8.27001 34.94 8.20001 34.54C8.20001 34.51 8.19002 34.47 8.18002 34.43C8.17002 34.36 8.15001 34.28 8.14001 34.2C8.13001 34.11 8.11001 34.01 8.09001 33.9C8.09001 33.82 8.07002 33.74 8.05002 33.66C8.05002 33.64 8.05002 33.61 8.04002 33.57L8.00002 33.32C8.00002 33.26 7.98002 33.21 7.97002 33.15C7.97002 33.13 7.97002 33.11 7.97002 33.08C7.94002 32.93 7.92001 32.77 7.89001 32.61V32.62Z" fill="white"/>
<path opacity="0.2" d="M27.8 37.34L28.76 34.97L28.69 34.66L27.86 31.2L29.45 29.84L29.8 29.54C29.8 29.54 30.3201 27.44 30.3801 27.37C30.3901 27.35 30.42 27.37 30.47 27.37V29.93C30.47 29.93 30.47 29.93 30.47 29.94L30.44 30.52L30.3501 30.73C30.3301 30.91 30.3001 31.08 30.2701 31.27C30.1301 32.18 29.95 33.37 29.82 34.19C29.81 34.27 29.8 34.34 29.79 34.41C29.71 34.88 29.65 35.18 29.64 35.18C29.55 35.18 27.83 37.36 27.83 37.36H27.81V37.33L27.8 37.34Z" fill="white"/>
<path d="M28.98 33.16C29.03 32.77 30.25 31.25 30.25 31.25C30.25 31.25 30.25 31.26 30.25 31.28C30.11 32.19 29.93 33.38 29.8 34.2C29.66 34.24 29.51 34.25 29.44 34.25C29.11 34.2 28.9 33.72 28.97 33.16H28.98Z" fill="#D66142"/>
<path d="M7.90002 32.62L8.46002 32.46L8.52002 32.44L8.60002 32.42C8.81002 32.73 8.98002 33.03 9.00002 33.17C9.07002 33.73 8.86002 34.21 8.53002 34.26C8.46002 34.26 8.29002 34.25 8.14002 34.21C8.14002 34.21 8.14002 34.21 8.13002 34.21L8.06002 33.68V33.59L8.01003 33.34L7.91003 32.64L7.90002 32.62Z" fill="#D66142"/>
<g style="mix-blend-mode:color-burn" opacity="0.2">
<path d="M22.15 36.11C21.66 35.2 22.79 32.7 22.79 32.7C22.79 32.7 25.37 33.66 25.64 34.63C25.81 35.22 25.5 35.85 24.98 36.08C24.68 36.21 24.24 36.1 24.24 36.1C24.24 36.1 24.03 36.5 23.72 36.64C23.17 36.87 22.46 36.68 22.15 36.11Z" fill="#616161"/>
</g>
<path d="M22.18 35.78C21.86 34.95 22.86 33.04 22.86 33.04C22.86 33.04 24.99 33.58 25.35 34.39C25.6 34.95 25.35 35.59 24.83 35.82C24.53 35.95 24.08 35.82 24.08 35.82C24.08 35.82 23.89 36.24 23.58 36.37C23.05 36.6 22.39 36.35 22.18 35.78Z" fill="#FFD675"/>
<g style="mix-blend-mode:color-burn" opacity="0.2">
<path d="M23.13 33.66C23.93 33.91 24.75 34.31 24.88 34.6C24.94 34.75 24.95 34.91 24.9 35.06C24.85 35.2 24.75 35.31 24.63 35.36C24.63 35.36 24.6 35.37 24.52 35.37C24.4 35.37 24.27 35.34 24.23 35.33L23.8 35.21L23.61 35.61C23.55 35.73 23.44 35.87 23.38 35.9C23.31 35.93 23.24 35.94 23.17 35.94C23 35.94 22.76 35.85 22.66 35.6C22.53 35.26 22.82 34.36 23.14 33.66H23.13Z" fill="#616161"/>
</g>
<g style="mix-blend-mode:color-burn" opacity="0.2">
<path d="M7.89001 32.62C7.90001 32.7 7.92001 32.78 7.93001 32.85C7.95001 32.97 7.97001 33.1 7.99001 33.22C7.99001 33.26 8.00001 33.29 8.01001 33.32L8.05001 33.57C8.05001 33.57 8.06001 33.63 8.06001 33.66L8.13 34.19C8.13 34.19 8.13001 34.19 8.14001 34.19C8.15001 34.27 8.17001 34.34 8.18001 34.42C8.18001 34.46 8.19 34.49 8.2 34.53C8.22 34.62 8.23001 34.71 8.25001 34.79C8.27001 34.88 8.28001 34.95 8.29001 35.02C8.31001 35.13 8.33001 35.19 8.33001 35.19C8.41001 35.19 10.04 37.24 10.14 37.36L11.46 36.13L13.62 36.65L14.78 36.93L16.07 37.24L16.18 37.27L16.01 37.83L17.23 38.37V38.75C16.35 39.58 15.71 41.01 15.54 42.06C15.54 42.08 15.54 42.15 15.54 42.25C15.54 42.27 15.52 42.29 15.51 42.31C15.35 42.65 14.44 46.71 14.43 47.02C14.43 47.05 14.43 47.07 14.43 47.1C14.35 48.66 15.69 49.92 17.26 49.94C18.16 49.95 18.23 49.61 19.09 49.61V29.27L18.92 29.32L18.33 29.5L17.14 29.86L16.77 29.97L15.82 30.26L15.63 30.31L15.54 30.34L12.43 31.27L12.28 31.31L9.85001 32.03L8.79001 32.35L8.72001 32.37L8.54001 32.42H8.50001L8.47001 32.44H8.44001L7.99001 32.58L7.89001 32.61H7.88L7.89001 32.62Z" fill="#616161"/>
</g>
<path d="M9.04001 11.2899C8.97001 12.5699 6.40001 14.5199 6.40001 14.5199C6.40001 14.5199 3.76001 12.5599 3.76001 11.2699C3.76001 10.3899 4.48001 9.67993 5.36001 9.67993C5.85001 9.67993 6.41001 10.1199 6.41001 10.1199C6.41001 10.1199 6.93001 9.67993 7.44001 9.67993C8.32001 9.68993 9.08001 10.3999 9.04001 11.2799V11.2899Z" fill="#D66142"/>
<g style="mix-blend-mode:color-burn" opacity="0.2">
<path d="M7.44002 9.67993C6.93002 9.67993 6.41002 10.1199 6.41002 10.1199C6.41002 10.1199 6.41001 10.1199 6.39001 10.1099V14.5099C6.39001 14.5099 8.96001 12.5599 9.03001 11.2799C9.08001 10.3999 8.32002 9.68993 7.43002 9.67993H7.44002Z" fill="#616161"/>
</g>
<path d="M31.99 44.56C32.06 43.28 34.63 41.33 34.63 41.33C34.63 41.33 37.27 43.29 37.27 44.57C37.27 45.45 36.55 46.16 35.67 46.16C35.17 46.16 34.62 45.71 34.62 45.71C34.62 45.71 34.1 46.16 33.59 46.15C32.71 46.14 31.95 45.43 31.99 44.54V44.56Z" fill="#D66142"/>
<g style="mix-blend-mode:color-burn" opacity="0.2">
<path d="M33.59 46.16C34.1 46.16 34.62 45.72 34.62 45.72C34.62 45.72 34.62 45.72 34.64 45.73V41.33C34.64 41.33 32.07 43.28 32 44.56C31.95 45.44 32.71 46.15 33.6 46.17L33.59 46.16Z" fill="#616161"/>
</g>
</svg>
