<svg width="41" height="56" viewBox="0 0 41 56" fill="none" xmlns="http://www.w3.org/2000/svg">
<path d="M4.83001 55.95C2.48001 55.95 0.560005 54.07 0.560005 51.77L0.440002 4.53995C0.440002 2.21995 2.35 0.329956 4.71 0.329956L35.92 0.389954C38.27 0.389954 40.18 2.27996 40.18 4.59996V51.7299C40.18 54.0299 38.27 55.91 35.93 55.91L4.83001 55.95Z" fill="#C9C9C9"/>
<path d="M5.21 55.8101C2.89 55.8101 1 53.9301 1 51.6201V4.50006C1 2.19006 2.89 0.310059 5.21 0.310059H35.96C38.28 0.310059 40.17 2.19006 40.17 4.50006V51.6201C40.17 53.9301 38.28 55.8101 35.96 55.8101H5.21Z" fill="white"/>
<path d="M35.96 54.95H5.2C3.4 54.95 1.94 53.49 1.94 51.7V4.59003C1.94 2.87003 3.31 1.47003 4.04 1.20003L4.15001 1.16003H35.07C38.13 1.40003 39.22 3.09003 39.22 4.59003V51.7C39.22 53.49 37.76 54.95 35.96 54.95ZM4.41 2.45003C4.08 2.66003 3.23 3.52003 3.23 4.59003V51.7C3.23 52.78 4.11 53.66 5.2 53.66H35.96C37.05 53.66 37.93 52.78 37.93 51.7V4.59003C37.93 3.40003 36.83 2.60003 35 2.45003H4.42H4.41Z" fill="#333333"/>
<path d="M7.86002 4.21005C7.73002 4.42005 7.58001 4.59004 7.39001 4.70004C7.20001 4.81004 7.01002 4.87004 6.83002 4.87004C6.77002 4.87004 6.55002 4.82004 6.18002 4.73004C6.01002 4.69004 5.85001 4.66005 5.71001 4.66005C5.62001 4.66005 5.53001 4.67005 5.44001 4.69005C5.35001 4.71005 5.27001 4.75005 5.21001 4.80005H5.14001V4.71005C5.27001 4.42005 5.42002 4.22005 5.59002 4.10005C5.77002 3.98005 6.00001 3.92004 6.28001 3.92004C6.49001 3.92004 6.69001 3.95005 6.87001 4.02005C7.06001 4.09005 7.24001 4.12004 7.42001 4.12004C7.48001 4.12004 7.54001 4.12004 7.62001 4.12004C7.69001 4.12004 7.78001 4.11005 7.87001 4.10005V4.20004L7.86002 4.21005ZM7.88002 7.79004C7.88002 8.19004 7.73002 8.51005 7.43002 8.75005C7.13002 8.99005 6.74002 9.11005 6.27002 9.11005C5.98002 9.11005 5.74001 9.05005 5.55001 8.94005C5.32001 8.81005 5.20002 8.61005 5.20002 8.36005C5.20002 8.24005 5.23001 8.14005 5.30001 8.05005C5.39001 7.93005 5.52001 7.87004 5.69001 7.87004C5.80001 7.87004 5.90001 7.91004 5.98001 7.98004C6.06001 8.05004 6.10001 8.14005 6.10001 8.24005C6.10001 8.42005 6.03002 8.53004 5.88002 8.59004C5.73002 8.65004 5.66002 8.69005 5.66002 8.72005C5.68002 8.77005 5.71002 8.81004 5.74002 8.84004C5.83002 8.92004 5.95002 8.96005 6.11002 8.96005C6.27002 8.96005 6.41001 8.92004 6.53001 8.84004C6.65001 8.76004 6.70002 8.66005 6.70002 8.52005V5.08005C6.91002 5.01005 7.11002 4.94005 7.29002 4.88005C7.47002 4.81005 7.64001 4.72004 7.78001 4.59004H7.88002V7.79004Z" fill="#333333"/>
<path d="M33.45 49.02C33.45 48.62 33.6 48.3 33.9 48.06C34.2 47.81 34.59 47.69 35.06 47.69C35.35 47.69 35.59 47.74 35.79 47.86C36.02 47.99 36.14 48.19 36.14 48.44C36.14 48.56 36.11 48.66 36.04 48.75C35.95 48.87 35.82 48.94 35.65 48.94C35.54 48.94 35.44 48.9 35.36 48.83C35.28 48.76 35.24 48.67 35.24 48.56C35.24 48.38 35.31 48.27 35.46 48.21C35.61 48.15 35.68 48.11 35.68 48.08C35.66 48.03 35.63 47.99 35.6 47.96C35.52 47.88 35.39 47.85 35.23 47.85C35.07 47.85 34.93 47.89 34.81 47.96C34.69 48.04 34.64 48.15 34.64 48.28V51.72C34.43 51.79 34.23 51.86 34.05 51.92C33.87 51.99 33.7 52.08 33.56 52.22H33.46V49.01L33.45 49.02ZM33.47 52.6C33.6 52.39 33.75 52.22 33.94 52.11C34.13 51.99 34.32 51.94 34.5 51.94C34.56 51.94 34.78 51.99 35.15 52.08C35.33 52.12 35.48 52.15 35.63 52.15C35.72 52.15 35.81 52.14 35.9 52.11C35.99 52.09 36.07 52.05 36.13 52H36.2V52.09C36.07 52.38 35.92 52.58 35.75 52.7C35.57 52.82 35.34 52.88 35.06 52.88C34.85 52.88 34.65 52.85 34.47 52.78C34.28 52.71 34.1 52.68 33.92 52.68C33.86 52.68 33.8 52.68 33.72 52.68C33.65 52.68 33.56 52.69 33.47 52.71V52.6Z" fill="#333333"/>
<path d="M17.6 17.66L16.21 18.21L16.53 18.79L22.01 18.72L22.4 18.21L21.17 17.66H17.6Z" fill="#757575"/>
<path d="M21.17 15.9399H17.6V19.6699H21.17V15.9399Z" fill="#EBB07A"/>
<g style="mix-blend-mode:color-burn" opacity="0.2">
<path d="M21.17 16.66V17.57C20.73 17.99 20.24 18.25 19.71 18.25H19.03C18.51 18.25 18.02 17.99 17.59 17.59V16.7L17.9 17.19L17.98 15.95H20.76L20.84 17.19L21.17 16.67V16.66Z" fill="#616161"/>
</g>
<path d="M19.71 7.43994H19.03C17.26 7.43994 15.83 8.63994 15.83 10.1399C15.83 10.1399 15.84 13.7899 15.87 13.9599C16.12 15.5299 17.44 17.9699 19.03 17.9699H19.71C21.3 17.9699 22.62 15.5399 22.86 13.9599C22.89 13.7899 22.9 10.1399 22.9 10.1399C22.9 8.64994 21.47 7.43994 19.7 7.43994H19.71Z" fill="#EBB07A"/>
<path d="M20.24 18.19C20.96 18.19 21.54 17.61 21.54 16.89C21.54 16.39 19.71 14.24 19.36 14.24C19.01 14.24 17.23 16.45 17.23 16.88C17.23 17.6 17.81 18.19 18.53 18.19C18.77 18.19 19 18.12 19.2 18H19.56C19.75 18.12 19.98 18.19 20.23 18.19H20.24Z" fill="#333333"/>
<path d="M20.23 16.56C20.13 16.56 20.05 16.52 20.01 16.5L19.81 16.38H18.97L18.76 16.5C18.69 16.54 18.62 16.56 18.54 16.56C18.42 16.56 18.3 16.52 18.22 16.43C18.17 16.38 18.13 16.31 18.11 16.24C18.3 15.95 19.1 14.72 19.38 14.72C19.66 14.72 20.5 15.94 20.67 16.23C20.65 16.33 20.59 16.4 20.55 16.44C20.47 16.52 20.35 16.57 20.23 16.57V16.56Z" fill="#EBB07A"/>
<path d="M17.32 11.77C17.25 11.85 17.21 11.95 17.21 12.05C17.21 12.33 17.47 12.55 17.8 12.55C18.13 12.55 18.39 12.33 18.39 12.05C18.39 11.94 18.35 11.85 18.28 11.77H17.3H17.32Z" fill="#333333"/>
<g style="mix-blend-mode:color-burn" opacity="0.2">
<path d="M19.61 11.27H19.38H19.15L18.83 13.62L19.38 14.25L19.92 13.62L19.61 11.27Z" fill="#616161"/>
</g>
<path d="M21.43 11.77C21.5 11.85 21.54 11.95 21.54 12.05C21.54 12.33 21.27 12.55 20.95 12.55C20.63 12.55 20.35 12.33 20.35 12.05C20.35 11.94 20.39 11.85 20.46 11.77H21.44H21.43Z" fill="#333333"/>
<g style="mix-blend-mode:color-burn" opacity="0.2">
<path d="M20.04 15.42H18.73V15.7401H20.04V15.42Z" fill="#616161"/>
</g>
<path d="M20.29 10.5L22.06 10.71L20.29 10.93V10.5Z" fill="#333333"/>
<path d="M18.46 10.93L16.73 10.71L18.46 10.5V10.93Z" fill="#333333"/>
<path d="M28.3 18.68L26.95 19.95L26.36 21.75C26.36 21.75 28.37 21.35 28.38 21.4L28.31 18.68H28.3Z" fill="#757575"/>
<path d="M10.59 18.68L11.94 19.95L12.53 21.75C12.53 21.75 10.52 21.35 10.51 21.4L10.58 18.68H10.59Z" fill="#757575"/>
<path d="M11.41 19.68L11.22 20.06L10.78 21.5C10.78 21.5 13.28 20.8 13.17 20.88L11.41 19.68Z" fill="#1C1C1C"/>
<path d="M29.93 23.63L28.58 24.03L26.14 24.76L25.99 24.8L22.87 25.73L22.78 25.76L22.59 25.81L21.63 26.1L21.27 26.21L20.08 26.57L19.49 26.74L17.19 27.43L16.71 27.57L16.6 27.6L16 27.78L15.62 27.9L14.53 28.22L12.89 28.71V28.25L12.87 26.89L11.79 28.72V29.04L10.65 29.38L7.90002 30.2V26.35L7.91002 26.15V26.13L7.94002 25.55L8.03002 25.33L8.57002 24.05L9.11002 22.77L9.69002 21.4L9.91002 20.89L10.15 20.31L10.55 20.21L11.22 20.06L11.25 20.04L11.3 20.03L11.39 20.01L11.43 20L11.57 19.97L11.77 19.92L11.79 19.91L11.89 19.89L13.71 19.45L13.91 19.4L13.99 19.38L14.19 19.33L15.65 18.98L15.68 18.97L15.84 18.93L16.4 18.79L16.52 18.77L17.6 18.51H21.17L22.02 18.71L22.23 18.76L22.35 18.79L23.64 19.11L24.81 19.39L26.98 19.92L27.11 19.95L27.61 20.07L28.3 20.24H28.34L28.6 20.31L29.14 21.66L29.69 23.02L29.84 23.4L29.93 23.63Z" fill="#ABABAB"/>
<path opacity="0.2" d="M23.64 19.11L19.88 22.87L19.72 23.03L19.08 23.67H19.07L18.04 24.71L17.99 24.76L16.18 26.57L15.63 27.12L15.37 27.38L15.09 27.66L14.53 28.22L12.89 28.71V28.25L14.57 26.57L14.85 26.29L15.04 26.09L15.62 25.51L15.8 25.33L15.97 25.16L16.05 25.09L18.18 22.96L18.21 22.93L18.29 22.85V22.84L18.9 22.23L19.06 22.07L22.35 18.79L23.64 19.11Z" fill="white"/>
<path opacity="0.2" d="M28.3 20.24L26.04 22.5L22.84 25.7L22.78 25.76L22.59 25.81L21.63 26.1L21.27 26.21L20.08 26.57L19.49 26.74L17.19 27.43L16.71 27.57L16.6 27.6L16.68 27.52L17.02 27.18L18.64 25.57L18.8 25.4L19.67 24.53L19.77 24.43L20.62 23.58L24.81 19.39L26.98 19.92L27.11 19.95L27.61 20.07L28.3 20.24Z" fill="white"/>
<g style="mix-blend-mode:color-burn" opacity="0.2">
<path d="M22.87 25.73L22.78 25.76L22.59 25.81L21.64 26.1L21.27 26.21L20.08 26.57L19.49 26.75L17.19 27.44L16.71 27.58L16.6 27.61L16 27.79L15.62 27.91L15.37 27.39L14.85 26.3L13.16 22.79L12.34 21.08L12.26 20.92L11.8 19.96L11.78 19.93L11.88 19.91L13.7 19.47L13.89 19.42L13.97 19.4L14.17 19.35L15.63 19H15.66L15.83 18.95C16.35 19.48 17.57 20.67 19.04 22.09C19.31 22.35 19.58 22.61 19.87 22.88C20.11 23.11 20.35 23.35 20.61 23.59C21.34 24.29 22.09 25.02 22.83 25.71C22.83 25.71 22.85 25.73 22.86 25.74L22.87 25.73Z" fill="#616161"/>
</g>
<path d="M19.49 26.74L17.19 27.43L16.71 27.57L16.6 27.6L16 27.78L15.63 27.12L15.05 26.09L13.17 22.77L12.5 21.59L12.22 21.1L11.58 19.97L11.42 19.68L11.62 19.63L15.4 18.68C15.44 18.73 15.53 18.84 15.66 18.98C16.2 19.55 17.43 20.78 18.91 22.23C19.18 22.49 19.45 22.76 19.73 23.03C19.97 23.27 20.22 23.51 20.46 23.75C21.17 24.44 21.89 25.14 22.59 25.82L21.64 26.11L21.27 26.22L20.08 26.58L19.49 26.76V26.74Z" fill="#333333"/>
<path d="M16.21 18.21L16.4 18.8L19.23 20.44L19.14 18.51L16.21 18.21Z" fill="#EBEBEB"/>
<path d="M22.4 18.21L22.21 18.8L19.39 20.44L19.47 18.51L22.4 18.21Z" fill="#EBEBEB"/>
<g style="mix-blend-mode:color-burn" opacity="0.2">
<path d="M19.08 23.67L19.61 24.23C19.42 24.04 19.24 23.85 19.08 23.68C18.77 23.35 18.5 23.07 18.29 22.85C18.09 22.64 17.95 22.49 17.87 22.41L18.29 22.85L19.08 23.68V23.67Z" fill="#616161"/>
</g>
<g style="mix-blend-mode:color-burn" opacity="0.2">
<path d="M19.77 24.43C20.4 25.02 21.03 25.59 21.63 26.1L21.26 26.21L19.66 24.53L18.95 23.79L18.87 23.7L18.16 22.96L16.75 21.48L16.71 21.44C16.71 21.44 16.73 21.47 16.75 21.48C17.19 21.93 17.67 22.42 18.19 22.93C18.43 23.17 18.68 23.41 18.93 23.65C18.96 23.68 18.98 23.7 19.01 23.73C19.26 23.97 19.51 24.2 19.76 24.44L19.77 24.43Z" fill="#616161"/>
</g>
<g style="mix-blend-mode:color-burn" opacity="0.2">
<path d="M17.19 27.43L16.71 27.57L16.68 27.52L16.18 26.57L15.62 25.51L15 24.33L14.26 23.02L15.8 25.33L16.44 26.31L17.02 27.18L17.19 27.43Z" fill="#616161"/>
</g>
<g style="mix-blend-mode:color-burn" opacity="0.2">
<path d="M20.08 26.57L19.49 26.74L19.05 26.08L18.64 25.57L17.99 24.76L17.67 24.37L18.04 24.71L18.8 25.4L20.08 26.57Z" fill="#616161"/>
</g>
<g style="mix-blend-mode:color-burn" opacity="0.2">
<path d="M12.87 26.89L11.79 28.72V29.04L10.65 29.38L9.81 29.21L10.96 28.69L12.87 26.89Z" fill="#616161"/>
</g>
<g style="mix-blend-mode:color-burn" opacity="0.2">
<path d="M29.93 23.63L28.58 24.03L26.14 24.76L25.99 24.8L25.84 22.97L26.04 22.5L26.35 21.75L27.11 19.95L27.61 20.07L28.3 20.24H28.34L28.6 20.31L29.14 21.66L29.69 23.02L29.84 23.4L29.93 23.63Z" fill="#616161"/>
</g>
<path d="M28.58 24.03L26.15 24.76V23.03L26.76 21.79L26.83 21.66L27.62 20.08L28.31 18.69C28.31 18.69 30.08 20.92 30.13 20.87C30.14 20.87 30.19 21.13 30.26 21.53C30.34 22.02 30.45 22.73 30.56 23.44L29.99 23.6L29.93 23.62L28.58 24.02V24.03Z" fill="#ABABAB"/>
<g style="mix-blend-mode:color-burn" opacity="0.2">
<path d="M12.92 23.17L12.87 26.24L8.69 25.53C8.69 25.53 8.69 25.36 8.71 25.19L9.91 20.88L10.15 20.3L11.25 20.03H11.3L11.38 20H11.42L12.91 23.16L12.92 23.17Z" fill="#616161"/>
</g>
<path d="M12.87 26.59L8.91997 26.24L7.90997 26.15C7.90997 26.15 7.90997 26.15 7.90997 26.13C7.91997 26.05 7.96997 25.75 8.02997 25.33C8.24997 23.85 8.69997 20.86 8.74997 20.86C8.80997 20.9 10.57 18.68 10.57 18.68V18.71L11.25 20.05L12.74 23.03L12.87 26.6V26.59Z" fill="#ABABAB"/>
<path opacity="0.2" d="M30.56 23.44L29.99 23.61L29.93 23.63L29.64 23.72L28.58 24.04L29.15 21.68L29.29 21.1L28.32 18.7C28.42 18.83 30.05 20.88 30.13 20.88C30.14 20.88 30.19 21.14 30.26 21.55C30.26 21.59 30.27 21.62 30.28 21.66C30.3 21.82 30.34 21.99 30.37 22.18C30.37 22.26 30.39 22.34 30.41 22.42C30.41 22.44 30.41 22.47 30.42 22.51C30.44 22.65 30.46 22.78 30.48 22.93C30.48 22.95 30.48 22.97 30.48 23C30.51 23.15 30.53 23.31 30.56 23.47V23.44Z" fill="white"/>
<path opacity="0.2" d="M10.58 18.71L9.62002 21.09L9.69002 21.4L10.52 24.87L8.92002 26.24L8.57002 26.54C8.57002 26.54 8.05002 28.65 7.99002 28.72C7.98002 28.74 7.95002 28.72 7.90002 28.72V26.15C7.90002 26.15 7.90002 26.15 7.90002 26.14L7.93002 25.56L8.02002 25.34C8.17002 24.32 8.43002 22.62 8.59002 21.64C8.67002 21.17 8.73002 20.87 8.74002 20.87C8.83002 20.87 10.56 18.69 10.56 18.69H10.58V18.72V18.71Z" fill="white"/>
<path d="M22.58 7.42L21.23 6.57001C20.67 5.96001 19.38 5.12 19.38 5.12C19.38 5.12 17.92 6.06999 17.38 6.64999L16.17 7.41L15.34 8.84L15.67 12.22L16.1 12.47L16.17 9.36C16.17 9.36 16.25 8.28 17.18 8.28C18.11 8.28 19.38 8.92999 19.38 8.92999C19.38 8.92999 20.66 8.28 21.58 8.28C22.5 8.28 22.59 9.36 22.59 9.36L22.66 12.47L23.09 12.22L23.42 8.84L22.59 7.41L22.58 7.42Z" fill="#333333"/>
<path d="M9.25003 23.66C9.16003 24.18 8.84003 24.56 8.53003 24.51C8.42003 24.49 8.33003 24.42 8.26003 24.33L8.44003 25.39L8.03003 25.32C8.18003 24.31 8.44003 22.62 8.60003 21.63C8.62003 21.61 8.63003 21.59 8.63003 21.59C8.63003 21.59 9.31003 23.29 9.25003 23.65V23.66Z" fill="#333333"/>
<path d="M30.55 23.44L29.98 23.61L29.92 23.63L29.63 23.72C29.63 23.72 29.63 23.68 29.62 23.67C29.56 23.31 30.24 21.61 30.24 21.61C30.24 21.61 30.24 21.62 30.27 21.65C30.29 21.81 30.33 21.98 30.36 22.17C30.36 22.25 30.38 22.33 30.4 22.41C30.4 22.43 30.4 22.46 30.41 22.5C30.43 22.64 30.45 22.77 30.47 22.92C30.47 22.94 30.47 22.96 30.47 22.99C30.5 23.14 30.52 23.3 30.54 23.46L30.55 23.44Z" fill="#333333"/>
<g style="mix-blend-mode:color-burn" opacity="0.2">
<path d="M16.51 20.45C16.31 20.08 13.9 19.16 13.9 19.16C13.9 19.16 12.93 21.58 13.09 21.94C13.36 22.57 14.1 22.85 14.71 22.56C14.92 22.46 15.08 22.31 15.19 22.14L14.86 23.6L16.59 22.92L15.47 22C15.67 22.03 15.88 22 16.07 21.91C16.61 21.65 16.8 20.99 16.51 20.45Z" fill="#616161"/>
</g>
<path d="M16.44 20.48C16.27 20.12 13.96 19.35 13.96 19.35C13.96 19.35 13.21 21.67 13.36 21.97C13.61 22.48 14.23 22.7 14.74 22.45C14.92 22.37 15.06 22.24 15.16 22.08L15.06 23.36L16.48 22.67L15.41 21.96C15.59 21.98 15.78 21.95 15.95 21.86C16.47 21.61 16.68 20.99 16.43 20.48H16.44Z" fill="#FFD675"/>
<g style="mix-blend-mode:color-burn" opacity="0.2">
<path d="M15.44 22.34L15.88 22.63L15.4 22.86L15.44 22.33V22.34ZM14.29 22.25C14 22.25 13.75 22.09 13.63 21.84C13.61 21.66 13.87 20.65 14.15 19.73C15.07 20.05 16.04 20.46 16.18 20.63C16.25 20.79 16.27 20.99 16.2 21.17C16.14 21.36 16 21.51 15.83 21.59C15.73 21.64 15.62 21.66 15.51 21.66C15.49 21.66 15.47 21.66 15.44 21.66L14.9 21.92C14.83 22.03 14.73 22.12 14.61 22.18C14.51 22.23 14.4 22.25 14.29 22.25Z" fill="#616161"/>
</g>
<g style="mix-blend-mode:color-burn" opacity="0.2">
<path d="M30.56 23.44C30.55 23.36 30.54 23.28 30.52 23.21C30.5 23.07 30.48 22.93 30.46 22.8C30.44 22.69 30.43 22.59 30.41 22.49C30.41 22.46 30.4 22.43 30.4 22.4C30.38 22.32 30.37 22.24 30.36 22.16C30.33 21.97 30.3 21.8 30.27 21.64C30.27 21.6 30.26 21.57 30.25 21.53C30.23 21.43 30.22 21.35 30.2 21.27C30.18 21.18 30.17 21.1 30.16 21.04C30.14 20.93 30.12 20.87 30.12 20.87C30.04 20.87 28.41 18.82 28.31 18.69L26.99 19.93L24.82 19.4L23.65 19.12L22.35 18.8L22.23 18.77L22.4 18.21L21.26 17.7C21.44 17.48 21.55 17.2 21.55 16.9C22.25 16.05 22.74 14.88 22.88 13.97C22.89 13.89 22.9 13.16 22.91 12.35L23.1 12.24L23.43 8.86L22.6 7.42999L21.25 6.58C20.69 5.97 19.4 5.13 19.4 5.13C19.4 5.13 19.37 5.14999 19.33 5.17999V26.8L19.5 26.75L20.09 26.57L21.28 26.21L21.65 26.1L22.6 25.81L22.79 25.76L22.88 25.73L26 24.8L26.16 24.75L28.59 24.02L29.65 23.7L29.94 23.61H29.97L30 23.59L30.57 23.43L30.56 23.44Z" fill="#616161"/>
</g>
<path d="M20.86 38.85L22.25 38.3L21.93 37.72L16.45 37.78L16.06 38.3L17.29 38.85H20.86Z" fill="#757575"/>
<path d="M20.87 36.83H17.29V40.56H20.87V36.83Z" fill="#EBB07A"/>
<g style="mix-blend-mode:color-burn" opacity="0.2">
<path d="M17.29 39.85V38.94C17.73 38.52 18.23 38.26 18.75 38.26H19.42C19.94 38.26 20.43 38.52 20.86 38.92V39.81L20.55 39.32L20.47 40.56H17.69L17.61 39.32L17.28 39.84L17.29 39.85Z" fill="#616161"/>
</g>
<path d="M18.75 49.07H19.42C21.18 49.07 22.62 47.86 22.62 46.37C22.62 46.37 22.61 42.72 22.58 42.55C22.33 40.98 21.02 38.55 19.43 38.55H18.76C17.17 38.55 15.85 40.98 15.61 42.55C15.58 42.73 15.57 46.37 15.57 46.37C15.57 47.86 17 49.07 18.77 49.07H18.75Z" fill="#EBB07A"/>
<path d="M18.22 38.32C17.5 38.32 16.92 38.9 16.92 39.62C16.92 40.12 18.75 42.26 19.1 42.26C19.45 42.26 21.23 40.05 21.23 39.62C21.23 38.9 20.65 38.32 19.93 38.32C19.69 38.32 19.46 38.39 19.26 38.5H18.91C18.72 38.38 18.49 38.31 18.24 38.31L18.22 38.32Z" fill="#333333"/>
<path d="M18.23 39.94C18.33 39.94 18.41 39.98 18.45 40L18.65 40.12H19.49L19.7 40C19.76 39.96 19.84 39.94 19.92 39.94C20.05 39.94 20.16 39.99 20.24 40.07C20.29 40.12 20.33 40.19 20.35 40.26C20.16 40.55 19.36 41.78 19.08 41.78C18.8 41.78 17.96 40.56 17.79 40.27C17.82 40.17 17.87 40.1 17.91 40.07C17.99 39.99 18.11 39.94 18.22 39.94H18.23Z" fill="#EBB07A"/>
<path d="M21.14 44.74C21.21 44.66 21.25 44.56 21.25 44.45C21.25 44.17 20.98 43.94 20.66 43.94C20.34 43.94 20.07 44.17 20.07 44.45C20.07 44.56 20.11 44.66 20.18 44.74H21.16H21.14Z" fill="#333333"/>
<g style="mix-blend-mode:color-burn" opacity="0.2">
<path d="M18.86 45.23H19.08H19.31L19.63 42.89L19.08 42.26L18.54 42.89L18.86 45.23Z" fill="#616161"/>
</g>
<path d="M17.03 44.74C16.96 44.66 16.92 44.56 16.92 44.45C16.92 44.17 17.19 43.94 17.51 43.94C17.83 43.94 18.11 44.17 18.11 44.45C18.11 44.56 18.07 44.66 18 44.74H17.02H17.03Z" fill="#333333"/>
<g style="mix-blend-mode:color-burn" opacity="0.2">
<path d="M19.73 40.76H18.42V41.08H19.73V40.76Z" fill="#616161"/>
</g>
<path d="M18.17 46.01L16.4 45.79L18.17 45.58V46.01Z" fill="#333333"/>
<path d="M20 45.58L21.73 45.79L20 46.01V45.58Z" fill="#333333"/>
<path d="M10.16 37.83L11.51 36.56L12.1 34.76C12.1 34.76 10.09 35.16 10.08 35.11L10.15 37.82L10.16 37.83Z" fill="#757575"/>
<path d="M27.87 37.83L26.52 36.56L25.93 34.76C25.93 34.76 27.94 35.16 27.95 35.11L27.88 37.82L27.87 37.83Z" fill="#757575"/>
<path d="M27.05 36.83L27.24 36.45L27.68 35.01C27.68 35.01 25.18 35.71 25.29 35.63L27.05 36.83Z" fill="#1C1C1C"/>
<path d="M8.53998 32.88L9.87998 32.48L12.32 31.75L12.47 31.71L15.6 30.78L15.68 30.75L15.87 30.69L16.83 30.41L17.19 30.3L18.38 29.94L18.97 29.77L21.27 29.08L21.76 28.94L21.86 28.91L22.46 28.73L22.84 28.61L23.93 28.29L25.57 27.8L25.58 28.26L25.59 29.62L26.67 27.79V27.47L27.81 27.13L30.56 26.31V30.16L30.55 30.36V30.38L30.52 30.96L30.43 31.17L29.89 32.46L29.35 33.74L28.77 35.11L28.55 35.62L28.31 36.2L27.91 36.3L27.24 36.46H27.21L27.16 36.48L27.08 36.5L27.03 36.51L26.89 36.54L26.7 36.59H26.69L26.67 36.6L26.57 36.62L24.75 37.06L24.55 37.11L24.47 37.13L24.27 37.18L22.81 37.53L22.79 37.54L22.62 37.58L22.07 37.71L21.94 37.74L20.86 38H17.29L16.44 37.8L16.23 37.75L16.12 37.72L14.82 37.4L13.65 37.12L11.48 36.59L11.35 36.56L10.85 36.44L10.16 36.27L10.12 36.26L9.85998 36.2L9.31998 34.85L8.77998 33.49L8.61998 33.11L8.53998 32.88Z" fill="#ABABAB"/>
<path opacity="0.2" d="M14.82 37.4L18.58 33.64L18.74 33.48L19.38 32.84L19.39 32.83L20.42 31.8L20.47 31.75L22.28 29.94L22.84 29.39L23.09 29.13L23.37 28.85L23.93 28.29L25.57 27.8L25.58 28.26L23.89 29.94L23.61 30.22L23.42 30.42L22.84 31L22.66 31.17L22.49 31.35L22.41 31.42L20.29 33.55L20.25 33.58L20.17 33.66V33.67L19.56 34.28L19.4 34.43L16.12 37.72L14.82 37.4Z" fill="white"/>
<path opacity="0.2" d="M10.16 36.27L12.42 34.01L15.63 30.81L15.68 30.75L15.87 30.69L16.83 30.41L17.19 30.3L18.38 29.94L18.97 29.77L21.27 29.08L21.76 28.94L21.86 28.91L21.78 28.99L21.44 29.33L19.83 30.94L19.66 31.11L18.79 31.98L18.69 32.08L17.84 32.93L13.65 37.12L11.48 36.59L11.35 36.56L10.85 36.44L10.16 36.27Z" fill="white"/>
<g style="mix-blend-mode:color-burn" opacity="0.2">
<path d="M15.6 30.78L15.69 30.75L15.88 30.69L16.83 30.41L17.2 30.3L18.39 29.94L18.98 29.76L21.28 29.07L21.76 28.93L21.87 28.9L22.47 28.72L22.85 28.61L23.1 29.13L23.62 30.22L25.31 33.73L26.13 35.44L26.21 35.6L26.67 36.56L26.69 36.59L26.59 36.61L24.76 37.05L24.57 37.1L24.49 37.12L24.29 37.17L22.83 37.52H22.8L22.63 37.57C22.11 37.04 20.89 35.85 19.42 34.43C19.16 34.17 18.88 33.91 18.6 33.64C18.36 33.4 18.11 33.17 17.86 32.93C17.13 32.23 16.38 31.5 15.64 30.81C15.64 30.81 15.62 30.79 15.61 30.78H15.6Z" fill="#616161"/>
</g>
<path d="M18.97 29.77L21.27 29.08L21.75 28.94L21.86 28.91L22.46 28.73L22.83 29.39L23.41 30.42L25.29 33.74L25.96 34.92L26.24 35.42L26.88 36.55L27.04 36.84L26.84 36.89L23.05 37.83C23.01 37.78 22.92 37.67 22.79 37.53C22.25 36.96 21.01 35.73 19.54 34.28C19.27 34.02 19 33.75 18.72 33.48C18.48 33.24 18.23 33 17.99 32.76C17.28 32.07 16.56 31.37 15.86 30.69L16.81 30.41L17.18 30.3L18.37 29.94L18.96 29.76L18.97 29.77Z" fill="#333333"/>
<path d="M22.25 38.3L22.06 37.71L19.23 36.07L19.32 38L22.25 38.3Z" fill="#EBEBEB"/>
<path d="M16.06 38.3L16.25 37.71L19.07 36.07L18.99 38L16.06 38.3Z" fill="#EBEBEB"/>
<g style="mix-blend-mode:color-burn" opacity="0.2">
<path d="M19.38 32.84L18.85 32.28C19.04 32.47 19.22 32.66 19.38 32.83C19.69 33.16 19.96 33.44 20.17 33.66C20.37 33.87 20.51 34.02 20.59 34.11L20.17 33.67L19.38 32.85V32.84Z" fill="#616161"/>
</g>
<g style="mix-blend-mode:color-burn" opacity="0.2">
<path d="M18.69 32.08C18.06 31.49 17.43 30.91 16.83 30.41L17.2 30.3L18.8 31.98L19.51 32.72L19.59 32.8L20.3 33.55L21.71 35.03L21.75 35.07C21.75 35.07 21.73 35.04 21.71 35.03C21.27 34.58 20.79 34.09 20.27 33.58C20.03 33.34 19.78 33.1 19.54 32.86C19.51 32.83 19.49 32.81 19.46 32.78C19.21 32.54 18.96 32.31 18.71 32.07L18.69 32.08Z" fill="#616161"/>
</g>
<g style="mix-blend-mode:color-burn" opacity="0.2">
<path d="M21.27 29.08L21.76 28.94L21.78 28.99L22.28 29.94L22.84 31L23.46 32.18L24.21 33.49L22.66 31.17L22.02 30.2L21.44 29.33L21.27 29.08Z" fill="#616161"/>
</g>
<g style="mix-blend-mode:color-burn" opacity="0.2">
<path d="M18.38 29.94L18.97 29.77L19.41 30.43L19.83 30.94L20.47 31.75L20.79 32.14L20.42 31.8L19.66 31.11L18.38 29.94Z" fill="#616161"/>
</g>
<g style="mix-blend-mode:color-burn" opacity="0.2">
<path d="M25.59 29.62L26.67 27.79V27.47L27.81 27.13L28.65 27.3L27.5 27.82L25.59 29.62Z" fill="#616161"/>
</g>
<g style="mix-blend-mode:color-burn" opacity="0.2">
<path d="M8.53998 32.88L9.87998 32.48L12.32 31.75L12.47 31.71L12.62 33.53L12.42 34.01L12.11 34.76L11.35 36.56L10.85 36.44L10.16 36.27L10.12 36.26L9.85998 36.2L9.31998 34.85L8.77998 33.49L8.61998 33.11L8.53998 32.88Z" fill="#616161"/>
</g>
<path d="M9.87997 32.48L12.31 31.75V33.48L11.7 34.72L11.64 34.85L10.85 36.43L10.16 37.82C10.16 37.82 8.38997 35.6 8.33997 35.64C8.32997 35.64 8.27997 35.38 8.20997 34.98C8.12997 34.49 8.01997 33.78 7.90997 33.07L8.47997 32.91L8.53997 32.89L9.88997 32.49L9.87997 32.48Z" fill="#ABABAB"/>
<g style="mix-blend-mode:color-burn" opacity="0.2">
<path d="M25.54 33.34L25.59 30.27L29.77 30.98C29.77 30.98 29.77 31.15 29.75 31.32L28.55 35.63L28.31 36.21L27.21 36.48H27.16L27.08 36.51H27.04L25.55 33.35L25.54 33.34Z" fill="#616161"/>
</g>
<path d="M25.59 29.91L29.54 30.26L30.55 30.35C30.55 30.35 30.55 30.35 30.55 30.37C30.54 30.45 30.49 30.75 30.43 31.17C30.21 32.65 29.76 35.64 29.71 35.64C29.65 35.6 27.89 37.82 27.89 37.82V37.79L27.21 36.45L25.72 33.47L25.59 29.9V29.91Z" fill="#ABABAB"/>
<path opacity="0.2" d="M7.90002 33.07L8.47002 32.9L8.53002 32.88L8.82002 32.79L9.89002 32.47L9.32002 34.83L9.18002 35.41L10.15 37.82C10.05 37.69 8.42002 35.64 8.33002 35.64C8.32002 35.64 8.27002 35.38 8.20002 34.97C8.20002 34.93 8.19002 34.9 8.18002 34.86C8.15002 34.7 8.12002 34.53 8.09002 34.34C8.09002 34.26 8.07002 34.18 8.05002 34.1C8.05002 34.07 8.05002 34.05 8.04002 34.01C8.02002 33.87 8.00002 33.74 7.98002 33.59C7.98002 33.57 7.98002 33.55 7.98002 33.52C7.95002 33.37 7.93002 33.21 7.90002 33.05V33.07Z" fill="white"/>
<path opacity="0.2" d="M27.88 37.8L28.85 35.42L28.78 35.11L27.95 31.64L29.55 30.27L29.9 29.97C29.9 29.97 30.42 27.86 30.48 27.79C30.49 27.77 30.52 27.79 30.57 27.79V30.36C30.57 30.36 30.57 30.36 30.57 30.37L30.54 30.95L30.45 31.16C30.3 32.18 30.04 33.88 29.88 34.86C29.8 35.33 29.74 35.63 29.73 35.63C29.64 35.63 27.91 37.81 27.91 37.81H27.89V37.78L27.88 37.8Z" fill="white"/>
<path d="M15.88 49.09L17.23 49.94C17.78 50.55 19.07 51.39 19.07 51.39C19.07 51.39 20.53 50.44 21.08 49.85L22.29 49.09L23.12 47.66L22.79 44.28L22.36 44.03L22.29 47.14C22.29 47.14 22.21 48.22 21.28 48.22C20.35 48.22 19.08 47.57 19.08 47.57C19.08 47.57 17.8 48.22 16.88 48.22C15.96 48.22 15.87 47.14 15.87 47.14L15.8 44.03L15.37 44.28L15.04 47.66L15.87 49.09H15.88Z" fill="#333333"/>
<path d="M29.22 32.85C29.31 32.33 29.63 31.95 29.94 32C30.05 32.02 30.14 32.08 30.21 32.18L30.03 31.11L30.44 31.18C30.29 32.19 30.03 33.89 29.87 34.87C29.85 34.89 29.84 34.91 29.84 34.91C29.84 34.91 29.16 33.21 29.22 32.85Z" fill="#333333"/>
<path d="M7.90997 33.07L8.47997 32.9L8.53997 32.88L8.82998 32.79C8.82998 32.79 8.82997 32.82 8.83997 32.84C8.89997 33.2 8.21997 34.9 8.21997 34.9C8.21997 34.9 8.21997 34.88 8.18997 34.86C8.15997 34.7 8.12997 34.53 8.09997 34.34C8.09997 34.26 8.07997 34.18 8.05997 34.1C8.05997 34.07 8.05997 34.05 8.04997 34.01C8.02997 33.87 8.00997 33.74 7.98997 33.59C7.98997 33.57 7.98997 33.55 7.98997 33.52C7.96997 33.37 7.93997 33.21 7.91997 33.05L7.90997 33.07Z" fill="#333333"/>
<g style="mix-blend-mode:color-burn" opacity="0.2">
<path d="M21.95 36.06C22.15 36.43 24.56 37.35 24.56 37.35C24.56 37.35 25.53 34.93 25.37 34.56C25.1 33.93 24.36 33.65 23.75 33.94C23.55 34.04 23.38 34.19 23.27 34.37L23.6 32.91L21.88 33.59L22.99 34.5C22.79 34.48 22.58 34.5 22.39 34.59C21.85 34.85 21.66 35.51 21.95 36.05V36.06Z" fill="#616161"/>
</g>
<path d="M22.02 36.03C22.19 36.39 24.5 37.16 24.5 37.16C24.5 37.16 25.25 34.84 25.1 34.54C24.85 34.02 24.23 33.81 23.72 34.06C23.54 34.15 23.4 34.27 23.31 34.43L23.41 33.15L21.99 33.84L23.06 34.55C22.88 34.53 22.69 34.56 22.52 34.65C22 34.9 21.79 35.52 22.04 36.04L22.02 36.03Z" fill="#FFD675"/>
<g style="mix-blend-mode:color-burn" opacity="0.2">
<path d="M23.02 34.17L22.58 33.88L23.06 33.65L23.02 34.17ZM24.17 34.26C24.45 34.26 24.71 34.42 24.83 34.68C24.85 34.86 24.59 35.86 24.31 36.79C23.39 36.47 22.42 36.06 22.28 35.89C22.21 35.74 22.19 35.54 22.26 35.35C22.33 35.16 22.46 35.02 22.64 34.93C22.74 34.88 22.85 34.86 22.96 34.86C22.98 34.86 23.01 34.86 23.03 34.86L23.57 34.6C23.64 34.49 23.74 34.4 23.86 34.34C23.96 34.29 24.07 34.27 24.18 34.27L24.17 34.26Z" fill="#616161"/>
</g>
<g style="mix-blend-mode:color-burn" opacity="0.2">
<path d="M7.90002 33.07C7.91002 33.15 7.93002 33.22 7.94002 33.3C7.96002 33.44 7.98002 33.58 8.00002 33.71C8.02002 33.81 8.03002 33.92 8.05002 34.02C8.05002 34.05 8.06002 34.08 8.06002 34.11C8.08002 34.19 8.09002 34.27 8.10002 34.35C8.13002 34.54 8.16002 34.71 8.19002 34.87C8.19002 34.91 8.20002 34.94 8.21002 34.98C8.23002 35.08 8.24002 35.16 8.26002 35.24C8.28002 35.33 8.29002 35.4 8.30002 35.47C8.32002 35.58 8.34002 35.64 8.34002 35.64C8.42002 35.64 10.05 37.69 10.16 37.82L11.48 36.58L13.65 37.11L14.82 37.39L16.12 37.71L16.24 37.74L16.07 38.3L17.22 38.81C17.04 39.03 16.93 39.31 16.93 39.61C16.24 40.46 15.74 41.64 15.6 42.54C15.59 42.62 15.58 43.35 15.57 44.16L15.38 44.27L15.05 47.65L15.88 49.08L17.23 49.93C17.78 50.54 19.07 51.38 19.07 51.38C19.07 51.38 19.1 51.36 19.14 51.33V29.71L18.97 29.76L18.38 29.94L17.19 30.3L16.82 30.41L15.87 30.69L15.68 30.75L15.59 30.78L12.47 31.71L12.32 31.75L9.89002 32.48L8.82002 32.8L8.53002 32.89H8.50002L8.47002 32.91L7.90002 33.07Z" fill="#616161"/>
</g>
<path d="M8.65998 12.36C8.65998 11.86 6.47998 9.71997 6.47998 9.71997C6.47998 9.71997 4.34998 11.93 4.34998 12.36C4.34998 13.08 4.92998 13.67 5.64998 13.67C5.89998 13.67 6.12998 13.61 6.31998 13.48L5.49998 14.87H7.47998L6.66998 13.48C6.86998 13.6 7.08998 13.67 7.33998 13.67C8.05998 13.67 8.64998 13.09 8.64998 12.37L8.65998 12.36Z" fill="#333333"/>
<g style="mix-blend-mode:color-burn" opacity="0.2">
<path d="M8.65998 12.36C8.65998 11.86 6.47998 9.71997 6.47998 9.71997V14.87H7.49998L6.68998 13.48C6.88998 13.6 7.10998 13.67 7.35998 13.67C8.07998 13.67 8.66998 13.09 8.66998 12.37L8.65998 12.36Z" fill="#616161"/>
</g>
<path d="M32.83 44.28C32.83 44.78 35.01 46.92 35.01 46.92C35.01 46.92 37.14 44.71 37.14 44.29C37.14 43.57 36.56 42.98 35.84 42.98C35.59 42.98 35.36 43.05 35.17 43.17L35.99 41.78H34.01L34.82 43.17C34.63 43.05 34.4 42.98 34.15 42.98C33.43 42.98 32.84 43.56 32.84 44.28H32.83Z" fill="#333333"/>
<g style="mix-blend-mode:color-burn" opacity="0.2">
<path d="M32.83 44.28C32.83 44.78 35.01 46.92 35.01 46.92V41.77H33.99L34.8 43.16C34.61 43.04 34.38 42.97 34.13 42.97C33.41 42.97 32.82 43.55 32.82 44.27L32.83 44.28Z" fill="#616161"/>
</g>
</svg>
