<svg width="41" height="57" viewBox="0 0 41 57" fill="none" xmlns="http://www.w3.org/2000/svg">
<path d="M5.10997 56.09C2.75997 56.09 0.849966 54.22 0.839966 51.92L0.719971 4.75998C0.719971 2.43998 2.61997 0.549976 4.97997 0.559976L36.14 0.619981C38.49 0.619981 40.39 2.50998 40.39 4.82998V51.88C40.39 54.18 38.49 56.06 36.15 56.06L5.09998 56.1L5.10997 56.09Z" fill="#C9C9C9"/>
<path d="M5.33 56.26C3.01 56.26 1.13 54.38 1.13 52.07V5.02997C1.13 2.71997 3.01 0.839966 5.33 0.839966H36.04C38.36 0.839966 40.24 2.71997 40.24 5.02997V52.07C40.24 54.38 38.36 56.26 36.04 56.26H5.33Z" fill="white"/>
<path d="M36.21 55.09H5.5C3.71 55.09 2.25 53.64 2.25 51.85V4.81001C2.25 3.09001 3.61001 1.69001 4.35001 1.42001L4.46001 1.38H35.33C38.38 1.62 39.47 3.31001 39.47 4.81001V51.85C39.47 53.64 38.01 55.09 36.22 55.09H36.21ZM4.71001 2.67001C4.38001 2.88001 3.53 3.74001 3.53 4.81001V51.85C3.53 52.93 4.41 53.8 5.5 53.8H36.21C37.29 53.8 38.18 52.92 38.18 51.85V4.81001C38.18 3.62001 37.09 2.82001 35.25 2.67001H4.71001Z" fill="#333333"/>
<path d="M8.26996 6.38003C8.26996 6.59003 8.21995 6.82003 8.11995 7.08003C8.01995 7.34003 7.88995 7.54003 7.74995 7.69003C7.69995 7.75003 7.59996 7.83003 7.46996 7.94003C7.27996 8.10003 7.06995 8.24003 6.85995 8.37003C6.79995 8.41003 6.74995 8.43003 6.72995 8.45003C6.63995 8.51003 6.58995 8.55003 6.58995 8.58003C6.58995 8.63003 6.72996 8.71003 7.01996 8.83003C7.27996 8.93003 7.46996 9.00003 7.59996 9.03003C7.60996 9.03003 7.63995 9.03003 7.67995 9.03003H7.88995C7.88995 9.03003 7.95995 9.03003 7.99995 9.05003C7.96995 9.07003 7.92995 9.10003 7.85995 9.14003C7.78995 9.18003 7.71995 9.21003 7.63995 9.24003C7.53995 9.33003 7.45996 9.40003 7.40996 9.44003C7.35996 9.49003 7.30995 9.51003 7.27995 9.51003C7.18995 9.51003 7.02996 9.41003 6.81996 9.20003C6.59996 8.99003 6.39996 8.89003 6.20996 8.89003C6.08996 8.89003 5.96995 8.94003 5.85995 9.03003C5.73995 9.12003 5.66995 9.17003 5.64995 9.17003C5.59995 9.17003 5.57996 9.14003 5.57996 9.07003C5.57996 9.03003 5.64995 8.95003 5.78995 8.85003C5.87995 8.78003 5.96995 8.72003 6.05995 8.65003C5.83995 8.52003 5.61995 8.38003 5.41995 8.24003C5.21995 8.10003 5.02996 7.92003 4.87996 7.72003C4.73996 7.54003 4.63995 7.34003 4.55995 7.14003C4.48995 6.94003 4.44995 6.72003 4.44995 6.50003C4.44995 6.17003 4.50995 5.90003 4.63995 5.69003C4.68995 5.61003 4.83996 5.44003 5.09996 5.18003C5.17996 5.10003 5.38996 4.92003 5.71996 4.66003C6.12996 4.33003 6.36995 4.16003 6.44995 4.16003C6.51995 4.16003 6.65995 4.23003 6.85995 4.37003C7.09995 4.54003 7.37996 4.79003 7.70996 5.11003C7.90996 5.31003 8.05995 5.51003 8.14995 5.71003C8.23995 5.91003 8.28995 6.13003 8.28995 6.39003L8.26996 6.38003ZM7.23996 6.95003C7.23996 6.76003 7.19995 6.56003 7.11995 6.33003C7.03995 6.11003 6.92995 5.89003 6.78995 5.69003C6.67995 5.53003 6.47995 5.34003 6.17995 5.12003C6.07995 5.05003 5.93996 4.95003 5.76996 4.84003C5.69996 4.84003 5.60995 4.96003 5.50995 5.20003C5.40995 5.44003 5.34996 5.60003 5.34996 5.67003C5.34996 6.00003 5.41995 6.31003 5.55995 6.59003C5.67995 6.83003 5.85995 7.08003 6.10995 7.33003C6.20995 7.44003 6.45996 7.67003 6.84996 8.02003C6.97996 7.90003 7.07995 7.70003 7.14995 7.44003C7.19995 7.25003 7.22995 7.07003 7.22995 6.92003L7.23996 6.95003Z" fill="#333333"/>
<path d="M33.58 50.79C33.58 50.58 33.63 50.35 33.74 50.09C33.84 49.83 33.97 49.63 34.11 49.48C34.16 49.42 34.25 49.34 34.39 49.23C34.58 49.07 34.79 48.93 35 48.8C35.06 48.76 35.1 48.74 35.13 48.72C35.23 48.66 35.27 48.62 35.27 48.59C35.27 48.54 35.13 48.46 34.84 48.34C34.58 48.23 34.3899 48.17 34.2599 48.14C34.2399 48.14 34.2199 48.14 34.1799 48.14H33.97C33.97 48.14 33.9 48.14 33.86 48.12C33.88 48.1 33.93 48.07 34 48.03C34.07 48 34.14 47.96 34.22 47.93C34.32 47.84 34.4 47.77 34.45 47.73C34.5 47.68 34.55 47.66 34.58 47.66C34.67 47.66 34.8299 47.76 35.0399 47.97C35.2599 48.18 35.46 48.28 35.66 48.28C35.78 48.28 35.9 48.23 36.02 48.14C36.13 48.05 36.1999 48 36.2299 48C36.2799 48 36.3 48.03 36.3 48.1C36.3 48.14 36.23 48.22 36.09 48.33C36 48.4 35.91 48.46 35.82 48.53C36.04 48.66 36.26 48.8 36.46 48.94C36.67 49.08 36.8499 49.26 37.0099 49.46C37.1499 49.64 37.25 49.84 37.33 50.04C37.4 50.24 37.44 50.46 37.44 50.68C37.44 51.01 37.38 51.28 37.25 51.49C37.2 51.57 37.0499 51.74 36.7899 52C36.7099 52.08 36.4999 52.26 36.1799 52.52C35.7699 52.85 35.53 53.02 35.44 53.02C35.37 53.02 35.23 52.95 35.03 52.81C34.79 52.64 34.51 52.39 34.19 52.07C33.99 51.87 33.84 51.67 33.74 51.47C33.65 51.27 33.6 51.05 33.6 50.79H33.58ZM34.61 50.22C34.61 50.41 34.6499 50.61 34.7299 50.84C34.8099 51.06 34.92 51.28 35.06 51.48C35.17 51.64 35.37 51.83 35.67 52.05C35.76 52.12 35.9 52.22 36.08 52.33C36.15 52.33 36.24 52.21 36.34 51.97C36.45 51.73 36.5 51.57 36.5 51.5C36.5 51.17 36.4299 50.86 36.2899 50.58C36.1699 50.34 35.99 50.09 35.74 49.84C35.64 49.73 35.39 49.5 35 49.15C34.87 49.28 34.76 49.47 34.69 49.73C34.64 49.92 34.61 50.1 34.61 50.25V50.22Z" fill="#333333"/>
<path d="M26.83 16.27L26.77 17.11L26.73 17.62L26.57 19.8L26.54 20.32L26.49 21.01V21.02L26.44 21.66L25.94 21.67L25.71 21.68L25.22 21.69H24.94L24.6 21.7L24 21.71L23.34 21.73L20.23 21.79L17.12 21.73L16.45 21.71L15.86 21.7L15.52 21.69H15.24L15 21.68H14.76L14.52 21.67L14.02 21.66L13.97 21.02V21.01L13.92 20.32L13.89 19.8L13.73 17.62L13.69 17.11L13.63 16.27H26.83Z" fill="#C9C9C9"/>
<g style="mix-blend-mode:color-burn" opacity="0.2">
<path d="M26.28 17.83C25.69 18.46 23.94 19.08 22.4 19.08H22.3801C22.0501 19.51 21.65 19.83 21.22 20.02C20.95 20.14 20.66 20.2 20.36 20.2C20.34 20.2 20.32 20.2 20.3 20.2V16.28L26.2701 17.84L26.28 17.83Z" fill="#616161"/>
</g>
<path d="M28.94 24.8801L26.44 25.6301L26.21 25.7001L26.14 25.7201C25.94 25.3901 25.78 25.1501 25.72 25.0401C25.69 25.0101 25.68 24.9801 25.67 24.9801C25.67 24.9801 25.67 24.9901 25.66 25.0001C25.45 25.3501 25.3299 25.6801 25.2599 25.9801L24.59 26.1801L20.25 27.4801L17.5399 28.2901L16.64 28.5601C16.61 28.4501 16.57 28.3401 16.52 28.2201C14.96 27.5501 15.6699 26.4801 14.8999 25.1301C14.8699 25.0801 14.84 25.0401 14.81 24.9901C14.72 25.1001 12.9499 27.8001 12.6499 29.7501L12.4299 29.8101L10.67 30.34H10.63C10.6 26.49 11.77 23.9201 12.86 22.3601C12.94 22.2501 13.01 22.1501 13.09 22.0601C13.16 21.9701 13.23 21.8701 13.3 21.7901V21.7701C13.36 21.7101 13.41 21.65 13.46 21.59C13.48 21.56 13.5 21.5301 13.53 21.5101C13.55 21.4701 13.59 21.4401 13.61 21.4101C13.74 21.2601 13.87 21.1301 13.98 21.0201C13.98 21.0201 14.04 20.9601 14.06 20.9301C14.09 20.9101 14.11 20.8801 14.14 20.8601C14.17 20.8401 14.19 20.8201 14.22 20.7901C14.27 20.7501 14.31 20.7101 14.35 20.6801C14.52 20.5301 14.63 20.4601 14.63 20.4601L15.0399 20.5501L15.11 20.5701L15.27 20.6201H15.31L15.8699 20.6001L16.74 20.5701L17.67 20.5301L20.22 20.4301L22.82 20.5401L23.7 20.5701L24.58 20.6001L25.14 20.6201H25.19L25.35 20.5701L25.42 20.5501L25.82 20.4601C25.82 20.4601 25.93 20.5301 26.1 20.6801C26.14 20.7101 26.1799 20.7501 26.2299 20.7901C26.2499 20.8201 26.28 20.8401 26.3 20.8601C26.33 20.8801 26.35 20.9101 26.38 20.9301L26.47 21.0201C26.47 21.0201 26.52 21.0701 26.55 21.1101C26.58 21.1401 26.62 21.1701 26.64 21.2001C26.7 21.2601 26.77 21.3301 26.83 21.4101C26.87 21.4401 26.9 21.4801 26.94 21.5301C26.94 21.5301 26.95 21.5501 26.96 21.5501C26.96 21.5601 26.9699 21.57 26.9799 21.59C27.0399 21.65 27.09 21.7101 27.14 21.7701C27.14 21.7701 27.14 21.7701 27.14 21.7801C27.21 21.8601 27.28 21.9601 27.35 22.0501C27.42 22.1401 27.5 22.2501 27.57 22.3501C28.02 23.0101 28.5 23.8501 28.89 24.8701L28.94 24.8801Z" fill="#FDD8AB"/>
<g style="mix-blend-mode:color-burn" opacity="0.2">
<path d="M20.23 23.24H20.8L20.54 25.3C20.43 25.3 20.33 25.3 20.22 25.31V23.24H20.23Z" fill="#616161"/>
</g>
<g style="mix-blend-mode:color-burn" opacity="0.2">
<path d="M20.23 16.27L13.9 17.2C14.89 18.59 16.6 19.08 18.13 19.08H18.15C18.69 19.77 19.4 20.2 20.17 20.2C20.19 20.2 20.21 20.2 20.23 20.2V16.28V16.27Z" fill="#616161"/>
</g>
<g style="mix-blend-mode:color-burn" opacity="0.2">
<path d="M20.23 23.24H19.66L19.92 25.3C20.03 25.3 20.13 25.3 20.24 25.31V23.24H20.23Z" fill="#616161"/>
</g>
<g style="mix-blend-mode:color-burn" opacity="0.2">
<path d="M18.15 24.9801C15.25 24.3401 13.67 23.3601 12.85 22.3601C13.45 21.5001 14.03 20.9501 14.35 20.6801L18.15 24.9801Z" fill="#616161"/>
</g>
<path d="M20.2301 19.34C20.2301 19.34 20.1901 19.34 20.1701 19.34C19.8801 19.34 19.6101 19.28 19.3401 19.17C19.3201 19.24 19.3101 19.31 19.3101 19.38V19.75C19.5801 19.87 19.8701 19.93 20.1701 19.93C20.1901 19.93 20.2101 19.93 20.2301 19.93V19.34Z" fill="#FDD8AB"/>
<path d="M20.23 18.5C20.23 18.5 20.21 18.5 20.2 18.5C19.78 18.5 19.44 18.79 19.34 19.17C19.6 19.28 19.88 19.34 20.17 19.34C20.19 19.34 20.21 19.34 20.23 19.34V18.5Z" fill="#FDD8AB"/>
<path d="M25.3299 20.35L23.7899 20.33L21.1499 20.3V19.76C20.8799 19.88 20.5899 19.94 20.2899 19.94C20.2699 19.94 20.2499 19.94 20.2299 19.94C20.2299 19.94 20.1899 19.94 20.1699 19.94C19.8699 19.94 19.5899 19.88 19.3099 19.76V20.3L16.6699 20.33L15.1299 20.35C14.8599 20.82 14.9799 20.87 14.9799 21.41C14.9799 22.75 15.91 23.94 17.32 24.65C17.32 24.65 17.3299 24.65 17.3399 24.65C17.5899 24.77 17.8599 24.89 18.1399 24.97C18.6899 25.15 19.2799 25.27 19.9099 25.3C19.9399 25.3 19.9799 25.3 20.0099 25.3C20.0799 25.3 20.1499 25.3 20.2199 25.3C20.2899 25.3 20.3599 25.3 20.4299 25.3C20.4599 25.3 20.4999 25.3 20.5299 25.3C21.1499 25.27 21.7499 25.15 22.2999 24.97C22.5799 24.88 22.8499 24.77 23.0999 24.65C23.0999 24.65 23.1099 24.65 23.1199 24.65C24.5299 23.95 25.46 22.76 25.46 21.41C25.46 20.87 25.5799 20.82 25.3099 20.35H25.3299Z" fill="#FDD8AB"/>
<g style="mix-blend-mode:color-burn" opacity="0.2">
<path d="M18.1499 24.98C17.8699 24.87 17.6 24.77 17.35 24.66C17.35 24.66 17.34 24.66 17.33 24.66C15.92 23.96 14.99 22.77 14.99 21.42C14.99 20.88 14.8699 20.83 15.1399 20.36L16.6799 20.34L18.1499 24.99V24.98Z" fill="#616161"/>
</g>
<g style="mix-blend-mode:color-burn" opacity="0.2">
<path d="M22.3101 24.98C22.5901 24.87 22.8601 24.77 23.1101 24.66C23.1101 24.66 23.1201 24.66 23.1301 24.66C24.5401 23.96 25.4701 22.77 25.4701 21.42C25.4701 20.88 25.5901 20.83 25.3201 20.36L23.7801 20.34L22.3101 24.99V24.98Z" fill="#616161"/>
</g>
<path d="M20.23 19.34C20.23 19.34 20.27 19.34 20.29 19.34C20.58 19.34 20.85 19.28 21.12 19.17C21.14 19.24 21.15 19.31 21.15 19.38V19.75C20.88 19.87 20.59 19.93 20.29 19.93C20.27 19.93 20.25 19.93 20.23 19.93V19.34Z" fill="#FDD8AB"/>
<path d="M20.23 18.5C20.23 18.5 20.25 18.5 20.26 18.5C20.68 18.5 21.02 18.79 21.12 19.17C20.86 19.28 20.58 19.34 20.29 19.34C20.27 19.34 20.25 19.34 20.23 19.34V18.5Z" fill="#FDD8AB"/>
<path d="M28.94 24.88L26.44 25.63L26.21 25.7L26.14 25.72C25.94 25.39 25.78 25.15 25.72 25.04C25.69 25.01 25.68 24.98 25.67 24.98C25.67 24.98 25.67 24.99 25.66 25C25.45 25.35 25.3299 25.68 25.2599 25.98L24.59 26.18L20.25 27.48L17.5399 28.29L16.64 28.56C16.61 28.45 16.57 28.34 16.52 28.22C14.96 27.55 15.6699 26.48 14.8999 25.13C14.8699 25.08 14.84 25.04 14.81 24.99C14.72 25.1 12.9499 27.8 12.6499 29.75L12.4299 29.81L10.67 30.34H10.63C10.6 26.49 11.77 23.92 12.86 22.36C12.94 22.25 13.01 22.15 13.09 22.06C13.16 21.97 13.23 21.87 13.3 21.79V21.77C13.36 21.71 13.41 21.65 13.46 21.59C13.46 21.58 13.48 21.57 13.48 21.56C13.5 21.54 13.51 21.53 13.53 21.51L15.5399 23.27L15.85 23.54L15.94 23.38C16.21 23.44 16.49 23.47 16.78 23.47C17.34 23.47 19.3299 22.85 19.7599 22.6H20.88C21.4 22.91 23.6 23.46 24.13 23.46C24.31 23.46 24.49 23.45 24.66 23.43L24.8699 23.77L25.32 23.29L26.97 21.53C26.97 21.53 26.98 21.55 26.99 21.55C26.99 21.56 26.9999 21.57 27.0099 21.59C27.0699 21.65 27.12 21.71 27.17 21.77C27.17 21.77 27.17 21.77 27.17 21.78C27.17 21.78 27.2499 21.88 27.2899 21.93C27.3199 21.97 27.35 22.01 27.38 22.05C27.45 22.14 27.53 22.25 27.6 22.35C28.05 23.01 28.53 23.85 28.92 24.87L28.94 24.88Z" fill="#333333"/>
<g style="mix-blend-mode:color-burn" opacity="0.2">
<path d="M27.6101 22.3601C26.7901 23.3601 25.2101 24.3401 22.3101 24.9801L23.8801 23.2001L23.9801 23.09L25.2101 21.6901L25.4701 21.4001L26.1101 20.6801C26.1101 20.6801 26.2001 20.7501 26.2401 20.8001C26.2601 20.8201 26.2901 20.8501 26.3101 20.8701C26.3401 20.8901 26.3701 20.9201 26.3901 20.9401C26.4201 20.9701 26.4401 20.9901 26.4701 21.0201C26.4701 21.0201 26.5201 21.0701 26.5501 21.1101C26.5801 21.1401 26.6101 21.1701 26.6401 21.2001C26.7001 21.2701 26.7701 21.3301 26.8401 21.4101C26.8801 21.4601 26.9201 21.5101 26.9701 21.5601C26.9701 21.5601 26.9901 21.58 27.0001 21.59C27.0501 21.65 27.1001 21.7101 27.1601 21.7801C27.2301 21.8701 27.3001 21.9601 27.3701 22.0501C27.4501 22.1501 27.5201 22.2501 27.5901 22.3601H27.6101Z" fill="#616161"/>
</g>
<path d="M27.9901 19.36C27.9901 19.54 27.9801 19.72 27.9501 19.91C27.8701 20.51 27.6401 21.14 27.1801 21.78C26.7401 22.39 26.1001 23 25.1801 23.59C25.1301 23.63 25.0701 23.66 25.0101 23.7C24.4801 24.03 23.8501 24.35 23.1301 24.66C23.1201 24.66 23.1001 24.67 23.0901 24.68C23.0801 24.68 23.0701 24.69 23.0601 24.69C23.0201 24.71 22.9701 24.73 22.9301 24.74C22.8001 24.79 22.6701 24.85 22.5301 24.9C22.4601 24.93 22.3901 24.95 22.3201 24.98L24.0101 21.71L24.5901 20.6L24.7201 20.35L26.8301 16.27C26.8301 16.27 27.9901 17.6 27.9901 19.36Z" fill="#EBEBEB"/>
<path d="M18.15 24.98C17.07 24.57 16.18 24.14 15.45 23.69C15.39 23.65 15.33 23.62 15.28 23.58C13.4 22.37 12.68 21.07 12.51 19.91C12.48 19.72 12.47 19.54 12.47 19.36C12.47 17.6 13.63 16.27 13.63 16.27L18.14 24.98H18.15Z" fill="#EBEBEB"/>
<path d="M14.35 21.45L14.9 22.17L14.65 21.3L14.35 21.45Z" fill="#333333"/>
<path d="M16.23 23.2101L16.78 23.9301L16.53 23.0601L16.23 23.2101Z" fill="#333333"/>
<path d="M13.36 17.13L13.9 17.85L13.66 16.98L13.36 17.13Z" fill="#333333"/>
<path d="M14.08 18.65L14.6199 19.37L14.38 18.5L14.08 18.65Z" fill="#333333"/>
<path d="M14.8 20.17L15.34 20.89L15.1001 20.02L14.8 20.17Z" fill="#333333"/>
<path d="M15.52 21.69L16.06 22.41L15.81 21.54L15.52 21.69Z" fill="#333333"/>
<path d="M15.45 23.69C15.39 23.65 15.33 23.62 15.28 23.58L14.96 23.16L15.2599 23.01L15.45 23.69Z" fill="#333333"/>
<path d="M12.91 18.41L13.46 19.13L13.21 18.26L12.91 18.41Z" fill="#333333"/>
<path d="M13.63 19.93L14.18 20.65L13.93 19.78L13.63 19.93Z" fill="#333333"/>
<path d="M12.74 20.22L12.51 19.91C12.48 19.72 12.47 19.54 12.47 19.36H12.5L12.75 20.22H12.74Z" fill="#333333"/>
<path d="M13.23 21.29L13.78 22.02L13.53 21.15L13.23 21.29Z" fill="#333333"/>
<path d="M26.1101 21.45L25.5701 22.17L25.8101 21.3L26.1101 21.45Z" fill="#333333"/>
<path d="M24.2299 23.2101L23.6799 23.9301L23.9299 23.0601L24.2299 23.2101Z" fill="#333333"/>
<path d="M27.1001 17.13L26.5601 17.85L26.8001 16.98L27.1001 17.13Z" fill="#333333"/>
<path d="M26.38 18.65L25.84 19.37L26.08 18.5L26.38 18.65Z" fill="#333333"/>
<path d="M25.66 20.17L25.12 20.89L25.37 20.02L25.66 20.17Z" fill="#333333"/>
<path d="M24.94 21.69L24.4 22.41L24.65 21.54L24.94 21.69Z" fill="#333333"/>
<path d="M24.9399 23.35C24.9999 23.31 25.4399 22.92 25.4399 22.92L25.1399 22.77L24.9399 23.35Z" fill="#333333"/>
<path d="M27.55 18.41L27 19.13L27.25 18.26L27.55 18.41Z" fill="#333333"/>
<path d="M26.83 19.93L26.28 20.65L26.53 19.78L26.83 19.93Z" fill="#333333"/>
<path d="M27.99 19.36C27.99 19.54 27.98 19.72 27.95 19.91L27.72 20.22L27.97 19.35H28L27.99 19.36Z" fill="#333333"/>
<path d="M27.2299 21.29L26.6799 22.02L26.9299 21.15L27.2299 21.29Z" fill="#333333"/>
<path d="M19.63 17.3199L19.25 17.9499C18.47 17.9499 17.78 17.9499 17.38 17.9499C18.21 17.9499 18.98 17.7299 19.64 17.3299L19.63 17.3199Z" fill="#333333"/>
<path d="M22.9601 17.96C22.5501 17.96 21.9201 17.96 21.2101 17.96L20.8101 17.33C21.4301 17.71 22.1701 17.94 22.9601 17.96Z" fill="#333333"/>
<path d="M28.17 14.47C28.17 16.7 26.37 18.51 24.14 18.5C23.6 18.5 21.41 17.95 20.89 17.64H19.77C19.34 17.89 17.36 18.51 16.79 18.51C14.69 18.51 12.98 16.8 12.97 14.7C12.97 12.7 14.52 11.05 16.48 10.9C16.32 10.48 16.24 10.02 16.24 9.54002C16.24 9.35002 16.25 9.16003 16.28 8.98003C16.3 8.76003 16.36 8.54002 16.42 8.34002C16.94 6.71002 18.46 5.53002 20.27 5.52002C22.03 5.52002 23.53 6.65002 24.08 8.22002C24.16 8.44002 24.21 8.65002 24.25 8.88002C24.29 9.10002 24.31 9.32002 24.31 9.54002C24.31 9.85002 24.27 10.15 24.21 10.44C26.41 10.48 28.18 12.26 28.18 14.47H28.17Z" fill="#333333"/>
<g style="mix-blend-mode:color-burn" opacity="0.2">
<path d="M17.53 28.28L16.62 28.55C16.59 28.44 16.55 28.33 16.5 28.21C14.88 27.52 15.7 26.39 14.8 24.98C14.7 25.09 12.94 27.79 12.63 29.74L12.41 29.81C11.94 27.77 15.02 24.36 15.02 24.36C15.02 24.36 16.4 27.76 17.51 28.28H17.53Z" fill="#616161"/>
</g>
<g style="mix-blend-mode:color-burn" opacity="0.2">
<path d="M26.4299 25.62L26.2 25.69L26.13 25.71C25.93 25.38 25.78 25.14 25.71 25.03C25.69 25 25.67 24.98 25.67 24.97C25.45 25.33 25.33 25.66 25.25 25.97L24.58 26.17C25.08 25.23 25.44 24.35 25.44 24.35C25.44 24.35 25.9 24.87 26.44 25.61L26.4299 25.62Z" fill="#616161"/>
</g>
<g style="mix-blend-mode:color-burn" opacity="0.2">
<path d="M21.96 19.15L21.15 19.76C20.88 19.88 20.59 19.94 20.3 19.94C20.28 19.94 20.26 19.94 20.24 19.94C20.22 19.94 20.2 19.94 20.18 19.94C19.88 19.94 19.6 19.87 19.32 19.76L18.52 19.16L18.77 18.74C19.27 18.99 19.98 19.35 20.18 19.35C20.2 19.35 20.22 19.35 20.24 19.35C20.24 19.35 20.28 19.35 20.3 19.35C20.48 19.35 21.12 18.93 21.62 18.6L21.96 19.15Z" fill="#616161"/>
</g>
<path d="M21.3 10.3199C20.83 10.3699 20.43 10.6599 20.22 11.0699C20.02 10.6599 19.62 10.3699 19.15 10.3199C17.98 10.9899 17.15 12.6899 17.15 14.6799C17.15 16.0899 17.57 17.3599 18.23 18.2099C18.23 18.2099 18.23 18.2199 18.24 18.2299C18.58 18.6699 18.99 18.9899 19.43 19.1799C19.68 19.2799 19.95 19.3399 20.22 19.3499C20.5 19.3499 20.76 19.2899 21.01 19.1799C21.45 18.9999 21.86 18.6699 22.2 18.2399C22.2 18.2399 22.2 18.2299 22.21 18.2199C22.87 17.3699 23.29 16.0999 23.29 14.6899C23.29 12.6999 22.46 10.9999 21.29 10.3299L21.3 10.3199Z" fill="#FDD8AB"/>
<path d="M22.39 9.98997C22.39 9.48997 20.21 7.34998 20.21 7.34998C20.21 7.34998 18.09 9.55998 18.09 9.97998C18.09 10.7 18.67 11.28 19.39 11.28C19.64 11.28 19.87 11.21 20.06 11.1H20.41C20.6 11.22 20.83 11.29 21.08 11.29C21.8 11.29 22.39 10.71 22.39 9.98997Z" fill="#333333"/>
<path d="M17.93 14.41C17.93 14.41 17.91 14.48 17.91 14.52C17.91 14.76 18.21 14.95 18.57 14.95C18.93 14.95 19.23 14.76 19.23 14.52C19.23 14.48 19.22 14.45 19.21 14.41H17.94H17.93Z" fill="#333333"/>
<path d="M22.53 14.41C22.53 14.41 22.55 14.48 22.55 14.52C22.55 14.76 22.25 14.95 21.89 14.95C21.53 14.95 21.23 14.76 21.23 14.52C21.23 14.48 21.23 14.45 21.25 14.41H22.52H22.53Z" fill="#333333"/>
<path d="M21.09 17.64H19.38C19.55 17.87 19.87 18.02 20.23 18.03C20.6 18.03 20.91 17.87 21.08 17.64H21.09Z" fill="#454545"/>
<path d="M20.23 17.59C19.84 17.13 19.29 17.71 19.29 17.71H21.18C21.18 17.71 20.6301 17.13 20.2401 17.59H20.23Z" fill="#333333"/>
<g style="mix-blend-mode:color-burn" opacity="0.2">
<path d="M20.23 15.14V15.12V15.13V15.12V15.14L19.74 16.71H20.23H20.72L20.23 15.14Z" fill="#616161"/>
</g>
<path d="M21.17 13.47L22.48 13.54H22.4901L22.5 13.55L23.0201 14.12L22.45 13.61L22.48 13.62L21.17 13.68V13.47Z" fill="#333333"/>
<path d="M19.4 13.68L18.1001 13.62L18.1301 13.61L17.55 14.12L18.0701 13.55L18.08 13.54H18.1001L19.4 13.47V13.68Z" fill="#333333"/>
<g style="mix-blend-mode:color-burn" opacity="0.2">
<path d="M21.24 5.89005C21.25 5.81005 21.26 5.74005 21.26 5.66005C21.24 5.11005 20.77 4.67004 20.21 4.67004C19.64 4.67004 19.15 5.11005 19.12 5.68005C19.12 5.81005 19.13 5.93005 19.17 6.04005C18.62 6.09005 18.14 6.55004 18.09 7.13004C18.04 7.77004 18.52 8.28005 19.16 8.26005C19.33 8.26005 19.92 8.03004 20.05 7.95004L19.24 9.42004L21.15 9.31004L20.37 7.93005C20.52 8.02005 21.15 8.16005 21.31 8.16005C21.94 8.13005 22.4 7.58005 22.35 6.94005C22.31 6.34005 21.82 5.88004 21.25 5.88004L21.24 5.89005Z" fill="#616161"/>
</g>
<path d="M21.16 5.92003C21.17 5.85003 21.19 5.77003 21.18 5.69003C21.18 5.13003 20.73 4.66003 20.16 4.66003C19.59 4.66003 19.1301 5.11003 19.1301 5.68003C19.1301 5.80003 19.15 5.92003 19.19 6.03003C18.69 6.07003 18.3 6.48003 18.29 6.99003C18.29 7.53003 18.72 7.96003 19.25 7.96003C19.39 7.96003 19.9 7.81003 20.01 7.74003L19.3501 8.86003H20.95L20.3 7.74003C20.43 7.82003 20.9901 7.96003 21.1301 7.96003C21.7001 7.96003 22.16 7.50003 22.16 6.94003C22.16 6.38003 21.71 5.92003 21.16 5.91003V5.92003Z" fill="#FFD675"/>
<g style="mix-blend-mode:color-burn" opacity="0.2">
<path d="M20.16 7.93001L20.58 8.66001H19.73L20.16 7.93001ZM19.26 7.75001C18.84 7.75001 18.51 7.41001 18.51 6.99001C18.51 6.60001 18.82 6.27001 19.21 6.24001L19.49 6.22001L19.4 5.96001C19.37 5.87001 19.35 5.78001 19.35 5.69001C19.35 5.24001 19.72 4.88 20.16 4.88C20.38 4.88 20.58 4.97001 20.73 5.12001C20.88 5.27001 20.96 5.48001 20.96 5.69001C20.96 5.75001 20.96 5.80001 20.94 5.87001L20.88 6.12001H21.14C21.58 6.13001 21.94 6.50001 21.93 6.94001C21.93 7.16001 21.85 7.36001 21.69 7.51001C21.54 7.66001 21.33 7.75001 21.12 7.74001C21.02 7.74001 20.5 7.61001 20.41 7.55001L20.31 7.65001L19.9 7.55001C19.81 7.60001 19.35 7.74001 19.25 7.74001L19.26 7.75001Z" fill="#616161"/>
</g>
<g style="mix-blend-mode:color-burn" opacity="0.2">
<path d="M21.13 10.3499C21.19 10.3299 21.25 10.3299 21.3 10.3199C21.24 10.3199 21.18 10.3299 21.13 10.3499Z" fill="#616161"/>
</g>
<g style="mix-blend-mode:color-burn" opacity="0.2">
<path d="M20.67 10.56C20.67 10.56 20.69 10.56 20.69 10.55C20.69 10.55 20.67 10.55 20.67 10.56Z" fill="#616161"/>
</g>
<g style="mix-blend-mode:color-burn" opacity="0.2">
<path d="M20.8101 10.47C20.8101 10.47 20.8301 10.47 20.8401 10.45C20.8301 10.45 20.8201 10.45 20.8101 10.47Z" fill="#616161"/>
</g>
<g style="mix-blend-mode:color-burn" opacity="0.2">
<path d="M20.97 10.4C20.97 10.4 21.01 10.39 21.03 10.38C21.01 10.38 20.99 10.39 20.97 10.4Z" fill="#616161"/>
</g>
<g style="mix-blend-mode:color-burn" opacity="0.2">
<path d="M27.6199 22.35C27.5399 22.24 27.4699 22.14 27.3999 22.05C27.3599 22 27.3199 21.95 27.2799 21.9C27.2499 21.86 27.2199 21.82 27.1899 21.78C27.6499 21.14 27.8799 20.5 27.9599 19.91C27.9899 19.72 27.9999 19.54 27.9999 19.36C27.9999 18.37 27.6299 17.52 27.3099 16.96C27.8499 16.27 28.1699 15.41 28.1699 14.47C28.1699 12.27 26.3999 10.48 24.1999 10.44C24.2599 10.15 24.3099 9.85005 24.2999 9.54005C24.2999 9.32005 24.2799 9.09004 24.2399 8.88004C24.2099 8.65004 24.1499 8.44005 24.0699 8.22005C23.6299 6.95005 22.5599 5.97005 21.2499 5.64005C21.2199 5.09005 20.7599 4.67004 20.1999 4.67004C20.1999 4.67004 20.1899 4.67004 20.1799 4.67004V27.49L20.2299 27.47L24.5699 26.17L25.2399 25.97C25.3099 25.69 25.4099 25.4 25.5899 25.09C25.6099 25.05 25.6299 25.02 25.6499 24.99C25.6499 24.99 25.6699 25.01 25.6899 25.05C25.7599 25.16 25.9199 25.4 26.1099 25.73H26.1499L26.1799 25.71L26.4099 25.64L28.9099 24.89C28.5199 23.86 28.0499 23.03 27.5899 22.37L27.6199 22.35Z" fill="#616161"/>
</g>
<path d="M12.73 41.01L12.79 40.18L12.83 39.66L12.98 37.48L13.02 36.97L13.07 36.27L13.12 35.62L13.62 35.61H13.85L14.34 35.59H14.62L14.96 35.58L15.55 35.57L16.21 35.56L19.32 35.49H19.33L22.44 35.56L23.1 35.57L23.7 35.58L24.04 35.59H24.32L24.56 35.6L24.8 35.61H25.04L25.54 35.62L25.58 36.27L25.63 36.97L25.67 37.48L25.83 39.66L25.87 40.18L25.92 41.01H12.73Z" fill="#C9C9C9"/>
<g style="mix-blend-mode:color-burn" opacity="0.2">
<path d="M13.27 39.45C13.87 38.82 15.62 38.2 17.15 38.2H17.17C17.5 37.77 17.9 37.45 18.33 37.26C18.6 37.14 18.89 37.08 19.19 37.08C19.21 37.08 19.23 37.08 19.25 37.08V41L13.27 39.44V39.45Z" fill="#616161"/>
</g>
<path d="M10.62 32.41L13.12 31.66L13.36 31.59L13.43 31.57C13.63 31.89 13.78 32.14 13.86 32.25C13.88 32.28 13.9 32.31 13.9 32.31C13.9 32.31 13.91 32.3 13.91 32.29C14.12 31.94 14.24 31.61 14.31 31.31L14.98 31.11L19.32 29.81L22.03 29L22.93 28.73C22.96 28.84 23 28.95 23.05 29.07C24.61 29.74 23.9 30.81 24.67 32.16C24.69 32.21 24.73 32.26 24.75 32.3C24.85 32.19 26.61 29.49 26.91 27.54L27.13 27.48L28.89 26.95H28.93C28.96 30.8 27.79 33.37 26.71 34.93C26.63 35.04 26.56 35.14 26.48 35.23C26.41 35.32 26.34 35.42 26.27 35.5V35.52C26.21 35.58 26.16 35.64 26.11 35.7C26.09 35.73 26.07 35.76 26.04 35.78C26.01 35.81 25.98 35.85 25.95 35.88C25.82 36.03 25.69 36.16 25.58 36.27C25.58 36.27 25.52 36.33 25.49 36.35C25.46 36.37 25.44 36.4 25.41 36.42C25.38 36.44 25.36 36.46 25.33 36.49C25.28 36.53 25.24 36.57 25.2 36.6C25.03 36.75 24.92 36.82 24.92 36.82L24.51 36.73L24.44 36.71L24.28 36.66H24.24L23.68 36.68L22.8 36.71L21.87 36.75L19.32 36.85L16.72 36.74L15.84 36.71L14.97 36.68L14.4 36.66H14.35L14.19 36.71L14.12 36.73L13.72 36.82C13.72 36.82 13.61 36.75 13.44 36.6C13.4 36.57 13.35 36.53 13.3 36.49C13.28 36.46 13.25 36.44 13.23 36.42C13.2 36.4 13.18 36.37 13.15 36.35L13.06 36.27C13.06 36.27 13.01 36.22 12.98 36.18C12.95 36.15 12.92 36.12 12.89 36.09C12.83 36.03 12.76 35.96 12.7 35.88C12.66 35.85 12.63 35.81 12.59 35.76C12.59 35.76 12.58 35.74 12.57 35.73C12.57 35.72 12.56 35.71 12.55 35.7C12.49 35.64 12.44 35.57 12.39 35.52C12.39 35.52 12.39 35.52 12.39 35.51C12.32 35.43 12.25 35.33 12.18 35.24C12.11 35.15 12.03 35.04 11.96 34.94C11.51 34.28 11.03 33.44 10.64 32.42L10.62 32.41Z" fill="#FDD8AB"/>
<g style="mix-blend-mode:color-burn" opacity="0.2">
<path d="M19.33 34.04H18.76L19.02 31.98C19.12 31.98 19.23 31.98 19.34 31.97V34.04H19.33Z" fill="#616161"/>
</g>
<g style="mix-blend-mode:color-burn" opacity="0.2">
<path d="M19.33 41.01L25.66 40.08C24.67 38.69 22.9599 38.2 21.4299 38.2H21.41C20.86 37.51 20.16 37.08 19.39 37.08C19.37 37.08 19.35 37.08 19.33 37.08V41V41.01Z" fill="#616161"/>
</g>
<g style="mix-blend-mode:color-burn" opacity="0.2">
<path d="M19.3301 34.04H19.9001L19.6401 31.98C19.5301 31.98 19.4301 31.98 19.3201 31.97V34.04H19.3301Z" fill="#616161"/>
</g>
<g style="mix-blend-mode:color-burn" opacity="0.2">
<path d="M21.41 32.3C24.31 32.94 25.89 33.92 26.71 34.92C26.11 35.78 25.54 36.33 25.21 36.6L21.41 32.29V32.3Z" fill="#616161"/>
</g>
<path d="M19.33 37.94C19.33 37.94 19.37 37.94 19.39 37.94C19.68 37.94 19.95 38 20.22 38.11C20.24 38.04 20.25 37.97 20.25 37.9V37.53C19.98 37.41 19.6899 37.35 19.3999 37.35C19.3799 37.35 19.36 37.35 19.34 37.35V37.95L19.33 37.94Z" fill="#FDD8AB"/>
<path d="M19.33 38.7801C19.33 38.7801 19.35 38.7801 19.36 38.7801C19.78 38.7801 20.12 38.4901 20.22 38.1001C19.96 37.9901 19.68 37.9301 19.39 37.9301C19.37 37.9301 19.35 37.9301 19.33 37.9301V38.7701V38.7801Z" fill="#FDD8AB"/>
<path d="M14.23 36.93L15.7701 36.95L18.4101 36.98V37.52C18.6801 37.4 18.9701 37.34 19.2701 37.34C19.2901 37.34 19.3101 37.34 19.3301 37.34C19.3301 37.34 19.37 37.34 19.39 37.34C19.69 37.34 19.9701 37.4 20.2401 37.52V36.98L22.8801 36.95L24.42 36.93C24.69 36.46 24.5701 36.41 24.5701 35.87C24.5701 34.52 23.64 33.34 22.23 32.63C22.23 32.63 22.2201 32.63 22.2101 32.63C21.9601 32.51 21.6901 32.4 21.4101 32.31C20.8601 32.13 20.27 32.02 19.64 31.98C19.61 31.98 19.57 31.98 19.54 31.98C19.47 31.98 19.4001 31.98 19.3301 31.98C19.2601 31.98 19.19 31.98 19.12 31.98C19.09 31.98 19.0501 31.98 19.0201 31.98C18.4001 32.01 17.8001 32.13 17.2501 32.31C16.9701 32.4 16.7 32.51 16.45 32.63C16.45 32.63 16.45 32.63 16.43 32.63C15.02 33.33 14.09 34.52 14.09 35.87C14.09 36.41 13.9701 36.46 14.2401 36.93H14.23Z" fill="#FDD8AB"/>
<g style="mix-blend-mode:color-burn" opacity="0.2">
<path d="M21.41 32.3C21.69 32.41 21.96 32.51 22.21 32.62C22.21 32.62 22.22 32.62 22.23 32.62C23.64 33.32 24.57 34.51 24.57 35.86C24.57 36.4 24.69 36.45 24.42 36.92L22.88 36.94L21.41 32.29V32.3Z" fill="#616161"/>
</g>
<g style="mix-blend-mode:color-burn" opacity="0.2">
<path d="M17.24 32.3C16.96 32.41 16.69 32.51 16.44 32.62C16.44 32.62 16.44 32.62 16.42 32.62C15.01 33.32 14.08 34.51 14.08 35.86C14.08 36.4 13.96 36.45 14.23 36.92L15.77 36.94L17.24 32.29V32.3Z" fill="#616161"/>
</g>
<path d="M19.33 37.94C19.33 37.94 19.29 37.94 19.27 37.94C18.98 37.94 18.71 38 18.44 38.11C18.42 38.04 18.41 37.97 18.41 37.9V37.53C18.68 37.41 18.97 37.35 19.27 37.35C19.29 37.35 19.31 37.35 19.33 37.35V37.95V37.94Z" fill="#FDD8AB"/>
<path d="M19.3299 38.7801C19.3299 38.7801 19.3099 38.7801 19.2999 38.7801C18.8799 38.7801 18.5399 38.4901 18.4399 38.1001C18.6999 37.9901 18.9799 37.9301 19.2699 37.9301C19.2899 37.9301 19.3099 37.9301 19.3299 37.9301V38.7701V38.7801Z" fill="#FDD8AB"/>
<path d="M10.62 32.41L13.12 31.66L13.36 31.59L13.43 31.57C13.63 31.89 13.78 32.14 13.86 32.25C13.88 32.28 13.9 32.31 13.9 32.31C13.9 32.31 13.91 32.3 13.91 32.29C14.12 31.94 14.24 31.61 14.31 31.31L14.98 31.11L19.32 29.81L22.03 29L22.93 28.73C22.96 28.84 23 28.95 23.05 29.07C24.61 29.74 23.9 30.81 24.67 32.16C24.69 32.21 24.73 32.26 24.75 32.3C24.85 32.19 26.61 29.49 26.91 27.54L27.13 27.48L28.89 26.95H28.93C28.96 30.8 27.79 33.37 26.71 34.93C26.63 35.04 26.56 35.14 26.48 35.23C26.41 35.32 26.34 35.42 26.27 35.5V35.52C26.21 35.58 26.16 35.64 26.11 35.7C26.1 35.71 26.09 35.72 26.09 35.73C26.07 35.75 26.06 35.76 26.05 35.78L24.04 34.02L23.73 33.75L23.64 33.91C23.37 33.85 23.09 33.82 22.8 33.82C22.24 33.82 20.25 34.44 19.82 34.69H18.7C18.18 34.38 15.98 33.83 15.45 33.83C15.27 33.83 15.09 33.84 14.92 33.86L14.71 33.52L14.26 34L12.62 35.76C12.62 35.76 12.61 35.74 12.6 35.73C12.6 35.72 12.59 35.71 12.58 35.7C12.52 35.64 12.47 35.57 12.42 35.52C12.42 35.52 12.42 35.52 12.42 35.51C12.42 35.51 12.34 35.41 12.3 35.36C12.27 35.32 12.24 35.28 12.2 35.24C12.13 35.15 12.05 35.04 11.98 34.94C11.53 34.28 11.05 33.44 10.66 32.42L10.62 32.41Z" fill="#333333"/>
<g style="mix-blend-mode:color-burn" opacity="0.2">
<path d="M11.9399 34.9301C12.7599 33.9301 14.3399 32.9501 17.2399 32.3101L15.6699 34.1001L15.5799 34.2101L14.3499 35.6101L14.0899 35.9101L13.4499 36.6301C13.4499 36.6301 13.3599 36.5601 13.3199 36.5101C13.2999 36.4901 13.2699 36.4601 13.2499 36.4401C13.2199 36.4201 13.1999 36.3901 13.1699 36.3701C13.1399 36.3401 13.1199 36.3201 13.0899 36.2901C13.0899 36.2901 13.0399 36.2401 13.0099 36.2001C12.9799 36.1701 12.9499 36.1401 12.9199 36.1101C12.8599 36.0401 12.7899 35.9801 12.7199 35.9001C12.6799 35.8501 12.6299 35.8101 12.5899 35.7501C12.5899 35.7501 12.5699 35.7301 12.5599 35.7201C12.5099 35.6601 12.4599 35.6001 12.3999 35.5301C12.3299 35.4401 12.2599 35.3501 12.1899 35.2601C12.1099 35.1601 12.0399 35.0601 11.9699 34.9501L11.9399 34.9301Z" fill="#616161"/>
</g>
<path d="M11.5701 37.92C11.5701 37.74 11.5701 37.56 11.6101 37.37C11.6901 36.77 11.9201 36.14 12.3801 35.5C12.8201 34.89 13.4601 34.28 14.3801 33.69C14.4401 33.66 14.4901 33.62 14.5501 33.58C15.0801 33.25 15.7001 32.93 16.4301 32.62C16.4401 32.62 16.4601 32.6 16.4701 32.6C16.4801 32.6 16.5001 32.59 16.5101 32.59C16.5501 32.57 16.6001 32.55 16.6401 32.54C16.7701 32.49 16.9001 32.43 17.0401 32.38C17.1101 32.35 17.1801 32.33 17.2501 32.3L15.5601 35.57L14.9801 36.68L14.8501 36.94L12.7401 41.02C12.7401 41.02 11.5801 39.69 11.5801 37.93L11.5701 37.92Z" fill="#EBEBEB"/>
<path d="M21.41 32.3C22.49 32.71 23.38 33.14 24.11 33.59C24.17 33.63 24.23 33.66 24.28 33.7C26.16 34.91 26.88 36.21 27.05 37.37C27.08 37.56 27.09 37.74 27.09 37.92C27.09 39.68 25.93 41.01 25.93 41.01L21.42 32.3H21.41Z" fill="#EBEBEB"/>
<path d="M25.21 35.83L24.66 35.11L24.91 35.98L25.21 35.83Z" fill="#333333"/>
<path d="M23.32 34.08L22.78 33.35L23.03 34.23L23.32 34.08Z" fill="#333333"/>
<path d="M26.2 40.1601L25.65 39.4301L25.9 40.3001L26.2 40.1601Z" fill="#333333"/>
<path d="M25.4799 38.64L24.9399 37.91L25.1799 38.78L25.4799 38.64Z" fill="#333333"/>
<path d="M24.76 37.12L24.22 36.39L24.46 37.26L24.76 37.12Z" fill="#333333"/>
<path d="M24.04 35.6L23.5 34.87L23.74 35.74L24.04 35.6Z" fill="#333333"/>
<path d="M24.11 33.59C24.17 33.63 24.23 33.66 24.28 33.7L24.6 34.12L24.3 34.27L24.11 33.59Z" fill="#333333"/>
<path d="M26.64 38.87L26.1 38.15L26.35 39.02L26.64 38.87Z" fill="#333333"/>
<path d="M25.92 37.35L25.38 36.63L25.63 37.5L25.92 37.35Z" fill="#333333"/>
<path d="M26.81 37.0601L27.04 37.3701C27.07 37.5601 27.08 37.7401 27.08 37.9201H27.05L26.8 37.0601H26.81Z" fill="#333333"/>
<path d="M26.33 35.99L25.78 35.26L26.03 36.13L26.33 35.99Z" fill="#333333"/>
<path d="M13.45 35.83L13.99 35.11L13.75 35.98L13.45 35.83Z" fill="#333333"/>
<path d="M15.33 34.08L15.88 33.35L15.63 34.23L15.33 34.08Z" fill="#333333"/>
<path d="M12.46 40.1601L13 39.4301L12.7599 40.3001L12.46 40.1601Z" fill="#333333"/>
<path d="M13.1799 38.64L13.7199 37.91L13.4699 38.78L13.1799 38.64Z" fill="#333333"/>
<path d="M13.9 37.12L14.44 36.39L14.19 37.26L13.9 37.12Z" fill="#333333"/>
<path d="M14.62 35.6L15.16 34.87L14.91 35.74L14.62 35.6Z" fill="#333333"/>
<path d="M14.62 33.9301C14.56 33.9701 14.12 34.3601 14.12 34.3601L14.42 34.5101L14.62 33.9301Z" fill="#333333"/>
<path d="M12.01 38.87L12.55 38.15L12.31 39.02L12.01 38.87Z" fill="#333333"/>
<path d="M12.73 37.35L13.27 36.63L13.03 37.5L12.73 37.35Z" fill="#333333"/>
<path d="M11.5701 37.9201C11.5701 37.7401 11.5701 37.5601 11.6101 37.3701L11.8401 37.0601L11.5901 37.9301H11.5701V37.9201Z" fill="#333333"/>
<path d="M12.33 35.99L12.8699 35.26L12.63 36.13L12.33 35.99Z" fill="#333333"/>
<path d="M19.9299 39.96L20.3099 39.33C21.0899 39.33 21.7799 39.33 22.1899 39.33C21.3599 39.33 20.5899 39.55 19.9299 39.95V39.96Z" fill="#333333"/>
<path d="M16.6 39.3299C17.01 39.3299 17.64 39.3299 18.35 39.3299L18.75 39.9599C18.13 39.5799 17.39 39.3499 16.6 39.3199V39.3299Z" fill="#333333"/>
<path d="M11.39 42.8099C11.39 40.5799 13.19 38.7699 15.42 38.7799C15.96 38.7799 18.15 39.33 18.67 39.65H19.79C20.22 39.4 22.21 38.7799 22.77 38.7799C24.87 38.7799 26.58 40.4899 26.58 42.5899C26.58 44.5899 25.03 46.2399 23.07 46.3899C23.23 46.8099 23.31 47.2699 23.31 47.7499C23.31 47.9399 23.3 48.1299 23.27 48.3099C23.24 48.5299 23.19 48.7499 23.13 48.9499C22.61 50.5799 21.09 51.7699 19.28 51.7699C17.52 51.7699 16.01 50.6399 15.47 49.0699C15.39 48.8599 15.34 48.64 15.3 48.41C15.26 48.2 15.24 47.9699 15.24 47.7499C15.24 47.4399 15.28 47.1399 15.34 46.8499C13.14 46.8099 11.37 45.0299 11.37 42.8199L11.39 42.8099Z" fill="#333333"/>
<g style="mix-blend-mode:color-burn" opacity="0.2">
<path d="M22.03 29L22.94 28.73C22.97 28.84 23.01 28.95 23.05 29.07C24.67 29.77 23.85 30.89 24.75 32.3C24.85 32.19 26.61 29.49 26.92 27.54L27.14 27.47C27.6 29.51 24.52 32.92 24.52 32.92C24.52 32.92 23.14 29.52 22.03 29Z" fill="#616161"/>
</g>
<g style="mix-blend-mode:color-burn" opacity="0.2">
<path d="M13.13 31.66L13.36 31.59L13.43 31.57C13.63 31.9 13.78 32.14 13.85 32.25C13.87 32.28 13.89 32.3 13.89 32.31C14.11 31.96 14.23 31.62 14.31 31.31L14.98 31.11C14.48 32.05 14.13 32.93 14.13 32.93C14.13 32.93 13.67 32.41 13.13 31.67V31.66Z" fill="#616161"/>
</g>
<g style="mix-blend-mode:color-burn" opacity="0.2">
<path d="M17.6 38.14L18.41 37.53C18.68 37.41 18.97 37.35 19.26 37.35C19.28 37.35 19.3 37.35 19.32 37.35C19.34 37.35 19.36 37.35 19.38 37.35C19.68 37.35 19.96 37.42 20.24 37.53L21.04 38.13L20.79 38.55C20.29 38.3 19.58 37.94 19.38 37.94C19.36 37.94 19.34 37.94 19.32 37.94C19.32 37.94 19.28 37.94 19.26 37.94C19.08 37.94 18.44 38.36 17.94 38.69L17.6 38.14Z" fill="#616161"/>
</g>
<path d="M18.25 46.9601C18.72 46.9101 19.12 46.6201 19.32 46.2101C19.52 46.6201 19.92 46.9101 20.4 46.9601C21.57 46.2901 22.4 44.5901 22.4 42.6001C22.4 41.1901 21.98 39.9201 21.32 39.0701C21.32 39.0701 21.32 39.0601 21.31 39.0501C20.97 38.6101 20.57 38.2901 20.12 38.1001C19.87 38.0001 19.6 37.9401 19.33 37.9301C19.05 37.9301 18.79 37.9901 18.53 38.1001C18.09 38.2801 17.68 38.6101 17.34 39.0401C17.34 39.0401 17.34 39.0501 17.34 39.0601C16.68 39.9101 16.26 41.18 16.26 42.59C16.26 44.58 17.09 46.2801 18.26 46.9501L18.25 46.9601Z" fill="#FDD8AB"/>
<path d="M17.17 47.29C17.17 47.79 19.3501 49.93 19.3501 49.93C19.3501 49.93 21.47 47.72 21.47 47.3C21.47 46.58 20.89 46 20.17 46C19.92 46 19.7 46.07 19.5 46.19H19.15C18.95 46.07 18.73 46 18.48 46C17.76 46 17.17 46.58 17.17 47.3V47.29Z" fill="#333333"/>
<path d="M21.63 42.87C21.63 42.87 21.6499 42.8 21.6499 42.76C21.6499 42.52 21.36 42.33 20.99 42.33C20.62 42.33 20.33 42.52 20.33 42.76C20.33 42.8 20.33 42.83 20.35 42.87H21.6199H21.63Z" fill="#333333"/>
<path d="M17.03 42.87C17.03 42.87 17.01 42.8 17.01 42.76C17.01 42.52 17.3 42.33 17.67 42.33C18.04 42.33 18.33 42.52 18.33 42.76C18.33 42.8 18.32 42.83 18.31 42.87H17.04H17.03Z" fill="#333333"/>
<path d="M18.47 39.65H20.18C20.01 39.42 19.69 39.27 19.33 39.26C18.96 39.26 18.65 39.42 18.48 39.65H18.47Z" fill="#454545"/>
<path d="M19.33 39.6899C19.72 40.1399 20.27 39.5699 20.27 39.5699H18.38C18.38 39.5699 18.93 40.1499 19.32 39.6899H19.33Z" fill="#333333"/>
<g style="mix-blend-mode:color-burn" opacity="0.2">
<path d="M19.33 42.1499V42.16V42.1499V42.16V42.1499L19.82 40.5699H19.33H18.83L19.33 42.1499Z" fill="#616161"/>
</g>
<path d="M18.39 43.81L17.08 43.74H17.06L17.05 43.73L16.54 43.17L17.11 43.68L17.08 43.66L18.39 43.6V43.81Z" fill="#333333"/>
<path d="M20.16 43.6L21.46 43.66L21.43 43.68L22.01 43.17L21.49 43.73L21.48 43.74H21.46L20.16 43.81V43.6Z" fill="#333333"/>
<g style="mix-blend-mode:color-burn" opacity="0.2">
<path d="M18.32 51.39C18.3 51.46 18.3 51.54 18.3 51.62C18.32 52.17 18.79 52.61 19.35 52.61C19.92 52.61 20.42 52.17 20.44 51.6C20.44 51.47 20.43 51.35 20.39 51.24C20.94 51.19 21.42 50.73 21.46 50.15C21.51 49.51 21.03 49 20.39 49.02C20.22 49.02 19.63 49.25 19.5 49.33L20.31 47.86L18.4 47.97L19.18 49.35C19.03 49.26 18.4 49.12 18.25 49.12C17.62 49.15 17.16 49.7 17.21 50.34C17.25 50.94 17.74 51.4 18.31 51.4L18.32 51.39Z" fill="#616161"/>
</g>
<path d="M18.4 51.36C18.38 51.43 18.37 51.51 18.37 51.59C18.37 52.16 18.83 52.62 19.39 52.62C19.96 52.62 20.42 52.16 20.42 51.6C20.42 51.48 20.4 51.36 20.36 51.25C20.86 51.21 21.25 50.8 21.25 50.29C21.25 49.75 20.82 49.32 20.29 49.32C20.15 49.32 19.64 49.48 19.53 49.54L20.19 48.42H18.59L19.24 49.54C19.11 49.46 18.55 49.32 18.41 49.32C17.84 49.32 17.38 49.78 17.38 50.34C17.38 50.9 17.83 51.36 18.38 51.37L18.4 51.36Z" fill="#FFD675"/>
<g style="mix-blend-mode:color-burn" opacity="0.2">
<path d="M19.4 49.35L18.98 48.62H19.83L19.4 49.35ZM20.3 49.53C20.72 49.53 21.05 49.87 21.05 50.29C21.05 50.68 20.74 51.01 20.35 51.04L20.07 51.06L20.16 51.33C20.19 51.42 20.21 51.51 20.21 51.6C20.21 52.04 19.84 52.41 19.4 52.41C19.18 52.41 18.98 52.32 18.83 52.17C18.68 52.02 18.6 51.81 18.6 51.6C18.6 51.54 18.6 51.49 18.62 51.41L18.68 51.16H18.42C17.98 51.14 17.62 50.78 17.63 50.34C17.63 50.12 17.71 49.92 17.87 49.77C18.02 49.62 18.23 49.53 18.44 49.53C18.55 49.53 19.06 49.67 19.15 49.72L19.25 49.62L19.66 49.72C19.75 49.67 20.21 49.53 20.31 49.53H20.3Z" fill="#616161"/>
</g>
<g style="mix-blend-mode:color-burn" opacity="0.2">
<path d="M18.43 46.9301C18.37 46.9401 18.32 46.9501 18.26 46.9601C18.32 46.9601 18.38 46.9401 18.43 46.9301Z" fill="#616161"/>
</g>
<g style="mix-blend-mode:color-burn" opacity="0.2">
<path d="M18.89 46.72C18.89 46.72 18.88 46.72 18.87 46.73C18.87 46.73 18.88 46.73 18.89 46.72Z" fill="#616161"/>
</g>
<g style="mix-blend-mode:color-burn" opacity="0.2">
<path d="M18.75 46.8101C18.75 46.8101 18.73 46.8101 18.72 46.8301C18.73 46.8301 18.74 46.8201 18.75 46.8101Z" fill="#616161"/>
</g>
<g style="mix-blend-mode:color-burn" opacity="0.2">
<path d="M18.59 46.88C18.59 46.88 18.55 46.89 18.53 46.9C18.55 46.9 18.57 46.89 18.59 46.88Z" fill="#616161"/>
</g>
<g style="mix-blend-mode:color-burn" opacity="0.2">
<path d="M11.94 34.93C12.02 35.04 12.09 35.14 12.16 35.23C12.2 35.28 12.24 35.33 12.28 35.38C12.31 35.42 12.34 35.46 12.37 35.5C11.91 36.14 11.68 36.78 11.6 37.37C11.57 37.56 11.56 37.74 11.56 37.92C11.56 38.91 11.92 39.76 12.24 40.32C11.7 41.01 11.38 41.87 11.38 42.81C11.38 45.01 13.15 46.8 15.35 46.84C15.28 47.13 15.24 47.43 15.25 47.74C15.25 47.96 15.27 48.19 15.31 48.4C15.34 48.63 15.4 48.85 15.48 49.06C15.92 50.33 16.98 51.31 18.3 51.64C18.33 52.19 18.79 52.61 19.35 52.61C19.35 52.61 19.36 52.61 19.37 52.61V29.79L19.32 29.81L14.98 31.11L14.31 31.31C14.24 31.59 14.14 31.88 13.96 32.19C13.94 32.22 13.92 32.26 13.9 32.29C13.9 32.29 13.88 32.27 13.86 32.23C13.79 32.12 13.63 31.88 13.44 31.55H13.4L13.37 31.57L13.13 31.64L10.63 32.39C11.02 33.42 11.5 34.25 11.95 34.91L11.94 34.93Z" fill="#616161"/>
</g>
<path d="M7.85002 11.6C7.87002 11.52 7.88002 11.44 7.88002 11.35C7.88002 10.74 7.38002 10.24 6.77002 10.24C6.16002 10.24 5.66002 10.73 5.66002 11.35C5.66002 11.48 5.68001 11.61 5.73001 11.72C5.19001 11.76 4.77001 12.21 4.76001 12.76C4.76001 13.34 5.23001 13.81 5.81001 13.81C5.96001 13.81 6.51002 13.64 6.63002 13.57L5.92001 14.79H7.65001L6.94002 13.57C7.08002 13.66 7.69002 13.81 7.83002 13.81C8.44002 13.81 8.94002 13.31 8.94002 12.7C8.94002 12.09 8.45002 11.6 7.85002 11.59V11.6Z" fill="#333333"/>
<g style="mix-blend-mode:color-burn" opacity="0.2">
<path d="M7.85002 11.6C7.87002 11.52 7.88002 11.44 7.88002 11.35C7.88002 10.74 7.38002 10.24 6.77002 10.24V14.79H7.66002L6.95001 13.57C7.09001 13.66 7.70001 13.81 7.84001 13.81C8.45001 13.81 8.95001 13.31 8.95001 12.7C8.95001 12.09 8.46002 11.6 7.86002 11.59L7.85002 11.6Z" fill="#616161"/>
</g>
<path d="M33.97 44.79C33.95 44.87 33.94 44.95 33.94 45.04C33.94 45.65 34.44 46.15 35.05 46.15C35.66 46.15 36.16 45.66 36.16 45.04C36.16 44.91 36.14 44.78 36.09 44.66C36.63 44.62 37.06 44.17 37.06 43.62C37.06 43.04 36.59 42.57 36.01 42.57C35.86 42.57 35.31 42.74 35.19 42.81L35.9 41.59H34.17L34.88 42.81C34.74 42.72 34.13 42.57 33.99 42.57C33.38 42.57 32.88 43.07 32.88 43.68C32.88 44.29 33.37 44.78 33.97 44.79Z" fill="#333333"/>
<g style="mix-blend-mode:color-burn" opacity="0.2">
<path d="M33.97 44.79C33.95 44.87 33.94 44.95 33.94 45.04C33.94 45.65 34.44 46.15 35.05 46.15V41.6H34.16L34.87 42.82C34.73 42.73 34.12 42.58 33.98 42.58C33.37 42.58 32.87 43.08 32.87 43.69C32.87 44.3 33.36 44.79 33.96 44.8L33.97 44.79Z" fill="#616161"/>
</g>
</svg>
