<svg width="40" height="57" viewBox="0 0 40 57" fill="none" xmlns="http://www.w3.org/2000/svg">
<path d="M4.4 56.58C2.05 56.58 0.13 54.7 0.12 52.39L0 5.09004C0 2.76004 1.91 0.870044 4.27 0.880044L35.53 0.94005C37.88 0.94005 39.8 2.84005 39.8 5.16005V52.35C39.8 54.66 37.89 56.54 35.55 56.54L4.41 56.58H4.4Z" fill="#C9C9C9"/>
<path d="M4.83 56.45C2.51 56.45 0.619995 54.57 0.619995 52.25V5.06999C0.619995 2.74999 2.51 0.869995 4.83 0.869995H35.63C37.95 0.869995 39.84 2.74999 39.84 5.06999V52.25C39.84 54.57 37.95 56.45 35.63 56.45H4.83Z" fill="white"/>
<path d="M35.58 55.57H4.78002C2.98002 55.57 1.52002 54.11 1.52002 52.32V5.13995C1.52002 3.41995 2.89002 2.00995 3.62002 1.73995L3.73002 1.69995H34.7C37.76 1.93995 38.85 3.62995 38.85 5.13995V52.32C38.85 54.11 37.39 55.57 35.59 55.57H35.58ZM3.99002 2.98995C3.66002 3.19995 2.81002 4.06995 2.81002 5.13995V52.32C2.81002 53.4 3.70002 54.28 4.78002 54.28H35.58C36.67 54.28 37.56 53.4 37.56 52.32V5.13995C37.56 3.93995 36.46 3.13995 34.62 2.98995H3.99002Z" fill="#D66142"/>
<path d="M5.91997 15.5299L3.90997 12.9799L5.91997 10.4399L7.93997 12.9799L5.91997 15.5299Z" fill="#D66142"/>
<g style="mix-blend-mode:color-burn" opacity="0.2">
<path d="M5.91999 10.4399L5.85999 10.5199V15.4499L5.91999 15.5299L7.93999 12.9799L5.91999 10.4399Z" fill="#616161"/>
</g>
<path d="M7.56998 6.72C7.56998 6.93 7.51998 7.17 7.40998 7.42C7.30998 7.68 7.17998 7.88 7.03998 8.03C6.98998 8.09 6.88998 8.17 6.75998 8.28C6.56998 8.44 6.35998 8.58 6.14998 8.71C6.08998 8.75 6.03998 8.77 6.01998 8.79C5.92998 8.85 5.87998 8.89 5.87998 8.92C5.87998 8.97 6.02998 9.05 6.30998 9.17C6.56998 9.28 6.76998 9.34 6.89998 9.37C6.91998 9.37 6.93998 9.37 6.98998 9.37H7.19998C7.19998 9.37 7.26998 9.37 7.30998 9.39C7.27998 9.41 7.23998 9.44 7.16998 9.48C7.09998 9.51 7.02998 9.55 6.94998 9.58C6.84998 9.67 6.76998 9.74 6.71998 9.79C6.66998 9.84 6.61998 9.86 6.58998 9.86C6.49998 9.86 6.33998 9.76 6.12998 9.55C5.90998 9.34 5.70998 9.24 5.50998 9.24C5.38998 9.24 5.26998 9.29 5.14998 9.38C5.02998 9.47 4.95998 9.52 4.93998 9.52C4.88998 9.52 4.86998 9.49 4.86998 9.42C4.86998 9.38 4.93998 9.3 5.07998 9.19C5.16998 9.12 5.25998 9.05 5.34998 8.99C5.12998 8.86 4.90998 8.72 4.70998 8.58C4.49998 8.44 4.31998 8.26 4.15998 8.06C4.01998 7.88 3.91998 7.68 3.83998 7.48C3.76998 7.28 3.72998 7.06 3.72998 6.84C3.72998 6.51 3.79998 6.24 3.92998 6.03C3.97998 5.95 4.12998 5.78 4.38998 5.52C4.46998 5.44 4.67998 5.26 5.00998 5C5.41998 4.67 5.66998 4.5 5.74998 4.5C5.81998 4.5 5.95998 4.57 6.15998 4.71C6.39998 4.88 6.68998 5.13 7.00998 5.45C7.20998 5.65 7.35998 5.85 7.45998 6.05C7.54998 6.25 7.59998 6.48 7.59998 6.73L7.56998 6.72ZM6.53998 7.29C6.53998 7.1 6.49998 6.9 6.41998 6.67C6.33998 6.44 6.22998 6.23 6.08998 6.03C5.97998 5.87 5.77998 5.68 5.47998 5.46C5.37998 5.39 5.23998 5.29 5.05998 5.18C4.98998 5.18 4.89998 5.3 4.79998 5.54C4.69998 5.78 4.64998 5.94 4.64998 6.01C4.64998 6.34 4.71998 6.65 4.85998 6.94C4.97998 7.18 5.15998 7.43 5.40998 7.68C5.50998 7.79 5.75998 8.02 6.14998 8.38C6.27998 8.25 6.37998 8.06 6.44998 7.8C6.49998 7.6 6.52998 7.43 6.52998 7.28L6.53998 7.29Z" fill="#333333"/>
<path d="M34.6 42.45L36.61 44.99L34.6 47.54L32.58 44.99L34.6 42.45Z" fill="#D66142"/>
<g style="mix-blend-mode:color-burn" opacity="0.2">
<path d="M34.6 47.54L34.66 47.45V42.53L34.6 42.45L32.58 44.99L34.6 47.54Z" fill="#616161"/>
</g>
<path d="M32.95 51.26C32.95 51.05 33 50.82 33.11 50.56C33.21 50.3 33.34 50.1 33.48 49.95C33.53 49.89 33.63 49.81 33.76 49.7C33.95 49.54 34.16 49.4 34.37 49.27C34.43 49.23 34.48 49.21 34.5 49.19C34.59 49.13 34.64 49.09 34.64 49.06C34.64 49.01 34.5 48.93 34.21 48.81C33.95 48.7 33.75 48.64 33.62 48.61C33.6 48.61 33.58 48.61 33.53 48.61H33.32C33.32 48.61 33.25 48.61 33.21 48.59C33.23 48.57 33.28 48.54 33.35 48.5C33.42 48.47 33.49 48.43 33.57 48.4C33.67 48.31 33.75 48.24 33.8 48.2C33.86 48.15 33.9 48.13 33.93 48.13C34.02 48.13 34.18 48.23 34.39 48.44C34.61 48.65 34.81 48.75 35.01 48.75C35.13 48.75 35.25 48.7 35.37 48.61C35.49 48.52 35.56 48.47 35.58 48.47C35.63 48.47 35.65 48.5 35.65 48.57C35.65 48.61 35.58 48.69 35.44 48.8C35.35 48.87 35.26 48.94 35.17 49C35.39 49.13 35.61 49.27 35.81 49.41C36.02 49.55 36.2 49.73 36.36 49.93C36.5 50.11 36.6 50.31 36.68 50.51C36.75 50.71 36.79 50.93 36.79 51.15C36.79 51.48 36.73 51.75 36.59 51.96C36.54 52.04 36.39 52.21 36.13 52.47C36.05 52.55 35.84 52.73 35.51 52.99C35.1 53.32 34.85 53.49 34.77 53.49C34.7 53.49 34.56 53.42 34.36 53.28C34.12 53.11 33.83 52.86 33.51 52.54C33.31 52.34 33.16 52.14 33.06 51.94C32.97 51.74 32.92 51.51 32.92 51.26H32.95ZM33.98 50.69C33.98 50.88 34.02 51.08 34.1 51.31C34.18 51.54 34.29 51.75 34.43 51.95C34.54 52.11 34.74 52.3 35.04 52.52C35.14 52.59 35.28 52.69 35.45 52.8C35.52 52.8 35.61 52.68 35.71 52.44C35.81 52.2 35.87 52.04 35.87 51.97C35.87 51.64 35.8 51.33 35.66 51.04C35.54 50.8 35.36 50.55 35.11 50.3C35.01 50.19 34.76 49.96 34.37 49.6C34.24 49.73 34.13 49.92 34.06 50.18C34.01 50.38 33.98 50.55 33.98 50.7V50.69Z" fill="#333333"/>
<path d="M26.18 16.64L26.12 17.48L26.08 17.99L25.92 20.18L25.88 20.7L25.84 21.4L25.79 22.05L25.29 22.06H25.05L24.56 22.07L24.28 22.08L23.95 22.09L23.35 22.1L22.68 22.11L19.56 22.18L16.44 22.11L15.77 22.1L15.17 22.09L14.84 22.08L14.56 22.07H14.31L14.07 22.06H13.83L13.33 22.05L13.28 21.4L13.24 20.7L13.2 20.18L13.04 17.99L13 17.48L12.94 16.64H26.18Z" fill="#C9C9C9"/>
<g style="mix-blend-mode:color-burn" opacity="0.2">
<path d="M25.57 16.64C24.58 18.03 23.19 19.46 21.66 19.46H21.64C21.3 19.89 20.91 20.21 20.48 20.4C20.21 20.52 19.92 20.58 19.62 20.58C19.6 20.58 19.58 20.58 19.56 20.58V16.65H25.58L25.57 16.64Z" fill="#616161"/>
</g>
<path d="M28.29 25.2699L25.78 26.0199L25.55 26.0899L25.48 26.1099C25.28 25.7799 25.13 25.5399 25.06 25.4299C25.04 25.3999 25.02 25.3799 25.02 25.3699C24.8 25.7299 24.68 26.0599 24.6 26.3799L23.93 26.5799L19.58 27.8799L16.86 28.6899L15.95 28.9599C15.92 28.8499 15.88 28.7399 15.84 28.6199C14.22 27.9299 15.03 26.7999 14.13 25.3799C14.03 25.4999 12.26 28.2 11.96 30.16L11.74 30.2299L9.98001 30.7599H9.94001C9.91001 26.8899 11.09 24.3199 12.17 22.7599C12.24 22.6499 12.32 22.5499 12.4 22.4499C12.48 22.3599 12.54 22.2699 12.61 22.1799C12.66 22.1199 12.72 22.0499 12.77 21.9899C12.82 21.9299 12.87 21.8699 12.92 21.8099C13.05 21.6599 13.18 21.5299 13.29 21.4199C13.32 21.3899 13.35 21.3699 13.37 21.3399C13.4 21.3199 13.42 21.2899 13.45 21.2699C13.47 21.2499 13.5 21.2199 13.52 21.1999C13.57 21.1599 13.61 21.1199 13.65 21.0799C13.82 20.9299 13.93 20.8599 13.93 20.8599L14.34 20.9599L14.41 20.9799L14.57 21.0199H14.61L15.18 20.9999L16.06 20.9599L19.55 20.8199L23.04 20.9599L23.92 20.9999L24.49 21.0199H24.53L24.69 20.9699L24.76 20.9499L25.17 20.8499C25.17 20.8499 25.27 20.9199 25.45 21.0699C25.49 21.0999 25.54 21.1399 25.58 21.1899C25.6 21.2099 25.63 21.2299 25.65 21.2599C25.68 21.2799 25.7 21.3099 25.73 21.3299C25.76 21.3599 25.78 21.39 25.81 21.41C25.81 21.41 25.86 21.4599 25.89 21.4999C25.92 21.5299 25.95 21.5599 25.98 21.5899C26.04 21.6599 26.11 21.7199 26.17 21.7999C26.21 21.8499 26.26 21.8999 26.3 21.9499C26.3 21.9599 26.31 21.9699 26.32 21.9799C26.37 22.0399 26.43 22.0999 26.48 22.1699C26.55 22.2599 26.62 22.3499 26.69 22.4399C26.77 22.5399 26.84 22.6399 26.92 22.7499C27.37 23.3999 27.85 24.2399 28.24 25.2799L28.29 25.2699Z" fill="#D66142"/>
<g style="mix-blend-mode:color-burn" opacity="0.2">
<path d="M19.56 23.63H20.13L19.87 25.7C19.77 25.7 19.66 25.7 19.55 25.7V23.62L19.56 23.63Z" fill="#616161"/>
</g>
<g style="mix-blend-mode:color-burn" opacity="0.2">
<path d="M19.56 16.64H13.54C14.53 18.03 15.92 19.46 17.45 19.46H17.47C18.02 20.16 18.72 20.58 19.49 20.58C19.51 20.58 19.53 20.58 19.55 20.58V16.65L19.56 16.64Z" fill="#616161"/>
</g>
<g style="mix-blend-mode:color-burn" opacity="0.2">
<path d="M19.56 23.63H18.99L19.25 25.7C19.36 25.7 19.46 25.7 19.57 25.7V23.62L19.56 23.63Z" fill="#616161"/>
</g>
<g style="mix-blend-mode:color-burn" opacity="0.2">
<path d="M17.47 25.37C14.56 24.73 12.98 23.75 12.16 22.74C12.76 21.87 13.34 21.33 13.66 21.05L17.47 25.37Z" fill="#616161"/>
</g>
<path d="M19.56 19.72C19.56 19.72 19.52 19.72 19.5 19.72C19.21 19.72 18.93 19.66 18.67 19.55C18.65 19.62 18.64 19.69 18.64 19.76V20.13C18.91 20.25 19.2 20.31 19.5 20.31C19.52 20.31 19.54 20.31 19.56 20.31V19.71V19.72Z" fill="#FDD8AB"/>
<path d="M19.56 18.88C19.56 18.88 19.54 18.88 19.53 18.88C19.11 18.88 18.77 19.17 18.67 19.56C18.93 19.67 19.21 19.73 19.5 19.73C19.52 19.73 19.54 19.73 19.56 19.73V18.89V18.88Z" fill="#FDD8AB"/>
<path d="M24.67 20.73L23.13 20.71L20.48 20.68V20.14C20.21 20.26 19.92 20.32 19.62 20.32C19.6 20.32 19.58 20.32 19.56 20.32C19.56 20.32 19.52 20.32 19.5 20.32C19.2 20.32 18.92 20.26 18.64 20.14V20.68L15.99 20.71L14.45 20.73C14.18 21.2 14.3 21.25 14.3 21.79C14.3 23.14 15.23 24.33 16.65 25.03C16.65 25.03 16.66 25.03 16.67 25.03C16.92 25.15 17.19 25.27 17.48 25.35C18.03 25.53 18.63 25.65 19.25 25.68C19.28 25.68 19.32 25.68 19.35 25.68C19.42 25.68 19.49 25.68 19.56 25.68C19.63 25.68 19.7 25.68 19.77 25.68C19.8 25.68 19.84 25.68 19.87 25.68C20.5 25.65 21.1 25.53 21.64 25.35C21.92 25.26 22.19 25.15 22.45 25.03C22.45 25.03 22.46 25.03 22.47 25.03C23.89 24.32 24.82 23.13 24.82 21.79C24.82 21.25 24.94 21.2 24.67 20.73Z" fill="#FDD8AB"/>
<path d="M19.56 19.72C19.56 19.72 19.6 19.72 19.62 19.72C19.91 19.72 20.19 19.66 20.45 19.55C20.47 19.62 20.48 19.69 20.48 19.76V20.13C20.21 20.25 19.92 20.31 19.62 20.31C19.6 20.31 19.58 20.31 19.56 20.31V19.71V19.72Z" fill="#FDD8AB"/>
<path d="M19.56 18.88C19.56 18.88 19.58 18.88 19.59 18.88C20.01 18.88 20.36 19.17 20.45 19.56C20.19 19.67 19.91 19.73 19.62 19.73C19.6 19.73 19.58 19.73 19.56 19.73V18.89V18.88Z" fill="#FDD8AB"/>
<g style="mix-blend-mode:color-burn" opacity="0.2">
<path d="M26.97 22.74C26.14 23.75 24.57 24.72 21.65 25.37L23.23 23.58L23.33 23.47L24.57 22.07L24.83 21.77L25.47 21.05C25.47 21.05 25.56 21.12 25.6 21.17C25.62 21.19 25.65 21.21 25.67 21.24C25.7 21.26 25.72 21.29 25.75 21.31C25.78 21.34 25.8 21.36 25.83 21.39C25.83 21.39 25.88 21.44 25.91 21.48C25.94 21.51 25.97 21.54 26 21.57C26.06 21.64 26.13 21.7 26.19 21.78C26.23 21.83 26.28 21.88 26.32 21.93C26.32 21.93 26.34 21.95 26.35 21.96C26.4 22.02 26.45 22.08 26.51 22.15C26.58 22.24 26.65 22.33 26.72 22.42C26.8 22.52 26.87 22.62 26.95 22.73L26.97 22.74Z" fill="#616161"/>
</g>
<path d="M27.34 19.74C27.34 19.92 27.33 20.1 27.3 20.29C27.22 20.89 26.99 21.52 26.53 22.16C26.09 22.77 25.45 23.38 24.53 23.97C24.48 24 24.42 24.04 24.36 24.08C23.83 24.41 23.2 24.73 22.48 25.04C22.46 25.04 22.45 25.06 22.44 25.06C22.43 25.06 22.42 25.07 22.4 25.08C22.36 25.1 22.31 25.12 22.27 25.13C22.14 25.18 22.01 25.24 21.87 25.29C21.8 25.32 21.73 25.34 21.66 25.37L23.36 22.1L23.94 20.98L24.07 20.72L26.19 16.63C26.19 16.63 27.35 17.96 27.35 19.73L27.34 19.74Z" fill="#EBEBEB"/>
<path d="M17.47 25.37C16.38 24.96 15.49 24.53 14.76 24.08C14.7 24.04 14.64 24.01 14.59 23.97C12.71 22.76 11.98 21.45 11.82 20.28C11.79 20.09 11.78 19.91 11.78 19.73C11.78 17.97 12.94 16.63 12.94 16.63L17.47 25.36V25.37Z" fill="#EBEBEB"/>
<g style="mix-blend-mode:color-burn" opacity="0.2">
<path d="M16.85 28.69L15.94 28.96C15.91 28.85 15.87 28.74 15.82 28.62C14.2 27.92 15.01 26.8 14.11 25.38C14.01 25.49 12.24 28.2 11.94 30.16L11.72 30.23C11.25 28.19 14.34 24.77 14.34 24.77C14.34 24.77 15.72 28.19 16.84 28.7L16.85 28.69Z" fill="#616161"/>
</g>
<g style="mix-blend-mode:color-burn" opacity="0.2">
<path d="M25.78 26.02L25.55 26.09L25.48 26.11C25.28 25.78 25.13 25.54 25.06 25.43C25.04 25.4 25.02 25.38 25.02 25.37C24.8 25.73 24.68 26.06 24.6 26.38L23.93 26.58C24.43 25.64 24.79 24.75 24.79 24.75C24.79 24.75 25.25 25.27 25.8 26.02H25.78Z" fill="#616161"/>
</g>
<path d="M13.66 21.8299L14.21 22.5599L13.96 21.6899L13.66 21.8299Z" fill="#333333"/>
<path d="M15.55 23.59L16.1 24.32L15.85 23.45L15.55 23.59Z" fill="#333333"/>
<path d="M12.67 17.5L13.22 18.22L12.97 17.35L12.67 17.5Z" fill="#333333"/>
<path d="M13.39 19.02L13.94 19.75L13.69 18.87L13.39 19.02Z" fill="#333333"/>
<path d="M14.11 20.55L14.66 21.27L14.41 20.4L14.11 20.55Z" fill="#333333"/>
<path d="M14.83 22.07L15.38 22.8L15.13 21.92L14.83 22.07Z" fill="#333333"/>
<path d="M14.76 24.08C14.7 24.04 14.64 24.01 14.59 23.97L14.27 23.55L14.57 23.4L14.76 24.08Z" fill="#333333"/>
<path d="M12.22 18.78L12.77 19.51L12.52 18.64L12.22 18.78Z" fill="#333333"/>
<path d="M12.94 20.31L13.49 21.03L13.24 20.16L12.94 20.31Z" fill="#333333"/>
<path d="M12.05 20.6L11.82 20.29C11.79 20.1 11.78 19.92 11.78 19.74H11.81L12.06 20.6H12.05Z" fill="#333333"/>
<path d="M12.54 21.68L13.09 22.4L12.84 21.53L12.54 21.68Z" fill="#333333"/>
<path d="M25.46 21.8299L24.91 22.5599L25.16 21.6899L25.46 21.8299Z" fill="#333333"/>
<path d="M23.57 23.59L23.02 24.32L23.27 23.45L23.57 23.59Z" fill="#333333"/>
<path d="M26.45 17.5L25.9 18.22L26.15 17.35L26.45 17.5Z" fill="#333333"/>
<path d="M25.73 19.02L25.18 19.75L25.43 18.87L25.73 19.02Z" fill="#333333"/>
<path d="M25.01 20.55L24.46 21.27L24.71 20.4L25.01 20.55Z" fill="#333333"/>
<path d="M24.29 22.07L23.74 22.8L23.99 21.92L24.29 22.07Z" fill="#333333"/>
<path d="M24.36 24.08C24.42 24.04 24.48 24.01 24.53 23.97L24.85 23.55L24.55 23.4L24.36 24.08Z" fill="#333333"/>
<path d="M26.9 18.78L26.35 19.51L26.6 18.64L26.9 18.78Z" fill="#333333"/>
<path d="M26.18 20.31L25.63 21.03L25.88 20.16L26.18 20.31Z" fill="#333333"/>
<path d="M27.34 19.74C27.34 19.92 27.33 20.1 27.3 20.29L27.07 20.6L27.32 19.73H27.34V19.74Z" fill="#333333"/>
<path d="M26.58 21.68L26.03 22.4L26.28 21.53L26.58 21.68Z" fill="#333333"/>
<path d="M27.09 13.16C27.09 13.16 26.23 15.07 24.89 16.63C23.99 17.68 22.87 18.57 21.66 18.59H21.64C21.64 18.59 21.59 18.59 21.56 18.58C21.96 18.06 22.27 17.39 22.46 16.63C22.58 16.13 22.65 15.59 22.65 15.03C22.65 13.03 21.81 11.33 20.64 10.66C20.58 10.66 20.52 10.68 20.47 10.69C20.43 10.69 20.4 10.71 20.36 10.72C20.34 10.72 20.32 10.72 20.3 10.74C20.26 10.75 20.22 10.77 20.18 10.79C20.17 10.79 20.16 10.79 20.15 10.8C20.12 10.82 20.09 10.84 20.06 10.86C20.05 10.86 20.04 10.87 20.03 10.88C20.03 10.88 20.01 10.88 20.01 10.9C19.91 10.97 19.82 11.05 19.75 11.15C19.68 11.23 19.62 11.32 19.58 11.41C19.53 11.31 19.48 11.22 19.41 11.14C19.32 11.03 19.21 10.94 19.09 10.86C19.01 10.81 18.93 10.77 18.84 10.74C18.73 10.7 18.62 10.67 18.5 10.66C17.33 11.33 16.49 13.03 16.49 15.03C16.49 15.59 16.56 16.13 16.68 16.63C16.87 17.39 17.18 18.06 17.58 18.58C17.55 18.58 17.53 18.59 17.5 18.59H17.48C16.27 18.57 15.15 17.68 14.25 16.63C12.91 15.07 12.05 13.16 12.05 13.16L17.43 7.72997L17.56 7.59997L17.58 7.57997L17.71 7.43997L19.58 5.46997L19.62 5.50997L21.45 7.43997L21.6 7.58997L21.73 7.71997L27.11 13.15L27.09 13.16Z" fill="#D66142"/>
<g style="mix-blend-mode:color-burn" opacity="0.2">
<path d="M19.56 10.36L21.01 8.43996L19.56 6.46996V6.45996V6.46996V6.45996V6.46996L18.11 8.43996L19.56 10.36Z" fill="#616161"/>
</g>
<path d="M21.71 7.73003L19.56 10.61V10.62V10.61V10.62V10.61L17.41 7.73003L17.54 7.60002L17.56 7.58002L18.15 8.39002L18.35 8.64002L19.56 7.03002V7.02002V7.03002V7.02002V7.03002L20.77 8.64002L20.97 8.39002L21.56 7.58002L21.58 7.60002L21.71 7.73003Z" fill="#FFD675"/>
<g style="mix-blend-mode:color-burn" opacity="0.2">
<path d="M19.56 9.64998L20.28 8.68998L19.56 7.73997V7.72998V7.73997V7.72998V7.73997L18.84 8.68998L19.56 9.64998Z" fill="#616161"/>
</g>
<g style="mix-blend-mode:color-burn" opacity="0.2">
<path d="M14.39 8.51998L15.1 7.56998L14.39 6.61999V6.60999L14.38 6.61999V6.60999V6.61999L13.67 7.56998L14.38 8.51998V8.52998H14.39V8.51998Z" fill="#616161"/>
</g>
<path d="M20.64 10.67C20.17 10.72 19.77 11.01 19.56 11.42C19.36 11.01 18.96 10.72 18.48 10.67C17.31 11.34 16.47 13.04 16.47 15.04C16.47 16.46 16.89 17.73 17.56 18.58V18.59C17.9 19.03 18.31 19.35 18.75 19.54C19 19.64 19.27 19.7 19.55 19.71C19.83 19.71 20.09 19.65 20.35 19.54C20.79 19.36 21.2 19.03 21.54 18.59C21.54 18.59 21.54 18.59 21.54 18.58C22.2 17.72 22.63 16.46 22.63 15.04C22.63 13.04 21.8 11.34 20.62 10.67H20.64Z" fill="#FDD8AB"/>
<path d="M17.25 14.77C17.25 14.77 17.23 14.84 17.23 14.88C17.23 15.12 17.52 15.31 17.89 15.31C18.26 15.31 18.55 15.12 18.55 14.88C18.55 14.84 18.55 14.81 18.53 14.77H17.26H17.25Z" fill="#333333"/>
<path d="M21.87 14.77C21.87 14.77 21.89 14.84 21.89 14.88C21.89 15.12 21.6 15.31 21.23 15.31C20.86 15.31 20.57 15.12 20.57 14.88C20.57 14.84 20.57 14.81 20.59 14.77H21.86H21.87Z" fill="#333333"/>
<path d="M20.42 18.01H18.7C18.87 18.24 19.19 18.39 19.56 18.4C19.93 18.4 20.24 18.24 20.42 18.01Z" fill="#D66142"/>
<path d="M19.56 17.97C19.17 17.51 18.62 18.09 18.62 18.09H20.51C20.51 18.09 19.95 17.51 19.56 17.97Z" fill="#D66B4F"/>
<g style="mix-blend-mode:color-burn" opacity="0.2">
<path d="M19.56 15.5V15.49V15.5V15.49V15.5L19.06 17.08H19.56H20.06L19.56 15.5Z" fill="#616161"/>
</g>
<path d="M20.51 13.83L21.81 13.9H21.83L21.84 13.91L22.36 14.48L21.78 13.97L21.81 13.98L20.5 14.04L20.51 13.83Z" fill="#D66142"/>
<path d="M18.73 14.04L17.42 13.98L17.45 13.97L16.88 14.48L17.39 13.91L17.4 13.9H17.42L18.73 13.83V14.04Z" fill="#D66142"/>
<g style="mix-blend-mode:color-burn" opacity="0.2">
<path d="M17.47 25.37C17.19 25.26 16.92 25.16 16.66 25.05C16.66 25.05 16.66 25.05 16.64 25.05C15.22 24.34 14.29 23.15 14.29 21.81C14.29 21.27 14.17 21.22 14.44 20.75L15.98 20.73L17.46 25.39L17.47 25.37Z" fill="#616161"/>
</g>
<g style="mix-blend-mode:color-burn" opacity="0.2">
<path d="M20.45 19.55C20.19 19.66 19.91 19.72 19.62 19.72C19.6 19.72 19.58 19.72 19.56 19.72C19.56 19.72 19.52 19.72 19.5 19.72C19.21 19.72 18.93 19.66 18.67 19.55C18.65 19.62 18.64 19.69 18.64 19.76V20.13C18.91 20.25 19.2 20.31 19.5 20.31C19.52 20.31 19.54 20.31 19.56 20.31C19.58 20.31 19.6 20.31 19.62 20.31C19.92 20.31 20.2 20.25 20.48 20.13V19.76C20.48 19.69 20.47 19.62 20.45 19.55Z" fill="#616161"/>
</g>
<g style="mix-blend-mode:color-burn" opacity="0.2">
<path d="M20.01 23.73H19.12L19.35 25.71C19.42 25.71 19.49 25.71 19.56 25.71C19.63 25.71 19.7 25.71 19.77 25.71L20 23.73H20.01Z" fill="#616161"/>
</g>
<g style="mix-blend-mode:color-burn" opacity="0.2">
<path d="M21.65 25.37C21.93 25.26 22.2 25.16 22.46 25.05C22.46 25.05 22.47 25.05 22.48 25.05C23.9 24.34 24.83 23.15 24.83 21.81C24.83 21.27 24.95 21.22 24.68 20.75L23.14 20.73L21.66 25.39L21.65 25.37Z" fill="#616161"/>
</g>
<g style="mix-blend-mode:color-burn" opacity="0.2">
<path d="M28.29 25.27L25.78 26.02L25.55 26.09C25.3 25.68 25.12 25.41 25.09 25.37C25.08 25.39 25.07 25.41 25.05 25.43C24.85 25.77 24.74 26.08 24.67 26.38L24 26.58L19.57 27.9V5.55001L19.61 5.51001L21.44 7.44001L21.59 7.59L21.72 7.72001L27.1 13.15C27.1 13.15 26.24 15.06 24.9 16.62H26.19C26.19 16.62 27.35 17.95 27.35 19.72C27.35 19.9 27.34 20.08 27.31 20.27C27.23 20.87 27 21.5 26.54 22.14C26.61 22.23 26.68 22.32 26.75 22.41C26.83 22.51 26.9 22.61 26.98 22.72C27.43 23.37 27.91 24.21 28.3 25.25L28.29 25.27Z" fill="#616161"/>
</g>
<g style="mix-blend-mode:color-burn" opacity="0.2">
<path d="M20.46 10.7C20.52 10.69 20.57 10.68 20.63 10.67C20.57 10.67 20.51 10.69 20.46 10.7Z" fill="#616161"/>
</g>
<g style="mix-blend-mode:color-burn" opacity="0.2">
<path d="M20 10.91C20 10.91 20.02 10.91 20.02 10.9C20.02 10.9 20 10.9 20 10.91Z" fill="#616161"/>
</g>
<g style="mix-blend-mode:color-burn" opacity="0.2">
<path d="M20.14 10.82C20.14 10.82 20.16 10.81 20.17 10.8C20.16 10.8 20.15 10.8 20.14 10.82Z" fill="#616161"/>
</g>
<g style="mix-blend-mode:color-burn" opacity="0.2">
<path d="M20.3 10.75C20.3 10.75 20.34 10.74 20.36 10.73C20.34 10.73 20.32 10.74 20.3 10.75Z" fill="#616161"/>
</g>
<path d="M25.27 41.57H12.03L12.09 40.73L12.13 40.21L12.29 38.02L12.33 37.51L12.37 36.81L12.42 36.16L12.92 36.15L13.16 36.14H13.4L13.65 36.13H13.93L14.27 36.12L14.86 36.11L15.53 36.09L18.65 36.03L21.77 36.09L22.44 36.11L23.03 36.12L23.37 36.13H23.65L23.9 36.14H24.14L24.38 36.15L24.88 36.16L24.92 36.81L24.97 37.51L25.01 38.02L25.17 40.21L25.21 40.73L25.27 41.57Z" fill="#C9C9C9"/>
<g style="mix-blend-mode:color-burn" opacity="0.2">
<path d="M18.65 37.63V41.56H12.63C13.62 40.17 15.01 38.74 16.54 38.74H16.56C16.89 38.31 17.29 37.99 17.72 37.8C17.99 37.68 18.28 37.62 18.58 37.62C18.6 37.62 18.62 37.62 18.64 37.62L18.65 37.63Z" fill="#616161"/>
</g>
<path d="M28.29 27.46C28.32 31.32 27.15 33.9 26.06 35.46C26.01 35.53 25.96 35.6 25.91 35.67C25.85 35.75 25.79 35.83 25.73 35.91C25.69 35.96 25.66 36 25.62 36.04C25.56 36.11 25.51 36.17 25.46 36.23C25.41 36.3 25.36 36.35 25.3 36.41C25.17 36.56 25.04 36.69 24.93 36.8C24.78 36.94 24.66 37.06 24.56 37.14C24.39 37.29 24.28 37.36 24.28 37.36L23.87 37.26L23.8 37.24L23.64 37.2H23.6L23.03 37.21L22.16 37.25L18.67 37.39L15.18 37.25L14.3 37.21L13.73 37.19H13.69V37.2L13.53 37.24L13.45 37.26L13.05 37.36C13.05 37.36 12.95 37.29 12.77 37.14C12.73 37.1 12.69 37.07 12.64 37.02C12.62 37.01 12.61 37 12.6 36.99C12.54 36.93 12.47 36.87 12.4 36.8L12.31 36.72C12.25 36.66 12.19 36.59 12.12 36.52C12.09 36.49 12.06 36.45 12.02 36.42C11.98 36.38 11.95 36.34 11.92 36.3C11.9 36.28 11.88 36.26 11.87 36.24C11.82 36.18 11.76 36.11 11.71 36.04C11.64 35.95 11.57 35.86 11.5 35.77C11.42 35.68 11.35 35.57 11.28 35.46C10.82 34.81 10.35 33.97 9.96002 32.93L12.47 32.18L12.78 32.09C13.03 32.51 13.22 32.8 13.25 32.83C13.47 32.48 13.59 32.14 13.67 31.83L14.34 31.63L18.56 30.37L21.41 29.52L22.32 29.25C22.35 29.36 22.39 29.47 22.44 29.59C24.06 30.29 23.24 31.41 24.14 32.83C24.24 32.72 26.01 30.01 26.32 28.06L26.54 27.99L28.3 27.47H28.34L28.29 27.46Z" fill="#D66142"/>
<g style="mix-blend-mode:color-burn" opacity="0.2">
<path d="M18.65 34.57H18.07L18.33 32.5C18.44 32.5 18.54 32.5 18.65 32.49V34.57Z" fill="#616161"/>
</g>
<g style="mix-blend-mode:color-burn" opacity="0.2">
<path d="M18.65 41.57H24.67C23.68 40.18 22.29 38.75 20.76 38.75H20.74C20.2 38.05 19.49 37.63 18.72 37.63C18.7 37.63 18.68 37.63 18.66 37.63V41.56L18.65 41.57Z" fill="#616161"/>
</g>
<g style="mix-blend-mode:color-burn" opacity="0.2">
<path d="M18.65 34.57H19.22L18.96 32.5C18.85 32.5 18.75 32.5 18.64 32.49V34.57H18.65Z" fill="#616161"/>
</g>
<g style="mix-blend-mode:color-burn" opacity="0.2">
<path d="M20.74 32.83C23.65 33.47 25.23 34.45 26.05 35.46C25.45 36.32 24.87 36.87 24.55 37.15L20.74 32.83Z" fill="#616161"/>
</g>
<path d="M18.65 38.49C18.65 38.49 18.69 38.49 18.71 38.49C19 38.49 19.28 38.55 19.54 38.66C19.56 38.59 19.57 38.52 19.57 38.45V38.08C19.3 37.96 19.01 37.9 18.71 37.9C18.69 37.9 18.67 37.9 18.65 37.9V38.5V38.49Z" fill="#FDD8AB"/>
<path d="M18.65 39.33C18.65 39.33 18.67 39.33 18.68 39.33C19.1 39.33 19.44 39.04 19.54 38.65C19.28 38.54 19 38.48 18.71 38.48C18.69 38.48 18.67 38.48 18.65 38.48V39.32V39.33Z" fill="#FDD8AB"/>
<path d="M13.54 37.47L15.08 37.49L17.73 37.52V38.07C18 37.95 18.29 37.89 18.59 37.89C18.61 37.89 18.63 37.89 18.65 37.89C18.65 37.89 18.69 37.89 18.71 37.89C19.01 37.89 19.3 37.95 19.57 38.07V37.52L22.22 37.49L23.76 37.47C24.03 37 23.91 36.95 23.91 36.41C23.91 35.06 22.98 33.87 21.56 33.16C21.56 33.16 21.55 33.16 21.54 33.16C21.29 33.04 21.02 32.93 20.74 32.84C20.19 32.66 19.59 32.55 18.97 32.51C18.93 32.51 18.9 32.51 18.87 32.51C18.8 32.51 18.73 32.51 18.66 32.51C18.59 32.51 18.52 32.51 18.45 32.51C18.42 32.51 18.38 32.51 18.35 32.51C17.72 32.54 17.12 32.66 16.58 32.84C16.3 32.93 16.03 33.04 15.77 33.16C15.77 33.16 15.77 33.16 15.75 33.16C14.33 33.87 13.4 35.06 13.4 36.41C13.4 36.95 13.28 37 13.55 37.47H13.54Z" fill="#FDD8AB"/>
<path d="M18.65 38.49C18.65 38.49 18.61 38.49 18.59 38.49C18.3 38.49 18.02 38.55 17.76 38.66C17.74 38.59 17.73 38.52 17.73 38.45V38.08C18 37.96 18.29 37.9 18.59 37.9C18.61 37.9 18.63 37.9 18.65 37.9V38.5V38.49Z" fill="#FDD8AB"/>
<path d="M18.65 39.33C18.65 39.33 18.63 39.33 18.62 39.33C18.2 39.33 17.85 39.04 17.76 38.65C18.02 38.54 18.3 38.48 18.59 38.48C18.61 38.48 18.63 38.48 18.65 38.48V39.32V39.33Z" fill="#FDD8AB"/>
<g style="mix-blend-mode:color-burn" opacity="0.2">
<path d="M16.56 32.83L14.98 34.62L14.88 34.73L13.64 36.13L13.38 36.42L12.74 37.15C12.74 37.15 12.66 37.08 12.61 37.03C12.59 37.02 12.58 37.01 12.57 37C12.51 36.94 12.44 36.88 12.37 36.81C12.37 36.81 12.31 36.75 12.28 36.73C12.22 36.67 12.16 36.6 12.09 36.53C12.06 36.5 12.03 36.46 11.99 36.43C11.95 36.39 11.92 36.35 11.89 36.31C11.87 36.29 11.86 36.27 11.84 36.25C11.79 36.19 11.73 36.12 11.68 36.05C11.61 35.96 11.54 35.87 11.47 35.78C11.39 35.69 11.32 35.58 11.25 35.47C12.08 34.47 13.66 33.48 16.57 32.84L16.56 32.83Z" fill="#616161"/>
</g>
<path d="M16.56 32.83L14.86 36.11L14.28 37.23L14.15 37.49L12.03 41.58C12.03 41.58 10.87 40.24 10.86 38.48C10.86 38.3 10.87 38.12 10.9 37.93C10.98 37.33 11.22 36.69 11.68 36.05C12.12 35.44 12.76 34.83 13.68 34.24C13.73 34.2 13.79 34.17 13.85 34.13C14.41 33.79 15.06 33.45 15.83 33.13C15.98 33.07 16.14 33 16.3 32.94C16.39 32.91 16.47 32.87 16.56 32.84V32.83Z" fill="#EBEBEB"/>
<path d="M20.74 32.83C21.82 33.24 22.72 33.67 23.45 34.12C23.51 34.16 23.57 34.19 23.62 34.23C25.5 35.44 26.23 36.75 26.39 37.92C26.42 38.11 26.43 38.29 26.43 38.47C26.43 40.23 25.27 41.57 25.27 41.57L20.74 32.84V32.83Z" fill="#EBEBEB"/>
<g style="mix-blend-mode:color-burn" opacity="0.2">
<path d="M21.36 29.52L22.27 29.25C22.3 29.36 22.34 29.47 22.39 29.59C24.01 30.29 23.19 31.41 24.1 32.83C24.2 32.72 25.97 30.01 26.27 28.05L26.49 27.99C26.95 30.03 23.87 33.45 23.87 33.45C23.87 33.45 22.49 30.03 21.37 29.52H21.36Z" fill="#616161"/>
</g>
<g style="mix-blend-mode:color-burn" opacity="0.2">
<path d="M14.29 31.63C13.79 32.57 13.43 33.45 13.43 33.45C13.43 33.45 12.97 32.94 12.42 32.18L12.73 32.09C12.98 32.51 13.17 32.8 13.2 32.83C13.42 32.48 13.54 32.14 13.62 31.83L14.29 31.63Z" fill="#616161"/>
</g>
<path d="M24.55 36.37L24 35.65L24.25 36.52L24.55 36.37Z" fill="#333333"/>
<path d="M22.66 34.61L22.11 33.88L22.36 34.76L22.66 34.61Z" fill="#333333"/>
<path d="M25.54 40.71L24.99 39.98L25.24 40.85L25.54 40.71Z" fill="#333333"/>
<path d="M24.82 39.18L24.27 38.46L24.52 39.33L24.82 39.18Z" fill="#333333"/>
<path d="M24.1 37.6601L23.55 36.9301L23.8 37.8101L24.1 37.6601Z" fill="#333333"/>
<path d="M23.38 36.13L22.83 35.41L23.08 36.28L23.38 36.13Z" fill="#333333"/>
<path d="M23.45 34.12C23.51 34.16 23.57 34.19 23.62 34.23L23.94 34.65L23.64 34.8L23.45 34.12Z" fill="#333333"/>
<path d="M25.99 39.4199L25.44 38.6899L25.69 39.5699L25.99 39.4199Z" fill="#333333"/>
<path d="M25.27 37.9L24.72 37.17L24.97 38.04L25.27 37.9Z" fill="#333333"/>
<path d="M26.16 37.61L26.39 37.92C26.42 38.11 26.43 38.29 26.43 38.47H26.4L26.15 37.61H26.16Z" fill="#333333"/>
<path d="M25.67 36.53L25.12 35.8L25.37 36.67L25.67 36.53Z" fill="#333333"/>
<path d="M12.75 36.37L13.3 35.65L13.05 36.52L12.75 36.37Z" fill="#333333"/>
<path d="M14.64 34.61L15.19 33.88L14.94 34.76L14.64 34.61Z" fill="#333333"/>
<path d="M11.76 40.71L12.31 39.98L12.06 40.85L11.76 40.71Z" fill="#333333"/>
<path d="M12.48 39.18L13.03 38.46L12.78 39.33L12.48 39.18Z" fill="#333333"/>
<path d="M13.2 37.6601L13.75 36.9301L13.5 37.8101L13.2 37.6601Z" fill="#333333"/>
<path d="M13.92 36.13L14.47 35.41L14.22 36.28L13.92 36.13Z" fill="#333333"/>
<path d="M13.85 34.12C13.79 34.16 13.73 34.19 13.68 34.23L13.36 34.65L13.66 34.8L13.85 34.12Z" fill="#333333"/>
<path d="M11.31 39.4199L11.86 38.6899L11.61 39.5699L11.31 39.4199Z" fill="#333333"/>
<path d="M12.03 37.9L12.58 37.17L12.33 38.04L12.03 37.9Z" fill="#333333"/>
<path d="M11.14 37.61L10.89 38.49L10.86 38.47C10.86 38.29 10.87 38.11 10.9 37.92L11.14 37.61Z" fill="#333333"/>
<path d="M11.63 36.53L12.18 35.8L11.93 36.67L11.63 36.53Z" fill="#333333"/>
<path d="M26.18 45.04L20.8 50.47L20.67 50.61L20.65 50.63L20.51 50.77L18.64 52.74L18.18 52.25L16.77 50.76L16.63 50.62V50.6L16.48 50.46L11.1 45.03C11.1 45.03 11.97 43.11 13.31 41.55C14.21 40.5 15.33 39.61 16.54 39.59H16.56C16.56 39.59 16.61 39.6 16.64 39.6C16.24 40.12 15.92 40.79 15.74 41.55C15.62 42.05 15.55 42.58 15.55 43.15C15.55 45.14 16.38 46.85 17.56 47.52C17.85 47.49 18.12 47.36 18.33 47.17C18.37 47.14 18.41 47.09 18.45 47.05C18.52 46.97 18.59 46.87 18.64 46.77C18.69 46.88 18.75 46.98 18.83 47.06C18.87 47.1 18.9 47.14 18.95 47.18C19.16 47.37 19.42 47.5 19.72 47.53C20.89 46.86 21.73 45.15 21.73 43.16C21.73 42.6 21.67 42.06 21.54 41.56C21.36 40.8 21.05 40.13 20.64 39.61C20.67 39.61 20.69 39.61 20.72 39.6H20.74C21.95 39.62 23.07 40.51 23.97 41.56C25.31 43.12 26.17 45.04 26.17 45.04H26.18Z" fill="#D66142"/>
<g style="mix-blend-mode:color-burn" opacity="0.2">
<path d="M18.65 47.85L17.2 49.77L18.65 51.73V51.74V51.73L20.1 49.77L18.65 47.85V47.84V47.85Z" fill="#616161"/>
</g>
<path d="M20.81 50.47L20.67 50.6L20.66 50.62L20.06 49.82L19.86 49.56L18.65 51.18L17.44 49.56L17.24 49.82L16.64 50.62L16.63 50.6L16.49 50.47L18.65 47.6V47.59V47.6L20.81 50.47Z" fill="#FFD675"/>
<g style="mix-blend-mode:color-burn" opacity="0.2">
<path d="M18.65 48.56L17.93 49.51L18.65 50.46V50.47V50.46L19.37 49.51L18.65 48.56V48.55V48.56V48.55V48.56Z" fill="#616161"/>
</g>
<path d="M17.57 47.53C18.04 47.48 18.44 47.19 18.65 46.78C18.85 47.19 19.25 47.48 19.73 47.53C20.9 46.86 21.74 45.15 21.74 43.16C21.74 41.74 21.32 40.47 20.65 39.62C20.65 39.62 20.65 39.62 20.64 39.61C20.3 39.17 19.89 38.84 19.45 38.66C19.2 38.56 18.93 38.5 18.66 38.49C18.38 38.49 18.12 38.55 17.86 38.66C17.42 38.84 17.01 39.17 16.67 39.61C16.67 39.61 16.67 39.62 16.67 39.63C16.01 40.49 15.58 41.76 15.58 43.17C15.58 45.17 16.41 46.87 17.59 47.54L17.57 47.53Z" fill="#FDD8AB"/>
<path d="M20.96 43.43C20.96 43.43 20.98 43.36 20.98 43.32C20.98 43.08 20.68 42.89 20.32 42.89C19.96 42.89 19.66 43.08 19.66 43.32C19.66 43.36 19.66 43.39 19.68 43.43H20.95H20.96Z" fill="#333333"/>
<path d="M16.34 43.43C16.34 43.43 16.32 43.36 16.32 43.32C16.32 43.08 16.61 42.89 16.98 42.89C17.35 42.89 17.64 43.08 17.64 43.32C17.64 43.36 17.64 43.39 17.62 43.43H16.35H16.34Z" fill="#333333"/>
<path d="M17.79 40.19H19.51C19.34 39.96 19.02 39.81 18.65 39.8C18.28 39.8 17.97 39.96 17.79 40.19Z" fill="#D66142"/>
<path d="M18.65 40.24C19.04 40.7 19.59 40.12 19.59 40.12H17.7C17.7 40.12 18.25 40.7 18.65 40.24Z" fill="#D66B4F"/>
<g style="mix-blend-mode:color-burn" opacity="0.2">
<path d="M18.65 42.7V42.72V42.71V42.72V42.7L19.15 41.12H18.65H18.15L18.65 42.7Z" fill="#616161"/>
</g>
<path d="M17.7 44.37L16.4 44.3H16.38L16.37 44.29L15.85 43.73L16.43 44.24L16.4 44.22L17.7 44.16V44.37Z" fill="#D66142"/>
<path d="M19.48 44.16L20.79 44.22L20.76 44.24L21.33 43.73L20.82 44.29L20.81 44.3H20.79L19.48 44.37V44.16Z" fill="#D66142"/>
<g style="mix-blend-mode:color-burn" opacity="0.2">
<path d="M20.74 32.8299C21.02 32.9399 21.29 33.0499 21.54 33.1499C21.54 33.1499 21.55 33.1499 21.56 33.1499C22.98 33.8599 23.91 35.0499 23.91 36.3999C23.91 36.9399 24.03 36.9899 23.76 37.4599L22.22 37.4799L20.74 32.8199V32.8299Z" fill="#616161"/>
</g>
<g style="mix-blend-mode:color-burn" opacity="0.2">
<path d="M17.76 38.65C18.02 38.54 18.3 38.48 18.59 38.48C18.61 38.48 18.63 38.48 18.65 38.48C18.65 38.48 18.69 38.48 18.71 38.48C19 38.48 19.28 38.54 19.54 38.65C19.56 38.58 19.57 38.51 19.57 38.44V38.07C19.3 37.95 19.01 37.89 18.71 37.89C18.69 37.89 18.67 37.89 18.65 37.89C18.63 37.89 18.61 37.89 18.59 37.89C18.29 37.89 18 37.95 17.73 38.07V38.44C17.73 38.51 17.74 38.58 17.76 38.65Z" fill="#616161"/>
</g>
<g style="mix-blend-mode:color-burn" opacity="0.2">
<path d="M18.2 34.48H19.09L18.86 32.5C18.79 32.5 18.72 32.5 18.65 32.5C18.58 32.5 18.51 32.5 18.44 32.5L18.21 34.48H18.2Z" fill="#616161"/>
</g>
<g style="mix-blend-mode:color-burn" opacity="0.2">
<path d="M16.56 32.8299C16.28 32.9399 16.01 33.0499 15.75 33.1499C15.75 33.1499 15.75 33.1499 15.73 33.1499C14.31 33.8599 13.38 35.0499 13.38 36.3999C13.38 36.9399 13.26 36.9899 13.53 37.4599L15.07 37.4799L16.55 32.8199L16.56 32.8299Z" fill="#616161"/>
</g>
<g style="mix-blend-mode:color-burn" opacity="0.2">
<path d="M18.65 30.35V52.63L18.19 52.24L16.78 50.75L16.64 50.61V50.59L16.49 50.45L11.11 45.02C11.11 45.02 11.98 43.1 13.32 41.54H12.03C12.03 41.54 10.87 40.2 10.86 38.44C10.86 38.26 10.87 38.08 10.9 37.89C10.98 37.29 11.22 36.65 11.68 36.01C11.61 35.92 11.54 35.83 11.47 35.74C11.39 35.65 11.32 35.54 11.25 35.43C10.79 34.78 10.32 33.94 9.92999 32.9L12.44 32.15L12.75 32.06C13 32.48 13.19 32.77 13.22 32.8C13.44 32.45 13.56 32.11 13.64 31.8L14.31 31.6L18.53 30.34H18.67L18.65 30.35Z" fill="#616161"/>
</g>
</svg>
