<svg width="41" height="57" viewBox="0 0 41 57" fill="none" xmlns="http://www.w3.org/2000/svg">
<path d="M4.81994 56.13C2.47994 56.13 0.569937 54.26 0.559937 51.96L0.439941 4.88999C0.439941 2.56999 2.33994 0.689991 4.68994 0.699991L35.7999 0.759996C38.1399 0.759996 40.0499 2.64999 40.0499 4.95999V51.93C40.0499 54.23 38.1499 56.1 35.8199 56.1L4.81994 56.14V56.13Z" fill="#C9C9C9"/>
<path d="M4.85003 56.0099C2.54003 56.0099 0.660034 54.1299 0.660034 51.8299V4.86994C0.660034 2.56994 2.54003 0.689941 4.85003 0.689941H35.51C37.82 0.689941 39.7 2.55994 39.7 4.86994V51.8299C39.7 54.1299 37.82 56.0099 35.51 56.0099H4.85003Z" fill="white"/>
<path d="M35.86 55.13H5.19995C3.40995 55.13 1.94995 53.68 1.94995 51.89V4.93001C1.94995 3.22001 3.30996 1.82001 4.03996 1.55001L4.14996 1.51001H34.97C38.02 1.75001 39.1 3.43001 39.1 4.93001V51.89C39.1 53.67 37.64 55.13 35.85 55.13H35.86ZM4.41995 2.80001C4.08995 3.01001 3.23995 3.87001 3.23995 4.94001V51.9C3.23995 52.98 4.11995 53.85 5.20995 53.85H35.8699C36.9499 53.85 37.84 52.97 37.84 51.9V4.94001C37.84 3.75001 36.75 2.95001 34.91 2.80001H4.42995H4.41995Z" fill="#D66142"/>
<path d="M7.98003 6.51005C7.98003 6.72005 7.93003 6.95004 7.82003 7.21004C7.72003 7.47004 7.59003 7.67005 7.45003 7.82005C7.40003 7.88005 7.30003 7.96005 7.17003 8.07005C6.97003 8.23005 6.77003 8.37005 6.56003 8.50005C6.50003 8.54005 6.46003 8.56005 6.43003 8.58005C6.34003 8.64005 6.29003 8.68004 6.29003 8.71004C6.29003 8.76004 6.43003 8.84004 6.72003 8.96004C6.98003 9.06004 7.17003 9.13005 7.30003 9.16005C7.32003 9.16005 7.34003 9.16005 7.39003 9.16005H7.60003C7.60003 9.16005 7.67003 9.16005 7.71003 9.18005C7.68003 9.20005 7.64003 9.23004 7.57003 9.27004C7.50003 9.30004 7.43003 9.34005 7.35003 9.37005C7.25003 9.46005 7.17003 9.53005 7.12003 9.57005C7.07003 9.62005 7.02003 9.64005 6.99003 9.64005C6.90003 9.64005 6.74003 9.54005 6.53003 9.33005C6.32003 9.12005 6.11003 9.02004 5.92003 9.02004C5.80003 9.02004 5.68003 9.06005 5.56003 9.16005C5.45003 9.25005 5.37003 9.30005 5.35003 9.30005C5.30003 9.30005 5.28003 9.27004 5.28003 9.20004C5.28003 9.16004 5.35003 9.08005 5.49003 8.98005C5.58003 8.91005 5.67003 8.84004 5.76003 8.78004C5.54003 8.65004 5.32003 8.52005 5.12003 8.37005C4.92003 8.23005 4.74003 8.05004 4.58003 7.85004C4.44003 7.67004 4.34003 7.47004 4.27003 7.27004C4.20003 7.07004 4.16003 6.85005 4.16003 6.64005C4.16003 6.31005 4.22003 6.04005 4.35003 5.83005C4.40003 5.75005 4.55003 5.58005 4.81003 5.32005C4.89003 5.24005 5.09003 5.07005 5.42003 4.80005C5.83003 4.47005 6.07003 4.30005 6.15003 4.30005C6.22003 4.30005 6.36003 4.37005 6.56003 4.51005C6.80003 4.68005 7.08003 4.93005 7.40003 5.25005C7.60003 5.45005 7.75003 5.65004 7.84003 5.85004C7.93003 6.05004 7.98003 6.27004 7.98003 6.52004V6.51005ZM6.95003 7.08005C6.95003 6.90005 6.91003 6.69004 6.83003 6.46004C6.75003 6.24004 6.64003 6.02005 6.50003 5.83005C6.39003 5.67005 6.19003 5.48004 5.89003 5.27004C5.79003 5.20004 5.66003 5.10004 5.48003 4.99004C5.41003 4.99004 5.33003 5.11004 5.22003 5.35004C5.12003 5.59004 5.06003 5.75005 5.06003 5.82005C5.06003 6.15005 5.13003 6.46004 5.27003 6.74004C5.39003 6.98004 5.57003 7.22005 5.82003 7.48005C5.92003 7.59005 6.17003 7.82004 6.56003 8.17004C6.69003 8.04004 6.80003 7.85004 6.86003 7.59004C6.91003 7.40004 6.94003 7.22005 6.94003 7.07005L6.95003 7.08005Z" fill="#333333"/>
<path d="M33.24 50.84C33.24 50.63 33.29 50.4 33.4 50.14C33.5 49.88 33.63 49.68 33.77 49.53C33.82 49.47 33.91 49.39 34.05 49.28C34.24 49.12 34.45 48.98 34.66 48.86C34.72 48.82 34.77 48.8 34.79 48.78C34.88 48.72 34.93 48.68 34.93 48.65C34.93 48.6 34.79 48.52 34.5 48.4C34.24 48.29 34.05 48.23 33.92 48.2C33.9 48.2 33.87 48.2 33.83 48.2H33.62C33.62 48.2 33.55 48.2 33.51 48.18C33.53 48.16 33.58 48.13 33.65 48.09C33.72 48.06 33.79 48.02 33.86 47.99C33.96 47.9 34.04 47.83 34.09 47.79C34.14 47.74 34.19 47.72 34.22 47.72C34.31 47.72 34.47 47.82 34.68 48.03C34.9 48.24 35.1 48.34 35.29 48.34C35.41 48.34 35.53 48.29 35.65 48.2C35.77 48.11 35.83 48.06 35.86 48.06C35.91 48.06 35.93 48.09 35.93 48.16C35.93 48.2 35.86 48.28 35.72 48.38C35.63 48.45 35.54 48.52 35.45 48.58C35.67 48.71 35.89 48.85 36.09 48.99C36.29 49.13 36.48 49.31 36.63 49.51C36.77 49.69 36.87 49.89 36.95 50.09C37.02 50.29 37.06 50.51 37.06 50.73C37.06 51.06 37 51.33 36.87 51.54C36.82 51.62 36.67 51.79 36.41 52.05C36.33 52.13 36.13 52.3 35.8 52.57C35.39 52.9 35.15 53.07 35.07 53.07C35 53.07 34.86 53 34.66 52.86C34.42 52.69 34.14 52.44 33.82 52.12C33.62 51.92 33.47 51.72 33.38 51.52C33.29 51.32 33.24 51.1 33.24 50.85V50.84ZM34.27 50.27C34.27 50.46 34.31 50.66 34.39 50.89C34.47 51.11 34.58 51.33 34.72 51.53C34.83 51.69 35.03 51.88 35.33 52.09C35.43 52.16 35.56 52.26 35.74 52.37C35.81 52.37 35.9 52.25 36 52.01C36.1 51.77 36.15 51.61 36.15 51.54C36.15 51.21 36.08 50.9 35.94 50.62C35.82 50.38 35.64 50.13 35.39 49.88C35.29 49.77 35.04 49.54 34.65 49.19C34.52 49.32 34.42 49.51 34.35 49.77C34.3 49.97 34.27 50.14 34.27 50.29V50.27Z" fill="#333333"/>
<path d="M26.5 16.38L26.44 17.22L26.4 17.73L26.24 19.91L26.21 20.42L26.16 21.12L26.11 21.76L25.61 21.77L25.38 21.78L24.89 21.79L24.61 21.8H24.28L23.68 21.81L23.02 21.83L19.92 21.89H19.91L16.8 21.83L16.14 21.81L15.55 21.8H15.21L14.94 21.79L14.69 21.78H14.45L14.21 21.77L13.71 21.76L13.67 21.12L13.62 20.42L13.58 19.91L13.43 17.73L13.39 17.22L13.33 16.38H26.5Z" fill="#C9C9C9"/>
<g style="mix-blend-mode:color-burn" opacity="0.2">
<path d="M25.9 16.38L22 19.18H21.98C21.65 19.61 21.25 19.93 20.82 20.12C20.55 20.24 20.26 20.3 19.97 20.3C19.95 20.3 19.93 20.3 19.91 20.3V16.39H25.9V16.38Z" fill="#616161"/>
</g>
<path d="M28.6 24.97L26.1 25.71L25.87 25.78L25.8 25.8C25.6 25.47 25.45 25.23 25.38 25.12C25.36 25.09 25.34 25.06 25.33 25.06C25.33 25.06 25.33 25.07 25.32 25.08C25.32 25.09 25.31 25.1 25.3 25.11C25.1 25.45 24.99 25.76 24.92 26.06L24.25 26.26L19.92 27.55L17.22 28.35L16.32 28.62C16.29 28.51 16.25 28.4 16.21 28.28C14.65 27.61 15.36 26.54 14.6 25.19C14.6 25.17 14.58 25.16 14.56 25.14C14.55 25.11 14.53 25.08 14.51 25.05C14.42 25.17 12.65 27.86 12.35 29.81L12.13 29.87L10.38 30.39H10.34C10.31 26.54 11.48 23.98 12.56 22.43C12.64 22.32 12.71 22.22 12.79 22.12C12.86 22.03 12.93 21.94 13 21.86C13.06 21.79 13.11 21.72 13.16 21.66C13.21 21.6 13.26 21.54 13.31 21.48C13.44 21.33 13.57 21.21 13.68 21.1C13.71 21.07 13.74 21.05 13.77 21.02C13.8 20.99 13.82 20.97 13.85 20.95C13.88 20.93 13.9 20.9 13.93 20.88C13.98 20.84 14.02 20.8 14.06 20.77C14.23 20.62 14.34 20.55 14.34 20.55L14.75 20.65L14.82 20.67L14.98 20.71H15.02L15.59 20.69L16.46 20.66L17.39 20.62L19.94 20.52L22.54 20.63L23.42 20.66L24.29 20.69L24.85 20.72H24.9L25.06 20.67L25.13 20.65L25.53 20.55C25.53 20.55 25.64 20.62 25.81 20.77C25.85 20.8 25.9 20.84 25.95 20.88C25.97 20.9 26 20.93 26.02 20.95C26.05 20.97 26.07 21 26.1 21.02C26.13 21.05 26.16 21.08 26.18 21.1C26.18 21.1 26.23 21.16 26.26 21.18C26.29 21.21 26.32 21.24 26.36 21.27C26.42 21.33 26.49 21.4 26.55 21.48C26.6 21.53 26.63 21.57 26.68 21.63C26.68 21.64 26.69 21.65 26.7 21.66C26.76 21.72 26.81 21.78 26.86 21.84C26.93 21.93 27 22.02 27.07 22.11C27.14 22.21 27.22 22.31 27.29 22.42C27.74 23.07 28.22 23.91 28.61 24.94L28.6 24.97Z" fill="#FDD8AB"/>
<g style="mix-blend-mode:color-burn" opacity="0.2">
<path d="M19.91 23.34H20.48L20.23 25.4C20.13 25.4 20.02 25.4 19.91 25.41V23.34Z" fill="#616161"/>
</g>
<g style="mix-blend-mode:color-burn" opacity="0.2">
<path d="M19.9201 16.38H13.9301L17.8301 19.18H17.8501C17.8501 19.18 19.0901 20.29 19.8601 20.29C19.8801 20.29 19.9001 20.29 19.9201 20.29V16.38Z" fill="#616161"/>
</g>
<g style="mix-blend-mode:color-burn" opacity="0.2">
<path d="M19.92 23.34H19.35L19.61 25.4C19.71 25.4 19.82 25.4 19.93 25.41V23.34H19.92Z" fill="#616161"/>
</g>
<g style="mix-blend-mode:color-burn" opacity="0.2">
<path d="M17.83 25.07C14.94 24.43 13.36 23.46 12.54 22.45C13.14 21.59 13.71 21.05 14.04 20.77L17.83 25.07Z" fill="#616161"/>
</g>
<path d="M25.15 21.51C25.15 22.24 24.88 22.92 24.4 23.51C24 24 23.46 24.42 22.81 24.75C22.81 24.75 22.81 24.75 22.79 24.75C22.54 24.87 22.27 24.98 21.99 25.07C21.44 25.25 20.85 25.37 20.22 25.4C20.19 25.4 20.15 25.4 20.12 25.4C20.05 25.4 19.98 25.4 19.91 25.4C19.84 25.4 19.77 25.4 19.7 25.4C19.66 25.4 19.63 25.4 19.6 25.4C18.98 25.36 18.38 25.25 17.83 25.07C17.55 24.98 17.28 24.87 17.03 24.75C17.03 24.75 17.0267 24.75 17.02 24.75C16.38 24.43 15.83 24.01 15.44 23.52C14.96 22.93 14.68 22.25 14.68 21.52C14.68 20.98 14.56 20.94 14.83 20.47L16.37 20.45L19 20.42V19.88C19.27 20 19.56 20.07 19.86 20.07C19.88 20.07 19.9 20.07 19.92 20.07C19.92 20.07 19.96 20.07 19.98 20.07C20.28 20.07 20.56 20.01 20.83 19.88V20.42L23.46 20.45L25 20.47C25.27 20.94 25.15 20.98 25.15 21.52V21.51Z" fill="#FDD8AB"/>
<g style="mix-blend-mode:color-burn" opacity="0.2">
<path d="M24.99 20.4599L23.45 20.4399L22.72 22.7499C22.54 22.7199 22.35 22.6999 22.16 22.6999C21.06 22.6799 19.93 23.6499 19.93 23.6499C19.93 23.6499 18.73 22.6899 17.66 22.6899C17.46 22.6899 17.27 22.7099 17.08 22.7399L16.35 20.4399L14.81 20.4599C14.54 20.9299 14.66 20.9699 14.66 21.5099C14.66 22.2399 14.94 22.9199 15.42 23.5099C15.45 23.5499 15.49 23.5899 15.53 23.6299C15.58 23.6899 15.64 23.7499 15.7 23.8099C15.77 23.8799 15.85 23.9499 15.93 24.0199C15.98 24.0599 16.03 24.1099 16.08 24.1499C16.18 24.2299 16.29 24.3099 16.4 24.3799C16.44 24.4099 16.48 24.4399 16.51 24.4599C16.67 24.5599 16.83 24.6499 17 24.7399C17 24.7399 17.0067 24.7399 17.02 24.7399C17.27 24.8599 17.54 24.9699 17.82 25.0599C18.37 25.2399 18.96 25.3599 19.59 25.3899C19.62 25.3899 19.66 25.3899 19.69 25.3899C19.76 25.3899 19.83 25.3899 19.9 25.3899C19.97 25.3899 20.04 25.3899 20.11 25.3899C20.14 25.3899 20.18 25.3899 20.21 25.3899C20.83 25.3499 21.43 25.2399 21.98 25.0599C22.26 24.9699 22.53 24.8599 22.78 24.7399C22.78 24.7399 22.79 24.7399 22.8 24.7399C22.97 24.6499 23.14 24.5599 23.3 24.4599C23.33 24.4399 23.36 24.4199 23.39 24.3999C23.51 24.3199 23.63 24.2399 23.74 24.1499C23.79 24.1099 23.84 24.0599 23.9 24.0099C23.98 23.9399 24.05 23.8799 24.12 23.8099C24.18 23.7499 24.24 23.6799 24.3 23.6099C24.33 23.5699 24.37 23.5399 24.4 23.4999C24.88 22.9199 25.16 22.2399 25.16 21.5099C25.16 20.9699 25.28 20.9199 25.01 20.4599H24.99Z" fill="#616161"/>
</g>
<path d="M20.83 19.49V19.86C20.56 19.98 20.27 20.05 19.98 20.05C19.96 20.05 19.94 20.05 19.92 20.05C19.9 20.05 19.88 20.05 19.86 20.05C19.56 20.05 19.28 19.99 19 19.86V19.49C19 19.42 19.01 19.35 19.03 19.28C19.04 19.23 19.05 19.19 19.08 19.14C19.22 18.82 19.53 18.6 19.89 18.6C19.89 18.6 19.91 18.6 19.92 18.6H19.94C20.28 18.6 20.57 18.79 20.72 19.07C20.75 19.13 20.79 19.21 20.8 19.28C20.82 19.35 20.83 19.42 20.83 19.49Z" fill="#FDD8AB"/>
<g style="mix-blend-mode:color-burn" opacity="0.2">
<path d="M20.83 19.4901V19.8601C20.56 19.9801 20.27 20.0501 19.98 20.0501C19.96 20.0501 19.94 20.0501 19.92 20.0501C19.9 20.0501 19.88 20.0501 19.86 20.0501C19.56 20.0501 19.28 19.9901 19 19.8601V19.4901C19 19.4201 19.01 19.3501 19.03 19.2801C19.04 19.2301 19.05 19.1901 19.08 19.1401C19.42 19.3101 19.74 19.4401 19.86 19.4401C19.88 19.4401 19.9 19.4401 19.92 19.4401C19.92 19.4401 19.96 19.4401 19.98 19.4401C20.09 19.4401 20.4 19.2701 20.72 19.0601C20.75 19.1201 20.79 19.2001 20.8 19.2701C20.82 19.3401 20.83 19.4101 20.83 19.4801V19.4901Z" fill="#616161"/>
</g>
<g style="mix-blend-mode:color-burn" opacity="0.2">
<path d="M27.28 22.46C26.46 23.46 24.89 24.44 21.99 25.08L23.56 23.3L23.66 23.19L24.89 21.8L25.15 21.51L25.78 20.79C25.78 20.79 25.87 20.86 25.91 20.9C25.93 20.92 25.96 20.95 25.98 20.97C26.01 20.99 26.03 21.02 26.06 21.04C26.09 21.07 26.11 21.09 26.14 21.12C26.14 21.12 26.19 21.17 26.22 21.21C26.25 21.24 26.28 21.27 26.31 21.3C26.37 21.37 26.44 21.43 26.5 21.51C26.54 21.56 26.59 21.6 26.63 21.66C26.63 21.66 26.65 21.68 26.66 21.69C26.71 21.75 26.76 21.81 26.82 21.88C26.89 21.97 26.96 22.06 27.03 22.15C27.11 22.25 27.18 22.35 27.25 22.46H27.28Z" fill="#616161"/>
</g>
<path d="M27.66 19.47C27.66 19.65 27.65 19.83 27.62 20.02C27.54 20.61 27.31 21.25 26.85 21.88C26.41 22.49 25.77 23.1 24.86 23.68C24.81 23.72 24.75 23.75 24.69 23.79C24.16 24.12 23.54 24.44 22.82 24.74C22.8 24.74 22.79 24.76 22.78 24.76C22.77 24.76 22.75 24.77 22.74 24.78C22.69 24.8 22.65 24.81 22.61 24.83C22.48 24.88 22.35 24.94 22.21 24.99C22.14 25.02 22.08 25.04 22 25.07L23.69 21.81L24.27 20.7L24.4 20.45L26.51 16.38C26.51 16.38 27.67 17.71 27.67 19.47H27.66Z" fill="#EBEBEB"/>
<path d="M17.83 25.07C16.75 24.67 15.86 24.23 15.14 23.79C15.08 23.75 15.02 23.72 14.97 23.68C13.09 22.48 12.37 21.18 12.21 20.01C12.18 19.83 12.17 19.64 12.17 19.46C12.17 17.7 13.33 16.38 13.33 16.38L17.83 25.07Z" fill="#EBEBEB"/>
<path d="M14.04 21.55L14.59 22.27L14.34 21.4L14.04 21.55Z" fill="#333333"/>
<path d="M15.92 23.3L16.47 24.03L16.22 23.16L15.92 23.3Z" fill="#333333"/>
<path d="M13.0601 17.24L13.6001 17.96L13.3501 17.09L13.0601 17.24Z" fill="#333333"/>
<path d="M13.77 18.75L14.32 19.48L14.07 18.61L13.77 18.75Z" fill="#333333"/>
<path d="M14.49 20.27L15.03 20.99L14.79 20.12L14.49 20.27Z" fill="#333333"/>
<path d="M15.21 21.79L15.75 22.51L15.5 21.64L15.21 21.79Z" fill="#333333"/>
<path d="M15.14 23.79C15.08 23.75 15.02 23.72 14.97 23.68L14.65 23.26L14.95 23.11L15.14 23.79Z" fill="#333333"/>
<path d="M12.61 18.52L13.15 19.24L12.91 18.37L12.61 18.52Z" fill="#333333"/>
<path d="M13.33 20.03L13.87 20.76L13.63 19.89L13.33 20.03Z" fill="#333333"/>
<path d="M12.44 20.32L12.21 20.01C12.18 19.83 12.17 19.64 12.17 19.46H12.2L12.45 20.32H12.44Z" fill="#333333"/>
<path d="M12.9301 21.4L13.4701 22.12L13.2301 21.25L12.9301 21.4Z" fill="#333333"/>
<path d="M25.78 21.55L25.24 22.27L25.48 21.4L25.78 21.55Z" fill="#333333"/>
<path d="M23.9 23.3L23.36 24.03L23.6 23.16L23.9 23.3Z" fill="#333333"/>
<path d="M26.77 17.24L26.23 17.96L26.47 17.09L26.77 17.24Z" fill="#333333"/>
<path d="M26.05 18.75L25.51 19.48L25.76 18.61L26.05 18.75Z" fill="#333333"/>
<path d="M25.34 20.27L24.79 20.99L25.04 20.12L25.34 20.27Z" fill="#333333"/>
<path d="M24.62 21.79L24.08 22.51L24.32 21.64L24.62 21.79Z" fill="#333333"/>
<path d="M24.6899 23.79C24.7499 23.75 24.8099 23.72 24.8599 23.68L25.1799 23.26L24.8799 23.11L24.6899 23.79Z" fill="#333333"/>
<path d="M27.22 18.52L26.67 19.24L26.92 18.37L27.22 18.52Z" fill="#333333"/>
<path d="M26.5 20.03L25.96 20.76L26.2 19.89L26.5 20.03Z" fill="#333333"/>
<path d="M27.66 19.47C27.66 19.65 27.65 19.83 27.62 20.02L27.39 20.33L27.64 19.46H27.66V19.47Z" fill="#333333"/>
<path d="M26.9 21.4L26.35 22.12L26.6 21.25L26.9 21.4Z" fill="#333333"/>
<path d="M25.3001 25.1299C25.1001 25.4699 24.9901 25.7799 24.9201 26.0799L24.2501 26.2799L19.9201 27.5699L17.2201 28.3699L16.3201 28.6399C16.2901 28.5299 16.2501 28.4199 16.2101 28.2999C14.6501 27.6299 15.3601 26.5599 14.6001 25.2099C14.6001 25.1899 14.5801 25.1799 14.5601 25.1599C14.8201 24.6099 15.2201 24.1499 15.7201 23.8099C16.2801 23.4199 16.9601 23.1899 17.7001 23.1899C18.7701 23.1899 19.9701 24.1499 19.9701 24.1499C19.9701 24.1499 21.1001 23.1899 22.2001 23.2099C22.9101 23.2099 23.5901 23.4399 24.1501 23.8099C24.6501 24.1499 25.0601 24.5999 25.3201 25.1299H25.3001Z" fill="#D66142"/>
<path d="M27.33 9.96994C27.14 13.5699 19.91 19.0399 19.91 19.0399C19.91 19.0399 12.49 13.5299 12.49 9.91994C12.49 7.43994 14.52 5.43994 17 5.43994C18.39 5.43994 19.95 6.68994 19.95 6.68994C19.95 6.68994 21.42 5.43994 22.85 5.45994C25.34 5.48994 27.47 7.48994 27.33 9.96994Z" fill="#D66142"/>
<g style="mix-blend-mode:color-burn" opacity="0.2">
<path d="M17.21 28.37L16.3 28.64C16.27 28.53 16.23 28.42 16.19 28.3C14.57 27.61 15.39 26.49 14.49 25.07C14.39 25.18 12.63 27.88 12.33 29.82L12.11 29.89C11.64 27.86 14.99 24.3 14.99 24.3C14.99 24.3 16.09 27.85 17.2 28.36L17.21 28.37Z" fill="#616161"/>
</g>
<g style="mix-blend-mode:color-burn" opacity="0.2">
<path d="M26.1 25.7199L25.87 25.7899L25.8 25.8099C25.6 25.4799 25.45 25.2399 25.38 25.1299C25.36 25.0999 25.34 25.0799 25.34 25.0699C25.12 25.4299 25 25.7599 24.92 26.0699L24.25 26.2699C24.75 25.3399 24.79 24.1899 24.79 24.1899C24.79 24.1899 25.56 24.9599 26.1 25.7099V25.7199Z" fill="#616161"/>
</g>
<path d="M20.99 10.4401C20.15 10.4401 20.18 10.8101 19.98 11.2101C19.78 10.8001 19.68 10.4401 18.85 10.4401C18.02 10.4401 16.85 12.8001 16.85 14.7901C16.85 16.2001 17.27 17.4601 17.93 18.3201V18.3301C18.27 18.7601 18.67 19.0901 19.11 19.2701C19.36 19.3701 19.63 19.4301 19.9 19.4301C20.17 19.4301 20.44 19.3701 20.69 19.2601C21.13 19.0801 21.54 18.7501 21.88 18.3201C21.88 18.3201 21.88 18.3201 21.89 18.3101C22.55 17.4601 22.97 16.2001 22.97 14.7801C22.97 12.7901 21.99 10.5201 20.97 10.4301L20.99 10.4401Z" fill="#FDD8AB"/>
<path d="M17.61 14.52C17.61 14.52 17.59 14.59 17.59 14.63C17.59 14.87 17.88 15.06 18.24 15.06C18.6 15.06 18.9 14.87 18.9 14.63C18.9 14.59 18.9 14.56 18.88 14.52H17.62H17.61Z" fill="#333333"/>
<path d="M22.21 14.52C22.21 14.52 22.23 14.59 22.23 14.63C22.23 14.87 21.94 15.06 21.57 15.06C21.2 15.06 20.92 14.87 20.92 14.63C20.92 14.59 20.92 14.56 20.94 14.52H22.2H22.21Z" fill="#333333"/>
<path d="M20.7701 17.75H19.0601C19.2301 17.98 19.5501 18.13 19.9101 18.14C20.2701 18.14 20.5901 17.98 20.7601 17.75H20.7701Z" fill="#D66F53"/>
<path d="M19.91 17.7C19.52 17.24 18.97 17.82 18.97 17.82H20.85C20.85 17.82 20.3 17.24 19.91 17.7Z" fill="#D66142"/>
<g style="mix-blend-mode:color-burn" opacity="0.2">
<path d="M19.9201 15.25L19.4301 16.82C19.4301 16.82 19.6101 16.98 19.9001 16.98C20.1901 16.98 20.4201 16.82 20.4201 16.82L19.9301 15.25H19.9201Z" fill="#616161"/>
</g>
<path d="M20.85 13.59L22.15 13.66H22.17L22.18 13.67L22.7 14.23L22.13 13.72L22.15 13.73L20.85 13.8V13.59Z" fill="#D66142"/>
<path d="M19.08 13.8L17.79 13.73L17.81 13.72L17.24 14.23L17.76 13.67L17.77 13.66H17.78L19.08 13.59V13.8Z" fill="#D66142"/>
<path d="M25.3001 25.1299C25.1001 25.4699 24.9901 25.7799 24.9201 26.0799L24.2501 26.2799L19.9201 27.5699L17.2201 28.3699L16.3201 28.6399C16.2901 28.5299 16.2501 28.4199 16.2101 28.2999C14.6501 27.6299 15.3601 26.5599 14.6001 25.2099C14.6001 25.1899 14.5801 25.1799 14.5601 25.1599C14.8201 24.6099 15.2201 24.1499 15.7201 23.8099C16.2801 23.4199 16.9601 23.1899 17.7001 23.1899C18.7701 23.1899 19.9701 24.1499 19.9701 24.1499C19.9701 24.1499 21.1001 23.1899 22.2001 23.2099C22.9101 23.2099 23.5901 23.4399 24.1501 23.8099C24.6501 24.1499 25.0601 24.5999 25.3201 25.1299H25.3001Z" fill="#D66142"/>
<path d="M27.33 9.96994C27.14 13.5699 19.91 19.0399 19.91 19.0399C19.91 19.0399 12.49 13.5299 12.49 9.91994C12.49 7.43994 14.52 5.43994 17 5.43994C18.39 5.43994 19.95 6.68994 19.95 6.68994C19.95 6.68994 21.42 5.43994 22.85 5.45994C25.34 5.48994 27.47 7.48994 27.33 9.96994Z" fill="#D66142"/>
<g style="mix-blend-mode:color-burn" opacity="0.2">
<path d="M17.21 28.37L16.3 28.64C16.27 28.53 16.23 28.42 16.19 28.3C14.57 27.61 15.39 26.49 14.49 25.07C14.39 25.18 12.63 27.88 12.33 29.82L12.11 29.89C11.64 27.86 14.99 24.3 14.99 24.3C14.99 24.3 16.09 27.85 17.2 28.36L17.21 28.37Z" fill="#616161"/>
</g>
<g style="mix-blend-mode:color-burn" opacity="0.2">
<path d="M26.1 25.7199L25.87 25.7899L25.8 25.8099C25.6 25.4799 25.45 25.2399 25.38 25.1299C25.36 25.0999 25.34 25.0799 25.34 25.0699C25.12 25.4299 25 25.7599 24.92 26.0699L24.25 26.2699C24.75 25.3399 24.79 24.1899 24.79 24.1899C24.79 24.1899 25.56 24.9599 26.1 25.7099V25.7199Z" fill="#616161"/>
</g>
<path d="M20.99 10.4401C20.15 10.4401 20.18 10.8101 19.98 11.2101C19.78 10.8001 19.68 10.4401 18.85 10.4401C18.02 10.4401 16.85 12.8001 16.85 14.7901C16.85 16.2001 17.27 17.4601 17.93 18.3201V18.3301C18.27 18.7601 18.67 19.0901 19.11 19.2701C19.36 19.3701 19.63 19.4301 19.9 19.4301C20.17 19.4301 20.44 19.3701 20.69 19.2601C21.13 19.0801 21.54 18.7501 21.88 18.3201C21.88 18.3201 21.88 18.3201 21.89 18.3101C22.55 17.4601 22.97 16.2001 22.97 14.7801C22.97 12.7901 21.99 10.5201 20.97 10.4301L20.99 10.4401Z" fill="#FDD8AB"/>
<path d="M17.61 14.52C17.61 14.52 17.59 14.59 17.59 14.63C17.59 14.87 17.88 15.06 18.24 15.06C18.6 15.06 18.9 14.87 18.9 14.63C18.9 14.59 18.9 14.56 18.88 14.52H17.62H17.61Z" fill="#333333"/>
<path d="M22.21 14.52C22.21 14.52 22.23 14.59 22.23 14.63C22.23 14.87 21.94 15.06 21.57 15.06C21.2 15.06 20.92 14.87 20.92 14.63C20.92 14.59 20.92 14.56 20.94 14.52H22.2H22.21Z" fill="#333333"/>
<path d="M20.7701 17.75H19.0601C19.2301 17.98 19.5501 18.13 19.9101 18.14C20.2701 18.14 20.5901 17.98 20.7601 17.75H20.7701Z" fill="#D66F53"/>
<path d="M19.91 17.7C19.52 17.24 18.97 17.82 18.97 17.82H20.85C20.85 17.82 20.3 17.24 19.91 17.7Z" fill="#D66142"/>
<g style="mix-blend-mode:color-burn" opacity="0.2">
<path d="M19.9201 15.25L19.4301 16.82C19.4301 16.82 19.6101 16.98 19.9001 16.98C20.1901 16.98 20.4201 16.82 20.4201 16.82L19.9301 15.25H19.9201Z" fill="#616161"/>
</g>
<path d="M20.85 13.59L22.15 13.66H22.17L22.18 13.67L22.7 14.23L22.13 13.72L22.15 13.73L20.85 13.8V13.59Z" fill="#D66142"/>
<path d="M19.08 13.8L17.79 13.73L17.81 13.72L17.24 14.23L17.76 13.67L17.77 13.66H17.78L19.08 13.59V13.8Z" fill="#D66142"/>
<g style="mix-blend-mode:color-burn" opacity="0.2">
<path d="M20.8101 10.4699C20.8701 10.4599 20.9201 10.4499 20.9801 10.4399C20.9201 10.4399 20.8601 10.4599 20.8101 10.4699Z" fill="#616161"/>
</g>
<g style="mix-blend-mode:color-burn" opacity="0.2">
<path d="M20.35 10.68C20.35 10.68 20.36 10.68 20.37 10.67C20.37 10.67 20.35 10.67 20.35 10.68Z" fill="#616161"/>
</g>
<g style="mix-blend-mode:color-burn" opacity="0.2">
<path d="M20.49 10.59C20.49 10.59 20.51 10.59 20.52 10.58C20.51 10.58 20.5 10.58 20.49 10.59Z" fill="#616161"/>
</g>
<g style="mix-blend-mode:color-burn" opacity="0.2">
<path d="M20.65 10.52C20.65 10.52 20.69 10.51 20.71 10.5C20.69 10.5 20.67 10.51 20.65 10.52Z" fill="#616161"/>
</g>
<g style="mix-blend-mode:color-burn" opacity="0.2">
<path d="M21.99 8.00996C22.05 8.99996 19.92 10.59 19.92 10.59C19.92 10.59 17.79 9.03996 17.92 7.92996C18 7.22996 18.61 6.70996 19.27 6.70996C19.63 6.70996 20.03 7.01996 20.03 7.01996C20.03 7.01996 20.4 6.70996 20.75 6.71996C21.34 6.71996 21.97 7.38996 22 8.01996L21.99 8.00996Z" fill="#616161"/>
</g>
<path d="M21.84 8.08994C21.79 8.99994 19.97 10.3699 19.97 10.3699C19.97 10.3699 18.1 8.97994 18.1 8.06994C18.1 7.44994 18.61 6.93994 19.24 6.93994C19.59 6.93994 19.98 7.25994 19.98 7.25994C19.98 7.25994 20.35 6.93994 20.71 6.94994C21.34 6.94994 21.87 7.45994 21.84 8.07994V8.08994Z" fill="#FFD675"/>
<g style="mix-blend-mode:color-burn" opacity="0.2">
<path d="M19.97 9.71997C19.27 9.13997 18.62 8.41997 18.62 8.07997C18.62 7.73997 18.9 7.46997 19.24 7.46997C19.34 7.46997 19.56 7.58997 19.66 7.66997L19.99 7.93997L20.31 7.66997C20.4 7.58997 20.59 7.47997 20.7 7.47997C20.88 7.47997 21.06 7.55997 21.18 7.68997C21.25 7.76997 21.34 7.89997 21.33 8.07997C21.31 8.42997 20.66 9.15997 19.97 9.73997V9.71997Z" fill="#616161"/>
</g>
<g style="mix-blend-mode:color-burn" opacity="0.2">
<path d="M27.2801 22.46C27.2001 22.35 27.1301 22.25 27.0601 22.15C27.0301 22.12 27.0101 22.09 26.9801 22.06C26.9301 22 26.89 21.94 26.84 21.89C27.3 21.25 27.5301 20.62 27.6101 20.02C27.6401 19.83 27.6501 19.65 27.6501 19.47C27.6501 17.71 26.4901 16.38 26.4901 16.38H23.0001C24.9901 14.49 27.2201 11.95 27.3201 9.96996C27.4501 7.48996 25.32 5.48995 22.84 5.45995C21.41 5.43995 19.9401 6.68996 19.9401 6.68996C19.9401 6.68996 19.9401 6.68996 19.9301 6.68996V27.57L24.2501 26.28L24.7901 26.12L24.9201 26.08C24.9201 26.08 24.9201 26.06 24.9201 26.04C25.0001 25.74 25.1101 25.42 25.3301 25.07C25.3301 25.07 25.3501 25.09 25.3701 25.12C25.4401 25.23 25.6001 25.47 25.7901 25.8L25.8501 25.78L25.9501 25.75L26.09 25.71L28.59 24.97C28.2 23.94 27.7301 23.1 27.2701 22.45L27.2801 22.46Z" fill="#616161"/>
</g>
<path d="M12.42 41.09L12.48 40.26L12.52 39.75L12.68 37.56L12.72 37.05L12.76 36.36V36.35L12.81 35.71L13.31 35.7L13.54 35.69L14.03 35.68H14.31L14.64 35.67L15.24 35.66L15.9 35.64L19 35.58H19.01L22.12 35.64L22.78 35.66L23.37 35.67L23.71 35.68H23.99L24.23 35.69H24.48L24.71 35.7L25.21 35.71L25.25 36.35V36.36L25.3 37.05L25.34 37.56L25.5 39.75L25.53 40.26L25.59 41.09H12.42Z" fill="#C9C9C9"/>
<g style="mix-blend-mode:color-burn" opacity="0.2">
<path d="M13.02 41.09L16.91 38.28H16.93C17.26 37.86 17.66 37.53 18.09 37.35C18.36 37.23 18.65 37.17 18.94 37.17C18.96 37.17 18.98 37.17 19 37.17V41.08H13.01L13.02 41.09Z" fill="#616161"/>
</g>
<path d="M10.3201 32.5L12.8201 31.75L13.0601 31.68L13.1301 31.66C13.3301 31.99 13.4801 32.23 13.5501 32.34C13.5801 32.37 13.5901 32.4 13.6001 32.4C13.6001 32.4 13.6001 32.39 13.6101 32.38C13.6101 32.37 13.6201 32.36 13.6301 32.34C13.8301 32 13.9401 31.69 14.0101 31.39L14.6801 31.19L19.0101 29.9L21.7101 29.1L22.6101 28.83C22.6401 28.94 22.6801 29.05 22.7201 29.17C24.2801 29.84 23.5701 30.91 24.3301 32.26C24.3301 32.28 24.3501 32.29 24.3601 32.31C24.3701 32.34 24.4001 32.37 24.4101 32.4C24.5101 32.29 26.2701 29.59 26.5701 27.64L26.7901 27.57L28.5401 27.05H28.5801C28.6101 30.9 27.4401 33.46 26.3601 35.01C26.2801 35.12 26.2101 35.22 26.1301 35.32C26.0601 35.41 25.9901 35.5 25.9201 35.59C25.8601 35.66 25.8101 35.73 25.7601 35.79C25.7101 35.85 25.6601 35.91 25.6101 35.97C25.4801 36.12 25.3501 36.24 25.2401 36.35C25.2101 36.38 25.1801 36.4 25.1501 36.43C25.1201 36.45 25.1001 36.48 25.0701 36.5C25.0501 36.52 25.0201 36.55 24.9901 36.57C24.9401 36.61 24.9001 36.65 24.8601 36.69C24.6901 36.84 24.5801 36.91 24.5801 36.91L24.1701 36.81L24.1001 36.79L23.9401 36.75H23.9001L23.3401 36.77L22.4701 36.8L21.5401 36.84L18.9901 36.94L16.3901 36.83L15.5101 36.8L14.6401 36.77L14.0801 36.74H14.0301L13.8701 36.79L13.8001 36.81L13.4001 36.91C13.4001 36.91 13.2901 36.84 13.1201 36.69C13.0801 36.66 13.0301 36.62 12.9801 36.57C12.9601 36.55 12.9301 36.52 12.9101 36.5C12.8901 36.48 12.8601 36.45 12.8301 36.43C12.8001 36.4 12.7701 36.37 12.7401 36.35C12.7401 36.35 12.6901 36.29 12.6601 36.26C12.6301 36.23 12.5901 36.2 12.5601 36.17C12.5001 36.11 12.4301 36.04 12.3701 35.96C12.3201 35.91 12.2801 35.87 12.2401 35.81C12.2301 35.8 12.2301 35.79 12.2201 35.78C12.1601 35.72 12.1101 35.66 12.0601 35.6C11.9901 35.51 11.9201 35.42 11.8501 35.33C11.7801 35.23 11.7101 35.13 11.6301 35.02C11.1801 34.37 10.7101 33.53 10.3101 32.5H10.3201Z" fill="#FDD8AB"/>
<g style="mix-blend-mode:color-burn" opacity="0.2">
<path d="M19.0099 34.1301H18.4399L18.6999 32.0701C18.7999 32.0701 18.9099 32.0701 19.0199 32.0601V34.1301H19.0099Z" fill="#616161"/>
</g>
<g style="mix-blend-mode:color-burn" opacity="0.2">
<path d="M19.01 41.09H25L21.11 38.2901H21.09C21.09 38.2901 19.85 37.1801 19.08 37.1801C19.06 37.1801 19.04 37.1801 19.02 37.1801V41.09H19.01Z" fill="#616161"/>
</g>
<g style="mix-blend-mode:color-burn" opacity="0.2">
<path d="M19.01 34.1301H19.58L19.32 32.0701C19.22 32.0701 19.11 32.0701 19 32.0601V34.1301H19.01Z" fill="#616161"/>
</g>
<g style="mix-blend-mode:color-burn" opacity="0.2">
<path d="M21.09 32.4C23.99 33.04 25.56 34.02 26.38 35.02C25.78 35.88 25.21 36.43 24.88 36.7L21.09 32.4Z" fill="#616161"/>
</g>
<path d="M13.77 35.9599C13.77 35.2299 14.04 34.5499 14.52 33.9599C14.92 33.4699 15.46 33.0399 16.11 32.7199C16.11 32.7199 16.11 32.7199 16.13 32.7199C16.38 32.5999 16.65 32.4899 16.93 32.3999C17.48 32.2199 18.07 32.1099 18.7 32.0699C18.73 32.0699 18.77 32.0699 18.8 32.0699C18.87 32.0699 18.94 32.0699 19.01 32.0699C19.08 32.0699 19.15 32.0699 19.22 32.0699C19.25 32.0699 19.29 32.0699 19.32 32.0699C19.95 32.1099 20.54 32.2199 21.09 32.3999C21.37 32.4899 21.64 32.5999 21.89 32.7199C21.89 32.7199 21.8967 32.7199 21.91 32.7199C22.55 33.0399 23.1 33.4599 23.49 33.9499C23.97 34.5399 24.25 35.2199 24.25 35.9499C24.25 36.4899 24.36 36.5299 24.1 36.9999L22.56 37.0199L19.92 37.0499V37.5899C19.65 37.4699 19.36 37.41 19.07 37.41C19.05 37.41 19.03 37.41 19.01 37.41C19.01 37.41 18.97 37.41 18.95 37.41C18.65 37.41 18.37 37.4699 18.1 37.5899V37.0499L15.46 37.0199L13.92 36.9999C13.65 36.5299 13.77 36.4899 13.77 35.9499V35.9599Z" fill="#FDD8AB"/>
<g style="mix-blend-mode:color-burn" opacity="0.2">
<path d="M13.93 37.02L15.47 37.04L16.2 34.73C16.38 34.76 16.57 34.78 16.76 34.78C17.86 34.8 18.99 33.83 18.99 33.83C18.99 33.83 20.19 34.79 21.26 34.79C21.46 34.79 21.66 34.77 21.85 34.74L22.58 37.04L24.12 37.02C24.39 36.55 24.27 36.51 24.27 35.97C24.27 35.24 23.99 34.56 23.51 33.97C23.48 33.93 23.44 33.89 23.4 33.85C23.34 33.79 23.29 33.72 23.23 33.66C23.16 33.59 23.08 33.52 23 33.45C22.95 33.41 22.9 33.36 22.85 33.32C22.75 33.24 22.64 33.16 22.53 33.09C22.49 33.06 22.46 33.04 22.42 33.01C22.26 32.91 22.1 32.82 21.93 32.73C21.93 32.73 21.9233 32.73 21.91 32.73C21.66 32.61 21.39 32.5 21.11 32.41C20.56 32.23 19.97 32.12 19.34 32.08C19.31 32.08 19.27 32.08 19.24 32.08C19.17 32.08 19.1 32.08 19.03 32.08C18.96 32.08 18.89 32.08 18.82 32.08C18.79 32.08 18.75 32.08 18.72 32.08C18.1 32.12 17.5 32.23 16.95 32.41C16.67 32.5 16.4 32.61 16.15 32.73C16.15 32.73 16.14 32.73 16.13 32.73C15.96 32.82 15.79 32.91 15.63 33.01C15.6 33.03 15.57 33.05 15.54 33.07C15.42 33.15 15.3 33.23 15.2 33.32C15.14 33.36 15.1 33.41 15.04 33.46C14.96 33.53 14.89 33.59 14.82 33.66C14.76 33.73 14.7 33.79 14.64 33.86C14.61 33.9 14.57 33.93 14.54 33.97C14.06 34.55 13.78 35.23 13.78 35.96C13.78 36.5 13.66 36.55 13.93 37.01V37.02Z" fill="#616161"/>
</g>
<path d="M18.1 37.9801V37.6101C18.37 37.4901 18.66 37.4301 18.95 37.4301C18.97 37.4301 18.99 37.4301 19.01 37.4301C19.03 37.4301 19.05 37.4301 19.07 37.4301C19.36 37.4301 19.65 37.4901 19.92 37.6101V37.9801C19.92 38.0501 19.91 38.1201 19.9 38.1901C19.89 38.2401 19.87 38.2801 19.85 38.3301C19.71 38.6501 19.4 38.8701 19.04 38.8701C19.04 38.8701 19.02 38.8701 19.01 38.8701H18.99C18.65 38.8701 18.36 38.6801 18.21 38.4001C18.18 38.3401 18.15 38.2601 18.13 38.1901C18.11 38.1201 18.1 38.0501 18.1 37.9801Z" fill="#FDD8AB"/>
<g style="mix-blend-mode:color-burn" opacity="0.2">
<path d="M18.1 37.9801V37.6101C18.37 37.4901 18.66 37.4301 18.95 37.4301C18.97 37.4301 18.99 37.4301 19.01 37.4301C19.03 37.4301 19.05 37.4301 19.07 37.4301C19.36 37.4301 19.65 37.4901 19.92 37.6101V37.9801C19.92 38.0501 19.91 38.1201 19.9 38.1901C19.89 38.2401 19.87 38.2801 19.85 38.3301C19.51 38.1601 19.19 38.0301 19.07 38.0301C19.05 38.0301 19.03 38.0301 19.01 38.0301C19.01 38.0301 18.97 38.0301 18.95 38.0301C18.83 38.0301 18.53 38.2001 18.2 38.4101C18.17 38.3501 18.14 38.2701 18.12 38.2001C18.1 38.1301 18.09 38.0601 18.09 37.9901L18.1 37.9801Z" fill="#616161"/>
</g>
<g style="mix-blend-mode:color-burn" opacity="0.2">
<path d="M11.64 35.02C12.46 34.02 14.04 33.04 16.93 32.4L15.36 34.18L15.27 34.29L14.04 35.68L13.78 35.97L13.15 36.69C13.15 36.69 13.06 36.62 13.02 36.57C13 36.55 12.97 36.53 12.94 36.5C12.91 36.48 12.89 36.45 12.86 36.43C12.83 36.4 12.81 36.38 12.78 36.35C12.78 36.35 12.73 36.3 12.7 36.26C12.67 36.23 12.64 36.2 12.61 36.17C12.55 36.1 12.48 36.03 12.42 35.96C12.38 35.91 12.34 35.87 12.29 35.82C12.29 35.82 12.27 35.8 12.26 35.79C12.21 35.73 12.16 35.67 12.1 35.6C12.03 35.51 11.96 35.42 11.89 35.33C11.82 35.23 11.74 35.13 11.66 35.02H11.64Z" fill="#616161"/>
</g>
<path d="M11.26 38.01C11.26 37.83 11.27 37.65 11.3 37.46C11.38 36.87 11.61 36.23 12.07 35.6C12.51 34.99 13.15 34.38 14.06 33.8C14.11 33.77 14.17 33.73 14.23 33.69C14.76 33.36 15.38 33.04 16.1 32.73C16.11 32.73 16.13 32.72 16.14 32.71C16.15 32.71 16.16 32.7 16.18 32.7C16.22 32.68 16.26 32.66 16.31 32.65C16.44 32.59 16.57 32.54 16.71 32.49C16.78 32.46 16.85 32.44 16.92 32.41L15.23 35.67L14.65 36.78L14.52 37.04L12.41 41.11C12.41 41.11 11.25 39.78 11.25 38.03L11.26 38.01Z" fill="#EBEBEB"/>
<path d="M21.09 32.4C22.17 32.81 23.06 33.24 23.78 33.69C23.84 33.73 23.9 33.76 23.95 33.8C25.83 35 26.55 36.3 26.71 37.47C26.74 37.66 26.75 37.84 26.75 38.02C26.75 39.78 25.59 41.1 25.59 41.1L21.08 32.41L21.09 32.4Z" fill="#EBEBEB"/>
<path d="M24.88 35.92L24.33 35.2L24.58 36.07L24.88 35.92Z" fill="#333333"/>
<path d="M23 34.17L22.45 33.45L22.7 34.32L23 34.17Z" fill="#333333"/>
<path d="M25.8699 40.24L25.3199 39.51L25.5699 40.38L25.8699 40.24Z" fill="#333333"/>
<path d="M25.15 38.72L24.61 38L24.85 38.87L25.15 38.72Z" fill="#333333"/>
<path d="M24.43 37.2L23.89 36.48L24.13 37.35L24.43 37.2Z" fill="#333333"/>
<path d="M23.71 35.69L23.17 34.96L23.42 35.83L23.71 35.69Z" fill="#333333"/>
<path d="M23.78 33.6899C23.84 33.7299 23.9 33.7599 23.95 33.7999L24.27 34.2199L23.97 34.3699L23.78 33.6899Z" fill="#333333"/>
<path d="M26.31 38.96L25.77 38.23L26.02 39.1L26.31 38.96Z" fill="#333333"/>
<path d="M25.59 37.44L25.05 36.72L25.3 37.59L25.59 37.44Z" fill="#333333"/>
<path d="M26.48 37.15L26.71 37.46C26.74 37.65 26.75 37.83 26.75 38.01H26.72L26.47 37.15H26.48Z" fill="#333333"/>
<path d="M25.99 36.08L25.45 35.35L25.69 36.22L25.99 36.08Z" fill="#333333"/>
<path d="M13.14 35.92L13.68 35.2L13.44 36.07L13.14 35.92Z" fill="#333333"/>
<path d="M15.02 34.17L15.56 33.45L15.32 34.32L15.02 34.17Z" fill="#333333"/>
<path d="M12.15 40.24L12.69 39.51L12.45 40.38L12.15 40.24Z" fill="#333333"/>
<path d="M12.87 38.72L13.41 38L13.17 38.87L12.87 38.72Z" fill="#333333"/>
<path d="M13.59 37.2L14.13 36.48L13.88 37.35L13.59 37.2Z" fill="#333333"/>
<path d="M14.3 35.69L14.85 34.96L14.6 35.83L14.3 35.69Z" fill="#333333"/>
<path d="M14.24 33.6899C14.18 33.7299 14.12 33.7599 14.07 33.7999L13.75 34.2199L14.05 34.3699L14.24 33.6899Z" fill="#333333"/>
<path d="M11.71 38.96L12.25 38.23L12 39.1L11.71 38.96Z" fill="#333333"/>
<path d="M12.42 37.44L12.97 36.72L12.72 37.59L12.42 37.44Z" fill="#333333"/>
<path d="M11.26 38.01C11.26 37.83 11.27 37.65 11.3 37.46L11.53 37.15L11.28 38.02H11.25L11.26 38.01Z" fill="#333333"/>
<path d="M12.02 36.08L12.57 35.35L12.32 36.22L12.02 36.08Z" fill="#333333"/>
<path d="M13.63 32.35C13.83 32.01 13.94 31.7 14.01 31.4L14.68 31.2L19.01 29.91L21.71 29.11L22.61 28.84C22.64 28.95 22.68 29.06 22.72 29.18C24.28 29.85 23.57 30.92 24.33 32.27C24.33 32.29 24.35 32.3 24.36 32.32C24.1 32.87 23.7 33.33 23.21 33.67C22.65 34.06 21.97 34.29 21.23 34.29C20.16 34.29 18.96 33.33 18.96 33.33C18.96 33.33 17.83 34.29 16.73 34.28C16.02 34.28 15.34 34.05 14.77 33.68C14.27 33.35 13.86 32.89 13.6 32.36L13.63 32.35Z" fill="#D66142"/>
<path d="M11.59 47.5001C11.78 43.9001 19.01 38.4301 19.01 38.4301C19.01 38.4301 26.43 43.9401 26.43 47.5501C26.43 50.0301 24.4 52.0301 21.92 52.0301C20.53 52.0301 18.97 50.7801 18.97 50.7801C18.97 50.7801 17.5 52.0301 16.06 52.0101C13.57 51.9801 11.45 49.9801 11.58 47.5001H11.59Z" fill="#D66142"/>
<g style="mix-blend-mode:color-burn" opacity="0.2">
<path d="M21.71 29.1L22.62 28.83C22.65 28.94 22.69 29.05 22.73 29.17C24.35 29.86 23.53 30.98 24.43 32.4C24.53 32.29 26.29 29.59 26.59 27.65L26.81 27.58C27.27 29.61 23.92 33.17 23.92 33.17C23.92 33.17 22.82 29.62 21.71 29.11V29.1Z" fill="#616161"/>
</g>
<g style="mix-blend-mode:color-burn" opacity="0.2">
<path d="M12.8201 31.75L13.0501 31.68L13.1201 31.66C13.3201 31.99 13.4701 32.23 13.5401 32.34C13.5601 32.37 13.5801 32.4 13.5801 32.4C13.8001 32.05 13.9201 31.71 14.0001 31.4L14.6701 31.2C14.1701 32.14 14.1201 33.27 14.1201 33.27C14.1201 33.27 13.3501 32.5 12.8101 31.75H12.8201Z" fill="#616161"/>
</g>
<path d="M17.94 47.03C18.78 47.03 18.75 46.66 18.95 46.26C19.15 46.67 19.25 47.03 20.08 47.03C20.91 47.03 22.08 44.67 22.08 42.68C22.08 41.27 21.66 40.01 21 39.15C21 39.15 21 39.14 20.99 39.14C20.65 38.71 20.25 38.38 19.81 38.2C19.55 38.1 19.29 38.04 19.02 38.04C18.74 38.04 18.48 38.1 18.23 38.2C17.79 38.38 17.38 38.71 17.04 39.14C17.04 39.14 17.04 39.14 17.04 39.15C16.38 40 15.96 41.26 15.96 42.68C15.96 44.67 16.94 46.94 17.96 47.03H17.94Z" fill="#FDD8AB"/>
<path d="M21.31 42.95C21.31 42.95 21.33 42.88 21.33 42.84C21.33 42.6 21.04 42.41 20.68 42.41C20.32 42.41 20.03 42.6 20.03 42.84C20.03 42.88 20.03 42.91 20.05 42.95H21.32H21.31Z" fill="#333333"/>
<path d="M16.7099 42.95C16.7099 42.95 16.6899 42.88 16.6899 42.84C16.6899 42.6 16.9799 42.41 17.3399 42.41C17.6999 42.41 17.9999 42.6 17.9999 42.84C17.9999 42.88 17.9999 42.91 17.9799 42.95H16.7099Z" fill="#333333"/>
<path d="M18.15 39.73H19.86C19.69 39.5 19.37 39.35 19.01 39.34C18.65 39.34 18.33 39.5 18.16 39.73H18.15Z" fill="#D66F53"/>
<path d="M19.0099 39.77C19.3999 40.22 19.9499 39.65 19.9499 39.65H18.0699C18.0699 39.65 18.6199 40.23 19.0099 39.77Z" fill="#D66142"/>
<g style="mix-blend-mode:color-burn" opacity="0.2">
<path d="M19.01 42.22L19.5 40.65C19.5 40.65 19.32 40.49 19.03 40.49C18.74 40.49 18.51 40.65 18.51 40.65L19 42.22H19.01Z" fill="#616161"/>
</g>
<path d="M18.07 43.89L16.77 43.82H16.75L16.74 43.81L16.23 43.24L16.8 43.75L16.77 43.74L18.07 43.67V43.89Z" fill="#D66142"/>
<path d="M19.84 43.67L21.14 43.74L21.11 43.75L21.68 43.24L21.17 43.81L21.16 43.82H21.14L19.84 43.89V43.67Z" fill="#D66142"/>
<path d="M13.63 32.35C13.83 32.01 13.94 31.7 14.01 31.4L14.68 31.2L19.01 29.91L21.71 29.11L22.61 28.84C22.64 28.95 22.68 29.06 22.72 29.18C24.28 29.85 23.57 30.92 24.33 32.27C24.33 32.29 24.35 32.3 24.36 32.32C24.1 32.87 23.7 33.33 23.21 33.67C22.65 34.06 21.97 34.29 21.23 34.29C20.16 34.29 18.96 33.33 18.96 33.33C18.96 33.33 17.83 34.29 16.73 34.28C16.02 34.28 15.34 34.05 14.77 33.68C14.27 33.35 13.86 32.89 13.6 32.36L13.63 32.35Z" fill="#D66142"/>
<path d="M11.59 47.5001C11.78 43.9001 19.01 38.4301 19.01 38.4301C19.01 38.4301 26.43 43.9401 26.43 47.5501C26.43 50.0301 24.4 52.0301 21.92 52.0301C20.53 52.0301 18.97 50.7801 18.97 50.7801C18.97 50.7801 17.5 52.0301 16.06 52.0101C13.57 51.9801 11.45 49.9801 11.58 47.5001H11.59Z" fill="#D66142"/>
<g style="mix-blend-mode:color-burn" opacity="0.2">
<path d="M21.71 29.1L22.62 28.83C22.65 28.94 22.69 29.05 22.73 29.17C24.35 29.86 23.53 30.98 24.43 32.4C24.53 32.29 26.29 29.59 26.59 27.65L26.81 27.58C27.27 29.61 23.92 33.17 23.92 33.17C23.92 33.17 22.82 29.62 21.71 29.11V29.1Z" fill="#616161"/>
</g>
<g style="mix-blend-mode:color-burn" opacity="0.2">
<path d="M12.8201 31.75L13.0501 31.68L13.1201 31.66C13.3201 31.99 13.4701 32.23 13.5401 32.34C13.5601 32.37 13.5801 32.4 13.5801 32.4C13.8001 32.05 13.9201 31.71 14.0001 31.4L14.6701 31.2C14.1701 32.14 14.1201 33.27 14.1201 33.27C14.1201 33.27 13.3501 32.5 12.8101 31.75H12.8201Z" fill="#616161"/>
</g>
<path d="M17.94 47.03C18.78 47.03 18.75 46.66 18.95 46.26C19.15 46.67 19.25 47.03 20.08 47.03C20.91 47.03 22.08 44.67 22.08 42.68C22.08 41.27 21.66 40.01 21 39.15C21 39.15 21 39.14 20.99 39.14C20.65 38.71 20.25 38.38 19.81 38.2C19.55 38.1 19.29 38.04 19.02 38.04C18.74 38.04 18.48 38.1 18.23 38.2C17.79 38.38 17.38 38.71 17.04 39.14C17.04 39.14 17.04 39.14 17.04 39.15C16.38 40 15.96 41.26 15.96 42.68C15.96 44.67 16.94 46.94 17.96 47.03H17.94Z" fill="#FDD8AB"/>
<path d="M21.31 42.95C21.31 42.95 21.33 42.88 21.33 42.84C21.33 42.6 21.04 42.41 20.68 42.41C20.32 42.41 20.03 42.6 20.03 42.84C20.03 42.88 20.03 42.91 20.05 42.95H21.32H21.31Z" fill="#333333"/>
<path d="M16.7099 42.95C16.7099 42.95 16.6899 42.88 16.6899 42.84C16.6899 42.6 16.9799 42.41 17.3399 42.41C17.6999 42.41 17.9999 42.6 17.9999 42.84C17.9999 42.88 17.9999 42.91 17.9799 42.95H16.7099Z" fill="#333333"/>
<path d="M18.15 39.73H19.86C19.69 39.5 19.37 39.35 19.01 39.34C18.65 39.34 18.33 39.5 18.16 39.73H18.15Z" fill="#D66F53"/>
<path d="M19.0099 39.77C19.3999 40.22 19.9499 39.65 19.9499 39.65H18.0699C18.0699 39.65 18.6199 40.23 19.0099 39.77Z" fill="#D66142"/>
<g style="mix-blend-mode:color-burn" opacity="0.2">
<path d="M19.01 42.22L19.5 40.65C19.5 40.65 19.32 40.49 19.03 40.49C18.74 40.49 18.51 40.65 18.51 40.65L19 42.22H19.01Z" fill="#616161"/>
</g>
<path d="M18.07 43.89L16.77 43.82H16.75L16.74 43.81L16.23 43.24L16.8 43.75L16.77 43.74L18.07 43.67V43.89Z" fill="#D66142"/>
<path d="M19.84 43.67L21.14 43.74L21.11 43.75L21.68 43.24L21.17 43.81L21.16 43.82H21.14L19.84 43.89V43.67Z" fill="#D66142"/>
<g style="mix-blend-mode:color-burn" opacity="0.2">
<path d="M18.1099 47C18.0499 47.01 17.9999 47.02 17.9399 47.03C17.9999 47.03 18.0599 47.01 18.1099 47Z" fill="#616161"/>
</g>
<g style="mix-blend-mode:color-burn" opacity="0.2">
<path d="M18.57 46.79C18.57 46.79 18.56 46.79 18.55 46.8C18.55 46.8 18.56 46.8 18.57 46.79Z" fill="#616161"/>
</g>
<g style="mix-blend-mode:color-burn" opacity="0.2">
<path d="M18.43 46.88C18.43 46.88 18.41 46.88 18.4 46.9C18.41 46.9 18.42 46.9 18.43 46.88Z" fill="#616161"/>
</g>
<g style="mix-blend-mode:color-burn" opacity="0.2">
<path d="M18.27 46.95C18.27 46.95 18.23 46.96 18.21 46.97C18.23 46.97 18.25 46.96 18.27 46.95Z" fill="#616161"/>
</g>
<g style="mix-blend-mode:color-burn" opacity="0.2">
<path d="M16.9299 49.46C16.8799 48.47 18.9999 46.87 18.9999 46.87C18.9999 46.87 21.1299 48.42 20.9999 49.54C20.9199 50.24 20.3099 50.76 19.6499 50.76C19.2899 50.76 18.8899 50.45 18.8899 50.45C18.8899 50.45 18.5299 50.76 18.1799 50.75C17.5899 50.75 16.9599 50.08 16.9299 49.45V49.46Z" fill="#616161"/>
</g>
<path d="M17.0801 49.38C17.1301 48.47 18.95 47.1 18.95 47.1C18.95 47.1 20.82 48.49 20.82 49.4C20.82 50.02 20.31 50.53 19.68 50.53C19.33 50.53 18.9401 50.21 18.9401 50.21C18.9401 50.21 18.57 50.53 18.21 50.52C17.59 50.52 17.0501 50.01 17.0801 49.38Z" fill="#FFD675"/>
<g style="mix-blend-mode:color-burn" opacity="0.2">
<path d="M18.95 47.75C19.65 48.33 20.3 49.05 20.3 49.39C20.3 49.73 20.02 50 19.68 50C19.58 50 19.36 49.88 19.26 49.8L18.93 49.53L18.61 49.81C18.52 49.88 18.33 50 18.22 50C18.04 50 17.86 49.92 17.74 49.79C17.67 49.71 17.58 49.58 17.59 49.4C17.61 49.05 18.26 48.32 18.95 47.74V47.75Z" fill="#616161"/>
</g>
<g style="mix-blend-mode:color-burn" opacity="0.2">
<path d="M11.6399 35.02C11.7199 35.13 11.7899 35.23 11.8599 35.33C11.8899 35.36 11.9099 35.39 11.9399 35.42C11.9799 35.48 12.0299 35.54 12.0799 35.6C11.6199 36.24 11.3899 36.87 11.3099 37.47C11.2799 37.66 11.2699 37.84 11.2699 38.02C11.2699 39.78 12.4299 41.1 12.4299 41.1H15.9199C13.9299 42.99 11.6999 45.53 11.5999 47.51C11.4699 49.99 13.5999 51.99 16.0799 52.02C17.5099 52.04 18.9899 50.79 18.9899 50.79V29.91L14.6799 31.2L14.1399 31.36L14.0099 31.4C14.0099 31.4 14.0099 31.42 13.9999 31.44C13.9299 31.74 13.8099 32.06 13.5899 32.41C13.5899 32.41 13.5699 32.39 13.5499 32.36C13.4799 32.25 13.3199 32.01 13.1299 31.68L13.0599 31.7L12.9599 31.73L12.8199 31.77L10.3199 32.52C10.7099 33.55 11.1799 34.38 11.6399 35.04V35.02Z" fill="#616161"/>
</g>
<path d="M9.09995 11.88C9.02995 13.16 6.45995 15.11 6.45995 15.11C6.45995 15.11 3.81995 13.15 3.81995 11.86C3.81995 10.98 4.53994 10.27 5.41994 10.27C5.90994 10.27 6.46995 10.71 6.46995 10.71C6.46995 10.71 6.98995 10.27 7.50995 10.27C8.38995 10.28 9.14995 10.99 9.09995 11.87V11.88Z" fill="#D66142"/>
<g style="mix-blend-mode:color-burn" opacity="0.2">
<path d="M7.49994 10.28C6.98994 10.28 6.45994 10.72 6.45994 10.72C6.45994 10.72 6.45994 10.72 6.43994 10.71V15.11C6.43994 15.11 9.00994 13.16 9.07994 11.88C9.12994 11 8.36994 10.29 7.48994 10.28H7.49994Z" fill="#616161"/>
</g>
<path d="M32.05 45.15C32.12 43.87 34.69 41.92 34.69 41.92C34.69 41.92 37.33 43.88 37.33 45.17C37.33 46.05 36.61 46.76 35.73 46.76C35.23 46.76 34.68 46.31 34.68 46.31C34.68 46.31 34.16 46.76 33.65 46.75C32.77 46.74 32.01 46.03 32.06 45.15H32.05Z" fill="#D66142"/>
<g style="mix-blend-mode:color-burn" opacity="0.2">
<path d="M33.6399 46.7601C34.1499 46.7601 34.6699 46.3201 34.6699 46.3201C34.6699 46.3201 34.6699 46.3201 34.6899 46.3301V41.9301C34.6899 41.9301 32.1199 43.8801 32.0499 45.1601C31.9999 46.0401 32.7599 46.7501 33.6399 46.7601Z" fill="#616161"/>
</g>
</svg>
