<svg width="41" height="57" viewBox="0 0 41 57" fill="none" xmlns="http://www.w3.org/2000/svg">
<path d="M4.83001 56.53C2.48001 56.53 0.560005 54.66 0.560005 52.35L0.440002 5.12003C0.440002 2.80003 2.35 0.910034 4.71 0.910034L35.92 0.970032C38.27 0.970032 40.18 2.86003 40.18 5.18003V52.31C40.18 54.61 38.28 56.49 35.94 56.49L4.84 56.53H4.83001Z" fill="#C9C9C9"/>
<path d="M5.03001 56.47C2.71001 56.47 0.820007 54.59 0.820007 52.28V5.15997C0.820007 2.84997 2.71001 0.969971 5.03001 0.969971H35.79C38.11 0.969971 40 2.84997 40 5.15997V52.28C40 54.59 38.11 56.47 35.79 56.47H5.03001Z" fill="white"/>
<path d="M35.96 55.53H5.2C3.4 55.53 1.94 54.07 1.94 52.28V5.16999C1.94 3.44999 3.31 2.04999 4.04 1.77999L4.15001 1.73999H35.07C38.13 1.97999 39.22 3.66999 39.22 5.16999V52.28C39.22 54.07 37.76 55.53 35.96 55.53ZM4.41 3.02999C4.08 3.23999 3.23 4.09999 3.23 5.16999V52.28C3.23 53.36 4.11 54.24 5.2 54.24H35.96C37.05 54.24 37.93 53.36 37.93 52.28V5.16999C37.93 3.97999 36.83 3.17999 34.99 3.02999H4.41Z" fill="#333333"/>
<path d="M7.98997 6.75002C7.98997 6.96002 7.93998 7.20002 7.82998 7.45002C7.72998 7.71002 7.59997 7.91002 7.45997 8.06002C7.40997 8.12002 7.30997 8.20002 7.17997 8.31002C6.98997 8.47002 6.77997 8.61002 6.56997 8.74002C6.50997 8.78002 6.45997 8.80002 6.43997 8.82002C6.34997 8.88002 6.29997 8.92002 6.29997 8.95002C6.29997 9.00002 6.43997 9.08002 6.72997 9.20002C6.98997 9.31002 7.18997 9.37002 7.31997 9.40002C7.33997 9.40002 7.35997 9.40002 7.40997 9.40002H7.61997C7.61997 9.40002 7.68997 9.40002 7.72997 9.42002C7.70997 9.44002 7.65997 9.47003 7.58997 9.51003C7.51997 9.54003 7.44997 9.58002 7.36997 9.61002C7.26997 9.70002 7.18997 9.77002 7.13997 9.81002C7.07997 9.86002 7.03997 9.88002 7.00997 9.88002C6.91997 9.88002 6.75997 9.78002 6.54997 9.57002C6.33997 9.36002 6.12997 9.26003 5.92997 9.26003C5.80997 9.26003 5.68997 9.31002 5.56997 9.40002C5.44997 9.49002 5.37997 9.54002 5.35997 9.54002C5.30997 9.54002 5.28997 9.51003 5.28997 9.44003C5.28997 9.40003 5.35997 9.32002 5.49997 9.21002C5.58997 9.14002 5.67997 9.07003 5.76997 9.01003C5.54997 8.88003 5.32997 8.74002 5.12997 8.60002C4.92997 8.46002 4.73997 8.28002 4.58997 8.08002C4.44997 7.90002 4.34997 7.70002 4.26997 7.50002C4.19997 7.29002 4.15997 7.08002 4.15997 6.86002C4.15997 6.53002 4.21997 6.26003 4.35997 6.05003C4.40997 5.97003 4.55997 5.80002 4.81997 5.54002C4.89997 5.46002 5.10997 5.28002 5.43997 5.02002C5.84997 4.69002 6.08997 4.52002 6.17997 4.52002C6.24997 4.52002 6.38997 4.59003 6.58997 4.73003C6.82997 4.90003 7.11997 5.15002 7.43997 5.47002C7.63997 5.67002 7.78997 5.88002 7.87997 6.07002C7.96997 6.27002 8.01997 6.49002 8.01997 6.74002L7.98997 6.75002ZM6.95997 7.32002C6.95997 7.13002 6.91997 6.93002 6.83997 6.70002C6.75997 6.47002 6.64997 6.26002 6.50997 6.06002C6.39997 5.90002 6.19997 5.71002 5.89997 5.49002C5.79997 5.42002 5.66997 5.32002 5.48997 5.21002C5.41997 5.21002 5.32997 5.33002 5.22997 5.57002C5.12997 5.81002 5.06997 5.97002 5.06997 6.04002C5.06997 6.37002 5.13997 6.68002 5.27997 6.97002C5.39997 7.21002 5.57998 7.46002 5.82998 7.71002C5.92998 7.82002 6.17997 8.05003 6.56997 8.41003C6.69997 8.28003 6.80997 8.09002 6.86997 7.83002C6.91997 7.63002 6.94997 7.46002 6.94997 7.31002L6.95997 7.32002Z" fill="#333333"/>
<path d="M33.34 51.22C33.34 51.01 33.39 50.78 33.5 50.52C33.6 50.26 33.73 50.06 33.87 49.91C33.92 49.85 34.02 49.77 34.15 49.66C34.35 49.5 34.55 49.36 34.76 49.23C34.82 49.19 34.87 49.17 34.89 49.15C34.98 49.09 35.03 49.05 35.03 49.02C35.03 48.97 34.89 48.89 34.6 48.77C34.34 48.67 34.15 48.6 34.02 48.57C34 48.57 33.98 48.57 33.93 48.57H33.72C33.72 48.57 33.65 48.57 33.61 48.55C33.63 48.53 33.68 48.5 33.75 48.46C33.82 48.43 33.89 48.39 33.97 48.36C34.07 48.27 34.15 48.2 34.2 48.15C34.26 48.1 34.3 48.08 34.33 48.08C34.42 48.08 34.58 48.18 34.79 48.39C35 48.6 35.21 48.7 35.4 48.7C35.52 48.7 35.64 48.65 35.76 48.56C35.88 48.47 35.95 48.42 35.97 48.42C36.02 48.42 36.04 48.45 36.04 48.52C36.04 48.56 35.97 48.64 35.83 48.75C35.74 48.82 35.65 48.89 35.56 48.95C35.78 49.08 36 49.22 36.2 49.36C36.4 49.5 36.59 49.68 36.74 49.88C36.88 50.06 36.98 50.26 37.06 50.46C37.13 50.67 37.17 50.88 37.17 51.1C37.17 51.43 37.1 51.7 36.97 51.91C36.92 51.99 36.77 52.16 36.51 52.42C36.43 52.5 36.22 52.68 35.89 52.94C35.48 53.27 35.24 53.44 35.15 53.44C35.08 53.44 34.94 53.37 34.74 53.23C34.5 53.06 34.21 52.81 33.89 52.49C33.69 52.29 33.54 52.09 33.45 51.89C33.36 51.69 33.31 51.47 33.31 51.21L33.34 51.22ZM34.37 50.65C34.37 50.84 34.41 51.04 34.49 51.27C34.57 51.49 34.68 51.71 34.82 51.91C34.93 52.07 35.13 52.26 35.43 52.48C35.53 52.55 35.67 52.65 35.84 52.76C35.91 52.76 36 52.64 36.1 52.4C36.2 52.16 36.26 52 36.26 51.93C36.26 51.6 36.19 51.29 36.05 51C35.93 50.76 35.75 50.51 35.5 50.26C35.4 50.15 35.15 49.92 34.76 49.56C34.63 49.69 34.53 49.88 34.46 50.14C34.41 50.34 34.38 50.51 34.38 50.66L34.37 50.65Z" fill="#333333"/>
<path d="M26.57 16.65L26.51 17.49L26.47 18L26.32 20.19L26.28 20.71L26.23 21.41L26.19 22.05L25.69 22.06L25.45 22.07L24.96 22.08L24.68 22.09H24.34L23.75 22.1L23.08 22.12L19.97 22.18H19.96L16.85 22.12L16.18 22.1L15.59 22.09H15.25L14.97 22.08L14.73 22.07H14.48L14.24 22.06L13.75 22.05L13.7 21.41L13.65 20.71L13.61 20.19L13.46 18L13.42 17.49L13.36 16.65H26.57Z" fill="#C9C9C9"/>
<g style="mix-blend-mode:color-burn" opacity="0.2">
<path d="M25.97 16.65C24.99 18.04 23.6 19.46 22.06 19.46H22.04C21.71 19.89 21.31 20.21 20.88 20.4C20.61 20.52 20.32 20.58 20.02 20.58C20 20.58 19.98 20.58 19.96 20.58V16.65H25.97Z" fill="#616161"/>
</g>
<path d="M28.68 25.27L26.17 26.02L25.93 26.09L25.86 26.11C25.66 25.78 25.5 25.54 25.44 25.43C25.41 25.4 25.4 25.37 25.39 25.37C25.39 25.37 25.39 25.38 25.38 25.39C25.17 25.74 25.05 26.07 24.98 26.38L24.31 26.58L19.96 27.88L17.25 28.69L16.34 28.96C16.31 28.85 16.27 28.74 16.22 28.62C14.65 27.95 15.37 26.87 14.6 25.52C14.58 25.47 14.54 25.42 14.51 25.38C14.42 25.5 12.65 28.19 12.34 30.15L12.12 30.21L10.36 30.73H10.32C10.29 26.87 11.47 24.3 12.55 22.74C12.63 22.63 12.7 22.53 12.78 22.43C12.85 22.34 12.92 22.25 12.99 22.16C13.05 22.09 13.1 22.02 13.15 21.96C13.2 21.89 13.25 21.84 13.31 21.78C13.44 21.64 13.57 21.51 13.68 21.39C13.71 21.37 13.74 21.34 13.77 21.31C13.8 21.29 13.82 21.26 13.85 21.24C13.87 21.22 13.9 21.19 13.93 21.17C13.98 21.13 14.02 21.09 14.06 21.05C14.23 20.9 14.34 20.83 14.34 20.83L14.75 20.93L14.82 20.95L14.98 20.99H15.02L15.59 20.97L16.47 20.94L17.4 20.9L19.95 20.8L22.55 20.91L23.43 20.95L24.31 20.98L24.88 21.01H24.93L25.09 20.96L25.16 20.94L25.56 20.84C25.56 20.84 25.67 20.91 25.84 21.06C25.88 21.09 25.93 21.13 25.98 21.18C26 21.2 26.03 21.23 26.05 21.25C26.08 21.27 26.1 21.3 26.13 21.32C26.16 21.35 26.19 21.38 26.22 21.4C26.22 21.4 26.27 21.46 26.3 21.49C26.33 21.52 26.36 21.55 26.39 21.58C26.45 21.64 26.52 21.71 26.58 21.79C26.63 21.84 26.67 21.88 26.71 21.94C26.71 21.95 26.72 21.96 26.73 21.97C26.79 22.03 26.84 22.09 26.89 22.15C26.96 22.24 27.03 22.33 27.1 22.42C27.17 22.52 27.25 22.62 27.32 22.73C27.78 23.39 28.25 24.22 28.64 25.26L28.68 25.27Z" fill="#FDD8AB"/>
<g style="mix-blend-mode:color-burn" opacity="0.2">
<path d="M19.96 23.64H20.53L20.27 25.71C20.17 25.71 20.06 25.71 19.95 25.72V23.64H19.96Z" fill="#616161"/>
</g>
<g style="mix-blend-mode:color-burn" opacity="0.2">
<path d="M19.97 16.65H13.96C14.95 18.04 16.33 19.46 17.87 19.46H17.89C18.43 20.15 19.14 20.58 19.91 20.58C19.93 20.58 19.95 20.58 19.97 20.58V16.65Z" fill="#616161"/>
</g>
<g style="mix-blend-mode:color-burn" opacity="0.2">
<path d="M19.97 23.64H19.4L19.66 25.71C19.77 25.71 19.87 25.71 19.98 25.72V23.64H19.97Z" fill="#616161"/>
</g>
<g style="mix-blend-mode:color-burn" opacity="0.2">
<path d="M17.88 25.3701C14.97 24.7301 13.4 23.7501 12.57 22.7501C13.17 21.8901 13.75 21.3401 14.07 21.0601L17.87 25.3701H17.88Z" fill="#616161"/>
</g>
<path d="M19.97 19.7301C19.97 19.7301 19.93 19.7301 19.91 19.7301C19.62 19.7301 19.35 19.6701 19.08 19.5601C19.06 19.6301 19.05 19.7001 19.05 19.7701V20.1401C19.32 20.2601 19.61 20.3201 19.91 20.3201C19.93 20.3201 19.95 20.3201 19.97 20.3201V19.7201V19.7301Z" fill="#FDD8AB"/>
<path d="M19.97 18.89C19.97 18.89 19.95 18.89 19.94 18.89C19.52 18.89 19.18 19.18 19.08 19.57C19.34 19.68 19.62 19.74 19.91 19.74C19.93 19.74 19.95 19.74 19.97 19.74V18.9V18.89Z" fill="#FDD8AB"/>
<path d="M25.07 20.74L23.53 20.72L20.89 20.69V20.15C20.62 20.27 20.33 20.33 20.03 20.33C20.01 20.33 19.99 20.33 19.97 20.33C19.97 20.33 19.93 20.33 19.91 20.33C19.61 20.33 19.33 20.27 19.05 20.15V20.69L16.41 20.72L14.87 20.74C14.6 21.21 14.72 21.26 14.72 21.8C14.72 23.15 15.65 24.33 17.07 25.04C17.07 25.04 17.08 25.04 17.09 25.04C17.34 25.16 17.61 25.27 17.89 25.36C18.44 25.54 19.03 25.65 19.66 25.69C19.69 25.69 19.73 25.69 19.76 25.69C19.83 25.69 19.9 25.69 19.97 25.69C20.04 25.69 20.11 25.69 20.18 25.69C20.21 25.69 20.25 25.69 20.28 25.69C20.91 25.66 21.5 25.54 22.05 25.36C22.33 25.27 22.6 25.16 22.85 25.04C22.85 25.04 22.86 25.04 22.87 25.04C24.29 24.33 25.22 23.15 25.22 21.8C25.22 21.26 25.34 21.21 25.07 20.74Z" fill="#FDD8AB"/>
<g style="mix-blend-mode:color-burn" opacity="0.2">
<path d="M17.88 25.37C17.6 25.26 17.33 25.16 17.08 25.05C17.08 25.05 17.07 25.05 17.06 25.05C15.65 24.34 14.71 23.16 14.71 21.81C14.71 21.27 14.59 21.22 14.86 20.75L16.4 20.73L17.87 25.38L17.88 25.37Z" fill="#616161"/>
</g>
<g style="mix-blend-mode:color-burn" opacity="0.2">
<path d="M22.05 25.37C22.33 25.26 22.6 25.16 22.85 25.05C22.85 25.05 22.86 25.05 22.87 25.05C24.29 24.34 25.22 23.16 25.22 21.81C25.22 21.27 25.34 21.22 25.07 20.75L23.53 20.73L22.06 25.38L22.05 25.37Z" fill="#616161"/>
</g>
<path d="M19.96 19.7301C19.96 19.7301 20 19.7301 20.02 19.7301C20.31 19.7301 20.59 19.6701 20.85 19.5601C20.87 19.6301 20.88 19.7001 20.88 19.7701V20.1401C20.61 20.2601 20.32 20.3201 20.02 20.3201C20 20.3201 19.98 20.3201 19.96 20.3201V19.7201V19.7301Z" fill="#FDD8AB"/>
<path d="M19.96 18.89C19.96 18.89 19.98 18.89 19.99 18.89C20.41 18.89 20.75 19.18 20.85 19.57C20.59 19.68 20.31 19.74 20.02 19.74C20 19.74 19.98 19.74 19.96 19.74V18.9V18.89Z" fill="#FDD8AB"/>
<g style="mix-blend-mode:color-burn" opacity="0.2">
<path d="M27.36 22.75C26.53 23.75 24.96 24.73 22.05 25.37L23.63 23.58L23.73 23.47L24.96 22.07L25.22 21.77L25.86 21.05C25.86 21.05 25.95 21.12 25.99 21.17C26.01 21.19 26.04 21.22 26.06 21.24C26.09 21.26 26.11 21.29 26.14 21.31C26.17 21.34 26.19 21.36 26.22 21.39C26.22 21.39 26.27 21.44 26.3 21.48C26.33 21.51 26.36 21.54 26.39 21.57C26.45 21.64 26.52 21.7 26.58 21.78C26.62 21.83 26.67 21.87 26.71 21.93C26.71 21.93 26.73 21.95 26.74 21.96C26.79 22.02 26.84 22.08 26.9 22.15C26.97 22.24 27.04 22.33 27.11 22.42C27.19 22.52 27.26 22.62 27.34 22.73L27.36 22.75Z" fill="#616161"/>
</g>
<path d="M27.74 19.75C27.74 19.93 27.74 20.11 27.7 20.3C27.62 20.9 27.39 21.53 26.93 22.17C26.49 22.78 25.85 23.39 24.93 23.98C24.88 24.02 24.82 24.05 24.76 24.09C24.23 24.42 23.6 24.74 22.88 25.05C22.87 25.05 22.85 25.07 22.84 25.07C22.83 25.07 22.82 25.08 22.8 25.09C22.76 25.11 22.71 25.13 22.67 25.14C22.54 25.19 22.41 25.25 22.27 25.3C22.2 25.33 22.13 25.35 22.06 25.38L23.75 22.11L24.33 21L24.46 20.74L26.57 16.66C26.57 16.66 27.73 17.99 27.73 19.75H27.74Z" fill="#EBEBEB"/>
<path d="M17.88 25.37C16.8 24.96 15.91 24.53 15.18 24.08C15.12 24.04 15.06 24.01 15.01 23.97C13.13 22.76 12.4 21.46 12.24 20.29C12.21 20.1 12.2 19.92 12.2 19.74C12.2 17.98 13.36 16.65 13.36 16.65L17.88 25.37Z" fill="#EBEBEB"/>
<path d="M14.08 21.8399L14.62 22.5699L14.38 21.6899L14.08 21.8399Z" fill="#333333"/>
<path d="M15.96 23.6L16.51 24.33L16.26 23.45L15.96 23.6Z" fill="#333333"/>
<path d="M13.09 17.51L13.63 18.24L13.38 17.36L13.09 17.51Z" fill="#333333"/>
<path d="M13.81 19.04L14.35 19.76L14.1 18.89L13.81 19.04Z" fill="#333333"/>
<path d="M14.52 20.56L15.07 21.28L14.82 20.41L14.52 20.56Z" fill="#333333"/>
<path d="M15.25 22.0801L15.79 22.8001L15.54 21.9301L15.25 22.0801Z" fill="#333333"/>
<path d="M15.18 24.08C15.12 24.04 15.06 24.01 15.01 23.97L14.69 23.55L14.99 23.4L15.18 24.08Z" fill="#333333"/>
<path d="M12.64 18.8L13.18 19.52L12.94 18.65L12.64 18.8Z" fill="#333333"/>
<path d="M13.36 20.32L13.9 21.04L13.66 20.17L13.36 20.32Z" fill="#333333"/>
<path d="M12.47 20.61L12.24 20.3C12.21 20.11 12.2 19.93 12.2 19.75H12.23L12.48 20.61H12.47Z" fill="#333333"/>
<path d="M12.96 21.69L13.5 22.41L13.26 21.54L12.96 21.69Z" fill="#333333"/>
<path d="M25.85 21.8399L25.31 22.5699L25.55 21.6899L25.85 21.8399Z" fill="#333333"/>
<path d="M23.97 23.6L23.42 24.33L23.67 23.45L23.97 23.6Z" fill="#333333"/>
<path d="M26.85 17.51L26.3 18.24L26.55 17.36L26.85 17.51Z" fill="#333333"/>
<path d="M26.13 19.04L25.58 19.76L25.83 18.89L26.13 19.04Z" fill="#333333"/>
<path d="M25.41 20.56L24.86 21.28L25.11 20.41L25.41 20.56Z" fill="#333333"/>
<path d="M24.69 22.0801L24.14 22.8001L24.39 21.9301L24.69 22.0801Z" fill="#333333"/>
<path d="M24.75 24.08C24.81 24.04 24.87 24.01 24.92 23.97L25.24 23.55L24.94 23.4L24.75 24.08Z" fill="#333333"/>
<path d="M27.29 18.8L26.75 19.52L26.99 18.65L27.29 18.8Z" fill="#333333"/>
<path d="M26.57 20.32L26.03 21.04L26.27 20.17L26.57 20.32Z" fill="#333333"/>
<path d="M27.74 19.75C27.74 19.93 27.74 20.11 27.7 20.3L27.47 20.61L27.72 19.74H27.74V19.75Z" fill="#333333"/>
<path d="M26.97 21.69L26.43 22.41L26.68 21.54L26.97 21.69Z" fill="#333333"/>
<path d="M22.81 18.34C21.98 18.34 21.21 18.1 20.55 17.7L21.35 18.97L21.69 19.52L22.56 20.91L25.38 25.38C25.17 25.73 25.05 26.06 24.98 26.37L24.31 26.57L19.96 27.87L17.25 28.68L16.34 28.95C16.31 28.84 16.27 28.73 16.22 28.61C14.65 27.94 15.37 26.86 14.6 25.51L17.39 20.91L18.23 19.53L18.48 19.12L19.34 17.7C18.68 18.1 17.91 18.33 17.08 18.32C14.66 18.32 12.7 16.35 12.7 13.92C12.7 12.49 19.85 5.05005 19.85 5.05005C19.85 5.05005 27.19 12.26 27.18 13.95C27.18 16.37 25.21 18.33 22.78 18.33L22.81 18.34Z" fill="#333333"/>
<g style="mix-blend-mode:color-burn" opacity="0.2">
<path d="M17.26 28.68L16.35 28.95C16.32 28.84 16.28 28.73 16.24 28.61C14.62 27.91 15.44 26.79 14.54 25.37C14.44 25.48 12.67 28.18 12.37 30.14L12.15 30.21C11.68 28.17 14.77 24.76 14.77 24.76C14.77 24.76 16.15 28.17 17.27 28.69L17.26 28.68Z" fill="#616161"/>
</g>
<g style="mix-blend-mode:color-burn" opacity="0.2">
<path d="M26.18 26.02L25.95 26.09L25.88 26.11C25.68 25.78 25.53 25.54 25.46 25.43C25.44 25.4 25.42 25.38 25.42 25.37C25.2 25.72 25.08 26.06 25 26.37L24.33 26.57C24.83 25.63 25.19 24.75 25.19 24.75C25.19 24.75 25.65 25.27 26.19 26.01L26.18 26.02Z" fill="#616161"/>
</g>
<g style="mix-blend-mode:color-burn" opacity="0.2">
<path d="M21.7 19.53L20.88 20.14C20.61 20.26 20.32 20.32 20.03 20.32C20.01 20.32 19.99 20.32 19.97 20.32C19.95 20.32 19.93 20.32 19.91 20.32C19.61 20.32 19.33 20.25 19.05 20.14L18.25 19.53L18.5 19.12C19 19.37 19.71 19.73 19.91 19.73C19.93 19.73 19.95 19.73 19.97 19.73C19.97 19.73 20.01 19.73 20.03 19.73C20.21 19.73 20.85 19.31 21.36 18.98L21.7 19.53Z" fill="#616161"/>
</g>
<path d="M21.04 10.7C20.57 10.75 20.17 11.04 19.96 11.45C19.76 11.04 19.36 10.75 18.89 10.7C17.72 11.37 16.88 13.07 16.88 15.06C16.88 16.48 17.3 17.74 17.96 18.6C17.96 18.6 17.96 18.61 17.97 18.62C18.31 19.06 18.72 19.38 19.16 19.57C19.41 19.67 19.68 19.73 19.95 19.74C20.23 19.74 20.49 19.68 20.75 19.57C21.19 19.39 21.6 19.06 21.94 18.62C21.94 18.62 21.94 18.61 21.94 18.6C22.6 17.74 23.02 16.48 23.02 15.06C23.02 13.07 22.19 11.37 21.01 10.7H21.04Z" fill="#FDD8AB"/>
<path d="M22.12 10.36C22.12 9.85997 19.94 7.71997 19.94 7.71997C19.94 7.71997 17.82 9.92997 17.81 10.36C17.81 11.08 18.39 11.67 19.11 11.67C19.36 11.67 19.59 11.6 19.78 11.48H20.13C20.33 11.6 20.55 11.67 20.8 11.67C21.52 11.67 22.11 11.09 22.11 10.37L22.12 10.36Z" fill="#333333"/>
<path d="M17.66 14.79C17.66 14.79 17.64 14.86 17.64 14.9C17.64 15.14 17.93 15.33 18.3 15.33C18.67 15.33 18.96 15.14 18.96 14.9C18.96 14.86 18.96 14.83 18.94 14.79H17.67H17.66Z" fill="#333333"/>
<path d="M22.27 14.79C22.27 14.79 22.29 14.86 22.29 14.9C22.29 15.14 21.99 15.33 21.63 15.33C21.27 15.33 20.97 15.14 20.97 14.9C20.97 14.86 20.97 14.83 20.99 14.79H22.26H22.27Z" fill="#333333"/>
<path d="M20.82 18.02H19.11C19.28 18.25 19.6 18.4 19.97 18.41C20.34 18.41 20.65 18.25 20.83 18.02H20.82Z" fill="#454545"/>
<path d="M19.96 17.98C19.57 17.52 19.02 18.1 19.02 18.1H20.91C20.91 18.1 20.36 17.52 19.96 17.98Z" fill="#333333"/>
<g style="mix-blend-mode:color-burn" opacity="0.2">
<path d="M19.97 15.52V15.5L19.96 15.51V15.5V15.52L19.47 17.1H19.96H19.97H20.46L19.97 15.52Z" fill="#616161"/>
</g>
<path d="M20.91 13.85L22.21 13.92H22.23L22.24 13.93L22.76 14.5L22.19 13.99L22.21 14L20.91 14.06V13.85Z" fill="#333333"/>
<path d="M19.13 14.06L17.83 14L17.86 13.99L17.28 14.5L17.8 13.93L17.81 13.92H17.83L19.13 13.85V14.06Z" fill="#333333"/>
<g style="mix-blend-mode:color-burn" opacity="0.2">
<path d="M20.87 10.73C20.93 10.72 20.98 10.71 21.04 10.7C20.98 10.7 20.92 10.72 20.87 10.73Z" fill="#616161"/>
</g>
<g style="mix-blend-mode:color-burn" opacity="0.2">
<path d="M20.4 10.9401C20.4 10.9401 20.41 10.9401 20.42 10.9301C20.42 10.9301 20.41 10.9301 20.4 10.9401Z" fill="#616161"/>
</g>
<g style="mix-blend-mode:color-burn" opacity="0.2">
<path d="M20.55 10.85C20.55 10.85 20.57 10.85 20.58 10.84C20.57 10.84 20.56 10.84 20.55 10.85Z" fill="#616161"/>
</g>
<g style="mix-blend-mode:color-burn" opacity="0.2">
<path d="M20.7 10.78C20.7 10.78 20.74 10.77 20.76 10.76C20.74 10.76 20.72 10.77 20.7 10.78Z" fill="#616161"/>
</g>
<path d="M16.96 16.69C16.96 16.44 15.86 15.36 15.86 15.36C15.86 15.36 14.79 16.47 14.79 16.69C14.79 17.05 15.08 17.35 15.44 17.35C15.56 17.35 15.68 17.32 15.78 17.26L15.37 17.96H16.37L15.96 17.26C16.06 17.32 16.17 17.35 16.3 17.36C16.66 17.36 16.96 17.07 16.96 16.7V16.69Z" fill="#FFD675"/>
<g style="mix-blend-mode:color-burn" opacity="0.2">
<path d="M15.75 17.73L15.87 17.52L15.99 17.73H15.74H15.75ZM15.67 17.06C15.6 17.1 15.53 17.12 15.45 17.12C15.33 17.12 15.22 17.07 15.14 16.99C15.06 16.91 15.01 16.8 15.01 16.68C15.05 16.58 15.46 16.1 15.87 15.66C16.29 16.09 16.71 16.57 16.75 16.7C16.75 16.8 16.7 16.91 16.62 16.99C16.54 17.07 16.42 17.12 16.31 17.12C16.23 17.12 16.15 17.1 16.08 17.06H15.68H15.67Z" fill="#616161"/>
</g>
<path d="M25.23 16.69C25.23 16.44 24.13 15.36 24.13 15.36C24.13 15.36 23.06 16.47 23.06 16.69C23.06 17.05 23.35 17.35 23.72 17.35C23.84 17.35 23.96 17.32 24.06 17.26L23.65 17.96H24.65L24.24 17.26C24.34 17.32 24.45 17.35 24.58 17.36C24.94 17.36 25.24 17.07 25.24 16.7L25.23 16.69Z" fill="#FFD675"/>
<g style="mix-blend-mode:color-burn" opacity="0.2">
<path d="M24.02 17.73L24.14 17.52L24.26 17.73H24.01H24.02ZM23.94 17.06C23.87 17.1 23.8 17.12 23.72 17.12C23.6 17.12 23.49 17.07 23.41 16.99C23.33 16.91 23.28 16.8 23.28 16.68C23.32 16.58 23.73 16.1 24.14 15.66C24.56 16.09 24.98 16.57 25.02 16.7C25.02 16.8 24.97 16.91 24.89 16.99C24.81 17.07 24.7 17.12 24.58 17.12C24.5 17.12 24.42 17.1 24.35 17.06H23.95H23.94Z" fill="#616161"/>
</g>
<g style="mix-blend-mode:color-burn" opacity="0.2">
<path d="M27.36 22.75C27.28 22.64 27.21 22.54 27.14 22.44C27.11 22.41 27.09 22.38 27.06 22.35C27.01 22.29 26.97 22.23 26.92 22.18C27.38 21.54 27.61 20.9 27.69 20.31C27.72 20.12 27.73 19.94 27.73 19.76C27.73 18 26.57 16.67 26.57 16.67H26.27C26.85 15.93 27.2 15 27.2 13.98C27.2 12.3 19.96 5.16996 19.87 5.07996V27.92L19.96 27.89L24.31 26.59L24.85 26.43L24.98 26.39C24.98 26.39 25 26.31 25.01 26.27C25.01 26.23 25.03 26.19 25.04 26.15C25.12 25.91 25.22 25.65 25.39 25.39C25.39 25.39 25.41 25.41 25.43 25.44C25.5 25.55 25.66 25.79 25.85 26.12L25.92 26.1L26.02 26.07L26.16 26.03L28.67 25.28C28.28 24.25 27.8 23.41 27.35 22.75H27.36Z" fill="#616161"/>
</g>
<path d="M12.45 41.4601L12.51 40.6201L12.55 40.1101L12.71 37.9201L12.74 37.4101L12.79 36.7101V36.7001L12.84 36.0601L13.34 36.0501L13.58 36.0401L14.06 36.0301H14.34L14.68 36.0201L15.28 36.0101L15.94 35.9901L19.06 35.9301L22.18 35.9901L22.84 36.0101L23.44 36.0201L23.78 36.0301H24.05L24.3 36.0401H24.54L24.78 36.0501L25.28 36.0601L25.33 36.7001V36.7101L25.37 37.4101L25.41 37.9201L25.57 40.1101L25.61 40.6201L25.67 41.4601H12.45Z" fill="#C9C9C9"/>
<g style="mix-blend-mode:color-burn" opacity="0.2">
<path d="M13.05 41.46C14.04 40.07 15.42 38.64 16.96 38.64H16.98C17.31 38.21 17.71 37.89 18.14 37.7C18.41 37.58 18.7 37.52 19 37.52C19.02 37.52 19.04 37.52 19.06 37.52V41.45H13.05V41.46Z" fill="#616161"/>
</g>
<path d="M10.34 32.84L12.85 32.09L13.09 32.02L13.16 32C13.36 32.33 13.52 32.57 13.58 32.68C13.61 32.71 13.62 32.74 13.63 32.74C13.63 32.74 13.63 32.73 13.64 32.72C13.86 32.37 13.97 32.04 14.04 31.73L14.71 31.53L19.06 30.23L21.77 29.42L22.68 29.15C22.71 29.26 22.75 29.37 22.8 29.49C24.37 30.16 23.65 31.24 24.42 32.59C24.45 32.64 24.48 32.68 24.51 32.73C24.6 32.62 26.37 29.91 26.68 27.96L26.9 27.9L28.66 27.38H28.7C28.73 31.24 27.55 33.81 26.47 35.37C26.39 35.48 26.32 35.58 26.24 35.68C26.17 35.77 26.1 35.86 26.03 35.95C25.97 36.02 25.92 36.09 25.87 36.15C25.82 36.21 25.77 36.27 25.72 36.33C25.59 36.48 25.46 36.61 25.35 36.72C25.32 36.74 25.29 36.77 25.26 36.8C25.23 36.82 25.21 36.85 25.18 36.87C25.16 36.89 25.13 36.92 25.1 36.94C25.05 36.98 25.01 37.02 24.97 37.06C24.8 37.21 24.69 37.28 24.69 37.28L24.28 37.18L24.21 37.16L24.05 37.12H24.01L23.44 37.14L22.56 37.18L21.63 37.22L19.08 37.32L16.47 37.21L15.59 37.18L14.71 37.14L14.14 37.12H14.09L13.93 37.17L13.86 37.19L13.46 37.29C13.46 37.29 13.35 37.22 13.18 37.07C13.14 37.04 13.09 37 13.04 36.95C13.02 36.93 12.99 36.9 12.97 36.88C12.95 36.86 12.92 36.83 12.89 36.81C12.86 36.78 12.83 36.75 12.8 36.73C12.8 36.73 12.75 36.67 12.72 36.64C12.69 36.61 12.66 36.58 12.63 36.55C12.57 36.49 12.5 36.42 12.44 36.34C12.39 36.29 12.35 36.25 12.31 36.19C12.31 36.18 12.3 36.17 12.29 36.16C12.23 36.1 12.18 36.04 12.13 35.98C12.06 35.89 11.99 35.8 11.92 35.71C11.85 35.61 11.77 35.51 11.7 35.4C11.24 34.74 10.77 33.91 10.38 32.87L10.34 32.84Z" fill="#FDD8AB"/>
<g style="mix-blend-mode:color-burn" opacity="0.2">
<path d="M19.06 34.48H18.49L18.75 32.41C18.85 32.41 18.96 32.41 19.07 32.41V34.49L19.06 34.48Z" fill="#616161"/>
</g>
<g style="mix-blend-mode:color-burn" opacity="0.2">
<path d="M19.06 41.46H25.07C24.08 40.07 22.7 38.65 21.16 38.65H21.14C20.6 37.95 19.89 37.53 19.12 37.53C19.1 37.53 19.08 37.53 19.06 37.53V41.46Z" fill="#616161"/>
</g>
<g style="mix-blend-mode:color-burn" opacity="0.2">
<path d="M19.06 34.48H19.63L19.37 32.41C19.26 32.41 19.16 32.41 19.05 32.41V34.49L19.06 34.48Z" fill="#616161"/>
</g>
<g style="mix-blend-mode:color-burn" opacity="0.2">
<path d="M21.15 32.74C24.06 33.38 25.63 34.36 26.46 35.36C25.86 36.22 25.28 36.77 24.96 37.05L21.16 32.74H21.15Z" fill="#616161"/>
</g>
<path d="M19.06 38.39C19.06 38.39 19.1 38.39 19.12 38.39C19.41 38.39 19.68 38.45 19.95 38.56C19.97 38.49 19.98 38.42 19.98 38.35V37.98C19.71 37.86 19.42 37.8 19.12 37.8C19.1 37.8 19.08 37.8 19.06 37.8V38.39Z" fill="#FDD8AB"/>
<path d="M19.06 39.22C19.06 39.22 19.08 39.22 19.09 39.22C19.51 39.22 19.85 38.93 19.95 38.54C19.69 38.43 19.41 38.37 19.12 38.37C19.1 38.37 19.08 38.37 19.06 38.37V39.21V39.22Z" fill="#FDD8AB"/>
<path d="M13.96 37.37L15.5 37.39L18.14 37.42V37.96C18.41 37.84 18.7 37.78 19 37.78C19.02 37.78 19.04 37.78 19.06 37.78C19.06 37.78 19.1 37.78 19.12 37.78C19.42 37.78 19.7 37.84 19.98 37.96V37.42L22.62 37.39L24.16 37.37C24.43 36.9 24.31 36.85 24.31 36.31C24.31 34.96 23.38 33.78 21.97 33.07C21.97 33.07 21.96 33.07 21.95 33.07C21.7 32.95 21.43 32.84 21.15 32.75C20.6 32.57 20 32.46 19.38 32.42C19.34 32.42 19.31 32.42 19.28 32.42C19.21 32.42 19.14 32.42 19.07 32.42C19 32.42 18.93 32.42 18.86 32.42C18.83 32.42 18.79 32.42 18.76 32.42C18.13 32.45 17.54 32.57 16.99 32.75C16.71 32.84 16.44 32.95 16.19 33.07C16.19 33.07 16.18 33.07 16.17 33.07C14.76 33.78 13.82 34.96 13.82 36.31C13.82 36.85 13.7 36.9 13.97 37.37H13.96Z" fill="#FDD8AB"/>
<g style="mix-blend-mode:color-burn" opacity="0.2">
<path d="M21.15 32.74C21.43 32.85 21.7 32.95 21.95 33.06C21.95 33.06 21.96 33.06 21.97 33.06C23.38 33.77 24.31 34.95 24.31 36.3C24.31 36.84 24.43 36.89 24.16 37.36L22.62 37.38L21.15 32.73V32.74Z" fill="#616161"/>
</g>
<g style="mix-blend-mode:color-burn" opacity="0.2">
<path d="M16.97 32.74C16.69 32.85 16.42 32.95 16.17 33.06C16.17 33.06 16.16 33.06 16.15 33.06C14.74 33.77 13.8 34.95 13.8 36.3C13.8 36.84 13.68 36.89 13.95 37.36L15.49 37.38L16.96 32.73L16.97 32.74Z" fill="#616161"/>
</g>
<path d="M19.06 38.39C19.06 38.39 19.02 38.39 19 38.39C18.71 38.39 18.43 38.45 18.17 38.56C18.15 38.49 18.14 38.42 18.14 38.35V37.98C18.41 37.86 18.7 37.8 19 37.8C19.02 37.8 19.04 37.8 19.06 37.8V38.39Z" fill="#FDD8AB"/>
<path d="M19.06 39.22C19.06 39.22 19.04 39.22 19.03 39.22C18.61 39.22 18.27 38.93 18.17 38.54C18.43 38.43 18.71 38.37 19 38.37C19.02 38.37 19.04 38.37 19.06 38.37V39.21V39.22Z" fill="#FDD8AB"/>
<g style="mix-blend-mode:color-burn" opacity="0.2">
<path d="M11.66 35.36C12.49 34.36 14.06 33.38 16.97 32.74L15.39 34.53L15.29 34.64L14.06 36.04L13.8 36.34L13.16 37.06C13.16 37.06 13.07 36.99 13.03 36.94C13.01 36.92 12.98 36.9 12.96 36.87C12.93 36.85 12.91 36.82 12.88 36.8C12.85 36.77 12.83 36.74 12.8 36.72C12.8 36.72 12.75 36.67 12.72 36.63C12.69 36.6 12.66 36.57 12.63 36.54C12.57 36.47 12.5 36.4 12.44 36.33C12.39 36.28 12.35 36.23 12.31 36.18C12.31 36.18 12.29 36.16 12.28 36.15C12.23 36.09 12.18 36.03 12.12 35.96C12.05 35.87 11.98 35.78 11.91 35.69C11.83 35.59 11.76 35.49 11.68 35.38L11.66 35.36Z" fill="#616161"/>
</g>
<path d="M11.29 38.37C11.29 38.19 11.29 38.01 11.33 37.82C11.41 37.22 11.64 36.59 12.1 35.95C12.54 35.34 13.18 34.73 14.1 34.14C14.15 34.1 14.21 34.07 14.27 34.03C14.8 33.7 15.42 33.38 16.15 33.07C16.17 33.06 16.18 33.05 16.19 33.05C16.2 33.05 16.21 33.04 16.23 33.03C16.27 33.01 16.32 32.99 16.36 32.98C16.49 32.93 16.62 32.87 16.76 32.82C16.83 32.79 16.9 32.77 16.97 32.74L15.28 36.01L14.7 37.13L14.57 37.39L12.45 41.47C12.45 41.47 11.29 40.14 11.29 38.38V38.37Z" fill="#EBEBEB"/>
<path d="M21.15 32.74C22.23 33.15 23.12 33.58 23.85 34.03C23.91 34.07 23.97 34.1 24.02 34.14C25.9 35.35 26.63 36.65 26.79 37.82C26.82 38.01 26.83 38.19 26.83 38.37C26.83 40.13 25.67 41.46 25.67 41.46L21.15 32.74Z" fill="#EBEBEB"/>
<path d="M24.95 36.27L24.4 35.55L24.65 36.42L24.95 36.27Z" fill="#333333"/>
<path d="M23.06 34.51L22.51 33.79L22.76 34.66L23.06 34.51Z" fill="#333333"/>
<path d="M25.94 40.6L25.39 39.88L25.64 40.75L25.94 40.6Z" fill="#333333"/>
<path d="M25.22 39.08L24.67 38.35L24.92 39.23L25.22 39.08Z" fill="#333333"/>
<path d="M24.5 37.56L23.95 36.83L24.2 37.7L24.5 37.56Z" fill="#333333"/>
<path d="M23.78 36.0301L23.23 35.3101L23.48 36.1801L23.78 36.0301Z" fill="#333333"/>
<path d="M23.85 34.03C23.91 34.07 23.97 34.1 24.02 34.14L24.34 34.56L24.04 34.71L23.85 34.03Z" fill="#333333"/>
<path d="M26.39 39.31L25.84 38.59L26.09 39.46L26.39 39.31Z" fill="#333333"/>
<path d="M25.67 37.7899L25.12 37.0699L25.37 37.9399L25.67 37.7899Z" fill="#333333"/>
<path d="M26.56 37.51L26.79 37.82C26.82 38.01 26.83 38.19 26.83 38.37H26.8L26.55 37.51H26.56Z" fill="#333333"/>
<path d="M26.07 36.43L25.52 35.7L25.77 36.57L26.07 36.43Z" fill="#333333"/>
<path d="M13.17 36.27L13.71 35.55L13.47 36.42L13.17 36.27Z" fill="#333333"/>
<path d="M15.06 34.51L15.6 33.79L15.36 34.66L15.06 34.51Z" fill="#333333"/>
<path d="M12.18 40.6L12.72 39.88L12.48 40.75L12.18 40.6Z" fill="#333333"/>
<path d="M12.9 39.08L13.44 38.35L13.2 39.23L12.9 39.08Z" fill="#333333"/>
<path d="M13.62 37.56L14.16 36.83L13.92 37.7L13.62 37.56Z" fill="#333333"/>
<path d="M14.34 36.0301L14.88 35.3101L14.63 36.1801L14.34 36.0301Z" fill="#333333"/>
<path d="M14.27 34.03C14.21 34.07 14.15 34.1 14.1 34.14L13.78 34.56L14.08 34.71L14.27 34.03Z" fill="#333333"/>
<path d="M11.73 39.31L12.28 38.59L12.03 39.46L11.73 39.31Z" fill="#333333"/>
<path d="M12.45 37.7899L13 37.0699L12.75 37.9399L12.45 37.7899Z" fill="#333333"/>
<path d="M11.29 38.37C11.29 38.19 11.29 38.01 11.33 37.82L11.56 37.51L11.31 38.38H11.29V38.37Z" fill="#333333"/>
<path d="M12.05 36.43L12.6 35.7L12.35 36.57L12.05 36.43Z" fill="#333333"/>
<path d="M16.22 39.77C17.05 39.77 17.82 40.01 18.48 40.41L17.68 39.14L17.34 38.59L16.46 37.2L13.65 32.73C13.87 32.38 13.98 32.05 14.05 31.74L14.72 31.54L19.07 30.24L21.78 29.43L22.69 29.16C22.72 29.27 22.76 29.38 22.81 29.5C24.38 30.17 23.66 31.25 24.43 32.6L21.64 37.2L20.8 38.58L20.55 39L19.69 40.42C20.35 40.02 21.12 39.79 21.95 39.8C24.37 39.8 26.33 41.77 26.33 44.2C26.33 45.63 19.18 53.07 19.18 53.07C19.18 53.07 11.84 45.86 11.84 44.17C11.84 41.74 13.81 39.78 16.24 39.79L16.22 39.77Z" fill="#333333"/>
<g style="mix-blend-mode:color-burn" opacity="0.2">
<path d="M21.77 29.43L22.68 29.16C22.71 29.27 22.75 29.38 22.8 29.5C24.42 30.19 23.6 31.32 24.5 32.74C24.6 32.63 26.37 29.93 26.67 27.97L26.89 27.9C27.36 29.94 24.27 33.36 24.27 33.36C24.27 33.36 22.89 29.95 21.77 29.43Z" fill="#616161"/>
</g>
<g style="mix-blend-mode:color-burn" opacity="0.2">
<path d="M12.85 32.09L13.08 32.02L13.15 32C13.35 32.33 13.5 32.57 13.57 32.68C13.59 32.71 13.61 32.73 13.61 32.74C13.83 32.38 13.95 32.05 14.03 31.74L14.7 31.54C14.2 32.48 13.84 33.36 13.84 33.36C13.84 33.36 13.38 32.84 12.84 32.1L12.85 32.09Z" fill="#616161"/>
</g>
<g style="mix-blend-mode:color-burn" opacity="0.2">
<path d="M17.33 38.58L18.15 37.97C18.42 37.85 18.71 37.78 19 37.78C19.02 37.78 19.04 37.78 19.06 37.78C19.08 37.78 19.1 37.78 19.12 37.78C19.42 37.78 19.7 37.84 19.98 37.97L20.78 38.58L20.53 39C20.03 38.75 19.32 38.39 19.12 38.39C19.1 38.39 19.08 38.39 19.06 38.39C19.06 38.39 19.02 38.39 19 38.39C18.82 38.39 18.17 38.81 17.67 39.14L17.33 38.59V38.58Z" fill="#616161"/>
</g>
<path d="M17.98 47.42C18.45 47.37 18.85 47.08 19.06 46.67C19.26 47.08 19.66 47.37 20.14 47.42C21.31 46.75 22.15 45.05 22.15 43.06C22.15 41.64 21.73 40.38 21.07 39.52V39.51C20.73 39.07 20.32 38.75 19.88 38.56C19.63 38.46 19.36 38.4 19.09 38.39C18.81 38.39 18.55 38.45 18.29 38.56C17.85 38.74 17.44 39.07 17.1 39.51V39.52C16.44 40.38 16.02 41.64 16.02 43.06C16.02 45.05 16.85 46.75 18.03 47.42H17.98Z" fill="#FDD8AB"/>
<path d="M16.9 47.7499C16.9 48.2499 19.08 50.3899 19.08 50.3899C19.08 50.3899 21.2 48.1799 21.21 47.7499C21.21 47.0299 20.63 46.4399 19.91 46.4399C19.66 46.4399 19.43 46.5099 19.24 46.6299H18.89C18.7 46.5099 18.47 46.4399 18.22 46.4399C17.5 46.4399 16.91 47.0199 16.91 47.7399L16.9 47.7499Z" fill="#333333"/>
<path d="M21.37 43.32C21.37 43.32 21.39 43.25 21.39 43.21C21.39 42.97 21.1 42.78 20.73 42.78C20.36 42.78 20.07 42.97 20.07 43.21C20.07 43.25 20.07 43.28 20.09 43.32H21.36H21.37Z" fill="#333333"/>
<path d="M16.75 43.32C16.75 43.32 16.73 43.25 16.73 43.21C16.73 42.97 17.02 42.78 17.39 42.78C17.76 42.78 18.05 42.97 18.05 43.21C18.05 43.25 18.05 43.28 18.03 43.32H16.76H16.75Z" fill="#333333"/>
<path d="M18.2 40.09H19.92C19.75 39.86 19.43 39.71 19.06 39.7C18.69 39.7 18.38 39.86 18.2 40.09Z" fill="#454545"/>
<path d="M19.06 40.13C19.45 40.59 20 40.01 20 40.01H18.11C18.11 40.01 18.66 40.59 19.05 40.13H19.06Z" fill="#333333"/>
<g style="mix-blend-mode:color-burn" opacity="0.2">
<path d="M19.06 42.59V42.61V42.6V42.61V42.59L19.55 41.02H19.06H18.56L19.06 42.59Z" fill="#616161"/>
</g>
<path d="M18.11 44.26L16.81 44.19H16.79L16.78 44.18L16.27 43.62L16.84 44.13L16.81 44.12L18.12 44.05L18.11 44.26Z" fill="#333333"/>
<path d="M19.89 44.05L21.19 44.12L21.17 44.13L21.74 43.62L21.22 44.18L21.21 44.19H21.19L19.89 44.26V44.05Z" fill="#333333"/>
<g style="mix-blend-mode:color-burn" opacity="0.2">
<path d="M18.16 47.39C18.1 47.41 18.05 47.41 17.99 47.42C18.05 47.42 18.11 47.4 18.16 47.39Z" fill="#616161"/>
</g>
<g style="mix-blend-mode:color-burn" opacity="0.2">
<path d="M18.62 47.1801C18.62 47.1801 18.61 47.1801 18.6 47.1901C18.6 47.1901 18.62 47.1901 18.62 47.1801Z" fill="#616161"/>
</g>
<g style="mix-blend-mode:color-burn" opacity="0.2">
<path d="M18.48 47.26C18.48 47.26 18.46 47.26 18.45 47.28C18.46 47.28 18.47 47.28 18.48 47.26Z" fill="#616161"/>
</g>
<g style="mix-blend-mode:color-burn" opacity="0.2">
<path d="M18.32 47.34C18.32 47.34 18.28 47.35 18.26 47.36C18.28 47.36 18.3 47.35 18.32 47.34Z" fill="#616161"/>
</g>
<path d="M22.06 41.43C22.06 41.68 23.16 42.76 23.16 42.76C23.16 42.76 24.23 41.65 24.23 41.43C24.23 41.07 23.94 40.77 23.57 40.77C23.45 40.77 23.33 40.8 23.23 40.86L23.64 40.16H22.64L23.05 40.86C22.95 40.8 22.84 40.77 22.71 40.77C22.35 40.77 22.05 41.06 22.05 41.43H22.06Z" fill="#FFD675"/>
<g style="mix-blend-mode:color-burn" opacity="0.2">
<path d="M23.27 40.38L23.15 40.59L23.02 40.38H23.27ZM23.35 41.05C23.41 41.01 23.49 40.99 23.57 40.99C23.69 40.99 23.8 41.04 23.88 41.12C23.96 41.2 24.01 41.31 24.01 41.43C23.97 41.53 23.56 42.01 23.15 42.45C22.73 42.02 22.31 41.54 22.27 41.41C22.27 41.31 22.32 41.2 22.4 41.12C22.48 41.04 22.59 40.99 22.71 40.99C22.79 40.99 22.87 41.01 22.94 41.05H23.34H23.35Z" fill="#616161"/>
</g>
<path d="M13.8 41.43C13.8 41.68 14.9 42.76 14.9 42.76C14.9 42.76 15.97 41.65 15.97 41.43C15.97 41.07 15.68 40.77 15.31 40.77C15.19 40.77 15.07 40.8 14.97 40.86L15.38 40.16H14.38L14.79 40.86C14.69 40.8 14.58 40.77 14.45 40.77C14.09 40.77 13.79 41.06 13.79 41.43H13.8Z" fill="#FFD675"/>
<g style="mix-blend-mode:color-burn" opacity="0.2">
<path d="M15.01 40.38L14.88 40.59L14.76 40.38H15.01ZM15.09 41.05C15.15 41.01 15.23 40.99 15.31 40.99C15.43 40.99 15.54 41.04 15.63 41.12C15.71 41.2 15.76 41.31 15.76 41.43C15.72 41.53 15.31 42.01 14.9 42.45C14.48 42.02 14.06 41.54 14.02 41.41C14.02 41.31 14.07 41.2 14.15 41.12C14.23 41.04 14.34 40.99 14.46 40.99C14.54 40.99 14.62 41.01 14.69 41.05H15.09Z" fill="#616161"/>
</g>
<g style="mix-blend-mode:color-burn" opacity="0.2">
<path d="M11.66 35.37C11.74 35.48 11.81 35.58 11.88 35.68C11.91 35.71 11.93 35.74 11.96 35.77C12.01 35.83 12.05 35.89 12.1 35.94C11.64 36.58 11.41 37.22 11.33 37.81C11.3 38 11.29 38.18 11.29 38.36C11.29 40.12 12.45 41.45 12.45 41.45H12.75C12.17 42.19 11.82 43.12 11.82 44.14C11.82 45.82 19.06 52.95 19.15 53.04V30.2L19.06 30.23L14.71 31.53L14.17 31.69L14.04 31.73C14.04 31.73 14.02 31.81 14.01 31.85C14 31.89 13.99 31.93 13.98 31.97C13.9 32.21 13.8 32.47 13.63 32.73C13.63 32.73 13.61 32.71 13.59 32.68C13.52 32.57 13.36 32.33 13.17 32L13.1 32.02L13 32.05L12.86 32.09L10.35 32.84C10.74 33.88 11.22 34.71 11.67 35.37H11.66Z" fill="#616161"/>
</g>
<path d="M8.62 12.94C8.62 12.44 6.43999 10.3 6.43999 10.3C6.43999 10.3 4.31 12.51 4.31 12.94C4.31 13.66 4.89 14.25 5.61 14.25C5.86 14.25 6.08999 14.18 6.27999 14.06L5.46 15.45H7.43999L6.63 14.06C6.83 14.18 7.05 14.25 7.3 14.25C8.02 14.25 8.61 13.67 8.61 12.95L8.62 12.94Z" fill="#333333"/>
<g style="mix-blend-mode:color-burn" opacity="0.2">
<path d="M8.62 12.94C8.62 12.44 6.44 10.3 6.44 10.3V15.45H7.46L6.65001 14.06C6.85001 14.18 7.07 14.25 7.32 14.25C8.04 14.25 8.63 13.67 8.63 12.95L8.62 12.94Z" fill="#616161"/>
</g>
<path d="M32.79 44.86C32.79 45.36 34.97 47.5 34.97 47.5C34.97 47.5 37.1 45.29 37.1 44.86C37.1 44.14 36.52 43.55 35.8 43.55C35.55 43.55 35.32 43.62 35.13 43.74L35.95 42.35H33.97L34.78 43.74C34.59 43.62 34.36 43.55 34.11 43.55C33.39 43.55 32.8 44.13 32.8 44.85L32.79 44.86Z" fill="#333333"/>
<g style="mix-blend-mode:color-burn" opacity="0.2">
<path d="M32.79 44.86C32.79 45.36 34.97 47.5 34.97 47.5V42.35H33.95L34.76 43.74C34.57 43.62 34.34 43.55 34.09 43.55C33.37 43.55 32.78 44.13 32.78 44.85L32.79 44.86Z" fill="#616161"/>
</g>
</svg>
