<svg width="41" height="57" viewBox="0 0 41 57" fill="none" xmlns="http://www.w3.org/2000/svg">
<path d="M4.82004 56.16C2.48004 56.16 0.560035 54.29 0.520035 51.91L0.400024 4.75C0.430024 2.5 2.34003 0.619995 4.69003 0.619995L35.85 0.679995C38.19 0.679995 40.1 2.57 40.1 4.89V51.94C40.1 54.24 38.2 56.12 35.86 56.12L4.81003 56.16H4.82004Z" fill="#C9C9C9"/>
<path d="M5.14 56.1C2.79 56.1 0.879995 54.23 0.869995 51.92L0.75 4.75998C0.75 2.43998 2.64999 0.549976 5.00999 0.559976L36.17 0.619976C38.51 0.619976 40.42 2.50998 40.42 4.82998V51.88C40.42 54.18 38.52 56.06 36.18 56.06L5.13 56.1H5.14Z" fill="white"/>
<path d="M35.9099 55.16H5.19994C3.39994 55.16 1.93994 53.71 1.93994 51.92V4.87C1.93994 3.08 3.39994 1.63 5.19994 1.63H35.9099C37.7099 1.63 39.1699 3.08 39.1699 4.87V51.91C39.1699 53.7 37.7099 55.15 35.9099 55.15V55.16ZM5.19994 2.92C4.10994 2.92 3.22993 3.8 3.22993 4.87V51.91C3.22993 52.99 4.10994 53.86 5.19994 53.86H35.9099C36.9999 53.86 37.8799 52.98 37.8799 51.91V4.87C37.8799 3.79 36.9999 2.92 35.9099 2.92H5.19994Z" fill="#333333"/>
<path d="M7.99995 8.22995C7.99995 8.22995 7.84995 8.36995 7.64995 8.52995C7.38995 8.72995 7.15996 8.85995 6.95996 8.90995L5.88995 6.95995L5.82996 6.99995V8.70995H4.57996V4.25995H5.82996V6.78995C6.04996 6.75995 6.23996 6.60995 6.40996 6.33995C6.56996 6.09995 6.64995 5.86995 6.64995 5.64995C6.64995 5.49995 6.62996 5.35995 6.57996 5.24995C6.51996 5.14995 6.46996 5.04995 6.40996 4.94995C6.40996 4.90995 6.54996 4.77995 6.81996 4.56995C7.04996 4.39995 7.20995 4.27995 7.30995 4.19995C7.38995 4.25995 7.45996 4.37995 7.51996 4.52995C7.57996 4.68995 7.61995 4.82995 7.61995 4.94995C7.61995 5.05995 7.59996 5.18995 7.54996 5.33995C7.50996 5.48995 7.43995 5.62995 7.36995 5.74995C7.25995 5.92995 7.14995 6.06995 7.05995 6.15995C6.86995 6.34995 6.76995 6.45995 6.75995 6.47995L7.98996 8.23995L7.99995 8.22995Z" fill="#333333"/>
<path d="M33.27 49.07C33.27 49.07 33.41 48.93 33.62 48.77C33.88 48.57 34.12 48.44 34.31 48.39L35.37 50.34L35.43 50.3V48.59H36.68V53.04H35.43V50.51C35.22 50.54 35.02 50.69 34.85 50.95C34.69 51.19 34.61 51.42 34.61 51.64C34.61 51.79 34.64 51.93 34.68 52.04C34.74 52.14 34.79 52.24 34.84 52.34C34.84 52.38 34.7 52.51 34.43 52.72C34.2 52.89 34.04 53.01 33.94 53.09C33.86 53.02 33.79 52.91 33.73 52.76C33.66 52.6 33.63 52.47 33.63 52.34C33.63 52.23 33.65 52.1 33.7 51.95C33.74 51.8 33.81 51.66 33.88 51.54C34 51.36 34.1 51.22 34.19 51.13C34.38 50.94 34.47 50.83 34.49 50.81L33.26 49.05L33.27 49.07Z" fill="#333333"/>
<path d="M31.9 18.34L31.82 18.05C31.82 18.05 26.51 15.02 24.81 14.06C24.49 13.88 24.3 13.77 24.29 13.77H16.73C16.73 13.77 16.72 13.77 16.7 13.79C16.68 13.79 16.67 13.81 16.64 13.82C16.62 13.83 16.6 13.84 16.57 13.86C16.55 13.87 16.53 13.89 16.5 13.9C16.47 13.92 16.45 13.93 16.42 13.95C16.37 13.97 16.33 14 16.27 14.03C16.17 14.09 16.05 14.16 15.92 14.23C15.82 14.29 15.72 14.34 15.61 14.41C15.57 14.43 15.54 14.45 15.5 14.47C15.25 14.61 14.97 14.77 14.67 14.94C14.56 15 14.45 15.06 14.34 15.13C14.23 15.19 14.12 15.25 14.01 15.32C13.9 15.39 13.78 15.45 13.67 15.52C12.17 16.37 10.52 17.32 9.70999 17.78C9.66999 17.81 9.61999 17.83 9.57999 17.86C9.38999 17.97 9.25998 18.04 9.22998 18.06V30.67L14.18 29.18L15.3 28.84L31.92 23.85V18.35L31.9 18.34Z" fill="#333333"/>
<path d="M20.57 20.3L18.5 16.71H22.64L20.57 20.3ZM18.9 16.94L20.57 19.84L22.25 16.94H18.9Z" fill="#FFD675"/>
<g style="mix-blend-mode:color-burn" opacity="0.2">
<path d="M17.7899 13.77L10.2599 18.05L9.20996 21.29V30.65L14.16 29.16L15.28 28.82L18.24 19.11L18.64 17.81L19.22 16.57L20.5099 13.81V13.76H17.7899V13.77Z" fill="#616161"/>
</g>
<path d="M16.73 13.77C16.73 13.77 16.72 13.77 16.7 13.79C16.68 13.79 16.67 13.81 16.64 13.82C16.62 13.83 16.6 13.84 16.57 13.86C16.55 13.87 16.53 13.89 16.5 13.9C16.47 13.92 16.45 13.93 16.42 13.95C16.37 13.97 16.33 14 16.27 14.03C16.17 14.09 16.05 14.15 15.92 14.23C15.82 14.29 15.72 14.34 15.61 14.41C15.57 14.43 15.54 14.45 15.5 14.47C15.25 14.61 14.97 14.77 14.67 14.94C14.56 15 14.45 15.06 14.34 15.13C14.23 15.19 14.12 15.25 14.01 15.32C13.9 15.38 13.78 15.45 13.67 15.52C13.19 15.8 12.69 16.08 12.2 16.36C12.06 16.44 11.91 16.52 11.77 16.6C10.93 17.08 10.17 17.51 9.70999 17.78C9.66999 17.81 9.61999 17.83 9.57999 17.86C9.38999 17.97 9.25998 18.04 9.22998 18.06V30.67L10.11 30.4L10.61 30.25L14.13 29.19L14.19 29.17C14.36 28.78 14.53 28.37 14.71 27.94C15.9 25.09 17.34 21.48 18.27 19.13C18.85 17.67 19.24 16.69 19.24 16.69V16.59L19.5 13.78H16.75L16.73 13.77Z" fill="#EBEBEB"/>
<g style="mix-blend-mode:color-burn" opacity="0.2">
<path d="M31.9 21.86L30.75 18.05C30.75 18.05 23.26 13.78 23.22 13.77H20.5V13.82L22.37 17.82L24.8 26.12L31.9 23.55V21.86Z" fill="#616161"/>
</g>
<path d="M31.9 18.34L31.81 18.05C31.81 18.05 24.32 13.78 24.28 13.77H21.53L21.79 16.68C21.79 16.68 25.02 23.38 26.17 25.56L31.89 23.84V18.34H31.9Z" fill="#EBEBEB"/>
<path d="M24.8799 11.92L24.7999 10.9V10.86L24.5599 7.73L23.3999 7.14L21.1499 6L20.5299 6.34L19.9099 6L17.6599 7.14L16.4999 7.73L16.2699 10.86L16.2599 10.9L16.1899 11.92L17.1199 15.03L20.5299 17.83V17.84H20.5399V17.83L24.1899 14.85L24.8799 11.92Z" fill="#EBBE9F"/>
<path d="M20.54 13.7699L21.92 13.7199L20.89 13.0699C20.89 13.0699 20.72 13.0699 20.54 13.0699H20.53C20.35 13.0699 20.18 13.0699 20.18 13.0699L19.15 13.7199L20.53 13.7699H20.54Z" fill="#EBBE9F"/>
<g style="mix-blend-mode:color-burn" opacity="0.2">
<path d="M21.3699 11.8L20.81 9.83997H20.5399H20.53H20.2599L19.7 11.8L20.2599 12.41L20.53 12.42H20.5399L20.81 12.41L21.3699 11.8Z" fill="#616161"/>
</g>
<path d="M21.13 9.31997L22.9 9.08997H22.94L22.96 9.09997L23.8 9.54997L22.88 9.28997L22.94 9.29997L21.22 9.77997L21.13 9.31997Z" fill="#9C9C9C"/>
<path d="M21.75 10.0601C21.72 10.1201 21.71 10.1901 21.71 10.2701C21.71 10.5501 21.93 10.7701 22.21 10.7701C22.49 10.7701 22.71 10.5501 22.71 10.2701C22.71 10.2001 22.69 10.1301 22.67 10.0601H21.7599H21.75Z" fill="#333333"/>
<path d="M19.94 9.31997L18.17 9.08997H18.13L18.11 9.09997L17.27 9.54997L18.18 9.28997L18.13 9.29997L19.84 9.77997L19.94 9.31997Z" fill="#9C9C9C"/>
<path d="M19.32 10.0601C19.35 10.1201 19.36 10.1901 19.36 10.2701C19.36 10.5501 19.14 10.7701 18.86 10.7701C18.58 10.7701 18.36 10.5501 18.36 10.2701C18.36 10.2001 18.38 10.1301 18.41 10.0601H19.32Z" fill="#333333"/>
<path d="M24.8 10.9L24.76 10.93L23.94 8.04001L23.4 7.14001L24.56 7.73001L24.79 10.86V10.9H24.8Z" fill="#9C9C9C"/>
<path d="M16.26 10.9L16.3 10.93L17.12 8.04001L17.66 7.14001L16.5 7.73001L16.27 10.86V10.9H16.26Z" fill="#9C9C9C"/>
<path d="M24.64 6.60996V7.80996C23.6 8.08996 22.44 8.20996 21.33 8.24996C20.59 8.26996 19.87 8.24996 19.21 8.21996C18.89 8.19996 18.58 8.17996 18.3 8.14996C17.96 8.11996 17.66 8.08996 17.4 8.05996C16.77 7.97996 16.39 7.91996 16.39 7.91996V6.77996C16.39 6.77996 20.5 4.57996 20.52 4.57996C20.52 4.58996 21.03 4.84996 21.7 5.16996C21.91 5.27996 22.14 5.38996 22.37 5.49996C22.59 5.60996 22.81 5.71996 23.03 5.81996C23.64 6.11996 24.2 6.38996 24.48 6.51996C24.6 6.57996 24.66 6.60996 24.66 6.60996H24.64Z" fill="#FFD675"/>
<path opacity="0.2" d="M22.36 5.49004L18.3 8.14004C17.96 8.11004 17.66 8.08004 17.4 8.05004L21.7 5.17004C21.91 5.28004 22.14 5.39004 22.37 5.50004L22.36 5.49004Z" fill="white"/>
<path opacity="0.2" d="M24.46 6.51995L21.33 8.23995C20.59 8.25995 19.87 8.23995 19.21 8.20995L23.0099 5.81995C23.6199 6.11995 24.18 6.38995 24.46 6.51995Z" fill="white"/>
<path d="M12.4 22.05L12.26 23.01L12.74 22.16L12.4 22.05Z" fill="#333333"/>
<path d="M14.29 22.05L14.16 23.01L14.63 22.16L14.29 22.05Z" fill="#333333"/>
<path d="M16.1901 22.05L16.0601 23.01L16.5301 22.16L16.1901 22.05Z" fill="#333333"/>
<path d="M10.02 25.16L9.89001 26.12L10.36 25.27L10.02 25.16Z" fill="#333333"/>
<path d="M11.92 25.16L11.78 26.12L12.26 25.27L11.92 25.16Z" fill="#333333"/>
<path d="M13.8199 25.16L13.6799 26.12L14.1599 25.27L13.8199 25.16Z" fill="#333333"/>
<path d="M10.6 28.29L10.47 29.25L10.94 28.4L10.6 28.29Z" fill="#333333"/>
<path d="M12.5 28.29L12.36 29.25L12.84 28.4L12.5 28.29Z" fill="#333333"/>
<path d="M14.53 28.22C14.44 28.44 14.35 28.64 14.27 28.84H14.24L14.34 28.16L14.53 28.22Z" fill="#333333"/>
<path d="M15.72 16.63L15.58 17.59L16.06 16.74L15.72 16.63Z" fill="#333333"/>
<path d="M13.8199 16.24L13.6799 17.2L14.1599 16.36L13.8199 16.24Z" fill="#333333"/>
<path d="M12.05 16.59L11.79 17.06L11.84 16.71C11.91 16.67 11.98 16.63 12.05 16.59Z" fill="#333333"/>
<path d="M10.46 30.24L10.22 30.32L10.24 30.17L10.46 30.24Z" fill="#333333"/>
<path d="M10.0699 18.92L9.93994 19.88L10.4099 19.03L10.0699 18.92Z" fill="#333333"/>
<path d="M12.18 18.92L12.04 19.88L12.5201 19.03L12.18 18.92Z" fill="#333333"/>
<path d="M14.0799 18.92L13.9399 19.88L14.4199 19.03L14.0799 18.92Z" fill="#333333"/>
<path d="M15.98 18.92L15.84 19.88L16.32 19.03L15.98 18.92Z" fill="#333333"/>
<path d="M17.92 17.13L17.79 18.1L18.26 17.25L17.92 17.13Z" fill="#333333"/>
<path d="M10.28 22.05L10.15 23.01L10.62 22.16L10.28 22.05Z" fill="#333333"/>
<path d="M29.08 22.05L29.21 23.01L28.74 22.16L29.08 22.05Z" fill="#333333"/>
<path d="M27.18 22.05L27.32 23.01L26.84 22.16L27.18 22.05Z" fill="#333333"/>
<path d="M25.2799 22.05L25.4199 23.01L24.9399 22.16L25.2799 22.05Z" fill="#333333"/>
<path d="M25.76 16.63L25.89 17.59L25.42 16.74L25.76 16.63Z" fill="#333333"/>
<path d="M27.6501 16.24L27.7901 17.2L27.3201 16.36L27.6501 16.24Z" fill="#333333"/>
<path d="M29.3 16.88L29.56 17.35L29.51 17C29.44 16.96 29.37 16.92 29.3 16.88Z" fill="#333333"/>
<path d="M31.4001 18.92L31.5401 19.88L31.0601 19.03L31.4001 18.92Z" fill="#333333"/>
<path d="M29.2899 18.92L29.4299 19.88L28.95 19.03L29.2899 18.92Z" fill="#333333"/>
<path d="M27.3901 18.92L27.5301 19.88L27.0601 19.03L27.3901 18.92Z" fill="#333333"/>
<path d="M25.5 18.92L25.63 19.88L25.16 19.03L25.5 18.92Z" fill="#333333"/>
<path d="M23.55 17.13L23.69 18.1L23.21 17.25L23.55 17.13Z" fill="#333333"/>
<path d="M31.19 22.05L31.33 23.01L30.85 22.16L31.19 22.05Z" fill="#333333"/>
<path d="M18.83 16.5099C18.8 16.6499 18.78 16.7999 18.78 16.9499C18.78 18.0399 19.66 18.9199 20.75 18.9199C21.84 18.9199 22.72 18.0399 22.72 16.9499C22.72 16.7199 22.68 16.4899 22.6 16.2799C23.56 16.2099 24.31 15.3999 24.32 14.4299C24.32 13.3999 23.48 12.5699 22.46 12.5699C22.19 12.5699 21.21 12.8699 21 12.9899H20.45C20.2 12.8399 19.12 12.5699 18.86 12.5699C17.77 12.5699 16.88 13.4499 16.89 14.5399C16.89 15.6199 17.76 16.4899 18.83 16.5099Z" fill="#9C9C9C"/>
<path d="M20.79 5.31994C20.79 5.31994 20.79 5.26994 20.79 5.24994C20.79 5.07994 20.65 4.93994 20.48 4.93994C20.31 4.93994 20.17 5.07994 20.17 5.24994C20.17 5.28994 20.17 5.31994 20.19 5.35994C20.04 5.36994 19.92 5.49994 19.92 5.65994C19.92 5.81994 20.05 5.95994 20.22 5.95994C20.26 5.95994 20.42 5.90994 20.45 5.88994L20.25 6.22994H20.7401L20.54 5.88994C20.54 5.88994 20.75 5.95994 20.79 5.95994C20.96 5.95994 21.1001 5.81994 21.1001 5.64994C21.1001 5.47994 20.96 5.33994 20.79 5.33994V5.31994Z" fill="#333333"/>
<g style="mix-blend-mode:color-burn" opacity="0.2">
<path d="M21.63 21.67C21.64 21.59 21.65 21.51 21.64 21.43C21.61 20.85 21.12 20.41 20.53 20.41C19.95 20.41 19.45 20.86 19.43 21.44C19.43 21.57 19.44 21.69 19.48 21.81C18.93 21.85 18.45 22.32 18.4 22.92C18.34 23.58 18.82 24.14 19.47 24.13C19.64 24.13 20.26 23.92 20.39 23.84L19.55 25.39L21.58 25.37L20.73 23.84C20.89 23.94 21.56 24.12 21.73 24.12C22.41 24.12 22.9 23.52 22.83 22.84C22.77 22.2 22.23 21.7 21.62 21.69L21.63 21.67Z" fill="#616161"/>
</g>
<path d="M21.61 21.6C21.63 21.52 21.64 21.44 21.64 21.35C21.64 20.73 21.14 20.23 20.52 20.23C19.9 20.23 19.4 20.73 19.4 21.35C19.4 21.48 19.42 21.61 19.47 21.73C18.93 21.77 18.5 22.23 18.49 22.78C18.49 23.37 18.96 23.84 19.55 23.84C19.71 23.84 20.26 23.67 20.38 23.6L19.66 24.83H21.41L20.69 23.6C20.83 23.69 21.44 23.84 21.59 23.84C22.21 23.84 22.71 23.34 22.71 22.72C22.71 22.1 22.22 21.61 21.61 21.6Z" fill="#FFD675"/>
<g style="mix-blend-mode:color-burn" opacity="0.2">
<path d="M20.5099 23.9401L20.9599 24.5201H20.0999L20.5099 23.9401ZM19.5499 23.4201C19.2099 23.4201 18.9299 23.1401 18.9299 22.7901C18.9299 22.4701 19.1799 22.1901 19.5099 22.1701L20.0799 22.1301L19.8799 21.6001C19.8499 21.5301 19.8399 21.4501 19.8399 21.3701C19.8399 20.9901 20.1499 20.6801 20.5299 20.6801C20.7099 20.6801 20.8899 20.7501 21.0199 20.8801C21.1499 21.0101 21.2199 21.1801 21.2199 21.3601C21.2199 21.4101 21.2199 21.4601 21.1999 21.5201L21.0799 22.0301H21.6099C21.9799 22.0401 22.2899 22.3501 22.2899 22.7301C22.2899 22.9101 22.2199 23.0901 22.0899 23.2201C21.9599 23.3501 21.7899 23.4201 21.5999 23.4201C21.5199 23.4201 21.2499 23.3501 21.0599 23.2901L20.5099 23.0301L20.0199 23.2901C19.8599 23.3401 19.6199 23.4101 19.5499 23.4201Z" fill="#616161"/>
</g>
<path d="M18.9299 13.35H22.2799L21.8099 14.54H19.5399L18.9299 13.35Z" fill="#EBBE9F"/>
<g style="mix-blend-mode:color-burn" opacity="0.2">
<path d="M21.5099 13.52H19.71V13.87H21.5099V13.52Z" fill="#616161"/>
</g>
<g style="mix-blend-mode:color-burn" opacity="0.2">
<path d="M31.82 18.0499C31.82 18.0499 26.51 15.0199 24.81 14.0599C24.65 13.9699 24.52 13.8999 24.43 13.8499L24.88 11.9199L24.8 10.8999V10.8599L24.57 7.81995C24.59 7.81995 24.62 7.80995 24.64 7.79995V6.59995C24.64 6.59995 24.57 6.56995 24.46 6.50995C24.18 6.37995 23.63 6.09995 23.01 5.80995C22.79 5.69995 22.57 5.58995 22.35 5.48995C22.12 5.37995 21.89 5.26995 21.68 5.15995C21.02 4.82995 20.5 4.57995 20.5 4.56995C20.5 4.56995 20.5 4.56995 20.49 4.56995V27.2599L24.75 25.9799L24.79 26.1199L27.21 25.2399L31.88 23.8399V18.3399L31.8 18.0499H31.82Z" fill="#616161"/>
</g>
<path d="M9.20995 38.31L9.28993 38.6C9.28993 38.6 14.5999 41.63 16.2999 42.59C16.6199 42.77 16.8099 42.88 16.8199 42.88H24.3799C24.3799 42.88 24.3899 42.88 24.4099 42.86C24.4299 42.86 24.4399 42.84 24.4699 42.83C24.4899 42.82 24.5099 42.81 24.5399 42.79C24.5599 42.78 24.5899 42.76 24.6099 42.75C24.6399 42.73 24.6599 42.72 24.6899 42.7C24.7399 42.67 24.7799 42.65 24.8399 42.62C24.9399 42.56 25.0599 42.5 25.1899 42.42C25.2899 42.36 25.3899 42.3 25.4999 42.24C25.5399 42.22 25.5699 42.2 25.6099 42.18C25.8599 42.03 26.1399 41.88 26.4399 41.71C26.5499 41.65 26.6599 41.59 26.7699 41.52C26.8799 41.46 26.9899 41.39 27.0999 41.33C27.2099 41.26 27.3299 41.2 27.4399 41.13C28.9399 40.27 30.5999 39.33 31.3999 38.87C31.4499 38.84 31.4899 38.82 31.5299 38.79C31.7199 38.68 31.8499 38.61 31.8799 38.59V25.98L26.9299 27.47L25.8099 27.81L9.18994 32.8V38.3L9.20995 38.31Z" fill="#333333"/>
<path d="M20.54 36.35L22.61 39.94H18.47L20.54 36.35ZM22.22 39.71L20.54 36.81L18.87 39.71H22.22Z" fill="#FFD675"/>
<g style="mix-blend-mode:color-burn" opacity="0.2">
<path d="M23.33 42.88L30.85 38.6L31.9 35.36V26L26.95 27.49L25.83 27.83L22.87 37.54L22.47 38.84L21.89 40.08L20.6 42.84V42.89H23.32L23.33 42.88Z" fill="#616161"/>
</g>
<path d="M24.39 42.88C24.39 42.88 24.4 42.88 24.42 42.86C24.44 42.86 24.45 42.84 24.48 42.83C24.5 42.82 24.52 42.81 24.55 42.79C24.57 42.78 24.6 42.76 24.62 42.75C24.65 42.73 24.67 42.72 24.7 42.7C24.75 42.67 24.79 42.65 24.85 42.62C24.95 42.56 25.07 42.5 25.2 42.42C25.3 42.36 25.4 42.31 25.51 42.24C25.55 42.22 25.58 42.2 25.62 42.18C25.87 42.04 26.15 41.88 26.45 41.71C26.56 41.65 26.67 41.59 26.78 41.52C26.89 41.46 27 41.39 27.11 41.33C27.22 41.27 27.34 41.2 27.45 41.13C27.93 40.85 28.44 40.57 28.92 40.29C29.07 40.21 29.21 40.13 29.35 40.05C30.19 39.57 30.95 39.14 31.41 38.88C31.46 38.85 31.5 38.83 31.54 38.8C31.73 38.69 31.86 38.62 31.89 38.6V25.99L31.01 26.26L30.51 26.41L26.99 27.47L26.93 27.49C26.76 27.88 26.59 28.29 26.41 28.72C25.22 31.57 23.78 35.18 22.85 37.53C22.26 38.99 21.88 39.97 21.88 39.97V40.07L21.62 42.88H24.37H24.39Z" fill="#EBEBEB"/>
<g style="mix-blend-mode:color-burn" opacity="0.2">
<path d="M9.20996 34.79L10.36 38.6C10.36 38.6 17.85 42.87 17.89 42.88H20.61V42.83L18.74 38.83L16.31 30.53L9.20996 33.1V34.79Z" fill="#616161"/>
</g>
<path d="M9.20996 38.31L9.29996 38.6C9.29996 38.6 16.79 42.87 16.82 42.88H19.56L19.3 39.97C19.3 39.97 16.07 33.27 14.92 31.09L9.19995 32.81V38.31H9.20996Z" fill="#EBEBEB"/>
<path d="M16.23 44.7301L16.31 45.7601V45.8001L16.55 48.9301L17.71 49.5201L19.96 50.6501L20.58 50.3201L21.2 50.6501L23.45 49.5201L24.61 48.9301L24.85 45.8001V45.7601L24.93 44.7301L23.99 41.6301L20.59 38.8201L20.58 38.8101V38.8201L20.57 38.8101V38.8201L16.92 41.8001L16.23 44.7301Z" fill="#EBBE9F"/>
<path d="M20.5699 42.88L19.1899 42.93L20.2199 43.58C20.2199 43.58 20.3899 43.58 20.5699 43.58C20.7499 43.58 20.9199 43.58 20.9199 43.58L21.9499 42.93L20.5699 42.88Z" fill="#EBBE9F"/>
<g style="mix-blend-mode:color-burn" opacity="0.2">
<path d="M19.74 44.85L20.31 46.81H20.57H20.58H20.85L21.42 44.85L20.85 44.25L20.58 44.24H20.57L20.31 44.25L19.74 44.85Z" fill="#616161"/>
</g>
<path d="M19.9801 47.33L18.2101 47.56H18.1801L18.1601 47.55L17.3101 47.11L18.2301 47.36H18.1801L19.8901 46.88L19.9801 47.33Z" fill="#9C9C9C"/>
<path d="M19.36 46.6C19.39 46.54 19.41 46.47 19.41 46.39C19.41 46.11 19.19 45.89 18.91 45.89C18.63 45.89 18.41 46.11 18.41 46.39C18.41 46.46 18.43 46.53 18.45 46.6H19.36Z" fill="#333333"/>
<path d="M21.1799 47.33L22.9499 47.56H22.9799L22.9999 47.55L23.8499 47.11L22.9299 47.36H22.9799L21.2699 46.88L21.1799 47.33Z" fill="#9C9C9C"/>
<path d="M21.8 46.6C21.77 46.54 21.75 46.47 21.75 46.39C21.75 46.11 21.97 45.89 22.25 45.89C22.53 45.89 22.75 46.11 22.75 46.39C22.75 46.46 22.73 46.53 22.7 46.6H21.79H21.8Z" fill="#333333"/>
<path d="M16.3101 45.76L16.3501 45.73L17.1701 48.62L17.7101 49.52L16.5501 48.93L16.3201 45.8V45.76H16.3101Z" fill="#9C9C9C"/>
<path d="M24.85 45.76L24.81 45.73L23.99 48.62L23.45 49.52L24.61 48.93L24.84 45.8V45.76H24.85Z" fill="#9C9C9C"/>
<path d="M16.47 50.04V48.85C17.51 48.57 18.67 48.44 19.79 48.41C20.53 48.39 21.25 48.41 21.91 48.44C22.23 48.46 22.54 48.48 22.82 48.51C23.16 48.54 23.46 48.57 23.72 48.6C24.35 48.68 24.73 48.74 24.73 48.74V49.88C24.73 49.88 20.62 52.08 20.6 52.08C20.6 52.07 20.09 51.81 19.42 51.49C19.21 51.39 18.98 51.28 18.75 51.16C18.53 51.05 18.31 50.94 18.09 50.84C17.48 50.54 16.92 50.27 16.65 50.14C16.53 50.08 16.47 50.05 16.47 50.05V50.04Z" fill="#FFD675"/>
<path opacity="0.2" d="M18.76 51.16L22.82 48.51C23.16 48.54 23.46 48.57 23.72 48.6L19.43 51.48C19.22 51.38 18.99 51.27 18.76 51.15V51.16Z" fill="white"/>
<path opacity="0.2" d="M16.65 50.14L19.78 48.42C20.52 48.4 21.24 48.42 21.9 48.45L18.1 50.84C17.49 50.54 16.93 50.27 16.66 50.14H16.65Z" fill="white"/>
<path d="M28.72 34.6L28.85 33.64L28.38 34.49L28.72 34.6Z" fill="#333333"/>
<path d="M26.82 34.6L26.95 33.64L26.48 34.49L26.82 34.6Z" fill="#333333"/>
<path d="M24.92 34.6L25.05 33.64L24.58 34.49L24.92 34.6Z" fill="#333333"/>
<path d="M31.09 31.5L31.22 30.53L30.75 31.38L31.09 31.5Z" fill="#333333"/>
<path d="M29.19 31.5L29.33 30.53L28.85 31.38L29.19 31.5Z" fill="#333333"/>
<path d="M27.2899 31.5L27.4299 30.53L26.95 31.38L27.2899 31.5Z" fill="#333333"/>
<path d="M30.51 28.36L30.64 27.4L30.17 28.25L30.51 28.36Z" fill="#333333"/>
<path d="M28.61 28.36L28.75 27.4L28.27 28.25L28.61 28.36Z" fill="#333333"/>
<path d="M26.58 28.4399C26.67 28.2199 26.76 28.0199 26.84 27.8199H26.8699L26.78 28.4999L26.59 28.4399H26.58Z" fill="#333333"/>
<path d="M25.39 40.0201L25.53 39.0601L25.05 39.9101L25.39 40.0201Z" fill="#333333"/>
<path d="M27.2899 40.41L27.4299 39.45L26.95 40.2999L27.2899 40.41Z" fill="#333333"/>
<path d="M29.0601 40.06L29.3201 39.59L29.2701 39.94C29.2001 39.98 29.1301 40.02 29.0601 40.06Z" fill="#333333"/>
<path d="M30.65 26.41L30.9 26.34L30.88 26.49L30.65 26.41Z" fill="#333333"/>
<path d="M31.0399 37.74L31.1799 36.77L30.7 37.62L31.0399 37.74Z" fill="#333333"/>
<path d="M28.93 37.74L29.07 36.77L28.59 37.62L28.93 37.74Z" fill="#333333"/>
<path d="M27.0299 37.74L27.1699 36.77L26.6899 37.62L27.0299 37.74Z" fill="#333333"/>
<path d="M25.1301 37.74L25.2701 36.77L24.79 37.62L25.1301 37.74Z" fill="#333333"/>
<path d="M23.19 39.5201L23.33 38.5601L22.85 39.4101L23.19 39.5201Z" fill="#333333"/>
<path d="M30.83 34.6L30.96 33.64L30.49 34.49L30.83 34.6Z" fill="#333333"/>
<path d="M12.03 34.6L11.9 33.64L12.37 34.49L12.03 34.6Z" fill="#333333"/>
<path d="M13.93 34.6L13.8 33.64L14.2701 34.49L13.93 34.6Z" fill="#333333"/>
<path d="M15.8299 34.6L15.6899 33.64L16.1699 34.49L15.8299 34.6Z" fill="#333333"/>
<path d="M15.35 40.0201L15.22 39.0601L15.69 39.9101L15.35 40.0201Z" fill="#333333"/>
<path d="M13.4601 40.41L13.3201 39.45L13.8001 40.2999L13.4601 40.41Z" fill="#333333"/>
<path d="M11.8201 39.7801L11.5601 39.3101L11.6101 39.6601C11.6801 39.7001 11.7501 39.7401 11.8201 39.7801Z" fill="#333333"/>
<path d="M9.71007 37.74L9.57007 36.77L10.0501 37.62L9.71007 37.74Z" fill="#333333"/>
<path d="M11.8199 37.74L11.6799 36.77L12.1599 37.62L11.8199 37.74Z" fill="#333333"/>
<path d="M13.72 37.74L13.58 36.77L14.06 37.62L13.72 37.74Z" fill="#333333"/>
<path d="M15.62 37.74L15.48 36.77L15.96 37.62L15.62 37.74Z" fill="#333333"/>
<path d="M17.5599 39.5201L17.4299 38.5601L17.8999 39.4101L17.5599 39.5201Z" fill="#333333"/>
<path d="M9.92004 34.6L9.79004 33.64L10.26 34.49L9.92004 34.6Z" fill="#333333"/>
<path d="M22.28 40.15C22.31 40.01 22.33 39.86 22.33 39.71C22.33 38.62 21.45 37.74 20.36 37.74C19.27 37.74 18.39 38.62 18.39 39.71C18.39 39.95 18.43 40.17 18.51 40.38C17.55 40.45 16.8 41.26 16.79 42.23C16.79 43.26 17.63 44.09 18.65 44.09C18.92 44.09 19.9 43.79 20.11 43.66H20.66C20.91 43.81 21.99 44.08 22.25 44.08C23.34 44.08 24.22 43.2 24.22 42.11C24.22 41.03 23.36 40.16 22.28 40.14V40.15Z" fill="#9C9C9C"/>
<path d="M20.32 51.3301C20.32 51.3301 20.32 51.3801 20.32 51.4001C20.32 51.5701 20.46 51.7101 20.63 51.7101C20.8 51.7101 20.94 51.5701 20.94 51.4001C20.94 51.3601 20.94 51.3301 20.92 51.2901C21.07 51.2801 21.19 51.1501 21.19 50.9901C21.19 50.8301 21.06 50.7001 20.9 50.7001C20.86 50.7001 20.7 50.7501 20.67 50.7701L20.87 50.4301H20.38L20.58 50.7701C20.58 50.7701 20.37 50.7001 20.33 50.7001C20.16 50.7001 20.02 50.8401 20.02 51.0101C20.02 51.1801 20.16 51.3201 20.33 51.3201L20.32 51.3301Z" fill="#333333"/>
<g style="mix-blend-mode:color-burn" opacity="0.2">
<path d="M19.48 34.99C19.47 35.07 19.46 35.15 19.47 35.23C19.5 35.81 19.99 36.25 20.57 36.25C21.16 36.25 21.65 35.8 21.68 35.22C21.68 35.09 21.67 34.97 21.63 34.85C22.18 34.81 22.66 34.34 22.71 33.75C22.77 33.09 22.29 32.53 21.64 32.54C21.47 32.54 20.85 32.75 20.72 32.83L21.56 31.28L19.53 31.3L20.38 32.83C20.22 32.73 19.54 32.55 19.38 32.55C18.7 32.55 18.21 33.15 18.28 33.84C18.34 34.48 18.88 34.98 19.49 34.99H19.48Z" fill="#616161"/>
</g>
<path d="M19.5 35.0499C19.48 35.1299 19.47 35.2099 19.47 35.2999C19.47 35.9199 19.97 36.4199 20.59 36.4199C21.21 36.4199 21.71 35.9199 21.71 35.2999C21.71 35.1699 21.69 35.0399 21.64 34.9199C22.19 34.8799 22.61 34.4199 22.62 33.8699C22.62 33.2899 22.15 32.8099 21.56 32.8099C21.4 32.8099 20.85 32.9799 20.73 33.0499L21.45 31.8199H19.7L20.42 33.0499C20.28 32.9599 19.67 32.8099 19.52 32.8099C18.9 32.8099 18.4 33.3099 18.4 33.9299C18.4 34.5399 18.89 35.0399 19.5 35.0499Z" fill="#FFD675"/>
<g style="mix-blend-mode:color-burn" opacity="0.2">
<path d="M20.6 32.72L20.1499 32.14H21.0099L20.6 32.72ZM21.56 33.24C21.9 33.24 22.1799 33.52 22.1799 33.87C22.1799 34.19 21.92 34.47 21.6 34.49L21.0399 34.53L21.24 35.06C21.27 35.13 21.28 35.21 21.28 35.29C21.28 35.67 20.97 35.98 20.59 35.98C20.41 35.98 20.23 35.91 20.1 35.78C19.97 35.65 19.8999 35.48 19.8999 35.29C19.8999 35.24 19.9 35.19 19.92 35.13L20.0399 34.62H19.5099C19.1399 34.61 18.83 34.3 18.83 33.92C18.83 33.74 18.9 33.56 19.03 33.43C19.16 33.3 19.34 33.23 19.52 33.23C19.6 33.23 19.87 33.3 20.06 33.36L20.61 33.62L21.1 33.36C21.26 33.31 21.5 33.24 21.57 33.23L21.56 33.24Z" fill="#616161"/>
</g>
<path d="M22.18 43.31H18.84L19.3 42.11L21.57 42.12L22.18 43.31Z" fill="#EBBE9F"/>
<g style="mix-blend-mode:color-burn" opacity="0.2">
<path d="M21.4 42.79H19.61V43.14H21.4V42.79Z" fill="#616161"/>
</g>
<g style="mix-blend-mode:color-burn" opacity="0.2">
<path d="M9.28995 38.6C9.28995 38.6 14.6 41.63 16.3 42.59C16.46 42.68 16.5899 42.76 16.6799 42.8L16.2299 44.73L16.31 45.75V45.79L16.5399 48.83C16.5199 48.83 16.49 48.83 16.47 48.85V50.04C16.47 50.04 16.5399 50.07 16.6499 50.13C16.9199 50.26 17.48 50.54 18.09 50.83C18.31 50.94 18.53 51.05 18.75 51.15C18.98 51.26 19.21 51.37 19.42 51.48C20.08 51.81 20.6 52.06 20.6 52.07C20.6 52.07 20.6 52.07 20.61 52.07V29.38L16.35 30.66L16.31 30.52L13.89 31.4L9.20996 32.8V38.3L9.28995 38.59V38.6Z" fill="#616161"/>
</g>
<path d="M7.17996 11.6701C7.19996 11.5901 7.20998 11.5101 7.20998 11.4201C7.20998 10.8101 6.70998 10.3101 6.09998 10.3101C5.48998 10.3101 4.98997 10.8001 4.98997 11.4201C4.98997 11.5501 5.00997 11.6801 5.05997 11.7901C4.51997 11.8301 4.08997 12.2801 4.08997 12.8401C4.08997 13.4201 4.55997 13.8901 5.13997 13.8901C5.28997 13.8901 5.83998 13.7201 5.95998 13.6501L5.24997 14.8701H6.97997L6.26997 13.6501C6.40997 13.7401 7.01997 13.8901 7.15997 13.8901C7.76997 13.8901 8.26997 13.3901 8.26997 12.7801C8.26997 12.1701 7.77996 11.6801 7.17996 11.6701Z" fill="#333333"/>
<g style="mix-blend-mode:color-burn" opacity="0.2">
<path d="M7.17996 11.6701C7.19996 11.5901 7.20998 11.5101 7.20998 11.4201C7.20998 10.8101 6.70998 10.3101 6.09998 10.3101V14.8601H6.97997L6.26997 13.6401C6.40997 13.7301 7.01997 13.8801 7.15997 13.8801C7.76997 13.8801 8.26997 13.3801 8.26997 12.7701C8.26997 12.1601 7.77996 11.6701 7.17996 11.6601V11.6701Z" fill="#616161"/>
</g>
<path d="M33.7701 44.85C33.7501 44.93 33.7401 45.01 33.7401 45.1C33.7401 45.71 34.2401 46.21 34.8501 46.21C35.4601 46.21 35.9601 45.72 35.9601 45.1C35.9601 44.97 35.94 44.84 35.89 44.73C36.43 44.69 36.8501 44.24 36.8501 43.68C36.8501 43.1 36.38 42.63 35.8 42.63C35.65 42.63 35.1 42.8 34.98 42.87L35.69 41.65H33.9601L34.67 42.87C34.53 42.78 33.92 42.63 33.78 42.63C33.17 42.63 32.67 43.13 32.67 43.74C32.67 44.35 33.16 44.84 33.76 44.85H33.7701Z" fill="#333333"/>
<g style="mix-blend-mode:color-burn" opacity="0.2">
<path d="M33.7699 44.85C33.7499 44.93 33.7399 45.01 33.7399 45.1C33.7399 45.71 34.2399 46.21 34.8499 46.21V41.66H33.9699L34.6799 42.88C34.5399 42.79 33.9299 42.64 33.7899 42.64C33.1799 42.64 32.6799 43.14 32.6799 43.75C32.6799 44.36 33.1699 44.85 33.7699 44.86V44.85Z" fill="#616161"/>
</g>
</svg>
