<svg width="40" height="57" viewBox="0 0 40 57" fill="none" xmlns="http://www.w3.org/2000/svg">
<path d="M4.42 56.56C2.07 56.56 0.149997 54.68 0.139997 52.37L0.0199974 5.06999C0.00999738 2.74999 1.93 0.859985 4.29 0.859985L35.55 0.919985C37.9 0.919985 39.82 2.81999 39.82 5.13999V52.34C39.82 54.65 37.91 56.53 35.57 56.53L4.43 56.57L4.42 56.56Z" fill="#C9C9C9"/>
<path d="M4.75002 56.5101C2.43002 56.5101 0.540018 54.6301 0.540018 52.3101V5.12005C0.530018 2.81005 2.42002 0.930054 4.75002 0.930054H35.55C37.87 0.930054 39.76 2.81005 39.76 5.13005V52.3101C39.76 54.6201 37.87 56.5101 35.55 56.5101H4.75002Z" fill="white"/>
<path d="M35.6 55.56H4.79998C2.99998 55.56 1.53998 54.1 1.53998 52.31V5.12C1.53998 3.33 2.99998 1.87 4.79998 1.87H35.6C37.4 1.87 38.86 3.33 38.86 5.12V52.3C38.86 54.09 37.4 55.55 35.6 55.55V55.56ZM4.79998 3.16C3.70998 3.16 2.81998 4.04 2.81998 5.12V52.3C2.81998 53.38 3.70998 54.26 4.79998 54.26H35.6C36.69 54.26 37.57 53.38 37.57 52.3V5.12C37.57 4.04 36.68 3.16 35.6 3.16H4.79998Z" fill="#D66142"/>
<path d="M5.94999 15.51L3.92999 12.97L5.94999 10.42L7.95999 12.97L5.94999 15.51Z" fill="#D66142"/>
<g style="mix-blend-mode:color-burn" opacity="0.2">
<path d="M5.95 10.42L5.88 10.51V15.43L5.95 15.51L7.96 12.97L5.95 10.42Z" fill="#616161"/>
</g>
<path d="M7.60998 8.49005C7.60998 8.49005 7.45998 8.63005 7.25998 8.79005C6.99998 8.99005 6.75998 9.12005 6.55998 9.17005L5.48998 7.21005L5.42998 7.25005V8.96005H4.16998V4.49005H5.42998V7.02005C5.64998 6.99005 5.83998 6.84005 6.01998 6.57005C6.17998 6.33005 6.25998 6.10005 6.25998 5.88005C6.25998 5.72005 6.23998 5.59005 6.18998 5.48005C6.12998 5.38005 6.07998 5.28005 6.01998 5.18005C6.01998 5.13005 6.15998 5.01005 6.43998 4.80005C6.66998 4.63005 6.82998 4.50005 6.92998 4.43005C7.00998 4.49005 7.07998 4.61005 7.13998 4.76005C7.19998 4.92005 7.23998 5.06005 7.23998 5.18005C7.23998 5.29005 7.21998 5.42005 7.16998 5.57005C7.11998 5.72005 7.05998 5.86005 6.98998 5.98005C6.87998 6.16005 6.76998 6.30005 6.67998 6.39005C6.48998 6.58005 6.38998 6.69005 6.37998 6.71005L7.60998 8.47005V8.49005Z" fill="#333333"/>
<path d="M34.62 42.4301L36.64 44.9801L34.62 47.5201L32.6 44.9801L34.62 42.4301Z" fill="#D66142"/>
<g style="mix-blend-mode:color-burn" opacity="0.2">
<path d="M34.62 47.5201L34.69 47.4401V42.5101L34.62 42.4301L32.6 44.9801L34.62 47.5201Z" fill="#616161"/>
</g>
<path d="M32.96 49.45C32.96 49.45 33.11 49.31 33.31 49.15C33.57 48.95 33.81 48.82 34.01 48.77L35.08 50.73L35.14 50.69V48.98H36.4V53.45H35.14V50.92C34.93 50.95 34.73 51.1 34.56 51.36C34.4 51.61 34.32 51.83 34.32 52.05C34.32 52.2 34.34 52.34 34.39 52.45C34.45 52.55 34.5 52.65 34.56 52.75C34.56 52.79 34.42 52.92 34.14 53.13C33.91 53.3 33.75 53.42 33.65 53.5C33.57 53.44 33.5 53.32 33.44 53.17C33.38 53.01 33.34 52.87 33.34 52.75C33.34 52.64 33.36 52.51 33.41 52.36C33.46 52.21 33.52 52.07 33.59 51.95C33.7 51.77 33.81 51.63 33.9 51.54C34.09 51.35 34.19 51.24 34.2 51.22L32.97 49.46L32.96 49.45Z" fill="#333333"/>
<path d="M31.58 18.63L31.5 18.34C31.5 18.34 26.17 15.3 24.47 14.34C24.15 14.16 23.96 14.05 23.95 14.05H16.36C16.36 14.05 16.35 14.05 16.32 14.07C16.3 14.07 16.29 14.09 16.26 14.1C16.24 14.11 16.22 14.12 16.19 14.14C16.17 14.15 16.14 14.17 16.12 14.18C16.09 14.2 16.07 14.21 16.03 14.23C15.98 14.26 15.94 14.28 15.88 14.32C15.78 14.38 15.66 14.44 15.53 14.52C15.43 14.58 15.33 14.63 15.22 14.7C15.18 14.72 15.15 14.74 15.11 14.76C14.86 14.9 14.57 15.06 14.27 15.23C14.16 15.29 14.05 15.35 13.94 15.42C13.83 15.48 13.72 15.55 13.61 15.61C13.5 15.68 13.38 15.74 13.27 15.81C11.76 16.67 10.11 17.61 9.30001 18.07C9.25001 18.1 9.21001 18.12 9.17001 18.14C8.98001 18.25 8.85001 18.32 8.82001 18.34V30.99L13.79 29.5L14.92 29.16L31.59 24.15V18.63H31.58Z" fill="#D66142"/>
<g style="mix-blend-mode:color-burn" opacity="0.2">
<path d="M20.21 26.13L17.95 22.83L20.22 20.28L22.51 22.92L20.21 26.13Z" fill="#616161"/>
</g>
<path d="M20.22 25.38L18.2 22.84L20.22 20.29L22.23 22.84L20.22 25.38Z" fill="#FFD675"/>
<g style="mix-blend-mode:color-burn" opacity="0.2">
<path d="M19.08 22.84L20.22 21.4L21.35 22.84L20.22 24.27L19.08 22.84Z" fill="#616161"/>
</g>
<path d="M20.22 20.6L18.14 17H22.3L20.22 20.6ZM18.54 17.23L20.22 20.14L21.9 17.23H18.54Z" fill="#FFD675"/>
<g style="mix-blend-mode:color-burn" opacity="0.2">
<path d="M17.42 14.05L9.87001 18.34L8.82001 21.59V30.98L13.79 29.49L14.92 29.15L17.89 19.41L18.29 18.11L18.87 16.87L20.17 14.1V14.05H17.44H17.42Z" fill="#616161"/>
</g>
<path d="M16.36 14.05C16.36 14.05 16.35 14.05 16.32 14.07C16.3 14.07 16.29 14.09 16.26 14.1C16.24 14.11 16.22 14.12 16.19 14.14C16.17 14.15 16.14 14.17 16.12 14.18C16.09 14.2 16.07 14.21 16.03 14.23C15.98 14.26 15.94 14.28 15.88 14.32C15.78 14.38 15.66 14.44 15.53 14.52C15.43 14.58 15.33 14.63 15.22 14.7C15.18 14.72 15.15 14.74 15.11 14.76C14.86 14.9 14.57 15.06 14.27 15.23C14.16 15.29 14.05 15.35 13.94 15.42C13.83 15.48 13.72 15.54 13.61 15.61C13.5 15.67 13.38 15.74 13.27 15.81C12.78 16.09 12.28 16.37 11.8 16.65C11.65 16.73 11.51 16.81 11.37 16.89C10.53 17.37 9.77001 17.8 9.30001 18.07C9.25001 18.1 9.21001 18.12 9.17001 18.14C8.98001 18.25 8.85001 18.32 8.82001 18.34V30.99L9.70001 30.72L10.2 30.57L13.73 29.51L13.79 29.49C13.96 29.1 14.13 28.68 14.31 28.25C15.5 25.39 16.95 21.77 17.89 19.41C18.47 17.94 18.86 16.96 18.86 16.96V16.86L19.12 14.04H16.37L16.36 14.05Z" fill="#EBEBEB"/>
<g style="mix-blend-mode:color-burn" opacity="0.2">
<path d="M31.58 22.1701L30.43 18.3501C30.43 18.3501 22.92 14.0701 22.88 14.0601H20.15V14.1101L22.02 18.1201L24.46 26.4401L31.58 23.8601V22.1701Z" fill="#616161"/>
</g>
<path d="M31.58 18.6401L31.49 18.3501C31.49 18.3501 23.98 14.0701 23.94 14.0601H21.19L21.45 16.9801C21.45 16.9801 24.69 23.7001 25.84 25.8801L31.58 24.1601V18.6501V18.6401Z" fill="#EBEBEB"/>
<g style="mix-blend-mode:color-burn" opacity="0.4">
<path d="M24.47 14.34L24.31 16.41L20.19 19.35L16.07 16.41L15.9 14.32C16.19 14.15 16.36 14.06 16.37 14.06H16.98C17.36 14.63 17.68 15.12 17.68 15.12L19.18 14.06L19.41 13.9L20.19 13.93L20.97 13.9L21.2 14.06L22.7 15.12C22.7 15.12 23.02 14.64 23.39 14.06H23.95C23.95 14.06 24.15 14.17 24.47 14.35V14.34Z" fill="#616161"/>
</g>
<path d="M24.54 12.19L24.46 11.17V11.13L24.22 7.99001L23.06 7.40001L20.8 6.26001L20.18 6.59001L19.56 6.26001L17.3 7.40001L16.14 7.99001L15.9 11.13V11.17L15.82 12.19L16.06 15.18L20.17 18.12V18.13H20.18H20.19V18.12L24.3 15.18L24.54 12.19Z" fill="#EBBE9F"/>
<path d="M24.54 12.19L24.46 11.13C24.1 11.76 22.69 13.89 22.69 13.89L20.96 12.67L20.18 12.7L19.4 12.67L17.67 13.89C17.67 13.89 16.26 11.77 15.9 11.13L15.82 12.19L16.06 15.18L20.18 18.12L24.3 15.18L24.54 12.19Z" fill="#9C9C9C"/>
<path d="M20.19 14.05L21.57 14L20.54 13.35C20.54 13.35 20.37 13.35 20.19 13.35H20.18C20 13.35 19.83 13.35 19.83 13.35L18.8 14L20.18 14.05H20.19Z" fill="#EBBE9F"/>
<g style="mix-blend-mode:color-burn" opacity="0.2">
<path d="M21.02 12.07L20.45 10.11H20.19H20.18H19.91L19.34 12.07L19.91 12.68L20.18 12.69H20.19L20.45 12.68L21.02 12.07Z" fill="#616161"/>
</g>
<path d="M20.78 9.57998L22.55 9.35997L22.59 9.34998L22.61 9.36998L23.46 9.80998L22.53 9.55998H22.59L20.87 10.05L20.78 9.57998Z" fill="#9C9C9C"/>
<path d="M21.4 10.3199C21.37 10.3799 21.35 10.4499 21.35 10.5299C21.35 10.8099 21.58 11.0299 21.85 11.0299C22.12 11.0299 22.35 10.8099 22.35 10.5299C22.35 10.4599 22.33 10.3899 22.31 10.3199H21.4Z" fill="#333333"/>
<path d="M19.58 9.57998L17.81 9.35997L17.77 9.34998L17.75 9.36998L16.9 9.80998L17.82 9.55998H17.77L19.49 10.05L19.58 9.57998Z" fill="#9C9C9C"/>
<path d="M18.96 10.3199C18.99 10.3799 19.01 10.4499 19.01 10.5299C19.01 10.8099 18.78 11.0299 18.51 11.0299C18.24 11.0299 18.01 10.8099 18.01 10.5299C18.01 10.4599 18.03 10.3899 18.06 10.3199H18.97H18.96Z" fill="#333333"/>
<path d="M24.46 11.17L24.42 11.2L23.6 8.30002L23.06 7.40002L24.23 7.99002L24.46 11.13V11.17Z" fill="#9C9C9C"/>
<path d="M15.9 11.17L15.94 11.2L16.76 8.30002L17.3 7.40002L16.13 7.99002L15.9 11.13V11.17Z" fill="#9C9C9C"/>
<path d="M24.3 6.86997V8.06997C23.26 8.34997 22.09 8.47997 20.98 8.50997C20.23 8.52997 19.51 8.50997 18.86 8.47997C18.54 8.45997 18.23 8.43997 17.95 8.40997C17.61 8.37997 17.31 8.34997 17.04 8.31997C16.41 8.23997 16.02 8.17997 16.02 8.17997V7.03997C16.02 7.03997 20.14 4.83997 20.16 4.83997C20.16 4.84997 20.68 5.10997 21.34 5.42997C21.55 5.52997 21.78 5.64997 22.01 5.75997C22.23 5.86997 22.45 5.97997 22.67 6.07997C23.28 6.37997 23.84 6.64997 24.12 6.78997C24.24 6.84997 24.3 6.87997 24.3 6.87997V6.86997Z" fill="#FFD675"/>
<path opacity="0.2" d="M22.01 5.75005L17.94 8.41005C17.6 8.38005 17.3 8.35005 17.03 8.32005L21.34 5.43005C21.55 5.53005 21.78 5.65005 22.01 5.76005V5.75005Z" fill="white"/>
<path opacity="0.2" d="M24.12 6.77996L20.98 8.50996C20.23 8.52996 19.51 8.50996 18.86 8.47996L22.68 6.07996C23.29 6.37996 23.85 6.64996 24.13 6.78996L24.12 6.77996Z" fill="white"/>
<path d="M20.88 6.11001L20.22 7.00001L20.18 7.06001L19.47 6.13001L20.22 5.14001L20.88 6.11001Z" fill="#D66142"/>
<path opacity="0.2" d="M20.22 7.00001L20.37 6.22001L20.22 5.14001L20.88 6.11001L20.22 7.00001Z" fill="white"/>
<path d="M12.02 22.35L11.88 23.32L12.36 22.47L12.02 22.35Z" fill="#333333"/>
<path d="M13.92 22.35L13.79 23.32L14.26 22.47L13.92 22.35Z" fill="#333333"/>
<path d="M15.83 22.35L15.69 23.32L16.17 22.47L15.83 22.35Z" fill="#333333"/>
<path d="M9.64 25.47L9.5 26.44L9.98 25.58L9.64 25.47Z" fill="#333333"/>
<path d="M11.54 25.47L11.41 26.44L11.88 25.58L11.54 25.47Z" fill="#333333"/>
<path d="M13.44 25.47L13.31 26.44L13.79 25.58L13.44 25.47Z" fill="#333333"/>
<path d="M10.22 28.61L10.08 29.58L10.56 28.73L10.22 28.61Z" fill="#333333"/>
<path d="M12.13 28.61L11.99 29.58L12.46 28.73L12.13 28.61Z" fill="#333333"/>
<path d="M14.16 28.54C14.07 28.76 13.98 28.96 13.9 29.16H13.87L13.97 28.48L14.16 28.54Z" fill="#333333"/>
<path d="M15.35 16.92L15.21 17.88L15.69 17.03L15.35 16.92Z" fill="#333333"/>
<path d="M13.44 16.53L13.31 17.49L13.79 16.64L13.44 16.53Z" fill="#333333"/>
<path d="M11.67 16.88L11.4 17.35L11.45 17C11.52 16.96 11.59 16.92 11.67 16.88Z" fill="#333333"/>
<path d="M10.08 30.57L9.83002 30.64L9.85002 30.49L10.08 30.57Z" fill="#333333"/>
<path d="M9.68999 19.21L9.54999 20.18L10.03 19.32L9.68999 19.21Z" fill="#333333"/>
<path d="M11.81 19.21L11.67 20.18L12.14 19.32L11.81 19.21Z" fill="#333333"/>
<path d="M13.71 19.21L13.57 20.18L14.05 19.32L13.71 19.21Z" fill="#333333"/>
<path d="M15.61 19.21L15.48 20.18L15.95 19.32L15.61 19.21Z" fill="#333333"/>
<path d="M17.56 17.42L17.43 18.39L17.9 17.53L17.56 17.42Z" fill="#333333"/>
<path d="M9.90001 22.35L9.76001 23.32L10.24 22.47L9.90001 22.35Z" fill="#333333"/>
<path d="M28.75 22.35L28.89 23.32L28.41 22.47L28.75 22.35Z" fill="#333333"/>
<path d="M26.85 22.35L26.98 23.32L26.51 22.47L26.85 22.35Z" fill="#333333"/>
<path d="M24.94 22.35L25.08 23.32L24.6 22.47L24.94 22.35Z" fill="#333333"/>
<path d="M25.42 16.92L25.56 17.88L25.08 17.03L25.42 16.92Z" fill="#333333"/>
<path d="M27.32 16.53L27.46 17.49L26.98 16.64L27.32 16.53Z" fill="#333333"/>
<path d="M29.1 16.88L29.37 17.35L29.32 17C29.25 16.96 29.18 16.92 29.1 16.88Z" fill="#333333"/>
<path d="M31.08 19.21L31.22 20.18L30.74 19.32L31.08 19.21Z" fill="#333333"/>
<path d="M28.96 19.21L29.1 20.18L28.62 19.32L28.96 19.21Z" fill="#333333"/>
<path d="M27.06 19.21L27.2 20.18L26.72 19.32L27.06 19.21Z" fill="#333333"/>
<path d="M25.16 19.21L25.3 20.18L24.82 19.32L25.16 19.21Z" fill="#333333"/>
<path d="M23.21 17.42L23.34 18.39L22.87 17.53L23.21 17.42Z" fill="#333333"/>
<path d="M30.87 22.35L31.01 23.32L30.53 22.47L30.87 22.35Z" fill="#333333"/>
<g style="mix-blend-mode:color-burn" opacity="0.2">
<path d="M31.58 18.63L31.5 18.34C31.5 18.34 30.55 17.8 29.33 17.1L29.31 16.99C29.24 16.95 29.17 16.91 29.09 16.87L29.17 17.02C27.82 16.25 26.19 15.32 25.11 14.71C24.81 14.54 24.56 14.4 24.36 14.29L24.53 12.2L24.49 11.66L24.45 11.17V11.13L24.22 8.08998C24.24 8.08998 24.27 8.07998 24.29 8.06998V6.86998C24.29 6.86998 24.22 6.83998 24.11 6.77998C23.83 6.63998 23.27 6.36998 22.66 6.06998C22.44 5.95998 22.22 5.84998 22 5.74998C21.77 5.63998 21.54 5.51998 21.33 5.41998C20.78 5.14998 20.33 4.92998 20.19 4.84998V27.57L24.41 26.3L24.45 26.44L26.87 25.56L27.06 25.5L31.57 24.15V18.63H31.58Z" fill="#616161"/>
</g>
<path d="M8.82 38.76L8.91 39.05C8.91 39.05 14.24 42.09 15.94 43.05C16.26 43.23 16.45 43.34 16.46 43.34H24.05C24.05 43.34 24.06 43.34 24.09 43.32C24.1 43.32 24.12 43.3 24.15 43.29C24.17 43.28 24.19 43.27 24.22 43.25C24.24 43.24 24.27 43.22 24.29 43.21C24.32 43.19 24.35 43.18 24.38 43.16C24.43 43.13 24.47 43.11 24.53 43.07C24.63 43.01 24.75 42.95 24.88 42.87C24.98 42.81 25.08 42.75 25.19 42.69C25.23 42.67 25.26 42.65 25.3 42.63C25.55 42.49 25.83 42.33 26.13 42.16C26.24 42.1 26.35 42.03 26.46 41.97C26.57 41.91 26.68 41.84 26.79 41.78C26.9 41.71 27.02 41.65 27.13 41.58C28.64 40.72 30.29 39.77 31.1 39.32C31.15 39.29 31.19 39.27 31.23 39.24C31.42 39.13 31.55 39.06 31.58 39.04V26.39L26.61 27.88L25.48 28.22L8.81 33.23V38.75L8.82 38.76Z" fill="#D66142"/>
<g style="mix-blend-mode:color-burn" opacity="0.2">
<path d="M20.2 31.26L22.46 34.56L20.19 37.11L17.89 34.48L20.2 31.26Z" fill="#616161"/>
</g>
<path d="M20.19 32.01L22.21 34.56L20.19 37.1L18.18 34.56L20.19 32.01Z" fill="#FFD675"/>
<g style="mix-blend-mode:color-burn" opacity="0.2">
<path d="M21.33 34.56L20.19 35.99L19.06 34.56L20.19 33.13L21.33 34.56Z" fill="#616161"/>
</g>
<path d="M20.19 36.8L22.27 40.4001H18.11L20.19 36.8ZM21.87 40.17L20.19 37.26L18.51 40.17H21.87Z" fill="#FFD675"/>
<g style="mix-blend-mode:color-burn" opacity="0.2">
<path d="M22.98 43.34L30.53 39.05L31.58 35.8V26.41L26.61 27.9L25.48 28.24L22.51 37.98L22.11 39.28L21.53 40.52L20.24 43.29V43.34H22.97H22.98Z" fill="#616161"/>
</g>
<path d="M24.05 43.34C24.05 43.34 24.06 43.34 24.09 43.32C24.1 43.32 24.12 43.3 24.15 43.29C24.17 43.28 24.19 43.27 24.22 43.25C24.24 43.24 24.26 43.22 24.29 43.21C24.32 43.19 24.35 43.18 24.38 43.16C24.43 43.13 24.47 43.11 24.53 43.07C24.63 43.01 24.75 42.95 24.88 42.87C24.98 42.81 25.08 42.76 25.19 42.69C25.23 42.67 25.26 42.65 25.3 42.63C25.55 42.49 25.83 42.33 26.13 42.16C26.24 42.1 26.35 42.03 26.46 41.97C26.57 41.91 26.68 41.85 26.79 41.78C26.9 41.72 27.02 41.65 27.13 41.58C27.61 41.3 28.12 41.02 28.6 40.74C28.75 40.66 28.89 40.58 29.03 40.5C29.87 40.02 30.63 39.59 31.1 39.32C31.15 39.29 31.19 39.27 31.23 39.24C31.42 39.13 31.55 39.06 31.58 39.04V26.39L30.7 26.66L30.2 26.81L26.67 27.87L26.61 27.89C26.45 28.28 26.27 28.69 26.09 29.13C24.9 31.99 23.45 35.61 22.51 37.97C21.93 39.44 21.54 40.42 21.54 40.42V40.52L21.28 43.34H24.03H24.05Z" fill="#EBEBEB"/>
<g style="mix-blend-mode:color-burn" opacity="0.2">
<path d="M8.82 35.23L9.97 39.05C9.97 39.05 17.48 43.33 17.52 43.34H20.25V43.29L18.37 39.28L15.93 30.96L8.81 33.54V35.23H8.82Z" fill="#616161"/>
</g>
<path d="M8.82001 38.76L8.91001 39.05C8.91001 39.05 16.42 43.33 16.46 43.34H19.21L18.95 40.42C18.95 40.42 15.71 33.7 14.56 31.52L8.82001 33.24V38.75V38.76Z" fill="#EBEBEB"/>
<g style="mix-blend-mode:color-burn" opacity="0.4">
<path d="M15.94 43.0601L16.1 40.9901L20.22 38.05L24.34 40.9901L24.5 43.0801C24.21 43.2501 24.04 43.34 24.03 43.34H23.42C23.04 42.77 22.72 42.28 22.72 42.28L21.22 43.34L20.99 43.5L20.21 43.4701L19.43 43.5L19.2 43.34L17.7 42.28C17.7 42.28 17.38 42.76 17 43.34H16.44C16.44 43.34 16.24 43.23 15.92 43.05L15.94 43.0601Z" fill="#616161"/>
</g>
<path d="M15.87 45.2L15.95 46.23V46.27L16.18 49.41L17.35 50L19.6 51.14L20.23 50.8L20.85 51.14L23.11 50L24.27 49.41L24.51 46.27V46.23L24.59 45.2L24.35 42.22L20.23 39.27H20.22L16.1 42.22L15.87 45.2Z" fill="#EBBE9F"/>
<path d="M15.87 45.2L15.95 46.26C16.31 45.63 17.72 43.5 17.72 43.5L19.45 44.72L20.23 44.69L21.01 44.72L22.74 43.5C22.74 43.5 24.15 45.62 24.51 46.26L24.59 45.2L24.35 42.21L20.23 39.27L16.11 42.21L15.87 45.2Z" fill="#9C9C9C"/>
<path d="M20.22 43.35L18.84 43.4L19.87 44.05C19.87 44.05 20.04 44.05 20.22 44.05H20.23C20.41 44.05 20.58 44.05 20.58 44.05L21.61 43.4L20.23 43.35H20.22Z" fill="#EBBE9F"/>
<g style="mix-blend-mode:color-burn" opacity="0.2">
<path d="M19.39 45.32L19.95 47.29H20.22H20.23H20.5L21.07 45.32L20.5 44.7099L20.23 44.7H20.22L19.95 44.7099L19.39 45.32Z" fill="#616161"/>
</g>
<path d="M19.63 47.81L17.85 48.04H17.82L17.8 48.03L16.95 47.58L17.87 47.84H17.82L19.54 47.35L19.63 47.81Z" fill="#9C9C9C"/>
<path d="M19.01 47.07C19.04 47.01 19.05 46.94 19.05 46.86C19.05 46.58 18.83 46.36 18.55 46.36C18.27 46.36 18.05 46.58 18.05 46.86C18.05 46.93 18.07 47 18.09 47.07H19H19.01Z" fill="#333333"/>
<path d="M20.82 47.81L22.6 48.04H22.64L22.66 48.03L23.51 47.58L22.58 47.84H22.64L20.92 47.35L20.82 47.81Z" fill="#9C9C9C"/>
<path d="M21.45 47.07C21.42 47.01 21.4 46.94 21.4 46.86C21.4 46.58 21.63 46.36 21.9 46.36C22.17 46.36 22.4 46.58 22.4 46.86C22.4 46.93 22.38 47 22.35 47.07H21.44H21.45Z" fill="#333333"/>
<path d="M15.95 46.2299L15.99 46.2L16.81 49.0999L17.35 50L16.18 49.41L15.95 46.27V46.2299Z" fill="#9C9C9C"/>
<path d="M24.51 46.2299L24.47 46.2L23.65 49.0999L23.11 50L24.28 49.41L24.52 46.27V46.2299H24.51Z" fill="#9C9C9C"/>
<path d="M16.11 50.53V49.3301C17.15 49.0501 18.32 48.92 19.44 48.89C20.18 48.87 20.91 48.89 21.56 48.93C21.88 48.95 22.19 48.97 22.47 49C22.81 49.03 23.11 49.06 23.38 49.09C24.01 49.17 24.4 49.23 24.4 49.23V50.37C24.4 50.37 20.28 52.57 20.26 52.57C20.26 52.57 19.74 52.3 19.08 51.98C18.87 51.88 18.64 51.7601 18.41 51.6501C18.19 51.5401 17.97 51.4301 17.75 51.3301C17.14 51.0301 16.58 50.76 16.3 50.62C16.18 50.56 16.12 50.53 16.12 50.53H16.11Z" fill="#FFD675"/>
<path opacity="0.2" d="M18.4 51.65L22.47 49C22.81 49.03 23.11 49.06 23.38 49.09L19.07 51.98C18.86 51.88 18.63 51.76 18.4 51.65Z" fill="white"/>
<path opacity="0.2" d="M16.29 50.62L19.43 48.89C20.17 48.87 20.9 48.89 21.55 48.93L17.73 51.3301C17.12 51.0301 16.56 50.76 16.28 50.62H16.29Z" fill="white"/>
<path d="M19.52 51.29L20.19 50.39L20.23 50.33L20.94 51.26L20.19 52.26L19.52 51.29Z" fill="#D66142"/>
<path opacity="0.2" d="M20.19 50.39L20.04 51.18L20.19 52.26L19.52 51.29L20.19 50.39Z" fill="white"/>
<path d="M28.39 35.04L28.53 34.08L28.05 34.93L28.39 35.04Z" fill="#333333"/>
<path d="M26.48 35.04L26.62 34.08L26.15 34.93L26.48 35.04Z" fill="#333333"/>
<path d="M24.58 35.04L24.72 34.08L24.24 34.93L24.58 35.04Z" fill="#333333"/>
<path d="M30.77 31.93L30.91 30.96L30.43 31.81L30.77 31.93Z" fill="#333333"/>
<path d="M28.86 31.93L29 30.96L28.53 31.81L28.86 31.93Z" fill="#333333"/>
<path d="M26.96 31.93L27.1 30.96L26.62 31.81L26.96 31.93Z" fill="#333333"/>
<path d="M30.19 28.7799L30.32 27.8199L29.85 28.6699L30.19 28.7799Z" fill="#333333"/>
<path d="M28.28 28.7799L28.42 27.8199L27.94 28.6699L28.28 28.7799Z" fill="#333333"/>
<path d="M26.25 28.86C26.34 28.64 26.43 28.44 26.51 28.24H26.54L26.44 28.92L26.25 28.86Z" fill="#333333"/>
<path d="M25.06 40.48L25.2 39.51L24.72 40.36L25.06 40.48Z" fill="#333333"/>
<path d="M26.96 40.87L27.1 39.9L26.62 40.76L26.96 40.87Z" fill="#333333"/>
<path d="M28.74 40.52L29.01 40.04L28.96 40.39C28.89 40.43 28.82 40.47 28.74 40.51V40.52Z" fill="#333333"/>
<path d="M30.33 26.83L30.58 26.75L30.56 26.9L30.33 26.83Z" fill="#333333"/>
<path d="M30.72 38.19L30.86 37.22L30.38 38.07L30.72 38.19Z" fill="#333333"/>
<path d="M28.6 38.19L28.74 37.22L28.26 38.07L28.6 38.19Z" fill="#333333"/>
<path d="M26.7 38.19L26.84 37.22L26.36 38.07L26.7 38.19Z" fill="#333333"/>
<path d="M24.79 38.19L24.93 37.22L24.46 38.07L24.79 38.19Z" fill="#333333"/>
<path d="M22.84 39.98L22.98 39.01L22.5 39.86L22.84 39.98Z" fill="#333333"/>
<path d="M30.51 35.04L30.64 34.08L30.17 34.93L30.51 35.04Z" fill="#333333"/>
<path d="M11.66 35.04L11.52 34.08L12 34.93L11.66 35.04Z" fill="#333333"/>
<path d="M13.56 35.04L13.42 34.08L13.9 34.93L13.56 35.04Z" fill="#333333"/>
<path d="M15.46 35.04L15.33 34.08L15.8 34.93L15.46 35.04Z" fill="#333333"/>
<path d="M14.99 40.48L14.85 39.51L15.33 40.36L14.99 40.48Z" fill="#333333"/>
<path d="M13.08 40.87L12.95 39.9L13.42 40.76L13.08 40.87Z" fill="#333333"/>
<path d="M11.31 40.52L11.04 40.04L11.09 40.39C11.16 40.43 11.23 40.47 11.31 40.51V40.52Z" fill="#333333"/>
<path d="M9.32 38.19L9.19 37.22L9.66 38.07L9.32 38.19Z" fill="#333333"/>
<path d="M11.44 38.19L11.31 37.22L11.78 38.07L11.44 38.19Z" fill="#333333"/>
<path d="M13.35 38.19L13.21 37.22L13.69 38.07L13.35 38.19Z" fill="#333333"/>
<path d="M15.25 38.19L15.11 37.22L15.59 38.07L15.25 38.19Z" fill="#333333"/>
<path d="M17.2 39.98L17.06 39.01L17.54 39.86L17.2 39.98Z" fill="#333333"/>
<path d="M9.54002 35.04L9.40002 34.08L9.88002 34.93L9.54002 35.04Z" fill="#333333"/>
<g style="mix-blend-mode:color-burn" opacity="0.2">
<path d="M8.82001 38.76L8.91001 39.05C8.91001 39.05 9.85001 39.59 11.08 40.29L11.1 40.4C11.17 40.44 11.24 40.48 11.32 40.52L11.24 40.37C12.59 41.14 14.22 42.07 15.3 42.68C15.6 42.85 15.85 42.99 16.04 43.1L15.88 45.19L15.92 45.73L15.96 46.22V46.26L16.19 49.31C16.17 49.31 16.14 49.32 16.12 49.33V50.53C16.12 50.53 16.19 50.56 16.3 50.62C16.58 50.76 17.14 51.03 17.75 51.33C17.97 51.44 18.19 51.55 18.41 51.65C18.64 51.76 18.87 51.88 19.08 51.98C19.63 52.25 20.08 52.47 20.22 52.55V29.83L16 31.1L15.96 30.96L13.54 31.84L13.35 31.9L8.84001 33.25V38.77L8.82001 38.76Z" fill="#616161"/>
</g>
</svg>
