<svg width="41" height="57" viewBox="0 0 41 57" fill="none" xmlns="http://www.w3.org/2000/svg">
<path d="M4.67001 56.21C2.33001 56.21 0.420005 54.34 0.380005 51.97L0.26001 4.90003C0.29001 2.66003 2.19001 0.780029 4.55001 0.780029L35.66 0.840029C38 0.840029 39.91 2.73003 39.91 5.04003V52.01C39.91 54.31 38.01 56.18 35.68 56.18L4.68001 56.22L4.67001 56.21Z" fill="#C9C9C9"/>
<path d="M5.01001 56.17C2.67001 56.17 0.760008 54.3 0.750008 52L0.630005 4.93003C0.630005 2.61003 2.53 0.73003 4.88 0.74003L35.99 0.80003C38.33 0.80003 40.24 2.69003 40.24 5.00003V51.97C40.24 54.27 38.34 56.14 36.01 56.14L5.02 56.18L5.01001 56.17Z" fill="white"/>
<path d="M35.7 55.21H5.05005C3.26005 55.21 1.80005 53.76 1.80005 51.97V5.02004C1.80005 3.24004 3.26005 1.79004 5.05005 1.79004H35.7C37.49 1.79004 38.95 3.24004 38.95 5.02004V51.98C38.95 53.76 37.49 55.22 35.7 55.22V55.21ZM5.05005 3.06004C3.96005 3.06004 3.08005 3.94004 3.08005 5.01004V51.97C3.08005 53.05 3.96005 53.92 5.05005 53.92H35.7C36.78 53.92 37.66 53.04 37.66 51.97V5.02004C37.66 3.94004 36.78 3.07004 35.7 3.07004H5.05005V3.06004Z" fill="#D66142"/>
<path d="M7.84005 8.35997C7.84005 8.35997 7.69005 8.49997 7.49005 8.65997C7.23005 8.85997 7.00006 8.98997 6.80006 9.03997L5.74005 7.08997L5.68005 7.12997V8.83997H4.43005V4.39997H5.68005V6.91997C5.89005 6.88997 6.09006 6.73997 6.26006 6.47997C6.42006 6.23997 6.50005 6.00997 6.50005 5.78997C6.50005 5.63997 6.47005 5.49997 6.43005 5.38997C6.37005 5.28997 6.32005 5.18997 6.27005 5.08997C6.27005 5.04997 6.41005 4.91997 6.68005 4.70997C6.91005 4.53997 7.07005 4.41997 7.17005 4.33997C7.25005 4.39997 7.32005 4.51997 7.38005 4.66997C7.44005 4.82997 7.48006 4.95997 7.48006 5.08997C7.48006 5.19997 7.46006 5.31997 7.41006 5.47997C7.36006 5.62997 7.30006 5.76997 7.23006 5.88997C7.12006 6.06997 7.01005 6.19997 6.92005 6.29997C6.73005 6.48997 6.64006 6.59997 6.62006 6.61997L7.85005 8.36997L7.84005 8.35997Z" fill="#333333"/>
<path d="M33.0701 49.14C33.0701 49.14 33.2201 49 33.4201 48.84C33.6801 48.64 33.9101 48.51 34.1101 48.46L35.1701 50.41L35.2301 50.37V48.66H36.4801V53.1H35.2301V50.58C35.0101 50.61 34.8201 50.76 34.6501 51.02C34.4901 51.26 34.4101 51.49 34.4101 51.71C34.4101 51.86 34.4301 52 34.4801 52.11C34.5401 52.21 34.5901 52.31 34.6501 52.41C34.6501 52.45 34.5101 52.58 34.2401 52.79C34.0101 52.96 33.8501 53.08 33.7501 53.16C33.6701 53.1 33.6001 52.98 33.5401 52.83C33.4801 52.67 33.4401 52.54 33.4401 52.41C33.4401 52.3 33.4701 52.18 33.5101 52.02C33.5601 51.87 33.6201 51.73 33.6901 51.61C33.8001 51.43 33.9101 51.3 34.0001 51.2C34.1901 51.01 34.2901 50.91 34.3001 50.88L33.0701 49.13V49.14Z" fill="#333333"/>
<path d="M31.7 18.46V23.94L25.99 25.66L15.11 28.93L13.99 29.27L9.04004 30.75V18.16C9.04004 18.16 9.20004 18.07 9.39004 17.96C9.43004 17.93 9.47003 17.91 9.52003 17.89C10.32 17.43 11.97 16.49 13.47 15.64C13.59 15.58 13.7 15.51 13.81 15.44C13.92 15.38 14.03 15.32 14.14 15.26C14.25 15.2 14.36 15.13 14.47 15.07C14.77 14.9 15.05 14.74 15.3 14.6C15.32 14.59 15.34 14.58 15.36 14.57C15.38 14.57 15.39 14.55 15.41 14.54C15.52 14.48 15.62 14.42 15.72 14.36C15.85 14.29 15.96 14.22 16.07 14.16C16.13 14.13 16.17 14.1 16.22 14.07C16.25 14.05 16.28 14.04 16.3 14.02C16.33 14 16.35 13.99 16.37 13.98C16.39 13.97 16.42 13.95 16.44 13.94C16.46 13.93 16.48 13.92 16.5 13.91C16.52 13.9 16.54 13.89 16.54 13.89H24.09C24.09 13.89 24.11 13.89 24.14 13.92C24.16 13.92 24.19 13.95 24.22 13.97C24.24 13.97 24.26 13.99 24.28 14C24.3 14.01 24.32 14.03 24.35 14.04C24.44 14.09 24.56 14.16 24.69 14.23C24.79 14.29 24.9 14.35 25.02 14.42C25.07 14.45 25.11 14.48 25.16 14.5C25.19 14.52 25.23 14.54 25.27 14.56C25.27 14.56 25.36 14.62 25.41 14.64C25.48 14.68 25.55 14.72 25.62 14.76C25.65 14.77 25.67 14.79 25.69 14.8C25.79 14.85 25.89 14.91 25.99 14.97C27.02 15.56 28.31 16.29 29.39 16.9C29.5 16.96 29.6 17.02 29.71 17.08C29.86 17.17 30.01 17.26 30.16 17.34C30.25 17.39 30.34 17.44 30.43 17.49C30.52 17.54 30.6 17.59 30.68 17.64C30.8 17.71 30.91 17.77 31.01 17.83C31.06 17.86 31.11 17.89 31.16 17.91C31.43 18.07 31.6 18.16 31.6 18.16L31.69 18.45L31.7 18.46Z" fill="#D66142"/>
<path d="M20.3899 20.42L18.3199 16.84H22.4599L20.3899 20.42ZM18.7199 17.07L20.3899 19.97L22.0599 17.07H18.7199Z" fill="#FFD675"/>
<g style="mix-blend-mode:color-burn" opacity="0.2">
<path d="M17.61 13.9L10.1 18.17L9.05005 21.4V30.75L13.99 29.27L15.11 28.93L18.06 19.24L18.46 17.94L19.03 16.7L20.32 13.95V13.9H17.6H17.61Z" fill="#616161"/>
</g>
<path d="M16.55 13.9C16.55 13.9 16.54 13.9 16.51 13.92C16.49 13.92 16.48 13.94 16.45 13.95C16.43 13.96 16.41 13.97 16.38 13.99C16.36 14 16.34 14.02 16.31 14.03C16.29 14.04 16.26 14.06 16.22 14.08C16.18 14.11 16.13 14.13 16.07 14.16C15.97 14.22 15.85 14.28 15.72 14.36C15.62 14.42 15.52 14.47 15.41 14.54C15.37 14.56 15.34 14.58 15.3 14.6C15.05 14.74 14.77 14.9 14.47 15.07C14.36 15.13 14.25 15.19 14.14 15.26C14.03 15.32 13.92 15.38 13.81 15.45C13.7 15.51 13.59 15.58 13.47 15.64C12.98 15.92 12.49 16.2 12.01 16.47C11.87 16.55 11.72 16.63 11.58 16.71C10.74 17.19 9.99003 17.62 9.52003 17.88C9.47003 17.91 9.43004 17.93 9.39004 17.95C9.20004 18.06 9.08004 18.13 9.04004 18.15V30.74L9.92004 30.47L10.41 30.32L13.92 29.27L13.98 29.25C14.14 28.86 14.32 28.45 14.5 28.02C15.68 25.17 17.13 21.57 18.06 19.22C18.64 17.76 19.03 16.78 19.03 16.78V16.68L19.29 13.87H16.55V13.9Z" fill="#EBEBEB"/>
<g style="mix-blend-mode:color-burn" opacity="0.2">
<path d="M31.7 21.98L30.56 18.18C30.56 18.18 23.09 13.92 23.05 13.91H20.33V13.96L22.2 17.95L24.62 26.23L31.7 23.66V21.98Z" fill="#616161"/>
</g>
<path d="M31.7 18.46V23.94L25.99 25.66C25.11 23.99 23 19.65 22.07 17.74C21.79 17.16 21.62 16.8 21.62 16.8L21.36 13.89H24.1C24.1 13.89 24.12 13.89 24.15 13.92C24.17 13.92 24.2 13.95 24.23 13.97C24.25 13.97 24.27 13.99 24.29 14C24.31 14.01 24.33 14.03 24.36 14.04C24.45 14.09 24.57 14.16 24.7 14.23C24.8 14.29 24.91 14.35 25.03 14.42C25.08 14.45 25.12 14.48 25.17 14.5C25.2 14.52 25.24 14.54 25.28 14.56C25.28 14.56 25.37 14.61 25.42 14.64C25.49 14.68 25.56 14.72 25.63 14.76C25.66 14.77 25.68 14.79 25.7 14.8C25.8 14.86 25.9 14.91 26 14.97C27.03 15.56 28.32 16.29 29.4 16.9C29.51 16.96 29.61 17.02 29.72 17.08C29.87 17.17 30.02 17.26 30.17 17.34C30.26 17.39 30.35 17.44 30.44 17.49C30.52 17.54 30.61 17.59 30.69 17.64C30.81 17.71 30.92 17.77 31.02 17.83C31.07 17.86 31.12 17.89 31.17 17.91C31.44 18.07 31.61 18.16 31.61 18.16L31.7 18.45V18.46Z" fill="#EBEBEB"/>
<path d="M24.69 12.05L24.61 11.03V10.99L24.38 7.86001L23.22 7.28001L20.97 6.14001L20.35 6.48001L19.73 6.14001L17.49 7.28001L16.33 7.86001L16.1 10.99L16.09 11.03L16.02 12.05L16.34 14.99L20.35 17.95V17.96H20.36V17.95L24.37 14.97L24.69 12.05Z" fill="#EBBE9F"/>
<path d="M20.36 13.9L21.73 13.85L20.7 13.2C20.7 13.2 20.53 13.2 20.35 13.2H20.34C20.16 13.2 19.99 13.2 19.99 13.2L18.96 13.85L20.33 13.9H20.36Z" fill="#EBBE9F"/>
<g style="mix-blend-mode:color-burn" opacity="0.2">
<path d="M21.19 11.93L20.63 9.97998H20.36H20.35H20.08L19.52 11.93L20.08 12.54L20.35 12.55H20.36L20.63 12.54L21.19 11.93Z" fill="#616161"/>
</g>
<path d="M20.95 9.44998L22.71 9.22998H22.75L22.77 9.23998L23.61 9.67998L22.7 9.42998H22.75L21.04 9.90998L20.95 9.44998Z" fill="#9C9C9C"/>
<path d="M21.57 10.1899C21.54 10.2499 21.53 10.3199 21.53 10.3999C21.53 10.6699 21.75 10.8999 22.03 10.8999C22.31 10.8999 22.53 10.6799 22.53 10.3999C22.53 10.3299 22.51 10.2599 22.49 10.1899H21.58H21.57Z" fill="#333333"/>
<path d="M19.76 9.44998L17.99 9.22998H17.95L17.94 9.23998L17.09 9.67998L18.01 9.42998H17.95L19.67 9.90998L19.76 9.44998Z" fill="#9C9C9C"/>
<path d="M19.1399 10.1899C19.1699 10.2499 19.1899 10.3199 19.1899 10.3999C19.1899 10.6699 18.9599 10.8999 18.6899 10.8999C18.4199 10.8999 18.1899 10.6799 18.1899 10.3999C18.1899 10.3299 18.2099 10.2599 18.2399 10.1899H19.1499H19.1399Z" fill="#333333"/>
<path d="M24.61 11.03L24.57 11.06L23.75 8.17002L23.21 7.27002L24.37 7.86002L24.6 10.99V11.03H24.61Z" fill="#9C9C9C"/>
<path d="M16.09 11.03L16.13 11.06L16.95 8.17002L17.49 7.27002L16.33 7.86002L16.1 10.99V11.03H16.09Z" fill="#9C9C9C"/>
<path d="M24.45 6.74998V7.93998C23.41 8.21998 22.25 8.33998 21.14 8.37998C20.4 8.39998 19.68 8.37998 19.03 8.34998C18.71 8.32998 18.4 8.30998 18.12 8.27998C17.78 8.24998 17.48 8.21998 17.22 8.18998C16.59 8.10998 16.21 8.04998 16.21 8.04998V6.91998C16.21 6.91998 20.31 4.72998 20.33 4.72998C20.33 4.72998 20.84 4.98998 21.51 5.31998C21.72 5.41998 21.95 5.53998 22.18 5.64998C22.4 5.75998 22.62 5.86998 22.83 5.96998C23.44 6.26998 24 6.53998 24.27 6.66998C24.39 6.72998 24.45 6.75998 24.45 6.75998V6.74998Z" fill="#FFD675"/>
<path opacity="0.2" d="M22.18 5.63005L18.13 8.27005C17.79 8.24005 17.49 8.21005 17.23 8.18005L21.52 5.30005C21.73 5.40005 21.96 5.52005 22.19 5.63005H22.18Z" fill="white"/>
<path opacity="0.2" d="M24.27 6.65996L21.14 8.37996C20.4 8.39996 19.68 8.37996 19.03 8.34996L22.83 5.95996C23.44 6.25996 24 6.52996 24.27 6.65996Z" fill="white"/>
<path d="M12.23 22.16L12.1 23.13L12.57 22.28L12.23 22.16Z" fill="#333333"/>
<path d="M14.13 22.16L13.99 23.13L14.46 22.28L14.13 22.16Z" fill="#333333"/>
<path d="M16.02 22.16L15.89 23.13L16.36 22.28L16.02 22.16Z" fill="#333333"/>
<path d="M9.85998 25.27L9.72998 26.23L10.2 25.38L9.85998 25.27Z" fill="#333333"/>
<path d="M11.76 25.27L11.62 26.23L12.1 25.38L11.76 25.27Z" fill="#333333"/>
<path d="M13.65 25.27L13.52 26.23L13.99 25.38L13.65 25.27Z" fill="#333333"/>
<path d="M10.4401 28.39L10.3101 29.35L10.7801 28.51L10.4401 28.39Z" fill="#333333"/>
<path d="M12.34 28.39L12.2 29.35L12.68 28.51L12.34 28.39Z" fill="#333333"/>
<path d="M14.3599 28.32C14.2699 28.54 14.1899 28.74 14.0999 28.94H14.0699L14.1699 28.26L14.3599 28.32Z" fill="#333333"/>
<path d="M15.55 16.75L15.41 17.71L15.89 16.87L15.55 16.75Z" fill="#333333"/>
<path d="M13.65 16.36L13.52 17.33L13.99 16.48L13.65 16.36Z" fill="#333333"/>
<path d="M11.88 16.71L11.61 17.18L11.66 16.83C11.73 16.79 11.8 16.75 11.88 16.71Z" fill="#333333"/>
<path d="M10.3 30.34L10.05 30.42L10.07 30.27L10.3 30.34Z" fill="#333333"/>
<path d="M9.91003 19.03L9.77002 20L10.25 19.15L9.91003 19.03Z" fill="#333333"/>
<path d="M12.02 19.03L11.88 20L12.36 19.15L12.02 19.03Z" fill="#333333"/>
<path d="M13.91 19.03L13.78 20L14.25 19.15L13.91 19.03Z" fill="#333333"/>
<path d="M15.81 19.03L15.67 20L16.15 19.15L15.81 19.03Z" fill="#333333"/>
<path d="M17.75 17.25L17.61 18.22L18.09 17.37L17.75 17.25Z" fill="#333333"/>
<path d="M10.12 22.16L9.98999 23.13L10.46 22.28L10.12 22.16Z" fill="#333333"/>
<path d="M28.88 22.16L29.02 23.13L28.55 22.28L28.88 22.16Z" fill="#333333"/>
<path d="M26.99 22.16L27.12 23.13L26.65 22.28L26.99 22.16Z" fill="#333333"/>
<path d="M25.09 22.16L25.23 23.13L24.75 22.28L25.09 22.16Z" fill="#333333"/>
<path d="M25.57 16.75L25.7 17.71L25.23 16.87L25.57 16.75Z" fill="#333333"/>
<path d="M27.46 16.36L27.6 17.33L27.12 16.48L27.46 16.36Z" fill="#333333"/>
<path d="M29.23 16.71L29.5 17.18L29.45 16.83C29.38 16.79 29.31 16.75 29.23 16.71Z" fill="#333333"/>
<path d="M31.2 19.03L31.34 20L30.87 19.15L31.2 19.03Z" fill="#333333"/>
<path d="M29.1 19.03L29.23 20L28.76 19.15L29.1 19.03Z" fill="#333333"/>
<path d="M27.2 19.03L27.34 20L26.86 19.15L27.2 19.03Z" fill="#333333"/>
<path d="M25.31 19.03L25.44 20L24.97 19.15L25.31 19.03Z" fill="#333333"/>
<path d="M23.36 17.25L23.5 18.22L23.03 17.37L23.36 17.25Z" fill="#333333"/>
<path d="M30.99 22.16L31.13 23.13L30.65 22.28L30.99 22.16Z" fill="#333333"/>
<g style="mix-blend-mode:color-burn" opacity="0.2">
<path d="M25.29 14.57C25.14 15.44 23.44 16.79 22.08 17.74C21.15 18.39 20.39 18.85 20.39 18.85C20.39 18.85 15.4 16.28 15.38 14.56C15.4 14.56 15.41 14.54 15.43 14.53C15.54 14.47 15.64 14.41 15.74 14.35C15.87 14.28 15.98 14.21 16.09 14.15C16.15 14.12 16.19 14.09 16.24 14.06C16.27 14.04 16.3 14.03 16.32 14.01C16.35 13.99 16.37 13.98 16.39 13.97C16.41 13.96 16.44 13.94 16.46 13.93C16.48 13.92 16.5 13.91 16.52 13.9C16.54 13.89 16.56 13.88 16.56 13.88H24.11C24.11 13.88 24.13 13.88 24.16 13.91C24.18 13.91 24.21 13.94 24.24 13.96C24.26 13.96 24.28 13.98 24.3 13.99C24.32 14 24.34 14.02 24.37 14.03C24.46 14.08 24.58 14.15 24.71 14.22C24.81 14.28 24.92 14.34 25.04 14.41C25.09 14.44 25.13 14.47 25.18 14.49C25.21 14.51 25.25 14.53 25.29 14.55V14.57Z" fill="#616161"/>
</g>
<path d="M24.54 14.5C24.41 15.94 20.26 18.06 20.26 18.06C20.26 18.06 16.08 15.76 16.11 14.31C16.12 13.31 17.29 12.53 18.7 12.56C19.49 12.57 20.37 13.1 20.37 13.1C20.37 13.1 21.22 12.61 22.03 12.64C23.44 12.68 24.64 13.51 24.54 14.5Z" fill="#9C9C9C"/>
<path d="M19.47 13.2L20.38 13.41L21.27 13.2L21.51 14.39L19.25 14.38L19.47 13.2Z" fill="#EBBE9F"/>
<g style="mix-blend-mode:color-burn" opacity="0.2">
<path d="M21.32 13.64H19.53V13.99H21.32V13.64Z" fill="#616161"/>
</g>
<g style="mix-blend-mode:color-burn" opacity="0.2">
<path d="M22.37 21.49C22.41 22.48 20.25 24.03 20.25 24.03C20.25 24.03 18.15 22.44 18.3 21.33C18.39 20.64 19.02 20.12 19.68 20.13C20.04 20.13 20.43 20.45 20.43 20.45C20.43 20.45 20.8 20.15 21.15 20.16C21.74 20.18 22.35 20.85 22.38 21.48L22.37 21.49Z" fill="#616161"/>
</g>
<path d="M22.2 21.29C22.13 22.19 20.29 23.54 20.29 23.54C20.29 23.54 18.45 22.12 18.47 21.21C18.47 20.59 19 20.09 19.62 20.1C19.97 20.1 20.35 20.43 20.35 20.43C20.35 20.43 20.73 20.12 21.09 20.13C21.71 20.15 22.24 20.66 22.2 21.29Z" fill="#FFD675"/>
<g style="mix-blend-mode:color-burn" opacity="0.2">
<path d="M20.3 22.89C19.61 22.3 18.97 21.56 18.98 21.22C18.98 20.88 19.27 20.61 19.61 20.62C19.71 20.62 19.93 20.75 20.03 20.83L20.36 21.1L20.69 20.83C20.78 20.76 20.98 20.65 21.09 20.65C21.27 20.65 21.44 20.73 21.56 20.87C21.63 20.95 21.71 21.08 21.7 21.26C21.68 21.61 21.01 22.33 20.31 22.89H20.3Z" fill="#616161"/>
</g>
<path d="M21 5.76997C20.98 6.09997 20.31 6.57997 20.31 6.57997C20.31 6.57997 19.65 6.06997 19.65 5.73997C19.65 5.50997 19.84 5.33997 20.06 5.33997C20.19 5.33997 20.33 5.45997 20.33 5.45997C20.33 5.45997 20.47 5.34997 20.6 5.34997C20.82 5.34997 21.01 5.53997 21 5.76997Z" fill="#D66142"/>
<g style="mix-blend-mode:color-burn" opacity="0.2">
<path d="M31.7 21.97V18.46L31.61 18.17C31.61 18.17 31.45 18.08 31.17 17.92C31.12 17.89 31.07 17.86 31.02 17.84C30.92 17.78 30.81 17.72 30.69 17.65C30.61 17.6 30.53 17.55 30.44 17.5C30.35 17.45 30.26 17.4 30.17 17.35C30.03 17.27 29.88 17.18 29.72 17.09C29.63 17.04 29.54 16.99 29.45 16.94L29.43 16.83C29.36 16.79 29.29 16.75 29.21 16.71L29.29 16.86C28.23 16.26 27 15.56 26 14.98C25.9 14.92 25.79 14.86 25.7 14.81C25.68 14.8 25.65 14.78 25.63 14.77C25.56 14.73 25.49 14.69 25.42 14.65C25.37 14.62 25.33 14.6 25.28 14.57C25.28 14.57 25.2 14.53 25.17 14.51C25.12 14.48 25.08 14.45 25.03 14.43C24.91 14.36 24.8 14.3 24.7 14.24C24.63 14.2 24.57 14.17 24.51 14.13C24.5 14.08 24.49 14.04 24.47 14L24.68 12.05L24.6 11.03V10.99L24.37 7.95997C24.39 7.95997 24.42 7.94997 24.44 7.93997V6.74997C24.44 6.74997 24.37 6.71997 24.26 6.65997C23.99 6.52997 23.43 6.24997 22.82 5.95997C22.61 5.85997 22.38 5.74997 22.17 5.63997C21.94 5.52997 21.71 5.41997 21.5 5.30997C20.84 4.97997 20.32 4.72997 20.32 4.71997C20.32 4.71997 20.3 4.71997 20.27 4.74997V27.39L24.57 26.1L24.61 26.24L27.04 25.36L31.7 23.96V23.67V21.98V21.97Z" fill="#616161"/>
</g>
<path d="M31.7001 26.1V38.69C31.7001 38.69 31.5401 38.78 31.3501 38.89C31.3101 38.92 31.2701 38.94 31.2201 38.96C31.1201 39.02 31.0001 39.08 30.8801 39.15C30.8601 39.17 30.8401 39.17 30.8201 39.19C30.7101 39.25 30.6001 39.31 30.4801 39.38C30.3401 39.47 30.1801 39.56 30.0201 39.65C29.8601 39.74 29.6901 39.84 29.5101 39.94C29.4001 40 29.2801 40.07 29.1701 40.14C29.0301 40.22 28.8801 40.3 28.7401 40.38C28.2601 40.65 27.7601 40.94 27.2701 41.22C27.1601 41.29 27.0401 41.35 26.9301 41.42C26.8201 41.48 26.7101 41.54 26.6001 41.6C26.4901 41.66 26.3801 41.73 26.2701 41.79C25.9701 41.96 25.6901 42.12 25.4401 42.26C25.4201 42.27 25.4001 42.29 25.3701 42.3C25.3501 42.3 25.3401 42.33 25.3201 42.33C25.2101 42.39 25.1101 42.45 25.0101 42.51C24.8801 42.58 24.7601 42.65 24.6601 42.71C24.6501 42.71 24.6401 42.73 24.6201 42.73C24.5801 42.75 24.5401 42.77 24.5101 42.79C24.4901 42.79 24.4801 42.81 24.4601 42.82C24.4501 42.82 24.4301 42.84 24.4201 42.84C24.3901 42.86 24.3701 42.87 24.3501 42.88C24.3401 42.88 24.3301 42.89 24.3201 42.9C24.3101 42.9 24.3001 42.9 24.2801 42.92C24.2601 42.94 24.2401 42.94 24.2201 42.95C24.2001 42.96 24.1901 42.97 24.1901 42.97H16.6401C16.6401 42.97 16.6201 42.96 16.5901 42.94C16.5701 42.94 16.5401 42.91 16.5101 42.89C16.4901 42.89 16.4701 42.87 16.4501 42.86C16.4301 42.84 16.4101 42.83 16.3801 42.82C16.3501 42.8 16.3201 42.79 16.2801 42.76C16.2601 42.76 16.2501 42.74 16.2301 42.73C16.1701 42.69 16.1101 42.66 16.0401 42.62C15.9401 42.56 15.8301 42.5 15.7101 42.43C15.6601 42.4 15.6201 42.37 15.5701 42.35C15.5401 42.33 15.5001 42.31 15.4601 42.29C15.4601 42.29 15.3701 42.23 15.3201 42.21C15.2501 42.17 15.1801 42.13 15.1101 42.09C15.0801 42.08 15.0601 42.06 15.0401 42.05C14.9401 42 14.8401 41.94 14.7401 41.88C14.2201 41.59 13.6501 41.26 13.0601 40.92C12.8101 40.78 12.5701 40.64 12.3301 40.51C12.2601 40.47 12.1901 40.43 12.1201 40.39C11.8901 40.26 11.6701 40.13 11.4501 40.01C11.4101 39.99 11.3801 39.97 11.3501 39.95C11.3401 39.95 11.3201 39.93 11.3101 39.92C11.2201 39.87 11.1301 39.82 11.0401 39.77C10.8901 39.68 10.7401 39.6 10.5901 39.51C10.5001 39.46 10.4101 39.41 10.3201 39.36C10.2401 39.31 10.1501 39.26 10.0701 39.21C9.95006 39.14 9.84006 39.08 9.74006 39.02C9.69006 38.99 9.64006 38.96 9.59006 38.93C9.32006 38.77 9.15006 38.68 9.15006 38.68L9.06006 38.39V32.91L13.7201 31.51H13.7501L13.7801 31.49L14.7701 31.19L16.1801 30.77L20.4801 29.48L25.6401 27.93L26.7601 27.59L26.8201 27.57L30.3301 26.52L30.8201 26.37L31.7001 26.11V26.1Z" fill="#D66142"/>
<path d="M18.9701 39.79L19.0301 39.91L19.0801 40.02H21.7401C21.7401 40.02 21.7601 39.96 21.7801 39.91C21.8001 39.88 21.8101 39.83 21.8301 39.79H18.9801H18.9701ZM22.0701 39.3899L22.0201 39.2999L21.7001 38.7599L20.4701 36.63L20.3601 36.45L18.9301 38.93L18.7501 39.24V39.27L18.3101 40.02H22.4501L22.0801 39.3899H22.0701ZM18.7001 39.79L18.8501 39.52L18.8701 39.49L19.3601 38.63L20.3701 36.88L20.4801 37.07L21.3101 38.5L21.9201 39.5499L21.9601 39.6199L22.0001 39.7L22.0401 39.77H18.7001V39.79ZM18.9801 39.79L19.0401 39.91L19.0901 40.02H21.7501C21.7501 40.02 21.7701 39.96 21.7901 39.91C21.8101 39.88 21.8201 39.83 21.8401 39.79H18.9901H18.9801Z" fill="#FFD675"/>
<g style="mix-blend-mode:color-burn" opacity="0.2">
<path d="M23.14 42.96L30.65 38.69L31.7 35.46V26.11L26.76 27.59L25.64 27.93L22.68 37.62L22.28 38.92L21.7 40.16L20.41 42.91V42.96H23.13H23.14Z" fill="#616161"/>
</g>
<path d="M24.2 42.96C24.2 42.96 24.21 42.96 24.23 42.94C24.25 42.94 24.26 42.92 24.29 42.91C24.31 42.9 24.33 42.89 24.36 42.87C24.38 42.86 24.4 42.84 24.43 42.83C24.46 42.81 24.48 42.8 24.52 42.78C24.57 42.75 24.62 42.73 24.67 42.7C24.77 42.64 24.89 42.58 25.02 42.5C25.12 42.44 25.22 42.39 25.33 42.32C25.37 42.3 25.4 42.28 25.44 42.25C25.69 42.11 25.97 41.95 26.27 41.78C26.38 41.72 26.49 41.66 26.6 41.59C26.71 41.53 26.82 41.47 26.93 41.4C27.04 41.34 27.16 41.27 27.27 41.2C27.75 40.93 28.25 40.64 28.73 40.36C28.87 40.28 29.02 40.2 29.16 40.12C30 39.64 30.75 39.21 31.22 38.95C31.26 38.92 31.31 38.9 31.35 38.88C31.54 38.77 31.67 38.7 31.7 38.68V26.09L30.82 26.35L30.33 26.5L26.82 27.55L26.76 27.57C26.6 27.96 26.43 28.37 26.25 28.8C25.07 31.65 23.62 35.25 22.69 37.6C22.11 39.06 21.72 40.04 21.72 40.04V40.14L21.46 42.95H24.2V42.96Z" fill="#EBEBEB"/>
<g style="mix-blend-mode:color-burn" opacity="0.2">
<path d="M20.42 42.91V42.96H17.7C17.7 42.96 17.14 42.64 16.34 42.19C16.31 42.17 16.28 42.16 16.25 42.14C16.06 42.03 15.87 41.92 15.65 41.8C14.94 41.39 14.11 40.92 13.33 40.48C13.31 40.47 13.29 40.45 13.27 40.44C11.64 39.51 10.19 38.68 10.19 38.68L9.04004 34.88V33.19L13.7 31.5H13.73L13.76 31.48L14.75 31.18L16.16 30.76L18.52 38.81L18.55 38.9L18.65 39.11L18.72 39.26L18.83 39.51L18.91 39.68L18.95 39.78L19.01 39.9L19.06 40.01L19.12 40.13L20.2 42.45L20.38 42.84L20.4 42.89L20.42 42.91Z" fill="#616161"/>
</g>
<path d="M19.3899 42.9601H16.6499C16.6499 42.9601 16.6299 42.9501 16.5999 42.9301C16.5799 42.9301 16.5499 42.9001 16.5199 42.8801C16.4999 42.8801 16.4799 42.8601 16.4599 42.8501C16.4399 42.8301 16.4199 42.8201 16.3899 42.8101C16.3599 42.7901 16.3299 42.7801 16.2899 42.7501C16.2699 42.7501 16.2599 42.7301 16.2399 42.7201C16.1799 42.6801 16.1199 42.6501 16.0499 42.6101C15.9499 42.5501 15.8399 42.4901 15.7199 42.4201C15.6699 42.3901 15.6299 42.3601 15.5799 42.3401C15.5499 42.3201 15.5099 42.3001 15.4699 42.2701C15.4699 42.2701 15.3799 42.2201 15.3299 42.2001C15.2599 42.1601 15.1899 42.1201 15.1199 42.0801C15.0899 42.0701 15.0699 42.0501 15.0499 42.0401C14.9499 41.9901 14.8499 41.9301 14.7499 41.8701C14.2299 41.5801 13.6599 41.2501 13.0699 40.9101C12.8199 40.7701 12.5799 40.6301 12.3399 40.5001C12.2699 40.4601 12.1999 40.4201 12.1299 40.3801C11.8999 40.2501 11.6799 40.1201 11.4599 40.0001C11.4199 39.9801 11.3899 39.9601 11.3599 39.9401C11.3499 39.9401 11.3299 39.9201 11.3199 39.9101C11.2299 39.8601 11.1399 39.8101 11.0499 39.7601C10.8999 39.6701 10.7499 39.5901 10.5999 39.5001C10.5099 39.4501 10.4199 39.4001 10.3299 39.3501C10.2499 39.3001 10.1599 39.2501 10.0799 39.2001C9.95995 39.1301 9.84995 39.0701 9.74995 39.0101C9.69995 38.9801 9.64995 38.9501 9.59995 38.9201C9.32995 38.7601 9.15995 38.6701 9.15995 38.6701L9.06995 38.3801V32.9001L13.7299 31.5001H13.7599L13.7899 31.4801L14.7799 31.1801C15.6199 32.7701 17.5699 36.7801 18.5599 38.8101C18.6099 38.9101 18.6599 39.0101 18.6999 39.1001C18.7199 39.1501 18.7499 39.1901 18.7699 39.2401C18.8099 39.3301 18.8499 39.4101 18.8899 39.4901C18.9199 39.5601 18.9499 39.6201 18.9799 39.6701C18.9999 39.7101 19.0099 39.7501 19.0399 39.7801C19.0599 39.8201 19.0699 39.8601 19.0899 39.8901C19.1199 39.9501 19.1399 39.9901 19.1499 40.0101C19.1499 40.0301 19.16 40.0401 19.16 40.0401V40.1401L19.3799 42.4601L19.4199 42.9501L19.3899 42.9601Z" fill="#EBEBEB"/>
<path d="M16.0601 44.81L16.1401 45.83V45.87L16.3701 48.99L17.5401 49.58L19.7801 50.71L20.4001 50.38L21.0201 50.71L23.2601 49.58L24.4201 48.99L24.6601 45.87V45.83L24.7401 44.81L24.4101 41.87L20.4001 38.91V38.9H20.3901V38.91L16.3801 41.88L16.0601 44.81Z" fill="#EBBE9F"/>
<path d="M20.39 42.96L19.02 43.01L20.05 43.66C20.05 43.66 20.21 43.66 20.4 43.66H20.41C20.59 43.66 20.76 43.66 20.76 43.66L21.79 43.01L20.42 42.96H20.39Z" fill="#EBBE9F"/>
<g style="mix-blend-mode:color-burn" opacity="0.2">
<path d="M19.5601 44.9201L20.1301 46.8801H20.3901H20.4001H20.6701L21.2301 44.9201L20.6701 44.3201L20.4001 44.3101H20.3901L20.1301 44.3201L19.5601 44.9201Z" fill="#616161"/>
</g>
<path d="M19.81 47.3999L18.04 47.6299H18L17.98 47.6199L17.14 47.1699L18.06 47.4299H18L19.71 46.9399L19.81 47.3999Z" fill="#9C9C9C"/>
<path d="M19.18 46.67C19.21 46.61 19.23 46.54 19.23 46.46C19.23 46.18 19.01 45.96 18.73 45.96C18.45 45.96 18.23 46.18 18.23 46.46C18.23 46.53 18.25 46.6 18.27 46.67H19.18Z" fill="#333333"/>
<path d="M20.99 47.3999L22.76 47.6299H22.8L22.82 47.6199L23.66 47.1699L22.74 47.4299H22.8L21.08 46.9399L20.99 47.3999Z" fill="#9C9C9C"/>
<path d="M21.6101 46.67C21.5801 46.61 21.5601 46.54 21.5601 46.46C21.5601 46.18 21.7801 45.96 22.0601 45.96C22.3401 45.96 22.5601 46.18 22.5601 46.46C22.5601 46.53 22.5401 46.6 22.5101 46.67H21.6001H21.6101Z" fill="#333333"/>
<path d="M16.14 45.8301L16.18 45.8L17 48.68L17.54 49.5801L16.38 48.9901L16.15 45.8601V45.82L16.14 45.8301Z" fill="#9C9C9C"/>
<path d="M24.66 45.8301L24.62 45.8L23.8 48.68L23.26 49.5801L24.42 48.9901L24.65 45.8601V45.82L24.66 45.8301Z" fill="#9C9C9C"/>
<path d="M16.3 50.11V48.92C17.34 48.64 18.5 48.52 19.61 48.49C20.35 48.47 21.07 48.49 21.72 48.52C22.04 48.54 22.35 48.56 22.63 48.59C22.97 48.62 23.27 48.65 23.53 48.68C24.16 48.75 24.54 48.82 24.54 48.82V49.95C24.54 49.95 20.44 52.14 20.42 52.14C20.42 52.14 19.91 51.88 19.24 51.55C19.03 51.44 18.8 51.33 18.57 51.22C18.35 51.11 18.13 51 17.92 50.9C17.31 50.6 16.75 50.33 16.48 50.2C16.37 50.14 16.3 50.11 16.3 50.11Z" fill="#FFD675"/>
<path opacity="0.2" d="M18.5799 51.22L22.6299 48.58C22.9699 48.61 23.2699 48.64 23.5299 48.67L19.2399 51.55C19.0299 51.44 18.7999 51.33 18.5699 51.22H18.5799Z" fill="white"/>
<path opacity="0.2" d="M16.48 50.2L19.61 48.48C20.35 48.46 21.07 48.48 21.72 48.51L17.92 50.9C17.31 50.6 16.75 50.33 16.48 50.2Z" fill="white"/>
<path d="M28.5201 34.7L28.6601 33.73L28.1801 34.58L28.5201 34.7Z" fill="#333333"/>
<path d="M26.63 34.7L26.76 33.73L26.29 34.58L26.63 34.7Z" fill="#333333"/>
<path d="M24.73 34.7L24.87 33.73L24.39 34.58L24.73 34.7Z" fill="#333333"/>
<path d="M30.89 31.59L31.03 30.63L30.55 31.48L30.89 31.59Z" fill="#333333"/>
<path d="M29 31.59L29.13 30.63L28.66 31.48L29 31.59Z" fill="#333333"/>
<path d="M27.1 31.59L27.24 30.63L26.76 31.48L27.1 31.59Z" fill="#333333"/>
<path d="M30.31 28.46L30.45 27.5L29.97 28.35L30.31 28.46Z" fill="#333333"/>
<path d="M28.42 28.46L28.55 27.5L28.08 28.35L28.42 28.46Z" fill="#333333"/>
<path d="M26.39 28.54C26.48 28.32 26.57 28.12 26.65 27.92H26.68L26.58 28.6L26.39 28.54Z" fill="#333333"/>
<path d="M25.21 40.11L25.34 39.14L24.87 39.99L25.21 40.11Z" fill="#333333"/>
<path d="M27.1 40.49L27.24 39.53L26.76 40.38L27.1 40.49Z" fill="#333333"/>
<path d="M28.87 40.14L29.14 39.67L29.09 40.02C29.02 40.06 28.95 40.1 28.87 40.14Z" fill="#333333"/>
<path d="M30.45 26.5199L30.7 26.4399L30.6799 26.5899L30.45 26.5199Z" fill="#333333"/>
<path d="M30.84 37.82L30.98 36.86L30.5 37.71L30.84 37.82Z" fill="#333333"/>
<path d="M28.73 37.82L28.87 36.86L28.4 37.71L28.73 37.82Z" fill="#333333"/>
<path d="M26.84 37.82L26.98 36.86L26.5 37.71L26.84 37.82Z" fill="#333333"/>
<path d="M24.94 37.82L25.08 36.86L24.61 37.71L24.94 37.82Z" fill="#333333"/>
<path d="M23 39.6L23.14 38.64L22.66 39.49L23 39.6Z" fill="#333333"/>
<path d="M30.6301 34.7L30.76 33.73L30.29 34.58L30.6301 34.7Z" fill="#333333"/>
<path d="M11.87 34.7L11.73 33.73L12.21 34.58L11.87 34.7Z" fill="#333333"/>
<path d="M13.76 34.7L13.63 33.73L14.1 34.58L13.76 34.7Z" fill="#333333"/>
<path d="M15.66 34.7L15.52 33.73L16 34.58L15.66 34.7Z" fill="#333333"/>
<path d="M15.18 40.11L15.05 39.14L15.52 39.99L15.18 40.11Z" fill="#333333"/>
<path d="M13.29 40.49L13.15 39.53L13.63 40.38L13.29 40.49Z" fill="#333333"/>
<path d="M11.52 40.14L11.26 39.67L11.31 40.02C11.38 40.06 11.45 40.1 11.52 40.14Z" fill="#333333"/>
<path d="M9.55003 37.82L9.41003 36.86L9.89003 37.71L9.55003 37.82Z" fill="#333333"/>
<path d="M11.65 37.82L11.52 36.86L11.99 37.71L11.65 37.82Z" fill="#333333"/>
<path d="M13.55 37.82L13.41 36.86L13.89 37.71L13.55 37.82Z" fill="#333333"/>
<path d="M15.4401 37.82L15.3101 36.86L15.7801 37.71L15.4401 37.82Z" fill="#333333"/>
<path d="M17.39 39.6L17.25 38.64L17.73 39.49L17.39 39.6Z" fill="#333333"/>
<path d="M9.75999 34.7L9.62 33.73L10.1 34.58L9.75999 34.7Z" fill="#333333"/>
<g style="mix-blend-mode:color-burn" opacity="0.2">
<path d="M15.46 42.29C15.61 41.42 17.31 40.07 18.67 39.12C19.6 38.47 20.36 38.01 20.36 38.01C20.36 38.01 25.35 40.58 25.37 42.3C25.35 42.3 25.34 42.32 25.32 42.33C25.21 42.39 25.11 42.45 25.01 42.5C24.88 42.57 24.77 42.64 24.66 42.7C24.6 42.74 24.56 42.76 24.51 42.79C24.47 42.81 24.45 42.82 24.42 42.84C24.4 42.86 24.37 42.87 24.35 42.88C24.32 42.89 24.3 42.91 24.28 42.92C24.26 42.93 24.24 42.94 24.22 42.95C24.2 42.96 24.19 42.97 24.19 42.97H16.64C16.64 42.97 16.62 42.97 16.59 42.94C16.57 42.94 16.54 42.91 16.5 42.89C16.48 42.89 16.46 42.87 16.45 42.86C16.43 42.85 16.41 42.83 16.38 42.82C16.29 42.77 16.17 42.7 16.04 42.63C15.94 42.57 15.83 42.51 15.71 42.44C15.66 42.41 15.62 42.38 15.57 42.36C15.54 42.34 15.5 42.32 15.46 42.3V42.29Z" fill="#616161"/>
</g>
<path d="M16.2099 42.3601C16.3399 40.9201 20.4899 38.8 20.4899 38.8C20.4899 38.8 24.6699 41.1 24.6399 42.55C24.6199 43.55 23.4499 44.33 22.0499 44.3C21.2599 44.29 20.3799 43.76 20.3799 43.76C20.3799 43.76 19.5299 44.2501 18.7199 44.2201C17.3099 44.1801 16.1099 43.3501 16.2099 42.3601Z" fill="#9C9C9C"/>
<path d="M21.28 43.66L20.38 43.45L19.48 43.66L19.25 42.47H21.51L21.28 43.66Z" fill="#EBBE9F"/>
<g style="mix-blend-mode:color-burn" opacity="0.2">
<path d="M21.2201 42.86H19.4301V43.21H21.2201V42.86Z" fill="#616161"/>
</g>
<g style="mix-blend-mode:color-burn" opacity="0.2">
<path d="M18.3799 35.3599C18.3399 34.3599 20.4999 32.8199 20.4999 32.8199C20.4999 32.8199 22.5999 34.4099 22.4499 35.5199C22.3599 36.2099 21.7299 36.7299 21.0699 36.7199C20.7099 36.7199 20.3199 36.3999 20.3199 36.3999C20.3199 36.3999 19.9499 36.6999 19.5999 36.6899C19.0099 36.6699 18.3999 35.9999 18.3799 35.3699V35.3599Z" fill="#616161"/>
</g>
<path d="M18.55 35.5601C18.62 34.6501 20.46 33.3101 20.46 33.3101C20.46 33.3101 22.3 34.7301 22.28 35.6401C22.27 36.2601 21.75 36.7601 21.13 36.7501C20.78 36.7501 20.39 36.4201 20.39 36.4201C20.39 36.4201 20.01 36.7301 19.65 36.7201C19.02 36.7001 18.5 36.1901 18.54 35.5601H18.55Z" fill="#FFD675"/>
<g style="mix-blend-mode:color-burn" opacity="0.2">
<path d="M20.4499 33.97C21.1399 34.56 21.7799 35.3 21.7699 35.64C21.7699 35.98 21.4799 36.25 21.1399 36.24C21.0399 36.24 20.8199 36.11 20.7299 36.03L20.3999 35.76L20.0699 36.03C19.9799 36.1 19.7799 36.21 19.6799 36.21C19.4999 36.21 19.3299 36.12 19.2099 35.99C19.1399 35.91 19.0599 35.78 19.0699 35.6C19.0899 35.25 19.7599 34.53 20.4599 33.97H20.4499Z" fill="#616161"/>
</g>
<path d="M19.75 51.09C19.77 50.76 20.44 50.28 20.44 50.28C20.44 50.28 21.11 50.79 21.1 51.12C21.1 51.34 20.91 51.52 20.68 51.52C20.55 51.52 20.42 51.4 20.42 51.4C20.42 51.4 20.28 51.51 20.15 51.51C19.93 51.51 19.74 51.32 19.75 51.09Z" fill="#D66142"/>
<g style="mix-blend-mode:color-burn" opacity="0.2">
<path d="M16.17 30.77L14.76 31.19L13.77 31.49H13.74L13.71 31.51L9.05005 32.91V38.39L9.14005 38.68C9.14005 38.68 9.30005 38.77 9.58005 38.93C9.63005 38.96 9.68005 38.99 9.73005 39.02C9.83005 39.08 9.94004 39.14 10.06 39.21C10.14 39.26 10.23 39.31 10.31 39.36C10.4 39.41 10.49 39.46 10.58 39.51C10.72 39.59 10.87 39.68 11.03 39.77C11.12 39.82 11.21 39.87 11.3 39.92L11.32 40.03C11.39 40.07 11.46 40.11 11.53 40.15L11.45 40C11.67 40.12 11.89 40.25 12.12 40.38C12.19 40.42 12.26 40.46 12.33 40.5C12.57 40.64 12.82 40.78 13.06 40.91C13.65 41.24 14.22 41.57 14.74 41.87C14.84 41.93 14.95 41.99 15.04 42.04C15.06 42.05 15.09 42.07 15.11 42.08C15.18 42.12 15.25 42.16 15.32 42.2C15.37 42.22 15.42 42.25 15.46 42.27C15.46 42.27 15.54 42.31 15.57 42.34C15.62 42.37 15.66 42.4 15.71 42.42C15.83 42.49 15.94 42.55 16.04 42.61C16.1 42.65 16.17 42.68 16.23 42.72C16.23 42.73 16.24 42.75 16.24 42.76C16.24 42.79 16.25 42.82 16.26 42.84L16.05 44.79L16.13 45.81V45.85L16.36 48.88C16.36 48.88 16.31 48.89 16.29 48.9V50.09C16.29 50.09 16.35 50.12 16.47 50.18C16.75 50.32 17.3 50.59 17.92 50.89C18.13 51 18.36 51.1 18.58 51.21C18.8 51.32 19.03 51.44 19.25 51.54C19.91 51.86 20.43 52.12 20.43 52.13C20.43 52.13 20.45 52.13 20.48 52.1V42.95V36.48V29.46L16.18 30.75L16.17 30.77Z" fill="#616161"/>
</g>
<path d="M8.99997 11.96C8.92997 13.24 6.35997 15.19 6.35997 15.19C6.35997 15.19 3.71997 13.23 3.71997 11.94C3.71997 11.06 4.43997 10.35 5.31997 10.35C5.81997 10.35 6.36997 10.79 6.36997 10.79C6.36997 10.79 6.88997 10.35 7.39997 10.35C8.28997 10.36 9.03997 11.07 8.99997 11.95V11.96Z" fill="#D66142"/>
<g style="mix-blend-mode:color-burn" opacity="0.2">
<path d="M7.39998 10.36C6.88998 10.36 6.36998 10.8 6.36998 10.8C6.36998 10.8 6.36998 10.8 6.34998 10.79V15.19C6.34998 15.19 8.91997 13.24 8.98997 11.96C9.03997 11.08 8.27998 10.37 7.38998 10.36H7.39998Z" fill="#616161"/>
</g>
<path d="M31.95 45.23C32.02 43.95 34.59 42 34.59 42C34.59 42 37.23 43.96 37.23 45.25C37.23 46.13 36.51 46.84 35.63 46.84C35.13 46.84 34.58 46.39 34.58 46.39C34.58 46.39 34.06 46.84 33.55 46.83C32.66 46.82 31.91 46.11 31.95 45.23Z" fill="#D66142"/>
<g style="mix-blend-mode:color-burn" opacity="0.2">
<path d="M33.55 46.84C34.06 46.84 34.58 46.4 34.58 46.4C34.58 46.4 34.58 46.4 34.6 46.41V42.01C34.6 42.01 32.03 43.96 31.96 45.24C31.91 46.12 32.67 46.83 33.56 46.84H33.55Z" fill="#616161"/>
</g>
</svg>
