<svg width="41" height="57" viewBox="0 0 41 57" fill="none" xmlns="http://www.w3.org/2000/svg">
<path d="M4.44001 56.49C2.09001 56.49 0.170013 54.62 0.130013 52.23L0.0100098 5.00003C0.0400098 2.75003 1.95001 0.860035 4.31001 0.870035L35.52 0.930035C37.87 0.930035 39.78 2.83003 39.78 5.14003V52.27C39.78 54.57 37.88 56.45 35.53 56.45L4.43001 56.49H4.44001Z" fill="#C9C9C9"/>
<path d="M4.77 56.4C2.42 56.4 0.500004 54.53 0.500004 52.22L0.380005 4.99003C0.380005 2.67003 2.29001 0.780029 4.65001 0.780029L35.86 0.840029C38.21 0.840029 40.12 2.74003 40.12 5.06003V52.19C40.12 54.49 38.22 56.37 35.87 56.37L4.77 56.41V56.4Z" fill="white"/>
<path d="M35.58 55.49H4.82C3.02 55.49 1.56 54.03 1.56 52.24V5.13C1.56 3.34 3.02 1.88 4.82 1.88H35.58C37.38 1.88 38.84 3.34 38.84 5.13V52.24C38.84 54.03 37.38 55.49 35.58 55.49ZM4.83 3.17C3.74 3.17 2.86 4.05 2.86 5.13V52.24C2.86 53.32 3.74 54.2 4.83 54.2H35.59C36.68 54.2 37.56 53.32 37.56 52.24V5.13C37.56 4.05 36.68 3.17 35.59 3.17H4.83Z" fill="#333333"/>
<path d="M7.62001 8.48996C7.62001 8.48996 7.47001 8.62996 7.27001 8.78996C7.01001 8.98996 6.77001 9.11996 6.58001 9.16996L5.51001 7.21996L5.45001 7.25996V8.96996H4.20001V4.50996H5.45001V7.03996C5.67001 7.00996 5.86001 6.85996 6.04001 6.59996C6.20001 6.35996 6.28001 6.12996 6.28001 5.90996C6.28001 5.75996 6.26001 5.61996 6.21001 5.50996C6.15001 5.40996 6.10001 5.30996 6.05001 5.20996C6.05001 5.16996 6.19001 5.03996 6.46001 4.82996C6.69001 4.65996 6.85001 4.53996 6.95001 4.45996C7.03001 4.51996 7.10001 4.62996 7.16001 4.78996C7.22001 4.94996 7.26001 5.08996 7.26001 5.20996C7.26001 5.31996 7.24001 5.43996 7.19001 5.59996C7.14001 5.75996 7.08001 5.88996 7.01001 6.00996C6.90001 6.18996 6.79001 6.32996 6.70001 6.41996C6.51001 6.60996 6.41001 6.71996 6.40001 6.73996L7.63001 8.49996L7.62001 8.48996Z" fill="#333333"/>
<path d="M32.94 49.39C32.94 49.39 33.09 49.25 33.29 49.09C33.55 48.89 33.79 48.76 33.99 48.71L35.06 50.66L35.12 50.62V48.91H36.37V53.37H35.12V50.84C34.9 50.87 34.71 51.02 34.54 51.29C34.38 51.53 34.3 51.76 34.3 51.98C34.3 52.13 34.32 52.27 34.37 52.38C34.43 52.48 34.48 52.58 34.53 52.68C34.53 52.73 34.39 52.85 34.12 53.06C33.89 53.23 33.73 53.35 33.63 53.43C33.55 53.37 33.48 53.25 33.42 53.1C33.36 52.94 33.32 52.8 33.32 52.68C33.32 52.57 33.34 52.44 33.39 52.29C33.44 52.13 33.5 52 33.57 51.87C33.68 51.69 33.79 51.56 33.88 51.46C34.07 51.27 34.17 51.16 34.18 51.14L32.95 49.38L32.94 49.39Z" fill="#333333"/>
<path d="M8.09003 12.89C8.09003 12.39 5.91003 10.25 5.91003 10.25C5.91003 10.25 3.78003 12.46 3.78003 12.89C3.78003 13.61 4.36003 14.2 5.08003 14.2C5.33003 14.2 5.56003 14.14 5.75003 14.01L4.93003 15.4H6.91003L6.10003 14.01C6.29003 14.13 6.52003 14.2 6.77003 14.2C7.49003 14.2 8.08003 13.62 8.08003 12.9L8.09003 12.89Z" fill="#333333"/>
<g style="mix-blend-mode:color-burn" opacity="0.2">
<path d="M8.08997 12.89C8.08997 12.39 5.90997 10.25 5.90997 10.25V15.4H6.92997L6.11997 14.01C6.30997 14.13 6.53997 14.2 6.78997 14.2C7.50997 14.2 8.09997 13.62 8.09997 12.9L8.08997 12.89Z" fill="#616161"/>
</g>
<path d="M32.26 44.8199C32.26 45.3199 34.44 47.4599 34.44 47.4599C34.44 47.4599 36.57 45.2499 36.57 44.8299C36.57 44.1099 35.99 43.5199 35.27 43.5199C35.02 43.5199 34.79 43.5899 34.6 43.7099L35.42 42.3199H33.44L34.25 43.7099C34.06 43.5899 33.83 43.5199 33.58 43.5199C32.86 43.5199 32.27 44.0999 32.27 44.8199H32.26Z" fill="#333333"/>
<g style="mix-blend-mode:color-burn" opacity="0.2">
<path d="M32.26 44.8201C32.26 45.3201 34.44 47.4601 34.44 47.4601V42.3101H33.42L34.23 43.7001C34.04 43.5801 33.81 43.5101 33.56 43.5101C32.84 43.5101 32.25 44.0901 32.25 44.8101L32.26 44.8201Z" fill="#616161"/>
</g>
<path d="M31.57 18.62L31.49 18.33C31.49 18.33 26.17 15.29 24.47 14.33C24.15 14.15 23.96 14.04 23.95 14.04H16.37C16.37 14.04 16.36 14.04 16.34 14.06C16.32 14.06 16.31 14.08 16.28 14.09C16.26 14.1 16.24 14.11 16.21 14.13C16.19 14.14 16.16 14.16 16.14 14.17C16.12 14.18 16.09 14.2 16.06 14.22C16.01 14.25 15.97 14.27 15.91 14.3C15.81 14.36 15.69 14.43 15.56 14.5C15.46 14.56 15.36 14.62 15.25 14.68C15.21 14.7 15.18 14.72 15.14 14.74C14.89 14.89 14.6 15.05 14.3 15.21C14.19 15.27 14.08 15.33 13.97 15.4C13.86 15.46 13.75 15.53 13.64 15.59C13.53 15.65 13.41 15.72 13.3 15.78C11.8 16.64 10.14 17.58 9.33998 18.04C9.28998 18.07 9.24998 18.09 9.20998 18.11C9.01998 18.22 8.88999 18.29 8.85999 18.31V30.94L13.82 29.45L14.94 29.11L31.59 24.11V18.6L31.57 18.62Z" fill="#333333"/>
<path d="M20.21 20.58L18.13 16.99H22.28L20.2 20.58H20.21ZM18.53 17.21L20.21 20.12L21.89 17.21H18.54H18.53Z" fill="#FFD675"/>
<g style="mix-blend-mode:color-burn" opacity="0.2">
<path d="M17.43 14.04L9.89003 18.33L8.84003 21.57V30.95L13.8 29.46L14.92 29.12L17.88 19.4L18.28 18.1L18.86 16.86L20.15 14.1V14.05H17.42L17.43 14.04Z" fill="#616161"/>
</g>
<path d="M16.36 14.04C16.36 14.04 16.35 14.04 16.33 14.06C16.31 14.06 16.3 14.08 16.27 14.09C16.25 14.1 16.23 14.11 16.2 14.13C16.18 14.14 16.16 14.16 16.13 14.17C16.11 14.18 16.08 14.2 16.05 14.22C16 14.25 15.96 14.27 15.9 14.3C15.8 14.36 15.68 14.42 15.55 14.5C15.45 14.56 15.35 14.61 15.24 14.68C15.2 14.7 15.17 14.72 15.13 14.74C14.88 14.88 14.59 15.04 14.29 15.21C14.18 15.27 14.07 15.33 13.96 15.4C13.85 15.46 13.74 15.53 13.63 15.59C13.52 15.65 13.4 15.72 13.29 15.78C12.81 16.06 12.3 16.34 11.82 16.62C11.67 16.7 11.53 16.78 11.39 16.86C10.55 17.34 9.79003 17.77 9.32003 18.04C9.28003 18.07 9.23003 18.09 9.19003 18.11C9.00003 18.22 8.87003 18.29 8.84003 18.31V30.94L9.72003 30.67L10.22 30.52L13.74 29.46L13.8 29.44C13.97 29.05 14.14 28.64 14.32 28.2C15.51 25.34 16.95 21.73 17.89 19.37C18.47 17.9 18.86 16.92 18.86 16.92V16.82L19.12 14.01H16.37L16.36 14.04Z" fill="#EBEBEB"/>
<g style="mix-blend-mode:color-burn" opacity="0.2">
<path d="M31.57 22.14L30.42 18.32C30.42 18.32 22.92 14.04 22.88 14.03H20.15V14.08L22.02 18.09L24.45 26.4L31.56 23.83V22.14H31.57Z" fill="#616161"/>
</g>
<path d="M31.57 18.62L31.48 18.33C31.48 18.33 23.98 14.05 23.94 14.04H21.19L21.45 16.95C21.45 16.95 24.69 23.66 25.83 25.84L31.56 24.12V18.62H31.57Z" fill="#EBEBEB"/>
<path d="M24.53 12.18L24.45 11.16V11.12L24.22 7.98001L23.05 7.40001L20.8 6.26001L20.18 6.59001L19.55 6.26001L17.31 7.40001L16.14 7.98001L15.91 11.12L15.9 11.16L15.83 12.18L16.06 15.17L20.17 18.1V18.11H20.18V18.1L24.29 15.17L24.53 12.18Z" fill="#EBBE9F"/>
<path d="M20.18 14.04L21.56 13.99L20.53 13.34C20.53 13.34 20.37 13.34 20.18 13.34C20 13.34 19.83 13.34 19.83 13.34L18.8 13.99L20.18 14.04Z" fill="#EBBE9F"/>
<g style="mix-blend-mode:color-burn" opacity="0.2">
<path d="M21.02 12.07L20.45 10.1H20.18H20.17H19.91L19.34 12.07L19.91 12.67L20.17 12.68H20.18L20.45 12.67L21.02 12.07Z" fill="#616161"/>
</g>
<path d="M20.77 9.57998L22.55 9.35997L22.59 9.34998L22.61 9.35997L23.45 9.80998L22.53 9.54998L22.59 9.55998L20.87 10.04L20.77 9.57998Z" fill="#9C9C9C"/>
<path d="M21.4 10.3199C21.37 10.3799 21.35 10.4499 21.35 10.5299C21.35 10.8099 21.58 11.0299 21.85 11.0299C22.12 11.0299 22.35 10.7999 22.35 10.5299C22.35 10.4599 22.33 10.3899 22.31 10.3199H21.4Z" fill="#333333"/>
<path d="M19.58 9.57998L17.81 9.35997L17.77 9.34998L17.75 9.35997L16.91 9.80998L17.83 9.54998L17.77 9.55998L19.49 10.04L19.58 9.57998Z" fill="#9C9C9C"/>
<path d="M18.96 10.3199C18.99 10.3799 19.01 10.4499 19.01 10.5299C19.01 10.8099 18.79 11.0299 18.51 11.0299C18.23 11.0299 18.01 10.7999 18.01 10.5299C18.01 10.4599 18.03 10.3899 18.06 10.3199H18.97H18.96Z" fill="#333333"/>
<path d="M24.45 11.16L24.41 11.19L23.59 8.29001L23.05 7.39001L24.22 7.98001L24.45 11.12V11.16Z" fill="#9C9C9C"/>
<path d="M15.9 11.16L15.94 11.19L16.76 8.29001L17.3 7.39001L16.13 7.98001L15.9 11.12V11.16Z" fill="#9C9C9C"/>
<path d="M24.29 6.86997V8.06997C23.25 8.34997 22.09 8.47997 20.97 8.50997C20.23 8.52997 19.5 8.50997 18.85 8.47997C18.53 8.45997 18.22 8.43997 17.94 8.40997C17.6 8.37997 17.3 8.34997 17.03 8.31997C16.4 8.23997 16.02 8.17997 16.02 8.17997V7.03997C16.02 7.03997 20.14 4.83997 20.16 4.83997C20.16 4.83997 20.67 5.10997 21.34 5.42997C21.55 5.52997 21.78 5.64997 22.01 5.75997C22.23 5.86997 22.45 5.97997 22.67 6.07997C23.28 6.37997 23.84 6.64997 24.12 6.77997C24.24 6.83997 24.3 6.86997 24.3 6.86997H24.29Z" fill="#FFD675"/>
<path opacity="0.2" d="M22.01 5.75004L17.95 8.40004C17.61 8.37004 17.31 8.34004 17.04 8.31004L21.34 5.42004C21.55 5.52004 21.78 5.64004 22.01 5.75004Z" fill="white"/>
<path opacity="0.2" d="M24.11 6.76995L20.97 8.48995C20.23 8.50995 19.5 8.48995 18.85 8.45995L22.66 6.06995C23.27 6.36995 23.83 6.63995 24.11 6.76995Z" fill="white"/>
<path d="M12.03 22.33L11.89 23.29L12.37 22.44L12.03 22.33Z" fill="#333333"/>
<path d="M13.93 22.33L13.79 23.29L14.27 22.44L13.93 22.33Z" fill="#333333"/>
<path d="M15.83 22.33L15.7 23.29L16.17 22.44L15.83 22.33Z" fill="#333333"/>
<path d="M9.65002 25.4399L9.52002 26.4099L9.99002 25.5599L9.65002 25.4399Z" fill="#333333"/>
<path d="M11.55 25.4399L11.42 26.4099L11.89 25.5599L11.55 25.4399Z" fill="#333333"/>
<path d="M13.46 25.4399L13.32 26.4099L13.79 25.5599L13.46 25.4399Z" fill="#333333"/>
<path d="M10.23 28.58L10.1 29.55L10.57 28.69L10.23 28.58Z" fill="#333333"/>
<path d="M12.13 28.58L12 29.55L12.48 28.69L12.13 28.58Z" fill="#333333"/>
<path d="M14.17 28.51C14.08 28.73 13.99 28.9299 13.91 29.1299H13.88L13.98 28.45L14.17 28.51Z" fill="#333333"/>
<path d="M15.36 16.9L15.22 17.87L15.7 17.02L15.36 16.9Z" fill="#333333"/>
<path d="M13.46 16.51L13.32 17.48L13.79 16.63L13.46 16.51Z" fill="#333333"/>
<path d="M11.68 16.86L11.41 17.33L11.46 16.98C11.53 16.94 11.6 16.9 11.68 16.86Z" fill="#333333"/>
<path d="M10.09 30.53L9.84998 30.61L9.85998 30.46L10.09 30.53Z" fill="#333333"/>
<path d="M9.7 19.1899L9.56 20.1599L10.04 19.2999L9.7 19.1899Z" fill="#333333"/>
<path d="M11.82 19.1899L11.68 20.1599L12.16 19.2999L11.82 19.1899Z" fill="#333333"/>
<path d="M13.72 19.1899L13.58 20.1599L14.06 19.2999L13.72 19.1899Z" fill="#333333"/>
<path d="M15.62 19.1899L15.48 20.1599L15.96 19.2999L15.62 19.1899Z" fill="#333333"/>
<path d="M17.57 17.4L17.43 18.37L17.91 17.52L17.57 17.4Z" fill="#333333"/>
<path d="M9.91003 22.33L9.78003 23.29L10.25 22.44L9.91003 22.33Z" fill="#333333"/>
<path d="M28.74 22.33L28.87 23.29L28.4 22.44L28.74 22.33Z" fill="#333333"/>
<path d="M26.84 22.33L26.97 23.29L26.5 22.44L26.84 22.33Z" fill="#333333"/>
<path d="M24.93 22.33L25.07 23.29L24.6 22.44L24.93 22.33Z" fill="#333333"/>
<path d="M25.41 16.9L25.55 17.87L25.07 17.02L25.41 16.9Z" fill="#333333"/>
<path d="M27.31 16.51L27.45 17.48L26.97 16.63L27.31 16.51Z" fill="#333333"/>
<path d="M29.09 16.86L29.35 17.33L29.3 16.98C29.23 16.94 29.16 16.9 29.09 16.86Z" fill="#333333"/>
<path d="M31.07 19.1899L31.2 20.1599L30.73 19.2999L31.07 19.1899Z" fill="#333333"/>
<path d="M28.95 19.1899L29.09 20.1599L28.61 19.2999L28.95 19.1899Z" fill="#333333"/>
<path d="M27.05 19.1899L27.19 20.1599L26.71 19.2999L27.05 19.1899Z" fill="#333333"/>
<path d="M25.15 19.1899L25.29 20.1599L24.81 19.2999L25.15 19.1899Z" fill="#333333"/>
<path d="M23.2 17.4L23.34 18.37L22.86 17.52L23.2 17.4Z" fill="#333333"/>
<path d="M30.85 22.33L30.99 23.29L30.51 22.44L30.85 22.33Z" fill="#333333"/>
<path d="M17.88 14.7699C18.01 14.6599 18.16 14.5799 18.32 14.4999L17.31 12.8199H23.06L22.05 14.5099C22.21 14.5799 22.36 14.6699 22.49 14.7799C22.94 15.1399 23.2 15.6499 23.2 16.1799C23.2 16.5299 23.2 16.9199 20.76 18.9099L20.23 19.3399L19.69 18.9199C17.17 16.9699 17.17 16.4999 17.18 16.1599C17.18 15.6299 17.44 15.1199 17.89 14.7599L17.88 14.7699Z" fill="#9C9C9C"/>
<path d="M18.51 13.34H21.85L21.38 14.53L19.11 14.52L18.51 13.34Z" fill="#EBBE9F"/>
<g style="mix-blend-mode:color-burn" opacity="0.2">
<path d="M21.15 13.78H19.35V14.14H21.15V13.78Z" fill="#616161"/>
</g>
<path d="M20.86 5.98004C20.86 5.83004 20.19 5.17004 20.19 5.17004C20.19 5.17004 19.54 5.85004 19.54 5.98004C19.54 6.20004 19.72 6.38004 19.94 6.38004C20.01 6.38004 20.09 6.36004 20.15 6.32004L19.9 6.75004H20.51L20.26 6.32004C20.32 6.36004 20.39 6.38004 20.47 6.38004C20.69 6.38004 20.87 6.20004 20.87 5.98004H20.86Z" fill="#333333"/>
<g style="mix-blend-mode:color-burn" opacity="0.2">
<path d="M22.53 22.86C22.48 22.35 20.22 20.38 20.22 20.38C20.22 20.38 18 22.42 17.96 22.86C17.88 23.64 18.48 24.32 19.29 24.32C19.57 24.32 19.83 24.24 20.05 24.1L19.06 25.84H21.43L20.44 24.1C20.66 24.24 20.92 24.32 21.2 24.32C22.01 24.32 22.6 23.65 22.53 22.86Z" fill="#616161"/>
</g>
<path d="M22.28 22.88C22.28 22.41 20.22 20.38 20.22 20.38C20.22 20.38 18.22 22.47 18.21 22.87C18.21 23.55 18.76 24.1 19.44 24.1C19.67 24.1 19.89 24.04 20.07 23.92L19.3 25.23H21.17L20.41 23.92C20.59 24.03 20.81 24.1 21.04 24.1C21.72 24.1 22.27 23.55 22.27 22.87L22.28 22.88Z" fill="#FFD675"/>
<g style="mix-blend-mode:color-burn" opacity="0.2">
<path d="M20.06 24.81L20.25 24.49L20.44 24.81H20.06ZM19.86 23.56C19.74 23.63 19.6 23.67 19.45 23.67C19.02 23.67 18.67 23.33 18.65 22.91C18.77 22.64 19.5 21.78 20.23 21C20.99 21.77 21.75 22.64 21.85 22.91C21.85 23.11 21.76 23.3 21.62 23.45C21.47 23.6 21.27 23.68 21.05 23.68C20.9 23.68 20.76 23.64 20.64 23.56H19.86Z" fill="#616161"/>
</g>
<g style="mix-blend-mode:color-burn" opacity="0.2">
<path d="M31.48 18.33C31.48 18.33 30.53 17.79 29.31 17.09L29.29 16.98C29.22 16.94 29.15 16.9 29.08 16.86L29.16 17C27.51 16.06 25.41 14.86 24.45 14.32C24.41 14.3 24.39 14.28 24.36 14.27L24.53 12.18L24.45 11.16V11.12L24.22 8.07996C24.24 8.07996 24.27 8.06996 24.29 8.05996V6.85996C24.29 6.85996 24.22 6.82996 24.11 6.76996C23.83 6.63996 23.27 6.35996 22.66 6.06996C22.44 5.95996 22.22 5.84996 22 5.74996C21.77 5.63996 21.54 5.51996 21.33 5.41996C20.66 5.08996 20.15 4.83996 20.15 4.82996C20.15 4.82996 20.13 4.82996 20.1 4.85996V27.58L24.41 26.28L24.45 26.42L26.87 25.54L31.55 24.13V18.62L31.47 18.33H31.48Z" fill="#616161"/>
</g>
<path d="M8.84002 38.62L8.92001 38.91C8.92001 38.91 14.24 41.95 15.94 42.91C16.26 43.09 16.45 43.2 16.46 43.2H24.04C24.04 43.2 24.05 43.2 24.08 43.18C24.09 43.18 24.11 43.16 24.14 43.15C24.16 43.14 24.18 43.13 24.21 43.11C24.23 43.1 24.26 43.08 24.28 43.07C24.31 43.06 24.33 43.04 24.36 43.02C24.41 42.99 24.46 42.97 24.51 42.94C24.61 42.88 24.73 42.81 24.86 42.74C24.96 42.68 25.06 42.62 25.17 42.56C25.21 42.54 25.24 42.52 25.28 42.5C25.53 42.36 25.82 42.2 26.12 42.03C26.23 41.97 26.34 41.91 26.45 41.84C26.56 41.78 26.67 41.72 26.78 41.65C26.89 41.59 27.01 41.52 27.12 41.46C28.62 40.6 30.28 39.66 31.08 39.2C31.13 39.17 31.17 39.15 31.21 39.12C31.4 39.01 31.53 38.94 31.56 38.92V26.29L26.6 27.78L25.48 28.12L8.83002 33.12V38.63L8.84002 38.62Z" fill="#333333"/>
<path d="M20.19 36.65L22.27 40.24H18.12L20.19 36.65ZM21.87 40.02L20.19 37.11L18.51 40.02H21.87Z" fill="#FFD675"/>
<g style="mix-blend-mode:color-burn" opacity="0.2">
<path d="M22.98 43.19L30.52 38.9L31.57 35.66V26.28L26.61 27.77L25.49 28.11L22.52 37.83L22.12 39.13L21.54 40.37L20.25 43.13V43.18H22.98V43.19Z" fill="#616161"/>
</g>
<path d="M24.04 43.19C24.04 43.19 24.05 43.19 24.08 43.17C24.09 43.17 24.11 43.15 24.14 43.14C24.16 43.13 24.18 43.12 24.21 43.1C24.23 43.09 24.25 43.07 24.28 43.06C24.31 43.05 24.33 43.03 24.36 43.01C24.41 42.98 24.46 42.96 24.51 42.93C24.61 42.87 24.73 42.8 24.86 42.73C24.96 42.67 25.06 42.62 25.17 42.55C25.21 42.53 25.24 42.51 25.28 42.49C25.53 42.35 25.82 42.19 26.12 42.02C26.23 41.96 26.34 41.9 26.45 41.83C26.56 41.77 26.67 41.71 26.78 41.64C26.89 41.58 27.01 41.51 27.12 41.45C27.6 41.17 28.11 40.89 28.59 40.61C28.73 40.53 28.88 40.45 29.02 40.36C29.86 39.88 30.62 39.45 31.08 39.18C31.13 39.15 31.17 39.13 31.21 39.1C31.4 38.99 31.53 38.92 31.56 38.9V26.27L30.68 26.54L30.18 26.69L26.66 27.75L26.6 27.77C26.44 28.16 26.26 28.58 26.08 29.01C24.89 31.87 23.45 35.48 22.51 37.84C21.93 39.31 21.54 40.28 21.54 40.28V40.38L21.28 43.2H24.03L24.04 43.19Z" fill="#EBEBEB"/>
<g style="mix-blend-mode:color-burn" opacity="0.2">
<path d="M8.84003 35.09L9.99003 38.91C9.99003 38.91 17.49 43.19 17.53 43.2H20.26V43.15L18.39 39.15L15.96 30.84L8.85003 33.41V35.1L8.84003 35.09Z" fill="#616161"/>
</g>
<path d="M8.84003 38.61L8.93003 38.9C8.93003 38.9 16.43 43.18 16.47 43.19H19.22L18.96 40.28C18.96 40.28 15.73 33.57 14.57 31.39L8.84003 33.11V38.62V38.61Z" fill="#EBEBEB"/>
<path d="M15.87 45.05L15.95 46.07V46.11L16.19 49.25L17.35 49.84L19.6 50.98L20.23 50.64L20.85 50.98L23.1 49.84L24.26 49.25L24.5 46.11V46.07L24.58 45.05L24.34 42.06L20.23 39.13V39.12H20.22V39.13L16.11 42.06L15.87 45.05Z" fill="#EBBE9F"/>
<path d="M20.22 43.1899L18.84 43.2399L19.87 43.8899C19.87 43.8899 20.04 43.8899 20.22 43.8899C20.4 43.8899 20.57 43.8899 20.57 43.8899L21.6 43.2399L20.22 43.1899Z" fill="#EBBE9F"/>
<g style="mix-blend-mode:color-burn" opacity="0.2">
<path d="M19.39 45.17L19.95 47.1301H20.22H20.23H20.5L21.06 45.17L20.5 44.5601L20.23 44.55H20.22L19.95 44.5601L19.39 45.17Z" fill="#616161"/>
</g>
<path d="M19.63 47.6499L17.86 47.8799H17.82L17.8 47.8699L16.95 47.4199L17.88 47.6799H17.82L19.54 47.1899L19.63 47.6499Z" fill="#9C9C9C"/>
<path d="M19.01 46.91C19.04 46.85 19.06 46.78 19.06 46.7C19.06 46.42 18.83 46.2 18.56 46.2C18.29 46.2 18.06 46.42 18.06 46.7C18.06 46.77 18.08 46.84 18.11 46.91H19.02H19.01Z" fill="#333333"/>
<path d="M20.82 47.6499L22.59 47.8799H22.63L22.65 47.8699L23.5 47.4199L22.58 47.6799H22.63L20.91 47.1899L20.82 47.6499Z" fill="#9C9C9C"/>
<path d="M21.44 46.91C21.41 46.85 21.39 46.78 21.39 46.7C21.39 46.42 21.62 46.2 21.89 46.2C22.16 46.2 22.39 46.42 22.39 46.7C22.39 46.77 22.37 46.84 22.34 46.91H21.43H21.44Z" fill="#333333"/>
<path d="M15.95 46.07L15.99 46.04L16.81 48.93L17.35 49.83L16.18 49.24L15.95 46.1V46.06V46.07Z" fill="#9C9C9C"/>
<path d="M24.5 46.07L24.46 46.04L23.64 48.93L23.1 49.83L24.26 49.24L24.49 46.1V46.06L24.5 46.07Z" fill="#9C9C9C"/>
<path d="M16.11 50.37V49.17C17.15 48.89 18.31 48.76 19.43 48.73C20.17 48.71 20.9 48.73 21.55 48.76C21.88 48.78 22.18 48.8 22.46 48.83C22.8 48.86 23.1 48.89 23.36 48.92C23.99 49 24.38 49.06 24.38 49.06V50.2C24.38 50.2 20.26 52.4 20.24 52.4C20.24 52.39 19.72 52.13 19.06 51.81C18.85 51.71 18.62 51.59 18.39 51.48C18.17 51.37 17.95 51.26 17.73 51.16C17.12 50.86 16.56 50.59 16.28 50.45C16.16 50.39 16.1 50.36 16.1 50.36L16.11 50.37Z" fill="#FFD675"/>
<path opacity="0.2" d="M18.4 51.49L22.47 48.84C22.81 48.87 23.11 48.9 23.37 48.93L19.07 51.82C18.86 51.72 18.63 51.6 18.4 51.49Z" fill="white"/>
<path opacity="0.2" d="M16.29 50.46L19.43 48.74C20.17 48.72 20.9 48.74 21.55 48.77L17.74 51.17C17.13 50.87 16.57 50.6 16.29 50.46Z" fill="white"/>
<path d="M28.37 34.8999L28.51 33.9399L28.03 34.7899L28.37 34.8999Z" fill="#333333"/>
<path d="M26.47 34.8999L26.61 33.9399L26.13 34.7899L26.47 34.8999Z" fill="#333333"/>
<path d="M24.57 34.8999L24.71 33.9399L24.23 34.7899L24.57 34.8999Z" fill="#333333"/>
<path d="M30.75 31.7899L30.89 30.8199L30.41 31.6799L30.75 31.7899Z" fill="#333333"/>
<path d="M28.85 31.7899L28.99 30.8199L28.51 31.6799L28.85 31.7899Z" fill="#333333"/>
<path d="M26.95 31.7899L27.08 30.8199L26.61 31.6799L26.95 31.7899Z" fill="#333333"/>
<path d="M30.17 28.6499L30.31 27.6899L29.83 28.5399L30.17 28.6499Z" fill="#333333"/>
<path d="M28.27 28.6499L28.41 27.6899L27.93 28.5399L28.27 28.6499Z" fill="#333333"/>
<path d="M26.23 28.73C26.32 28.51 26.41 28.3 26.49 28.11H26.52L26.42 28.79L26.23 28.73Z" fill="#333333"/>
<path d="M25.05 40.33L25.19 39.37L24.71 40.22L25.05 40.33Z" fill="#333333"/>
<path d="M26.95 40.72L27.08 39.76L26.61 40.61L26.95 40.72Z" fill="#333333"/>
<path d="M28.72 40.37L28.99 39.9L28.94 40.25C28.87 40.29 28.8 40.33 28.72 40.37Z" fill="#333333"/>
<path d="M30.31 26.7L30.56 26.62L30.54 26.77L30.31 26.7Z" fill="#333333"/>
<path d="M30.7 38.04L30.84 37.08L30.36 37.93L30.7 38.04Z" fill="#333333"/>
<path d="M28.59 38.04L28.73 37.08L28.25 37.93L28.59 38.04Z" fill="#333333"/>
<path d="M26.69 38.04L26.82 37.08L26.35 37.93L26.69 38.04Z" fill="#333333"/>
<path d="M24.79 38.04L24.92 37.08L24.45 37.93L24.79 38.04Z" fill="#333333"/>
<path d="M22.84 39.83L22.97 38.86L22.5 39.71L22.84 39.83Z" fill="#333333"/>
<path d="M30.49 34.8999L30.63 33.9399L30.15 34.7899L30.49 34.8999Z" fill="#333333"/>
<path d="M11.67 34.8999L11.53 33.9399L12.01 34.7899L11.67 34.8999Z" fill="#333333"/>
<path d="M13.57 34.8999L13.43 33.9399L13.91 34.7899L13.57 34.8999Z" fill="#333333"/>
<path d="M15.47 34.8999L15.33 33.9399L15.81 34.7899L15.47 34.8999Z" fill="#333333"/>
<path d="M14.99 40.33L14.86 39.37L15.33 40.22L14.99 40.33Z" fill="#333333"/>
<path d="M13.09 40.72L12.96 39.76L13.43 40.61L13.09 40.72Z" fill="#333333"/>
<path d="M11.32 40.37L11.05 39.9L11.1 40.25C11.17 40.29 11.24 40.33 11.32 40.37Z" fill="#333333"/>
<path d="M9.34001 38.04L9.20001 37.08L9.68001 37.93L9.34001 38.04Z" fill="#333333"/>
<path d="M11.45 38.04L11.32 37.08L11.79 37.93L11.45 38.04Z" fill="#333333"/>
<path d="M13.35 38.04L13.22 37.08L13.69 37.93L13.35 38.04Z" fill="#333333"/>
<path d="M15.26 38.04L15.12 37.08L15.59 37.93L15.26 38.04Z" fill="#333333"/>
<path d="M17.2 39.83L17.07 38.86L17.54 39.71L17.2 39.83Z" fill="#333333"/>
<path d="M9.54998 34.8999L9.41998 33.9399L9.88998 34.7899L9.54998 34.8999Z" fill="#333333"/>
<path d="M20.19 37.88L20.73 38.3C23.25 40.25 23.25 40.72 23.24 41.06C23.24 41.59 22.98 42.1 22.53 42.46C22.4 42.57 22.25 42.65 22.09 42.73L23.1 44.41H17.35L18.36 42.72C18.2 42.65 18.06 42.56 17.92 42.45C17.47 42.09 17.21 41.58 17.21 41.05C17.21 40.7 17.21 40.31 19.65 38.32L20.18 37.89L20.19 37.88Z" fill="#9C9C9C"/>
<path d="M21.9 43.9H18.55L19.02 42.7L21.29 42.7099L21.9 43.9Z" fill="#EBBE9F"/>
<g style="mix-blend-mode:color-burn" opacity="0.2">
<path d="M21.05 43.1H19.25V43.45H21.05V43.1Z" fill="#616161"/>
</g>
<path d="M19.54 51.26C19.54 51.41 20.21 52.07 20.21 52.07C20.21 52.07 20.86 51.39 20.86 51.26C20.86 51.04 20.68 50.86 20.46 50.86C20.38 50.86 20.31 50.88 20.25 50.92L20.5 50.49H19.89L20.14 50.92C20.08 50.88 20.01 50.86 19.93 50.86C19.71 50.86 19.53 51.04 19.53 51.26H19.54Z" fill="#333333"/>
<g style="mix-blend-mode:color-burn" opacity="0.2">
<path d="M17.88 34.37C17.93 34.89 20.19 36.86 20.19 36.86C20.19 36.86 22.41 34.82 22.45 34.38C22.52 33.6 21.93 32.92 21.12 32.92C20.84 32.92 20.58 33 20.36 33.14L21.35 31.4H18.98L19.97 33.14C19.75 33 19.49 32.92 19.21 32.92C18.4 32.92 17.81 33.59 17.88 34.37Z" fill="#616161"/>
</g>
<path d="M18.12 34.36C18.12 34.83 20.18 36.86 20.18 36.86C20.18 36.86 22.18 34.77 22.19 34.37C22.19 33.69 21.64 33.14 20.96 33.14C20.73 33.14 20.51 33.2 20.33 33.32L21.1 32.01H19.23L20 33.32C19.82 33.21 19.6 33.14 19.37 33.14C18.69 33.14 18.14 33.69 18.14 34.37L18.12 34.36Z" fill="#FFD675"/>
<g style="mix-blend-mode:color-burn" opacity="0.2">
<path d="M20.34 32.42L20.15 32.74L19.96 32.42H20.34ZM20.54 33.67C20.66 33.6 20.8 33.56 20.95 33.56C21.38 33.56 21.73 33.9 21.75 34.32C21.63 34.59 20.9 35.45 20.17 36.23C19.41 35.46 18.65 34.59 18.55 34.32C18.55 34.12 18.64 33.93 18.78 33.79C18.93 33.64 19.13 33.56 19.35 33.56C19.49 33.56 19.64 33.6 19.76 33.68H20.54V33.67Z" fill="#616161"/>
</g>
<g style="mix-blend-mode:color-burn" opacity="0.2">
<path d="M8.91998 38.9C8.91998 38.9 9.86998 39.44 11.09 40.14L11.11 40.25C11.18 40.29 11.25 40.33 11.33 40.37L11.25 40.22C12.91 41.16 15 42.36 15.96 42.9C15.99 42.92 16.02 42.93 16.05 42.95L15.88 45.04L15.96 46.07V46.11L16.19 49.15C16.17 49.15 16.14 49.15 16.12 49.17V50.37C16.12 50.37 16.19 50.4 16.3 50.46C16.58 50.6 17.14 50.87 17.75 51.17C17.97 51.28 18.19 51.38 18.41 51.49C18.64 51.6 18.87 51.71 19.08 51.82C19.74 52.15 20.26 52.4 20.26 52.41C20.26 52.41 20.28 52.4 20.31 52.38V29.66L16 30.96L15.96 30.82L13.54 31.7L8.85999 33.11V38.62L8.93998 38.91L8.91998 38.9Z" fill="#616161"/>
</g>
</svg>
