<svg width="40" height="56" viewBox="0 0 40 56" fill="none" xmlns="http://www.w3.org/2000/svg">
<path d="M5.04997 55.59C2.72997 55.59 0.839966 53.74 0.839966 51.47L0.719971 4.88999C0.719971 2.59999 2.59996 0.73999 4.92996 0.73999L35.71 0.79999C38.03 0.79999 39.91 2.66999 39.94 4.95999V51.44C39.91 53.71 38.03 55.56 35.73 55.56L5.05997 55.6L5.04997 55.59Z" fill="#C9C9C9"/>
<path d="M5.46007 55.48C3.18007 55.48 1.31006 53.63 1.31006 51.35V4.88C1.31006 2.6 3.17007 0.75 5.46007 0.75H35.7901C38.0801 0.75 39.9401 2.6 39.9401 4.88V51.35C39.9401 53.63 38.0801 55.48 35.7901 55.48H5.46007Z" fill="white"/>
<path d="M33.51 48.09H34.79V50.19H35.57C35.61 50.14 35.66 50 35.72 49.78C35.85 49.24 36.01 48.81 36.2 48.48C36.28 48.34 36.37 48.23 36.47 48.14C36.6 48.04 36.73 47.98 36.87 47.98C36.96 47.98 37.07 48.01 37.18 48.08C37.32 48.16 37.39 48.26 37.39 48.38C37.39 48.44 37.37 48.48 37.33 48.52C37.29 48.56 37.24 48.58 37.19 48.58C37.07 48.58 37.01 48.52 37 48.39C37 48.26 36.94 48.2 36.85 48.2C36.63 48.2 36.49 48.31 36.41 48.53C36.36 48.68 36.33 48.89 36.33 49.16C36.33 49.32 36.33 49.51 36.36 49.73C36.38 49.94 36.4 50.17 36.42 50.4C36.42 50.67 36.37 50.92 36.26 51.15C36.17 51.34 36.03 51.53 35.84 51.73C35.73 51.85 35.55 52.02 35.3 52.23L35.34 52.3H36.47C36.54 52.3 36.61 52.3 36.67 52.28C36.79 52.24 36.9 52.21 37.01 52.17V52.24C36.96 52.32 36.93 52.38 36.9 52.41C36.82 52.53 36.78 52.59 36.76 52.59C36.75 52.59 36.72 52.58 36.67 52.55C36.62 52.53 36.58 52.51 36.53 52.51H33.49V48.08L33.51 48.09ZM34.83 50.52V52.21C34.95 52.18 35.06 52.06 35.18 51.84C35.22 51.76 35.27 51.65 35.33 51.51C35.37 51.41 35.41 51.29 35.44 51.15C35.51 50.86 35.54 50.71 35.55 50.71V50.52H34.84H34.83Z" fill="#333333"/>
<path d="M8.40001 8.65001H7.12001V6.55001H6.34001C6.30001 6.60001 6.25002 6.74001 6.19002 6.96001C6.06002 7.50001 5.90002 7.93001 5.71002 8.26002C5.64002 8.40002 5.54002 8.51002 5.44002 8.60002C5.31002 8.70002 5.18001 8.76002 5.03001 8.76002C4.94001 8.76002 4.83002 8.73001 4.72002 8.66001C4.58002 8.58001 4.51001 8.48001 4.51001 8.36001C4.51001 8.30001 4.53002 8.26002 4.57002 8.22002C4.61002 8.18002 4.66001 8.16001 4.70001 8.16001C4.82001 8.16001 4.88001 8.22002 4.89001 8.35002C4.90001 8.48002 4.95001 8.54001 5.04001 8.54001C5.26001 8.54001 5.41002 8.43001 5.49002 8.21001C5.54002 8.07001 5.57002 7.86001 5.57002 7.58001C5.57002 7.42001 5.56001 7.23002 5.54001 7.01002C5.52001 6.80002 5.50001 6.57001 5.48001 6.34001C5.48001 6.07001 5.53001 5.82001 5.64001 5.59001C5.73001 5.40001 5.87002 5.21002 6.05002 5.01002C6.16002 4.89002 6.34001 4.72002 6.59001 4.51002L6.55002 4.44001H5.42001C5.35001 4.44001 5.28002 4.44001 5.22002 4.46001C5.10002 4.50001 4.99002 4.53001 4.88002 4.57001V4.50001C4.93002 4.42001 4.97002 4.36001 4.99002 4.32001C5.07002 4.20001 5.11002 4.14001 5.13002 4.14001C5.14002 4.14001 5.17002 4.15001 5.22002 4.18001C5.27002 4.20001 5.32002 4.22001 5.36002 4.22001H8.40001V8.65001ZM7.08002 6.22001V4.53001C6.97002 4.56001 6.85001 4.68001 6.73001 4.90001C6.68001 4.98001 6.63002 5.09001 6.58002 5.23001C6.54002 5.33001 6.50002 5.45001 6.47002 5.59001C6.40002 5.88001 6.37002 6.03001 6.36002 6.03001V6.22001H7.07002H7.08002Z" fill="#333333"/>
<path d="M24.8001 23.81C24.8701 23.46 24.9201 23.1 24.9201 22.73C24.9201 20.06 22.7501 17.89 20.0801 17.89C17.4001 17.89 15.2401 20.05 15.2401 22.73C15.2401 23.31 15.3401 23.86 15.5301 24.36C13.1701 24.55 11.3201 26.52 11.3101 28.92C11.3101 31.45 13.3601 33.49 15.8901 33.49C16.5601 33.49 18.9601 32.75 19.4701 32.45L16.3701 37.77H23.9301L20.8301 32.45C21.4501 32.83 24.0901 33.49 24.7301 33.49C27.4101 33.49 29.5801 31.32 29.5701 28.64C29.5701 26 27.4401 23.85 24.8101 23.81H24.8001Z" fill="#333333"/>
<g style="mix-blend-mode:color-burn" opacity="0.2">
<path d="M24.8001 23.81C24.8701 23.46 24.9201 23.1 24.9201 22.73C24.9201 20.06 22.7501 17.89 20.0801 17.89C20.0801 17.89 20.0701 17.89 20.0601 17.89V37.76H23.9201L20.8201 32.44C21.4401 32.82 24.0801 33.48 24.7201 33.48C27.4001 33.48 29.5701 31.31 29.5601 28.63C29.5601 25.99 27.4301 23.84 24.8001 23.8V23.81Z" fill="#616161"/>
</g>
<path d="M7.32001 11.16C7.32001 11.16 7.33 11.08 7.33 11.04C7.33 10.75 7.1 10.52 6.81 10.52C6.52 10.52 6.28999 10.75 6.28999 11.04C6.28999 11.1 6.30001 11.16 6.32001 11.22C6.07001 11.24 5.87 11.45 5.87 11.71C5.87 11.97 6.09 12.2 6.36 12.2C6.43 12.2 6.69001 12.12 6.74001 12.09L6.41 12.66H7.22L6.88 12.09C6.95 12.13 7.23 12.2 7.3 12.2C7.59 12.2 7.82001 11.97 7.82001 11.68C7.82001 11.39 7.59 11.16 7.31 11.16H7.32001Z" fill="#333333"/>
<g style="mix-blend-mode:color-burn" opacity="0.2">
<path d="M7.32007 11.16C7.32007 11.16 7.33006 11.08 7.33006 11.04C7.33006 10.75 7.10006 10.52 6.81006 10.52V12.66H7.23006L6.89006 12.09C6.96006 12.13 7.24006 12.2 7.31006 12.2C7.60006 12.2 7.83006 11.97 7.83006 11.68C7.83006 11.39 7.60007 11.16 7.32007 11.16Z" fill="#616161"/>
</g>
<path d="M35.57 45.6799C35.57 45.6799 35.58 45.7599 35.58 45.7999C35.58 46.0899 35.35 46.3199 35.06 46.3199C34.77 46.3199 34.54 46.0899 34.54 45.7999C34.54 45.7399 34.54 45.6799 34.57 45.6299C34.32 45.6099 34.12 45.3999 34.12 45.1399C34.12 44.8699 34.34 44.6499 34.61 44.6499C34.68 44.6499 34.94 44.7299 34.99 44.7599L34.66 44.1899H35.47L35.13 44.7599C35.2 44.7199 35.48 44.6499 35.55 44.6499C35.84 44.6499 36.07 44.8799 36.07 45.1699C36.07 45.4599 35.84 45.6899 35.56 45.6899L35.57 45.6799Z" fill="#333333"/>
<g style="mix-blend-mode:color-burn" opacity="0.2">
<path d="M35.5701 45.6801C35.5701 45.6801 35.5801 45.7601 35.5801 45.8001C35.5801 46.0901 35.3501 46.3201 35.0601 46.3201V44.1801H35.4801L35.1401 44.7501C35.2101 44.7101 35.4901 44.6401 35.5601 44.6401C35.8501 44.6401 36.0801 44.8701 36.0801 45.1601C36.0801 45.4501 35.8501 45.6801 35.5701 45.6801Z" fill="#616161"/>
</g>
</svg>
