<svg width="40" height="56" viewBox="0 0 40 56" fill="none" xmlns="http://www.w3.org/2000/svg">
<path d="M5.05998 55.78C2.73998 55.78 0.849991 53.93 0.849991 51.65L0.72998 5.08C0.72998 2.79 2.60999 0.929993 4.93999 0.929993L35.72 0.990005C38.04 0.990005 39.92 2.85999 39.92 5.14999V51.62C39.92 53.89 38.04 55.74 35.74 55.75L5.06999 55.79L5.05998 55.78Z" fill="#C9C9C9"/>
<path d="M5.44005 55.66C3.15005 55.66 1.29004 53.81 1.29004 51.53V5.07001C1.29004 2.79001 3.15005 0.940002 5.44005 0.940002H35.7701C38.0601 0.940002 39.92 2.80001 39.92 5.07001V51.53C39.92 53.81 38.0601 55.66 35.7701 55.66H5.44005Z" fill="white"/>
<path d="M33.52 48.27H34.8V50.37H35.58C35.62 50.32 35.67 50.18 35.73 49.96C35.86 49.42 36.02 48.99 36.21 48.66C36.29 48.52 36.38 48.41 36.48 48.32C36.61 48.21 36.74 48.16 36.88 48.16C36.98 48.16 37.08 48.19 37.19 48.26C37.33 48.34 37.4 48.45 37.4 48.56C37.4 48.62 37.38 48.66 37.34 48.7C37.3 48.74 37.25 48.76 37.21 48.76C37.09 48.76 37.03 48.7 37.02 48.57C37.01 48.44 36.96 48.38 36.87 48.38C36.65 48.38 36.51 48.49 36.43 48.71C36.38 48.86 36.35 49.06 36.35 49.34C36.35 49.51 36.35 49.69 36.38 49.9C36.4 50.11 36.42 50.34 36.44 50.57C36.44 50.84 36.39 51.09 36.28 51.32C36.19 51.51 36.05 51.7 35.87 51.9C35.76 52.02 35.58 52.19 35.33 52.4L35.37 52.47H36.5C36.57 52.47 36.64 52.47 36.7 52.45C36.82 52.41 36.93 52.38 37.04 52.34V52.41C36.99 52.49 36.96 52.55 36.93 52.58C36.85 52.7 36.81 52.76 36.79 52.76C36.78 52.76 36.75 52.75 36.7 52.72C36.65 52.69 36.6 52.68 36.56 52.68H33.52V48.25V48.27ZM34.84 50.7V52.39C34.96 52.36 35.07 52.24 35.19 52.02C35.23 51.94 35.28 51.83 35.34 51.69C35.38 51.59 35.42 51.47 35.45 51.33C35.52 51.04 35.55 50.89 35.56 50.88V50.69H34.85L34.84 50.7Z" fill="#333333"/>
<path d="M6.85004 13.38L5.66003 11.88L6.85004 10.37L8.04002 11.88L6.85004 13.38Z" fill="#D66142"/>
<g style="mix-blend-mode:color-burn" opacity="0.2">
<path d="M6.84998 10.37L6.83997 10.38V13.37L6.84998 13.38L8.03996 11.88L6.84998 10.37Z" fill="#616161"/>
</g>
<path d="M8.41003 8.82997H7.13004V6.72997H6.35004C6.31004 6.77997 6.26003 6.91997 6.20003 7.13997C6.07003 7.67997 5.91003 8.10997 5.72003 8.43997C5.64003 8.57997 5.55003 8.68997 5.45003 8.77997C5.32003 8.87997 5.19003 8.93997 5.05003 8.93997C4.95003 8.93997 4.85004 8.90997 4.74004 8.83997C4.60004 8.75997 4.53003 8.65996 4.53003 8.53996C4.53003 8.47996 4.55003 8.43996 4.59003 8.39996C4.63003 8.35996 4.68003 8.33997 4.72003 8.33997C4.84003 8.33997 4.90003 8.40997 4.91003 8.52997C4.91003 8.65997 4.97003 8.71997 5.06003 8.71997C5.28003 8.71997 5.42003 8.60997 5.50003 8.38997C5.55003 8.24997 5.58003 8.03996 5.58003 7.75996C5.58003 7.59996 5.58003 7.40997 5.55003 7.19997C5.53003 6.98997 5.51004 6.75997 5.49004 6.52997C5.49004 6.25997 5.54002 6.00997 5.65002 5.77997C5.74002 5.58997 5.88003 5.39997 6.06003 5.19997C6.17003 5.07997 6.35004 4.90997 6.60004 4.69997L6.56003 4.62997H5.43002C5.36002 4.62997 5.29003 4.62996 5.23003 4.64996C5.11003 4.68996 5.00003 4.71996 4.89003 4.75996V4.68997C4.94003 4.60997 4.97003 4.54997 5.00003 4.51997C5.08003 4.39997 5.12003 4.33997 5.14003 4.33997C5.15003 4.33997 5.18003 4.34997 5.23003 4.37997C5.28003 4.40997 5.32003 4.41997 5.37003 4.41997H8.41003V8.84998V8.82997ZM7.09003 6.39996V4.70998C6.97003 4.73998 6.86004 4.85997 6.74004 5.07997C6.70004 5.15997 6.65003 5.26997 6.59003 5.40997C6.55003 5.50997 6.51003 5.62997 6.48003 5.76997C6.41003 6.05997 6.38003 6.20997 6.37003 6.21997V6.40997H7.08003L7.09003 6.39996Z" fill="#333333"/>
<path d="M35.09 43.73L36.28 45.23L35.09 46.73L33.89 45.23L35.09 43.73Z" fill="#D66142"/>
<g style="mix-blend-mode:color-burn" opacity="0.2">
<path d="M35.09 43.74V43.73L33.89 45.23L35.09 46.73V46.72V43.74Z" fill="#616161"/>
</g>
<path d="M20.6099 17.97L12.4299 28.29L20.6099 38.63L28.7899 28.29L20.6099 17.97Z" fill="#D66142"/>
<g style="mix-blend-mode:color-burn" opacity="0.2">
<path d="M20.5601 18.04L20.6101 17.97L28.7901 28.29L20.6101 38.63L20.5601 38.56V18.04Z" fill="#616161"/>
</g>
</svg>
