<svg width="40" height="56" viewBox="0 0 40 56" fill="none" xmlns="http://www.w3.org/2000/svg">
<path d="M5.05998 55.66C2.73998 55.66 0.849991 53.81 0.849991 51.54L0.72998 4.95998C0.72998 2.66998 2.60999 0.799976 4.93999 0.809976L35.72 0.869982C38.04 0.869982 39.92 2.73998 39.92 5.02998V51.5C39.92 53.77 38.04 55.62 35.73 55.62L5.05998 55.66Z" fill="#C9C9C9"/>
<path d="M5.45004 55.5401C3.16004 55.5401 1.30005 53.6801 1.30005 51.4101V4.94006C1.30005 2.66006 3.16004 0.810059 5.45004 0.810059H35.78C38.07 0.810059 39.93 2.66006 39.93 4.94006V51.4101C39.93 53.6901 38.07 55.5401 35.78 55.5401H5.45004Z" fill="white"/>
<path d="M33.52 48.15H34.8V50.25H35.58C35.62 50.2 35.67 50.06 35.73 49.84C35.86 49.3 36.02 48.87 36.21 48.54C36.29 48.4 36.38 48.29 36.48 48.2C36.61 48.1 36.74 48.04 36.88 48.04C36.97 48.04 37.08 48.07 37.19 48.14C37.33 48.23 37.4 48.32 37.4 48.44C37.4 48.5 37.38 48.54 37.34 48.58C37.3 48.62 37.25 48.64 37.2 48.64C37.08 48.64 37.02 48.58 37.01 48.45C37.01 48.32 36.96 48.26 36.86 48.26C36.64 48.26 36.5 48.37 36.42 48.59C36.37 48.73 36.34 48.94 36.34 49.22C36.34 49.39 36.34 49.57 36.37 49.78C36.39 49.99 36.41 50.22 36.42 50.45C36.42 50.72 36.37 50.97 36.26 51.2C36.17 51.39 36.04 51.58 35.85 51.78C35.74 51.9 35.56 52.07 35.31 52.28L35.35 52.35H36.48C36.55 52.35 36.62 52.35 36.68 52.33C36.8 52.29 36.91 52.26 37.03 52.22V52.29C36.98 52.37 36.94 52.43 36.92 52.46C36.84 52.58 36.8 52.64 36.78 52.64C36.77 52.64 36.74 52.63 36.69 52.6C36.64 52.58 36.59 52.56 36.55 52.56H33.51V48.13L33.52 48.15ZM34.84 50.58V52.27C34.96 52.24 35.08 52.12 35.19 51.9C35.23 51.82 35.28 51.71 35.34 51.57C35.38 51.46 35.42 51.34 35.45 51.21C35.52 50.92 35.56 50.77 35.56 50.77V50.58H34.84Z" fill="#333333"/>
<path d="M8.41003 8.70997H7.13004V6.60997H6.35004C6.31004 6.65997 6.25003 6.79997 6.20003 7.01997C6.07003 7.55997 5.91003 7.98997 5.72003 8.31997C5.64003 8.45997 5.55003 8.56997 5.45003 8.65997C5.32003 8.75997 5.19003 8.81997 5.05003 8.81997C4.95003 8.81997 4.85004 8.77997 4.74004 8.71997C4.60004 8.63997 4.53003 8.53997 4.53003 8.41997C4.53003 8.35997 4.55003 8.31997 4.59003 8.27997C4.63003 8.23997 4.68003 8.21997 4.73003 8.21997C4.85003 8.21997 4.91003 8.27997 4.92003 8.40997C4.92003 8.53997 4.98004 8.59997 5.07004 8.59997C5.29004 8.59997 5.44003 8.48997 5.51003 8.26997C5.56003 8.12997 5.59003 7.91997 5.59003 7.63997C5.59003 7.47997 5.58003 7.28997 5.56003 7.07997C5.54003 6.86997 5.52003 6.63997 5.50003 6.40997C5.50003 6.13997 5.56003 5.88997 5.66003 5.65997C5.75003 5.46997 5.89004 5.27997 6.07004 5.07997C6.18004 4.95997 6.36004 4.78997 6.60004 4.57997L6.56003 4.50997H5.43002C5.36002 4.50997 5.29003 4.50997 5.23003 4.52997C5.11003 4.56997 5.00003 4.59997 4.89003 4.63997V4.56997C4.94003 4.48997 4.97003 4.42997 5.00003 4.39997C5.08003 4.27997 5.12003 4.21997 5.14003 4.21997C5.15003 4.21997 5.18003 4.22997 5.23003 4.25997C5.28003 4.27997 5.32003 4.29997 5.37003 4.29997H8.41003V8.72997V8.70997ZM7.09003 6.27997V4.58997C6.97003 4.61997 6.86004 4.74997 6.74004 4.95997C6.69004 5.03997 6.64003 5.14997 6.59003 5.28997C6.55003 5.38997 6.51003 5.50997 6.48003 5.64997C6.42003 5.93997 6.38003 6.08997 6.37003 6.08997V6.27997H7.09003Z" fill="#333333"/>
<g style="mix-blend-mode:color-burn" opacity="0.2">
<path d="M29.26 28.33C29.26 26.34 20.62 17.85 20.62 17.85C20.62 17.85 20.61 17.86 20.6 17.87V38.27H24.63L21.41 32.75C22.18 33.22 23.1 33.49 24.07 33.5C26.92 33.5 29.25 31.2 29.25 28.34L29.26 28.33Z" fill="#616161"/>
</g>
<g style="mix-blend-mode:color-burn" opacity="0.2">
<path d="M7.98 11.66C7.98 11.41 6.88 10.3199 6.88 10.3199V12.9199H7.39L6.98 12.2199C7.08 12.2799 7.19001 12.3199 7.32001 12.3199C7.69001 12.3199 7.98 12.03 7.98 11.66Z" fill="#616161"/>
</g>
<g style="mix-blend-mode:color-burn" opacity="0.2">
<path d="M34.01 45.27C34.01 45.52 35.11 46.61 35.11 46.61V44.01H34.6L35.01 44.71C34.91 44.65 34.8 44.62 34.67 44.62C34.31 44.62 34.01 44.91 34.01 45.28V45.27Z" fill="#616161"/>
</g>
<path d="M29.36 26.35C29.13 30.66 20.4799 37.22 20.4799 37.22C20.4799 37.22 11.58 30.61 11.58 26.29C11.58 23.32 14.0099 20.92 16.9799 20.92C18.6499 20.92 20.5099 22.42 20.5099 22.42C20.5099 22.42 22.28 20.92 23.99 20.94C26.97 20.98 29.52 23.37 29.36 26.34V26.35Z" fill="#D66142"/>
<g style="mix-blend-mode:color-burn" opacity="0.2">
<path d="M23.99 20.95C22.27 20.92 20.5099 22.43 20.5099 22.43C20.5099 22.43 20.48 22.41 20.45 22.38V37.2L20.4799 37.22C20.4799 37.22 29.13 30.66 29.36 26.35C29.52 23.37 26.96 20.98 23.99 20.95Z" fill="#616161"/>
</g>
<path d="M7.97 11.45C7.93 12.11 6.61 13.11 6.61 13.11C6.61 13.11 5.25 12.1 5.25 11.44C5.25 10.99 5.62 10.62 6.08 10.62C6.33 10.62 6.62 10.85 6.62 10.85C6.62 10.85 6.89 10.62 7.16 10.63C7.61 10.63 8 11 7.98 11.46L7.97 11.45Z" fill="#D66142"/>
<g style="mix-blend-mode:color-burn" opacity="0.2">
<path d="M7.14998 10.63C6.88998 10.63 6.60999 10.85 6.60999 10.85V13.12C6.60999 13.12 7.92999 12.12 7.96999 11.46C7.98999 11 7.59998 10.64 7.14998 10.63Z" fill="#616161"/>
</g>
<path d="M33.42 45.58C33.46 44.91 34.81 43.88 34.81 43.88C34.81 43.88 36.2 44.91 36.2 45.59C36.2 46.05 35.82 46.43 35.36 46.43C35.1 46.43 34.81 46.2 34.81 46.2C34.81 46.2 34.5301 46.43 34.2701 46.43C33.8101 46.43 33.41 46.05 33.43 45.59L33.42 45.58Z" fill="#D66142"/>
<g style="mix-blend-mode:color-burn" opacity="0.2">
<path d="M34.26 46.42C34.53 46.42 34.8 46.19 34.8 46.19V43.88C34.8 43.88 33.45 44.9 33.41 45.58C33.39 46.04 33.78 46.42 34.25 46.42H34.26Z" fill="#616161"/>
</g>
</svg>
