<svg width="40" height="56" viewBox="0 0 40 56" fill="none" xmlns="http://www.w3.org/2000/svg">
<path d="M5.05998 55.72C2.73998 55.72 0.849991 53.87 0.849991 51.6L0.72998 5.03004C0.72998 2.74004 2.60999 0.870045 4.93999 0.880045L35.72 0.940042C38.04 0.940042 39.92 2.81005 39.92 5.10005V51.58C39.92 53.85 38.04 55.7 35.73 55.7L5.05998 55.74V55.72Z" fill="#C9C9C9"/>
<path d="M5.44005 55.6C3.15005 55.6 1.29004 53.75 1.29004 51.47V5.00999C1.29004 2.72999 3.15005 0.880005 5.44005 0.880005H35.7701C38.0601 0.880005 39.92 2.72999 39.92 5.00999V51.47C39.92 53.75 38.0601 55.6 35.7701 55.6H5.44005Z" fill="white"/>
<path d="M33.52 48.21H34.8V50.31H35.58C35.62 50.26 35.67 50.12 35.73 49.9C35.86 49.36 36.02 48.93 36.21 48.59C36.29 48.45 36.38 48.34 36.48 48.26C36.61 48.16 36.74 48.1 36.88 48.1C36.98 48.1 37.08 48.13 37.19 48.2C37.33 48.28 37.4 48.39 37.4 48.5C37.4 48.55 37.38 48.6 37.34 48.64C37.3 48.68 37.25 48.7 37.2 48.7C37.08 48.7 37.02 48.64 37.01 48.51C37.01 48.38 36.95 48.32 36.86 48.32C36.65 48.32 36.5 48.43 36.42 48.65C36.37 48.8 36.34 49 36.34 49.28C36.34 49.45 36.34 49.63 36.37 49.84C36.39 50.05 36.41 50.28 36.43 50.51C36.43 50.78 36.38 51.03 36.27 51.26C36.18 51.45 36.04 51.64 35.86 51.84C35.75 51.96 35.57 52.13 35.32 52.34L35.36 52.41H36.49C36.56 52.41 36.63 52.41 36.69 52.39C36.81 52.35 36.92 52.32 37.03 52.28V52.35C36.98 52.43 36.95 52.49 36.92 52.52C36.84 52.64 36.8 52.7 36.78 52.7C36.77 52.7 36.74 52.68 36.69 52.66C36.64 52.63 36.6 52.62 36.55 52.62H33.51V48.19L33.52 48.21ZM34.84 50.64V52.33C34.96 52.3 35.07 52.18 35.19 51.96C35.24 51.88 35.28 51.77 35.34 51.63C35.38 51.53 35.42 51.41 35.45 51.27C35.52 50.98 35.56 50.83 35.56 50.83V50.64H34.84Z" fill="#333333"/>
<path d="M8.41003 8.77003H7.13004V6.67003H6.35004C6.31004 6.72003 6.26003 6.86003 6.20003 7.08003C6.07003 7.62003 5.91003 8.05004 5.72003 8.38004C5.65003 8.52004 5.55003 8.63003 5.45003 8.72003C5.32003 8.82003 5.19003 8.88004 5.05003 8.88004C4.95003 8.88004 4.85004 8.85003 4.74004 8.78003C4.60004 8.70003 4.53003 8.60003 4.53003 8.48003C4.53003 8.43003 4.55003 8.38003 4.59003 8.34003C4.63003 8.30003 4.68003 8.28003 4.72003 8.28003C4.84003 8.28003 4.90003 8.34003 4.91003 8.47003C4.91003 8.60003 4.97003 8.66003 5.06003 8.66003C5.28003 8.66003 5.42003 8.55003 5.51003 8.33003C5.56003 8.19003 5.59003 7.97003 5.59003 7.70003C5.59003 7.54003 5.59003 7.35003 5.56003 7.14003C5.54003 6.93003 5.52003 6.70003 5.50003 6.47003C5.50003 6.20003 5.55003 5.95003 5.66003 5.72003C5.75003 5.53003 5.89004 5.34003 6.07004 5.14003C6.18004 5.02003 6.36004 4.85003 6.60004 4.64003L6.56003 4.57004H5.43002C5.36002 4.57004 5.29003 4.57003 5.23003 4.59003C5.11003 4.63003 5.00003 4.66003 4.89003 4.70003V4.63004C4.94003 4.55004 4.97003 4.49004 5.00003 4.46004C5.08003 4.34004 5.12003 4.28003 5.14003 4.28003C5.15003 4.28003 5.18003 4.29003 5.23003 4.31003C5.28003 4.34003 5.33003 4.35004 5.37003 4.35004H8.41003V8.78003V8.77003ZM7.09003 6.34003V4.65002C6.97003 4.68002 6.86004 4.81003 6.74004 5.02003C6.70004 5.10003 6.65003 5.21004 6.59003 5.35004C6.55003 5.45004 6.51003 5.57004 6.48003 5.71004C6.41003 6.00004 6.38003 6.15002 6.37003 6.15002V6.34003H7.08003H7.09003Z" fill="#333333"/>
<path d="M29.2599 28.39C29.2599 26.4 20.6199 17.91 20.6199 17.91C20.6199 17.91 12.1899 26.67 12.1899 28.36C12.1899 31.21 14.4899 33.53 17.3499 33.54C18.3299 33.54 19.2399 33.28 20.0199 32.81L16.7799 38.33H24.6399L21.4199 32.81C22.1899 33.28 23.0999 33.56 24.0799 33.56C26.9299 33.56 29.2599 31.26 29.2599 28.4V28.39Z" fill="#333333"/>
<g style="mix-blend-mode:color-burn" opacity="0.2">
<path d="M29.26 28.39C29.26 26.4 20.62 17.91 20.62 17.91C20.62 17.91 20.62 17.91 20.6 17.93V38.33H24.63L21.41 32.81C22.18 33.28 23.09 33.56 24.07 33.56C26.92 33.56 29.25 31.26 29.25 28.4L29.26 28.39Z" fill="#616161"/>
</g>
<path d="M7.98004 11.72C7.98004 11.47 6.88005 10.38 6.88005 10.38C6.88005 10.38 5.80005 11.5 5.80005 11.71C5.80005 12.08 6.09005 12.37 6.46005 12.37C6.58005 12.37 6.70005 12.34 6.80005 12.28L6.39005 12.98H7.39005L6.98004 12.28C7.08004 12.34 7.20005 12.38 7.32005 12.38C7.69005 12.38 7.98004 12.09 7.98004 11.72Z" fill="#333333"/>
<g style="mix-blend-mode:color-burn" opacity="0.2">
<path d="M7.98 11.72C7.98 11.47 6.88 10.38 6.88 10.38V12.98H7.39L6.98 12.27C7.08 12.33 7.20001 12.37 7.32001 12.37C7.69001 12.37 7.98 12.08 7.98 11.71V11.72Z" fill="#616161"/>
</g>
<path d="M34.01 45.34C34.01 45.59 35.11 46.68 35.11 46.68C35.11 46.68 36.19 45.56 36.19 45.35C36.19 44.98 35.9 44.69 35.53 44.69C35.4 44.69 35.29 44.72 35.19 44.78L35.6 44.08H34.6L35.01 44.78C34.91 44.72 34.8 44.68 34.67 44.68C34.31 44.68 34.01 44.97 34.01 45.34Z" fill="#333333"/>
<g style="mix-blend-mode:color-burn" opacity="0.2">
<path d="M34.01 45.34C34.01 45.59 35.11 46.68 35.11 46.68V44.07H34.6L35.01 44.78C34.91 44.72 34.8 44.68 34.67 44.68C34.31 44.68 34.01 44.97 34.01 45.34Z" fill="#616161"/>
</g>
</svg>
