<svg width="41" height="57" viewBox="0 0 41 57" fill="none" xmlns="http://www.w3.org/2000/svg">
<path d="M4.86998 56.59C2.51998 56.59 0.599978 54.71 0.619978 52.4L0.499982 5.10005C0.469982 2.77005 2.37998 0.880054 4.74998 0.890054L36.01 0.950052C38.36 0.950052 40.28 2.85005 40.3 5.17005V52.37C40.27 54.68 38.37 56.56 36.02 56.56L4.86998 56.6V56.59Z" fill="#C9C9C9"/>
<path d="M5.25997 56.47C2.93997 56.47 1.04994 54.59 1.07994 52.27V5.07999C1.04994 2.76999 2.93997 0.880005 5.25997 0.880005H36.07C38.39 0.880005 40.28 2.75999 40.31 5.07999V52.27C40.28 54.59 38.39 56.47 36.07 56.47H5.25997Z" fill="white"/>
<path d="M33.75 50.22C33.82 50.03 33.94 49.81 34.11 49.55C34.33 49.2 34.51 49.03 34.65 49.03H36.51C36.51 49.03 36.56 49.02 36.59 49.01C36.62 49.01 36.66 48.98 36.71 48.96H36.82V49.11C36.74 49.18 36.67 49.25 36.61 49.33C36.4 49.61 36.13 49.95 35.82 50.35C35.59 50.64 35.43 50.88 35.32 51.05C35.16 51.32 35.07 51.53 35.07 51.7C35.07 51.8 35.09 51.91 35.13 52.02C35.17 52.14 35.23 52.23 35.3 52.31C35.34 52.35 35.42 52.4 35.53 52.47C35.67 52.55 35.78 52.59 35.85 52.59C35.97 52.59 36.13 52.51 36.33 52.35C36.53 52.19 36.65 52.11 36.68 52.11C36.76 52.11 36.8 52.15 36.8 52.21C36.8 52.27 36.71 52.41 36.54 52.6C36.37 52.79 36.2 52.94 36.05 53.04C35.83 53.18 35.71 53.26 35.69 53.27C35.5 53.38 35.34 53.43 35.21 53.43C34.95 53.43 34.71 53.33 34.49 53.12C34.27 52.91 34.16 52.67 34.16 52.39C34.16 52.11 34.23 51.87 34.39 51.64C34.41 51.6 34.53 51.45 34.73 51.18C35.01 50.8 35.18 50.57 35.23 50.5C35.46 50.2 35.57 50.04 35.57 50.03C35.57 49.97 35.53 49.94 35.46 49.93C35.39 49.92 35.32 49.91 35.26 49.91H35.01C34.65 49.91 34.39 49.96 34.22 50.05C34.09 50.16 33.96 50.26 33.83 50.36C33.81 50.36 33.8 50.36 33.78 50.35C33.76 50.35 33.75 50.34 33.74 50.33V50.22H33.75Z" fill="#333333"/>
<path d="M8.31 7.66C8.24 7.85 8.12001 8.06999 7.95001 8.32999C7.73001 8.66999 7.55 8.85001 7.41 8.85001H5.54999C5.54999 8.85001 5.5 8.85 5.47 8.87C5.44 8.87 5.40001 8.89001 5.35001 8.92001H5.23999V8.76999C5.31999 8.70999 5.38001 8.64 5.45001 8.56C5.67001 8.28 5.92999 7.94001 6.23999 7.54001C6.46999 7.25001 6.63999 7.02 6.73999 6.84C6.90999 6.57 6.98999 6.36 6.98999 6.19C6.98999 6.09 6.96999 5.98 6.92999 5.87C6.88999 5.76 6.83001 5.65999 6.76001 5.57999C6.72001 5.53999 6.64 5.49001 6.53 5.42001C6.39 5.34001 6.27999 5.29999 6.20999 5.29999C6.08999 5.29999 5.93001 5.38001 5.73001 5.54001C5.53001 5.70001 5.41 5.78 5.38 5.78C5.3 5.78 5.26001 5.74001 5.26001 5.67001C5.26001 5.60001 5.34999 5.47 5.51999 5.28C5.69999 5.09 5.86001 4.94 6.01001 4.84C6.23001 4.7 6.35 4.61999 6.37 4.60999C6.56 4.49999 6.72001 4.45001 6.85001 4.45001C7.11001 4.45001 7.35001 4.56001 7.57001 4.76001C7.79001 4.97001 7.89999 5.20999 7.89999 5.48999C7.89999 5.76999 7.82001 6.00999 7.67001 6.23999C7.65001 6.27999 7.53 6.43001 7.34 6.70001C7.06 7.08001 6.89 7.31 6.84 7.38C6.61 7.68 6.5 7.84001 6.5 7.85001C6.5 7.90001 6.52999 7.94001 6.60999 7.95001C6.67999 7.96001 6.75 7.97 6.81 7.97H7.06C7.42 7.97 7.68001 7.91999 7.85001 7.82999C7.98001 7.71999 8.10999 7.62001 8.23999 7.51001C8.25999 7.51001 8.27001 7.51 8.29001 7.53C8.31001 7.53 8.31999 7.53999 8.32999 7.54999V7.66H8.31Z" fill="#333333"/>
<path d="M18.42 17.99C18.38 17.82 18.36 17.65 18.36 17.47C18.36 16.19 19.4 15.16 20.68 15.16C21.96 15.16 23 16.19 23 17.47C23 17.75 22.95 18.01 22.86 18.25C23.99 18.34 24.88 19.28 24.88 20.43C24.88 21.64 23.9 22.62 22.69 22.62C22.37 22.62 21.23 22.26 20.98 22.12L22.46 24.66H18.84L20.33 22.11C20.03 22.29 18.77 22.61 18.46 22.61C17.18 22.61 16.14 21.57 16.14 20.29C16.14 19.03 17.16 18 18.42 17.98V17.99Z" fill="#333333"/>
<g style="mix-blend-mode:color-burn" opacity="0.2">
<path d="M18.42 17.99C18.38 17.82 18.36 17.65 18.36 17.47C18.36 16.19 19.4 15.16 20.68 15.16C20.68 15.16 20.68 15.16 20.69 15.16V24.67H18.84L20.33 22.13C20.03 22.31 18.77 22.63 18.46 22.63C17.18 22.63 16.14 21.59 16.14 20.31C16.14 19.05 17.16 18.02 18.42 18V17.99Z" fill="#616161"/>
</g>
<path d="M7.18997 11.46C7.18997 11.46 7.19998 11.38 7.19998 11.34C7.19998 11.05 6.95998 10.81 6.66998 10.81C6.37998 10.81 6.13998 11.04 6.13998 11.34C6.13998 11.4 6.14998 11.46 6.16998 11.52C5.90998 11.54 5.70996 11.75 5.70996 12.02C5.70996 12.29 5.92996 12.52 6.20996 12.52C6.27996 12.52 6.53998 12.44 6.59998 12.4L6.25998 12.98H7.08997L6.74997 12.4C6.81997 12.44 7.10996 12.52 7.17996 12.52C7.46996 12.52 7.70996 12.28 7.70996 11.99C7.70996 11.7 7.47997 11.47 7.18997 11.46Z" fill="#333333"/>
<g style="mix-blend-mode:color-burn" opacity="0.2">
<path d="M7.19003 11.46C7.19003 11.46 7.20004 11.38 7.20004 11.34C7.20004 11.05 6.96004 10.81 6.67004 10.81V12.98H7.09003L6.75003 12.4C6.82003 12.44 7.11002 12.52 7.18002 12.52C7.47002 12.52 7.71002 12.28 7.71002 11.99C7.71002 11.7 7.48003 11.47 7.19003 11.46Z" fill="#616161"/>
</g>
<path d="M35.88 46.52C35.88 46.52 35.89 46.59 35.89 46.64C35.89 46.93 35.65 47.17 35.36 47.17C35.07 47.17 34.83 46.93 34.83 46.64C34.83 46.58 34.84 46.52 34.86 46.46C34.61 46.44 34.4 46.23 34.4 45.96C34.4 45.69 34.62 45.46 34.9 45.46C34.97 45.46 35.23 45.54 35.29 45.57L34.95 44.99H35.78L35.44 45.57C35.51 45.53 35.8 45.46 35.87 45.46C36.16 45.46 36.4 45.69 36.4 45.99C36.4 46.29 36.17 46.51 35.88 46.52Z" fill="#333333"/>
<g style="mix-blend-mode:color-burn" opacity="0.2">
<path d="M35.88 46.52C35.88 46.52 35.89 46.59 35.89 46.64C35.89 46.93 35.65 47.17 35.36 47.17V45H35.78L35.44 45.58C35.51 45.54 35.8 45.47 35.87 45.47C36.16 45.47 36.4 45.7 36.4 46C36.4 46.3 36.17 46.52 35.88 46.53V46.52Z" fill="#616161"/>
</g>
<path d="M18.79 39.48C18.75 39.65 18.73 39.82 18.73 40C18.73 41.28 19.77 42.32 21.05 42.31C22.33 42.31 23.37 41.28 23.37 40C23.37 39.72 23.32 39.46 23.23 39.22C24.36 39.13 25.25 38.19 25.25 37.04C25.25 35.83 24.27 34.85 23.06 34.85C22.74 34.85 21.59 35.2 21.35 35.35L22.83 32.81H19.21L20.7 35.36C20.4 35.18 19.14 34.86 18.83 34.86C17.55 34.86 16.51 35.9 16.51 37.18C16.51 38.44 17.53 39.47 18.79 39.49V39.48Z" fill="#333333"/>
<g style="mix-blend-mode:color-burn" opacity="0.2">
<path d="M18.79 39.48C18.75 39.65 18.73 39.82 18.73 40C18.73 41.28 19.77 42.32 21.05 42.31H21.06V32.8H19.21L20.7 35.35C20.4 35.17 19.14 34.85 18.83 34.85C17.55 34.85 16.51 35.89 16.51 37.17C16.51 38.43 17.53 39.46 18.79 39.48Z" fill="#616161"/>
</g>
</svg>
