<svg width="41" height="56" viewBox="0 0 41 56" fill="none" xmlns="http://www.w3.org/2000/svg">
<path d="M5.24997 55.9C2.89997 55.9 0.979971 54.02 0.969971 51.71L0.849976 4.40998C0.849976 2.07998 2.75996 0.189991 5.11996 0.199991L36.38 0.259988C38.73 0.259988 40.65 2.15999 40.65 4.47999V51.68C40.65 53.99 38.74 55.87 36.4 55.87L5.24997 55.91V55.9Z" fill="#C9C9C9"/>
<path d="M5.64993 55.79C3.32993 55.79 1.43994 53.91 1.43994 51.59V4.39999C1.43994 2.08999 3.32993 0.200012 5.64993 0.200012H36.4599C38.7799 0.200012 40.67 2.07999 40.67 4.39999V51.59C40.67 53.91 38.7799 55.79 36.4599 55.79H5.64993Z" fill="white"/>
<path d="M34.13 49.53C34.2 49.34 34.33 49.12 34.49 48.86C34.71 48.52 34.9 48.34 35.03 48.34H36.89C36.89 48.34 36.94 48.33 36.97 48.32C37 48.32 37.04 48.29 37.09 48.27H37.2V48.42C37.12 48.49 37.05 48.56 36.99 48.63C36.77 48.91 36.51 49.25 36.2 49.65C35.97 49.94 35.8 50.17 35.7 50.34C35.53 50.61 35.45 50.83 35.45 50.99C35.45 51.09 35.47 51.2 35.51 51.31C35.55 51.43 35.61 51.52 35.68 51.6C35.72 51.64 35.8 51.69 35.91 51.76C36.05 51.84 36.16 51.88 36.23 51.88C36.35 51.88 36.51 51.8 36.71 51.64C36.91 51.48 37.03 51.4 37.06 51.4C37.14 51.4 37.18 51.44 37.18 51.51C37.18 51.58 37.09 51.71 36.92 51.89C36.75 52.08 36.58 52.23 36.43 52.33C36.21 52.47 36.1 52.55 36.07 52.56C35.88 52.67 35.72 52.72 35.59 52.72C35.33 52.72 35.09 52.62 34.87 52.41C34.65 52.2 34.54 51.96 34.54 51.68C34.54 51.4 34.62 51.16 34.78 50.93C34.8 50.89 34.91 50.74 35.11 50.47C35.39 50.09 35.56 49.86 35.61 49.79C35.84 49.49 35.95 49.33 35.95 49.32C35.95 49.26 35.91 49.23 35.84 49.22C35.77 49.21 35.7 49.2 35.64 49.2H35.39C35.04 49.2 34.77 49.24 34.6 49.34C34.47 49.45 34.34 49.55 34.21 49.65C34.19 49.65 34.18 49.65 34.16 49.64C34.14 49.64 34.13 49.63 34.12 49.62V49.51L34.13 49.53Z" fill="#333333"/>
<path d="M7.07004 12.94L5.78003 11.32L7.07004 9.69L8.36003 11.32L7.07004 12.94Z" fill="#D66142"/>
<g style="mix-blend-mode:color-burn" opacity="0.2">
<path d="M7.07007 9.69L7.06006 9.70001V12.93L7.07007 12.94L8.36006 11.32L7.07007 9.69Z" fill="#616161"/>
</g>
<path d="M8.69 6.97C8.62 7.16 8.5 7.38001 8.33 7.64001C8.11 7.98001 7.91999 8.16 7.78999 8.16H5.92999C5.92999 8.16 5.88001 8.16999 5.85001 8.17999C5.82001 8.17999 5.78 8.20001 5.73 8.23001H5.62V8.07999C5.7 8.01999 5.77 7.95 5.83 7.87C6.04 7.59 6.31 7.25001 6.62 6.85001C6.85 6.56001 7.02 6.32999 7.12 6.14999C7.29 5.87999 7.37 5.67 7.37 5.5C7.37 5.4 7.35 5.28999 7.31 5.17999C7.26 5.05999 7.21 4.97001 7.14 4.89001C7.1 4.85001 7.02 4.80001 6.91 4.73001C6.77 4.65001 6.66 4.60999 6.58 4.60999C6.46 4.60999 6.30001 4.69001 6.10001 4.85001C5.90001 5.01001 5.78 5.09 5.75 5.09C5.67 5.09 5.63 5.06001 5.63 4.98001C5.63 4.90001 5.72 4.78 5.89 4.59C6.06 4.4 6.23 4.25999 6.38 4.14999C6.6 4.00999 6.72001 3.93001 6.74001 3.92001C6.92001 3.81001 7.08 3.76001 7.22 3.76001C7.48 3.76001 7.72 3.86001 7.94 4.07001C8.16 4.28001 8.27 4.51999 8.27 4.79999C8.27 5.07999 8.18999 5.31999 8.03999 5.54999C8.01999 5.58999 7.91001 5.74001 7.71001 6.01001C7.43001 6.39001 7.26001 6.62 7.21001 6.69C6.98001 6.99 6.87 7.15 6.87 7.16C6.87 7.22 6.9 7.25001 6.98 7.26001C7.05 7.27001 7.12 7.28 7.19 7.28H7.44C7.8 7.28 8.06 7.23001 8.23 7.14001C8.36 7.04001 8.49 6.92999 8.62 6.82999C8.64 6.82999 8.65 6.83 8.67 6.84C8.69 6.84 8.70001 6.85999 8.71001 6.85999V6.97H8.69Z" fill="#333333"/>
<path d="M35.75 43.56L37.04 45.19L35.75 46.82L34.46 45.19L35.75 43.56Z" fill="#D66142"/>
<g style="mix-blend-mode:color-burn" opacity="0.2">
<path d="M35.76 43.57L35.75 43.56L34.46 45.19L35.75 46.82L35.76 46.81V43.57Z" fill="#616161"/>
</g>
<path d="M21.05 14.21L16.89 19.45L21.05 24.7L25.2 19.45L21.05 14.21Z" fill="#D66142"/>
<g style="mix-blend-mode:color-burn" opacity="0.2">
<path d="M21.02 14.24L21.05 14.21L25.2 19.45L21.05 24.7L21.02 24.67V14.24Z" fill="#616161"/>
</g>
<path d="M21.05 32.33L25.2 37.58L21.05 42.82L16.89 37.58L21.05 32.33Z" fill="#D66142"/>
<g style="mix-blend-mode:color-burn" opacity="0.2">
<path d="M21.07 32.37L21.05 32.33L16.89 37.58L21.05 42.82L21.07 42.79V32.37Z" fill="#616161"/>
</g>
</svg>
