<svg width="40" height="57" viewBox="0 0 40 57" fill="none" xmlns="http://www.w3.org/2000/svg">
<path d="M4.57993 56.59C2.22993 56.59 0.309927 54.71 0.299927 52.4L0.179932 5.10005C0.179932 2.77005 2.08995 0.880054 4.44995 0.890054L35.7099 0.950052C38.0599 0.950052 39.9799 2.85005 39.9799 5.17005V52.37C39.9799 54.68 38.0699 56.56 35.7299 56.56L4.57993 56.6V56.59Z" fill="#C9C9C9"/>
<path d="M4.97 56.47C2.65 56.47 0.76001 54.59 0.76001 52.27V5.07999C0.76001 2.76999 2.65 0.880005 4.97 0.880005H35.77C38.09 0.880005 39.98 2.75999 39.98 5.07999V52.27C39.98 54.59 38.09 56.47 35.77 56.47H4.97Z" fill="white"/>
<path d="M33.4599 50.22C33.5299 50.03 33.6499 49.81 33.8199 49.55C34.0399 49.21 34.2199 49.03 34.3599 49.03H36.2199C36.2199 49.03 36.2699 49.02 36.2999 49.01C36.3299 49.01 36.37 48.98 36.42 48.96H36.5299V49.11C36.4499 49.18 36.3799 49.25 36.3199 49.32C36.1099 49.6 35.8399 49.94 35.5299 50.34C35.2999 50.63 35.1299 50.87 35.0299 51.04C34.8599 51.31 34.7799 51.52 34.7799 51.68C34.7799 51.78 34.7999 51.89 34.8399 52C34.8799 52.12 34.9399 52.21 35.0099 52.29C35.0499 52.33 35.1299 52.38 35.2399 52.44C35.3799 52.53 35.4899 52.56 35.5599 52.56C35.6799 52.56 35.8399 52.48 36.0399 52.32C36.2399 52.16 36.36 52.08 36.39 52.08C36.47 52.08 36.5099 52.12 36.5099 52.18C36.5099 52.24 36.4199 52.38 36.2499 52.57C36.0799 52.76 35.9099 52.91 35.7599 53.01C35.5399 53.15 35.4299 53.23 35.3999 53.24C35.2099 53.35 35.05 53.4 34.92 53.4C34.66 53.4 34.42 53.3 34.2 53.09C33.98 52.88 33.8699 52.64 33.8699 52.36C33.8699 52.09 33.9499 51.84 34.0999 51.61C34.1299 51.57 34.2399 51.42 34.4399 51.15C34.7199 50.77 34.8899 50.54 34.9399 50.47C35.1699 50.17 35.2799 50.01 35.2799 50C35.2799 49.94 35.24 49.91 35.17 49.9C35.1 49.89 35.0299 49.88 34.9699 49.88H34.7199C34.3599 49.88 34.0999 49.93 33.9299 50.02C33.7999 50.12 33.6699 50.23 33.5399 50.33C33.5199 50.33 33.4999 50.33 33.4899 50.32C33.4699 50.32 33.46 50.31 33.45 50.3V50.19L33.4599 50.22Z" fill="#333333"/>
<path d="M8.01993 7.65997C7.94993 7.84997 7.82994 8.06996 7.65994 8.32996C7.43994 8.66996 7.25993 8.84998 7.11993 8.84998H5.25995C5.25995 8.84998 5.20993 8.84996 5.17993 8.86996C5.14993 8.86996 5.10994 8.89998 5.05994 8.91998H4.94995V8.76996C5.02995 8.70996 5.08993 8.62997 5.14993 8.55997C5.36993 8.27997 5.62994 7.93998 5.93994 7.53998C6.16994 7.24998 6.32994 7.01998 6.43994 6.84998C6.59994 6.57998 6.68994 6.35998 6.68994 6.19998C6.68994 6.09998 6.66994 5.98997 6.62994 5.87997C6.58994 5.75997 6.52995 5.66997 6.44995 5.58997C6.40995 5.54997 6.32994 5.49996 6.21994 5.42996C6.07994 5.34996 5.96993 5.30997 5.89993 5.30997C5.77993 5.30997 5.61995 5.38996 5.41995 5.54996C5.21995 5.70996 5.09995 5.78998 5.06995 5.78998C4.98995 5.78998 4.94995 5.74996 4.94995 5.67996C4.94995 5.60996 5.02993 5.47996 5.20993 5.29996C5.38993 5.10996 5.54993 4.96995 5.70993 4.85995C5.91993 4.71995 6.04995 4.63997 6.06995 4.62997C6.25995 4.51997 6.41993 4.46997 6.54993 4.46997C6.80993 4.46997 7.04993 4.56997 7.26993 4.77997C7.48993 4.98997 7.59995 5.22998 7.59995 5.50998C7.59995 5.78998 7.51993 6.02998 7.36993 6.25998C7.34993 6.29998 7.23995 6.44997 7.03995 6.71997C6.75995 7.09997 6.58995 7.32996 6.53995 7.39996C6.30995 7.69996 6.19995 7.85996 6.19995 7.86996C6.19995 7.91996 6.23994 7.95997 6.30994 7.96997C6.37994 7.97997 6.44993 7.98996 6.51993 7.98996H6.76993C7.12993 7.98996 7.38994 7.93998 7.55994 7.84998C7.68994 7.73998 7.81995 7.63997 7.94995 7.52997C7.96995 7.52997 7.98994 7.52996 7.99994 7.54996C8.01994 7.54996 8.02995 7.55998 8.03995 7.56998V7.67996L8.01993 7.65997Z" fill="#333333"/>
<g style="mix-blend-mode:color-burn" opacity="0.2">
<path d="M24.55 19.99C24.55 19.03 20.35 14.9 20.35 14.9V24.81H22.31L20.75 22.13C21.12 22.36 21.56 22.49 22.04 22.49C23.42 22.49 24.56 21.37 24.56 19.98L24.55 19.99Z" fill="#616161"/>
</g>
<g style="mix-blend-mode:color-burn" opacity="0.2">
<path d="M24.55 38.13C24.55 39.09 20.35 43.22 20.35 43.22V33.31H22.31L20.75 35.99C21.12 35.76 21.56 35.63 22.04 35.62C23.42 35.62 24.56 36.74 24.56 38.13H24.55Z" fill="#616161"/>
</g>
<g style="mix-blend-mode:color-burn" opacity="0.2">
<path d="M7.52002 11.91C7.52002 11.65 6.40002 10.55 6.40002 10.55V13.19H6.92004L6.50003 12.48C6.60003 12.54 6.72003 12.58 6.84003 12.58C7.21003 12.58 7.51004 12.28 7.51004 11.91H7.52002Z" fill="#616161"/>
</g>
<g style="mix-blend-mode:color-burn" opacity="0.2">
<path d="M33.89 46.05C33.89 46.31 35.01 47.41 35.01 47.41V44.77H34.49L34.91 45.48C34.81 45.42 34.69 45.38 34.57 45.38C34.2 45.38 33.9 45.68 33.9 46.05H33.89Z" fill="#616161"/>
</g>
<path d="M24.2999 18.28C24.1999 20.19 20.3799 23.08 20.3799 23.08C20.3799 23.08 16.45 20.16 16.45 18.25C16.45 16.94 17.5199 15.88 18.8399 15.88C19.5799 15.88 20.3999 16.55 20.3999 16.55C20.3999 16.55 21.1799 15.88 21.9399 15.89C23.2499 15.91 24.3799 16.96 24.3099 18.28H24.2999Z" fill="#D66142"/>
<g style="mix-blend-mode:color-burn" opacity="0.2">
<path d="M21.93 15.89C21.17 15.89 20.39 16.55 20.39 16.55C20.39 16.55 20.38 16.55 20.36 16.53V23.08H20.37C20.37 23.08 24.19 20.19 24.29 18.28C24.36 16.96 23.23 15.91 21.92 15.89H21.93Z" fill="#616161"/>
</g>
<path d="M16.3901 39.08C16.4901 37.18 20.3101 34.28 20.3101 34.28C20.3101 34.28 24.2401 37.2 24.2401 39.11C24.2401 40.42 23.1701 41.48 21.8501 41.48C21.1101 41.48 20.2901 40.82 20.2901 40.82C20.2901 40.82 19.5101 41.48 18.7501 41.47C17.4301 41.46 16.3101 40.4 16.3801 39.09L16.3901 39.08Z" fill="#D66142"/>
<g style="mix-blend-mode:color-burn" opacity="0.2">
<path d="M18.7601 41.46C19.5201 41.47 20.3001 40.81 20.3001 40.81C20.3001 40.81 20.3101 40.81 20.3301 40.83V34.28H20.3201C20.3201 34.28 16.5001 37.18 16.4001 39.08C16.3301 40.39 17.4601 41.45 18.7701 41.46H18.7601Z" fill="#616161"/>
</g>
<path d="M7.54004 11.69C7.50004 12.36 6.16003 13.38 6.16003 13.38C6.16003 13.38 4.78003 12.35 4.78003 11.68C4.78003 11.22 5.16003 10.85 5.62003 10.85C5.88003 10.85 6.17004 11.08 6.17004 11.08C6.17004 11.08 6.44002 10.85 6.71002 10.85C7.17002 10.85 7.57004 11.23 7.54004 11.69Z" fill="#D66142"/>
<g style="mix-blend-mode:color-burn" opacity="0.2">
<path d="M6.70004 10.86C6.43004 10.86 6.16003 11.09 6.16003 11.09V13.39C6.16003 13.39 7.50004 12.37 7.54004 11.7C7.56004 11.24 7.17002 10.87 6.71002 10.86H6.70004Z" fill="#616161"/>
</g>
<path d="M33.39 46.35C33.43 45.67 34.8 44.63 34.8 44.63C34.8 44.63 36.21 45.68 36.21 46.37C36.21 46.84 35.83 47.22 35.35 47.22C35.09 47.22 34.79 46.98 34.79 46.98C34.79 46.98 34.51 47.22 34.24 47.21C33.77 47.21 33.36 46.82 33.39 46.35Z" fill="#D66142"/>
<g style="mix-blend-mode:color-burn" opacity="0.2">
<path d="M34.24 47.21C34.51 47.21 34.79 46.98 34.79 46.98V44.63C34.79 44.63 33.42 45.67 33.38 46.35C33.36 46.82 33.76 47.2 34.23 47.21H34.24Z" fill="#616161"/>
</g>
</svg>
