<svg width="41" height="56" viewBox="0 0 41 56" fill="none" xmlns="http://www.w3.org/2000/svg">
<path d="M4.64001 55.9C2.29001 55.9 0.369985 54.03 0.359985 51.71L0.23999 4.40998C0.23999 2.07998 2.15001 0.189991 4.51001 0.199991L35.77 0.259988C38.12 0.259988 40.04 2.15999 40.04 4.47999V51.68C40.04 53.99 38.13 55.87 35.79 55.87L4.64001 55.91V55.9Z" fill="#C9C9C9"/>
<path d="M5.03006 55.79C2.71006 55.79 0.820068 53.91 0.820068 51.59V4.39999C0.820068 2.07999 2.71006 0.200012 5.03006 0.200012H35.83C38.15 0.200012 40.0401 2.07999 40.0401 4.39999V51.59C40.0401 53.91 38.15 55.79 35.83 55.79H5.03006Z" fill="white"/>
<path d="M33.51 49.53C33.58 49.34 33.7 49.12 33.87 48.87C34.09 48.52 34.28 48.35 34.41 48.35H36.27C36.27 48.35 36.32 48.34 36.35 48.33C36.38 48.33 36.42 48.3 36.47 48.28H36.58V48.43C36.5 48.49 36.43 48.56 36.37 48.64C36.16 48.92 35.89 49.26 35.58 49.66C35.35 49.95 35.19 50.19 35.08 50.36C34.91 50.63 34.83 50.84 34.83 51.01C34.83 51.11 34.85 51.22 34.89 51.33C34.93 51.45 34.99 51.54 35.06 51.62C35.1 51.66 35.18 51.71 35.29 51.78C35.43 51.86 35.54 51.9 35.61 51.9C35.73 51.9 35.89 51.82 36.09 51.66C36.29 51.5 36.41 51.42 36.44 51.42C36.52 51.42 36.56 51.46 36.56 51.52C36.56 51.58 36.47 51.72 36.3 51.9C36.13 52.09 35.96 52.24 35.81 52.34C35.59 52.48 35.48 52.56 35.45 52.57C35.26 52.68 35.1 52.73 34.97 52.73C34.71 52.73 34.47 52.62 34.25 52.42C34.03 52.21 33.92 51.97 33.92 51.69C33.92 51.42 34 51.17 34.15 50.94C34.17 50.9 34.28 50.75 34.48 50.48C34.76 50.1 34.93 49.87 34.98 49.8C35.21 49.5 35.32 49.34 35.32 49.33C35.32 49.27 35.28 49.24 35.21 49.23C35.14 49.23 35.07 49.21 35 49.21H34.75C34.39 49.21 34.13 49.26 33.96 49.35C33.83 49.46 33.7 49.56 33.57 49.66C33.55 49.66 33.54 49.66 33.52 49.65C33.5 49.65 33.49 49.64 33.48 49.63V49.52L33.51 49.53Z" fill="#333333"/>
<path d="M8.07001 6.97003C8.00001 7.16003 7.87999 7.38005 7.70999 7.64005C7.48999 7.99005 7.30001 8.16003 7.17001 8.16003H5.31C5.31 8.16003 5.26001 8.17002 5.23001 8.18002C5.20001 8.18002 5.15999 8.21004 5.10999 8.23004H5V8.08002C5.08 8.02002 5.14999 7.94003 5.20999 7.87003C5.42999 7.59003 5.69 7.25004 6 6.85004C6.23 6.56004 6.4 6.33003 6.5 6.16003C6.67 5.89003 6.75 5.68004 6.75 5.51004C6.75 5.41004 6.73 5.30003 6.69 5.19003C6.65 5.07003 6.58999 4.98002 6.51999 4.90002C6.47999 4.86002 6.40001 4.81002 6.29001 4.74002C6.15001 4.66002 6.04 4.62003 5.97 4.62003C5.85 4.62003 5.68999 4.70002 5.48999 4.86002C5.28999 5.02002 5.17001 5.10004 5.14001 5.10004C5.06001 5.10004 5.01999 5.07002 5.01999 4.99002C5.01999 4.92002 5.11 4.79002 5.28 4.61002C5.46 4.42002 5.62 4.28004 5.78 4.17004C6 4.03004 6.11001 3.95003 6.14001 3.94003C6.33001 3.83003 6.49 3.78003 6.62 3.78003C6.88 3.78003 7.12 3.88003 7.34 4.09003C7.56 4.30003 7.67001 4.54004 7.67001 4.82004C7.67001 5.10004 7.59 5.34004 7.44 5.57004C7.42 5.61004 7.29999 5.76003 7.10999 6.03003C6.82999 6.41003 6.65999 6.64002 6.60999 6.71002C6.37999 7.01002 6.26999 7.17002 6.26999 7.18002C6.26999 7.23002 6.3 7.27003 6.38 7.28003C6.45 7.29003 6.51999 7.30002 6.57999 7.30002H6.82999C7.18999 7.30002 7.45 7.25003 7.62 7.16003C7.75 7.05003 7.88001 6.95003 8.01001 6.84003C8.03001 6.84003 8.04 6.84004 8.06 6.85004C8.08 6.85004 8.09001 6.86003 8.10001 6.87003V6.98004L8.07001 6.97003Z" fill="#333333"/>
<path d="M24.6001 19.3C24.6001 18.34 20.4001 14.21 20.4001 14.21C20.4001 14.21 16.3101 18.47 16.3101 19.28C16.3101 20.67 17.4301 21.79 18.8201 21.79C19.2901 21.79 19.74 21.66 20.11 21.43L18.5401 24.11H22.36L20.8 21.43C21.17 21.66 21.6201 21.79 22.0901 21.8C23.4801 21.8 24.61 20.68 24.61 19.29L24.6001 19.3Z" fill="#333333"/>
<g style="mix-blend-mode:color-burn" opacity="0.2">
<path d="M24.6 19.3C24.6 18.34 20.4 14.21 20.4 14.21V24.12H22.36L20.8 21.43C21.17 21.66 21.62 21.79 22.09 21.8C23.48 21.8 24.61 20.68 24.61 19.29L24.6 19.3Z" fill="#616161"/>
</g>
<path d="M24.6001 37.45C24.6001 38.41 20.4001 42.54 20.4001 42.54C20.4001 42.54 16.3101 38.28 16.3101 37.46C16.3101 36.08 17.4301 34.95 18.8201 34.95C19.2901 34.95 19.74 35.08 20.11 35.31L18.5401 32.63H22.36L20.8 35.31C21.17 35.08 21.6201 34.95 22.0901 34.94C23.4801 34.94 24.61 36.06 24.61 37.45H24.6001Z" fill="#333333"/>
<g style="mix-blend-mode:color-burn" opacity="0.2">
<path d="M24.6 37.45C24.6 38.41 20.4 42.54 20.4 42.54V32.63H22.36L20.8 35.31C21.17 35.08 21.62 34.95 22.09 34.94C23.48 34.94 24.61 36.06 24.61 37.45H24.6Z" fill="#616161"/>
</g>
<path d="M7.57001 11.22C7.57001 10.96 6.45001 9.85999 6.45001 9.85999C6.45001 9.85999 5.35999 10.99 5.35999 11.21C5.35999 11.58 5.66 11.88 6.03 11.88C6.16 11.88 6.28 11.85 6.38 11.78L5.95999 12.5H6.98001L6.56 11.79C6.66 11.85 6.77999 11.89 6.89999 11.89C7.26999 11.89 7.57001 11.59 7.57001 11.22Z" fill="#333333"/>
<g style="mix-blend-mode:color-burn" opacity="0.2">
<path d="M7.56995 11.22C7.56995 10.96 6.44995 9.85999 6.44995 9.85999V12.5H6.96994L6.54993 11.79C6.64993 11.85 6.76995 11.89 6.88995 11.89C7.25995 11.89 7.55994 11.59 7.55994 11.22H7.56995Z" fill="#616161"/>
</g>
<path d="M33.9399 45.36C33.9399 45.62 35.0599 46.72 35.0599 46.72C35.0599 46.72 36.1499 45.59 36.1499 45.37C36.1499 45 35.8499 44.7 35.4799 44.7C35.3499 44.7 35.24 44.73 35.14 44.8L35.5599 44.09H34.5399L34.9599 44.8C34.8599 44.74 34.7399 44.7 34.6199 44.7C34.2499 44.7 33.95 45 33.95 45.37L33.9399 45.36Z" fill="#333333"/>
<g style="mix-blend-mode:color-burn" opacity="0.2">
<path d="M33.9399 45.36C33.9399 45.62 35.0599 46.72 35.0599 46.72V44.08H34.5399L34.9599 44.8C34.8599 44.74 34.7399 44.7 34.6199 44.7C34.2499 44.7 33.95 45 33.95 45.37L33.9399 45.36Z" fill="#616161"/>
</g>
</svg>
