<svg width="39" height="54" viewBox="0 0 39 54" fill="none" xmlns="http://www.w3.org/2000/svg">
<path d="M4.62997 53.27C2.38997 53.27 0.559954 51.48 0.579954 49.28L0.459958 4.26005C0.429958 2.05005 2.25997 0.240041 4.49997 0.250041L34.25 0.300029C36.49 0.300029 38.31 2.11005 38.34 4.32005V49.24C38.31 51.44 36.5 53.2201 34.27 53.2301L4.62997 53.27Z" fill="#C9C9C9"/>
<path d="M4.98999 53.16C2.77999 53.16 0.980013 51.37 1.01001 49.16V4.25C0.980013 2.05 2.78999 0.26001 4.98999 0.26001H34.31C36.52 0.26001 38.32 2.05 38.35 4.25V49.16C38.32 51.37 36.52 53.16 34.31 53.16H4.98999Z" fill="white"/>
<path d="M32.1 48.05C32.1 47.9 32.14 47.74 32.22 47.57C32.34 47.32 32.54 47.05 32.83 46.76C33.08 46.52 33.27 46.34 33.41 46.25C33.64 46.1 33.88 46.02 34.12 46.02C34.33 46.02 34.51 46.06 34.67 46.15C34.86 46.25 34.95 46.39 34.95 46.57C34.95 46.69 34.83 46.9 34.6 47.19C34.37 47.49 34.2 47.64 34.1 47.64C34.02 47.64 33.97 47.61 33.97 47.55C33.97 47.49 34.04 47.37 34.17 47.2C34.23 47.12 34.26 47.06 34.26 47.02C34.23 46.95 34.19 46.9 34.15 46.87C34.03 46.77 33.88 46.71 33.68 46.71C33.51 46.71 33.35 46.76 33.21 46.87C33.04 47 32.96 47.18 32.96 47.4C32.96 47.56 33 47.71 33.09 47.84C33.16 47.94 33.25 48.02 33.36 48.07C33.5 48.14 33.65 48.18 33.81 48.18C33.97 48.18 34.04 48.22 34.04 48.28C34.04 48.31 33.95 48.45 33.75 48.69C33.6 48.88 33.46 49.08 33.31 49.3C33.35 49.34 33.39 49.36 33.42 49.36H34.31C34.31 49.36 34.43 49.31 34.54 49.22C34.66 49.13 34.74 49.08 34.78 49.08C34.86 49.08 34.9 49.11 34.9 49.17C34.9 49.2 34.86 49.27 34.76 49.37C34.67 49.48 34.54 49.61 34.37 49.78C34.17 49.97 34.05 50.09 34 50.13C33.9 50.21 33.82 50.25 33.76 50.25H32.28C32.28 50.25 32.26 50.23 32.25 50.22C32.25 50.22 32.25 50.19 32.25 50.15C32.25 50.04 32.38 49.85 32.65 49.59C32.92 49.33 33.05 49.15 33.05 49.05C33.05 49.03 32.94 48.98 32.73 48.9C32.59 48.85 32.46 48.78 32.36 48.69C32.28 48.62 32.22 48.53 32.17 48.42C32.13 48.31 32.1 48.2 32.1 48.06V48.05Z" fill="#333333"/>
<path d="M7.90005 5.86002C7.90005 6.02002 7.86006 6.18003 7.78006 6.34003C7.66006 6.59003 7.46007 6.86002 7.17007 7.15002C6.92007 7.39002 6.73006 7.56003 6.59006 7.66003C6.36006 7.82003 6.12007 7.89005 5.88007 7.89005C5.67007 7.89005 5.49005 7.85004 5.33005 7.76004C5.14005 7.65004 5.05005 7.52003 5.05005 7.34003C5.05005 7.22003 5.17005 7.01003 5.40005 6.72003C5.63005 6.43003 5.80005 6.27002 5.90005 6.27002C5.98005 6.27002 6.03006 6.30002 6.03006 6.36002C6.03006 6.42002 5.96005 6.54002 5.83005 6.71002C5.77005 6.79002 5.74005 6.85005 5.74005 6.89005C5.77005 6.96005 5.81007 7.01002 5.85007 7.05002C5.97007 7.16002 6.13005 7.21002 6.33005 7.21002C6.50005 7.21002 6.66005 7.15002 6.80005 7.05002C6.97005 6.92002 7.05005 6.74002 7.05005 6.52002C7.05005 6.36002 7.00007 6.21002 6.92007 6.08002C6.85007 5.98002 6.76005 5.90004 6.65005 5.85004C6.51005 5.78004 6.36007 5.74002 6.20007 5.74002C6.04007 5.74002 5.97006 5.70004 5.97006 5.63004C5.97006 5.60004 6.06007 5.46003 6.26007 5.22003C6.41007 5.03003 6.55007 4.83002 6.70007 4.61002C6.66007 4.57002 6.62006 4.55002 6.59006 4.55002H5.70007C5.70007 4.55002 5.58006 4.59003 5.47006 4.69003C5.36006 4.79003 5.27007 4.83002 5.23007 4.83002C5.15007 4.83002 5.11005 4.80002 5.11005 4.74002C5.11005 4.71002 5.15006 4.64004 5.25006 4.54004C5.34006 4.43004 5.47008 4.30004 5.64008 4.13004C5.84008 3.94004 5.96007 3.82003 6.01007 3.78003C6.11007 3.70003 6.19006 3.67004 6.25006 3.67004H7.73007C7.73007 3.67004 7.75007 3.69004 7.76007 3.70004C7.76007 3.70004 7.76007 3.73002 7.76007 3.77002C7.76007 3.88002 7.63005 4.07002 7.36005 4.33002C7.09005 4.59002 6.96005 4.77003 6.96005 4.87003C6.96005 4.89003 7.07006 4.94002 7.28006 5.02002C7.42006 5.07002 7.54008 5.14004 7.64008 5.23004C7.72008 5.30004 7.78005 5.39003 7.83005 5.50003C7.87005 5.60003 7.90005 5.72004 7.90005 5.85004V5.86002Z" fill="#333333"/>
<path d="M17.35 7.63C17.32 7.47 17.29 7.31001 17.3 7.14001C17.3 5.92001 18.29 4.94 19.5 4.94C20.72 4.94 21.7 5.92001 21.7 7.14001C21.7 7.40001 21.65 7.65 21.57 7.88C22.65 7.96 23.49 8.85999 23.49 9.95999C23.49 11.11 22.55 12.04 21.4 12.04C21.09 12.04 20.01 11.7 19.77 11.56L21.18 13.98H17.74L19.15 11.56C18.87 11.73 17.66 12.03 17.37 12.03C16.15 12.03 15.16 11.04 15.17 9.82001C15.17 8.62001 16.14 7.64 17.34 7.62L17.35 7.63Z" fill="#333333"/>
<g style="mix-blend-mode:color-burn" opacity="0.2">
<path d="M17.35 7.63C17.32 7.47 17.29 7.31001 17.3 7.14001C17.3 5.92001 18.29 4.94 19.5 4.94V13.99H17.74L19.15 11.57C18.87 11.74 17.66 12.04 17.37 12.04C16.15 12.04 15.16 11.05 15.17 9.82999C15.17 8.62999 16.14 7.65 17.34 7.63H17.35Z" fill="#616161"/>
</g>
<path d="M17.35 24.93C17.32 24.77 17.29 24.61 17.3 24.44C17.3 23.22 18.29 22.24 19.5 22.24C20.72 22.24 21.7 23.22 21.7 24.44C21.7 24.7 21.65 24.95 21.57 25.18C22.65 25.27 23.49 26.16 23.49 27.26C23.49 28.41 22.55 29.34 21.4 29.34C21.09 29.34 20.01 29 19.77 28.87L21.18 31.29H17.74L19.15 28.87C18.87 29.04 17.66 29.34 17.37 29.34C16.15 29.34 15.16 28.35 15.17 27.13C15.17 25.92 16.14 24.95 17.34 24.93H17.35Z" fill="#333333"/>
<g style="mix-blend-mode:color-burn" opacity="0.2">
<path d="M17.35 24.93C17.32 24.77 17.29 24.61 17.3 24.44C17.3 23.22 18.29 22.24 19.5 22.24V31.28H17.74L19.15 28.86C18.87 29.03 17.66 29.33 17.37 29.33C16.15 29.33 15.16 28.34 15.17 27.12C15.17 25.91 16.14 24.94 17.34 24.92L17.35 24.93Z" fill="#616161"/>
</g>
<path d="M17.6901 45.38C17.6601 45.54 17.6301 45.7 17.6401 45.87C17.6401 47.09 18.6301 48.08 19.8401 48.07C21.0601 48.07 22.0401 47.09 22.0401 45.87C22.0401 45.61 21.9901 45.35 21.9101 45.12C22.9801 45.04 23.8301 44.14 23.8301 43.05C23.8301 41.9 22.8901 40.97 21.7401 40.97C21.4301 40.97 20.3501 41.31 20.1101 41.45L21.5201 39.03H18.0801L19.4901 41.45C19.2101 41.28 18.0101 40.98 17.7101 40.98C16.4901 40.98 15.5001 41.97 15.5101 43.19C15.5101 44.4 16.4801 45.37 17.6801 45.39L17.6901 45.38Z" fill="#333333"/>
<g style="mix-blend-mode:color-burn" opacity="0.2">
<path d="M17.6901 45.38C17.6601 45.54 17.6301 45.7 17.6401 45.87C17.6401 47.09 18.6301 48.08 19.8401 48.07V39.02H18.0801L19.4901 41.44C19.2101 41.27 18.0101 40.97 17.7101 40.97C16.4901 40.97 15.5001 41.96 15.5101 43.18C15.5101 44.39 16.4801 45.36 17.6801 45.38H17.6901Z" fill="#616161"/>
</g>
<path d="M6.64999 10.33C6.64999 10.33 6.66 10.26 6.66 10.21C6.66 9.92996 6.43 9.70996 6.16 9.70996C5.88 9.70996 5.66 9.92996 5.66 10.21C5.66 10.27 5.66 10.33 5.69 10.38C5.44 10.4 5.25 10.6 5.25 10.85C5.25 11.11 5.46001 11.33 5.73001 11.33C5.80001 11.33 6.05001 11.25 6.10001 11.22L5.78 11.77H6.57001L6.25 11.22C6.31 11.26 6.59 11.33 6.66 11.33C6.94 11.33 7.16 11.1 7.16 10.82C7.16 10.54 6.94 10.32 6.66 10.32L6.64999 10.33Z" fill="#333333"/>
<g style="mix-blend-mode:color-burn" opacity="0.2">
<path d="M6.65002 10.33C6.65002 10.33 6.66003 10.26 6.66003 10.21C6.66003 9.92996 6.43003 9.70996 6.16003 9.70996V11.77H6.56003L6.24002 11.22C6.30002 11.26 6.58002 11.33 6.65002 11.33C6.93002 11.33 7.15002 11.1 7.15002 10.82C7.15002 10.54 6.93002 10.32 6.65002 10.32V10.33Z" fill="#616161"/>
</g>
<path d="M33.9601 43.69C33.9601 43.69 33.9701 43.76 33.9701 43.8C33.9701 44.08 33.7401 44.3 33.4701 44.3C33.2001 44.3 32.9701 44.08 32.9701 43.8C32.9701 43.74 32.9801 43.68 33.0001 43.63C32.7501 43.61 32.5601 43.41 32.5601 43.16C32.5601 42.91 32.7701 42.69 33.0301 42.69C33.1001 42.69 33.3501 42.77 33.4001 42.8L33.08 42.25H33.8701L33.55 42.8C33.61 42.76 33.8901 42.69 33.9601 42.69C34.2401 42.69 34.4601 42.92 34.4601 43.19C34.4601 43.46 34.2401 43.69 33.9601 43.69Z" fill="#333333"/>
<g style="mix-blend-mode:color-burn" opacity="0.2">
<path d="M33.96 43.69C33.96 43.69 33.97 43.76 33.97 43.8C33.97 44.08 33.74 44.3 33.47 44.3V42.24H33.87L33.55 42.79C33.61 42.75 33.89 42.68 33.96 42.68C34.24 42.68 34.46 42.91 34.46 43.18C34.46 43.45 34.24 43.68 33.96 43.68V43.69Z" fill="#616161"/>
</g>
</svg>
