<svg width="40" height="56" viewBox="0 0 40 56" fill="none" xmlns="http://www.w3.org/2000/svg">
<path d="M4.49004 55.5C2.17004 55.5 0.280029 53.65 0.280029 51.37L0.160034 4.79001C0.160034 2.50001 2.04003 0.640015 4.37003 0.640015L35.15 0.700012C37.47 0.700012 39.35 2.56999 39.35 4.85999V51.34C39.35 53.61 37.47 55.46 35.16 55.47L4.49004 55.51V55.5Z" fill="#C9C9C9"/>
<path d="M4.87999 55.38C2.58999 55.38 0.72998 53.53 0.72998 51.25V4.79004C0.72998 2.51004 2.58999 0.660034 4.87999 0.660034H35.21C37.5 0.660034 39.36 2.51004 39.36 4.79004V51.25C39.36 53.53 37.5 55.38 35.21 55.38H4.87999Z" fill="white"/>
<path d="M32.92 50.1C32.92 49.94 32.96 49.77 33.04 49.6C33.16 49.34 33.37 49.06 33.67 48.77C33.92 48.52 34.12 48.34 34.27 48.24C34.51 48.08 34.75 48 35 48C35.21 48 35.4 48.05 35.57 48.14C35.76 48.25 35.86 48.39 35.86 48.57C35.86 48.69 35.74 48.91 35.5 49.21C35.26 49.52 35.08 49.67 34.98 49.67C34.89 49.67 34.85 49.64 34.85 49.57C34.85 49.5 34.92 49.39 35.06 49.21C35.13 49.13 35.16 49.07 35.16 49.02C35.12 48.95 35.09 48.9 35.05 48.86C34.93 48.75 34.76 48.7 34.56 48.7C34.38 48.7 34.22 48.76 34.07 48.87C33.89 49.01 33.81 49.19 33.81 49.42C33.81 49.59 33.86 49.74 33.95 49.87C34.02 49.98 34.12 50.05 34.23 50.11C34.38 50.18 34.53 50.22 34.7 50.22C34.86 50.22 34.94 50.26 34.94 50.33C34.94 50.36 34.84 50.5 34.64 50.75C34.48 50.94 34.33 51.15 34.19 51.38C34.23 51.42 34.27 51.45 34.3 51.45H35.22C35.22 51.45 35.34 51.4 35.46 51.31C35.58 51.21 35.66 51.16 35.71 51.16C35.79 51.16 35.83 51.19 35.83 51.25C35.83 51.28 35.78 51.35 35.69 51.46C35.6 51.57 35.46 51.71 35.28 51.89C35.08 52.09 34.95 52.21 34.9 52.25C34.8 52.33 34.72 52.37 34.65 52.37H33.12C33.12 52.37 33.1 52.35 33.09 52.34C33.09 52.34 33.08 52.31 33.08 52.27C33.08 52.15 33.22 51.96 33.49 51.69C33.77 51.42 33.91 51.23 33.91 51.13C33.91 51.1 33.8 51.05 33.58 50.97C33.43 50.92 33.31 50.84 33.2 50.75C33.12 50.67 33.06 50.58 33.01 50.47C32.96 50.36 32.94 50.24 32.94 50.1H32.92Z" fill="#333333"/>
<path d="M6.28001 13.2L5.01001 11.59L6.28001 9.98999L7.55002 11.59L6.28001 13.2Z" fill="#D66142"/>
<g style="mix-blend-mode:color-burn" opacity="0.2">
<path d="M6.28001 9.98999L6.27002 10V13.19L6.28001 13.2L7.55002 11.59L6.28001 9.98999Z" fill="#616161"/>
</g>
<path d="M7.87994 6.44003C7.87994 6.60003 7.83993 6.77003 7.75993 6.94003C7.63993 7.20003 7.42994 7.48002 7.12994 7.77002C6.87994 8.02002 6.67994 8.20002 6.52994 8.30002C6.29994 8.46002 6.04994 8.54004 5.79994 8.54004C5.58994 8.54004 5.39993 8.50002 5.22993 8.40002C5.03993 8.29002 4.93994 8.15003 4.93994 7.97003C4.93994 7.85003 5.05994 7.63002 5.29994 7.33002C5.53994 7.02002 5.71995 6.87003 5.81995 6.87003C5.90995 6.87003 5.94994 6.90003 5.94994 6.97003C5.94994 7.04003 5.87994 7.15002 5.73994 7.33002C5.66994 7.41002 5.63994 7.47002 5.63994 7.52002C5.67994 7.59002 5.70993 7.64002 5.75993 7.68002C5.87993 7.79002 6.03994 7.84003 6.24994 7.84003C6.42994 7.84003 6.58994 7.79004 6.73994 7.67004C6.91994 7.53004 6.99994 7.35003 6.99994 7.12003C6.99994 6.95003 6.95994 6.80004 6.85994 6.67004C6.78994 6.57004 6.68994 6.49002 6.57994 6.43002C6.42994 6.36002 6.27994 6.32003 6.10994 6.31003C5.94994 6.31003 5.86993 6.27004 5.86993 6.20004C5.86993 6.17004 5.96994 6.03003 6.16994 5.78003C6.32994 5.59003 6.47993 5.38002 6.61993 5.15002C6.57993 5.11002 6.53993 5.08002 6.50993 5.08002H5.58994C5.58994 5.08002 5.46995 5.13004 5.34995 5.23004C5.22995 5.33004 5.14995 5.37003 5.09995 5.37003C5.01995 5.37003 4.97993 5.34003 4.97993 5.28003C4.97993 5.25003 5.02993 5.18004 5.11993 5.07004C5.20993 4.96004 5.34994 4.82005 5.51994 4.64005C5.71994 4.44005 5.84993 4.32003 5.89993 4.28003C5.99993 4.20003 6.08993 4.16003 6.14993 4.16003H7.67993C7.67993 4.16003 7.69995 4.18003 7.70995 4.19003C7.70995 4.19003 7.70995 4.22004 7.70995 4.26004C7.70995 4.38004 7.56994 4.57003 7.29994 4.84003C7.01994 5.11003 6.88994 5.30002 6.88994 5.40002C6.88994 5.43002 6.99994 5.48003 7.21994 5.56003C7.36994 5.61003 7.48995 5.69003 7.59995 5.78003C7.67995 5.86003 7.73993 5.95003 7.78993 6.06003C7.83993 6.17003 7.85994 6.29002 7.85994 6.43002L7.87994 6.44003Z" fill="#333333"/>
<path d="M34.52 43.35L35.79 44.95L34.52 46.55L33.25 44.95L34.52 43.35Z" fill="#D66142"/>
<g style="mix-blend-mode:color-burn" opacity="0.2">
<path d="M34.53 43.36L34.52 43.35L33.25 44.95L34.52 46.55L34.53 46.54V43.36Z" fill="#616161"/>
</g>
<path d="M20.0399 4.83997L15.95 9.99997L20.0399 15.17L24.1299 9.99997L20.0399 4.83997Z" fill="#D66142"/>
<g style="mix-blend-mode:color-burn" opacity="0.2">
<path d="M20.01 4.86996L20.04 4.83997L24.13 9.99997L20.04 15.17L20.01 15.13V4.86996Z" fill="#616161"/>
</g>
<path d="M20.0399 23.1L15.95 28.26L20.0399 33.43L24.1299 28.26L20.0399 23.1Z" fill="#D66142"/>
<g style="mix-blend-mode:color-burn" opacity="0.2">
<path d="M20.01 23.13L20.04 23.1L24.13 28.26L20.04 33.43L20.01 33.39V23.13Z" fill="#616161"/>
</g>
<path d="M20.0399 41.36L24.1299 46.52L20.0399 51.69L15.95 46.52L20.0399 41.36Z" fill="#D66142"/>
<g style="mix-blend-mode:color-burn" opacity="0.2">
<path d="M20.0699 41.39L20.0399 41.36L15.95 46.52L20.0399 51.69L20.0699 51.65V41.39Z" fill="#616161"/>
</g>
</svg>
