<svg width="40" height="57" viewBox="0 0 40 57" fill="none" xmlns="http://www.w3.org/2000/svg">
<path d="M4.58994 56.61C2.22994 56.61 0.319937 54.73 0.309937 52.42L0.189941 5.12C0.189941 2.79 2.09993 0.900013 4.45993 0.910013L35.7199 0.97001C38.0699 0.97001 39.9899 2.87001 39.9899 5.19001V52.39C39.9899 54.69 38.0799 56.58 35.7399 56.58L4.58994 56.62V56.61Z" fill="#C9C9C9"/>
<path d="M4.97 56.5C2.65 56.5 0.76001 54.62 0.76001 52.3V5.11002C0.76001 2.80002 2.65 0.910034 4.97 0.910034H35.77C38.1 0.910034 39.98 2.79002 39.98 5.11002V52.3C39.98 54.61 38.09 56.5 35.77 56.5H4.97Z" fill="white"/>
<path d="M33.46 51.13C33.46 50.97 33.5 50.8 33.58 50.62C33.7 50.36 33.92 50.08 34.22 49.77C34.47 49.51 34.68 49.33 34.83 49.23C35.07 49.07 35.32 48.99 35.57 48.99C35.79 48.99 35.98 49.03 36.15 49.13C36.34 49.24 36.44 49.39 36.44 49.57C36.44 49.69 36.31 49.92 36.07 50.23C35.82 50.54 35.65 50.7 35.54 50.7C35.45 50.7 35.41 50.67 35.41 50.6C35.41 50.53 35.48 50.41 35.62 50.23C35.69 50.15 35.72 50.09 35.72 50.04C35.68 49.97 35.65 49.91 35.6 49.87C35.48 49.76 35.31 49.71 35.1 49.71C34.92 49.71 34.75 49.76 34.61 49.88C34.43 50.02 34.34 50.2 34.34 50.43C34.34 50.6 34.39 50.75 34.48 50.89C34.55 50.99 34.65 51.08 34.76 51.13C34.91 51.2 35.07 51.24 35.23 51.25C35.4 51.25 35.48 51.29 35.48 51.36C35.48 51.39 35.38 51.54 35.18 51.79C35.02 51.99 34.87 52.2 34.72 52.43C34.76 52.48 34.8 52.5 34.83 52.5H35.76C35.76 52.5 35.88 52.45 36 52.35C36.12 52.25 36.2 52.2 36.25 52.2C36.33 52.2 36.37 52.23 36.37 52.29C36.37 52.32 36.32 52.39 36.23 52.5C36.14 52.61 36 52.75 35.82 52.93C35.62 53.13 35.49 53.25 35.44 53.3C35.33 53.38 35.25 53.42 35.19 53.42H33.64C33.64 53.42 33.62 53.4 33.61 53.39C33.61 53.39 33.61 53.36 33.61 53.32C33.61 53.2 33.75 53.01 34.03 52.73C34.31 52.45 34.45 52.26 34.45 52.16C34.45 52.14 34.34 52.09 34.12 52C33.97 51.95 33.84 51.87 33.74 51.78C33.66 51.7 33.59 51.61 33.54 51.5C33.49 51.39 33.47 51.27 33.47 51.13H33.46Z" fill="#333333"/>
<path d="M8.02002 6.79001C8.02002 6.95001 7.98002 7.11999 7.90002 7.29999C7.78002 7.55999 7.56004 7.83999 7.26004 8.14999C7.01004 8.39999 6.80002 8.58 6.65002 8.69C6.41002 8.85 6.16003 8.92999 5.91003 8.92999C5.69003 8.92999 5.50002 8.89001 5.33002 8.79001C5.14002 8.68001 5.04004 8.53001 5.04004 8.35001C5.04004 8.22001 5.16003 8 5.41003 7.69C5.66003 7.38 5.83003 7.22 5.94003 7.22C6.03003 7.22 6.07004 7.25001 6.07004 7.32001C6.07004 7.39001 6.00002 7.51 5.86002 7.69C5.79002 7.77 5.76004 7.83 5.76004 7.88C5.80004 7.95 5.83004 8.00001 5.88004 8.04001C6.00004 8.15001 6.17004 8.20999 6.38004 8.20999C6.56004 8.20999 6.73003 8.15001 6.87003 8.04001C7.05003 7.90001 7.14005 7.72001 7.14005 7.48001C7.14005 7.31001 7.09003 7.15999 7.00003 7.01999C6.92003 6.90999 6.83003 6.83 6.72003 6.78C6.57003 6.7 6.41003 6.66 6.25003 6.66C6.08003 6.66 6.00003 6.61999 6.00003 6.54999C6.00003 6.51999 6.10002 6.37 6.30002 6.12C6.46002 5.93 6.61004 5.71001 6.76004 5.48001C6.72004 5.44001 6.68002 5.41 6.65002 5.41H5.72003C5.72003 5.41 5.60003 5.45999 5.47003 5.54999C5.35003 5.64999 5.26003 5.70001 5.22003 5.70001C5.14003 5.70001 5.10004 5.66999 5.10004 5.60999C5.10004 5.56999 5.15002 5.49999 5.24002 5.39999C5.34002 5.28999 5.47002 5.15 5.65002 4.97C5.85002 4.77 5.98004 4.63999 6.04004 4.60999C6.14004 4.52999 6.23004 4.48999 6.29004 4.48999H7.85004C7.85004 4.48999 7.87004 4.50999 7.88004 4.51999C7.88004 4.51999 7.88004 4.55 7.88004 4.59C7.88004 4.71 7.74002 4.90999 7.46002 5.17999C7.18002 5.45999 7.04004 5.65 7.04004 5.75C7.04004 5.78 7.15003 5.83 7.37003 5.91C7.52003 5.97 7.65003 6.04001 7.75003 6.14001C7.83003 6.22001 7.90004 6.31001 7.95004 6.42001C8.00004 6.53001 8.02002 6.65001 8.02002 6.79001Z" fill="#333333"/>
<g style="mix-blend-mode:color-burn" opacity="0.2">
<path d="M24.55 10.29C24.55 9.33001 20.35 5.20001 20.35 5.20001V15.11H22.31L20.75 12.43C21.13 12.66 21.57 12.79 22.04 12.8C23.43 12.8 24.55 11.68 24.55 10.29Z" fill="#616161"/>
</g>
<g style="mix-blend-mode:color-burn" opacity="0.2">
<path d="M24.55 28.89C24.55 27.93 20.35 23.8 20.35 23.8V33.71H22.31L20.75 31.03C21.13 31.25 21.57 31.39 22.04 31.39C23.43 31.39 24.55 30.27 24.55 28.88V28.89Z" fill="#616161"/>
</g>
<g style="mix-blend-mode:color-burn" opacity="0.2">
<path d="M24.55 46.76C24.55 47.72 20.35 51.85 20.35 51.85V41.94H22.31L20.75 44.62C21.12 44.39 21.57 44.26 22.04 44.25C23.43 44.25 24.55 45.37 24.55 46.76Z" fill="#616161"/>
</g>
<g style="mix-blend-mode:color-burn" opacity="0.2">
<path d="M7.48999 11.93C7.48999 11.67 6.37 10.57 6.37 10.57V13.21H6.89999L6.48001 12.5C6.58001 12.56 6.69999 12.6 6.82999 12.6C7.19999 12.6 7.5 12.3 7.5 11.93H7.48999Z" fill="#616161"/>
</g>
<g style="mix-blend-mode:color-burn" opacity="0.2">
<path d="M33.97 46.07C33.97 46.33 35.09 47.43 35.09 47.43V44.79H34.57L34.99 45.51C34.89 45.45 34.77 45.41 34.64 45.41C34.27 45.41 33.97 45.71 33.97 46.08V46.07Z" fill="#616161"/>
</g>
<path d="M24.33 8.44003C24.22 10.35 20.4 13.24 20.4 13.24C20.4 13.24 16.47 10.32 16.47 8.41003C16.47 7.10003 17.55 6.04004 18.86 6.04004C19.6 6.04004 20.42 6.70004 20.42 6.70004C20.42 6.70004 21.2 6.04002 21.96 6.05002C23.27 6.07002 24.4 7.12002 24.33 8.43002V8.44003Z" fill="#D66142"/>
<g style="mix-blend-mode:color-burn" opacity="0.2">
<path d="M21.96 6.05999C21.2 6.04999 20.42 6.70998 20.42 6.70998C20.42 6.70998 20.42 6.70999 20.4 6.68999V13.24H20.41C20.41 13.24 24.23 10.34 24.34 8.43999C24.41 7.12999 23.28 6.06999 21.97 6.05999H21.96Z" fill="#616161"/>
</g>
<path d="M24.33 26.84C24.22 28.75 20.4 31.64 20.4 31.64C20.4 31.64 16.47 28.72 16.47 26.82C16.47 25.5 17.55 24.44 18.86 24.44C19.6 24.44 20.42 25.11 20.42 25.11C20.42 25.11 21.2 24.44 21.96 24.46C23.27 24.48 24.4 25.53 24.33 26.85V26.84Z" fill="#D66142"/>
<g style="mix-blend-mode:color-burn" opacity="0.2">
<path d="M21.96 24.45C21.2 24.44 20.42 25.1 20.42 25.1C20.42 25.1 20.42 25.1 20.4 25.08V31.63H20.41C20.41 31.63 24.23 28.74 24.34 26.83C24.41 25.51 23.28 24.46 21.97 24.44L21.96 24.45Z" fill="#616161"/>
</g>
<path d="M16.4201 47.63C16.5201 45.73 20.3501 42.83 20.3501 42.83C20.3501 42.83 24.2801 45.75 24.2801 47.66C24.2801 48.97 23.2101 50.03 21.8901 50.03C21.1601 50.03 20.3301 49.37 20.3301 49.37C20.3301 49.37 19.5501 50.03 18.8001 50.02C17.4801 50 16.3501 48.95 16.4201 47.63Z" fill="#D66142"/>
<g style="mix-blend-mode:color-burn" opacity="0.2">
<path d="M18.7901 50.02C19.5501 50.03 20.3201 49.37 20.3201 49.37C20.3201 49.37 20.3301 49.37 20.3501 49.39V42.84C20.3501 42.84 16.5301 45.74 16.4201 47.64C16.3501 48.95 17.4801 50.01 18.8001 50.03L18.7901 50.02Z" fill="#616161"/>
</g>
<path d="M7.51001 11.72C7.47001 12.39 6.13 13.41 6.13 13.41C6.13 13.41 4.75 12.38 4.75 11.71C4.75 11.25 5.13 10.88 5.59 10.88C5.85 10.88 6.14001 11.11 6.14001 11.11C6.14001 11.11 6.40999 10.88 6.67999 10.88C7.13999 10.88 7.54001 11.26 7.51001 11.72Z" fill="#D66142"/>
<g style="mix-blend-mode:color-burn" opacity="0.2">
<path d="M6.67999 10.88C6.40999 10.88 6.14001 11.11 6.14001 11.11V13.41C6.14001 13.41 7.47999 12.39 7.51999 11.72C7.53999 11.26 7.15 10.89 6.69 10.88H6.67999Z" fill="#616161"/>
</g>
<path d="M33.36 46.38C33.4 45.7 34.77 44.66 34.77 44.66C34.77 44.66 36.18 45.71 36.18 46.39C36.18 46.86 35.79 47.24 35.33 47.24C35.06 47.24 34.77 47 34.77 47C34.77 47 34.49 47.24 34.22 47.23C33.75 47.23 33.34 46.85 33.37 46.37L33.36 46.38Z" fill="#D66142"/>
<g style="mix-blend-mode:color-burn" opacity="0.2">
<path d="M34.2099 47.23C34.4799 47.23 34.76 47 34.76 47V44.65C34.76 44.65 33.39 45.69 33.35 46.37C33.33 46.84 33.73 47.22 34.2 47.23H34.2099Z" fill="#616161"/>
</g>
</svg>
