<svg width="41" height="56" viewBox="0 0 41 56" fill="none" xmlns="http://www.w3.org/2000/svg">
<path d="M4.64001 55.93C2.29001 55.93 0.369985 54.06 0.359985 51.74L0.23999 4.43997C0.23999 2.10997 2.15001 0.219971 4.51001 0.219971L35.77 0.279968C38.12 0.279968 40.04 2.17997 40.04 4.49997V51.7C40.04 54 38.13 55.89 35.79 55.89L4.64001 55.93Z" fill="#C9C9C9"/>
<path d="M5.03006 55.81C2.71006 55.81 0.820068 53.93 0.820068 51.61V4.41998C0.820068 2.10998 2.71006 0.219971 5.03006 0.219971H35.83C38.16 0.219971 40.0401 2.09998 40.0401 4.41998V51.61C40.0401 53.92 38.15 55.81 35.83 55.81H5.03006Z" fill="white"/>
<path d="M33.51 50.45C33.51 50.29 33.55 50.12 33.63 49.94C33.75 49.68 33.96 49.4 34.27 49.09C34.53 48.83 34.73 48.65 34.88 48.55C35.12 48.39 35.37 48.31 35.62 48.31C35.84 48.31 36.03 48.36 36.2 48.45C36.39 48.56 36.49 48.7 36.49 48.89C36.49 49.01 36.37 49.23 36.12 49.54C35.87 49.85 35.7 50.01 35.59 50.01C35.5 50.01 35.46 49.98 35.46 49.91C35.46 49.85 35.53 49.72 35.67 49.55C35.74 49.47 35.77 49.4 35.77 49.36C35.73 49.29 35.7 49.23 35.65 49.2C35.53 49.09 35.36 49.03 35.15 49.03C34.97 49.03 34.8 49.09 34.66 49.2C34.48 49.34 34.39 49.52 34.39 49.75C34.39 49.92 34.44 50.07 34.53 50.21C34.6 50.32 34.7 50.4 34.81 50.45C34.96 50.52 35.12 50.56 35.28 50.57C35.45 50.57 35.53 50.61 35.53 50.68C35.53 50.71 35.43 50.86 35.22 51.11C35.06 51.31 34.91 51.52 34.76 51.75C34.81 51.79 34.84 51.82 34.87 51.82H35.8C35.8 51.82 35.92 51.77 36.05 51.67C36.17 51.57 36.26 51.53 36.3 51.53C36.38 51.53 36.42 51.56 36.42 51.62C36.42 51.65 36.37 51.73 36.28 51.83C36.18 51.94 36.05 52.08 35.87 52.26C35.67 52.46 35.54 52.58 35.49 52.63C35.38 52.71 35.3 52.75 35.24 52.75H33.68C33.68 52.75 33.66 52.73 33.65 52.72C33.65 52.72 33.65 52.68 33.65 52.64C33.65 52.52 33.79 52.33 34.07 52.05C34.35 51.77 34.49 51.59 34.49 51.48C34.49 51.45 34.38 51.4 34.16 51.32C34.01 51.26 33.88 51.19 33.78 51.1C33.7 51.02 33.63 50.93 33.58 50.82C33.53 50.71 33.51 50.59 33.51 50.45Z" fill="#333333"/>
<path d="M8.06998 6.10999C8.06998 6.26999 8.02998 6.44 7.94998 6.62C7.82998 6.88 7.60997 7.16 7.30997 7.47C7.04997 7.73 6.84998 7.91001 6.69998 8.01001C6.45998 8.17001 6.20996 8.25 5.95996 8.25C5.73996 8.25 5.54997 8.19999 5.37997 8.10999C5.17997 7.99999 5.08997 7.85001 5.08997 7.67001C5.08997 7.55001 5.20996 7.32999 5.45996 7.01999C5.70996 6.70999 5.87996 6.54999 5.98996 6.54999C6.07996 6.54999 6.11996 6.57999 6.11996 6.64999C6.11996 6.71999 6.04997 6.83999 5.90997 7.01999C5.83997 7.09999 5.80997 7.15999 5.80997 7.20999C5.84997 7.27999 5.87996 7.33 5.92996 7.37C6.04996 7.48 6.21996 7.53 6.42996 7.53C6.60996 7.53 6.77996 7.46999 6.92996 7.35999C7.10996 7.21999 7.19998 7.04 7.19998 6.81C7.19998 6.64 7.14997 6.49001 7.05997 6.35001C6.98997 6.24001 6.88997 6.15999 6.77997 6.10999C6.62997 6.03999 6.46997 5.99999 6.30997 5.98999C6.13997 5.98999 6.05997 5.95 6.05997 5.88C6.05997 5.85 6.15996 5.71001 6.36996 5.45001C6.52996 5.25001 6.67996 5.04 6.82996 4.81C6.78996 4.77 6.74997 4.73999 6.71997 4.73999H5.78998C5.78998 4.73999 5.66998 4.79 5.53998 4.88C5.41998 4.98 5.32998 5.03 5.28998 5.03C5.20998 5.03 5.16998 5 5.16998 4.94C5.16998 4.91 5.21997 4.84001 5.30997 4.73001C5.39997 4.62001 5.53997 4.47999 5.71997 4.29999C5.92997 4.09999 6.04998 3.96999 6.09998 3.92999C6.20998 3.84999 6.28998 3.81 6.34998 3.81H7.90997C7.90997 3.81 7.92997 3.83 7.93997 3.84C7.93997 3.84 7.93997 3.87 7.93997 3.91C7.93997 4.03 7.79996 4.22 7.51996 4.5C7.23996 4.78 7.09998 4.97001 7.09998 5.07001C7.09998 5.10001 7.20997 5.15001 7.43997 5.23001C7.58997 5.29001 7.71998 5.35999 7.81998 5.45999C7.89998 5.53999 7.96996 5.62999 8.01996 5.73999C8.06996 5.84999 8.08997 5.96999 8.08997 6.10999H8.06998Z" fill="#333333"/>
<path d="M24.6001 9.60001C24.6001 8.64001 20.4001 4.51001 20.4001 4.51001C20.4001 4.51001 16.3101 8.77 16.3101 9.59C16.3101 10.97 17.4301 12.1 18.8101 12.1C19.2801 12.1 19.7301 11.97 20.1001 11.74L18.5301 14.42H22.3501L20.7901 11.74C21.1601 11.97 21.61 12.1 22.08 12.1C23.47 12.1 24.6001 10.98 24.6001 9.59V9.60001Z" fill="#333333"/>
<g style="mix-blend-mode:color-burn" opacity="0.2">
<path d="M24.6 9.60001C24.6 8.64001 20.4 4.51001 20.4 4.51001V14.42H22.36L20.8 11.74C21.17 11.97 21.62 12.1 22.09 12.1C23.48 12.1 24.61 10.98 24.61 9.59L24.6 9.60001Z" fill="#616161"/>
</g>
<path d="M24.6001 28.2C24.6001 27.24 20.4001 23.11 20.4001 23.11C20.4001 23.11 16.3101 27.37 16.3101 28.18C16.3101 29.57 17.4301 30.69 18.8101 30.69C19.2801 30.69 19.7301 30.56 20.1001 30.33L18.5301 33.01H22.3501L20.7901 30.33C21.1601 30.56 21.61 30.69 22.08 30.7C23.47 30.7 24.6001 29.58 24.6001 28.19V28.2Z" fill="#333333"/>
<g style="mix-blend-mode:color-burn" opacity="0.2">
<path d="M24.6 28.2C24.6 27.24 20.4 23.11 20.4 23.11V33.02H22.36L20.8 30.34C21.17 30.57 21.62 30.7 22.09 30.71C23.48 30.71 24.61 29.59 24.61 28.2H24.6Z" fill="#616161"/>
</g>
<path d="M24.6001 46.08C24.6001 47.04 20.4001 51.17 20.4001 51.17C20.4001 51.17 16.3101 46.92 16.3101 46.1C16.3101 44.71 17.4301 43.59 18.8101 43.59C19.2801 43.59 19.7301 43.72 20.1001 43.95L18.5301 41.27H22.3501L20.7901 43.95C21.1601 43.72 21.61 43.59 22.08 43.58C23.47 43.58 24.6001 44.7 24.6001 46.09V46.08Z" fill="#333333"/>
<g style="mix-blend-mode:color-burn" opacity="0.2">
<path d="M24.6 46.08C24.6 47.04 20.4 51.17 20.4 51.17V41.26H22.36L20.8 43.95C21.17 43.72 21.62 43.59 22.09 43.58C23.48 43.58 24.61 44.7 24.61 46.09L24.6 46.08Z" fill="#616161"/>
</g>
<path d="M7.54996 11.25C7.54996 10.99 6.42996 9.89001 6.42996 9.89001C6.42996 9.89001 5.33997 11.02 5.33997 11.24C5.33997 11.61 5.63998 11.91 6.00998 11.91C6.13998 11.91 6.25995 11.87 6.35995 11.82L5.93997 12.53H6.95996L6.53998 11.82C6.63998 11.88 6.75998 11.91 6.88998 11.91C7.25998 11.91 7.55997 11.61 7.55997 11.24L7.54996 11.25Z" fill="#333333"/>
<g style="mix-blend-mode:color-burn" opacity="0.2">
<path d="M7.54993 11.25C7.54993 10.99 6.42993 9.89001 6.42993 9.89001V12.53H6.94995L6.52994 11.82C6.62994 11.88 6.74994 11.91 6.87994 11.91C7.24994 11.91 7.54993 11.61 7.54993 11.24V11.25Z" fill="#616161"/>
</g>
<path d="M34.02 45.38C34.02 45.64 35.14 46.74 35.14 46.74C35.14 46.74 36.23 45.6 36.23 45.39C36.23 45.02 35.93 44.72 35.56 44.72C35.43 44.72 35.31 44.75 35.21 44.82L35.63 44.11H34.61L35.03 44.82C34.93 44.76 34.81 44.72 34.68 44.72C34.31 44.72 34.01 45.02 34.01 45.39L34.02 45.38Z" fill="#333333"/>
<g style="mix-blend-mode:color-burn" opacity="0.2">
<path d="M34.02 45.38C34.02 45.64 35.14 46.74 35.14 46.74V44.1H34.62L35.04 44.82C34.94 44.76 34.82 44.72 34.69 44.72C34.32 44.72 34.02 45.02 34.02 45.39V45.38Z" fill="#616161"/>
</g>
</svg>
