<svg width="39" height="54" viewBox="0 0 39 54" fill="none" xmlns="http://www.w3.org/2000/svg">
<path d="M4.61996 53.29C2.37996 53.29 0.549955 51.5 0.579955 49.3L0.45996 4.27999C0.42996 2.05999 2.24997 0.26 4.49997 0.27L34.25 0.320003C36.49 0.320003 38.31 2.12999 38.34 4.33999V49.26C38.31 51.46 36.5 53.24 34.27 53.25L4.62997 53.29H4.61996Z" fill="#C9C9C9"/>
<path d="M5.00003 53.18C2.79003 53.18 0.990023 51.39 1.02002 49.19V4.28003C0.990023 2.07003 2.79003 0.280029 5.00003 0.280029H34.31C36.52 0.280029 38.32 2.07003 38.35 4.28003V49.19C38.32 51.39 36.53 53.18 34.31 53.18H5.00003Z" fill="white"/>
<path d="M5.66006 5.52002C5.66006 5.59002 5.64006 5.66002 5.59006 5.72002C5.53006 5.79002 5.49007 5.84002 5.48007 5.86002C5.29007 6.15002 5.14005 6.34001 5.02005 6.45001C4.92005 6.51001 4.83007 6.57001 4.73007 6.64001C4.70007 6.68001 4.68005 6.73001 4.68005 6.79001C4.69005 6.84001 4.70007 6.88001 4.70007 6.90001C4.70007 7.01001 4.70006 7.10001 4.72006 7.18001C4.74006 7.26001 4.76006 7.30002 4.78006 7.30002C4.81006 7.30002 4.85007 7.28001 4.88007 7.26001C5.00007 7.16001 5.07007 7.11002 5.10007 7.10002C5.13007 7.15002 5.14008 7.18002 5.14008 7.19002C5.14008 7.25002 5.03007 7.38002 4.82007 7.58002C4.57007 7.82002 4.33006 7.94002 4.12006 7.94002C3.96006 7.94002 3.87005 7.73002 3.83005 7.33002C3.79005 6.92002 3.75005 6.70001 3.71005 6.65001H2.36005C2.36005 6.65001 2.32006 6.62001 2.31006 6.62001C2.31006 6.62001 2.31006 6.58001 2.31006 6.53001C2.31006 6.46001 2.40005 6.29001 2.58005 6.03001C2.74005 5.79001 2.99005 5.47002 3.33005 5.05002C3.43005 4.92002 3.54005 4.79002 3.65005 4.66002C3.72005 4.58002 3.81005 4.47002 3.93005 4.35002C4.05005 4.23002 4.18007 4.08001 4.32007 3.92001C4.44007 3.78001 4.54005 3.71002 4.61005 3.71002L4.69006 3.73001V5.78001C4.75006 5.81001 4.80005 5.83002 4.83005 5.83002C4.86005 5.83002 4.88008 5.83002 4.89008 5.83002C5.05008 5.83002 5.19007 5.78001 5.32007 5.68001C5.41007 5.60001 5.51005 5.51001 5.61005 5.43001C5.63005 5.43001 5.64005 5.45002 5.65005 5.46002C5.65005 5.46002 5.66006 5.50002 5.66006 5.55002V5.52002ZM3.76007 5.73001V5.44002C3.76007 5.37002 3.76005 5.28001 3.74005 5.18001C3.66005 5.25001 3.55006 5.37001 3.41006 5.54001C3.37006 5.59001 3.31005 5.67002 3.24005 5.77002L3.29007 5.79001H3.68005L3.76007 5.73001Z" fill="#333333"/>
<path d="M33.89 48.43C33.89 48.36 33.91 48.29 33.96 48.23C34.02 48.16 34.06 48.11 34.07 48.09C34.26 47.8 34.41 47.6 34.53 47.5C34.63 47.44 34.72 47.38 34.82 47.31C34.85 47.27 34.87 47.22 34.87 47.16C34.87 47.11 34.85 47.07 34.85 47.05C34.85 46.94 34.85 46.85 34.83 46.77C34.82 46.69 34.79 46.65 34.77 46.65C34.73 46.65 34.7 46.66 34.67 46.69C34.55 46.79 34.48 46.84 34.45 46.85C34.42 46.8 34.41 46.76 34.41 46.76C34.41 46.7 34.52 46.57 34.73 46.37C34.98 46.13 35.22 46.01 35.43 46.01C35.59 46.01 35.68 46.21 35.73 46.62C35.77 47.03 35.81 47.25 35.85 47.3H37.2C37.2 47.3 37.24 47.33 37.25 47.33C37.25 47.33 37.25 47.37 37.25 47.42C37.25 47.49 37.16 47.66 36.98 47.92C36.82 48.16 36.57 48.48 36.23 48.9C36.12 49.03 36.02 49.16 35.91 49.29C35.84 49.37 35.74 49.48 35.63 49.6C35.51 49.72 35.38 49.87 35.24 50.03C35.12 50.17 35.03 50.25 34.96 50.25L34.88 50.23V48.18C34.82 48.15 34.77 48.13 34.74 48.13C34.71 48.13 34.69 48.13 34.68 48.13C34.52 48.13 34.38 48.18 34.25 48.28C34.16 48.37 34.06 48.45 33.97 48.54C33.95 48.53 33.94 48.52 33.93 48.51C33.93 48.51 33.92 48.47 33.92 48.42L33.89 48.43ZM35.79 48.22V48.51C35.79 48.58 35.79 48.67 35.81 48.77C35.89 48.7 36 48.58 36.13 48.41C36.17 48.36 36.23 48.28 36.3 48.18L36.25 48.16H35.86L35.78 48.22H35.79Z" fill="#333333"/>
<path d="M28.77 8.15999C28.81 7.99999 28.83 7.83998 28.83 7.66998C28.83 6.44998 27.84 5.45998 26.63 5.46998C25.41 5.46998 24.43 6.44998 24.42 7.66998C24.42 7.92998 24.47 8.17999 24.55 8.40999C23.47 8.49999 22.63 9.38999 22.63 10.49C22.63 11.64 23.57 12.57 24.72 12.57C25.03 12.57 26.11 12.23 26.35 12.1L24.94 14.52H28.38L26.97 12.1C27.25 12.27 28.46 12.57 28.75 12.57C29.97 12.57 30.96 11.58 30.95 10.36C30.95 9.15998 29.98 8.17999 28.78 8.15999H28.77Z" fill="#333333"/>
<g style="mix-blend-mode:color-burn" opacity="0.2">
<path d="M28.77 8.15999C28.81 7.99999 28.83 7.83998 28.83 7.66998C28.83 6.44998 27.84 5.45998 26.63 5.46998V14.52H28.39L26.98 12.1C27.26 12.27 28.47 12.57 28.76 12.57C29.98 12.57 30.97 11.58 30.96 10.36C30.96 9.15998 29.99 8.17999 28.79 8.15999H28.77Z" fill="#616161"/>
</g>
<path d="M28.77 45.41C28.81 45.57 28.83 45.73 28.83 45.9C28.83 47.12 27.84 48.1 26.63 48.1C25.41 48.1 24.43 47.12 24.42 45.9C24.42 45.64 24.47 45.39 24.55 45.15C23.47 45.07 22.63 44.17 22.63 43.08C22.63 41.93 23.57 41 24.72 41C25.03 41 26.11 41.34 26.35 41.47L24.94 39.05H28.38L26.97 41.47C27.25 41.3 28.46 41 28.75 41C29.97 41 30.96 41.99 30.95 43.21C30.95 44.41 29.98 45.39 28.78 45.41H28.77Z" fill="#333333"/>
<g style="mix-blend-mode:color-burn" opacity="0.2">
<path d="M28.77 45.41C28.81 45.57 28.83 45.73 28.83 45.9C28.83 47.12 27.84 48.1 26.63 48.1V39.05H28.39L26.98 41.47C27.26 41.3 28.47 41 28.76 41C29.98 41 30.97 41.99 30.96 43.21C30.96 44.41 29.99 45.39 28.79 45.41H28.77Z" fill="#616161"/>
</g>
<path d="M10.5999 8.15999C10.5699 7.99999 10.5399 7.83998 10.5499 7.66998C10.5499 6.44998 11.5399 5.45998 12.7599 5.46998C13.9799 5.46998 14.9599 6.44998 14.9599 7.66998C14.9599 7.92998 14.9199 8.17999 14.8299 8.40999C15.8999 8.49999 16.7499 9.38999 16.7499 10.49C16.7499 11.64 15.82 12.57 14.67 12.57C14.36 12.57 13.2699 12.23 13.0399 12.1L14.45 14.52H11.0099L12.42 12.1C12.14 12.27 10.94 12.57 10.64 12.57C9.41995 12.57 8.42993 11.58 8.42993 10.36C8.42993 9.15998 9.39995 8.17999 10.5999 8.15999Z" fill="#333333"/>
<g style="mix-blend-mode:color-burn" opacity="0.2">
<path d="M10.6 8.15999C10.57 7.99999 10.54 7.83998 10.55 7.66998C10.55 6.44998 11.54 5.45998 12.76 5.46998V14.52H11L12.41 12.1C12.13 12.27 10.93 12.57 10.63 12.57C9.41004 12.57 8.42004 11.58 8.42004 10.36C8.42004 9.15998 9.39003 8.17999 10.59 8.15999H10.6Z" fill="#616161"/>
</g>
<path d="M10.5999 45.41C10.5699 45.57 10.5399 45.73 10.5499 45.9C10.5499 47.12 11.5399 48.1 12.7599 48.1C13.9799 48.1 14.9599 47.12 14.9599 45.9C14.9599 45.64 14.9199 45.39 14.8299 45.15C15.8999 45.07 16.7499 44.17 16.7499 43.08C16.7499 41.93 15.82 41 14.67 41C14.36 41 13.2699 41.34 13.0399 41.47L14.45 39.05H11.0099L12.42 41.47C12.14 41.3 10.94 41 10.64 41C9.41995 41 8.42993 41.99 8.42993 43.21C8.42993 44.41 9.39995 45.39 10.5999 45.41Z" fill="#333333"/>
<g style="mix-blend-mode:color-burn" opacity="0.2">
<path d="M10.6 45.41C10.57 45.57 10.54 45.73 10.55 45.9C10.55 47.12 11.54 48.1 12.76 48.1V39.05H11L12.41 41.47C12.13 41.3 10.93 41 10.63 41C9.41004 41 8.42004 41.99 8.42004 43.21C8.42004 44.41 9.39003 45.39 10.59 45.41H10.6Z" fill="#616161"/>
</g>
<path d="M4.47006 10.35C4.47006 10.35 4.48007 10.28 4.48007 10.24C4.48007 9.95999 4.26007 9.73999 3.98007 9.73999C3.70007 9.73999 3.48007 9.95999 3.48007 10.24C3.48007 10.3 3.49007 10.36 3.51007 10.41C3.26007 10.43 3.07007 10.63 3.07007 10.88C3.07007 11.14 3.28005 11.36 3.55005 11.36C3.62005 11.36 3.87007 11.28 3.92007 11.25L3.60007 11.8H4.39008L4.07007 11.25C4.13007 11.29 4.41007 11.36 4.48007 11.36C4.76007 11.36 4.98007 11.13 4.98007 10.85C4.98007 10.57 4.76007 10.35 4.48007 10.35H4.47006Z" fill="#333333"/>
<g style="mix-blend-mode:color-burn" opacity="0.2">
<path d="M4.46997 10.35C4.46997 10.35 4.47998 10.28 4.47998 10.24C4.47998 9.95999 4.25998 9.73999 3.97998 9.73999V11.81H4.37997L4.05997 11.26C4.11997 11.3 4.39997 11.37 4.46997 11.37C4.74997 11.37 4.96997 11.14 4.96997 10.86C4.96997 10.58 4.74997 10.36 4.46997 10.36V10.35Z" fill="#616161"/>
</g>
<path d="M35.9501 43.71C35.9501 43.71 35.9601 43.78 35.9601 43.82C35.9601 44.1 35.7301 44.32 35.4601 44.32C35.1801 44.32 34.9601 44.1 34.9601 43.82C34.9601 43.76 34.9701 43.7 34.9901 43.65C34.7401 43.63 34.55 43.43 34.55 43.18C34.55 42.92 34.7601 42.71 35.0301 42.71C35.1001 42.71 35.3501 42.79 35.4001 42.82L35.08 42.27H35.8701L35.55 42.82C35.61 42.78 35.8901 42.71 35.9601 42.71C36.2401 42.71 36.4601 42.94 36.4601 43.21C36.4601 43.48 36.2401 43.71 35.9601 43.71H35.9501Z" fill="#333333"/>
<g style="mix-blend-mode:color-burn" opacity="0.2">
<path d="M35.95 43.71C35.95 43.71 35.96 43.78 35.96 43.82C35.96 44.1 35.73 44.32 35.46 44.32V42.26H35.86L35.54 42.81C35.6 42.77 35.88 42.7 35.95 42.7C36.23 42.7 36.45 42.93 36.45 43.2C36.45 43.47 36.23 43.7 35.95 43.7V43.71Z" fill="#616161"/>
</g>
</svg>
