<svg width="40" height="56" viewBox="0 0 40 56" fill="none" xmlns="http://www.w3.org/2000/svg">
<path d="M4.49004 55.52C2.17004 55.52 0.280029 53.67 0.280029 51.4L0.160034 4.81999C0.160034 2.52999 2.04003 0.669983 4.37003 0.669983L35.15 0.72998C37.47 0.72998 39.35 2.59998 39.35 4.88998V51.37C39.35 53.64 37.47 55.49 35.16 55.49L4.49004 55.53V55.52Z" fill="#C9C9C9"/>
<path d="M4.87999 55.41C2.58999 55.41 0.72998 53.55 0.72998 51.28V4.81C0.72998 2.53 2.58999 0.679993 4.87999 0.679993H35.21C37.5 0.679993 39.36 2.53 39.36 4.81V51.28C39.36 53.56 37.5 55.41 35.21 55.41H4.87999Z" fill="white"/>
<path d="M27.3901 4.60999L23.3 9.77998L27.3901 14.94L31.4801 9.77998L27.3901 4.60999Z" fill="#D66142"/>
<g style="mix-blend-mode:color-burn" opacity="0.2">
<path d="M27.36 4.64998L27.39 4.60999L31.48 9.77998L27.39 14.94L27.36 14.91V4.64998Z" fill="#616161"/>
</g>
<path d="M12.69 41.14L16.78 46.3L12.69 51.47L8.59998 46.3L12.69 41.14Z" fill="#D66142"/>
<g style="mix-blend-mode:color-burn" opacity="0.2">
<path d="M12.72 41.17L12.69 41.14L8.59998 46.3L12.69 51.47L12.72 51.43V41.17Z" fill="#616161"/>
</g>
<path d="M12.69 4.60999L16.78 9.77998L12.69 14.94L8.59998 9.77998L12.69 4.60999Z" fill="#D66142"/>
<g style="mix-blend-mode:color-burn" opacity="0.2">
<path d="M12.72 4.64998L12.69 4.60999L8.59998 9.77998L12.69 14.94L12.72 14.91V4.64998Z" fill="#616161"/>
</g>
<path d="M27.3901 41.14L23.3 46.3L27.3901 51.47L31.4801 46.3L27.3901 41.14Z" fill="#D66142"/>
<g style="mix-blend-mode:color-burn" opacity="0.2">
<path d="M27.36 41.17L27.39 41.14L31.48 46.3L27.39 51.47L27.36 51.43V41.17Z" fill="#616161"/>
</g>
<path d="M3.98004 13.12L2.79004 11.62L3.98004 10.11L5.18004 11.62L3.98004 13.12Z" fill="#D66142"/>
<g style="mix-blend-mode:color-burn" opacity="0.2">
<path d="M3.97998 10.11V10.13V13.11V13.12L5.17998 11.62L3.97998 10.11Z" fill="#616161"/>
</g>
<path d="M5.56999 6.09998C5.56999 6.16998 5.54998 6.23997 5.49998 6.30997C5.43998 6.37997 5.39999 6.42997 5.37999 6.44997C5.17999 6.73997 5.01999 6.94997 4.90999 7.05997C4.80999 7.11997 4.70999 7.18997 4.60999 7.24997C4.57999 7.28997 4.55998 7.33996 4.55998 7.39996C4.56998 7.44996 4.57999 7.48997 4.57999 7.51997C4.57999 7.62997 4.57999 7.72997 4.59999 7.80997C4.61999 7.88997 4.63998 7.92996 4.66998 7.92996C4.70998 7.92996 4.73998 7.91997 4.77998 7.88997C4.89998 7.78997 4.97998 7.73997 5.00998 7.71997C5.03998 7.76997 5.04999 7.80998 5.04999 7.81998C5.04999 7.87998 4.93999 8.01997 4.71999 8.21997C4.45999 8.46997 4.20999 8.58997 3.98999 8.58997C3.82999 8.58997 3.72998 8.37998 3.67998 7.95998C3.63998 7.52998 3.59998 7.29996 3.55998 7.25996H2.15999C2.15999 7.25996 2.11999 7.22997 2.10999 7.22997C2.10999 7.22997 2.10999 7.18997 2.10999 7.13997C2.10999 7.05997 2.19998 6.88996 2.38998 6.61996C2.55998 6.36996 2.81998 6.03997 3.16998 5.60997C3.27998 5.47997 3.38998 5.33998 3.49998 5.20998C3.56998 5.12998 3.66998 5.01997 3.78998 4.88997C3.90998 4.75997 4.04999 4.60997 4.18999 4.43997C4.30999 4.28997 4.40998 4.21997 4.47998 4.21997L4.55998 4.23997V6.35997C4.61998 6.38997 4.66999 6.40997 4.70999 6.40997C4.73999 6.40997 4.75998 6.40997 4.77998 6.40997C4.93998 6.40997 5.08999 6.35997 5.21999 6.24997C5.31999 6.15997 5.40998 6.06997 5.50998 5.97997C5.52998 5.98997 5.53999 5.99996 5.54999 6.00996C5.55999 6.00996 5.56999 6.04997 5.56999 6.10997V6.09998ZM3.60999 6.31998V6.01997C3.60999 5.93997 3.60998 5.84997 3.58998 5.74997C3.50998 5.81997 3.38998 5.94996 3.24998 6.11996C3.20998 6.17996 3.14999 6.25997 3.06999 6.35997L3.11998 6.37997H3.51999L3.59999 6.31998H3.60999Z" fill="#333333"/>
<path d="M34.77 50.5C34.77 50.43 34.79 50.36 34.84 50.29C34.9 50.22 34.94 50.17 34.96 50.15C35.16 49.86 35.32 49.65 35.43 49.54C35.53 49.47 35.63 49.41 35.73 49.35C35.76 49.31 35.78 49.25 35.78 49.2C35.78 49.15 35.76 49.11 35.76 49.08C35.76 48.97 35.76 48.87 35.74 48.79C35.72 48.71 35.7 48.66 35.67 48.66C35.63 48.66 35.6 48.68 35.56 48.7C35.44 48.8 35.36 48.86 35.33 48.87C35.3 48.82 35.29 48.78 35.29 48.77C35.29 48.71 35.4 48.58 35.62 48.37C35.89 48.12 36.13 48 36.35 48C36.51 48 36.61 48.21 36.66 48.63C36.7 49.05 36.74 49.29 36.78 49.33H38.18C38.18 49.33 38.22 49.36 38.23 49.36C38.23 49.36 38.23 49.4 38.23 49.45C38.23 49.53 38.14 49.7 37.96 49.97C37.79 50.21 37.53 50.55 37.18 50.98C37.07 51.11 36.96 51.25 36.85 51.38C36.78 51.46 36.68 51.57 36.55 51.7C36.43 51.83 36.29 51.98 36.15 52.15C36.03 52.3 35.93 52.37 35.85 52.37L35.77 52.35V50.23C35.71 50.2 35.66 50.18 35.62 50.18C35.59 50.18 35.57 50.18 35.55 50.18C35.39 50.18 35.24 50.23 35.11 50.34C35.02 50.43 34.91 50.52 34.82 50.6C34.8 50.59 34.78 50.58 34.77 50.57C34.77 50.57 34.76 50.53 34.76 50.47L34.77 50.5ZM36.73 50.28V50.58C36.73 50.66 36.73 50.75 36.75 50.85C36.83 50.78 36.95 50.65 37.09 50.48C37.13 50.42 37.2 50.34 37.27 50.24L37.22 50.21H36.82L36.74 50.28H36.73Z" fill="#333333"/>
<path d="M36.36 43.47L37.55 44.98L36.36 46.48L35.17 44.98L36.36 43.47Z" fill="#D66142"/>
<g style="mix-blend-mode:color-burn" opacity="0.2">
<path d="M36.36 43.48V43.47L35.17 44.98L36.36 46.48V46.47V43.48Z" fill="#616161"/>
</g>
</svg>
