<svg width="40" height="57" viewBox="0 0 40 57" fill="none" xmlns="http://www.w3.org/2000/svg">
<path d="M4.57993 56.64C2.22993 56.64 0.309927 54.76 0.299927 52.45L0.179932 5.13998C0.179932 2.80998 2.08995 0.919971 4.44995 0.929971L35.7099 0.989984C38.0599 0.989984 39.9799 2.88999 39.9799 5.20999V52.41C39.9799 54.72 38.0699 56.6 35.7299 56.6L4.57993 56.64Z" fill="#C9C9C9"/>
<path d="M4.97 56.52C2.65 56.52 0.76001 54.64 0.76001 52.32V5.13C0.76001 2.81 2.65 0.929993 4.97 0.929993H35.77C38.09 0.929993 39.98 2.81 39.98 5.13V52.32C39.98 54.64 38.09 56.52 35.77 56.52H4.97Z" fill="white"/>
<path d="M5.68002 6.44C5.68002 6.52 5.65004 6.58999 5.60004 6.64999C5.54004 6.71999 5.50004 6.77 5.48004 6.8C5.28004 7.1 5.12003 7.31 5.00003 7.42C4.90003 7.49 4.79004 7.55 4.70004 7.61C4.66004 7.66 4.65002 7.70999 4.65002 7.75999C4.66002 7.80999 4.67004 7.85 4.67004 7.88C4.67004 7.99 4.67003 8.09 4.69003 8.17C4.71003 8.26 4.73004 8.3 4.76004 8.3C4.80004 8.3 4.83003 8.27999 4.87003 8.25999C4.99003 8.15999 5.07004 8.1 5.10004 8.09C5.13004 8.14 5.14005 8.18 5.14005 8.19C5.14005 8.25 5.03002 8.39001 4.80002 8.60001C4.53002 8.85001 4.29003 8.98 4.06003 8.98C3.90003 8.98 3.79003 8.77 3.75003 8.34C3.71003 7.91 3.67004 7.67 3.63004 7.63H2.21002C2.21002 7.63 2.17003 7.6 2.16003 7.59C2.16003 7.59 2.16003 7.55001 2.16003 7.49001C2.16003 7.41001 2.25003 7.24001 2.44003 6.96001C2.61003 6.71001 2.88004 6.36999 3.23004 5.92999C3.34004 5.79999 3.45003 5.66 3.56003 5.52C3.63003 5.43 3.73002 5.32 3.86002 5.19C3.99002 5.06 4.12002 4.91 4.27002 4.73C4.40002 4.58 4.49004 4.5 4.57004 4.5L4.65002 4.52V6.67C4.72002 6.7 4.77002 6.72 4.80002 6.72C4.83002 6.72 4.86003 6.72 4.87003 6.72C5.03003 6.72 5.18003 6.67 5.31003 6.56C5.41003 6.47 5.51002 6.37999 5.61002 6.28999C5.63002 6.29999 5.65003 6.31001 5.66003 6.32001C5.66003 6.32001 5.68002 6.36 5.68002 6.42V6.44ZM3.68002 6.66V6.36C3.68002 6.28 3.68003 6.19 3.66003 6.09C3.58003 6.16 3.46004 6.29 3.32004 6.47C3.28004 6.53 3.21005 6.61 3.14005 6.72L3.19003 6.74001H3.60004L3.68002 6.67V6.66Z" fill="#333333"/>
<path d="M35.33 51.53C35.33 51.46 35.36 51.39 35.4 51.32C35.46 51.25 35.5 51.2 35.52 51.17C35.72 50.87 35.88 50.66 36 50.55C36.11 50.48 36.21 50.42 36.31 50.35C36.34 50.3 36.36 50.25 36.36 50.2C36.36 50.15 36.34 50.11 36.34 50.08C36.34 49.97 36.34 49.88 36.32 49.79C36.3 49.7 36.28 49.66 36.25 49.66C36.21 49.66 36.18 49.68 36.14 49.7C36.02 49.8 35.94 49.86 35.91 49.87C35.88 49.81 35.87 49.78 35.87 49.77C35.87 49.71 35.98 49.57 36.2 49.36C36.47 49.11 36.71 48.98 36.94 48.98C37.1 48.98 37.21 49.19 37.25 49.62C37.29 50.05 37.33 50.29 37.37 50.33H38.79C38.79 50.33 38.84 50.36 38.85 50.36C38.85 50.36 38.85 50.4 38.85 50.46C38.85 50.54 38.76 50.71 38.57 50.99C38.4 51.24 38.14 51.58 37.78 52.02C37.67 52.15 37.56 52.29 37.44 52.43C37.37 52.52 37.27 52.63 37.14 52.76C37.01 52.89 36.88 53.05 36.73 53.22C36.61 53.37 36.51 53.45 36.43 53.45L36.35 53.43V51.28C36.28 51.25 36.23 51.23 36.2 51.23C36.17 51.23 36.15 51.23 36.13 51.23C35.97 51.23 35.82 51.28 35.69 51.39C35.59 51.48 35.49 51.57 35.39 51.66C35.37 51.65 35.36 51.64 35.35 51.63C35.34 51.63 35.33 51.59 35.33 51.53ZM37.33 51.31V51.61C37.33 51.69 37.33 51.78 37.35 51.88C37.43 51.81 37.55 51.68 37.69 51.5C37.74 51.44 37.8 51.36 37.87 51.25L37.82 51.23H37.41L37.32 51.3L37.33 51.31Z" fill="#333333"/>
<g style="mix-blend-mode:color-burn" opacity="0.2">
<path d="M32.14 11.16C32.14 10.2 27.9399 6.07001 27.9399 6.07001C27.9399 6.07001 27.9399 6.07 27.9399 6.08V15.99H29.8999L28.3399 13.31C28.7099 13.54 29.1599 13.67 29.6299 13.67C31.0099 13.67 32.1499 12.55 32.1499 11.16H32.14Z" fill="#616161"/>
</g>
<g style="mix-blend-mode:color-burn" opacity="0.2">
<path d="M9.58005 11.16C9.58005 10.2 13.7701 6.07001 13.7701 6.07001C13.7701 6.07001 13.7701 6.07 13.7701 6.08V15.99H11.8101L13.3701 13.31C13.0001 13.54 12.55 13.67 12.08 13.67C10.7 13.67 9.56006 12.55 9.56006 11.16H9.58005Z" fill="#616161"/>
</g>
<g style="mix-blend-mode:color-burn" opacity="0.2">
<path d="M32.11 46.78C32.11 47.74 27.91 51.87 27.91 51.87V41.96H29.87L28.31 44.64C28.68 44.41 29.13 44.28 29.6 44.28C30.99 44.28 32.11 45.4 32.11 46.79V46.78Z" fill="#616161"/>
</g>
<g style="mix-blend-mode:color-burn" opacity="0.2">
<path d="M9.56006 46.78C9.56006 47.74 13.7601 51.87 13.7601 51.87V41.96H11.8L13.36 44.64C12.99 44.41 12.5401 44.28 12.0701 44.28C10.6901 44.28 9.55005 45.4 9.55005 46.79L9.56006 46.78Z" fill="#616161"/>
</g>
<g style="mix-blend-mode:color-burn" opacity="0.2">
<path d="M5.16003 11.95C5.16003 11.69 4.04004 10.59 4.04004 10.59V13.24H4.56003L4.14005 12.53C4.24005 12.59 4.36002 12.63 4.49002 12.63C4.86002 12.63 5.16003 12.33 5.16003 11.96V11.95Z" fill="#616161"/>
</g>
<g style="mix-blend-mode:color-burn" opacity="0.2">
<path d="M35.97 46.09C35.97 46.35 37.09 47.45 37.09 47.45V44.81H36.57L36.99 45.52C36.89 45.46 36.77 45.42 36.65 45.42C36.28 45.42 35.98 45.72 35.98 46.09H35.97Z" fill="#616161"/>
</g>
<path d="M10.13 9.91002C10.23 11.81 14.05 14.71 14.05 14.71C14.05 14.71 17.98 11.79 17.98 9.88002C17.98 8.57002 16.9 7.51001 15.59 7.51001C14.85 7.51001 14.03 8.17001 14.03 8.17001C14.03 8.17001 13.25 7.51002 12.49 7.52002C11.18 7.54002 10.05 8.59002 10.12 9.91002H10.13Z" fill="#D66142"/>
<g style="mix-blend-mode:color-burn" opacity="0.2">
<path d="M12.5 7.52002C13.26 7.52002 14.04 8.17001 14.04 8.17001C14.04 8.17001 14.05 8.17001 14.07 8.15001V14.7H14.06C14.06 14.7 10.2401 11.8 10.1401 9.90001C10.0701 8.59001 11.2 7.53001 12.51 7.51001L12.5 7.52002Z" fill="#616161"/>
</g>
<path d="M32.13 9.91002C32.03 11.81 28.21 14.71 28.21 14.71C28.21 14.71 24.28 11.79 24.28 9.88002C24.28 8.57002 25.35 7.51001 26.67 7.51001C27.41 7.51001 28.23 8.17001 28.23 8.17001C28.23 8.17001 29.01 7.51002 29.77 7.52002C31.08 7.54002 32.22 8.59002 32.14 9.91002H32.13Z" fill="#D66142"/>
<g style="mix-blend-mode:color-burn" opacity="0.2">
<path d="M29.7599 7.52002C28.9999 7.52002 28.2199 8.17001 28.2199 8.17001C28.2199 8.17001 28.2099 8.17001 28.1899 8.15001V14.7H28.2C28.2 14.7 32.0199 11.8 32.1199 9.90001C32.1899 8.59001 31.0599 7.53001 29.7499 7.51001L29.7599 7.52002Z" fill="#616161"/>
</g>
<path d="M10.13 47.65C10.23 45.75 14.05 42.85 14.05 42.85C14.05 42.85 17.98 45.77 17.98 47.68C17.98 48.99 16.9 50.05 15.59 50.05C14.85 50.05 14.03 49.39 14.03 49.39C14.03 49.39 13.25 50.05 12.49 50.04C11.18 50.02 10.05 48.97 10.12 47.65H10.13Z" fill="#D66142"/>
<g style="mix-blend-mode:color-burn" opacity="0.2">
<path d="M12.5 50.04C13.26 50.04 14.04 49.39 14.04 49.39C14.04 49.39 14.05 49.39 14.07 49.41V42.86H14.06C14.06 42.86 10.2401 45.76 10.1401 47.66C10.0701 48.98 11.2 50.03 12.51 50.05L12.5 50.04Z" fill="#616161"/>
</g>
<path d="M32.13 47.65C32.03 45.75 28.21 42.85 28.21 42.85C28.21 42.85 24.28 45.77 24.28 47.68C24.28 48.99 25.35 50.05 26.67 50.05C27.41 50.05 28.23 49.39 28.23 49.39C28.23 49.39 29.01 50.05 29.77 50.04C31.08 50.02 32.22 48.97 32.14 47.65H32.13Z" fill="#D66142"/>
<g style="mix-blend-mode:color-burn" opacity="0.2">
<path d="M29.7599 50.04C28.9999 50.04 28.2199 49.39 28.2199 49.39C28.2199 49.39 28.2099 49.39 28.1899 49.41V42.86H28.2C28.2 42.86 32.0199 45.76 32.1199 47.66C32.1899 48.98 31.0599 50.03 29.7499 50.05L29.7599 50.04Z" fill="#616161"/>
</g>
<path d="M5.18002 11.74C5.14002 12.41 3.80002 13.43 3.80002 13.43C3.80002 13.43 2.42004 12.4 2.42004 11.73C2.42004 11.27 2.80004 10.9 3.26004 10.9C3.52004 10.9 3.81003 11.13 3.81003 11.13C3.81003 11.13 4.08004 10.9 4.35004 10.9C4.81004 10.9 5.21002 11.28 5.18002 11.74Z" fill="#D66142"/>
<g style="mix-blend-mode:color-burn" opacity="0.2">
<path d="M4.35007 10.9C4.08007 10.9 3.81006 11.13 3.81006 11.13C3.81006 11.13 3.81005 11.13 3.80005 11.13V13.43C3.80005 13.43 5.14005 12.41 5.18005 11.74C5.21005 11.28 4.81007 10.91 4.35007 10.9Z" fill="#616161"/>
</g>
<path d="M35.13 46.4C35.16 45.71 36.54 44.68 36.54 44.68C36.54 44.68 37.95 45.73 37.95 46.41C37.95 46.88 37.56 47.26 37.09 47.26C36.82 47.26 36.53 47.02 36.53 47.02C36.53 47.02 36.25 47.26 35.98 47.25C35.51 47.25 35.1 46.86 35.13 46.39V46.4Z" fill="#D66142"/>
<g style="mix-blend-mode:color-burn" opacity="0.2">
<path d="M35.98 47.26C36.25 47.26 36.53 47.03 36.53 47.03C36.53 47.03 36.53 47.03 36.54 47.03V44.68C36.54 44.68 35.17 45.72 35.13 46.4C35.1 46.87 35.51 47.25 35.98 47.26Z" fill="#616161"/>
</g>
</svg>
