<svg width="41" height="56" viewBox="0 0 41 56" fill="none" xmlns="http://www.w3.org/2000/svg">
<path d="M4.64001 55.95C2.29001 55.95 0.369985 54.07 0.359985 51.76L0.23999 4.45999C0.23999 2.12999 2.15001 0.23999 4.51001 0.23999L35.77 0.299988C38.12 0.299988 40.04 2.19999 40.04 4.51999V51.72C40.04 54.03 38.13 55.91 35.79 55.91L4.64001 55.95Z" fill="#C9C9C9"/>
<path d="M5.03006 55.83C2.71006 55.83 0.820068 53.95 0.820068 51.63V4.43999C0.820068 2.11999 2.71006 0.23999 5.03006 0.23999H35.8401C38.1601 0.23999 40.05 2.11999 40.05 4.43999V51.63C40.05 53.94 38.1601 55.83 35.8401 55.83H5.03006Z" fill="white"/>
<path d="M5.72998 5.74997C5.72998 5.81997 5.70997 5.88997 5.65997 5.96997C5.59997 6.03997 5.55998 6.08997 5.53998 6.10997C5.33998 6.40997 5.17997 6.61997 5.05997 6.72997C4.94997 6.79997 4.84998 6.85996 4.75998 6.92996C4.72998 6.97996 4.70996 7.02997 4.70996 7.07997C4.71996 7.12997 4.72998 7.16997 4.72998 7.19997C4.72998 7.30997 4.72997 7.40997 4.74997 7.48997C4.76997 7.57997 4.78998 7.61996 4.81998 7.61996C4.85998 7.61996 4.89996 7.60997 4.92996 7.57997C5.04996 7.47997 5.12997 7.41997 5.15997 7.40997C5.18997 7.45997 5.19998 7.49996 5.19998 7.50996C5.19998 7.56996 5.08996 7.70997 4.86996 7.91997C4.59996 8.16997 4.35997 8.29997 4.12997 8.29997C3.96997 8.29997 3.85998 8.08997 3.81998 7.65997C3.77998 7.22997 3.73998 6.98997 3.69998 6.94997H2.27997L2.22998 6.91997C2.22998 6.91997 2.22998 6.87998 2.22998 6.81998C2.22998 6.74998 2.31998 6.56996 2.50998 6.28996C2.67998 6.03996 2.94996 5.69997 3.29996 5.26997C3.40996 5.12997 3.51997 4.99997 3.62997 4.85997C3.69997 4.77997 3.79996 4.66997 3.92996 4.52997C4.04996 4.39997 4.18997 4.24998 4.33997 4.06998C4.46997 3.91998 4.56998 3.84998 4.63998 3.84998L4.71997 3.86996V6.02997C4.78997 6.05997 4.83996 6.07997 4.86996 6.07997C4.89996 6.07997 4.92997 6.07997 4.93997 6.07997C5.09997 6.07997 5.24998 6.02997 5.38998 5.91997C5.48998 5.82997 5.58997 5.73996 5.68997 5.64996C5.70997 5.64996 5.71998 5.66996 5.72998 5.67996C5.73998 5.67996 5.74997 5.71997 5.74997 5.77997L5.72998 5.74997ZM3.72998 5.96997V5.65997C3.72998 5.57997 3.72996 5.48997 3.70996 5.38997C3.62996 5.45997 3.50996 5.58997 3.36996 5.76997C3.31996 5.81997 3.25997 5.90996 3.18997 6.00996L3.23996 6.02997H3.64996L3.72998 5.96997Z" fill="#333333"/>
<path d="M35.39 50.85C35.39 50.78 35.42 50.71 35.46 50.64C35.52 50.57 35.56 50.52 35.58 50.49C35.78 50.19 35.94 49.98 36.06 49.87C36.16 49.8 36.26 49.74 36.36 49.67C36.39 49.62 36.41 49.57 36.41 49.52C36.4 49.47 36.39 49.43 36.39 49.4C36.39 49.29 36.39 49.19 36.37 49.11C36.35 49.02 36.33 48.98 36.3 48.98C36.26 48.98 36.23 48.99 36.19 49.02C36.07 49.12 35.99 49.18 35.96 49.19C35.93 49.13 35.92 49.1 35.92 49.09C35.92 49.03 36.03 48.89 36.25 48.68C36.52 48.43 36.76 48.3 36.99 48.3C37.15 48.3 37.26 48.51 37.3 48.94C37.34 49.37 37.38 49.6 37.42 49.65H38.84L38.89 49.68C38.89 49.68 38.89 49.72 38.89 49.78C38.89 49.86 38.8 50.03 38.61 50.31C38.44 50.56 38.18 50.9 37.82 51.34C37.71 51.47 37.6 51.61 37.49 51.75C37.42 51.84 37.32 51.95 37.19 52.08C37.06 52.21 36.93 52.37 36.78 52.54C36.65 52.69 36.55 52.77 36.48 52.77L36.4 52.75V50.6C36.33 50.56 36.28 50.55 36.25 50.55C36.22 50.55 36.2 50.55 36.18 50.55C36.02 50.55 35.87 50.6 35.73 50.71C35.63 50.8 35.53 50.89 35.43 50.98C35.41 50.96 35.39 50.95 35.38 50.95C35.37 50.95 35.36 50.91 35.36 50.85H35.39ZM37.39 50.63V50.94C37.39 51.02 37.39 51.11 37.41 51.21C37.49 51.14 37.61 51.01 37.75 50.83C37.79 50.77 37.86 50.69 37.93 50.58L37.88 50.56H37.47L37.39 50.63Z" fill="#333333"/>
<path d="M32.19 10.48C32.19 9.51001 27.99 5.39001 27.99 5.39001C27.99 5.39001 23.9 9.65002 23.9 10.47C23.9 11.86 25.02 12.98 26.4 12.98C26.87 12.98 27.32 12.85 27.69 12.62L26.12 15.3H29.94L28.38 12.62C28.75 12.85 29.19 12.98 29.67 12.98C31.06 12.98 32.19 11.86 32.19 10.47V10.48Z" fill="#333333"/>
<g style="mix-blend-mode:color-burn" opacity="0.2">
<path d="M32.19 10.48C32.19 9.51001 27.99 5.39001 27.99 5.39001V15.3H29.95L28.39 12.62C28.76 12.85 29.2 12.98 29.68 12.98C31.07 12.98 32.2 11.86 32.2 10.47L32.19 10.48Z" fill="#616161"/>
</g>
<path d="M9.64001 10.48C9.64001 9.51001 13.84 5.39001 13.84 5.39001C13.84 5.39001 17.93 9.65002 17.93 10.47C17.93 11.86 16.81 12.98 15.42 12.98C14.95 12.98 14.51 12.85 14.13 12.62L15.7 15.3H11.88L13.44 12.62C13.07 12.85 12.62 12.98 12.15 12.98C10.77 12.98 9.63 11.86 9.63 10.47L9.64001 10.48Z" fill="#333333"/>
<g style="mix-blend-mode:color-burn" opacity="0.2">
<path d="M9.64001 10.48C9.64001 9.51001 13.84 5.39001 13.84 5.39001V15.3H11.88L13.44 12.62C13.07 12.85 12.62 12.98 12.15 12.98C10.77 12.98 9.63 11.86 9.63 10.47L9.64001 10.48Z" fill="#616161"/>
</g>
<path d="M32.17 46.1C32.17 47.06 27.97 51.19 27.97 51.19C27.97 51.19 23.88 46.94 23.88 46.12C23.88 44.73 25 43.6 26.38 43.6C26.85 43.6 27.3 43.73 27.67 43.96L26.1 41.28H29.92L28.36 43.96C28.73 43.73 29.17 43.6 29.65 43.6C31.04 43.6 32.17 44.72 32.17 46.11V46.1Z" fill="#333333"/>
<g style="mix-blend-mode:color-burn" opacity="0.2">
<path d="M32.17 46.1C32.17 47.06 27.97 51.19 27.97 51.19V41.28H29.93L28.37 43.96C28.74 43.73 29.18 43.6 29.66 43.6C31.05 43.6 32.18 44.72 32.18 46.11L32.17 46.1Z" fill="#616161"/>
</g>
<path d="M9.60999 46.1C9.60999 47.06 13.81 51.19 13.81 51.19C13.81 51.19 17.9 46.94 17.9 46.12C17.9 44.73 16.78 43.6 15.4 43.6C14.93 43.6 14.48 43.73 14.11 43.96L15.68 41.28H11.86L13.42 43.96C13.05 43.73 12.6 43.6 12.13 43.6C10.74 43.6 9.60999 44.72 9.60999 46.11V46.1Z" fill="#333333"/>
<g style="mix-blend-mode:color-burn" opacity="0.2">
<path d="M9.60995 46.1C9.60995 47.06 13.81 51.19 13.81 51.19V41.28H11.85L13.41 43.96C13.04 43.73 12.59 43.6 12.12 43.6C10.73 43.6 9.59998 44.72 9.59998 46.11L9.60995 46.1Z" fill="#616161"/>
</g>
<path d="M5.22 11.27C5.22 11.01 4.10001 9.91003 4.10001 9.91003C4.10001 9.91003 3.01001 11.04 3.01001 11.26C3.01001 11.63 3.30999 11.93 3.67999 11.93C3.80999 11.93 3.91999 11.9 4.01999 11.83L3.60001 12.54H4.62L4.20001 11.83C4.30001 11.89 4.42001 11.92 4.54001 11.92C4.91001 11.92 5.20999 11.62 5.20999 11.25L5.22 11.27Z" fill="#333333"/>
<g style="mix-blend-mode:color-burn" opacity="0.2">
<path d="M5.21997 11.27C5.21997 11.01 4.09998 9.91003 4.09998 9.91003V12.55H4.61996L4.19998 11.84C4.29998 11.9 4.41998 11.93 4.53998 11.93C4.90998 11.93 5.20996 11.63 5.20996 11.26L5.21997 11.27Z" fill="#616161"/>
</g>
<path d="M36.02 45.41C36.02 45.67 37.14 46.77 37.14 46.77C37.14 46.77 38.23 45.64 38.23 45.42C38.23 45.05 37.93 44.75 37.56 44.75C37.43 44.75 37.32 44.79 37.22 44.85L37.64 44.14H36.62L37.04 44.85C36.94 44.79 36.82 44.75 36.69 44.75C36.32 44.75 36.02 45.05 36.02 45.42V45.41Z" fill="#333333"/>
<g style="mix-blend-mode:color-burn" opacity="0.2">
<path d="M36.02 45.41C36.02 45.67 37.14 46.77 37.14 46.77V44.13H36.62L37.04 44.84C36.94 44.78 36.82 44.74 36.69 44.74C36.32 44.74 36.02 45.04 36.02 45.41Z" fill="#616161"/>
</g>
</svg>
