<svg width="39" height="54" viewBox="0 0 39 54" fill="none" xmlns="http://www.w3.org/2000/svg">
<path d="M4.62997 53.31C2.38997 53.31 0.559955 51.52 0.579955 49.32L0.46997 4.29997C0.43997 2.07997 2.25998 0.279958 4.50998 0.289958L34.26 0.339962C36.5 0.339962 38.32 2.14997 38.35 4.35997V49.28C38.32 51.48 36.51 53.26 34.28 53.27L4.63998 53.31H4.62997Z" fill="#C9C9C9"/>
<path d="M4.98999 53.2C2.77999 53.2 0.980013 51.4101 1.01001 49.2101V4.30005C0.980013 2.10005 2.77999 0.300049 4.98999 0.300049H34.3C36.51 0.300049 38.31 2.09005 38.34 4.30005V49.2101C38.31 51.4101 36.51 53.2 34.3 53.2H4.98999Z" fill="white"/>
<path d="M5.69998 3.69C5.61998 3.82 5.51996 3.95 5.39996 4.08C5.23996 4.25 5.08998 4.36 4.94998 4.41C4.85998 4.44 4.71998 4.46 4.50998 4.48C4.30998 4.49 4.20996 4.57 4.20996 4.7C4.20996 4.81 4.26996 4.88 4.39996 4.91C4.61996 4.96 4.79996 5.05 4.95996 5.17C5.11996 5.29 5.22996 5.42 5.29996 5.56C5.36996 5.7 5.40997 5.84 5.40997 5.98C5.40997 6.19 5.35998 6.40001 5.25998 6.60001C5.20998 6.70001 5.12998 6.82 5.00998 6.98C4.71998 7.36 4.45998 7.61 4.22998 7.75C3.99998 7.89 3.69996 7.96001 3.32996 7.96001C3.10996 7.96001 2.92997 7.93 2.77997 7.87C2.57997 7.79 2.47998 7.66001 2.47998 7.49001C2.47998 7.38001 2.56996 7.19 2.73996 6.92C2.91996 6.65 3.04996 6.52 3.14996 6.52C3.21996 6.52 3.24998 6.59999 3.25998 6.75999C3.25998 6.91999 3.28996 7.03001 3.32996 7.10001C3.37996 7.15001 3.41996 7.19 3.45996 7.22C3.57996 7.31 3.69998 7.35001 3.81998 7.35001C3.97998 7.35001 4.11996 7.3 4.23996 7.19C4.38996 7.06 4.46997 6.86001 4.46997 6.60001C4.46997 6.34001 4.38998 6.13 4.22998 5.95C4.06998 5.77 3.86998 5.66 3.63998 5.64C3.58998 5.64 3.55998 5.63 3.53998 5.63C3.46998 5.62 3.42998 5.61001 3.41998 5.60001C3.39998 5.58001 3.38998 5.54 3.38998 5.48C3.40998 5.33 3.42997 5.18 3.43997 5.03C3.44997 4.88 3.45996 4.73001 3.45996 4.60001C3.45996 4.53001 3.44996 4.49 3.42996 4.48C3.40996 4.47 3.35997 4.46001 3.27997 4.46001V4.32001C3.33997 4.25001 3.44995 4.14 3.60995 4C3.80995 3.82 3.95997 3.74001 4.02997 3.74001H5.27997C5.32997 3.74001 5.39998 3.71999 5.47998 3.67999C5.55998 3.63999 5.59996 3.62 5.61996 3.62L5.69998 3.66V3.72V3.69Z" fill="#333333"/>
<path d="M33.85 50.31C33.93 50.19 34.03 50.05 34.15 49.92C34.31 49.75 34.46 49.64 34.6 49.59C34.69 49.56 34.83 49.54 35.03 49.52C35.23 49.51 35.33 49.43 35.33 49.31C35.33 49.2 35.27 49.12 35.15 49.1C34.93 49.05 34.75 48.96 34.59 48.84C34.43 48.72 34.32 48.59 34.25 48.45C34.18 48.31 34.14 48.17 34.14 48.02C34.14 47.81 34.19 47.6 34.29 47.4C34.33 47.3 34.42 47.18 34.53 47.02C34.82 46.64 35.08 46.39 35.31 46.25C35.54 46.11 35.84 46.04 36.2 46.04C36.42 46.04 36.6 46.07 36.75 46.13C36.95 46.21 37.05 46.34 37.05 46.51C37.05 46.62 36.96 46.81 36.79 47.08C36.61 47.35 36.48 47.48 36.38 47.48C36.32 47.48 36.28 47.4 36.27 47.24C36.27 47.08 36.24 46.97 36.2 46.9C36.15 46.85 36.11 46.81 36.07 46.78C35.95 46.69 35.83 46.65 35.71 46.65C35.55 46.65 35.41 46.7 35.29 46.81C35.14 46.94 35.06 47.14 35.06 47.4C35.06 47.66 35.14 47.87 35.3 48.05C35.46 48.23 35.66 48.34 35.89 48.36C35.94 48.36 35.97 48.37 35.99 48.37C36.06 48.37 36.1 48.39 36.11 48.4C36.13 48.43 36.14 48.46 36.14 48.52C36.12 48.67 36.1 48.82 36.09 48.98C36.08 49.13 36.07 49.27 36.07 49.41C36.07 49.48 36.08 49.52 36.1 49.53C36.12 49.54 36.17 49.55 36.25 49.55V49.69C36.19 49.76 36.08 49.87 35.92 50.01C35.72 50.18 35.58 50.27 35.5 50.27H34.25C34.2 50.27 34.13 50.29 34.05 50.33C33.97 50.37 33.93 50.39 33.91 50.39L33.83 50.35V50.29L33.85 50.31Z" fill="#333333"/>
<path d="M28.75 8.17998C28.79 8.01998 28.81 7.85999 28.8 7.68999C28.8 6.46999 27.81 5.48999 26.6 5.48999C25.38 5.48999 24.4 6.46999 24.4 7.68999C24.4 7.94999 24.45 8.19998 24.53 8.42998C23.46 8.50998 22.61 9.40998 22.61 10.5C22.61 11.65 23.55 12.58 24.7 12.58C25.01 12.58 26.09 12.24 26.32 12.11L24.91 14.53H28.35L26.94 12.11C27.22 12.28 28.43 12.58 28.72 12.58C29.94 12.58 30.93 11.59 30.93 10.38C30.93 9.16999 29.96 8.19998 28.76 8.17998H28.75Z" fill="#333333"/>
<g style="mix-blend-mode:color-burn" opacity="0.2">
<path d="M28.75 8.17998C28.79 8.01998 28.81 7.85999 28.8 7.68999C28.8 6.46999 27.81 5.48999 26.6 5.48999V14.54H28.36L26.95 12.12C27.23 12.29 28.44 12.59 28.73 12.59C29.95 12.59 30.94 11.6 30.94 10.39C30.94 9.17998 29.97 8.20999 28.77 8.18999L28.75 8.17998Z" fill="#616161"/>
</g>
<path d="M11.18 8.17998C11.15 8.01998 11.12 7.85999 11.13 7.68999C11.13 6.46999 12.12 5.48999 13.34 5.48999C14.56 5.48999 15.54 6.46999 15.54 7.68999C15.54 7.94999 15.5 8.19998 15.41 8.42998C16.48 8.50998 17.33 9.40998 17.33 10.5C17.33 11.65 16.4 12.58 15.25 12.58C14.94 12.58 13.85 12.24 13.62 12.11L15.03 14.53H11.59L13 12.11C12.72 12.28 11.51 12.58 11.22 12.58C10 12.58 9.01001 11.59 9.01001 10.38C9.01001 9.16999 9.97999 8.19998 11.18 8.17998Z" fill="#333333"/>
<g style="mix-blend-mode:color-burn" opacity="0.2">
<path d="M11.18 8.17998C11.15 8.01998 11.12 7.85999 11.13 7.68999C11.13 6.46999 12.12 5.48999 13.34 5.48999V14.54H11.58L12.99 12.12C12.71 12.29 11.5 12.59 11.21 12.59C9.98999 12.59 9 11.6 9 10.39C9 9.17998 9.97001 8.20999 11.17 8.18999L11.18 8.17998Z" fill="#616161"/>
</g>
<path d="M17.61 24.65C17.58 24.49 17.55 24.33 17.56 24.16C17.56 22.94 18.55 21.96 19.76 21.96C20.98 21.96 21.96 22.94 21.96 24.16C21.96 24.42 21.91 24.67 21.83 24.9C22.9 24.99 23.75 25.88 23.75 26.98C23.75 28.13 22.82 29.06 21.67 29.06C21.36 29.06 20.27 28.72 20.04 28.59L21.45 31.01H18.01L19.42 28.59C19.14 28.76 17.94 29.06 17.64 29.06C16.42 29.06 15.43 28.07 15.44 26.85C15.44 25.65 16.41 24.67 17.61 24.65Z" fill="#333333"/>
<g style="mix-blend-mode:color-burn" opacity="0.2">
<path d="M17.61 24.65C17.58 24.49 17.55 24.33 17.56 24.16C17.56 22.94 18.55 21.96 19.76 21.96V31.01H18L19.41 28.59C19.13 28.76 17.93 29.06 17.63 29.06C16.41 29.06 15.42 28.07 15.43 26.85C15.43 25.65 16.4 24.67 17.6 24.65H17.61Z" fill="#616161"/>
</g>
<path d="M28.75 45.43C28.79 45.59 28.81 45.75 28.8 45.92C28.8 47.13 27.81 48.12 26.6 48.12C25.39 48.12 24.4 47.14 24.4 45.92C24.4 45.66 24.45 45.4 24.53 45.17C23.46 45.09 22.61 44.19 22.61 43.1C22.61 41.95 23.55 41.02 24.7 41.02C25.01 41.02 26.09 41.36 26.32 41.49L24.91 39.07H28.35L26.94 41.49C27.22 41.31 28.43 41.02 28.72 41.02C29.94 41.02 30.93 42.01 30.93 43.23C30.93 44.43 29.96 45.41 28.76 45.43H28.75Z" fill="#333333"/>
<g style="mix-blend-mode:color-burn" opacity="0.2">
<path d="M28.75 45.43C28.79 45.59 28.81 45.75 28.8 45.92C28.8 47.13 27.81 48.12 26.6 48.12V39.07H28.36L26.95 41.49C27.23 41.31 28.44 41.02 28.73 41.02C29.95 41.02 30.94 42.01 30.94 43.23C30.94 44.43 29.97 45.41 28.77 45.43H28.75Z" fill="#616161"/>
</g>
<path d="M11.18 45.43C11.15 45.59 11.12 45.75 11.13 45.92C11.13 47.13 12.12 48.12 13.34 48.12C14.56 48.12 15.54 47.14 15.54 45.92C15.54 45.66 15.5 45.4 15.41 45.17C16.48 45.09 17.33 44.19 17.33 43.1C17.33 41.95 16.4 41.02 15.25 41.02C14.94 41.02 13.85 41.36 13.62 41.49L15.03 39.07H11.59L13 41.49C12.72 41.31 11.51 41.02 11.22 41.02C10 41.02 9.01001 42.01 9.01001 43.23C9.01001 44.43 9.97999 45.41 11.18 45.43Z" fill="#333333"/>
<g style="mix-blend-mode:color-burn" opacity="0.2">
<path d="M11.18 45.43C11.15 45.59 11.12 45.75 11.13 45.92C11.13 47.13 12.12 48.12 13.34 48.12V39.07H11.58L12.99 41.49C12.71 41.31 11.5 41.02 11.21 41.02C9.98999 41.02 9 42.01 9 43.23C9 44.43 9.97001 45.41 11.17 45.43H11.18Z" fill="#616161"/>
</g>
<path d="M4.47998 10.37C4.47998 10.37 4.48996 10.3 4.48996 10.26C4.48996 9.98001 4.25996 9.76001 3.98996 9.76001C3.71996 9.76001 3.48996 9.98001 3.48996 10.26C3.48996 10.32 3.49996 10.38 3.51996 10.43C3.27996 10.45 3.07996 10.65 3.07996 10.9C3.07996 11.15 3.28997 11.37 3.55997 11.37C3.62997 11.37 3.87996 11.29 3.92996 11.26L3.60995 11.81H4.38998L4.06998 11.26C4.12998 11.3 4.40997 11.37 4.46997 11.37C4.74997 11.37 4.96997 11.14 4.96997 10.87C4.96997 10.6 4.74997 10.37 4.46997 10.37H4.47998Z" fill="#333333"/>
<g style="mix-blend-mode:color-burn" opacity="0.2">
<path d="M4.48001 10.37C4.48001 10.37 4.48999 10.3 4.48999 10.26C4.48999 9.98001 4.25999 9.76001 3.98999 9.76001V11.82H4.39001L4.07001 11.27C4.13001 11.31 4.41 11.38 4.47 11.38C4.75 11.38 4.97 11.15 4.97 10.88C4.97 10.61 4.75 10.38 4.47 10.38L4.48001 10.37Z" fill="#616161"/>
</g>
<path d="M35.9601 43.73C35.9601 43.73 35.9701 43.8 35.9701 43.84C35.9701 44.12 35.7401 44.34 35.4701 44.34C35.1901 44.34 34.9701 44.11 34.9701 43.84C34.9701 43.78 34.9701 43.72 35.0001 43.67C34.7501 43.65 34.5601 43.45 34.5601 43.2C34.5601 42.94 34.7701 42.73 35.0401 42.73C35.1101 42.73 35.3601 42.8 35.4101 42.84L35.0901 42.29H35.8801L35.5601 42.84C35.6201 42.8 35.9001 42.73 35.9701 42.73C36.2501 42.73 36.4701 42.95 36.4701 43.23C36.4701 43.51 36.2501 43.73 35.9701 43.73H35.9601Z" fill="#333333"/>
<g style="mix-blend-mode:color-burn" opacity="0.2">
<path d="M35.96 43.73C35.96 43.73 35.97 43.8 35.97 43.84C35.97 44.12 35.74 44.34 35.47 44.34V42.27H35.87L35.55 42.82C35.61 42.78 35.89 42.71 35.96 42.71C36.24 42.71 36.46 42.93 36.46 43.21C36.46 43.49 36.24 43.71 35.96 43.71V43.73Z" fill="#616161"/>
</g>
</svg>
