<svg width="40" height="56" viewBox="0 0 40 56" fill="none" xmlns="http://www.w3.org/2000/svg">
<path d="M4.49004 55.55C2.17004 55.55 0.280029 53.7 0.280029 51.43L0.160034 4.85C0.160034 2.56 2.04003 0.689991 4.37003 0.699991L35.15 0.759989C37.47 0.759989 39.35 2.62999 39.35 4.91999V51.4C39.35 53.67 37.47 55.52 35.16 55.53L4.49004 55.57V55.55Z" fill="#C9C9C9"/>
<path d="M4.87999 55.4299C2.58999 55.4299 0.72998 53.57 0.72998 51.3V4.82996C0.72998 2.54996 2.58999 0.699951 4.87999 0.699951H35.21C37.5 0.699951 39.36 2.54996 39.36 4.82996V51.3C39.36 53.58 37.5 55.4299 35.21 55.4299H4.87999Z" fill="white"/>
<path d="M27.3901 4.64001L23.3 9.80002L27.3901 14.97L31.4801 9.80002L27.3901 4.64001Z" fill="#D66142"/>
<g style="mix-blend-mode:color-burn" opacity="0.2">
<path d="M27.36 4.67001L27.39 4.64001L31.48 9.80002L27.39 14.97L27.36 14.94V4.67001Z" fill="#616161"/>
</g>
<path d="M12.7 41.16L16.78 46.32L12.7 51.49L8.59998 46.32L12.7 41.16Z" fill="#D66142"/>
<g style="mix-blend-mode:color-burn" opacity="0.2">
<path d="M12.72 41.19L12.7 41.16L8.59998 46.32L12.7 51.49L12.72 51.46V41.19Z" fill="#616161"/>
</g>
<path d="M12.7 4.64001L16.78 9.80002L12.7 14.97L8.59998 9.80002L12.7 4.64001Z" fill="#D66142"/>
<g style="mix-blend-mode:color-burn" opacity="0.2">
<path d="M12.72 4.67001L12.7 4.64001L8.59998 9.80002L12.7 14.97L12.72 14.94V4.67001Z" fill="#616161"/>
</g>
<path d="M20.0399 22.9L15.95 28.06L20.0399 33.23L24.1299 28.06L20.0399 22.9Z" fill="#D66142"/>
<g style="mix-blend-mode:color-burn" opacity="0.2">
<path d="M20.02 22.93L20.04 22.9L24.13 28.06L20.04 33.23L20.02 33.19V22.93Z" fill="#616161"/>
</g>
<path d="M27.3901 41.16L23.3 46.32L27.3901 51.49L31.4801 46.32L27.3901 41.16Z" fill="#D66142"/>
<g style="mix-blend-mode:color-burn" opacity="0.2">
<path d="M27.36 41.19L27.39 41.16L31.48 46.32L27.39 51.49L27.36 51.46V41.19Z" fill="#616161"/>
</g>
<path d="M3.98004 13.15L2.79004 11.64L3.98004 10.14L5.17004 11.64L3.98004 13.15Z" fill="#D66142"/>
<g style="mix-blend-mode:color-burn" opacity="0.2">
<path d="M3.97997 10.14L3.96997 10.15V13.14L3.97997 13.15L5.16997 11.64L3.97997 10.14Z" fill="#616161"/>
</g>
<path d="M5.61005 4.19997C5.53005 4.32997 5.43005 4.46998 5.30005 4.59998C5.14005 4.77998 4.98004 4.88997 4.84004 4.93997C4.75004 4.96997 4.60005 4.99996 4.39005 5.00996C4.18005 5.01996 4.08005 5.09997 4.08005 5.23997C4.08005 5.35997 4.14005 5.42998 4.27005 5.45998C4.49005 5.50998 4.69005 5.59997 4.85005 5.72997C5.01005 5.84997 5.13004 5.98997 5.20004 6.12997C5.27004 6.27997 5.31004 6.41998 5.31004 6.56998C5.31004 6.78998 5.26004 6.99998 5.15004 7.20998C5.10004 7.30998 5.02004 7.43997 4.90004 7.60997C4.60004 7.99997 4.33004 8.25997 4.09004 8.40997C3.86004 8.54997 3.55004 8.61996 3.17004 8.61996C2.94004 8.61996 2.76005 8.58997 2.60005 8.52997C2.39005 8.44997 2.29004 8.30997 2.29004 8.13997C2.29004 8.01997 2.38004 7.82997 2.56004 7.54997C2.74004 7.26997 2.89004 7.12997 2.98004 7.12997C3.05004 7.12997 3.09004 7.20996 3.09004 7.36996C3.09004 7.52996 3.12005 7.64997 3.16005 7.71997C3.21005 7.77997 3.26004 7.81998 3.29004 7.84998C3.41004 7.93998 3.53005 7.97997 3.66005 7.97997C3.82005 7.97997 3.97004 7.91997 4.09004 7.80997C4.24004 7.66997 4.32005 7.46997 4.32005 7.19997C4.32005 6.92997 4.24005 6.70997 4.07005 6.52997C3.90005 6.33997 3.70005 6.22997 3.46005 6.19997C3.41005 6.19997 3.38005 6.18997 3.35005 6.18997C3.28005 6.17997 3.24004 6.16997 3.23004 6.15997C3.21004 6.13997 3.20004 6.08997 3.20004 6.02997C3.22004 5.86997 3.24005 5.71997 3.25005 5.55997C3.27005 5.39997 3.27005 5.24997 3.27005 5.10997C3.27005 5.03997 3.27004 4.99997 3.23004 4.98997C3.20004 4.97997 3.16005 4.96997 3.08005 4.96997V4.81998C3.14005 4.73998 3.25004 4.62997 3.42004 4.48997C3.63004 4.30997 3.78005 4.21997 3.86005 4.21997H5.15004C5.20004 4.21997 5.27005 4.19997 5.35005 4.15997C5.43005 4.11997 5.48005 4.09998 5.50005 4.09998L5.58005 4.13997V4.20998L5.61005 4.19997Z" fill="#333333"/>
<path d="M34.73 52.44C34.81 52.31 34.91 52.17 35.04 52.04C35.2 51.86 35.36 51.75 35.5 51.7C35.59 51.67 35.74 51.64 35.95 51.63C36.16 51.62 36.26 51.54 36.26 51.4C36.26 51.28 36.2 51.21 36.07 51.19C35.84 51.14 35.65 51.05 35.49 50.92C35.33 50.8 35.21 50.66 35.14 50.52C35.07 50.38 35.03 50.23 35.03 50.08C35.03 49.86 35.08 49.65 35.18 49.44C35.23 49.34 35.31 49.21 35.43 49.04C35.73 48.65 36 48.38 36.24 48.24C36.48 48.1 36.78 48.03 37.16 48.03C37.38 48.03 37.57 48.06 37.73 48.13C37.93 48.21 38.04 48.34 38.04 48.52C38.04 48.64 37.95 48.83 37.77 49.11C37.59 49.39 37.44 49.53 37.34 49.53C37.28 49.53 37.23 49.45 37.23 49.28C37.23 49.12 37.2 49 37.16 48.94C37.11 48.88 37.06 48.84 37.03 48.81C36.91 48.72 36.78 48.68 36.66 48.68C36.49 48.68 36.35 48.74 36.23 48.85C36.07 48.99 35.99 49.19 35.99 49.46C35.99 49.73 36.07 49.94 36.24 50.13C36.41 50.32 36.61 50.43 36.85 50.46C36.9 50.46 36.93 50.47 36.96 50.47C37.03 50.48 37.07 50.49 37.08 50.5C37.1 50.53 37.11 50.57 37.11 50.62C37.09 50.78 37.07 50.93 37.06 51.09C37.05 51.25 37.04 51.4 37.04 51.54C37.04 51.61 37.05 51.65 37.08 51.66C37.1 51.68 37.15 51.68 37.23 51.68V51.82C37.17 51.9 37.06 52.01 36.89 52.15C36.68 52.33 36.53 52.42 36.45 52.42H35.16C35.1 52.42 35.04 52.44 34.95 52.48C34.87 52.52 34.82 52.54 34.8 52.54L34.72 52.5V52.43L34.73 52.44Z" fill="#333333"/>
<path d="M36.36 43.49L37.55 45L36.36 46.5L35.17 45L36.36 43.49Z" fill="#D66142"/>
<g style="mix-blend-mode:color-burn" opacity="0.2">
<path d="M36.36 43.5V43.49L35.17 45L36.36 46.5V46.49V43.5Z" fill="#616161"/>
</g>
</svg>
