<svg width="40" height="57" viewBox="0 0 40 57" fill="none" xmlns="http://www.w3.org/2000/svg">
<path d="M4.58994 56.66C2.23994 56.66 0.319937 54.78 0.309937 52.47L0.189941 5.16999C0.189941 2.83999 2.09993 0.95 4.45993 0.96L35.7199 1.02C38.0699 1.02 39.9899 2.92 39.9899 5.24V52.44C39.9899 54.75 38.0799 56.63 35.7399 56.63L4.58994 56.67V56.66Z" fill="#C9C9C9"/>
<path d="M4.97 56.5399C2.65 56.5399 0.76001 54.66 0.76001 52.34V5.14995C0.76001 2.83995 2.65 0.949951 4.97 0.949951H35.77C38.09 0.949951 39.98 2.82995 39.98 5.14995V52.34C39.98 54.66 38.09 56.5399 35.77 56.5399H4.97Z" fill="white"/>
<path d="M5.71997 4.51003C5.63997 4.64003 5.52996 4.78003 5.39996 4.92003C5.22996 5.10003 5.07996 5.21003 4.92996 5.27003C4.83996 5.30003 4.67997 5.33003 4.46997 5.34003C4.25997 5.36003 4.14996 5.43004 4.14996 5.57004C4.14996 5.69004 4.20997 5.76002 4.33997 5.79002C4.56997 5.84002 4.75996 5.93003 4.92996 6.06003C5.08996 6.19003 5.20998 6.32003 5.28998 6.47003C5.36998 6.62003 5.39996 6.76003 5.39996 6.92003C5.39996 7.14003 5.34996 7.36004 5.23996 7.57004C5.18996 7.67004 5.10996 7.81003 4.98996 7.98003C4.67996 8.37003 4.40998 8.64002 4.16998 8.79002C3.92998 8.94002 3.61998 9.01003 3.22998 9.01003C2.99998 9.01003 2.80996 8.98003 2.64996 8.91003C2.43996 8.82003 2.33997 8.69003 2.33997 8.51003C2.33997 8.39003 2.42996 8.19003 2.61996 7.91003C2.79996 7.63003 2.94996 7.49004 3.04996 7.49004C3.11996 7.49004 3.15997 7.57004 3.15997 7.74004C3.15997 7.90004 3.18998 8.02003 3.22998 8.09003C3.27998 8.15003 3.32995 8.19003 3.35995 8.22003C3.47995 8.31003 3.60996 8.35004 3.73996 8.35004C3.89996 8.35004 4.04996 8.29002 4.17996 8.18002C4.33996 8.04002 4.41998 7.83003 4.41998 7.56003C4.41998 7.29003 4.33997 7.07004 4.15997 6.88004C3.98997 6.69004 3.78998 6.58003 3.53998 6.55003C3.48998 6.55003 3.45996 6.54002 3.42996 6.54002C3.35996 6.53002 3.31997 6.52003 3.30997 6.51003C3.28997 6.49003 3.27997 6.44004 3.27997 6.38004C3.29997 6.22004 3.31996 6.06002 3.32996 5.90002C3.33996 5.74002 3.34998 5.59003 3.34998 5.44003C3.34998 5.37003 3.33997 5.33003 3.30997 5.31003C3.28997 5.30003 3.23997 5.29002 3.15997 5.29002V5.14003C3.21997 5.06003 3.33998 4.95003 3.50998 4.80003C3.72998 4.62003 3.87998 4.53003 3.94998 4.53003H5.25998C5.31998 4.53003 5.38997 4.51004 5.46997 4.46004C5.54997 4.42004 5.59996 4.40002 5.61996 4.40002L5.70996 4.44003V4.51003H5.71997Z" fill="#333333"/>
<path d="M35.3 53.5C35.38 53.37 35.4901 53.23 35.6201 53.09C35.7901 52.91 35.9501 52.8 36.0901 52.74C36.1801 52.71 36.34 52.68 36.55 52.67C36.76 52.65 36.8701 52.58 36.8701 52.44C36.8701 52.32 36.8001 52.25 36.6701 52.22C36.4401 52.17 36.25 52.08 36.08 51.95C35.92 51.83 35.8001 51.69 35.7201 51.54C35.6401 51.39 35.61 51.25 35.61 51.09C35.61 50.87 35.6601 50.65 35.7701 50.44C35.8201 50.34 35.9001 50.2 36.0301 50.04C36.3401 49.65 36.6101 49.38 36.8501 49.23C37.0901 49.09 37.4001 49.01 37.7901 49.01C38.0201 49.01 38.2101 49.04 38.3701 49.11C38.5801 49.19 38.6801 49.33 38.6801 49.51C38.6801 49.63 38.5901 49.83 38.4001 50.11C38.2201 50.39 38.0701 50.53 37.9701 50.53C37.9001 50.53 37.86 50.45 37.86 50.28C37.86 50.11 37.8301 50 37.7901 49.93C37.7401 49.87 37.6901 49.83 37.6501 49.8C37.5301 49.71 37.4001 49.67 37.2701 49.67C37.1001 49.67 36.96 49.73 36.83 49.84C36.67 49.98 36.5901 50.19 36.5901 50.46C36.5901 50.73 36.6801 50.95 36.8501 51.14C37.0201 51.33 37.2201 51.44 37.4701 51.47C37.5201 51.47 37.55 51.48 37.58 51.48C37.65 51.49 37.6901 51.5 37.7001 51.51C37.7201 51.53 37.7301 51.58 37.7301 51.64C37.7101 51.8 37.6901 51.96 37.6801 52.12C37.6701 52.28 37.6601 52.43 37.6601 52.58C37.6601 52.65 37.6701 52.69 37.7001 52.7C37.7201 52.71 37.7801 52.72 37.8501 52.72V52.86C37.7901 52.94 37.6701 53.05 37.5001 53.2C37.2901 53.39 37.14 53.48 37.05 53.48H35.7401C35.6901 53.48 35.6101 53.5 35.5301 53.54C35.4501 53.58 35.4001 53.6 35.3801 53.6L35.3 53.56V53.49V53.5Z" fill="#333333"/>
<g style="mix-blend-mode:color-burn" opacity="0.2">
<path d="M31.66 11.18C31.66 10.22 27.46 6.08997 27.46 6.08997V16H29.42L27.86 13.32C28.23 13.55 28.68 13.68 29.15 13.68C30.54 13.68 31.67 12.56 31.67 11.17L31.66 11.18Z" fill="#616161"/>
</g>
<g style="mix-blend-mode:color-burn" opacity="0.2">
<path d="M9.10995 11.18C9.10995 10.22 13.31 6.08997 13.31 6.08997V16H11.35L12.91 13.32C12.54 13.55 12.09 13.68 11.62 13.68C10.23 13.68 9.09998 12.56 9.09998 11.17L9.10995 11.18Z" fill="#616161"/>
</g>
<g style="mix-blend-mode:color-burn" opacity="0.2">
<path d="M16.17 28.59C16.17 27.63 20.37 23.5 20.37 23.5V33.41H18.41L19.97 30.73C19.6 30.96 19.15 31.09 18.68 31.1C17.29 31.1 16.16 29.98 16.16 28.59H16.17Z" fill="#616161"/>
</g>
<g style="mix-blend-mode:color-burn" opacity="0.2">
<path d="M31.6499 46.81C31.6499 47.77 27.45 51.9 27.45 51.9V41.99H29.4099L27.8499 44.67C28.2199 44.44 28.66 44.31 29.14 44.31C30.53 44.31 31.6599 45.43 31.6599 46.82L31.6499 46.81Z" fill="#616161"/>
</g>
<g style="mix-blend-mode:color-burn" opacity="0.2">
<path d="M9.08997 46.81C9.08997 47.77 13.29 51.9 13.29 51.9V41.99H11.33L12.89 44.67C12.51 44.44 12.07 44.31 11.6 44.31C10.21 44.31 9.07996 45.43 9.07996 46.82L9.08997 46.81Z" fill="#616161"/>
</g>
<g style="mix-blend-mode:color-burn" opacity="0.2">
<path d="M5.14005 11.98C5.14005 11.72 4.02002 10.62 4.02002 10.62V13.27H4.54004L4.12003 12.56C4.22003 12.62 4.34003 12.66 4.47003 12.66C4.84003 12.66 5.14005 12.36 5.14005 11.99V11.98Z" fill="#616161"/>
</g>
<g style="mix-blend-mode:color-burn" opacity="0.2">
<path d="M35.9399 46.11C35.9399 46.37 37.0599 47.47 37.0599 47.47V44.83H36.5399L36.9599 45.54C36.8599 45.48 36.7399 45.45 36.6099 45.45C36.2399 45.45 35.9399 45.75 35.9399 46.12V46.11Z" fill="#616161"/>
</g>
<path d="M9.70001 9.94003C9.80001 11.85 13.63 14.74 13.63 14.74C13.63 14.74 17.56 11.82 17.56 9.91003C17.56 8.60003 16.49 7.53003 15.17 7.53003C14.43 7.53003 13.61 8.19003 13.61 8.19003C13.61 8.19003 12.83 7.53002 12.07 7.54002C10.75 7.55002 9.63001 8.61002 9.70001 9.93002V9.94003Z" fill="#D66142"/>
<g style="mix-blend-mode:color-burn" opacity="0.2">
<path d="M12.07 7.55005C12.83 7.54005 13.61 8.20004 13.61 8.20004C13.61 8.20004 13.62 8.20004 13.64 8.18004V14.73C13.64 14.73 9.82 11.83 9.71 9.93004C9.64 8.62004 10.77 7.56004 12.08 7.54004L12.07 7.55005Z" fill="#616161"/>
</g>
<path d="M31.7 9.94003C31.6 11.85 27.78 14.74 27.78 14.74C27.78 14.74 23.85 11.82 23.85 9.91003C23.85 8.60003 24.93 7.53003 26.24 7.53003C26.98 7.53003 27.8 8.19003 27.8 8.19003C27.8 8.19003 28.58 7.53002 29.34 7.54002C30.65 7.55002 31.78 8.61002 31.71 9.93002L31.7 9.94003Z" fill="#D66142"/>
<g style="mix-blend-mode:color-burn" opacity="0.2">
<path d="M29.33 7.55005C28.57 7.54005 27.79 8.20004 27.79 8.20004C27.79 8.20004 27.79 8.20004 27.76 8.18004V14.73H27.77C27.77 14.73 31.59 11.83 31.69 9.93004C31.76 8.62004 30.63 7.56004 29.32 7.54004L29.33 7.55005Z" fill="#616161"/>
</g>
<path d="M24.2999 26.79C24.1999 28.7 20.3699 31.59 20.3699 31.59C20.3699 31.59 16.4399 28.67 16.4399 26.76C16.4399 25.45 17.5099 24.39 18.8199 24.39C19.5599 24.39 20.3799 25.05 20.3799 25.05C20.3799 25.05 21.16 24.39 21.92 24.4C23.24 24.42 24.3599 25.47 24.2899 26.78L24.2999 26.79Z" fill="#D66142"/>
<g style="mix-blend-mode:color-burn" opacity="0.2">
<path d="M21.93 24.41C21.17 24.4 20.39 25.06 20.39 25.06C20.39 25.06 20.38 25.06 20.36 25.04V31.59H20.37C20.37 31.59 24.19 28.69 24.3 26.79C24.37 25.48 23.24 24.42 21.93 24.41Z" fill="#616161"/>
</g>
<path d="M9.70001 47.68C9.80001 45.77 13.63 42.88 13.63 42.88C13.63 42.88 17.56 45.8 17.56 47.7C17.56 49.01 16.49 50.07 15.17 50.07C14.43 50.07 13.61 49.41 13.61 49.41C13.61 49.41 12.83 50.07 12.07 50.06C10.75 50.04 9.63001 48.99 9.70001 47.67V47.68Z" fill="#D66142"/>
<g style="mix-blend-mode:color-burn" opacity="0.2">
<path d="M12.07 50.06C12.83 50.06 13.61 49.41 13.61 49.41C13.61 49.41 13.62 49.41 13.64 49.43V42.88C13.64 42.88 9.82 45.77 9.71 47.68C9.64 49 10.77 50.05 12.08 50.07L12.07 50.06Z" fill="#616161"/>
</g>
<path d="M31.7 47.68C31.6 45.77 27.78 42.88 27.78 42.88C27.78 42.88 23.85 45.8 23.85 47.7C23.85 49.01 24.93 50.07 26.24 50.07C26.98 50.07 27.8 49.41 27.8 49.41C27.8 49.41 28.58 50.07 29.34 50.06C30.65 50.04 31.78 48.99 31.71 47.67L31.7 47.68Z" fill="#D66142"/>
<g style="mix-blend-mode:color-burn" opacity="0.2">
<path d="M29.33 50.06C28.57 50.06 27.79 49.41 27.79 49.41C27.79 49.41 27.79 49.41 27.76 49.43V42.88H27.77C27.77 42.88 31.59 45.77 31.69 47.68C31.76 49 30.63 50.05 29.32 50.07L29.33 50.06Z" fill="#616161"/>
</g>
<path d="M5.70993 11.7699C5.67993 12.4399 4.32993 13.4599 4.32993 13.4599C4.32993 13.4599 2.94995 12.4399 2.94995 11.7599C2.94995 11.2999 3.31995 10.9299 3.78995 10.9299C4.04995 10.9299 4.33994 11.1599 4.33994 11.1599C4.33994 11.1599 4.60994 10.9299 4.87994 10.9299C5.33994 10.9299 5.73993 11.3099 5.70993 11.7699Z" fill="#D66142"/>
<g style="mix-blend-mode:color-burn" opacity="0.2">
<path d="M4.87997 10.9299C4.60997 10.9299 4.33997 11.1599 4.33997 11.1599C4.33997 11.1599 4.33996 11.1599 4.32996 11.1599V13.4599C4.32996 13.4599 5.67996 12.4399 5.70996 11.7799C5.73996 11.3199 5.33997 10.9499 4.87997 10.9399V10.9299Z" fill="#616161"/>
</g>
<path d="M35.65 46.43C35.69 45.74 37.06 44.71 37.06 44.71C37.06 44.71 38.47 45.75 38.47 46.44C38.47 46.91 38.09 47.29 37.61 47.29C37.34 47.29 37.05 47.06 37.05 47.06C37.05 47.06 36.77 47.29 36.5 47.29C36.03 47.29 35.62 46.91 35.65 46.44V46.43Z" fill="#D66142"/>
<g style="mix-blend-mode:color-burn" opacity="0.2">
<path d="M36.51 47.28C36.78 47.28 37.06 47.05 37.06 47.05C37.06 47.05 37.06 47.05 37.07 47.05V44.7C37.07 44.7 35.7 45.74 35.66 46.42C35.64 46.89 36.04 47.27 36.51 47.27V47.28Z" fill="#616161"/>
</g>
</svg>
