<svg width="41" height="56" viewBox="0 0 41 56" fill="none" xmlns="http://www.w3.org/2000/svg">
<path d="M4.64001 55.98C2.29001 55.98 0.369985 54.1 0.359985 51.79L0.23999 4.49002C0.23999 2.16002 2.15001 0.27002 4.51001 0.27002L35.77 0.330017C38.12 0.330017 40.04 2.23002 40.04 4.55002V51.75C40.04 54.06 38.13 55.94 35.79 55.94L4.64001 55.98Z" fill="#C9C9C9"/>
<path d="M5.03006 55.86C2.71006 55.86 0.820068 53.98 0.820068 51.66V4.47002C0.820068 2.16002 2.71006 0.27002 5.03006 0.27002H35.83C38.16 0.27002 40.0401 2.15002 40.0401 4.47002V51.66C40.0401 53.98 38.15 55.86 35.83 55.86H5.03006Z" fill="white"/>
<path d="M5.76999 3.82996C5.68999 3.95996 5.58001 4.09996 5.45001 4.23996C5.28001 4.41996 5.13001 4.53995 4.98001 4.58995C4.89001 4.61995 4.72999 4.64996 4.51999 4.65996C4.30999 4.67996 4.20001 4.74995 4.20001 4.88995C4.20001 5.00995 4.26001 5.07995 4.39001 5.10995C4.62001 5.15995 4.81001 5.24996 4.98001 5.37996C5.14001 5.50996 5.26 5.63995 5.34 5.78995C5.41 5.93995 5.45001 6.08996 5.45001 6.23996C5.45001 6.45996 5.40001 6.67995 5.29001 6.88995C5.24001 6.98995 5.16 7.12995 5.03 7.28995C4.72 7.68995 4.44999 7.95996 4.20999 8.09996C3.96999 8.23996 3.65999 8.31996 3.26999 8.31996C3.03999 8.31996 2.85 8.28996 2.69 8.21996C2.48 8.12996 2.38 7.99996 2.38 7.81996C2.38 7.69996 2.47 7.49996 2.66 7.21996C2.84 6.93996 2.99 6.79996 3.09 6.79996C3.16 6.79996 3.20001 6.87996 3.20001 7.04996C3.20001 7.20996 3.22999 7.32995 3.26999 7.39995C3.31999 7.45995 3.37 7.49995 3.41 7.52995C3.53 7.61995 3.66001 7.65996 3.79001 7.65996C3.96001 7.65996 4.10001 7.59996 4.23001 7.48996C4.39001 7.34996 4.47 7.13995 4.47 6.86995C4.47 6.59995 4.37999 6.36995 4.20999 6.17995C4.03999 5.98995 3.83 5.87996 3.59 5.84996C3.54 5.84996 3.51001 5.83995 3.48001 5.83995C3.41001 5.82995 3.36999 5.81995 3.35999 5.80995C3.33999 5.77995 3.32999 5.73995 3.32999 5.67995C3.34999 5.51995 3.37 5.35995 3.38 5.19995C3.39 5.03995 3.39999 4.88996 3.39999 4.73996C3.39999 4.66996 3.39 4.62995 3.37 4.61995C3.34 4.60995 3.29 4.59996 3.22 4.59996V4.44995C3.28 4.36995 3.4 4.25995 3.56 4.10995C3.78 3.92995 3.93001 3.82996 4.01001 3.82996H5.32001C5.37001 3.82996 5.45 3.80996 5.53 3.76996C5.61 3.72996 5.65999 3.70996 5.67999 3.70996L5.76999 3.74995V3.81996V3.82996Z" fill="#333333"/>
<path d="M35.35 52.82C35.43 52.69 35.54 52.55 35.67 52.41C35.84 52.23 35.99 52.11 36.14 52.06C36.23 52.02 36.39 52 36.6 51.99C36.81 51.97 36.92 51.9 36.92 51.76C36.92 51.64 36.85 51.57 36.72 51.54C36.49 51.49 36.3 51.4 36.14 51.27C35.98 51.15 35.86 51.01 35.78 50.86C35.7 50.71 35.67 50.57 35.67 50.41C35.67 50.19 35.72 49.97 35.83 49.76C35.88 49.66 35.97 49.52 36.09 49.36C36.4 48.97 36.67 48.69 36.91 48.55C37.15 48.41 37.46 48.34 37.85 48.34C38.08 48.34 38.27 48.37 38.43 48.44C38.64 48.52 38.74 48.66 38.74 48.84C38.74 48.96 38.65 49.16 38.46 49.44C38.28 49.72 38.13 49.86 38.03 49.86C37.96 49.86 37.92 49.78 37.92 49.61C37.92 49.44 37.89 49.33 37.85 49.26C37.8 49.21 37.75 49.16 37.72 49.13C37.6 49.04 37.47 49 37.34 49C37.17 49 37.03 49.06 36.9 49.17C36.74 49.31 36.66 49.52 36.66 49.79C36.66 50.06 36.75 50.28 36.92 50.48C37.09 50.67 37.3 50.78 37.54 50.81C37.59 50.81 37.63 50.82 37.65 50.82C37.72 50.83 37.76 50.84 37.77 50.85C37.79 50.88 37.8 50.92 37.8 50.98C37.78 51.14 37.76 51.3 37.75 51.46C37.74 51.62 37.73 51.77 37.73 51.92C37.73 51.99 37.74 52.03 37.76 52.05C37.79 52.06 37.84 52.07 37.91 52.07V52.22C37.85 52.3 37.73 52.41 37.57 52.55C37.35 52.74 37.21 52.83 37.12 52.83H35.81C35.76 52.83 35.68 52.85 35.6 52.89C35.52 52.93 35.47 52.95 35.45 52.95L35.36 52.91V52.84L35.35 52.82Z" fill="#333333"/>
<path d="M31.7199 10.5C31.7199 9.53003 27.5299 5.41003 27.5299 5.41003C27.5299 5.41003 23.4299 9.66004 23.4299 10.49C23.4299 11.88 24.5499 13 25.9299 13C26.3999 13 26.8499 12.87 27.2299 12.64L25.6499 15.32H29.4699L27.9099 12.64C28.2799 12.87 28.73 13 29.2 13C30.59 13 31.7199 11.88 31.7199 10.49V10.5Z" fill="#333333"/>
<g style="mix-blend-mode:color-burn" opacity="0.2">
<path d="M31.72 10.5C31.72 9.53003 27.53 5.41003 27.53 5.41003V15.32H29.49L27.93 12.64C28.3 12.87 28.75 13 29.22 13C30.61 13 31.74 11.88 31.74 10.49L31.72 10.5Z" fill="#616161"/>
</g>
<path d="M9.16003 10.5C9.16003 9.53003 13.36 5.41003 13.36 5.41003C13.36 5.41003 17.45 9.66004 17.45 10.49C17.45 11.88 16.33 13 14.95 13C14.48 13 14.03 12.87 13.66 12.64L15.23 15.32H11.41L12.97 12.64C12.6 12.87 12.15 13 11.68 13C10.3 13 9.16003 11.88 9.16003 10.49V10.5Z" fill="#333333"/>
<g style="mix-blend-mode:color-burn" opacity="0.2">
<path d="M9.16003 10.5C9.16003 9.53003 13.36 5.41003 13.36 5.41003V15.32H11.4L12.96 12.64C12.59 12.87 12.14 13 11.67 13C10.29 13 9.15002 11.88 9.15002 10.49L9.16003 10.5Z" fill="#616161"/>
</g>
<path d="M16.23 27.91C16.23 26.95 20.43 22.82 20.43 22.82C20.43 22.82 24.52 27.07 24.52 27.9C24.52 29.29 23.4 30.41 22.02 30.41C21.55 30.41 21.1 30.28 20.72 30.05L22.3 32.73H18.48L20.04 30.05C19.67 30.28 19.22 30.41 18.75 30.42C17.37 30.42 16.23 29.3 16.23 27.91Z" fill="#333333"/>
<g style="mix-blend-mode:color-burn" opacity="0.2">
<path d="M16.23 27.91C16.23 26.95 20.43 22.82 20.43 22.82V32.73H18.47L20.03 30.05C19.66 30.28 19.21 30.41 18.74 30.42C17.36 30.42 16.22 29.3 16.22 27.91H16.23Z" fill="#616161"/>
</g>
<path d="M31.7 46.12C31.7 47.08 27.5 51.21 27.5 51.21C27.5 51.21 23.41 46.96 23.41 46.14C23.41 44.75 24.53 43.62 25.91 43.62C26.38 43.62 26.83 43.75 27.2 43.98L25.63 41.3H29.45L27.89 43.98C28.26 43.75 28.7 43.62 29.18 43.62C30.57 43.62 31.7 44.74 31.7 46.13V46.12Z" fill="#333333"/>
<g style="mix-blend-mode:color-burn" opacity="0.2">
<path d="M31.7 46.12C31.7 47.08 27.5 51.21 27.5 51.21V41.3H29.46L27.9 43.98C28.27 43.75 28.71 43.62 29.19 43.62C30.58 43.62 31.71 44.74 31.71 46.13L31.7 46.12Z" fill="#616161"/>
</g>
<path d="M9.14001 46.12C9.14001 47.08 13.34 51.21 13.34 51.21C13.34 51.21 17.43 46.96 17.43 46.14C17.43 44.75 16.31 43.62 14.93 43.62C14.46 43.62 14.02 43.75 13.64 43.98L15.21 41.3H11.39L12.95 43.98C12.58 43.75 12.13 43.62 11.66 43.62C10.27 43.62 9.14001 44.74 9.14001 46.13V46.12Z" fill="#333333"/>
<g style="mix-blend-mode:color-burn" opacity="0.2">
<path d="M9.14001 46.12C9.14001 47.08 13.34 51.21 13.34 51.21V41.3H11.38L12.94 43.98C12.57 43.75 12.12 43.62 11.65 43.62C10.26 43.62 9.13 44.74 9.13 46.13L9.14001 46.12Z" fill="#616161"/>
</g>
<path d="M5.18997 11.2899C5.18997 11.0299 4.06998 9.92993 4.06998 9.92993C4.06998 9.92993 2.97998 11.0599 2.97998 11.2799C2.97998 11.6499 3.27996 11.9499 3.64996 11.9499C3.77996 11.9499 3.88996 11.9199 3.98996 11.8599L3.56998 12.5799H4.58997L4.16998 11.8699C4.26998 11.9299 4.38998 11.9699 4.50998 11.9699C4.87998 11.9699 5.17996 11.6699 5.17996 11.2999L5.18997 11.2899Z" fill="#333333"/>
<g style="mix-blend-mode:color-burn" opacity="0.2">
<path d="M5.19006 11.2899C5.19006 11.0299 4.07007 9.92993 4.07007 9.92993V12.5799H4.59006L4.17007 11.8599C4.27007 11.9199 4.39007 11.9599 4.51007 11.9599C4.88007 11.9599 5.18005 11.6599 5.18005 11.2899H5.19006Z" fill="#616161"/>
</g>
<path d="M36 45.43C36 45.69 37.12 46.79 37.12 46.79C37.12 46.79 38.21 45.66 38.21 45.44C38.21 45.07 37.91 44.77 37.54 44.77C37.41 44.77 37.3 44.81 37.2 44.86L37.62 44.15H36.6L37.02 44.86C36.92 44.8 36.8 44.77 36.67 44.77C36.3 44.77 36 45.07 36 45.44V45.43Z" fill="#333333"/>
<g style="mix-blend-mode:color-burn" opacity="0.2">
<path d="M36 45.43C36 45.69 37.12 46.79 37.12 46.79V44.15H36.6L37.02 44.86C36.92 44.8 36.8 44.77 36.67 44.77C36.3 44.77 36 45.07 36 45.44V45.43Z" fill="#616161"/>
</g>
</svg>
