<svg width="41" height="57" viewBox="0 0 41 57" fill="none" xmlns="http://www.w3.org/2000/svg">
<path d="M4.89999 56.68C2.54999 56.68 0.629995 54.81 0.619995 52.49L0.5 5.17996C0.5 2.84996 2.40999 0.959961 4.76999 0.959961L36.03 1.01996C38.38 1.01996 40.3 2.91996 40.3 5.23996V52.44C40.3 54.75 38.39 56.63 36.05 56.63L4.89999 56.67V56.68Z" fill="#C9C9C9"/>
<path d="M5.28998 56.57C2.96998 56.57 1.07996 54.69 1.07996 52.37V5.17998C1.07996 2.85998 2.96998 0.97998 5.28998 0.97998H36.09C38.41 0.97998 40.3 2.85998 40.3 5.17998V52.37C40.3 54.69 38.41 56.57 36.09 56.57H5.28998Z" fill="white"/>
<path d="M5.99005 7.39996C5.99005 7.59996 5.89005 7.86996 5.68005 8.18996C5.47005 8.50996 5.27007 8.71996 5.07007 8.81996C4.91007 8.88996 4.79005 8.93996 4.71005 8.96996C4.63005 8.99996 4.57005 9.00996 4.52005 9.00996H4.34006C3.92006 9.00996 3.59005 8.85996 3.36005 8.55996C3.15005 8.29996 3.05005 7.97996 3.05005 7.59996C3.05005 7.34996 3.10007 7.05997 3.20007 6.72997C3.30007 6.39997 3.42007 6.11996 3.57007 5.88996C3.79007 5.55996 3.93005 5.35996 3.99005 5.28996C4.03005 5.24996 4.19007 5.10996 4.48007 4.86996C4.69007 4.68996 4.84006 4.56996 4.94006 4.51996C5.01006 4.47996 5.06006 4.45996 5.12006 4.45996C5.19006 4.45996 5.23007 4.49996 5.23007 4.57996C5.23007 4.59996 5.13007 4.70996 4.92007 4.89996C4.76007 5.04996 4.61005 5.21996 4.46005 5.41996C4.40005 5.48996 4.33007 5.62996 4.23007 5.82996C4.12007 6.06996 4.06006 6.21996 4.06006 6.28996C4.06006 6.29996 4.06005 6.31996 4.08005 6.32996C4.09005 6.34996 4.11006 6.34996 4.12006 6.34996C4.23006 6.28996 4.34007 6.23996 4.45007 6.17996C4.69007 6.06996 4.86005 6.00996 4.96005 6.00996C5.17005 6.00996 5.38007 6.12996 5.60007 6.38996C5.85007 6.67996 5.98007 7.00996 5.98007 7.37996L5.99005 7.39996ZM5.11005 8.05996C5.11005 7.79996 5.02006 7.53996 4.84006 7.27996C4.66006 7.02996 4.46005 6.89996 4.27005 6.89996C4.20005 6.89996 4.13007 6.90996 4.07007 6.93996C4.01007 6.96996 3.98007 7.01996 3.98007 7.08996C3.98007 7.33996 4.09007 7.58996 4.29007 7.84996C4.51007 8.12996 4.75006 8.26996 5.00006 8.26996C5.04006 8.26996 5.06005 8.25997 5.08005 8.22997C5.10005 8.19997 5.11005 8.13996 5.11005 8.04996V8.05996Z" fill="#333333"/>
<path d="M35.65 50.6701C35.65 50.4701 35.75 50.2001 35.96 49.8801C36.17 49.5601 36.37 49.3501 36.57 49.2501C36.73 49.1801 36.85 49.1301 36.93 49.1001C37.01 49.0801 37.07 49.0601 37.13 49.0601H37.31C37.73 49.0601 38.06 49.2101 38.29 49.5101C38.49 49.7701 38.6 50.0901 38.6 50.4701C38.6 50.7201 38.55 51.0101 38.45 51.3401C38.35 51.6701 38.23 51.9501 38.08 52.1801C37.86 52.5101 37.72 52.7001 37.66 52.7801C37.62 52.8201 37.46 52.9601 37.18 53.2001C36.97 53.3801 36.82 53.5001 36.72 53.5501C36.65 53.5901 36.6 53.6001 36.54 53.6001C36.47 53.6001 36.43 53.5601 36.43 53.4801C36.43 53.4601 36.53 53.3501 36.74 53.1601C36.9 53.0101 37.05 52.8401 37.2 52.6401C37.25 52.5701 37.33 52.4301 37.43 52.2201C37.54 51.9801 37.6 51.8301 37.6 51.7601C37.6 51.7501 37.6 51.7401 37.58 51.7201C37.57 51.7101 37.55 51.7001 37.54 51.7001C37.43 51.7601 37.32 51.8101 37.21 51.8701C36.97 51.9801 36.8 52.0401 36.7 52.0401C36.5 52.0401 36.29 51.9101 36.07 51.6601C35.82 51.3701 35.69 51.0401 35.69 50.6701H35.65ZM36.53 50.0101C36.53 50.2701 36.62 50.5301 36.8 50.7901C36.98 51.0401 37.17 51.1701 37.37 51.1701C37.44 51.1701 37.51 51.1601 37.57 51.1301C37.63 51.1001 37.66 51.0501 37.66 50.9801C37.66 50.7301 37.55 50.4801 37.35 50.2201C37.13 49.9401 36.89 49.8001 36.64 49.8001C36.6 49.8001 36.58 49.8101 36.56 49.8401C36.54 49.8701 36.53 49.9301 36.53 50.0201V50.0101Z" fill="#333333"/>
<path d="M29.99 8.43006C30.03 8.25006 30.05 8.08006 30.05 7.89006C30.05 6.56006 28.97 5.48006 27.64 5.49006C26.31 5.49006 25.23 6.56006 25.23 7.89006C25.23 8.18006 25.28 8.45006 25.37 8.70006C24.2 8.79006 23.27 9.77006 23.27 10.9701C23.27 12.2301 24.29 13.2401 25.55 13.2501C25.88 13.2501 27.07 12.8801 27.33 12.7301L25.79 15.3701H29.55L28.01 12.7301C28.32 12.9201 29.63 13.2501 29.95 13.2501C31.28 13.2501 32.36 12.1701 32.36 10.8401C32.36 9.52006 31.3 8.46006 29.99 8.44006V8.43006Z" fill="#333333"/>
<g style="mix-blend-mode:color-burn" opacity="0.2">
<path d="M29.99 8.43006C30.03 8.25006 30.05 8.08006 30.05 7.89006C30.05 6.56006 28.97 5.48006 27.64 5.49006C27.64 5.49006 27.64 5.49006 27.63 5.49006V15.3701H29.55L28.01 12.7301C28.32 12.9201 29.63 13.2501 29.95 13.2501C31.28 13.2501 32.36 12.1701 32.36 10.8401C32.36 9.52006 31.3 8.46006 29.99 8.44006V8.43006Z" fill="#616161"/>
</g>
<path d="M29.99 27.25C30.03 27.07 30.05 26.9 30.05 26.71C30.05 25.38 28.97 24.3 27.64 24.31C26.31 24.31 25.23 25.38 25.23 26.71C25.23 27 25.28 27.27 25.37 27.52C24.2 27.61 23.27 28.59 23.27 29.79C23.27 31.05 24.29 32.06 25.55 32.07C25.88 32.07 27.07 31.7 27.33 31.55L25.79 34.19H29.55L28.01 31.55C28.32 31.74 29.63 32.07 29.95 32.07C31.28 32.07 32.36 30.99 32.36 29.66C32.36 28.34 31.3 27.28 29.99 27.26V27.25Z" fill="#333333"/>
<g style="mix-blend-mode:color-burn" opacity="0.2">
<path d="M29.99 27.25C30.03 27.07 30.05 26.9 30.05 26.71C30.05 25.38 28.97 24.3 27.64 24.31C27.64 24.31 27.64 24.31 27.63 24.31V34.19H29.55L28.01 31.55C28.32 31.74 29.63 32.07 29.95 32.07C31.28 32.07 32.36 30.99 32.36 29.66C32.36 28.34 31.3 27.28 29.99 27.26V27.25Z" fill="#616161"/>
</g>
<path d="M10.8099 8.43006C10.7699 8.25006 10.7499 8.08006 10.7499 7.89006C10.7499 6.56006 11.8299 5.48006 13.1599 5.49006C14.4899 5.49006 15.5699 6.56006 15.5699 7.89006C15.5699 8.18006 15.5199 8.45006 15.4299 8.70006C16.5999 8.79006 17.5299 9.77006 17.5299 10.9701C17.5299 12.2301 16.5099 13.2401 15.2499 13.2501C14.9199 13.2501 13.7299 12.8801 13.4699 12.7301L15.0099 15.3701H11.2499L12.7899 12.7301C12.4799 12.9201 11.1699 13.2501 10.8499 13.2501C9.51995 13.2501 8.43994 12.1701 8.43994 10.8401C8.43994 9.51006 9.49994 8.46006 10.8099 8.44006V8.43006Z" fill="#333333"/>
<g style="mix-blend-mode:color-burn" opacity="0.2">
<path d="M10.8099 8.43006C10.7699 8.25006 10.7499 8.08006 10.7499 7.89006C10.7499 6.56006 11.8299 5.48006 13.1599 5.49006V15.3701H11.2399L12.7799 12.7301C12.4699 12.9201 11.1599 13.2501 10.8399 13.2501C9.50994 13.2501 8.42993 12.1701 8.42993 10.8401C8.42993 9.51006 9.48993 8.46006 10.7999 8.44006L10.8099 8.43006Z" fill="#616161"/>
</g>
<path d="M10.8099 27.25C10.7699 27.07 10.7499 26.9 10.7499 26.71C10.7499 25.38 11.8299 24.3 13.1599 24.31C14.4899 24.31 15.5699 25.38 15.5699 26.71C15.5699 27 15.5199 27.27 15.4299 27.52C16.5999 27.61 17.5299 28.59 17.5299 29.79C17.5299 31.05 16.5099 32.06 15.2499 32.07C14.9199 32.07 13.7299 31.7 13.4699 31.55L15.0099 34.19H11.2499L12.7899 31.55C12.4799 31.74 11.1699 32.07 10.8499 32.07C9.51995 32.07 8.43994 30.99 8.43994 29.66C8.43994 28.33 9.49994 27.28 10.8099 27.26V27.25Z" fill="#333333"/>
<g style="mix-blend-mode:color-burn" opacity="0.2">
<path d="M10.8099 27.25C10.7699 27.07 10.7499 26.9 10.7499 26.71C10.7499 25.38 11.8299 24.3 13.1599 24.31V34.19H11.2399L12.7799 31.55C12.4699 31.74 11.1599 32.07 10.8399 32.07C9.50994 32.07 8.42993 30.99 8.42993 29.66C8.42993 28.33 9.48993 27.28 10.7999 27.26L10.8099 27.25Z" fill="#616161"/>
</g>
<path d="M29.99 49.1201C30.03 49.3001 30.05 49.4701 30.05 49.6601C30.05 50.9901 28.97 52.0701 27.64 52.0601C26.31 52.0601 25.23 50.9901 25.23 49.6601C25.23 49.3701 25.28 49.1001 25.37 48.8501C24.2 48.7601 23.27 47.7801 23.27 46.5801C23.27 45.3201 24.29 44.3101 25.55 44.3001C25.88 44.3001 27.07 44.6701 27.33 44.8201L25.79 42.1801H29.55L28.01 44.8201C28.32 44.6301 29.63 44.3001 29.95 44.3001C31.28 44.3001 32.36 45.3801 32.36 46.7101C32.36 48.0301 31.3 49.0901 29.99 49.1101V49.1201Z" fill="#333333"/>
<g style="mix-blend-mode:color-burn" opacity="0.2">
<path d="M29.99 49.1201C30.03 49.3001 30.05 49.4701 30.05 49.6601C30.05 50.9901 28.97 52.0701 27.64 52.0601C27.64 52.0601 27.64 52.0601 27.63 52.0601V42.1801H29.55L28.01 44.8201C28.32 44.6301 29.63 44.3001 29.95 44.3001C31.28 44.3001 32.36 45.3801 32.36 46.7101C32.36 48.0301 31.3 49.0901 29.99 49.1101V49.1201Z" fill="#616161"/>
</g>
<path d="M10.8099 49.1201C10.7699 49.3001 10.7499 49.4701 10.7499 49.6601C10.7499 50.9901 11.8299 52.0701 13.1599 52.0601C14.4899 52.0601 15.5699 50.9901 15.5699 49.6601C15.5699 49.3701 15.5199 49.1001 15.4299 48.8501C16.5999 48.7601 17.5299 47.7801 17.5299 46.5801C17.5299 45.3201 16.5099 44.3101 15.2499 44.3001C14.9199 44.3001 13.7299 44.6701 13.4699 44.8201L15.0099 42.1801H11.2499L12.7899 44.8201C12.4799 44.6301 11.1699 44.3001 10.8499 44.3001C9.51995 44.3001 8.43994 45.3801 8.43994 46.7101C8.43994 48.0401 9.49994 49.0901 10.8099 49.1101V49.1201Z" fill="#333333"/>
<g style="mix-blend-mode:color-burn" opacity="0.2">
<path d="M10.8099 49.1201C10.7699 49.3001 10.7499 49.4701 10.7499 49.6601C10.7499 50.9901 11.8299 52.0701 13.1599 52.0601V42.1801H11.2399L12.7799 44.8201C12.4699 44.6301 11.1599 44.3001 10.8399 44.3001C9.50994 44.3001 8.42993 45.3801 8.42993 46.7101C8.42993 48.0401 9.48993 49.0901 10.7999 49.1101L10.8099 49.1201Z" fill="#616161"/>
</g>
<path d="M4.78 11.79C4.78 11.79 4.79999 11.71 4.79999 11.67C4.79999 11.37 4.55 11.12 4.25 11.12C3.95 11.12 3.70001 11.37 3.70001 11.67C3.70001 11.74 3.71001 11.8 3.73001 11.86C3.46001 11.88 3.25 12.11 3.25 12.38C3.25 12.67 3.47999 12.9 3.76999 12.9C3.84999 12.9 4.11999 12.82 4.17999 12.78L3.82999 13.38H4.69L4.34 12.78C4.41 12.82 4.71 12.9 4.78 12.9C5.08 12.9 5.32999 12.65 5.32999 12.35C5.32999 12.05 5.09001 11.81 4.79001 11.8L4.78 11.79Z" fill="#333333"/>
<g style="mix-blend-mode:color-burn" opacity="0.2">
<path d="M4.78 11.79C4.78 11.79 4.79999 11.71 4.79999 11.67C4.79999 11.37 4.55 11.12 4.25 11.12V13.38H4.69L4.34 12.78C4.41 12.82 4.71 12.9 4.78 12.9C5.08 12.9 5.32999 12.65 5.32999 12.35C5.32999 12.05 5.09001 11.81 4.79001 11.8L4.78 11.79Z" fill="#616161"/>
</g>
<path d="M37.61 47.1C37.61 47.1 37.6301 47.18 37.6201 47.22C37.6201 47.52 37.3701 47.77 37.0701 47.77C36.7701 47.77 36.5201 47.52 36.5201 47.22C36.5201 47.16 36.53 47.09 36.55 47.04C36.28 47.02 36.0701 46.79 36.0701 46.52C36.0701 46.23 36.3001 46 36.5901 46C36.6701 46 36.9401 46.08 37.0001 46.12L36.6501 45.52H37.5101L37.1601 46.12C37.2301 46.08 37.5301 46 37.6001 46C37.9001 46 38.1501 46.25 38.1501 46.55C38.1501 46.85 37.91 47.1 37.61 47.1Z" fill="#333333"/>
<g style="mix-blend-mode:color-burn" opacity="0.2">
<path d="M37.61 47.1C37.61 47.1 37.6301 47.18 37.6201 47.22C37.6201 47.52 37.3701 47.77 37.0701 47.77V45.51H37.5101L37.1601 46.11C37.2301 46.07 37.5301 45.99 37.6001 45.99C37.9001 45.99 38.1501 46.24 38.1501 46.54C38.1501 46.84 37.91 47.09 37.61 47.09V47.1Z" fill="#616161"/>
</g>
</svg>
