<svg width="40" height="56" viewBox="0 0 40 56" fill="none" xmlns="http://www.w3.org/2000/svg">
<path d="M4.49004 55.57C2.17004 55.57 0.280029 53.72 0.280029 51.45L0.160034 4.87001C0.160034 2.58001 2.04003 0.710011 4.37003 0.720011L35.15 0.780008C37.47 0.780008 39.35 2.65001 39.35 4.93001V51.41C39.35 53.68 37.47 55.53 35.16 55.53L4.49004 55.57Z" fill="#C9C9C9"/>
<path d="M4.87999 55.46C2.58999 55.46 0.72998 53.61 0.72998 51.33V4.85998C0.72998 2.57998 2.58999 0.72998 4.87999 0.72998H35.21C37.5 0.72998 39.36 2.57998 39.36 4.85998V51.33C39.36 53.61 37.5 55.46 35.21 55.46H4.87999Z" fill="white"/>
<path d="M27.3901 4.66003L23.3 9.83003L27.3901 14.99L31.4801 9.83003L27.3901 4.66003Z" fill="#D66142"/>
<g style="mix-blend-mode:color-burn" opacity="0.2">
<path d="M27.36 4.70003L27.39 4.66003L31.48 9.83003L27.39 14.99L27.36 14.96V4.70003Z" fill="#616161"/>
</g>
<path d="M12.69 22.92L16.78 28.09L12.69 33.25L8.59998 28.09L12.69 22.92Z" fill="#D66142"/>
<g style="mix-blend-mode:color-burn" opacity="0.2">
<path d="M12.72 22.96L12.69 22.92L8.59998 28.09L12.69 33.25L12.72 33.22V22.96Z" fill="#616161"/>
</g>
<path d="M12.69 41.1801L16.78 46.3501L12.69 51.5101L8.59998 46.3501L12.69 41.1801Z" fill="#D66142"/>
<g style="mix-blend-mode:color-burn" opacity="0.2">
<path d="M12.72 41.2201L12.69 41.1801L8.59998 46.3501L12.69 51.5101L12.72 51.4801V41.2201Z" fill="#616161"/>
</g>
<path d="M12.69 4.66003L16.78 9.83003L12.69 14.99L8.59998 9.83003L12.69 4.66003Z" fill="#D66142"/>
<g style="mix-blend-mode:color-burn" opacity="0.2">
<path d="M12.72 4.70003L12.69 4.66003L8.59998 9.83003L12.69 14.99L12.72 14.96V4.70003Z" fill="#616161"/>
</g>
<path d="M27.3901 22.92L23.3 28.09L27.3901 33.25L31.4801 28.09L27.3901 22.92Z" fill="#D66142"/>
<g style="mix-blend-mode:color-burn" opacity="0.2">
<path d="M27.36 22.96L27.39 22.92L31.48 28.09L27.39 33.25L27.36 33.22V22.96Z" fill="#616161"/>
</g>
<path d="M27.3901 41.1801L23.3 46.3501L27.3901 51.5101L31.4801 46.3501L27.3901 41.1801Z" fill="#D66142"/>
<g style="mix-blend-mode:color-burn" opacity="0.2">
<path d="M27.36 41.2201L27.39 41.1801L31.48 46.3501L27.39 51.5101L27.36 51.4801V41.2201Z" fill="#616161"/>
</g>
<path d="M3.98004 13.17L2.79004 11.67L3.98004 10.16L5.18004 11.67L3.98004 13.17Z" fill="#D66142"/>
<g style="mix-blend-mode:color-burn" opacity="0.2">
<path d="M3.97997 10.16L3.96997 10.17V13.16L3.97997 13.17L5.17996 11.67L3.97997 10.16Z" fill="#616161"/>
</g>
<path d="M5.56995 7.05005C5.56995 7.25005 5.46994 7.51005 5.26994 7.83005C5.06994 8.15005 4.86994 8.36004 4.66994 8.45004C4.50994 8.52004 4.39995 8.57004 4.31995 8.60004C4.23995 8.63004 4.17994 8.64005 4.12994 8.64005H3.95995C3.53995 8.64005 3.21994 8.49004 2.98994 8.20004C2.78994 7.94004 2.68994 7.63005 2.68994 7.25005C2.68994 7.00005 2.73994 6.71005 2.83994 6.39005C2.93994 6.07005 3.05995 5.79005 3.20995 5.57005C3.41995 5.25005 3.55993 5.05005 3.61993 4.98005C3.65993 4.94005 3.81994 4.80004 4.08994 4.56004C4.29994 4.38004 4.44993 4.27005 4.53993 4.22005C4.59993 4.18005 4.65995 4.17004 4.70995 4.17004C4.77995 4.17004 4.81995 4.21004 4.81995 4.28004C4.81995 4.30004 4.71993 4.41004 4.50993 4.60004C4.35993 4.74004 4.20994 4.92005 4.05994 5.12005C3.99994 5.19005 3.92994 5.33004 3.82994 5.53004C3.71994 5.76004 3.65994 5.91004 3.65994 5.99004C3.65994 6.00004 3.65993 6.01004 3.67993 6.03004C3.68993 6.04004 3.70993 6.05005 3.72993 6.05005C3.82993 5.99005 3.93994 5.94004 4.05994 5.88004C4.28994 5.77004 4.45994 5.71004 4.55994 5.71004C4.75994 5.71004 4.96993 5.83005 5.17993 6.08005C5.42993 6.36005 5.54994 6.69005 5.54994 7.05005H5.56995ZM4.70995 7.70004C4.70995 7.44004 4.61994 7.19005 4.43994 6.93005C4.25994 6.68005 4.06994 6.56004 3.87994 6.56004C3.80994 6.56004 3.73993 6.57004 3.67993 6.60004C3.61993 6.63004 3.58994 6.68005 3.58994 6.75005C3.58994 6.99005 3.68993 7.24005 3.89993 7.50005C4.11993 7.78005 4.34995 7.91005 4.59995 7.91005C4.63995 7.91005 4.65993 7.90005 4.67993 7.87005C4.69993 7.84005 4.70995 7.78005 4.70995 7.69005V7.70004Z" fill="#333333"/>
<path d="M34.77 49.6501C34.77 49.4501 34.87 49.1901 35.07 48.8701C35.27 48.5501 35.47 48.3401 35.67 48.2501C35.83 48.1801 35.94 48.1301 36.02 48.1001C36.1 48.0701 36.16 48.0601 36.21 48.0601H36.38C36.8 48.0601 37.12 48.2101 37.35 48.5001C37.55 48.7601 37.65 49.0701 37.65 49.4501C37.65 49.7001 37.6 49.9801 37.5 50.3101C37.4 50.6301 37.28 50.9101 37.13 51.1301C36.92 51.4501 36.78 51.6501 36.71 51.7201C36.67 51.7601 36.52 51.9001 36.24 52.1401C36.03 52.3201 35.88 52.4301 35.79 52.4801C35.72 52.5201 35.67 52.5301 35.62 52.5301C35.55 52.5301 35.51 52.4901 35.51 52.4201C35.51 52.4001 35.61 52.2901 35.82 52.1001C35.97 51.9501 36.12 51.7801 36.27 51.5801C36.33 51.5101 36.4 51.3701 36.5 51.1701C36.61 50.9401 36.67 50.7901 36.67 50.7101C36.67 50.7001 36.67 50.6901 36.65 50.6701C36.64 50.6601 36.62 50.6501 36.61 50.6501C36.5 50.7001 36.4 50.7601 36.28 50.8201C36.05 50.9301 35.88 50.9901 35.78 50.9901C35.58 50.9901 35.37 50.8701 35.16 50.6201C34.91 50.3401 34.79 50.0101 34.79 49.6501H34.77ZM35.64 49.0001C35.64 49.2601 35.73 49.5201 35.91 49.7701C36.09 50.0201 36.28 50.1501 36.47 50.1501C36.54 50.1501 36.61 50.1401 36.67 50.1101C36.73 50.0801 36.76 50.0301 36.76 49.9601C36.76 49.7201 36.66 49.4701 36.45 49.2101C36.23 48.9301 35.99 48.8001 35.75 48.8001C35.71 48.8001 35.69 48.8101 35.67 48.8401C35.65 48.8701 35.64 48.9301 35.64 49.0101V49.0001Z" fill="#333333"/>
<path d="M36.36 43.52L37.55 45.02L36.36 46.53L35.17 45.02L36.36 43.52Z" fill="#D66142"/>
<g style="mix-blend-mode:color-burn" opacity="0.2">
<path d="M36.36 43.53V43.52L35.17 45.02L36.36 46.53V46.52V43.53Z" fill="#616161"/>
</g>
</svg>
