<svg width="40" height="57" viewBox="0 0 40 57" fill="none" xmlns="http://www.w3.org/2000/svg">
<path d="M4.57993 56.68C2.22993 56.68 0.309927 54.8 0.299927 52.49L0.179932 5.19002C0.179932 2.86002 2.08995 0.97002 4.44995 0.98002L35.7099 1.04002C38.0599 1.04002 39.9799 2.94002 39.9799 5.26002V52.46C39.9799 54.77 38.0699 56.65 35.7299 56.65L4.58994 56.69L4.57993 56.68Z" fill="#C9C9C9"/>
<path d="M4.97 56.57C2.64 56.57 0.76001 54.69 0.76001 52.37V5.17998C0.76001 2.86998 2.65 0.97998 4.97 0.97998H35.77C38.09 0.97998 39.98 2.85998 39.98 5.17998V52.37C39.98 54.69 38.09 56.57 35.77 56.57H4.97Z" fill="white"/>
<path d="M5.67999 7.39997C5.67999 7.59997 5.57 7.86997 5.37 8.18997C5.17 8.51997 4.96001 8.72997 4.76001 8.81997C4.60001 8.88997 4.47999 8.93997 4.39999 8.96997C4.31999 8.99997 4.24999 9.00997 4.20999 9.00997H4.03C3.61 9.00997 3.27999 8.85997 3.04999 8.55997C2.84999 8.29997 2.75 7.97997 2.75 7.59997C2.75 7.34997 2.79999 7.05997 2.89999 6.72997C2.99999 6.39997 3.12 6.11997 3.28 5.88997C3.49 5.55997 3.63001 5.35997 3.70001 5.28997C3.74001 5.24997 3.89999 5.10997 4.17999 4.86997C4.38999 4.68997 4.54001 4.57997 4.64001 4.51997C4.70001 4.47997 4.76001 4.46997 4.82001 4.46997C4.89001 4.46997 4.92999 4.50997 4.92999 4.58997C4.92999 4.60997 4.81999 4.71997 4.60999 4.90997C4.45999 5.05997 4.29999 5.22997 4.14999 5.42997C4.08999 5.49997 4.02001 5.63997 3.92001 5.83997C3.81001 6.07997 3.75 6.22997 3.75 6.29997C3.75 6.30997 3.75999 6.32997 3.76999 6.33997C3.78999 6.34997 3.80001 6.35997 3.82001 6.35997C3.93001 6.29997 4.04 6.24997 4.16 6.18997C4.39 6.07997 4.57001 6.01997 4.67001 6.01997C4.87001 6.01997 5.07999 6.14997 5.29999 6.39997C5.54999 6.68997 5.67999 7.01997 5.67999 7.38997V7.39997ZM4.79999 8.05997C4.79999 7.79997 4.71 7.53997 4.53 7.27997C4.35 7.01997 4.15999 6.89997 3.95999 6.89997C3.88999 6.89997 3.82001 6.90997 3.76001 6.94997C3.70001 6.97997 3.67001 7.02997 3.67001 7.09997C3.67001 7.34997 3.77001 7.59997 3.98001 7.85997C4.20001 8.13997 4.44001 8.27997 4.70001 8.27997C4.74001 8.27997 4.76 8.26997 4.78 8.23997C4.8 8.20997 4.81 8.14997 4.81 8.05997H4.79999Z" fill="#333333"/>
<path d="M35.34 50.66C35.34 50.46 35.45 50.19 35.65 49.87C35.86 49.54 36.06 49.34 36.26 49.24C36.42 49.17 36.54 49.12 36.61 49.09C36.69 49.06 36.75 49.05 36.81 49.05H36.99C37.42 49.05 37.74 49.2 37.97 49.5C38.17 49.76 38.27 50.08 38.27 50.46C38.27 50.71 38.22 51 38.12 51.33C38.02 51.66 37.89 51.94 37.74 52.16C37.53 52.49 37.39 52.69 37.32 52.76C37.28 52.8 37.12 52.94 36.84 53.18C36.63 53.36 36.48 53.47 36.38 53.53C36.32 53.57 36.26 53.59 36.2 53.59C36.13 53.59 36.09 53.55 36.09 53.47C36.09 53.45 36.19 53.34 36.4 53.15C36.55 53 36.71 52.83 36.86 52.62C36.92 52.55 37 52.41 37.09 52.2C37.21 51.96 37.26 51.81 37.26 51.74C37.26 51.73 37.26 51.72 37.24 51.7C37.22 51.68 37.21 51.68 37.19 51.68C37.08 51.74 36.97 51.79 36.85 51.85C36.61 51.96 36.45 52.02 36.34 52.02C36.14 52.02 35.93 51.89 35.71 51.64C35.46 51.35 35.33 51.02 35.33 50.65L35.34 50.66ZM36.22 50C36.22 50.27 36.31 50.52 36.49 50.78C36.67 51.03 36.86 51.16 37.06 51.16C37.13 51.16 37.2 51.14 37.26 51.12C37.32 51.09 37.35 51.04 37.35 50.97C37.35 50.72 37.25 50.47 37.04 50.21C36.82 49.93 36.58 49.79 36.33 49.79C36.29 49.79 36.26 49.8 36.25 49.83C36.23 49.86 36.22 49.92 36.22 50.01V50Z" fill="#333333"/>
<g style="mix-blend-mode:color-burn" opacity="0.2">
<path d="M32.11 10.3599C32.11 9.35995 27.75 5.06995 27.75 5.06995V15.3699H29.79L28.17 12.5799C28.56 12.8199 29.02 12.9599 29.51 12.9599C30.95 12.9599 32.13 11.7999 32.13 10.3499L32.11 10.3599Z" fill="#616161"/>
</g>
<g style="mix-blend-mode:color-burn" opacity="0.2">
<path d="M32.11 29.38C32.11 28.38 27.75 24.09 27.75 24.09V34.39H29.79L28.17 31.6C28.56 31.84 29.02 31.98 29.51 31.98C30.95 31.98 32.13 30.82 32.13 29.37L32.11 29.38Z" fill="#616161"/>
</g>
<g style="mix-blend-mode:color-burn" opacity="0.2">
<path d="M8.66 10.3599C8.66 9.35995 13.02 5.06995 13.02 5.06995V15.3699H10.98L12.6 12.5799C12.21 12.8199 11.75 12.9599 11.26 12.9599C9.82001 12.9599 8.64001 11.7999 8.64001 10.3499L8.66 10.3599Z" fill="#616161"/>
</g>
<g style="mix-blend-mode:color-burn" opacity="0.2">
<path d="M8.66 28.46C8.66 27.46 13.02 23.17 13.02 23.17V33.47H10.98L12.6 30.68C12.21 30.91 11.75 31.05 11.26 31.06C9.82001 31.06 8.64001 29.9 8.64001 28.45L8.66 28.46Z" fill="#616161"/>
</g>
<g style="mix-blend-mode:color-burn" opacity="0.2">
<path d="M32.09 47.39C32.09 48.39 27.73 52.68 27.73 52.68V42.38H29.77L28.15 45.17C28.54 44.93 29 44.8 29.49 44.79C30.93 44.79 32.11 45.95 32.11 47.4L32.09 47.39Z" fill="#616161"/>
</g>
<g style="mix-blend-mode:color-burn" opacity="0.2">
<path d="M8.64001 47.39C8.64001 48.39 13 52.68 13 52.68V42.38H10.96L12.58 45.17C12.19 44.93 11.73 44.8 11.24 44.79C9.79999 44.79 8.62 45.95 8.62 47.4L8.64001 47.39Z" fill="#616161"/>
</g>
<g style="mix-blend-mode:color-burn" opacity="0.2">
<path d="M5.21005 12.27C5.21005 12 4.05005 10.86 4.05005 10.86V13.61H4.59006L4.16006 12.87C4.26006 12.93 4.39005 12.97 4.52005 12.97C4.91005 12.97 5.22006 12.66 5.22006 12.27H5.21005Z" fill="#616161"/>
</g>
<g style="mix-blend-mode:color-burn" opacity="0.2">
<path d="M35.8 46.38C35.8 46.65 36.96 47.79 36.96 47.79V45.04H36.42L36.85 45.78C36.75 45.72 36.62 45.68 36.49 45.68C36.11 45.68 35.79 45.99 35.79 46.37L35.8 46.38Z" fill="#616161"/>
</g>
<path d="M5.47 11.73C5.43 12.43 4.04001 13.49 4.04001 13.49C4.04001 13.49 2.60999 12.42 2.60999 11.72C2.60999 11.24 3.00001 10.85 3.48001 10.85C3.74001 10.85 4.04999 11.09 4.04999 11.09C4.04999 11.09 4.33999 10.85 4.60999 10.85C5.08999 10.85 5.50001 11.24 5.48001 11.72L5.47 11.73Z" fill="#D66142"/>
<g style="mix-blend-mode:color-burn" opacity="0.2">
<path d="M4.61002 10.86C4.33002 10.86 4.05002 11.1 4.05002 11.1C4.05002 11.1 4.05004 11.1 4.04004 11.1V13.49C4.04004 13.49 5.44003 12.43 5.47003 11.73C5.50003 11.25 5.09004 10.86 4.60004 10.86H4.61002Z" fill="#616161"/>
</g>
<path d="M35.5101 46.89C35.5501 46.18 36.9701 45.1 36.9701 45.1C36.9701 45.1 38.43 46.19 38.43 46.9C38.43 47.39 38.0301 47.78 37.5401 47.78C37.2701 47.78 36.96 47.53 36.96 47.53C36.96 47.53 36.6701 47.78 36.3901 47.77C35.9001 47.77 35.4801 47.37 35.5101 46.88V46.89Z" fill="#D66142"/>
<g style="mix-blend-mode:color-burn" opacity="0.2">
<path d="M36.3901 47.78C36.6801 47.78 36.96 47.54 36.96 47.54C36.96 47.54 36.9601 47.54 36.9701 47.54V45.1C36.9701 45.1 35.5401 46.18 35.5101 46.89C35.4801 47.38 35.9001 47.77 36.3901 47.78Z" fill="#616161"/>
</g>
<path d="M8.65002 8.97998C8.76002 10.96 12.73 13.97 12.73 13.97C12.73 13.97 16.82 10.94 16.82 8.94997C16.82 7.57997 15.7 6.47998 14.34 6.47998C13.58 6.47998 12.72 7.16998 12.72 7.16998C12.72 7.16998 11.91 6.47997 11.12 6.48997C9.76003 6.50997 8.58003 7.60998 8.66003 8.96998L8.65002 8.97998Z" fill="#D66142"/>
<g style="mix-blend-mode:color-burn" opacity="0.2">
<path d="M11.11 6.49999C11.9 6.48999 12.71 7.17999 12.71 7.17999C12.71 7.17999 12.72 7.17999 12.74 7.15999V13.97H12.73C12.73 13.97 8.75996 10.96 8.64996 8.97999C8.57996 7.60999 9.74995 6.51999 11.11 6.49999Z" fill="#616161"/>
</g>
<path d="M31.52 8.97998C31.41 10.96 27.44 13.97 27.44 13.97C27.44 13.97 23.35 10.94 23.35 8.94997C23.35 7.57997 24.47 6.47998 25.83 6.47998C26.6 6.47998 27.45 7.16998 27.45 7.16998C27.45 7.16998 28.26 6.47997 29.05 6.48997C30.42 6.50997 31.59 7.60998 31.52 8.96998V8.97998Z" fill="#D66142"/>
<g style="mix-blend-mode:color-burn" opacity="0.2">
<path d="M29.05 6.49999C28.26 6.48999 27.45 7.17999 27.45 7.17999C27.45 7.17999 27.44 7.17999 27.42 7.15999V13.97H27.43C27.43 13.97 31.4 10.96 31.51 8.97999C31.58 7.60999 30.41 6.51999 29.04 6.49999H29.05Z" fill="#616161"/>
</g>
<path d="M8.65002 48.21C8.76002 46.23 12.73 43.22 12.73 43.22C12.73 43.22 16.82 46.25 16.82 48.24C16.82 49.61 15.7 50.71 14.34 50.71C13.58 50.71 12.72 50.02 12.72 50.02C12.72 50.02 11.91 50.71 11.12 50.7C9.76003 50.68 8.58003 49.59 8.66003 48.22L8.65002 48.21Z" fill="#D66142"/>
<g style="mix-blend-mode:color-burn" opacity="0.2">
<path d="M11.11 50.69C11.9 50.7 12.71 50.01 12.71 50.01C12.71 50.01 12.72 50.01 12.74 50.03V43.22H12.73C12.73 43.22 8.75996 46.23 8.64996 48.21C8.57996 49.58 9.74995 50.67 11.11 50.69Z" fill="#616161"/>
</g>
<path d="M31.52 48.21C31.41 46.23 27.44 43.22 27.44 43.22C27.44 43.22 23.35 46.25 23.35 48.24C23.35 49.61 24.47 50.71 25.83 50.71C26.6 50.71 27.45 50.02 27.45 50.02C27.45 50.02 28.26 50.71 29.05 50.7C30.42 50.68 31.59 49.59 31.52 48.22V48.21Z" fill="#D66142"/>
<g style="mix-blend-mode:color-burn" opacity="0.2">
<path d="M29.05 50.69C28.26 50.7 27.45 50.01 27.45 50.01C27.45 50.01 27.44 50.01 27.42 50.03V43.22H27.43C27.43 43.22 31.4 46.23 31.51 48.21C31.58 49.58 30.41 50.67 29.04 50.69H29.05Z" fill="#616161"/>
</g>
<path d="M8.65002 29.84C8.76002 27.86 12.73 24.85 12.73 24.85C12.73 24.85 16.82 27.89 16.82 29.87C16.82 31.23 15.7 32.34 14.34 32.34C13.58 32.34 12.72 31.65 12.72 31.65C12.72 31.65 11.91 32.34 11.12 32.33C9.76003 32.31 8.58003 31.21 8.66003 29.85L8.65002 29.84Z" fill="#D66142"/>
<g style="mix-blend-mode:color-burn" opacity="0.2">
<path d="M11.11 32.33C11.9 32.34 12.71 31.65 12.71 31.65C12.71 31.65 12.72 31.65 12.74 31.67V24.86H12.73C12.73 24.86 8.75996 27.87 8.64996 29.85C8.57996 31.22 9.74995 32.31 11.11 32.33Z" fill="#616161"/>
</g>
<path d="M31.52 29.84C31.41 27.86 27.44 24.85 27.44 24.85C27.44 24.85 23.35 27.89 23.35 29.87C23.35 31.23 24.47 32.34 25.83 32.34C26.6 32.34 27.45 31.65 27.45 31.65C27.45 31.65 28.26 32.34 29.05 32.33C30.42 32.31 31.59 31.21 31.52 29.85V29.84Z" fill="#D66142"/>
<g style="mix-blend-mode:color-burn" opacity="0.2">
<path d="M29.05 32.33C28.26 32.34 27.45 31.65 27.45 31.65C27.45 31.65 27.44 31.65 27.42 31.67V24.86H27.43C27.43 24.86 31.4 27.87 31.51 29.85C31.58 31.22 30.41 32.31 29.04 32.33H29.05Z" fill="#616161"/>
</g>
</svg>
