<svg width="41" height="57" viewBox="0 0 41 57" fill="none" xmlns="http://www.w3.org/2000/svg">
<path d="M4.64001 56C2.29001 56 0.369985 54.13 0.359985 51.81L0.23999 4.51004C0.23999 2.18004 2.15001 0.290039 4.51001 0.290039L35.77 0.350037C38.12 0.350037 40.04 2.25004 40.04 4.57004V51.78C40.04 54.09 38.13 55.97 35.79 55.97L4.64001 56.01V56Z" fill="#C9C9C9"/>
<path d="M5.03006 55.88C2.71006 55.88 0.820068 54 0.820068 51.68V4.49004C0.820068 2.17004 2.71006 0.290039 5.03006 0.290039H35.8401C38.1601 0.290039 40.05 2.17004 40.05 4.49004V51.68C40.05 53.99 38.1601 55.88 35.8401 55.88H5.03006Z" fill="white"/>
<path d="M5.73004 6.72003C5.73004 6.92003 5.63004 7.19003 5.42004 7.51003C5.21004 7.84003 5.01003 8.04003 4.81003 8.14003C4.65003 8.21003 4.53004 8.26003 4.45004 8.29003C4.37004 8.32003 4.31004 8.33003 4.26004 8.33003H4.08002C3.66002 8.33003 3.33004 8.18003 3.10004 7.88003C2.90004 7.62003 2.79004 7.30003 2.79004 6.92003C2.79004 6.67003 2.84003 6.38003 2.94003 6.05003C3.04003 5.72003 3.16003 5.44003 3.31003 5.21003C3.53003 4.88003 3.67004 4.69003 3.73004 4.61003C3.76004 4.57003 3.93002 4.43003 4.21002 4.19003C4.42002 4.01003 4.57004 3.89003 4.67004 3.84003C4.74004 3.80003 4.79004 3.78003 4.85004 3.78003C4.92004 3.78003 4.96002 3.82003 4.96002 3.90003C4.96002 3.92003 4.85002 4.03003 4.65002 4.22003C4.49002 4.37003 4.34003 4.54003 4.19003 4.74003C4.13003 4.81003 4.06002 4.95003 3.96002 5.16003C3.85002 5.39003 3.79004 5.55003 3.79004 5.62003C3.79004 5.63003 3.79003 5.65003 3.81003 5.66003C3.82003 5.68003 3.84004 5.68003 3.85004 5.68003C3.96004 5.62003 4.07002 5.57003 4.18002 5.51003C4.42002 5.40003 4.59003 5.34003 4.69003 5.34003C4.90003 5.34003 5.11002 5.47003 5.33002 5.72003C5.58002 6.01003 5.71002 6.34003 5.71002 6.71003L5.73004 6.72003ZM4.85004 7.38003C4.85004 7.12003 4.76004 6.86003 4.57004 6.60003C4.39004 6.35003 4.20003 6.22003 4.00003 6.22003C3.93003 6.22003 3.86002 6.23003 3.80002 6.26003C3.74002 6.29003 3.71002 6.34003 3.71002 6.41003C3.71002 6.66003 3.81002 6.91003 4.02002 7.17003C4.24002 7.45003 4.48004 7.59003 4.73004 7.59003C4.77004 7.59003 4.79003 7.57003 4.81003 7.55003C4.83003 7.52003 4.84003 7.46003 4.84003 7.37003L4.85004 7.38003Z" fill="#333333"/>
<path d="M35.39 49.98C35.39 49.78 35.49 49.51 35.7 49.19C35.9 48.86 36.11 48.65 36.31 48.56C36.47 48.49 36.59 48.44 36.67 48.41C36.75 48.38 36.82 48.37 36.86 48.37H37.04C37.46 48.37 37.79 48.52 38.02 48.82C38.22 49.08 38.33 49.4 38.33 49.78C38.33 50.03 38.28 50.32 38.18 50.65C38.08 50.98 37.96 51.26 37.81 51.48C37.59 51.81 37.45 52.01 37.39 52.08C37.35 52.12 37.19 52.26 36.91 52.5C36.7 52.68 36.55 52.8 36.45 52.85C36.38 52.89 36.33 52.9 36.27 52.9C36.2 52.9 36.16 52.86 36.16 52.78C36.16 52.76 36.26 52.65 36.47 52.46C36.63 52.32 36.78 52.14 36.93 51.94C36.99 51.87 37.06 51.73 37.16 51.52C37.28 51.28 37.33 51.13 37.33 51.06C37.33 51.05 37.33 51.04 37.31 51.02C37.3 51.01 37.28 51 37.27 51C37.16 51.06 37.05 51.11 36.94 51.17C36.7 51.28 36.53 51.34 36.43 51.34C36.23 51.34 36.02 51.21 35.8 50.96C35.55 50.67 35.42 50.34 35.42 49.97L35.39 49.98ZM36.27 49.32C36.27 49.58 36.36 49.84 36.54 50.1C36.72 50.35 36.91 50.48 37.11 50.48C37.18 50.48 37.25 50.46 37.31 50.43C37.37 50.4 37.4 50.35 37.4 50.28C37.4 50.03 37.29 49.78 37.09 49.52C36.87 49.24 36.63 49.1 36.38 49.1C36.34 49.1 36.32 49.12 36.3 49.14C36.28 49.17 36.27 49.23 36.27 49.32Z" fill="#333333"/>
<path d="M32.1601 9.68002C32.1601 8.68002 27.8 4.39001 27.8 4.39001C27.8 4.39001 23.55 8.81001 23.55 9.67001C23.55 11.11 24.7101 12.28 26.1501 12.28C26.6401 12.28 27.1001 12.15 27.4901 11.91L25.86 14.7H29.83L28.2101 11.92C28.6001 12.15 29.06 12.29 29.55 12.3C30.99 12.3 32.1701 11.14 32.1701 9.69002L32.1601 9.68002Z" fill="#333333"/>
<g style="mix-blend-mode:color-burn" opacity="0.2">
<path d="M32.1601 9.68002C32.1601 8.68002 27.8 4.39001 27.8 4.39001V14.69H29.8401L28.2201 11.9C28.6101 12.13 29.0701 12.27 29.5601 12.28C31.0001 12.28 32.1801 11.12 32.1801 9.67001L32.1601 9.68002Z" fill="#616161"/>
</g>
<path d="M32.1601 28.7C32.1601 27.7 27.8 23.41 27.8 23.41C27.8 23.41 23.55 27.83 23.55 28.69C23.55 30.13 24.7101 31.3 26.1501 31.3C26.6401 31.3 27.1001 31.17 27.4901 30.93L25.86 33.72H29.83L28.2101 30.94C28.6001 31.18 29.06 31.32 29.55 31.32C30.99 31.32 32.1701 30.16 32.1701 28.71L32.1601 28.7Z" fill="#333333"/>
<g style="mix-blend-mode:color-burn" opacity="0.2">
<path d="M32.1601 28.7C32.1601 27.7 27.8 23.41 27.8 23.41V33.71H29.8401L28.2201 30.92C28.6101 31.16 29.0701 31.3 29.5601 31.3C31.0001 31.3 32.1801 30.14 32.1801 28.69L32.1601 28.7Z" fill="#616161"/>
</g>
<path d="M8.71997 9.68002C8.71997 8.68002 13.08 4.39001 13.08 4.39001C13.08 4.39001 17.33 8.81001 17.33 9.67001C17.33 11.11 16.17 12.28 14.73 12.28C14.24 12.28 13.78 12.15 13.39 11.91L15.02 14.7H11.05L12.67 11.92C12.28 12.15 11.82 12.29 11.33 12.3C9.88996 12.3 8.70996 11.14 8.70996 9.69002L8.71997 9.68002Z" fill="#333333"/>
<g style="mix-blend-mode:color-burn" opacity="0.2">
<path d="M8.71994 9.68002C8.71994 8.68002 13.0799 4.39001 13.0799 4.39001V14.69H11.0399L12.6599 11.9C12.2699 12.13 11.8099 12.27 11.3199 12.28C9.87995 12.28 8.69995 11.12 8.69995 9.67001L8.71994 9.68002Z" fill="#616161"/>
</g>
<path d="M8.71997 27.77C8.71997 26.77 13.08 22.48 13.08 22.48C13.08 22.48 17.33 26.9 17.33 27.76C17.33 29.2 16.17 30.37 14.73 30.37C14.24 30.37 13.78 30.24 13.39 30L15.02 32.79H11.05L12.67 30.01C12.28 30.25 11.82 30.39 11.33 30.39C9.88996 30.39 8.70996 29.23 8.70996 27.78L8.71997 27.77Z" fill="#333333"/>
<g style="mix-blend-mode:color-burn" opacity="0.2">
<path d="M8.71994 27.77C8.71994 26.77 13.0799 22.48 13.0799 22.48V32.78H11.0399L12.6599 29.99C12.2699 30.23 11.8099 30.37 11.3199 30.37C9.87995 30.37 8.69995 29.21 8.69995 27.76L8.71994 27.77Z" fill="#616161"/>
</g>
<path d="M32.14 46.7099C32.14 47.7099 27.78 51.9999 27.78 51.9999C27.78 51.9999 23.53 47.5799 23.52 46.7199C23.52 45.2799 24.68 44.1099 26.13 44.1099C26.62 44.1099 27.08 44.2399 27.47 44.4799L25.84 41.6899H29.81L28.19 44.4699C28.58 44.2299 29.04 44.0899 29.53 44.0899C30.97 44.0899 32.15 45.2499 32.15 46.6999L32.14 46.7099Z" fill="#333333"/>
<g style="mix-blend-mode:color-burn" opacity="0.2">
<path d="M32.14 46.71C32.14 47.71 27.78 52 27.78 52V41.7H29.82L28.2 44.49C28.59 44.25 29.05 44.11 29.54 44.11C30.98 44.11 32.16 45.27 32.16 46.72L32.14 46.71Z" fill="#616161"/>
</g>
<path d="M8.68994 46.7099C8.68994 47.7099 13.0499 51.9999 13.0499 51.9999C13.0499 51.9999 17.2999 47.5799 17.2999 46.7199C17.2999 45.2799 16.14 44.1099 14.7 44.1099C14.21 44.1099 13.7499 44.2399 13.3599 44.4799L14.9899 41.6899H11.0199L12.64 44.4699C12.25 44.2299 11.7899 44.0899 11.2999 44.0899C9.85993 44.0899 8.67993 45.2499 8.67993 46.6999L8.68994 46.7099Z" fill="#333333"/>
<g style="mix-blend-mode:color-burn" opacity="0.2">
<path d="M8.69003 46.71C8.69003 47.71 13.05 52 13.05 52V41.7H11.01L12.63 44.49C12.24 44.25 11.78 44.11 11.29 44.11C9.85004 44.11 8.67004 45.27 8.67004 46.72L8.69003 46.71Z" fill="#616161"/>
</g>
<path d="M5.25998 11.58C5.25998 11.31 4.09998 10.17 4.09998 10.17C4.09998 10.17 2.96996 11.35 2.95996 11.58C2.95996 11.96 3.26997 12.28 3.65997 12.28C3.78997 12.28 3.90996 12.24 4.01996 12.18L3.57996 12.92H4.63998L4.20996 12.18C4.30996 12.24 4.43998 12.28 4.56998 12.28C4.94998 12.28 5.26996 11.97 5.26996 11.59L5.25998 11.58Z" fill="#333333"/>
<g style="mix-blend-mode:color-burn" opacity="0.2">
<path d="M5.25998 11.58C5.25998 11.31 4.09998 10.17 4.09998 10.17V12.92H4.63998L4.20996 12.18C4.30996 12.24 4.43998 12.28 4.56998 12.28C4.94998 12.28 5.26996 11.97 5.26996 11.59L5.25998 11.58Z" fill="#616161"/>
</g>
<path d="M35.86 45.69C35.86 45.96 37.02 47.1 37.02 47.1C37.02 47.1 38.16 45.92 38.16 45.69C38.16 45.31 37.85 44.99 37.46 44.99C37.33 44.99 37.2 45.03 37.1 45.09L37.53 44.35H36.47L36.9 45.09C36.8 45.03 36.67 44.99 36.54 44.99C36.16 44.99 35.84 45.3 35.84 45.68L35.86 45.69Z" fill="#333333"/>
<g style="mix-blend-mode:color-burn" opacity="0.2">
<path d="M35.86 45.69C35.86 45.96 37.02 47.1 37.02 47.1V44.35H36.48L36.91 45.1C36.81 45.04 36.68 45 36.55 45C36.17 45 35.85 45.31 35.85 45.69H35.86Z" fill="#616161"/>
</g>
</svg>
