<svg width="41" height="56" viewBox="0 0 41 56" fill="none" xmlns="http://www.w3.org/2000/svg">
<path d="M4.89999 55.71C2.54999 55.71 0.619995 53.83 0.619995 51.52L0.5 4.21004C0.5 1.88004 2.40999 -0.0099605 4.76999 3.95003e-05L36.03 0.0600395C38.38 0.0600395 40.3 1.96004 40.3 4.28004V51.48C40.3 53.79 38.39 55.67 36.05 55.67L4.89999 55.71Z" fill="#C9C9C9"/>
<path d="M5.28998 55.59C2.96998 55.59 1.07996 53.71 1.07996 51.39V4.2C1.07996 1.88 2.96998 0 5.28998 0H36.09C38.41 0 40.3 1.88 40.3 4.2V51.39C40.3 53.7 38.41 55.59 36.09 55.59H5.28998Z" fill="white"/>
<path d="M6.01996 3.59001C5.93996 3.73001 5.86997 3.86001 5.80997 3.99001C5.65997 4.28001 5.53998 4.53001 5.44998 4.74001C5.33998 4.98001 5.23996 5.21001 5.14996 5.42001C5.01996 5.73001 4.94998 5.89001 4.94998 5.89001C4.87998 6.04001 4.77998 6.23001 4.63998 6.46001C4.47998 6.73001 4.35998 6.93001 4.25998 7.05001C4.09998 7.25001 3.93997 7.43001 3.77997 7.59001C3.59997 7.76001 3.38998 7.91001 3.16998 8.05001C3.14998 8.05001 3.13996 8.03001 3.11996 8.02001C3.10996 8.01001 3.09998 7.99001 3.09998 7.96001C3.09998 7.93001 3.18997 7.79001 3.37997 7.56001C3.49997 7.41001 3.57998 7.30001 3.63998 7.21001C3.70998 7.09001 3.77998 6.96001 3.84998 6.81001C3.91998 6.66001 3.98997 6.50001 4.05997 6.34001C4.23997 5.97001 4.39996 5.62001 4.51996 5.30001C4.59996 5.11001 4.66997 4.89001 4.74997 4.64001C4.74997 4.56001 4.45996 4.52001 3.89996 4.52001C3.81996 4.52001 3.73996 4.53001 3.64996 4.56001C3.55996 4.58001 3.47996 4.63001 3.39996 4.70001H3.23996V4.57001C3.49996 4.20001 3.75997 3.93001 3.99997 3.78001C4.18997 3.66001 4.39996 3.60001 4.61996 3.60001C4.68996 3.60001 4.78996 3.60001 4.92996 3.63001C5.06996 3.65001 5.16997 3.65001 5.24997 3.65001C5.34997 3.65001 5.43997 3.65001 5.49997 3.64001C5.68997 3.62001 5.82997 3.57001 5.90997 3.51001H6.00998L6.02997 3.59001H6.01996Z" fill="#333333"/>
<path d="M35.63 52.5301C35.71 52.3901 35.78 52.2601 35.84 52.1301C35.99 51.8401 36.11 51.5901 36.2 51.3801C36.31 51.1401 36.41 50.9101 36.5 50.7001C36.63 50.3901 36.7 50.2301 36.7 50.2201C36.77 50.0701 36.88 49.8801 37.01 49.6501C37.17 49.3801 37.29 49.1801 37.39 49.0601C37.55 48.8601 37.71 48.6801 37.87 48.5201C38.05 48.3501 38.26 48.2001 38.48 48.0601C38.5 48.0601 38.51 48.0801 38.52 48.0901C38.53 48.1001 38.54 48.1201 38.54 48.1401C38.54 48.1701 38.45 48.3101 38.26 48.5401C38.14 48.6901 38.06 48.8001 38 48.8901C37.93 49.0101 37.86 49.1401 37.79 49.2901C37.72 49.4401 37.65 49.6001 37.58 49.7601C37.4 50.1301 37.24 50.4801 37.12 50.8001C37.04 51.0001 36.96 51.2201 36.89 51.4601C36.89 51.5401 37.18 51.5801 37.74 51.5801C37.82 51.5801 37.9 51.5701 37.99 51.5401C38.08 51.5101 38.16 51.4701 38.24 51.4001H38.4V51.5301C38.14 51.9001 37.88 52.1701 37.64 52.3201C37.45 52.4401 37.24 52.4901 37.02 52.4901C36.96 52.4901 36.85 52.4901 36.72 52.4701C36.58 52.4501 36.48 52.4501 36.4 52.4501C36.29 52.4501 36.21 52.4501 36.15 52.4601C35.96 52.4801 35.83 52.5301 35.74 52.5901H35.64L35.62 52.5101L35.63 52.5301Z" fill="#333333"/>
<path d="M30.29 7.44996C30.33 7.26996 30.35 7.09996 30.35 6.90996C30.35 5.57996 29.27 4.49996 27.94 4.50996C26.61 4.50996 25.53 5.57996 25.53 6.90996C25.53 7.19996 25.58 7.46996 25.68 7.71996C24.51 7.80996 23.58 8.78996 23.58 9.98996C23.58 11.25 24.6 12.26 25.86 12.27C26.19 12.27 27.38 11.9 27.64 11.75L26.1 14.39H29.86L28.32 11.75C28.63 11.94 29.94 12.27 30.26 12.27C31.59 12.27 32.67 11.19 32.67 9.85996C32.67 8.53996 31.61 7.47996 30.3 7.45996L30.29 7.44996Z" fill="#333333"/>
<g style="mix-blend-mode:color-burn" opacity="0.2">
<path d="M30.2899 7.44996C30.3299 7.26996 30.3499 7.09996 30.3499 6.90996C30.3499 5.57996 29.2699 4.49996 27.9399 4.50996C27.9399 4.50996 27.9399 4.50996 27.9299 4.50996V14.39H29.8499L28.3099 11.75C28.6199 11.94 29.9299 12.27 30.2499 12.27C31.5799 12.27 32.6599 11.19 32.6599 9.85996C32.6599 8.53996 31.5999 7.47996 30.2899 7.45996V7.44996Z" fill="#616161"/>
</g>
<path d="M30.29 26.27C30.33 26.09 30.35 25.92 30.35 25.73C30.35 24.4 29.27 23.32 27.94 23.33C26.61 23.33 25.53 24.4 25.53 25.73C25.53 26.02 25.58 26.29 25.68 26.54C24.51 26.63 23.58 27.61 23.58 28.81C23.58 30.07 24.6 31.08 25.86 31.09C26.19 31.09 27.38 30.72 27.64 30.57L26.1 33.21H29.86L28.32 30.57C28.63 30.76 29.94 31.09 30.26 31.09C31.59 31.09 32.67 30.01 32.67 28.68C32.67 27.36 31.61 26.3 30.3 26.28L30.29 26.27Z" fill="#333333"/>
<g style="mix-blend-mode:color-burn" opacity="0.2">
<path d="M30.2899 26.27C30.3299 26.09 30.3499 25.92 30.3499 25.73C30.3499 24.4 29.2699 23.32 27.9399 23.33C27.9399 23.33 27.9399 23.33 27.9299 23.33V33.21H29.8499L28.3099 30.57C28.6199 30.76 29.9299 31.09 30.2499 31.09C31.5799 31.09 32.6599 30.01 32.6599 28.68C32.6599 27.36 31.5999 26.3 30.2899 26.28V26.27Z" fill="#616161"/>
</g>
<path d="M22.6599 16.9301C22.6999 16.7501 22.7199 16.5801 22.7199 16.3901C22.7199 15.0601 21.6399 13.9801 20.3099 13.9901C18.9799 13.9901 17.8999 15.0601 17.8999 16.3901C17.8999 16.6801 17.9499 16.9501 18.0499 17.2001C16.8799 17.2901 15.95 18.2701 15.95 19.4701C15.95 20.7301 16.9699 21.7401 18.2299 21.7501C18.5599 21.7501 19.7499 21.3801 20.0099 21.2301L18.4699 23.8701H22.2299L20.6899 21.2301C20.9999 21.4201 22.3099 21.7501 22.6299 21.7501C23.9599 21.7501 25.0399 20.6701 25.0399 19.3401C25.0399 18.0301 23.98 16.9601 22.67 16.9401L22.6599 16.9301Z" fill="#333333"/>
<g style="mix-blend-mode:color-burn" opacity="0.2">
<path d="M22.6601 16.9301C22.7001 16.7501 22.7201 16.5801 22.7201 16.3901C22.7201 15.0601 21.6401 13.9801 20.3101 13.9901C20.3101 13.9901 20.31 13.9901 20.3 13.9901V23.8701H22.2201L20.6801 21.2301C20.9901 21.4201 22.3001 21.7501 22.6201 21.7501C23.9501 21.7501 25.0301 20.6701 25.0301 19.3401C25.0301 18.0301 23.9701 16.9601 22.6601 16.9401V16.9301Z" fill="#616161"/>
</g>
<path d="M11.1 7.44996C11.06 7.26996 11.04 7.09996 11.04 6.90996C11.04 5.57996 12.12 4.49996 13.45 4.50996C14.78 4.50996 15.86 5.57996 15.86 6.90996C15.86 7.19996 15.81 7.46996 15.72 7.71996C16.89 7.80996 17.81 8.78996 17.82 9.98996C17.82 11.25 16.8 12.26 15.54 12.27C15.21 12.27 14.02 11.9 13.76 11.75L15.3 14.39H11.55L13.09 11.75C12.78 11.94 11.47 12.27 11.15 12.27C9.81999 12.27 8.73999 11.19 8.73999 9.85996C8.73999 8.53996 9.79999 7.47996 11.11 7.45996L11.1 7.44996Z" fill="#333333"/>
<g style="mix-blend-mode:color-burn" opacity="0.2">
<path d="M11.1 7.44996C11.06 7.26996 11.04 7.09996 11.04 6.90996C11.04 5.57996 12.12 4.49996 13.45 4.50996V14.39H11.53L13.07 11.75C12.76 11.94 11.45 12.27 11.13 12.27C9.79997 12.27 8.71997 11.19 8.71997 9.85996C8.71997 8.53996 9.77997 7.47996 11.09 7.45996L11.1 7.44996Z" fill="#616161"/>
</g>
<path d="M11.1 26.27C11.06 26.09 11.04 25.92 11.04 25.73C11.04 24.4 12.12 23.32 13.45 23.33C14.78 23.33 15.86 24.4 15.86 25.73C15.86 26.02 15.81 26.29 15.72 26.54C16.89 26.63 17.81 27.61 17.82 28.81C17.82 30.07 16.8 31.08 15.54 31.09C15.21 31.09 14.02 30.72 13.76 30.57L15.3 33.21H11.55L13.09 30.57C12.78 30.76 11.47 31.09 11.15 31.09C9.81999 31.09 8.73999 30.01 8.73999 28.68C8.73999 27.36 9.79999 26.3 11.11 26.28L11.1 26.27Z" fill="#333333"/>
<g style="mix-blend-mode:color-burn" opacity="0.2">
<path d="M11.1 26.27C11.06 26.09 11.04 25.92 11.04 25.73C11.04 24.4 12.12 23.32 13.45 23.33V33.21H11.53L13.07 30.57C12.76 30.76 11.45 31.09 11.13 31.09C9.79997 31.09 8.71997 30.01 8.71997 28.68C8.71997 27.36 9.77997 26.3 11.09 26.28L11.1 26.27Z" fill="#616161"/>
</g>
<path d="M30.29 48.1399C30.33 48.3099 30.35 48.49 30.35 48.68C30.35 50.01 29.27 51.09 27.94 51.08C26.61 51.08 25.53 50.01 25.53 48.68C25.53 48.39 25.58 48.1199 25.68 47.8699C24.51 47.7799 23.58 46.7999 23.58 45.5999C23.58 44.3399 24.6 43.33 25.86 43.32C26.19 43.32 27.38 43.69 27.64 43.84L26.1 41.2H29.86L28.32 43.84C28.63 43.65 29.94 43.32 30.26 43.32C31.59 43.32 32.67 44.3999 32.67 45.7299C32.67 47.05 31.61 48.11 30.3 48.13L30.29 48.1399Z" fill="#333333"/>
<g style="mix-blend-mode:color-burn" opacity="0.2">
<path d="M30.2899 48.1399C30.3299 48.3099 30.3499 48.49 30.3499 48.68C30.3499 50.01 29.2699 51.09 27.9399 51.08C27.9399 51.08 27.9399 51.08 27.9299 51.08V41.2H29.8499L28.3099 43.84C28.6199 43.65 29.9299 43.32 30.2499 43.32C31.5799 43.32 32.6599 44.3999 32.6599 45.7299C32.6599 47.05 31.5999 48.11 30.2899 48.13V48.1399Z" fill="#616161"/>
</g>
<path d="M11.1 48.1399C11.06 48.3099 11.04 48.49 11.04 48.68C11.04 50.01 12.12 51.09 13.45 51.08C14.78 51.08 15.86 50.01 15.86 48.68C15.86 48.39 15.81 48.1199 15.72 47.8699C16.89 47.7799 17.81 46.7999 17.82 45.5999C17.82 44.3399 16.8 43.33 15.54 43.32C15.21 43.32 14.02 43.69 13.76 43.84L15.3 41.2H11.55L13.09 43.84C12.78 43.65 11.47 43.32 11.15 43.32C9.81999 43.32 8.73999 44.3999 8.73999 45.7299C8.73999 47.05 9.79999 48.11 11.11 48.13L11.1 48.1399Z" fill="#333333"/>
<g style="mix-blend-mode:color-burn" opacity="0.2">
<path d="M11.1 48.1399C11.06 48.3099 11.04 48.49 11.04 48.68C11.04 50.01 12.12 51.09 13.45 51.08V41.2H11.53L13.07 43.84C12.76 43.65 11.45 43.32 11.13 43.32C9.79997 43.32 8.71997 44.3999 8.71997 45.7299C8.71997 47.05 9.77997 48.11 11.09 48.13L11.1 48.1399Z" fill="#616161"/>
</g>
<path d="M5.16 10.81C5.16 10.81 5.18001 10.73 5.17001 10.69C5.17001 10.39 4.92 10.14 4.62 10.14C4.32 10.14 4.07001 10.39 4.07001 10.69C4.07001 10.76 4.08001 10.82 4.10001 10.88C3.83001 10.9 3.62 11.13 3.62 11.4C3.62 11.69 3.85001 11.92 4.14001 11.92C4.22001 11.92 4.48999 11.84 4.54999 11.8L4.20001 12.4H5.06L4.70999 11.8C4.77999 11.84 5.07999 11.92 5.14999 11.92C5.44999 11.92 5.70001 11.67 5.70001 11.37C5.70001 11.07 5.46 10.83 5.16 10.82V10.81Z" fill="#333333"/>
<g style="mix-blend-mode:color-burn" opacity="0.2">
<path d="M5.16 10.81C5.16 10.81 5.18001 10.73 5.17001 10.69C5.17001 10.39 4.92 10.14 4.62 10.14V12.4H5.06L4.70999 11.8C4.77999 11.84 5.07999 11.92 5.14999 11.92C5.44999 11.92 5.70001 11.67 5.70001 11.37C5.70001 11.07 5.46 10.83 5.16 10.82V10.81Z" fill="#616161"/>
</g>
<path d="M37.9899 46.12C37.9899 46.12 38.0099 46.2 37.9999 46.24C37.9999 46.54 37.75 46.79 37.45 46.79C37.15 46.79 36.8999 46.54 36.8999 46.24C36.8999 46.18 36.9099 46.11 36.9299 46.06C36.6599 46.04 36.45 45.81 36.45 45.54C36.45 45.25 36.6799 45.02 36.9699 45.02C37.0499 45.02 37.3199 45.1 37.3799 45.14L37.0299 44.54H37.89L37.5399 45.14C37.6099 45.1 37.9099 45.02 37.9799 45.02C38.2799 45.02 38.5299 45.27 38.5299 45.57C38.5299 45.87 38.2899 46.11 37.9899 46.12Z" fill="#333333"/>
<g style="mix-blend-mode:color-burn" opacity="0.2">
<path d="M37.9899 46.12C37.9899 46.12 38.0099 46.2 37.9999 46.24C37.9999 46.54 37.75 46.79 37.45 46.79V44.54H37.89L37.5399 45.14C37.6099 45.1 37.9099 45.02 37.9799 45.02C38.2799 45.02 38.5299 45.27 38.5299 45.57C38.5299 45.87 38.2899 46.11 37.9899 46.12Z" fill="#616161"/>
</g>
</svg>
