<svg width="40" height="56" viewBox="0 0 40 56" fill="none" xmlns="http://www.w3.org/2000/svg">
<path d="M4.49004 55.59C2.17004 55.59 0.280035 53.74 0.270035 51.47L0.150024 4.88999C0.150024 2.59999 2.03003 0.73999 4.36003 0.73999L35.14 0.79999C37.46 0.79999 39.34 2.66999 39.34 4.95999V51.44C39.34 53.71 37.46 55.56 35.15 55.57L4.48003 55.61L4.49004 55.59Z" fill="#C9C9C9"/>
<path d="M4.87999 55.48C2.58999 55.48 0.72998 53.62 0.72998 51.35V4.88C0.72998 2.6 2.58999 0.75 4.87999 0.75H35.21C37.5 0.75 39.36 2.6 39.36 4.88V51.35C39.36 53.63 37.5 55.48 35.21 55.48H4.87999Z" fill="white"/>
<path d="M27.3901 4.68994L23.3 9.84994L27.3901 15.0199L31.4801 9.84994L27.3901 4.68994Z" fill="#D66142"/>
<g style="mix-blend-mode:color-burn" opacity="0.2">
<path d="M27.36 4.71994L27.39 4.68994L31.48 9.84994L27.39 15.0199L27.36 14.9799V4.71994Z" fill="#616161"/>
</g>
<path d="M12.69 22.95L16.78 28.11L12.69 33.2799L8.59998 28.11L12.69 22.95Z" fill="#D66142"/>
<g style="mix-blend-mode:color-burn" opacity="0.2">
<path d="M12.72 22.9799L12.69 22.95L8.59998 28.11L12.69 33.2799L12.72 33.24V22.9799Z" fill="#616161"/>
</g>
<path d="M19.76 14.21L23.85 19.38L19.76 24.55L15.66 19.38L19.76 14.21Z" fill="#D66142"/>
<g style="mix-blend-mode:color-burn" opacity="0.2">
<path d="M19.78 14.25L19.76 14.21L15.66 19.38L19.76 24.55L19.78 24.51V14.25Z" fill="#616161"/>
</g>
<path d="M12.69 41.21L16.78 46.37L12.69 51.54L8.59998 46.37L12.69 41.21Z" fill="#D66142"/>
<g style="mix-blend-mode:color-burn" opacity="0.2">
<path d="M12.72 41.24L12.69 41.21L8.59998 46.37L12.69 51.54L12.72 51.5V41.24Z" fill="#616161"/>
</g>
<path d="M12.69 4.68994L16.78 9.84994L12.69 15.0199L8.59998 9.84994L12.69 4.68994Z" fill="#D66142"/>
<g style="mix-blend-mode:color-burn" opacity="0.2">
<path d="M12.72 4.71994L12.69 4.68994L8.59998 9.84994L12.69 15.0199L12.72 14.9799V4.71994Z" fill="#616161"/>
</g>
<path d="M27.3901 22.95L23.3 28.11L27.3901 33.2799L31.4801 28.11L27.3901 22.95Z" fill="#D66142"/>
<g style="mix-blend-mode:color-burn" opacity="0.2">
<path d="M27.36 22.9799L27.39 22.95L31.48 28.11L27.39 33.2799L27.36 33.24V22.9799Z" fill="#616161"/>
</g>
<path d="M27.3901 41.21L23.3 46.37L27.3901 51.54L31.4801 46.37L27.3901 41.21Z" fill="#D66142"/>
<g style="mix-blend-mode:color-burn" opacity="0.2">
<path d="M27.36 41.24L27.39 41.21L31.48 46.37L27.39 51.54L27.36 51.5V41.24Z" fill="#616161"/>
</g>
<path d="M3.99005 13.1899L2.79004 11.6899L3.99005 10.1899L5.18004 11.6899L3.99005 13.1899Z" fill="#D66142"/>
<g style="mix-blend-mode:color-burn" opacity="0.2">
<path d="M3.98999 10.1899L3.97998 10.1999V13.1799L3.98999 13.1899L5.17998 11.6899L3.98999 10.1899Z" fill="#616161"/>
</g>
<path d="M5.59999 4.26994C5.52999 4.40994 5.44998 4.53994 5.38998 4.66994C5.24998 4.95994 5.12998 5.19994 5.02998 5.40994C4.91998 5.64994 4.81999 5.86994 4.73999 6.07994C4.60999 6.38994 4.54999 6.53994 4.54999 6.54994C4.47999 6.69994 4.37998 6.87994 4.24998 7.10994C4.08998 7.37994 3.96999 7.56994 3.87999 7.68994C3.71999 7.88994 3.55998 8.06994 3.39998 8.21994C3.21998 8.38994 3.01999 8.53994 2.79999 8.66994C2.77999 8.66994 2.76998 8.64994 2.74998 8.63994C2.73998 8.62994 2.72998 8.60994 2.72998 8.58994C2.72998 8.55994 2.81998 8.42994 2.99998 8.18994C3.11998 8.04994 3.19998 7.92994 3.24998 7.83994C3.31998 7.71994 3.38999 7.58994 3.45999 7.43994C3.52999 7.28994 3.58999 7.13994 3.65999 6.97994C3.83999 6.60994 3.98998 6.26994 4.11998 5.95994C4.19998 5.76994 4.26999 5.54994 4.34999 5.30994C4.34999 5.22994 4.06998 5.18994 3.50998 5.18994C3.42998 5.18994 3.34998 5.19994 3.25998 5.22994C3.16998 5.25994 3.08998 5.29994 3.00998 5.36994H2.84999V5.23994C3.10999 4.86994 3.35999 4.60994 3.59999 4.46994C3.78999 4.34994 3.98999 4.28994 4.20999 4.28994C4.27999 4.28994 4.37998 4.28994 4.50998 4.30994C4.64998 4.32994 4.74999 4.32994 4.81999 4.32994C4.91999 4.32994 4.99999 4.32994 5.06999 4.31994C5.24999 4.29994 5.38999 4.25994 5.46999 4.18994H5.56999L5.58998 4.26994H5.59999Z" fill="#333333"/>
<path d="M34.75 52.4601C34.83 52.3201 34.9 52.1901 34.96 52.0601C35.1 51.7701 35.22 51.5301 35.31 51.3201C35.42 51.0801 35.52 50.8601 35.6 50.6501C35.73 50.3401 35.79 50.1901 35.79 50.1801C35.86 50.0301 35.96 49.8501 36.09 49.6201C36.25 49.3501 36.37 49.1601 36.46 49.0401C36.62 48.8401 36.77 48.6601 36.93 48.5101C37.11 48.3401 37.31 48.1901 37.53 48.0601C37.55 48.0601 37.56 48.0801 37.57 48.0901C37.58 48.1001 37.59 48.1201 37.59 48.1501C37.59 48.1801 37.5 48.3101 37.31 48.5501C37.19 48.6901 37.11 48.8101 37.06 48.9001C36.99 49.0201 36.92 49.1501 36.85 49.3001C36.78 49.4501 36.72 49.6001 36.65 49.7601C36.47 50.1301 36.32 50.4701 36.19 50.7801C36.11 50.9701 36.04 51.1901 35.96 51.4301C35.96 51.5101 36.24 51.5501 36.8 51.5501C36.88 51.5501 36.96 51.5401 37.05 51.5101C37.14 51.4801 37.22 51.4401 37.3 51.3701H37.46V51.5001C37.2 51.8701 36.95 52.1301 36.71 52.2701C36.52 52.3901 36.32 52.4401 36.1 52.4401C36.03 52.4401 35.94 52.4401 35.8 52.4201C35.66 52.4001 35.56 52.3901 35.49 52.3901C35.39 52.3901 35.31 52.3901 35.24 52.4001C35.06 52.4201 34.92 52.4601 34.84 52.5301H34.74L34.72 52.4501L34.75 52.4601Z" fill="#333333"/>
<path d="M36.36 43.54L37.55 45.05L36.36 46.55L35.17 45.05L36.36 43.54Z" fill="#D66142"/>
<g style="mix-blend-mode:color-burn" opacity="0.2">
<path d="M36.36 43.55V43.54L35.17 45.05L36.36 46.55V46.54V43.55Z" fill="#616161"/>
</g>
</svg>
