<svg width="40" height="56" viewBox="0 0 40 56" fill="none" xmlns="http://www.w3.org/2000/svg">
<path d="M4.57993 55.71C2.22993 55.71 0.309927 53.83 0.299927 51.52L0.179932 4.22C0.179932 1.89 2.08993 0 4.45993 0L35.7199 0.06C38.0699 0.06 39.9799 1.96 39.9799 4.28V51.48C39.9799 53.79 38.0699 55.67 35.7299 55.67L4.57993 55.71Z" fill="#C9C9C9"/>
<path d="M4.97 55.59C2.64 55.59 0.76001 53.71 0.76001 51.39V4.2C0.76001 1.89 2.65 0 4.97 0H35.77C38.09 0 39.98 1.88 39.98 4.2V51.39C39.98 53.7 38.09 55.59 35.77 55.59H4.97Z" fill="white"/>
<path d="M5.70004 3.59C5.62004 3.73 5.55002 3.86 5.49002 3.99C5.35002 4.28 5.22004 4.53 5.13004 4.74C5.02004 4.98 4.92002 5.21 4.83002 5.42C4.70002 5.73 4.63004 5.89 4.63004 5.9C4.56004 6.05 4.46002 6.24 4.33002 6.47C4.17002 6.74 4.05004 6.94 3.95004 7.06C3.79004 7.26 3.63003 7.44 3.47003 7.6C3.29003 7.77 3.09002 7.92 2.86002 8.06C2.84002 8.06 2.83003 8.04 2.81003 8.03C2.80003 8.02 2.79004 8 2.79004 7.97C2.79004 7.94 2.89004 7.8 3.07004 7.57C3.19004 7.43 3.27002 7.31 3.33002 7.22C3.40002 7.1 3.47004 6.97 3.54004 6.82C3.61004 6.67 3.67003 6.51 3.75003 6.35C3.93003 5.98 4.09002 5.63 4.21002 5.31C4.29002 5.11 4.37003 4.89 4.44003 4.65C4.44003 4.57 4.16003 4.53 3.59003 4.53C3.51003 4.53 3.43003 4.54 3.34003 4.57C3.25003 4.6 3.17003 4.64 3.09003 4.71H2.92004V4.58C3.19004 4.21 3.44002 3.94 3.68002 3.79C3.87002 3.67 4.08002 3.61 4.30002 3.61C4.36002 3.61 4.47002 3.61 4.61002 3.63C4.75002 3.65 4.85002 3.65 4.93002 3.65C5.04002 3.65 5.12002 3.65 5.18002 3.64C5.37002 3.62 5.51003 3.57 5.59003 3.5H5.69003L5.71002 3.58L5.70004 3.59Z" fill="#333333"/>
<path d="M35.3101 52.5301C35.3901 52.3901 35.4601 52.2601 35.5201 52.1301C35.6701 51.8401 35.7901 51.5901 35.8801 51.3801C35.9901 51.1401 36.0901 50.9101 36.1801 50.7001C36.3101 50.3901 36.3801 50.2301 36.3801 50.2201C36.4501 50.0701 36.5601 49.8801 36.6901 49.6501C36.8501 49.3801 36.9701 49.1801 37.0701 49.0601C37.2301 48.8601 37.39 48.6801 37.55 48.5201C37.73 48.3501 37.9301 48.2001 38.1601 48.0601C38.1801 48.0601 38.1901 48.0801 38.2101 48.0901C38.2301 48.1001 38.2301 48.1201 38.2301 48.1501C38.2301 48.1801 38.1401 48.3101 37.9501 48.5501C37.8301 48.7001 37.7401 48.8201 37.6901 48.9001C37.6201 49.0201 37.5501 49.1501 37.4801 49.3001C37.4201 49.4501 37.3501 49.6101 37.2801 49.7701C37.1001 50.1401 36.9401 50.4901 36.8201 50.8101C36.7401 51.0101 36.6601 51.2301 36.5901 51.4701C36.5901 51.5501 36.8801 51.5901 37.4401 51.5901C37.5201 51.5901 37.6001 51.5801 37.6901 51.5501C37.7801 51.5201 37.8601 51.4801 37.9401 51.4101H38.1001V51.5401C37.8401 51.9201 37.5801 52.1801 37.3401 52.3301C37.1501 52.4501 36.9401 52.5101 36.7201 52.5101C36.6501 52.5101 36.5501 52.5101 36.4201 52.4901C36.2801 52.4701 36.1701 52.4701 36.1001 52.4701C35.9901 52.4701 35.9101 52.4701 35.8501 52.4801C35.6601 52.5001 35.5201 52.5501 35.4401 52.6201H35.3401L35.3201 52.5401L35.3101 52.5301Z" fill="#333333"/>
<g style="mix-blend-mode:color-burn" opacity="0.2">
<path d="M32.11 9.38998C32.11 8.38998 27.75 4.09998 27.75 4.09998V14.4H29.79L28.17 11.61C28.56 11.85 29.02 11.99 29.51 11.99C30.95 11.99 32.13 10.83 32.13 9.37998L32.11 9.38998Z" fill="#616161"/>
</g>
<g style="mix-blend-mode:color-burn" opacity="0.2">
<path d="M32.11 28.41C32.11 27.41 27.75 23.12 27.75 23.12V33.42H29.79L28.17 30.63C28.56 30.87 29.02 31.01 29.51 31.01C30.95 31.01 32.13 29.85 32.13 28.4L32.11 28.41Z" fill="#616161"/>
</g>
<g style="mix-blend-mode:color-burn" opacity="0.2">
<path d="M8.66 9.38998C8.66 8.38998 13.02 4.09998 13.02 4.09998V14.4H10.98L12.6 11.61C12.21 11.85 11.75 11.99 11.26 11.99C9.82001 11.99 8.64001 10.83 8.64001 9.37998L8.66 9.38998Z" fill="#616161"/>
</g>
<g style="mix-blend-mode:color-burn" opacity="0.2">
<path d="M15.8 19.06C15.8 18.06 20.16 13.77 20.16 13.77V24.07H18.12L19.74 21.28C19.35 21.52 18.89 21.66 18.4 21.66C16.96 21.66 15.78 20.49 15.78 19.05L15.8 19.06Z" fill="#616161"/>
</g>
<g style="mix-blend-mode:color-burn" opacity="0.2">
<path d="M8.66 27.4799C8.66 26.4799 13.02 22.1899 13.02 22.1899V32.4899H10.98L12.6 29.6999C12.21 29.9299 11.75 30.0699 11.26 30.0799C9.82001 30.0799 8.64001 28.9199 8.64001 27.4699L8.66 27.4799Z" fill="#616161"/>
</g>
<g style="mix-blend-mode:color-burn" opacity="0.2">
<path d="M32.09 46.42C32.09 47.42 27.73 51.71 27.73 51.71V41.41H29.77L28.15 44.2C28.54 43.96 29 43.83 29.49 43.82C30.93 43.82 32.11 44.98 32.11 46.43L32.09 46.42Z" fill="#616161"/>
</g>
<g style="mix-blend-mode:color-burn" opacity="0.2">
<path d="M8.64001 46.42C8.64001 47.42 13 51.71 13 51.71V41.41H10.96L12.58 44.2C12.19 43.96 11.73 43.83 11.24 43.82C9.79999 43.82 8.62 44.98 8.62 46.43L8.64001 46.42Z" fill="#616161"/>
</g>
<g style="mix-blend-mode:color-burn" opacity="0.2">
<path d="M5.32004 11.29C5.32004 11.02 4.16003 9.88 4.16003 9.88V12.63H4.70004L4.27002 11.89C4.37002 11.95 4.49004 11.99 4.63004 11.99C5.01004 11.99 5.33002 11.68 5.33002 11.29H5.32004Z" fill="#616161"/>
</g>
<g style="mix-blend-mode:color-burn" opacity="0.2">
<path d="M35.92 45.4001C35.92 45.6701 37.08 46.8101 37.08 46.8101V44.0601H36.54L36.98 44.8001C36.87 44.7401 36.75 44.7001 36.62 44.7001C36.24 44.7001 35.92 45.0101 35.92 45.3901V45.4001Z" fill="#616161"/>
</g>
<path d="M5.32996 10.75C5.28996 11.45 3.88998 12.51 3.88998 12.51C3.88998 12.51 2.45996 11.44 2.45996 10.75C2.45996 10.27 2.84996 9.88 3.32996 9.88C3.59996 9.88 3.89996 10.12 3.89996 10.12C3.89996 10.12 4.18996 9.88 4.45996 9.88C4.93996 9.88 5.34996 10.27 5.32996 10.75Z" fill="#D66142"/>
<g style="mix-blend-mode:color-burn" opacity="0.2">
<path d="M4.47003 9.88C4.19003 9.88 3.91003 10.12 3.91003 10.12V12.51C3.91003 12.51 5.31004 11.45 5.35004 10.75C5.37004 10.27 4.96004 9.88 4.48004 9.88H4.47003Z" fill="#616161"/>
</g>
<path d="M35.36 45.92C35.4 45.21 36.83 44.13 36.83 44.13C36.83 44.13 38.3 45.22 38.3 45.93C38.3 46.42 37.9 46.81 37.41 46.81C37.14 46.81 36.83 46.56 36.83 46.56C36.83 46.56 36.54 46.81 36.26 46.8C35.77 46.8 35.35 46.4 35.37 45.91L35.36 45.92Z" fill="#D66142"/>
<g style="mix-blend-mode:color-burn" opacity="0.2">
<path d="M36.24 46.81C36.52 46.81 36.81 46.57 36.81 46.57C36.81 46.57 36.8101 46.57 36.8201 46.57V44.13C36.8201 44.13 35.3901 45.21 35.3501 45.92C35.3301 46.41 35.75 46.8 36.24 46.81Z" fill="#616161"/>
</g>
<path d="M9.10003 8C9.21003 9.98 13.18 12.99 13.18 12.99C13.18 12.99 17.27 9.96 17.27 7.97C17.27 6.6 16.15 5.5 14.79 5.5C14.02 5.5 13.17 6.19 13.17 6.19C13.17 6.19 12.36 5.5 11.57 5.51C10.2 5.53 9.03003 6.63 9.10003 7.99V8Z" fill="#D66142"/>
<g style="mix-blend-mode:color-burn" opacity="0.2">
<path d="M11.5699 5.52001C12.3599 5.51001 13.1699 6.2 13.1699 6.2C13.1699 6.2 13.1699 6.2 13.1999 6.18V12.99H13.1899C13.1899 12.99 9.21992 9.98001 9.10992 8.00001C9.03992 6.63001 10.2099 5.54001 11.5799 5.52001H11.5699Z" fill="#616161"/>
</g>
<path d="M31.9701 8C31.8601 9.98 27.8901 12.99 27.8901 12.99C27.8901 12.99 23.8101 9.96 23.8101 7.97C23.8101 6.6 24.9301 5.5 26.2901 5.5C27.0601 5.5 27.9101 6.19 27.9101 6.19C27.9101 6.19 28.7201 5.5 29.5101 5.51C30.8801 5.53 32.0501 6.63 31.9801 7.99L31.9701 8Z" fill="#D66142"/>
<g style="mix-blend-mode:color-burn" opacity="0.2">
<path d="M29.51 5.52001C28.72 5.51001 27.91 6.2 27.91 6.2C27.91 6.2 27.9 6.2 27.88 6.18V12.99H27.89C27.89 12.99 31.86 9.98001 31.97 8.00001C32.04 6.63001 30.87 5.54001 29.5 5.52001H29.51Z" fill="#616161"/>
</g>
<path d="M16.29 17.6801C16.4 19.6601 20.37 22.6701 20.37 22.6701C20.37 22.6701 24.46 19.6401 24.46 17.6501C24.46 16.2801 23.35 15.1801 21.98 15.1801C21.22 15.1801 20.36 15.8701 20.36 15.8701C20.36 15.8701 19.55 15.1801 18.76 15.1901C17.39 15.2101 16.22 16.3001 16.3 17.6701L16.29 17.6801Z" fill="#D66142"/>
<g style="mix-blend-mode:color-burn" opacity="0.2">
<path d="M18.76 15.2001C19.55 15.1901 20.36 15.8801 20.36 15.8801C20.36 15.8801 20.37 15.8801 20.39 15.8601V22.6701H20.38C20.38 22.6701 16.41 19.6601 16.3 17.6801C16.23 16.3101 17.4 15.2201 18.76 15.2001Z" fill="#616161"/>
</g>
<path d="M9.10003 47.24C9.21003 45.26 13.18 42.25 13.18 42.25C13.18 42.25 17.27 45.28 17.27 47.27C17.27 48.63 16.15 49.74 14.79 49.74C14.02 49.74 13.17 49.05 13.17 49.05C13.17 49.05 12.36 49.74 11.57 49.73C10.2 49.71 9.03003 48.62 9.10003 47.25V47.24Z" fill="#D66142"/>
<g style="mix-blend-mode:color-burn" opacity="0.2">
<path d="M11.5699 49.72C12.3599 49.73 13.1699 49.04 13.1699 49.04C13.1699 49.04 13.1699 49.04 13.1999 49.06V42.25H13.1899C13.1899 42.25 9.21992 45.26 9.10992 47.24C9.03992 48.61 10.2099 49.7 11.5799 49.72H11.5699Z" fill="#616161"/>
</g>
<path d="M31.9701 47.24C31.8601 45.26 27.8901 42.25 27.8901 42.25C27.8901 42.25 23.8101 45.28 23.8101 47.27C23.8101 48.63 24.9301 49.74 26.2901 49.74C27.0601 49.74 27.9101 49.05 27.9101 49.05C27.9101 49.05 28.7201 49.74 29.5101 49.73C30.8801 49.71 32.0501 48.62 31.9801 47.25L31.9701 47.24Z" fill="#D66142"/>
<g style="mix-blend-mode:color-burn" opacity="0.2">
<path d="M29.51 49.72C28.72 49.73 27.91 49.04 27.91 49.04C27.91 49.04 27.9 49.04 27.88 49.06V42.25H27.89C27.89 42.25 31.86 45.26 31.97 47.24C32.04 48.61 30.87 49.7 29.5 49.72H29.51Z" fill="#616161"/>
</g>
<path d="M9.10003 28.87C9.21003 26.89 13.18 23.88 13.18 23.88C13.18 23.88 17.27 26.92 17.27 28.9C17.27 30.26 16.15 31.37 14.79 31.37C14.02 31.37 13.17 30.68 13.17 30.68C13.17 30.68 12.36 31.37 11.57 31.36C10.2 31.34 9.03003 30.24 9.10003 28.88V28.87Z" fill="#D66142"/>
<g style="mix-blend-mode:color-burn" opacity="0.2">
<path d="M11.5699 31.35C12.3599 31.36 13.1699 30.67 13.1699 30.67C13.1699 30.67 13.1699 30.67 13.1999 30.69V23.88H13.1899C13.1899 23.88 9.21992 26.89 9.10992 28.87C9.03992 30.24 10.2099 31.33 11.5799 31.35H11.5699Z" fill="#616161"/>
</g>
<path d="M31.9701 28.87C31.8601 26.89 27.8901 23.88 27.8901 23.88C27.8901 23.88 23.8101 26.92 23.8101 28.9C23.8101 30.26 24.9301 31.37 26.2901 31.37C27.0601 31.37 27.9101 30.68 27.9101 30.68C27.9101 30.68 28.7201 31.37 29.5101 31.36C30.8801 31.34 32.0501 30.24 31.9801 28.88L31.9701 28.87Z" fill="#D66142"/>
<g style="mix-blend-mode:color-burn" opacity="0.2">
<path d="M29.51 31.35C28.72 31.36 27.91 30.67 27.91 30.67C27.91 30.67 27.9 30.67 27.88 30.69V23.88H27.89C27.89 23.88 31.86 26.89 31.97 28.87C32.04 30.24 30.87 31.33 29.5 31.35H29.51Z" fill="#616161"/>
</g>
</svg>
