<svg width="41" height="57" viewBox="0 0 41 57" fill="none" xmlns="http://www.w3.org/2000/svg">
<path d="M4.64001 56.02C2.29001 56.02 0.369985 54.15 0.359985 51.83L0.23999 4.52999C0.23999 2.19999 2.15001 0.309986 4.51001 0.319986L35.77 0.379986C38.12 0.379986 40.04 2.27999 40.04 4.59999V51.8C40.04 54.11 38.13 55.99 35.79 55.99L4.64001 56.03V56.02Z" fill="#C9C9C9"/>
<path d="M5.03006 55.9099C2.71006 55.9099 0.820068 54.0299 0.820068 51.7099V4.51995C0.820068 2.19995 2.71006 0.319946 5.03006 0.319946H35.8401C38.1601 0.319946 40.05 2.19995 40.05 4.51995V51.7099C40.05 54.0199 38.1601 55.9099 35.8401 55.9099H5.03006Z" fill="white"/>
<path d="M5.76001 3.89998C5.68001 4.03998 5.60999 4.16998 5.54999 4.29998C5.39999 4.58998 5.28 4.83998 5.19 5.04998C5.08 5.28998 4.98001 5.50998 4.89001 5.72998C4.76001 6.03998 4.70001 6.19998 4.70001 6.20998C4.63001 6.35998 4.52001 6.54998 4.39001 6.77998C4.23001 7.04998 4.11001 7.24998 4.01001 7.36998C3.85001 7.56998 3.69 7.74998 3.53 7.90998C3.35 8.07998 3.15001 8.22998 2.92001 8.36998C2.90001 8.36998 2.89 8.34998 2.88 8.33998C2.86 8.32998 2.85999 8.30998 2.85999 8.28998C2.85999 8.25998 2.95001 8.11998 3.14001 7.88998C3.26001 7.73998 3.33999 7.62998 3.39999 7.53998C3.46999 7.41998 3.53999 7.28998 3.60999 7.13998C3.67999 6.98998 3.74001 6.82998 3.82001 6.66998C4.00001 6.29998 4.16 5.94998 4.28 5.63998C4.36 5.43998 4.43001 5.21998 4.51001 4.97998C4.51001 4.89998 4.23 4.85998 3.66 4.85998C3.58 4.85998 3.5 4.86998 3.41 4.89998C3.32 4.92998 3.24 4.96998 3.16 5.03998H2.98999V4.90998C3.25999 4.53998 3.51 4.26998 3.75 4.11998C3.94 3.99998 4.15 3.93998 4.37 3.93998C4.44 3.93998 4.53999 3.93998 4.67999 3.96998C4.81999 3.98998 4.92 3.98998 5 3.98998C5.11 3.98998 5.19 3.98998 5.25 3.97998C5.44 3.95998 5.57 3.91998 5.66 3.84998H5.76001L5.78 3.92998L5.76001 3.89998Z" fill="#333333"/>
<path d="M35.36 52.84C35.44 52.7 35.51 52.57 35.57 52.44C35.72 52.15 35.84 51.9 35.93 51.69C36.04 51.45 36.14 51.22 36.23 51.01C36.36 50.7 36.43 50.54 36.43 50.54C36.5 50.39 36.61 50.2 36.74 49.97C36.9 49.7 37.03 49.5 37.12 49.38C37.28 49.18 37.44 49 37.6 48.84C37.78 48.67 37.99 48.52 38.21 48.38C38.23 48.38 38.24 48.4 38.25 48.41C38.27 48.42 38.27 48.44 38.27 48.47C38.27 48.5 38.18 48.64 37.99 48.87C37.87 49.02 37.79 49.14 37.73 49.22C37.66 49.34 37.59 49.47 37.52 49.62C37.45 49.77 37.38 49.93 37.31 50.09C37.13 50.46 36.97 50.81 36.85 51.13C36.77 51.32 36.7 51.54 36.62 51.79C36.62 51.87 36.91 51.91 37.47 51.91C37.55 51.91 37.63 51.89 37.72 51.87C37.81 51.84 37.89 51.8 37.97 51.73H38.14V51.86C37.87 52.24 37.62 52.5 37.38 52.65C37.19 52.77 36.98 52.83 36.76 52.83C36.7 52.83 36.59 52.83 36.46 52.8C36.32 52.78 36.21 52.78 36.14 52.78C36.03 52.78 35.95 52.78 35.89 52.79C35.7 52.81 35.57 52.85 35.48 52.92H35.38L35.36 52.84Z" fill="#333333"/>
<path d="M32.1601 9.70003C32.1601 8.70003 27.8 4.41003 27.8 4.41003C27.8 4.41003 23.55 8.83003 23.55 9.69003C23.55 11.13 24.7101 12.3 26.1501 12.3C26.6401 12.3 27.1001 12.17 27.5001 11.93L25.86 14.72H29.83L28.2101 11.94C28.6001 12.17 29.06 12.31 29.55 12.32C30.99 12.32 32.1701 11.16 32.1701 9.71003L32.1601 9.70003Z" fill="#333333"/>
<g style="mix-blend-mode:color-burn" opacity="0.2">
<path d="M32.1601 9.70003C32.1601 8.70003 27.8 4.41003 27.8 4.41003V14.71H29.8401L28.2201 11.92C28.6101 12.15 29.0701 12.29 29.5601 12.3C31.0001 12.3 32.1801 11.14 32.1801 9.69003L32.1601 9.70003Z" fill="#616161"/>
</g>
<path d="M32.1601 28.7201C32.1601 27.7201 27.8 23.4301 27.8 23.4301C27.8 23.4301 23.55 27.8501 23.55 28.7101C23.55 30.1501 24.7101 31.3201 26.1501 31.3201C26.6401 31.3201 27.1001 31.1901 27.5001 30.9501L25.86 33.7401H29.83L28.2101 30.9601C28.6001 31.2001 29.06 31.3401 29.55 31.3401C30.99 31.3401 32.1701 30.1801 32.1701 28.7301L32.1601 28.7201Z" fill="#333333"/>
<g style="mix-blend-mode:color-burn" opacity="0.2">
<path d="M32.1601 28.7201C32.1601 27.7201 27.8 23.4301 27.8 23.4301V33.7301H29.8401L28.2201 30.9401C28.6101 31.1801 29.0701 31.3201 29.5601 31.3201C31.0001 31.3201 32.1801 30.1601 32.1801 28.7101L32.1601 28.7201Z" fill="#616161"/>
</g>
<path d="M8.71997 9.70003C8.71997 8.70003 13.08 4.41003 13.08 4.41003C13.08 4.41003 17.33 8.83003 17.33 9.69003C17.33 11.13 16.17 12.3 14.73 12.3C14.24 12.3 13.78 12.17 13.39 11.93L15.02 14.72H11.05L12.67 11.94C12.28 12.17 11.82 12.31 11.33 12.32C9.88996 12.32 8.70996 11.16 8.70996 9.71003L8.71997 9.70003Z" fill="#333333"/>
<g style="mix-blend-mode:color-burn" opacity="0.2">
<path d="M8.71994 9.70003C8.71994 8.70003 13.0799 4.41003 13.0799 4.41003V14.71H11.0399L12.6599 11.92C12.2699 12.15 11.8099 12.29 11.3199 12.3C9.87995 12.3 8.69995 11.14 8.69995 9.69003L8.71994 9.70003Z" fill="#616161"/>
</g>
<path d="M15.86 19.38C15.86 18.38 20.22 14.09 20.22 14.09C20.22 14.09 24.47 18.51 24.47 19.36C24.47 20.8 23.31 21.97 21.87 21.97C21.38 21.97 20.92 21.84 20.52 21.6L22.16 24.39H18.19L19.81 21.61C19.42 21.85 18.96 21.99 18.47 21.99C17.03 21.99 15.85 20.83 15.85 19.38H15.86Z" fill="#333333"/>
<g style="mix-blend-mode:color-burn" opacity="0.2">
<path d="M15.86 19.38C15.86 18.38 20.22 14.09 20.22 14.09V24.39H18.18L19.8 21.6C19.41 21.84 18.95 21.98 18.46 21.98C17.02 21.98 15.84 20.82 15.84 19.37L15.86 19.38Z" fill="#616161"/>
</g>
<path d="M8.71997 27.79C8.71997 26.79 13.08 22.5 13.08 22.5C13.08 22.5 17.33 26.92 17.33 27.78C17.33 29.22 16.17 30.39 14.73 30.39C14.24 30.39 13.78 30.26 13.39 30.02L15.02 32.81H11.05L12.67 30.03C12.28 30.27 11.82 30.41 11.33 30.41C9.88996 30.41 8.70996 29.25 8.70996 27.8L8.71997 27.79Z" fill="#333333"/>
<g style="mix-blend-mode:color-burn" opacity="0.2">
<path d="M8.71994 27.79C8.71994 26.79 13.0799 22.5 13.0799 22.5V32.8H11.0399L12.6599 30.01C12.2699 30.25 11.8099 30.39 11.3199 30.39C9.87995 30.39 8.69995 29.23 8.69995 27.78L8.71994 27.79Z" fill="#616161"/>
</g>
<path d="M32.14 46.73C32.14 47.73 27.78 52.02 27.78 52.02C27.78 52.02 23.53 47.6 23.52 46.74C23.52 45.3 24.68 44.13 26.13 44.13C26.62 44.13 27.08 44.26 27.48 44.5L25.84 41.71H29.81L28.19 44.49C28.58 44.25 29.04 44.11 29.53 44.11C30.97 44.11 32.15 45.27 32.15 46.72L32.14 46.73Z" fill="#333333"/>
<g style="mix-blend-mode:color-burn" opacity="0.2">
<path d="M32.14 46.73C32.14 47.73 27.78 52.02 27.78 52.02V41.72H29.81L28.19 44.51C28.58 44.27 29.04 44.13 29.53 44.13C30.97 44.13 32.15 45.29 32.15 46.74L32.14 46.73Z" fill="#616161"/>
</g>
<path d="M8.68994 46.73C8.68994 47.73 13.0499 52.02 13.0499 52.02C13.0499 52.02 17.2999 47.6 17.3099 46.74C17.3099 45.3 16.1499 44.13 14.7099 44.13C14.2199 44.13 13.7599 44.26 13.3599 44.5L14.9999 41.71H11.0299L12.6499 44.49C12.2599 44.25 11.7999 44.11 11.3099 44.11C9.86994 44.11 8.68994 45.27 8.68994 46.72V46.73Z" fill="#333333"/>
<g style="mix-blend-mode:color-burn" opacity="0.2">
<path d="M8.69003 46.73C8.69003 47.73 13.05 52.02 13.05 52.02V41.72H11.01L12.63 44.51C12.24 44.27 11.78 44.13 11.29 44.13C9.85004 44.13 8.67004 45.29 8.67004 46.74L8.69003 46.73Z" fill="#616161"/>
</g>
<path d="M5.37997 11.61C5.37997 11.34 4.21997 10.2 4.21997 10.2C4.21997 10.2 3.08996 11.38 3.07996 11.61C3.07996 11.99 3.38997 12.31 3.77997 12.31C3.90997 12.31 4.02998 12.27 4.13998 12.21L3.69998 12.95H4.75998L4.32996 12.21C4.42996 12.27 4.54997 12.31 4.68997 12.31C5.07997 12.31 5.38998 12 5.38998 11.62L5.37997 11.61Z" fill="#333333"/>
<g style="mix-blend-mode:color-burn" opacity="0.2">
<path d="M5.37997 11.61C5.37997 11.34 4.21997 10.2 4.21997 10.2V12.95H4.75998L4.32996 12.21C4.42996 12.27 4.54997 12.31 4.68997 12.31C5.07997 12.31 5.38998 12 5.38998 11.62L5.37997 11.61Z" fill="#616161"/>
</g>
<path d="M35.97 45.72C35.97 45.99 37.14 47.13 37.14 47.13C37.14 47.13 38.27 45.95 38.27 45.72C38.27 45.34 37.96 45.02 37.58 45.02C37.45 45.02 37.33 45.06 37.22 45.12L37.65 44.38H36.59L37.02 45.12C36.91 45.06 36.79 45.02 36.66 45.02C36.28 45.02 35.96 45.33 35.96 45.71L35.97 45.72Z" fill="#333333"/>
<g style="mix-blend-mode:color-burn" opacity="0.2">
<path d="M35.97 45.72C35.97 45.99 37.14 47.13 37.14 47.13V44.38H36.6L37.03 45.13C36.92 45.07 36.8 45.03 36.67 45.03C36.29 45.03 35.97 45.34 35.97 45.72Z" fill="#616161"/>
</g>
</svg>
