<svg width="41" height="57" viewBox="0 0 41 57" fill="none" xmlns="http://www.w3.org/2000/svg">
<path d="M5.06003 56.13C2.71003 56.13 0.790029 54.25 0.780029 51.94L0.660034 4.63999C0.660034 2.30999 2.57002 0.419971 4.93002 0.429971L36.19 0.489969C38.54 0.489969 40.46 2.38997 40.46 4.70997V51.91C40.46 54.22 38.55 56.1 36.21 56.1L5.06003 56.14V56.13Z" fill="#C9C9C9"/>
<path d="M5.44998 56.02C3.12998 56.02 1.23999 54.14 1.23999 51.82V4.63C1.23999 2.31 3.12998 0.429993 5.44998 0.429993H36.25C38.57 0.429993 40.46 2.31 40.46 4.63V51.82C40.46 54.13 38.57 56.02 36.25 56.02H5.44998Z" fill="white"/>
<path d="M6.18001 6.81C6.18001 6.9 6.14002 7.01999 6.05002 7.17999C5.93002 7.39999 5.76001 7.62 5.54001 7.84C5.28001 8.1 5.15002 8.24001 5.13002 8.26001C4.97002 8.38001 4.77001 8.44 4.53001 8.44C4.21001 8.44 3.93002 8.32001 3.69002 8.07001C3.49002 7.86001 3.39001 7.65999 3.39001 7.45999C3.39001 7.31999 3.46001 7.16001 3.59001 6.98001C3.73001 6.80001 3.87001 6.60999 4.01001 6.42999C3.90001 6.32999 3.81001 6.23 3.73001 6.12C3.65001 6 3.61002 5.87001 3.61002 5.73001C3.61002 5.55001 3.68001 5.36 3.81001 5.16C3.94001 4.99 4.05002 4.83999 4.13002 4.70999C4.34002 4.40999 4.52001 4.22 4.65001 4.13C4.79001 4.04 4.94002 4 5.10002 4C5.35002 4 5.56001 4.06999 5.73001 4.20999C5.91001 4.34999 5.99002 4.53999 5.99002 4.76999C5.99002 5.02999 5.88001 5.26999 5.67001 5.48999C5.46001 5.71999 5.35002 5.86999 5.35002 5.95999C5.56002 6.09999 5.74001 6.22999 5.90001 6.35999C6.07001 6.49999 6.16002 6.64999 6.16002 6.79999L6.18001 6.81ZM5.39001 7.35001C5.39001 7.22001 5.24001 7.06 4.93001 6.87C4.65001 6.7 4.48001 6.62 4.40001 6.62C4.37001 6.62 4.33001 6.67 4.28001 6.75C4.23001 6.84 4.20001 6.92001 4.20001 6.98001C4.20001 7.15001 4.30002 7.30999 4.50002 7.45999C4.69002 7.59999 4.86001 7.67001 5.03001 7.67001C5.11001 7.67001 5.19002 7.64001 5.27002 7.57001C5.35002 7.50001 5.39001 7.43001 5.39001 7.35001ZM5.16002 5.41C5.16002 5.31 5.10002 5.2 5.00002 5.09C4.88002 4.96 4.73002 4.89999 4.58002 4.89999C4.51002 4.89999 4.45001 4.92 4.40001 4.97C4.35001 5.02 4.33002 5.07001 4.33002 5.14001C4.33002 5.27001 4.43001 5.42001 4.64001 5.57001C4.82001 5.70001 4.93002 5.76999 4.99002 5.76999C5.03002 5.76999 5.07002 5.72001 5.11002 5.64001C5.15002 5.55001 5.18001 5.47 5.18001 5.41H5.16002Z" fill="#333333"/>
<path d="M35.78 50.15C35.78 50.06 35.82 49.94 35.91 49.78C36.03 49.56 36.2 49.34 36.42 49.11C36.68 48.85 36.81 48.71 36.83 48.7C36.99 48.58 37.19 48.52 37.43 48.52C37.75 48.52 38.03 48.64 38.27 48.89C38.47 49.1 38.57 49.3 38.57 49.5C38.57 49.64 38.5 49.8 38.37 49.98C38.23 50.16 38.09 50.35 37.95 50.53C38.06 50.62 38.15 50.73 38.23 50.84C38.31 50.96 38.35 51.09 38.35 51.23C38.35 51.41 38.28 51.6 38.15 51.8C38.02 51.97 37.91 52.12 37.83 52.25C37.62 52.55 37.44 52.75 37.31 52.83C37.17 52.92 37.02 52.96 36.86 52.96C36.62 52.96 36.41 52.89 36.23 52.75C36.05 52.61 35.96 52.42 35.96 52.19C35.96 51.93 36.07 51.69 36.28 51.46C36.49 51.23 36.6 51.08 36.6 50.99C36.39 50.85 36.21 50.71 36.05 50.59C35.88 50.44 35.79 50.3 35.79 50.14L35.78 50.15ZM36.57 49.61C36.57 49.74 36.72 49.9 37.03 50.09C37.31 50.26 37.48 50.34 37.56 50.34C37.59 50.34 37.63 50.3 37.68 50.21C37.73 50.12 37.76 50.04 37.76 49.98C37.76 49.81 37.66 49.66 37.45 49.51C37.26 49.37 37.09 49.3 36.92 49.3C36.84 49.3 36.76 49.33 36.68 49.4C36.6 49.47 36.56 49.54 36.56 49.62L36.57 49.61ZM36.8 51.55C36.8 51.65 36.86 51.76 36.96 51.87C37.08 51.99 37.23 52.06 37.38 52.06C37.45 52.06 37.51 52.04 37.56 51.99C37.61 51.95 37.63 51.89 37.63 51.83C37.63 51.7 37.53 51.55 37.32 51.4C37.14 51.27 37.03 51.2 36.97 51.2C36.93 51.2 36.89 51.24 36.85 51.33C36.81 51.42 36.78 51.49 36.78 51.55H36.8Z" fill="#333333"/>
<path d="M30.45 7.87003C30.49 7.69003 30.51 7.52002 30.51 7.33002C30.51 6.00002 29.43 4.92004 28.1 4.92004C26.77 4.92004 25.69 6.00002 25.69 7.33002C25.69 7.62002 25.74 7.89005 25.83 8.14005C24.66 8.23005 23.74 9.21003 23.73 10.41C23.73 11.67 24.75 12.68 26.01 12.69C26.34 12.69 27.53 12.32 27.79 12.17L26.25 14.81H30.01L28.47 12.17C28.78 12.36 30.09 12.69 30.41 12.69C31.74 12.69 32.82 11.61 32.82 10.28C32.82 8.97003 31.76 7.90004 30.45 7.88004V7.87003Z" fill="#333333"/>
<g style="mix-blend-mode:color-burn" opacity="0.2">
<path d="M30.45 7.87003C30.49 7.69003 30.51 7.52002 30.51 7.33002C30.51 6.00002 29.43 4.92004 28.1 4.92004C28.1 4.92004 28.1 4.92004 28.09 4.92004V14.8H30.01L28.47 12.16C28.78 12.35 30.09 12.68 30.41 12.68C31.74 12.68 32.82 11.6 32.82 10.27C32.82 8.96002 31.76 7.89003 30.45 7.87003Z" fill="#616161"/>
</g>
<path d="M30.45 20.04C30.49 19.87 30.51 19.69 30.51 19.5C30.51 18.17 29.43 17.09 28.1 17.1C26.77 17.1 25.69 18.18 25.69 19.5C25.69 19.79 25.74 20.06 25.83 20.31C24.66 20.4 23.74 21.38 23.73 22.58C23.73 23.84 24.75 24.85 26.01 24.86C26.34 24.86 27.53 24.49 27.79 24.34L26.25 26.98H30.01L28.47 24.33C28.78 24.52 30.09 24.85 30.41 24.85C31.74 24.85 32.82 23.77 32.82 22.44C32.82 21.13 31.76 20.06 30.45 20.04Z" fill="#333333"/>
<g style="mix-blend-mode:color-burn" opacity="0.2">
<path d="M30.45 20.04C30.49 19.87 30.51 19.69 30.51 19.5C30.51 18.17 29.43 17.09 28.1 17.1H28.09V26.98H30.01L28.47 24.34C28.78 24.53 30.09 24.86 30.41 24.86C31.74 24.86 32.82 23.7801 32.82 22.4501C32.82 21.1401 31.76 20.07 30.45 20.05V20.04Z" fill="#616161"/>
</g>
<path d="M11.26 7.87003C11.22 7.69003 11.2 7.52002 11.2 7.33002C11.2 6.00002 12.28 4.92004 13.61 4.92004C14.94 4.92004 16.02 6.00002 16.02 7.33002C16.02 7.62002 15.97 7.89005 15.88 8.14005C17.05 8.23005 17.97 9.21003 17.98 10.41C17.98 11.67 16.96 12.68 15.7 12.69C15.37 12.69 14.18 12.32 13.92 12.17L15.46 14.81H11.7L13.24 12.17C12.93 12.36 11.62 12.69 11.3 12.69C9.97002 12.69 8.89001 11.61 8.89001 10.28C8.89001 8.97003 9.95001 7.90004 11.26 7.88004V7.87003Z" fill="#333333"/>
<g style="mix-blend-mode:color-burn" opacity="0.2">
<path d="M11.26 7.87003C11.22 7.69003 11.2 7.52002 11.2 7.33002C11.2 6.00002 12.28 4.92004 13.61 4.92004C13.61 4.92004 13.61 4.92004 13.62 4.92004V14.8H11.7L13.24 12.16C12.93 12.35 11.62 12.68 11.3 12.68C9.97002 12.68 8.89001 11.6 8.89001 10.27C8.89001 8.96002 9.95001 7.89003 11.26 7.87003Z" fill="#616161"/>
</g>
<path d="M11.26 20.04C11.22 19.87 11.2 19.69 11.2 19.5C11.2 18.17 12.28 17.09 13.61 17.1C14.94 17.1 16.02 18.18 16.02 19.5C16.02 19.79 15.97 20.06 15.88 20.31C17.05 20.4 17.97 21.38 17.98 22.58C17.98 23.84 16.96 24.85 15.7 24.86C15.37 24.86 14.18 24.49 13.92 24.34L15.46 26.98H11.7L13.24 24.33C12.93 24.52 11.62 24.85 11.3 24.85C9.97002 24.85 8.89001 23.77 8.89001 22.44C8.89001 21.13 9.95001 20.06 11.26 20.04Z" fill="#333333"/>
<g style="mix-blend-mode:color-burn" opacity="0.2">
<path d="M11.26 20.04C11.22 19.87 11.2 19.69 11.2 19.5C11.2 18.17 12.28 17.09 13.61 17.1H13.62V26.98H11.7L13.24 24.34C12.93 24.53 11.62 24.86 11.3 24.86C9.97002 24.86 8.89001 23.7801 8.89001 22.4501C8.89001 21.1401 9.95001 20.07 11.26 20.05V20.04Z" fill="#616161"/>
</g>
<path d="M30.45 48.56C30.49 48.74 30.51 48.91 30.51 49.1C30.51 50.43 29.43 51.51 28.1 51.51C26.77 51.51 25.69 50.44 25.69 49.1C25.69 48.81 25.74 48.54 25.83 48.29C24.66 48.2 23.74 47.22 23.73 46.02C23.73 44.76 24.75 43.74 26.01 43.74C26.34 43.74 27.53 44.11 27.79 44.26L26.25 41.62H30.01L28.47 44.26C28.78 44.07 30.09 43.74 30.41 43.74C31.74 43.74 32.82 44.82 32.82 46.15C32.82 47.47 31.76 48.53 30.45 48.55V48.56Z" fill="#333333"/>
<g style="mix-blend-mode:color-burn" opacity="0.2">
<path d="M30.45 48.56C30.49 48.74 30.51 48.91 30.51 49.1C30.51 50.43 29.43 51.51 28.1 51.51C28.1 51.51 28.1 51.51 28.09 51.51V41.63H30.01L28.47 44.27C28.78 44.08 30.09 43.75 30.41 43.75C31.74 43.75 32.82 44.83 32.82 46.16C32.82 47.48 31.76 48.54 30.45 48.56Z" fill="#616161"/>
</g>
<path d="M30.45 36.4C30.49 36.58 30.51 36.75 30.51 36.94C30.51 38.27 29.43 39.35 28.1 39.35C26.77 39.35 25.69 38.28 25.69 36.94C25.69 36.65 25.74 36.38 25.83 36.13C24.66 36.04 23.74 35.06 23.73 33.86C23.73 32.6 24.75 31.58 26.01 31.58C26.34 31.58 27.53 31.95 27.79 32.1L26.25 29.46H30.01L28.47 32.11C28.78 31.92 30.09 31.59 30.41 31.59C31.74 31.59 32.82 32.67 32.82 34C32.82 35.32 31.76 36.38 30.45 36.4Z" fill="#333333"/>
<g style="mix-blend-mode:color-burn" opacity="0.2">
<path d="M30.45 36.4C30.49 36.58 30.51 36.75 30.51 36.94C30.51 38.27 29.43 39.35 28.1 39.35H28.09V29.47H30.01L28.47 32.11C28.78 31.92 30.09 31.59 30.41 31.59C31.74 31.59 32.82 32.67 32.82 34C32.82 35.32 31.76 36.38 30.45 36.4Z" fill="#616161"/>
</g>
<path d="M11.26 48.56C11.22 48.74 11.2 48.91 11.2 49.1C11.2 50.43 12.28 51.51 13.61 51.51C14.94 51.51 16.02 50.44 16.02 49.1C16.02 48.81 15.97 48.54 15.88 48.29C17.05 48.2 17.97 47.22 17.98 46.02C17.98 44.76 16.96 43.74 15.7 43.74C15.37 43.74 14.18 44.11 13.92 44.26L15.46 41.62H11.7L13.24 44.26C12.93 44.07 11.62 43.74 11.3 43.74C9.97002 43.74 8.89001 44.82 8.89001 46.15C8.89001 47.47 9.95001 48.53 11.26 48.55V48.56Z" fill="#333333"/>
<g style="mix-blend-mode:color-burn" opacity="0.2">
<path d="M11.26 48.56C11.22 48.74 11.2 48.91 11.2 49.1C11.2 50.43 12.28 51.51 13.61 51.51C13.61 51.51 13.61 51.51 13.62 51.51V41.63H11.7L13.24 44.27C12.93 44.08 11.62 43.75 11.3 43.75C9.97002 43.75 8.89001 44.83 8.89001 46.16C8.89001 47.48 9.95001 48.54 11.26 48.56Z" fill="#616161"/>
</g>
<path d="M11.26 36.4C11.22 36.58 11.2 36.75 11.2 36.94C11.2 38.27 12.28 39.35 13.61 39.35C14.94 39.35 16.02 38.28 16.02 36.94C16.02 36.65 15.97 36.38 15.88 36.13C17.05 36.04 17.97 35.06 17.98 33.86C17.98 32.6 16.96 31.58 15.7 31.58C15.37 31.58 14.18 31.95 13.92 32.1L15.46 29.46H11.7L13.24 32.11C12.93 31.92 11.62 31.59 11.3 31.59C9.97002 31.59 8.89001 32.67 8.89001 34C8.89001 35.32 9.95001 36.38 11.26 36.4Z" fill="#333333"/>
<g style="mix-blend-mode:color-burn" opacity="0.2">
<path d="M11.26 36.4C11.22 36.58 11.2 36.75 11.2 36.94C11.2 38.27 12.28 39.35 13.61 39.35H13.62V29.47H11.7L13.24 32.11C12.93 31.92 11.62 31.59 11.3 31.59C9.97002 31.59 8.89001 32.67 8.89001 34C8.89001 35.32 9.95001 36.38 11.26 36.4Z" fill="#616161"/>
</g>
<path d="M4.93002 11.24C4.93002 11.24 4.95003 11.16 4.95003 11.12C4.95003 10.82 4.70002 10.57 4.40002 10.57C4.10002 10.57 3.85004 10.82 3.85004 11.12C3.85004 11.18 3.86004 11.25 3.88004 11.31C3.61004 11.33 3.40002 11.55 3.40002 11.83C3.40002 12.11 3.63003 12.35 3.92003 12.35C4.00003 12.35 4.27004 12.27 4.32004 12.23L3.97003 12.83H4.83003L4.48003 12.23C4.55003 12.27 4.85003 12.35 4.92003 12.35C5.22003 12.35 5.47003 12.1 5.47003 11.8C5.47003 11.5 5.23002 11.26 4.93002 11.25V11.24Z" fill="#333333"/>
<g style="mix-blend-mode:color-burn" opacity="0.2">
<path d="M4.93002 11.24C4.93002 11.24 4.95003 11.16 4.95003 11.12C4.95003 10.82 4.70002 10.57 4.40002 10.57V12.83H4.84003L4.49004 12.23C4.56004 12.27 4.86002 12.35 4.93002 12.35C5.23002 12.35 5.48003 12.1 5.48003 11.8C5.48003 11.5 5.24003 11.26 4.94003 11.25L4.93002 11.24Z" fill="#616161"/>
</g>
<path d="M37.76 46.55C37.76 46.55 37.77 46.63 37.77 46.67C37.77 46.97 37.52 47.22 37.22 47.22C36.92 47.22 36.67 46.97 36.67 46.67C36.67 46.6 36.68 46.54 36.7 46.48C36.43 46.46 36.22 46.24 36.22 45.96C36.22 45.67 36.45 45.44 36.74 45.44C36.82 45.44 37.09 45.52 37.15 45.56L36.8 44.96H37.66L37.31 45.56C37.38 45.52 37.68 45.44 37.75 45.44C38.05 45.44 38.3 45.69 38.3 45.99C38.3 46.29 38.06 46.53 37.76 46.54V46.55Z" fill="#333333"/>
<g style="mix-blend-mode:color-burn" opacity="0.2">
<path d="M37.76 46.55C37.76 46.55 37.77 46.63 37.77 46.67C37.77 46.97 37.52 47.22 37.22 47.22V44.97H37.66L37.31 45.57C37.38 45.53 37.68 45.45 37.75 45.45C38.05 45.45 38.3 45.7 38.3 46C38.3 46.3 38.06 46.54 37.76 46.55Z" fill="#616161"/>
</g>
</svg>
