<svg width="40" height="56" viewBox="0 0 40 56" fill="none" xmlns="http://www.w3.org/2000/svg">
<path d="M4.65001 55.02C2.33001 55.02 0.440007 53.17 0.440007 50.9L0.320007 4.32004C0.320007 2.03004 2.20001 0.170044 4.53001 0.170044L35.31 0.230042C37.63 0.230042 39.51 2.10004 39.51 4.38004V50.86C39.51 53.13 37.63 54.98 35.32 54.98L4.65001 55.02Z" fill="#C9C9C9"/>
<path d="M5.04001 54.9C2.75001 54.9 0.890015 53.04 0.890015 50.77V4.30002C0.890015 2.02002 2.75001 0.170044 5.04001 0.170044H35.37C37.66 0.170044 39.52 2.03002 39.52 4.30002V50.77C39.52 53.05 37.66 54.9 35.37 54.9H5.04001Z" fill="white"/>
<path d="M27.55 4.10999L31.64 9.26999L27.55 14.44L23.46 9.26999L27.55 4.10999Z" fill="#D66142"/>
<g style="mix-blend-mode:color-burn" opacity="0.2">
<path d="M27.58 4.14999L27.55 4.10999L23.46 9.26999L27.55 14.44L27.58 14.4V4.14999Z" fill="#616161"/>
</g>
<path d="M27.55 16.28L31.64 21.45L27.55 26.61L23.46 21.45L27.55 16.28Z" fill="#D66142"/>
<g style="mix-blend-mode:color-burn" opacity="0.2">
<path d="M27.58 16.32L27.55 16.28L23.46 21.45L27.55 26.61L27.58 26.58V16.32Z" fill="#616161"/>
</g>
<path d="M12.86 28.46L8.76001 33.62L12.86 38.79L16.95 33.62L12.86 28.46Z" fill="#D66142"/>
<g style="mix-blend-mode:color-burn" opacity="0.2">
<path d="M12.83 28.49L12.86 28.46L16.95 33.62L12.86 38.79L12.83 38.76V28.49Z" fill="#616161"/>
</g>
<path d="M12.86 40.63L8.76001 45.8L12.86 50.96L16.95 45.8L12.86 40.63Z" fill="#D66142"/>
<g style="mix-blend-mode:color-burn" opacity="0.2">
<path d="M12.83 40.67L12.86 40.63L16.95 45.8L12.86 50.96L12.83 50.93V40.67Z" fill="#616161"/>
</g>
<path d="M12.86 4.10999L16.95 9.26999L12.86 14.44L8.76001 9.26999L12.86 4.10999Z" fill="#D66142"/>
<g style="mix-blend-mode:color-burn" opacity="0.2">
<path d="M12.88 4.14999L12.86 4.10999L8.76001 9.26999L12.86 14.44L12.88 14.4V4.14999Z" fill="#616161"/>
</g>
<path d="M12.86 16.28L16.95 21.45L12.86 26.61L8.76001 21.45L12.86 16.28Z" fill="#D66142"/>
<g style="mix-blend-mode:color-burn" opacity="0.2">
<path d="M12.88 16.32L12.86 16.28L8.76001 21.45L12.86 26.61L12.88 26.58V16.32Z" fill="#616161"/>
</g>
<path d="M27.55 28.46L23.46 33.62L27.55 38.79L31.64 33.62L27.55 28.46Z" fill="#D66142"/>
<g style="mix-blend-mode:color-burn" opacity="0.2">
<path d="M27.52 28.49L27.55 28.46L31.64 33.62L27.55 38.79L27.52 38.76V28.49Z" fill="#616161"/>
</g>
<path d="M27.55 40.63L23.46 45.8L27.55 50.96L31.64 45.8L27.55 40.63Z" fill="#D66142"/>
<g style="mix-blend-mode:color-burn" opacity="0.2">
<path d="M27.52 40.67L27.55 40.63L31.64 45.8L27.55 50.96L27.52 50.93V40.67Z" fill="#616161"/>
</g>
<path d="M4.14001 12.62L2.95001 11.11L4.14001 9.60999L5.34001 11.11L4.14001 12.62Z" fill="#D66142"/>
<g style="mix-blend-mode:color-burn" opacity="0.2">
<path d="M4.14 9.60999L4.13 9.62V12.61L4.14 12.62L5.34 11.11L4.14 9.60999Z" fill="#616161"/>
</g>
<path d="M5.76002 6.45999C5.76002 6.54999 5.72002 6.66999 5.63002 6.82999C5.51002 7.03999 5.35002 7.26001 5.13002 7.48001C4.88002 7.74001 4.74002 7.87001 4.72002 7.89001C4.56002 8.01001 4.36002 8.07001 4.13002 8.07001C3.81002 8.07001 3.54002 7.95001 3.31002 7.70001C3.11002 7.49001 3.02002 7.29001 3.02002 7.10001C3.02002 6.96001 3.09002 6.8 3.22002 6.62C3.35002 6.44 3.49002 6.25999 3.63002 6.07999C3.53002 5.98999 3.43002 5.87999 3.35002 5.76999C3.27002 5.65999 3.23002 5.53001 3.23002 5.39001C3.23002 5.22001 3.29002 5.02999 3.43002 4.82999C3.56002 4.65999 3.66002 4.51001 3.75002 4.39001C3.96002 4.09001 4.13002 3.9 4.27002 3.81C4.41002 3.72 4.55002 3.67999 4.72002 3.67999C4.96002 3.67999 5.17002 3.75001 5.34002 3.89001C5.51002 4.02001 5.60002 4.21 5.60002 4.44C5.60002 4.69 5.50002 4.93 5.29002 5.16C5.08002 5.38 4.98002 5.54 4.98002 5.62C5.19002 5.76 5.37002 5.88999 5.52002 6.01999C5.69002 6.15999 5.77002 6.30999 5.77002 6.45999H5.76002ZM4.98002 6.98999C4.98002 6.85999 4.83002 6.69999 4.52002 6.51999C4.25002 6.35999 4.07002 6.28 4.00002 6.28C3.97002 6.28 3.93002 6.32 3.88002 6.41C3.83002 6.5 3.80002 6.57001 3.80002 6.64001C3.80002 6.80001 3.90002 6.95999 4.10002 7.10999C4.28002 7.23999 4.46002 7.31 4.62002 7.31C4.70002 7.31 4.78002 7.26999 4.85002 7.20999C4.93002 7.13999 4.96002 7.07 4.96002 7L4.98002 6.98999ZM4.76002 5.07999C4.76002 4.97999 4.71002 4.87999 4.60002 4.76999C4.48002 4.64999 4.34002 4.57999 4.18002 4.57999C4.11002 4.57999 4.05002 4.59999 4.00002 4.64999C3.95002 4.68999 3.93002 4.75 3.93002 4.81C3.93002 4.94 4.03002 5.08001 4.23002 5.23001C4.40002 5.36001 4.52002 5.42999 4.57002 5.42999C4.61002 5.42999 4.65002 5.38999 4.69002 5.29999C4.73002 5.20999 4.76002 5.13999 4.76002 5.07999Z" fill="#333333"/>
<path d="M34.9 49.13C34.9 49.04 34.94 48.92 35.03 48.76C35.15 48.55 35.31 48.33 35.54 48.11C35.79 47.85 35.93 47.72 35.95 47.7C36.11 47.58 36.31 47.52 36.54 47.52C36.86 47.52 37.13 47.64 37.36 47.89C37.56 48.1 37.65 48.3 37.65 48.49C37.65 48.63 37.58 48.78 37.45 48.96C37.32 49.14 37.18 49.32 37.04 49.5C37.14 49.59 37.24 49.7 37.32 49.81C37.4 49.93 37.44 50.05 37.44 50.19C37.44 50.37 37.37 50.55 37.24 50.75C37.11 50.92 37.01 51.07 36.92 51.19C36.71 51.49 36.54 51.68 36.4 51.77C36.26 51.86 36.12 51.9 35.96 51.9C35.72 51.9 35.51 51.83 35.34 51.7C35.17 51.56 35.08 51.38 35.08 51.15C35.08 50.9 35.18 50.66 35.39 50.44C35.6 50.22 35.7 50.06 35.7 49.98C35.49 49.84 35.31 49.71 35.16 49.59C34.99 49.44 34.91 49.3 34.91 49.15L34.9 49.13ZM35.68 48.6C35.68 48.73 35.83 48.89 36.14 49.07C36.41 49.23 36.59 49.32 36.66 49.32C36.69 49.32 36.73 49.28 36.78 49.19C36.83 49.1 36.86 49.02 36.86 48.96C36.86 48.79 36.76 48.64 36.56 48.49C36.38 48.35 36.2 48.28 36.04 48.28C35.96 48.28 35.88 48.31 35.81 48.38C35.73 48.45 35.7 48.52 35.7 48.59L35.68 48.6ZM35.9 50.51C35.9 50.61 35.95 50.72 36.06 50.82C36.18 50.94 36.32 51 36.48 51C36.55 51 36.61 50.98 36.66 50.94C36.71 50.89 36.73 50.84 36.73 50.78C36.73 50.65 36.63 50.51 36.43 50.35C36.26 50.22 36.14 50.15 36.09 50.15C36.05 50.15 36.01 50.19 35.97 50.28C35.93 50.37 35.91 50.44 35.91 50.5L35.9 50.51Z" fill="#333333"/>
<path d="M36.52 42.97L37.71 44.47L36.52 45.97L35.33 44.47L36.52 42.97Z" fill="#D66142"/>
<g style="mix-blend-mode:color-burn" opacity="0.2">
<path d="M36.53 42.98L36.52 42.97L35.33 44.47L36.52 45.97L36.53 45.96V42.98Z" fill="#616161"/>
</g>
</svg>
