<svg width="41" height="57" viewBox="0 0 41 57" fill="none" xmlns="http://www.w3.org/2000/svg">
<path d="M4.73997 56.13C2.38997 56.13 0.469969 54.25 0.459969 51.94L0.339966 4.63999C0.339966 2.30999 2.24997 0.419971 4.60997 0.429971L35.87 0.479989C38.22 0.479989 40.14 2.37999 40.14 4.69999V51.9C40.14 54.21 38.23 56.09 35.89 56.09L4.73997 56.13Z" fill="#C9C9C9"/>
<path d="M5.13004 56.01C2.81004 56.01 0.920044 54.13 0.920044 51.81V4.62003C0.920044 2.31003 2.81004 0.420044 5.13004 0.420044H35.94C38.26 0.420044 40.15 2.30003 40.15 4.62003V51.81C40.15 54.12 38.26 56.01 35.94 56.01H5.13004Z" fill="white"/>
<path d="M5.86995 6.81C5.86995 6.9 5.82994 7.03 5.73994 7.19C5.61994 7.41 5.44995 7.63001 5.22995 7.85001C4.96995 8.11001 4.82994 8.24999 4.80994 8.26999C4.64994 8.38999 4.44995 8.45001 4.20995 8.45001C3.88995 8.45001 3.60995 8.31999 3.36995 8.07999C3.16995 7.86999 3.06995 7.66 3.06995 7.47C3.06995 7.33 3.13994 7.16999 3.26994 6.98999C3.40994 6.80999 3.54995 6.62 3.68995 6.44C3.57995 6.35 3.48995 6.24 3.40995 6.13C3.32995 6.01 3.28995 5.88999 3.28995 5.73999C3.28995 5.55999 3.35994 5.37001 3.48994 5.17001C3.61994 5.00001 3.72994 4.85 3.80994 4.72C4.01994 4.42 4.19995 4.22 4.32995 4.13C4.46995 4.04 4.61995 4 4.77995 4C5.01995 4 5.22995 4.06999 5.40995 4.20999C5.58995 4.34999 5.67995 4.53999 5.67995 4.76999C5.67995 5.01999 5.56995 5.27 5.35995 5.5C5.14995 5.73 5.03995 5.88 5.03995 5.97C5.24995 6.11 5.43994 6.24 5.58994 6.37C5.75994 6.51 5.83994 6.67 5.83994 6.81H5.86995ZM5.07995 7.35001C5.07995 7.22001 4.92995 7.06 4.61995 6.88C4.33995 6.71 4.16994 6.63 4.08994 6.63C4.05994 6.63 4.01995 6.67001 3.96995 6.76001C3.91995 6.85001 3.88995 6.92999 3.88995 6.98999C3.88995 7.15999 3.98994 7.31999 4.19994 7.45999C4.38994 7.59999 4.55995 7.67001 4.72995 7.67001C4.80995 7.67001 4.88995 7.63001 4.96995 7.57001C5.04995 7.50001 5.08994 7.43001 5.08994 7.35001H5.07995ZM4.84995 5.41C4.84995 5.31 4.78995 5.2 4.68995 5.09C4.55995 4.96 4.41995 4.89999 4.25995 4.89999C4.18995 4.89999 4.12995 4.93 4.07995 4.97C4.02995 5.01 4.00995 5.07001 4.00995 5.14001C4.00995 5.27001 4.10995 5.42001 4.31995 5.57001C4.49995 5.70001 4.60994 5.76999 4.66994 5.76999C4.70994 5.76999 4.74995 5.72 4.78995 5.63C4.82995 5.54 4.85995 5.46999 4.85995 5.39999L4.84995 5.41Z" fill="#333333"/>
<path d="M35.47 50.15C35.47 50.06 35.51 49.94 35.6 49.78C35.72 49.57 35.89 49.34 36.11 49.12C36.36 48.86 36.5 48.72 36.52 48.7C36.68 48.58 36.88 48.52 37.12 48.52C37.44 48.52 37.72 48.64 37.96 48.89C38.16 49.1 38.26 49.3 38.26 49.5C38.26 49.64 38.19 49.8 38.06 49.98C37.92 50.16 37.78 50.35 37.64 50.53C37.75 50.62 37.84 50.73 37.92 50.84C38 50.96 38.04 51.08 38.04 51.23C38.04 51.41 37.97 51.6 37.84 51.8C37.71 51.97 37.6 52.12 37.52 52.25C37.31 52.55 37.13 52.75 37 52.84C36.86 52.93 36.71 52.97 36.55 52.97C36.31 52.97 36.1 52.9 35.92 52.76C35.74 52.62 35.65 52.43 35.65 52.2C35.65 51.94 35.76 51.7 35.97 51.47C36.18 51.24 36.29 51.09 36.29 51C36.08 50.86 35.89 50.73 35.74 50.6C35.57 50.45 35.49 50.3 35.49 50.15H35.47ZM36.26 49.61C36.26 49.74 36.42 49.9 36.72 50.08C37 50.25 37.17 50.33 37.25 50.33C37.28 50.33 37.32 50.29 37.37 50.2C37.42 50.11 37.45 50.03 37.45 49.97C37.45 49.8 37.35 49.64 37.15 49.49C36.96 49.35 36.78 49.28 36.62 49.28C36.54 49.28 36.46 49.32 36.38 49.38C36.3 49.45 36.26 49.52 36.26 49.6V49.61ZM36.49 51.55C36.49 51.65 36.55 51.76 36.66 51.86C36.78 51.99 36.93 52.05 37.08 52.05C37.15 52.05 37.21 52.03 37.26 51.98C37.31 51.94 37.33 51.88 37.33 51.82C37.33 51.68 37.23 51.54 37.02 51.38C36.84 51.25 36.73 51.18 36.68 51.18C36.64 51.18 36.6 51.22 36.56 51.31C36.52 51.4 36.49 51.47 36.49 51.54V51.55Z" fill="#333333"/>
<g style="mix-blend-mode:color-burn" opacity="0.2">
<path d="M32.27 9.81003C32.27 8.81003 27.91 4.52002 27.91 4.52002V14.82H29.95L28.32 12.03C28.71 12.27 29.17 12.41 29.66 12.41C31.1 12.41 32.28 11.25 32.28 9.80002L32.27 9.81003Z" fill="#616161"/>
</g>
<g style="mix-blend-mode:color-burn" opacity="0.2">
<path d="M32.27 22.17C32.27 21.17 27.91 16.88 27.91 16.88V27.18H29.95L28.32 24.39C28.71 24.63 29.17 24.77 29.66 24.77C31.1 24.77 32.28 23.61 32.28 22.16L32.27 22.17Z" fill="#616161"/>
</g>
<g style="mix-blend-mode:color-burn" opacity="0.2">
<path d="M8.82005 9.81003C8.82005 8.81003 13.18 4.52002 13.18 4.52002V14.82H11.14L12.76 12.03C12.37 12.27 11.91 12.41 11.42 12.41C9.98004 12.41 8.80005 11.25 8.80005 9.80002L8.82005 9.81003Z" fill="#616161"/>
</g>
<g style="mix-blend-mode:color-burn" opacity="0.2">
<path d="M8.82005 22.17C8.82005 21.17 13.18 16.88 13.18 16.88V27.18H11.14L12.76 24.39C12.37 24.63 11.91 24.77 11.42 24.77C9.98004 24.77 8.80005 23.61 8.80005 22.16L8.82005 22.17Z" fill="#616161"/>
</g>
<g style="mix-blend-mode:color-burn" opacity="0.2">
<path d="M32.25 46.84C32.25 47.84 27.89 52.13 27.89 52.13V41.83H29.92L28.3 44.62C28.69 44.39 29.15 44.24 29.64 44.24C31.08 44.24 32.26 45.4 32.26 46.85L32.25 46.84Z" fill="#616161"/>
</g>
<g style="mix-blend-mode:color-burn" opacity="0.2">
<path d="M32.25 34.48C32.25 35.48 27.89 39.77 27.89 39.77V29.47H29.92L28.3 32.26C28.69 32.02 29.15 31.88 29.64 31.88C31.08 31.88 32.26 33.04 32.26 34.49L32.25 34.48Z" fill="#616161"/>
</g>
<g style="mix-blend-mode:color-burn" opacity="0.2">
<path d="M8.80004 46.84C8.80004 47.84 13.16 52.13 13.16 52.13V41.83H11.12L12.74 44.62C12.35 44.39 11.89 44.24 11.4 44.24C9.96004 44.24 8.79004 45.4 8.79004 46.85L8.80004 46.84Z" fill="#616161"/>
</g>
<g style="mix-blend-mode:color-burn" opacity="0.2">
<path d="M8.80004 34.48C8.80004 35.48 13.16 39.77 13.16 39.77V29.47H11.12L12.74 32.26C12.35 32.02 11.89 31.88 11.4 31.88C9.96004 31.88 8.79004 33.04 8.79004 34.49L8.80004 34.48Z" fill="#616161"/>
</g>
<g style="mix-blend-mode:color-burn" opacity="0.2">
<path d="M5.59994 11.71C5.59994 11.44 4.43994 10.3 4.43994 10.3V13.05H4.97994L4.54994 12.31C4.64994 12.37 4.77994 12.41 4.90994 12.41C5.28994 12.41 5.60994 12.1 5.60994 11.71H5.59994Z" fill="#616161"/>
</g>
<g style="mix-blend-mode:color-burn" opacity="0.2">
<path d="M35.96 45.38C35.96 45.65 37.1199 46.79 37.1199 46.79V44.04H36.58L37.0099 44.78C36.9099 44.72 36.7899 44.68 36.6499 44.68C36.2699 44.68 35.95 44.99 35.95 45.38H35.96Z" fill="#616161"/>
</g>
<path d="M6.17004 11.18C6.13004 11.88 4.74004 12.94 4.74004 12.94C4.74004 12.94 3.30005 11.88 3.30005 11.18C3.30005 10.7 3.69004 10.31 4.17004 10.31C4.44004 10.31 4.74004 10.55 4.74004 10.55C4.74004 10.55 5.02005 10.31 5.30005 10.31C5.78005 10.31 6.19004 10.7 6.17004 11.18Z" fill="#D66142"/>
<g style="mix-blend-mode:color-burn" opacity="0.2">
<path d="M5.29998 10.31C5.01998 10.31 4.73997 10.55 4.73997 10.55C4.73997 10.55 4.73998 10.55 4.72998 10.55V12.94C4.72998 12.94 6.12998 11.88 6.15998 11.18C6.18998 10.7 5.76998 10.31 5.28998 10.31H5.29998Z" fill="#616161"/>
</g>
<path d="M35.69 45.84C35.73 45.13 37.16 44.05 37.16 44.05C37.16 44.05 38.62 45.14 38.62 45.85C38.62 46.34 38.22 46.73 37.73 46.73C37.45 46.73 37.15 46.48 37.15 46.48C37.15 46.48 36.86 46.73 36.58 46.72C36.09 46.72 35.67 46.32 35.69 45.83V45.84Z" fill="#D66142"/>
<g style="mix-blend-mode:color-burn" opacity="0.2">
<path d="M36.58 46.73C36.86 46.73 37.15 46.49 37.15 46.49C37.15 46.49 37.15 46.49 37.16 46.49V44.04C37.16 44.04 35.73 45.12 35.69 45.83C35.67 46.32 36.08 46.71 36.58 46.72V46.73Z" fill="#616161"/>
</g>
<path d="M9.40006 8.42999C9.51006 10.41 13.4801 13.42 13.4801 13.42C13.4801 13.42 17.5701 10.39 17.5701 8.39999C17.5701 7.02999 16.4501 5.92999 15.0901 5.92999C14.3201 5.92999 13.4701 6.63 13.4701 6.63C13.4701 6.63 12.6601 5.93001 11.8701 5.95001C10.5101 5.97001 9.33006 7.05999 9.40006 8.42999Z" fill="#D66142"/>
<g style="mix-blend-mode:color-burn" opacity="0.2">
<path d="M11.86 5.94C12.65 5.92 13.46 6.62 13.46 6.62C13.46 6.62 13.46 6.62 13.49 6.59V13.4H13.48C13.48 13.4 9.50996 10.39 9.39996 8.41C9.32996 7.04 10.5 5.94999 11.87 5.92999L11.86 5.94Z" fill="#616161"/>
</g>
<path d="M32.27 8.42999C32.16 10.41 28.19 13.42 28.19 13.42C28.19 13.42 24.11 10.39 24.11 8.39999C24.11 7.02999 25.22 5.92999 26.59 5.92999C27.36 5.92999 28.21 6.63 28.21 6.63C28.21 6.63 29.02 5.93001 29.81 5.95001C31.18 5.97001 32.35 7.05999 32.28 8.42999H32.27Z" fill="#D66142"/>
<g style="mix-blend-mode:color-burn" opacity="0.2">
<path d="M29.8001 5.94C29.0101 5.92 28.2001 6.62 28.2001 6.62C28.2001 6.62 28.2001 6.62 28.1801 6.59V13.4H28.1901C28.1901 13.4 32.1601 10.39 32.2701 8.41C32.3401 7.04 31.1701 5.94999 29.8001 5.92999V5.94Z" fill="#616161"/>
</g>
<path d="M9.40006 20.67C9.51006 22.65 13.4801 25.66 13.4801 25.66C13.4801 25.66 17.5701 22.63 17.5701 20.64C17.5701 19.27 16.4501 18.17 15.0901 18.17C14.3201 18.17 13.4701 18.86 13.4701 18.86C13.4701 18.86 12.6601 18.17 11.8701 18.18C10.5101 18.2 9.33006 19.3 9.40006 20.66V20.67Z" fill="#D66142"/>
<g style="mix-blend-mode:color-burn" opacity="0.2">
<path d="M11.86 18.19C12.65 18.18 13.46 18.87 13.46 18.87C13.46 18.87 13.46 18.87 13.49 18.85V25.66H13.48C13.48 25.66 9.50996 22.65 9.39996 20.67C9.32996 19.3 10.5 18.21 11.87 18.19H11.86Z" fill="#616161"/>
</g>
<path d="M32.27 20.67C32.16 22.65 28.19 25.66 28.19 25.66C28.19 25.66 24.11 22.63 24.11 20.64C24.11 19.27 25.22 18.17 26.59 18.17C27.36 18.17 28.21 18.86 28.21 18.86C28.21 18.86 29.02 18.17 29.81 18.18C31.18 18.2 32.35 19.3 32.28 20.66L32.27 20.67Z" fill="#D66142"/>
<g style="mix-blend-mode:color-burn" opacity="0.2">
<path d="M29.8001 18.19C29.0101 18.18 28.2001 18.87 28.2001 18.87C28.2001 18.87 28.2001 18.87 28.1801 18.85V25.66H28.1901C28.1901 25.66 32.1601 22.65 32.2701 20.67C32.3401 19.3 31.1701 18.21 29.8001 18.19Z" fill="#616161"/>
</g>
<path d="M9.40006 47.66C9.51006 45.68 13.4801 42.67 13.4801 42.67C13.4801 42.67 17.5701 45.71 17.5701 47.69C17.5701 49.05 16.4501 50.16 15.0901 50.16C14.3201 50.16 13.4701 49.47 13.4701 49.47C13.4701 49.47 12.6601 50.16 11.8701 50.15C10.5101 50.13 9.33006 49.04 9.40006 47.67V47.66Z" fill="#D66142"/>
<g style="mix-blend-mode:color-burn" opacity="0.2">
<path d="M11.86 50.14C12.65 50.15 13.46 49.46 13.46 49.46C13.46 49.46 13.46 49.46 13.49 49.48V42.67H13.48C13.48 42.67 9.50996 45.68 9.39996 47.66C9.32996 49.03 10.5 50.12 11.87 50.14H11.86Z" fill="#616161"/>
</g>
<path d="M32.27 47.66C32.16 45.68 28.19 42.67 28.19 42.67C28.19 42.67 24.11 45.71 24.11 47.69C24.11 49.05 25.22 50.16 26.59 50.16C27.36 50.16 28.21 49.47 28.21 49.47C28.21 49.47 29.02 50.16 29.81 50.15C31.18 50.13 32.35 49.04 32.28 47.67L32.27 47.66Z" fill="#D66142"/>
<g style="mix-blend-mode:color-burn" opacity="0.2">
<path d="M29.8001 50.14C29.0101 50.15 28.2001 49.46 28.2001 49.46C28.2001 49.46 28.2001 49.46 28.1801 49.48V42.67H28.1901C28.1901 42.67 32.1601 45.68 32.2701 47.66C32.3401 49.03 31.1701 50.12 29.8001 50.14Z" fill="#616161"/>
</g>
<path d="M9.40006 35.41C9.51006 33.43 13.4801 30.42 13.4801 30.42C13.4801 30.42 17.5701 33.46 17.5701 35.44C17.5701 36.8 16.4501 37.9 15.0901 37.9C14.3201 37.9 13.4701 37.21 13.4701 37.21C13.4701 37.21 12.6601 37.9 11.8701 37.89C10.5101 37.87 9.33006 36.77 9.40006 35.41Z" fill="#D66142"/>
<g style="mix-blend-mode:color-burn" opacity="0.2">
<path d="M11.86 37.89C12.65 37.9 13.46 37.21 13.46 37.21C13.46 37.21 13.46 37.21 13.49 37.23V30.43L13.48 30.42C13.48 30.42 9.50996 33.43 9.39996 35.41C9.32996 36.78 10.5 37.87 11.87 37.89H11.86Z" fill="#616161"/>
</g>
<path d="M32.27 35.41C32.16 33.43 28.19 30.42 28.19 30.42C28.19 30.42 24.11 33.46 24.11 35.44C24.11 36.8 25.22 37.9 26.59 37.9C27.36 37.9 28.21 37.21 28.21 37.21C28.21 37.21 29.02 37.9 29.81 37.89C31.18 37.87 32.35 36.77 32.28 35.41H32.27Z" fill="#D66142"/>
<g style="mix-blend-mode:color-burn" opacity="0.2">
<path d="M29.8001 37.89C29.0101 37.9 28.2001 37.21 28.2001 37.21C28.2001 37.21 28.2001 37.21 28.1801 37.23V30.43L28.1901 30.42C28.1901 30.42 32.1601 33.43 32.2701 35.41C32.3401 36.78 31.1701 37.87 29.8001 37.89Z" fill="#616161"/>
</g>
</svg>
