<svg width="41" height="57" viewBox="0 0 41 57" fill="none" xmlns="http://www.w3.org/2000/svg">
<path d="M4.80002 56.4501C2.45002 56.4501 0.530023 54.57 0.520023 52.26L0.400024 4.96003C0.400024 2.63003 2.31002 0.74004 4.67002 0.75004L35.93 0.810037C38.28 0.810037 40.2 2.71004 40.2 5.03004V52.24C40.2 54.55 38.29 56.43 35.95 56.43L4.80002 56.47V56.4501Z" fill="#C9C9C9"/>
<path d="M5.18998 56.33C2.86998 56.33 0.97998 54.45 0.97998 52.13V4.94C0.97998 2.63 2.86998 0.73999 5.18998 0.73999H35.99C38.31 0.73999 40.2 2.62 40.2 4.94V52.13C40.2 54.44 38.31 56.33 35.99 56.33H5.18998Z" fill="white"/>
<path d="M5.92 7.13C5.92 7.22 5.88 7.34001 5.79 7.51001C5.67 7.72001 5.5 7.95001 5.28 8.17001C5.02 8.43001 4.89 8.57 4.86 8.59C4.7 8.71 4.5 8.76999 4.26 8.76999C3.94 8.76999 3.66 8.64999 3.43 8.39999C3.23 8.18999 3.13 7.99001 3.13 7.79001C3.13 7.65001 3.20001 7.49 3.33001 7.31C3.47001 7.13 3.61 6.94001 3.75 6.76001C3.64 6.67001 3.55001 6.56001 3.47001 6.45001C3.39001 6.33001 3.35 6.2 3.35 6.06C3.35 5.88 3.42 5.68999 3.55 5.48999C3.68 5.31999 3.79 5.17001 3.87 5.04001C4.08 4.74001 4.26001 4.55001 4.40001 4.45001C4.54001 4.36001 4.69 4.32001 4.85 4.32001C5.09 4.32001 5.3 4.39 5.48 4.53C5.66 4.67 5.75 4.86 5.75 5.09C5.75 5.35 5.64 5.59001 5.43 5.82001C5.22 6.05001 5.11 6.20001 5.11 6.29001C5.32 6.43001 5.5 6.56 5.66 6.69C5.83 6.83 5.92 6.98 5.92 7.13ZM5.13 7.67001C5.13 7.54001 4.98 7.38001 4.67 7.20001C4.39 7.03001 4.22 6.95001 4.14 6.95001C4.11 6.95001 4.07 6.98999 4.02 7.07999C3.97 7.16999 3.94 7.24 3.94 7.31C3.94 7.47 4.04 7.63 4.25 7.78C4.44 7.92 4.61 7.98999 4.78 7.98999C4.86 7.98999 4.94 7.96001 5.02 7.89001C5.1 7.82001 5.14 7.75001 5.14 7.67001H5.13ZM4.90001 5.73001C4.90001 5.63001 4.84001 5.52 4.74001 5.41C4.61001 5.29 4.47 5.22 4.32 5.22C4.25 5.22 4.19 5.24001 4.14 5.29001C4.09 5.33001 4.07 5.39001 4.07 5.45001C4.07 5.58001 4.17 5.73 4.38 5.88C4.56 6.01 4.67 6.07999 4.73 6.07999C4.77 6.07999 4.81 6.04001 4.85 5.95001C4.89 5.86001 4.92 5.79001 4.92 5.73001H4.90001Z" fill="#333333"/>
<path d="M35.52 50.46C35.52 50.37 35.56 50.25 35.65 50.09C35.77 49.88 35.94 49.65 36.16 49.43C36.42 49.17 36.55 49.03 36.57 49.01C36.73 48.89 36.93 48.83 37.17 48.83C37.49 48.83 37.77 48.95 38.01 49.2C38.21 49.41 38.31 49.61 38.31 49.81C38.31 49.95 38.24 50.11 38.11 50.29C37.97 50.47 37.83 50.65 37.69 50.84C37.8 50.94 37.89 51.04 37.97 51.15C38.05 51.27 38.09 51.4 38.09 51.54C38.09 51.72 38.02 51.91 37.89 52.11C37.76 52.28 37.65 52.43 37.57 52.56C37.36 52.86 37.18 53.06 37.05 53.15C36.91 53.24 36.76 53.28 36.6 53.28C36.36 53.28 36.15 53.21 35.97 53.07C35.79 52.93 35.7 52.74 35.7 52.51C35.7 52.25 35.81 52.01 36.02 51.78C36.23 51.55 36.34 51.4 36.34 51.31C36.13 51.17 35.95 51.04 35.79 50.91C35.62 50.76 35.53 50.61 35.53 50.46H35.52ZM36.31 49.92C36.31 50.05 36.46 50.21 36.77 50.4C37.05 50.57 37.22 50.65 37.3 50.65C37.33 50.65 37.37 50.61 37.42 50.52C37.47 50.43 37.5 50.35 37.5 50.29C37.5 50.12 37.4 49.96 37.19 49.81C37 49.67 36.83 49.6 36.66 49.6C36.58 49.6 36.5 49.64 36.42 49.7C36.34 49.77 36.3 49.84 36.3 49.92H36.31ZM36.54 51.86C36.54 51.96 36.6 52.07 36.7 52.18C36.83 52.31 36.97 52.37 37.12 52.37C37.19 52.37 37.25 52.35 37.3 52.31C37.35 52.27 37.37 52.21 37.37 52.14C37.37 52.01 37.27 51.86 37.06 51.71C36.88 51.58 36.77 51.51 36.71 51.51C36.67 51.51 36.63 51.55 36.59 51.64C36.55 51.73 36.52 51.81 36.52 51.87L36.54 51.86Z" fill="#333333"/>
<path d="M32.32 10.12C32.32 9.11996 27.96 4.82996 27.96 4.82996C27.96 4.82996 23.71 9.24995 23.7 10.11C23.7 11.55 24.86 12.72 26.31 12.72C26.8 12.72 27.26 12.59 27.66 12.35L26.02 15.14H29.99L28.37 12.35C28.76 12.59 29.22 12.73 29.71 12.73C31.15 12.73 32.33 11.57 32.33 10.12H32.32Z" fill="#333333"/>
<g style="mix-blend-mode:color-burn" opacity="0.2">
<path d="M32.32 10.12C32.32 9.11996 27.96 4.82996 27.96 4.82996V15.13H29.99L28.37 12.34C28.76 12.58 29.22 12.72 29.71 12.72C31.15 12.72 32.33 11.56 32.33 10.11L32.32 10.12Z" fill="#616161"/>
</g>
<path d="M32.32 22.49C32.32 21.49 27.96 17.2 27.96 17.2C27.96 17.2 23.71 21.62 23.7 22.48C23.7 23.92 24.86 25.09 26.31 25.1C26.8 25.1 27.26 24.97 27.66 24.73L26.02 27.52H29.99L28.37 24.74C28.76 24.97 29.22 25.12 29.71 25.12C31.15 25.12 32.33 23.96 32.33 22.51L32.32 22.49Z" fill="#333333"/>
<g style="mix-blend-mode:color-burn" opacity="0.2">
<path d="M32.32 22.49C32.32 21.49 27.96 17.2 27.96 17.2V27.5H29.99L28.37 24.71C28.76 24.94 29.22 25.09 29.71 25.09C31.15 25.09 32.33 23.93 32.33 22.48L32.32 22.49Z" fill="#616161"/>
</g>
<path d="M8.88 10.12C8.88 9.11996 13.24 4.82996 13.24 4.82996C13.24 4.82996 17.49 9.24995 17.5 10.11C17.5 11.55 16.34 12.72 14.89 12.72C14.4 12.72 13.94 12.59 13.55 12.35L15.19 15.14H11.22L12.84 12.35C12.45 12.59 11.99 12.73 11.5 12.73C10.06 12.73 8.88 11.57 8.88 10.12Z" fill="#333333"/>
<g style="mix-blend-mode:color-burn" opacity="0.2">
<path d="M8.87999 10.12C8.87999 9.11996 13.24 4.82996 13.24 4.82996V15.13H11.2L12.82 12.34C12.43 12.58 11.97 12.72 11.48 12.72C10.04 12.72 8.85999 11.56 8.85999 10.11L8.87999 10.12Z" fill="#616161"/>
</g>
<path d="M8.88 22.49C8.88 21.49 13.24 17.2 13.24 17.2C13.24 17.2 17.49 21.62 17.5 22.48C17.5 23.92 16.34 25.09 14.89 25.1C14.4 25.1 13.94 24.97 13.55 24.73L15.19 27.52H11.22L12.84 24.74C12.45 24.97 11.99 25.12 11.5 25.12C10.06 25.12 8.88 23.96 8.88 22.51V22.49Z" fill="#333333"/>
<g style="mix-blend-mode:color-burn" opacity="0.2">
<path d="M8.87999 22.49C8.87999 21.49 13.24 17.2 13.24 17.2V27.5H11.2L12.82 24.71C12.43 24.94 11.97 25.09 11.48 25.09C10.04 25.09 8.85999 23.93 8.85999 22.48L8.87999 22.49Z" fill="#616161"/>
</g>
<path d="M32.3 47.16C32.3 48.16 27.94 52.45 27.94 52.45C27.94 52.45 23.69 48.03 23.68 47.17C23.68 45.73 24.84 44.56 26.29 44.56C26.78 44.56 27.24 44.69 27.64 44.93L26 42.14H29.97L28.35 44.93C28.74 44.69 29.2 44.55 29.69 44.55C31.13 44.55 32.31 45.71 32.31 47.16H32.3Z" fill="#333333"/>
<g style="mix-blend-mode:color-burn" opacity="0.2">
<path d="M32.3 47.16C32.3 48.16 27.94 52.45 27.94 52.45V42.15H29.98L28.36 44.94C28.75 44.7 29.21 44.56 29.7 44.56C31.14 44.56 32.32 45.72 32.32 47.17L32.3 47.16Z" fill="#616161"/>
</g>
<path d="M32.3 34.79C32.3 35.79 27.94 40.08 27.94 40.08C27.94 40.08 23.69 35.66 23.68 34.8C23.68 33.36 24.84 32.19 26.29 32.19C26.78 32.19 27.24 32.32 27.64 32.56L26 29.77H29.97L28.35 32.55C28.74 32.32 29.2 32.18 29.69 32.17C31.13 32.17 32.31 33.33 32.31 34.78L32.3 34.79Z" fill="#333333"/>
<g style="mix-blend-mode:color-burn" opacity="0.2">
<path d="M32.3 34.79C32.3 35.79 27.94 40.08 27.94 40.08V29.78H29.98L28.36 32.57C28.75 32.34 29.21 32.2 29.7 32.19C31.14 32.19 32.32 33.35 32.32 34.8L32.3 34.79Z" fill="#616161"/>
</g>
<path d="M8.85999 47.16C8.85999 48.16 13.22 52.45 13.22 52.45C13.22 52.45 17.47 48.03 17.48 47.17C17.48 45.73 16.32 44.56 14.88 44.56C14.39 44.56 13.93 44.69 13.54 44.93L15.18 42.14H11.21L12.83 44.93C12.44 44.69 11.98 44.55 11.49 44.55C10.05 44.55 8.86998 45.71 8.86998 47.16H8.85999Z" fill="#333333"/>
<g style="mix-blend-mode:color-burn" opacity="0.2">
<path d="M8.86003 47.16C8.86003 48.16 13.22 52.45 13.22 52.45V42.15H11.18L12.8 44.94C12.41 44.7 11.95 44.56 11.46 44.56C10.02 44.56 8.84003 45.72 8.84003 47.17L8.86003 47.16Z" fill="#616161"/>
</g>
<path d="M8.85999 34.79C8.85999 35.79 13.22 40.08 13.22 40.08C13.22 40.08 17.47 35.66 17.48 34.8C17.48 33.36 16.32 32.19 14.88 32.19C14.39 32.19 13.93 32.32 13.54 32.56L15.18 29.77H11.21L12.83 32.55C12.44 32.32 11.98 32.18 11.49 32.17C10.05 32.17 8.86998 33.33 8.86998 34.78L8.85999 34.79Z" fill="#333333"/>
<g style="mix-blend-mode:color-burn" opacity="0.2">
<path d="M8.86003 34.79C8.86003 35.79 13.22 40.08 13.22 40.08V29.77H11.18L12.8 32.56C12.41 32.33 11.95 32.19 11.46 32.18C10.02 32.18 8.84003 33.34 8.84003 34.79H8.86003Z" fill="#616161"/>
</g>
<path d="M5.64998 12.03C5.64998 11.76 4.48998 10.62 4.48998 10.62C4.48998 10.62 3.34998 11.8 3.34998 12.03C3.34998 12.41 3.65998 12.73 4.03998 12.73C4.16998 12.73 4.28998 12.69 4.39998 12.63L3.95998 13.37H5.01998L4.58998 12.63C4.68998 12.69 4.81998 12.73 4.94998 12.73C5.32998 12.73 5.64998 12.42 5.64998 12.04V12.03Z" fill="#333333"/>
<g style="mix-blend-mode:color-burn" opacity="0.2">
<path d="M5.64999 12.03C5.64999 11.76 4.48999 10.62 4.48999 10.62V13.37H5.02999L4.59999 12.63C4.69999 12.69 4.82999 12.73 4.95999 12.73C5.33999 12.73 5.65999 12.42 5.65999 12.04L5.64999 12.03Z" fill="#616161"/>
</g>
<path d="M36.02 45.7C36.02 45.97 37.18 47.11 37.18 47.11C37.18 47.11 38.31 45.93 38.31 45.7C38.31 45.32 38 45 37.62 45C37.49 45 37.37 45.04 37.26 45.1L37.7 44.36H36.64L37.07 45.1C36.97 45.04 36.84 45 36.71 45C36.33 45 36.01 45.31 36.01 45.69L36.02 45.7Z" fill="#333333"/>
<g style="mix-blend-mode:color-burn" opacity="0.2">
<path d="M36.02 45.7C36.02 45.97 37.18 47.11 37.18 47.11V44.36H36.64L37.07 45.1C36.97 45.04 36.84 45 36.71 45C36.33 45 36.01 45.31 36.01 45.69L36.02 45.7Z" fill="#616161"/>
</g>
</svg>
