<svg width="41" height="57" viewBox="0 0 41 57" fill="none" xmlns="http://www.w3.org/2000/svg">
<path d="M5.06003 56.16C2.71003 56.16 0.790029 54.28 0.780029 51.97L0.660034 4.67002C0.660034 2.34002 2.57002 0.45 4.93002 0.46L36.19 0.519998C38.54 0.519998 40.46 2.42 40.46 4.74V51.94C40.46 54.25 38.55 56.13 36.21 56.13L5.06003 56.17V56.16Z" fill="#C9C9C9"/>
<path d="M5.44998 56.04C3.12998 56.04 1.23999 54.16 1.23999 51.84V4.64999C1.23999 2.33999 3.12998 0.450012 5.44998 0.450012H36.25C38.57 0.450012 40.46 2.32999 40.46 4.64999V51.84C40.46 54.16 38.57 56.04 36.25 56.04H5.44998Z" fill="white"/>
<path d="M6.18005 5.55002C6.18005 5.85002 6.11006 6.17002 5.98006 6.52002C5.85006 6.87002 5.71007 7.12004 5.57007 7.29004C5.32007 7.58004 5.07007 7.82004 4.85007 8.01004C4.48007 8.33004 4.18006 8.49002 3.97006 8.49002C3.95006 8.49002 3.93006 8.49003 3.91006 8.47003C3.89006 8.45003 3.87006 8.43003 3.86006 8.41003C4.06006 8.28003 4.27006 8.10002 4.48006 7.86002C4.69006 7.62002 4.90007 7.30002 5.10007 6.90002V6.82004C5.10007 6.82004 5.07006 6.80002 5.05006 6.80002C4.89006 6.87002 4.74007 6.94002 4.60007 6.99002C4.46007 7.04002 4.34007 7.07004 4.24007 7.07004C4.03007 7.07004 3.83006 6.95003 3.64006 6.72003C3.42006 6.46003 3.32007 6.14004 3.32007 5.76004C3.32007 5.38004 3.54006 5.01004 3.98006 4.60004C4.38006 4.23004 4.72007 4.04004 4.99007 4.04004C5.24007 4.04004 5.49006 4.17003 5.75006 4.44003C6.05006 4.75003 6.20006 5.13004 6.20006 5.57004L6.18005 5.55002ZM5.25006 6.08002C5.25006 5.72002 5.14006 5.42002 4.92006 5.18002C4.72006 4.97002 4.52007 4.86002 4.32007 4.86002C4.27007 4.86002 4.24006 4.89004 4.22006 4.95004C4.20006 5.01004 4.20006 5.08002 4.20006 5.15002C4.20006 5.46002 4.28005 5.71004 4.43005 5.92004C4.62005 6.17004 4.80006 6.29004 4.97006 6.29004C5.05006 6.29004 5.12006 6.28004 5.16006 6.26004C5.22006 6.23004 5.25006 6.17003 5.25006 6.09003V6.08002Z" fill="#333333"/>
<path d="M35.79 51.45C35.79 51.15 35.86 50.83 35.99 50.48C36.12 50.13 36.26 49.88 36.4 49.72C36.66 49.43 36.9 49.19 37.12 49C37.49 48.68 37.78 48.52 38 48.52C38.02 48.52 38.04 48.52 38.06 48.54C38.08 48.56 38.1 48.58 38.12 48.59C37.92 48.72 37.71 48.9 37.5 49.14C37.29 49.38 37.08 49.7 36.88 50.1V50.18C36.88 50.18 36.91 50.2 36.93 50.2C37.09 50.13 37.24 50.07 37.38 50.01C37.52 49.96 37.64 49.93 37.74 49.93C37.95 49.93 38.15 50.05 38.34 50.28C38.56 50.54 38.66 50.86 38.66 51.24C38.66 51.62 38.44 51.99 38 52.4C37.6 52.78 37.26 52.96 36.99 52.96C36.74 52.96 36.49 52.83 36.23 52.56C35.93 52.25 35.78 51.87 35.78 51.43L35.79 51.45ZM36.72 50.92C36.72 51.28 36.83 51.58 37.05 51.82C37.25 52.03 37.45 52.14 37.65 52.14C37.7 52.14 37.73 52.11 37.75 52.05C37.77 51.99 37.78 51.92 37.78 51.85C37.78 51.54 37.7 51.28 37.55 51.08C37.36 50.83 37.18 50.7 37.01 50.7C36.92 50.7 36.86 50.7 36.82 50.73C36.76 50.76 36.73 50.82 36.73 50.9L36.72 50.92Z" fill="#333333"/>
<path d="M30.51 7.89996C30.55 7.71996 30.5701 7.54995 30.5701 7.35995C30.5701 6.02995 29.49 4.95996 28.16 4.95996C26.83 4.95996 25.75 6.02995 25.75 7.35995C25.75 7.64995 25.8 7.91998 25.89 8.16998C24.72 8.25998 23.8 9.23997 23.79 10.44C23.79 11.7 24.8101 12.71 26.0701 12.72C26.4001 12.72 27.5901 12.35 27.8501 12.2L26.31 14.84H30.0701L28.53 12.2C28.84 12.39 30.15 12.72 30.47 12.72C31.8 12.72 32.8801 11.64 32.8801 10.31C32.8801 8.99997 31.82 7.92997 30.51 7.90997V7.89996Z" fill="#333333"/>
<g style="mix-blend-mode:color-burn" opacity="0.2">
<path d="M30.51 7.89996C30.55 7.71996 30.57 7.54995 30.57 7.35995C30.57 6.02995 29.49 4.95996 28.16 4.95996C28.16 4.95996 28.16 4.95996 28.15 4.95996V14.84H30.07L28.53 12.2C28.84 12.39 30.15 12.72 30.47 12.72C31.8 12.72 32.88 11.64 32.88 10.31C32.88 8.99997 31.82 7.92997 30.51 7.90997V7.89996Z" fill="#616161"/>
</g>
<path d="M23.1499 26.3C23.1899 26.12 23.2099 25.95 23.2099 25.76C23.2099 24.43 22.1299 23.35 20.7999 23.36C19.4699 23.36 18.3899 24.43 18.3899 25.76C18.3899 26.05 18.4399 26.32 18.5399 26.57C17.3699 26.66 16.4399 27.64 16.4399 28.84C16.4399 30.1 17.4599 31.11 18.7199 31.12C19.0499 31.12 20.2399 30.75 20.4999 30.6L18.9599 33.24H22.7199L21.1799 30.6C21.4899 30.79 22.7999 31.12 23.1199 31.12C24.4499 31.12 25.5299 30.04 25.5299 28.71C25.5299 27.4 24.4699 26.33 23.1599 26.31L23.1499 26.3Z" fill="#333333"/>
<g style="mix-blend-mode:color-burn" opacity="0.2">
<path d="M23.15 26.3C23.19 26.12 23.2101 25.95 23.2101 25.76C23.2101 24.43 22.13 23.35 20.8 23.36H20.79V33.24H22.7101L21.17 30.6C21.48 30.79 22.79 31.12 23.11 31.12C24.44 31.12 25.5201 30.04 25.5201 28.71C25.5201 27.4 24.46 26.33 23.15 26.31V26.3Z" fill="#616161"/>
</g>
<path d="M30.51 20.06C30.55 19.89 30.5701 19.71 30.5701 19.52C30.5701 18.19 29.49 17.11 28.16 17.12C26.83 17.12 25.75 18.19 25.75 19.52C25.75 19.81 25.8 20.08 25.89 20.33C24.72 20.42 23.8 21.4 23.79 22.6C23.79 23.86 24.8101 24.87 26.0701 24.88C26.4001 24.88 27.5901 24.51 27.8501 24.36L26.31 27H30.0701L28.53 24.36C28.84 24.55 30.15 24.88 30.47 24.88C31.8 24.88 32.8801 23.8 32.8801 22.47C32.8801 21.16 31.82 20.09 30.51 20.07V20.06Z" fill="#333333"/>
<g style="mix-blend-mode:color-burn" opacity="0.2">
<path d="M30.51 20.06C30.55 19.89 30.57 19.71 30.57 19.52C30.57 18.19 29.49 17.11 28.16 17.12H28.15V27H30.07L28.53 24.36C28.84 24.55 30.15 24.88 30.47 24.88C31.8 24.88 32.88 23.8 32.88 22.47C32.88 21.16 31.82 20.09 30.51 20.07V20.06Z" fill="#616161"/>
</g>
<path d="M11.32 7.89996C11.28 7.71996 11.2599 7.54995 11.2599 7.35995C11.2599 6.02995 12.34 4.95996 13.67 4.95996C15 4.95996 16.08 6.02995 16.08 7.35995C16.08 7.64995 16.03 7.91998 15.94 8.16998C17.11 8.25998 18.0299 9.23997 18.0399 10.44C18.0399 11.7 17.0199 12.71 15.7599 12.72C15.4299 12.72 14.2299 12.35 13.9799 12.2L15.52 14.84H11.7599L13.3 12.2C12.99 12.39 11.68 12.72 11.36 12.72C10.03 12.72 8.94995 11.64 8.94995 10.31C8.94995 8.99997 10.01 7.92997 11.32 7.90997V7.89996Z" fill="#333333"/>
<g style="mix-blend-mode:color-burn" opacity="0.2">
<path d="M11.3199 7.89996C11.2799 7.71996 11.2599 7.54995 11.2599 7.35995C11.2599 6.02995 12.3399 4.95996 13.6699 4.95996V14.84H11.7499L13.2899 12.2C12.9799 12.39 11.6699 12.72 11.3499 12.72C10.0199 12.72 8.93994 11.64 8.93994 10.31C8.93994 8.99997 9.99994 7.92997 11.3099 7.90997L11.3199 7.89996Z" fill="#616161"/>
</g>
<path d="M11.32 20.06C11.28 19.89 11.2599 19.71 11.2599 19.52C11.2599 18.19 12.34 17.11 13.67 17.12C15 17.12 16.08 18.19 16.08 19.52C16.08 19.81 16.03 20.08 15.94 20.33C17.11 20.42 18.0299 21.4 18.0399 22.6C18.0399 23.86 17.0199 24.87 15.7599 24.88C15.4299 24.88 14.2299 24.51 13.9799 24.36L15.52 27H11.7599L13.3 24.36C12.99 24.55 11.68 24.88 11.36 24.88C10.03 24.88 8.94995 23.8 8.94995 22.47C8.94995 21.16 10.01 20.09 11.32 20.07V20.06Z" fill="#333333"/>
<g style="mix-blend-mode:color-burn" opacity="0.2">
<path d="M11.3199 20.06C11.2799 19.89 11.2599 19.71 11.2599 19.52C11.2599 18.19 12.3399 17.11 13.6699 17.12V27H11.7499L13.2899 24.36C12.9799 24.55 11.6699 24.88 11.3499 24.88C10.0199 24.88 8.93994 23.8 8.93994 22.47C8.93994 21.16 9.99994 20.09 11.3099 20.07L11.3199 20.06Z" fill="#616161"/>
</g>
<path d="M30.51 48.59C30.55 48.77 30.5701 48.94 30.5701 49.13C30.5701 50.46 29.49 51.54 28.16 51.53C26.83 51.53 25.75 50.46 25.75 49.13C25.75 48.84 25.8 48.57 25.89 48.31C24.72 48.22 23.8 47.24 23.79 46.04C23.79 44.78 24.8101 43.76 26.0701 43.76C26.4001 43.76 27.5901 44.13 27.8501 44.28L26.31 41.64H30.0701L28.53 44.29C28.84 44.1 30.15 43.77 30.47 43.77C31.8 43.77 32.8801 44.85 32.8801 46.18C32.8801 47.5 31.82 48.56 30.51 48.58V48.59Z" fill="#333333"/>
<g style="mix-blend-mode:color-burn" opacity="0.2">
<path d="M30.51 48.59C30.55 48.77 30.57 48.94 30.57 49.13C30.57 50.46 29.49 51.54 28.16 51.53C28.16 51.53 28.16 51.53 28.15 51.53V41.65H30.07L28.53 44.29C28.84 44.1 30.15 43.77 30.47 43.77C31.8 43.77 32.88 44.85 32.88 46.18C32.88 47.5 31.82 48.56 30.51 48.58V48.59Z" fill="#616161"/>
</g>
<path d="M30.51 36.42C30.55 36.6 30.5701 36.77 30.5701 36.96C30.5701 38.29 29.49 39.37 28.16 39.36C26.83 39.36 25.75 38.29 25.75 36.96C25.75 36.67 25.8 36.4 25.89 36.14C24.72 36.05 23.8 35.07 23.79 33.87C23.79 32.61 24.8101 31.59 26.0701 31.59C26.4001 31.59 27.5901 31.96 27.8501 32.11L26.31 29.47H30.0701L28.53 32.12C28.84 31.93 30.15 31.6 30.47 31.6C31.8 31.6 32.8801 32.68 32.8801 34.01C32.8801 35.33 31.82 36.39 30.51 36.41V36.42Z" fill="#333333"/>
<g style="mix-blend-mode:color-burn" opacity="0.2">
<path d="M30.51 36.42C30.55 36.6 30.57 36.77 30.57 36.96C30.57 38.29 29.49 39.37 28.16 39.36H28.15V29.48H30.07L28.53 32.12C28.84 31.93 30.15 31.6 30.47 31.6C31.8 31.6 32.88 32.68 32.88 34.01C32.88 35.33 31.82 36.39 30.51 36.41V36.42Z" fill="#616161"/>
</g>
<path d="M11.32 48.59C11.28 48.77 11.2599 48.94 11.2599 49.13C11.2599 50.46 12.34 51.54 13.67 51.53C15 51.53 16.08 50.46 16.08 49.13C16.08 48.84 16.03 48.57 15.94 48.31C17.11 48.22 18.0299 47.24 18.0399 46.04C18.0399 44.78 17.0199 43.76 15.7599 43.76C15.4299 43.76 14.2299 44.13 13.9799 44.28L15.52 41.64H11.7599L13.3 44.29C12.99 44.1 11.68 43.77 11.36 43.77C10.03 43.77 8.94995 44.85 8.94995 46.18C8.94995 47.5 10.01 48.56 11.32 48.58V48.59Z" fill="#333333"/>
<g style="mix-blend-mode:color-burn" opacity="0.2">
<path d="M11.3199 48.59C11.2799 48.77 11.2599 48.94 11.2599 49.13C11.2599 50.46 12.3399 51.54 13.6699 51.53V41.65H11.7499L13.2899 44.29C12.9799 44.1 11.6699 43.77 11.3499 43.77C10.0199 43.77 8.93994 44.85 8.93994 46.18C8.93994 47.5 9.99994 48.56 11.3099 48.58L11.3199 48.59Z" fill="#616161"/>
</g>
<path d="M11.32 36.42C11.28 36.6 11.2599 36.77 11.2599 36.96C11.2599 38.29 12.34 39.37 13.67 39.36C15 39.36 16.08 38.29 16.08 36.96C16.08 36.67 16.03 36.4 15.94 36.14C17.11 36.05 18.0299 35.07 18.0399 33.87C18.0399 32.61 17.0199 31.59 15.7599 31.59C15.4299 31.59 14.2299 31.96 13.9799 32.11L15.52 29.47H11.7599L13.3 32.12C12.99 31.93 11.68 31.6 11.36 31.6C10.03 31.6 8.94995 32.68 8.94995 34.01C8.94995 35.33 10.01 36.39 11.32 36.41V36.42Z" fill="#333333"/>
<g style="mix-blend-mode:color-burn" opacity="0.2">
<path d="M11.3199 36.42C11.2799 36.6 11.2599 36.77 11.2599 36.96C11.2599 38.29 12.3399 39.37 13.6699 39.36V29.48H11.7499L13.2899 32.12C12.9799 31.93 11.6699 31.6 11.3499 31.6C10.0199 31.6 8.93994 32.68 8.93994 34.01C8.93994 35.33 9.99994 36.39 11.3099 36.41L11.3199 36.42Z" fill="#616161"/>
</g>
<path d="M4.96994 11.26C4.96994 11.26 4.97993 11.18 4.97993 11.14C4.97993 10.84 4.72993 10.59 4.42993 10.59C4.12993 10.59 3.87994 10.84 3.87994 11.14C3.87994 11.2 3.88994 11.27 3.90994 11.33C3.63994 11.35 3.42993 11.57 3.42993 11.85C3.42993 12.14 3.65994 12.37 3.94994 12.37C4.02994 12.37 4.29995 12.29 4.34995 12.25L3.99994 12.86H4.85994L4.50993 12.25C4.57993 12.29 4.87994 12.37 4.94994 12.37C5.24994 12.37 5.49994 12.12 5.49994 11.82C5.49994 11.52 5.25995 11.28 4.95995 11.27L4.96994 11.26Z" fill="#333333"/>
<g style="mix-blend-mode:color-burn" opacity="0.2">
<path d="M4.96994 11.26C4.96994 11.26 4.97993 11.18 4.97993 11.14C4.97993 10.84 4.72993 10.59 4.42993 10.59V12.85H4.86993L4.51994 12.24C4.58994 12.28 4.88995 12.36 4.95995 12.36C5.25995 12.36 5.50993 12.11 5.50993 11.81C5.50993 11.51 5.26994 11.27 4.96994 11.26Z" fill="#616161"/>
</g>
<path d="M37.8 46.57C37.8 46.57 37.81 46.65 37.81 46.69C37.81 46.99 37.56 47.24 37.26 47.24C36.96 47.24 36.71 46.99 36.71 46.69C36.71 46.63 36.72 46.56 36.74 46.51C36.47 46.49 36.26 46.26 36.26 45.99C36.26 45.7 36.49 45.47 36.78 45.47C36.86 45.47 37.13 45.55 37.18 45.59L36.83 44.99H37.69L37.34 45.59C37.41 45.55 37.71 45.47 37.78 45.47C38.08 45.47 38.33 45.72 38.33 46.02C38.33 46.32 38.09 46.57 37.79 46.57H37.8Z" fill="#333333"/>
<g style="mix-blend-mode:color-burn" opacity="0.2">
<path d="M37.8 46.57C37.8 46.57 37.81 46.65 37.81 46.69C37.81 46.99 37.56 47.24 37.26 47.24V44.98H37.7L37.35 45.58C37.42 45.54 37.72 45.46 37.79 45.46C38.09 45.46 38.34 45.71 38.34 46.01C38.34 46.31 38.1 46.56 37.8 46.56V46.57Z" fill="#616161"/>
</g>
</svg>
