<svg width="40" height="56" viewBox="0 0 40 56" fill="none" xmlns="http://www.w3.org/2000/svg">
<path d="M4.65001 55.04C2.33001 55.04 0.440007 53.19 0.440007 50.92L0.320007 4.34999C0.320007 2.05999 2.20001 0.189991 4.53001 0.199991L35.31 0.249979C37.63 0.249979 39.51 2.11997 39.51 4.39997V50.88C39.51 53.15 37.63 55 35.33 55L4.66001 55.04H4.65001Z" fill="#C9C9C9"/>
<path d="M5.04001 54.93C2.75001 54.93 0.890015 53.07 0.890015 50.8V4.32999C0.890015 2.04999 2.75001 0.200012 5.04001 0.200012H35.37C37.66 0.200012 39.52 2.04999 39.52 4.32999V50.8C39.52 53.08 37.66 54.93 35.37 54.93H5.04001Z" fill="white"/>
<path d="M27.55 4.13L31.64 9.29999L27.55 14.46L23.46 9.29999L27.55 4.13Z" fill="#D66142"/>
<g style="mix-blend-mode:color-burn" opacity="0.2">
<path d="M27.58 4.17001L27.55 4.13L23.46 9.29999L27.55 14.46L27.58 14.43V4.17001Z" fill="#616161"/>
</g>
<path d="M19.97 22.4L24.06 27.56L19.97 32.73L15.88 27.56L19.97 22.4Z" fill="#D66142"/>
<g style="mix-blend-mode:color-burn" opacity="0.2">
<path d="M19.99 22.43L19.97 22.4L15.88 27.56L19.97 32.73L19.99 32.69V22.43Z" fill="#616161"/>
</g>
<path d="M27.55 16.31L31.64 21.47L27.55 26.64L23.46 21.47L27.55 16.31Z" fill="#D66142"/>
<g style="mix-blend-mode:color-burn" opacity="0.2">
<path d="M27.58 16.34L27.55 16.31L23.46 21.47L27.55 26.64L27.58 26.6V16.34Z" fill="#616161"/>
</g>
<path d="M12.86 28.48L8.76001 33.65L12.86 38.81L16.94 33.65L12.86 28.48Z" fill="#D66142"/>
<g style="mix-blend-mode:color-burn" opacity="0.2">
<path d="M12.83 28.52L12.86 28.48L16.94 33.65L12.86 38.81L12.83 38.78V28.52Z" fill="#616161"/>
</g>
<path d="M12.86 40.66L8.76001 45.82L12.86 50.98L16.94 45.82L12.86 40.66Z" fill="#D66142"/>
<g style="mix-blend-mode:color-burn" opacity="0.2">
<path d="M12.83 40.69L12.86 40.66L16.94 45.82L12.86 50.98L12.83 50.95V40.69Z" fill="#616161"/>
</g>
<path d="M12.86 4.13L16.94 9.29999L12.86 14.46L8.76001 9.29999L12.86 4.13Z" fill="#D66142"/>
<g style="mix-blend-mode:color-burn" opacity="0.2">
<path d="M12.88 4.17001L12.86 4.13L8.76001 9.29999L12.86 14.46L12.88 14.43V4.17001Z" fill="#616161"/>
</g>
<path d="M12.86 16.31L16.94 21.47L12.86 26.64L8.76001 21.47L12.86 16.31Z" fill="#D66142"/>
<g style="mix-blend-mode:color-burn" opacity="0.2">
<path d="M12.88 16.34L12.86 16.31L8.76001 21.47L12.86 26.64L12.88 26.6V16.34Z" fill="#616161"/>
</g>
<path d="M27.55 28.48L23.46 33.65L27.55 38.81L31.64 33.65L27.55 28.48Z" fill="#D66142"/>
<g style="mix-blend-mode:color-burn" opacity="0.2">
<path d="M27.52 28.52L27.55 28.48L31.64 33.65L27.55 38.81L27.52 38.78V28.52Z" fill="#616161"/>
</g>
<path d="M27.55 40.66L23.46 45.82L27.55 50.98L31.64 45.82L27.55 40.66Z" fill="#D66142"/>
<g style="mix-blend-mode:color-burn" opacity="0.2">
<path d="M27.52 40.69L27.55 40.66L31.64 45.82L27.55 50.98L27.52 50.95V40.69Z" fill="#616161"/>
</g>
<path d="M4.15001 12.64L2.95001 11.14L4.15001 9.63L5.34001 11.14L4.15001 12.64Z" fill="#D66142"/>
<g style="mix-blend-mode:color-burn" opacity="0.2">
<path d="M4.15 9.63L4.13 9.64001V12.63L4.15 12.64L5.34 11.14L4.15 9.63Z" fill="#616161"/>
</g>
<path d="M5.74997 5.22C5.74997 5.51 5.67997 5.83001 5.54997 6.17001C5.41997 6.51001 5.27997 6.75999 5.13997 6.92999C4.88997 7.20999 4.64997 7.45001 4.42997 7.64001C4.06997 7.95001 3.77997 8.10999 3.55997 8.10999C3.53997 8.10999 3.51997 8.11 3.49997 8.09C3.47997 8.07 3.45997 8.05001 3.44997 8.04001C3.64997 7.91001 3.84997 7.73 4.05997 7.5C4.26997 7.26 4.46997 6.94999 4.66997 6.54999V6.47C4.66997 6.47 4.63997 6.45001 4.61997 6.45001C4.45997 6.52001 4.30997 6.58001 4.17997 6.64001C4.04997 6.69001 3.92997 6.72 3.81997 6.72C3.60997 6.72 3.41997 6.61 3.22997 6.38C3.01997 6.12 2.90997 5.81 2.90997 5.44C2.90997 5.07 3.12997 4.69999 3.55997 4.29999C3.95997 3.92999 4.28997 3.75 4.54997 3.75C4.79997 3.75 5.04997 3.88001 5.28997 4.14001C5.57997 4.45001 5.72997 4.82 5.72997 5.25L5.74997 5.22ZM4.83997 5.73999C4.83997 5.38999 4.72997 5.09001 4.51997 4.85001C4.32997 4.64001 4.12997 4.53 3.92997 4.53C3.87997 4.53 3.84997 4.56 3.82997 4.62C3.80997 4.68 3.80997 4.74001 3.80997 4.82001C3.80997 5.12001 3.88997 5.37999 4.03997 5.57999C4.21997 5.82999 4.39997 5.95001 4.56997 5.95001C4.64997 5.95001 4.71997 5.94001 4.75997 5.92001C4.81997 5.89001 4.84997 5.83 4.84997 5.75L4.83997 5.73999Z" fill="#333333"/>
<path d="M34.91 50.41C34.91 50.12 34.98 49.8 35.11 49.46C35.24 49.12 35.38 48.87 35.52 48.71C35.77 48.42 36.01 48.19 36.23 48C36.59 47.69 36.88 47.53 37.1 47.53C37.12 47.53 37.14 47.53 37.16 47.55C37.18 47.57 37.2 47.59 37.21 47.6C37.01 47.73 36.81 47.91 36.6 48.14C36.39 48.38 36.19 48.69 35.99 49.09V49.17C35.99 49.17 36.02 49.19 36.04 49.19C36.2 49.12 36.35 49.06 36.48 49C36.61 48.95 36.73 48.92 36.84 48.92C37.05 48.92 37.24 49.04 37.43 49.26C37.64 49.52 37.75 49.83 37.75 50.2C37.75 50.57 37.53 50.94 37.1 51.34C36.7 51.71 36.37 51.89 36.11 51.89C35.86 51.89 35.61 51.76 35.37 51.5C35.08 51.19 34.93 50.82 34.93 50.39L34.91 50.41ZM35.82 49.89C35.82 50.24 35.93 50.54 36.14 50.78C36.33 50.99 36.53 51.1 36.73 51.1C36.78 51.1 36.81 51.07 36.83 51.01C36.85 50.95 36.85 50.89 36.85 50.81C36.85 50.51 36.77 50.25 36.62 50.05C36.44 49.81 36.26 49.69 36.09 49.69C36.01 49.69 35.94 49.69 35.9 49.72C35.84 49.75 35.81 49.81 35.81 49.89H35.82Z" fill="#333333"/>
<path d="M36.52 42.99L37.71 44.49L36.52 46L35.33 44.49L36.52 42.99Z" fill="#D66142"/>
<g style="mix-blend-mode:color-burn" opacity="0.2">
<path d="M36.53 43L36.52 42.99L35.33 44.49L36.52 46L36.53 45.99V43Z" fill="#616161"/>
</g>
</svg>
