<svg width="41" height="57" viewBox="0 0 41 57" fill="none" xmlns="http://www.w3.org/2000/svg">
<path d="M4.73997 56.16C2.38997 56.16 0.469969 54.28 0.459969 51.97L0.339966 4.67002C0.339966 2.34002 2.24997 0.45 4.60997 0.46L35.87 0.519998C38.22 0.519998 40.14 2.42 40.14 4.74V51.94C40.14 54.25 38.23 56.13 35.89 56.13L4.73997 56.17V56.16Z" fill="#C9C9C9"/>
<path d="M5.13004 56.04C2.81004 56.04 0.920044 54.16 0.920044 51.84V4.64999C0.920044 2.33999 2.81004 0.450012 5.13004 0.450012H35.93C38.25 0.450012 40.14 2.32999 40.14 4.64999V51.84C40.14 54.15 38.25 56.04 35.93 56.04H5.13004Z" fill="white"/>
<path d="M5.85999 5.56003C5.85999 5.86003 5.79 6.18002 5.66 6.52002C5.53 6.87002 5.38999 7.13004 5.24999 7.29004C4.98999 7.58004 4.74999 7.82004 4.52999 8.01004C4.15999 8.33004 3.86999 8.49002 3.64999 8.49002C3.62999 8.49002 3.60999 8.49003 3.58999 8.47003C3.56999 8.45003 3.54999 8.43003 3.52999 8.41003C3.73999 8.28003 3.93999 8.10002 4.14999 7.86002C4.35999 7.62002 4.56999 7.30002 4.76999 6.90002V6.82004C4.76999 6.82004 4.73999 6.80002 4.71999 6.80002C4.54999 6.87002 4.40999 6.93002 4.26999 6.99002C4.13999 7.04002 4.01 7.07004 3.91 7.07004C3.7 7.07004 3.49999 6.95003 3.30999 6.72003C3.08999 6.46003 2.98999 6.14004 2.98999 5.76004C2.98999 5.38004 3.20999 5.01004 3.64999 4.60004C4.04999 4.23004 4.39 4.04004 4.66 4.04004C4.91 4.04004 5.16 4.18003 5.41 4.44003C5.71 4.75003 5.85999 5.13004 5.85999 5.57004V5.56003ZM4.92999 6.09003C4.92999 5.74003 4.81999 5.44003 4.59999 5.19003C4.40999 4.98003 4.19999 4.87003 3.99999 4.87003C3.94999 4.87003 3.91999 4.90002 3.89999 4.96002C3.87999 5.02002 3.87999 5.08003 3.87999 5.16003C3.87999 5.47003 3.95999 5.72002 4.10999 5.93002C4.29999 6.18002 4.47999 6.30002 4.64999 6.30002C4.72999 6.30002 4.79999 6.29002 4.83999 6.27002C4.89999 6.24002 4.92999 6.18004 4.92999 6.10004V6.09003Z" fill="#333333"/>
<path d="M35.47 51.45C35.47 51.15 35.53 50.83 35.67 50.48C35.8 50.13 35.94 49.88 36.08 49.71C36.34 49.42 36.58 49.18 36.8 48.99C37.17 48.67 37.46 48.51 37.69 48.51C37.71 48.51 37.73 48.51 37.75 48.54C37.77 48.56 37.79 48.57 37.81 48.59C37.61 48.72 37.4 48.91 37.19 49.14C36.98 49.38 36.77 49.7 36.57 50.1V50.18C36.57 50.18 36.6 50.2 36.62 50.2C36.78 50.13 36.93 50.06 37.07 50.01C37.21 49.96 37.33 49.93 37.43 49.93C37.64 49.93 37.84 50.05 38.03 50.28C38.24 50.54 38.35 50.87 38.35 51.24C38.35 51.61 38.13 51.99 37.69 52.4C37.29 52.78 36.95 52.96 36.68 52.96C36.43 52.96 36.17 52.83 35.92 52.56C35.62 52.25 35.47 51.87 35.47 51.43V51.45ZM36.4 50.92C36.4 51.28 36.51 51.58 36.73 51.82C36.92 52.03 37.12 52.15 37.33 52.15C37.38 52.15 37.41 52.12 37.43 52.06C37.45 52 37.45 51.93 37.45 51.86C37.45 51.55 37.37 51.3 37.22 51.09C37.03 50.84 36.85 50.72 36.68 50.72C36.6 50.72 36.53 50.73 36.49 50.75C36.43 50.78 36.4 50.84 36.4 50.92Z" fill="#333333"/>
<g style="mix-blend-mode:color-burn" opacity="0.2">
<path d="M32.27 9.83002C32.27 8.83002 27.91 4.54004 27.91 4.54004V14.84H29.95L28.33 12.05C28.72 12.29 29.18 12.43 29.67 12.43C31.11 12.43 32.28 11.27 32.28 9.82004L32.27 9.83002Z" fill="#616161"/>
</g>
<g style="mix-blend-mode:color-burn" opacity="0.2">
<path d="M32.27 22.2C32.27 21.2 27.91 16.91 27.91 16.91V27.21H29.95L28.33 24.42C28.72 24.66 29.18 24.8 29.67 24.8C31.11 24.8 32.28 23.64 32.28 22.2H32.27Z" fill="#616161"/>
</g>
<g style="mix-blend-mode:color-burn" opacity="0.2">
<path d="M8.82006 9.83002C8.82006 8.83002 13.1801 4.54004 13.1801 4.54004V14.84H11.1401L12.7601 12.05C12.3701 12.29 11.9101 12.43 11.4201 12.43C9.98006 12.43 8.81006 11.27 8.81006 9.82004L8.82006 9.83002Z" fill="#616161"/>
</g>
<g style="mix-blend-mode:color-burn" opacity="0.2">
<path d="M16.23 28.29C16.23 27.29 20.59 23 20.59 23V33.3H18.56L20.18 30.51C19.79 30.74 19.33 30.89 18.84 30.89C17.4 30.89 16.22 29.73 16.22 28.28L16.23 28.29Z" fill="#616161"/>
</g>
<g style="mix-blend-mode:color-burn" opacity="0.2">
<path d="M8.82006 22.2C8.82006 21.2 13.1801 16.91 13.1801 16.91V27.21H11.1401L12.7601 24.42C12.3701 24.66 11.9101 24.8 11.4201 24.8C9.98006 24.8 8.81006 23.64 8.81006 22.2H8.82006Z" fill="#616161"/>
</g>
<g style="mix-blend-mode:color-burn" opacity="0.2">
<path d="M32.25 46.86C32.25 47.87 27.89 52.15 27.89 52.15V41.85H29.93L28.31 44.64C28.7 44.41 29.16 44.26 29.65 44.26C31.09 44.26 32.26 45.42 32.26 46.86H32.25Z" fill="#616161"/>
</g>
<g style="mix-blend-mode:color-burn" opacity="0.2">
<path d="M32.25 34.5C32.25 35.5 27.89 39.79 27.89 39.79V29.49H29.93L28.31 32.28C28.7 32.04 29.16 31.9 29.65 31.9C31.09 31.9 32.26 33.07 32.26 34.51L32.25 34.5Z" fill="#616161"/>
</g>
<g style="mix-blend-mode:color-burn" opacity="0.2">
<path d="M8.80004 46.86C8.80004 47.87 13.16 52.15 13.16 52.15V41.85H11.13L12.75 44.64C12.36 44.41 11.9 44.26 11.41 44.26C9.97004 44.26 8.79004 45.42 8.79004 46.86H8.80004Z" fill="#616161"/>
</g>
<g style="mix-blend-mode:color-burn" opacity="0.2">
<path d="M8.80004 34.5C8.80004 35.5 13.16 39.79 13.16 39.79V29.49H11.13L12.75 32.28C12.36 32.04 11.9 31.9 11.41 31.9C9.97004 31.9 8.79004 33.07 8.79004 34.51L8.80004 34.5Z" fill="#616161"/>
</g>
<g style="mix-blend-mode:color-burn" opacity="0.2">
<path d="M5.41 11.74C5.41 11.47 4.25 10.33 4.25 10.33V13.08H4.79L4.35 12.34C4.46 12.4 4.58 12.44 4.71 12.44C5.09 12.44 5.41 12.13 5.41 11.74Z" fill="#616161"/>
</g>
<g style="mix-blend-mode:color-burn" opacity="0.2">
<path d="M35.78 45.41C35.78 45.68 36.94 46.82 36.94 46.82V44.07H36.4L36.83 44.81C36.73 44.75 36.61 44.71 36.47 44.71C36.09 44.71 35.77 45.02 35.77 45.41H35.78Z" fill="#616161"/>
</g>
<path d="M5.73999 11.2C5.69999 11.9 4.30999 12.96 4.30999 12.96C4.30999 12.96 2.87 11.89 2.87 11.2C2.87 10.72 3.25999 10.33 3.73999 10.33C4.00999 10.33 4.30999 10.57 4.30999 10.57C4.30999 10.57 4.59 10.33 4.87 10.33C5.35 10.33 5.75999 10.72 5.73999 11.2Z" fill="#D66142"/>
<g style="mix-blend-mode:color-burn" opacity="0.2">
<path d="M4.87994 10.33C4.59994 10.33 4.31995 10.57 4.31995 10.57V12.96C4.31995 12.96 5.71995 11.91 5.74995 11.2C5.77995 10.72 5.35994 10.33 4.87994 10.33Z" fill="#616161"/>
</g>
<path d="M35.27 45.86C35.31 45.15 36.74 44.07 36.74 44.07C36.74 44.07 38.2 45.16 38.2 45.87C38.2 46.36 37.8 46.75 37.31 46.75C37.03 46.75 36.73 46.51 36.73 46.51C36.73 46.51 36.44 46.75 36.16 46.75C35.67 46.75 35.25 46.35 35.28 45.86H35.27Z" fill="#D66142"/>
<g style="mix-blend-mode:color-burn" opacity="0.2">
<path d="M36.15 46.75C36.43 46.75 36.72 46.51 36.72 46.51C36.72 46.51 36.72 46.51 36.73 46.51V44.07C36.73 44.07 35.3 45.15 35.26 45.86C35.24 46.35 35.66 46.74 36.14 46.75H36.15Z" fill="#616161"/>
</g>
<path d="M9.16003 8.45001C9.26003 10.43 13.24 13.44 13.24 13.44C13.24 13.44 17.33 10.4 17.33 8.42001C17.33 7.05001 16.21 5.95001 14.85 5.95001C14.08 5.95001 13.23 6.64001 13.23 6.64001C13.23 6.64001 12.42 5.94999 11.63 5.95999C10.26 5.97999 9.09003 7.08 9.17003 8.44L9.16003 8.45001Z" fill="#D66142"/>
<g style="mix-blend-mode:color-burn" opacity="0.2">
<path d="M11.63 5.96997C12.42 5.96997 13.23 6.64996 13.23 6.64996C13.23 6.64996 13.23 6.64997 13.26 6.62997V13.44H13.25C13.25 13.44 9.27998 10.43 9.16998 8.44998C9.09998 7.08998 10.27 5.98997 11.63 5.96997Z" fill="#616161"/>
</g>
<path d="M16.49 26.64C16.6 28.62 20.57 31.63 20.57 31.63C20.57 31.63 24.65 28.6 24.65 26.61C24.65 25.24 23.53 24.14 22.17 24.14C21.4 24.14 20.55 24.83 20.55 24.83C20.55 24.83 19.74 24.14 18.95 24.15C17.59 24.17 16.41 25.27 16.48 26.63L16.49 26.64Z" fill="#D66142"/>
<g style="mix-blend-mode:color-burn" opacity="0.2">
<path d="M18.95 24.16C19.74 24.15 20.5501 24.84 20.5501 24.84C20.5501 24.84 20.5601 24.84 20.5801 24.82V31.63H20.57C20.57 31.63 16.6 28.62 16.49 26.64C16.42 25.27 17.59 24.18 18.96 24.16H18.95Z" fill="#616161"/>
</g>
<path d="M32.03 8.45001C31.92 10.43 27.95 13.44 27.95 13.44C27.95 13.44 23.87 10.4 23.87 8.42001C23.87 7.05001 24.99 5.95001 26.35 5.95001C27.11 5.95001 27.97 6.64001 27.97 6.64001C27.97 6.64001 28.78 5.94999 29.57 5.95999C30.94 5.97999 32.11 7.08 32.04 8.44L32.03 8.45001Z" fill="#D66142"/>
<g style="mix-blend-mode:color-burn" opacity="0.2">
<path d="M29.5601 5.96997C28.7701 5.96997 27.9601 6.64996 27.9601 6.64996C27.9601 6.64996 27.9501 6.64997 27.9301 6.62997V13.44C27.9301 13.44 31.9 10.43 32.01 8.44998C32.08 7.08998 30.9101 5.98997 29.5401 5.96997H29.5601Z" fill="#616161"/>
</g>
<path d="M9.16003 20.69C9.26003 22.67 13.24 25.68 13.24 25.68C13.24 25.68 17.33 22.65 17.33 20.66C17.33 19.29 16.21 18.19 14.85 18.19C14.08 18.19 13.23 18.88 13.23 18.88C13.23 18.88 12.42 18.19 11.63 18.2C10.26 18.22 9.09003 19.31 9.17003 20.68L9.16003 20.69Z" fill="#D66142"/>
<g style="mix-blend-mode:color-burn" opacity="0.2">
<path d="M11.63 18.2099C12.42 18.1999 13.23 18.89 13.23 18.89C13.23 18.89 13.23 18.89 13.26 18.87V25.6799H13.25C13.25 25.6799 9.27998 22.67 9.16998 20.69C9.09998 19.32 10.27 18.2299 11.63 18.2099Z" fill="#616161"/>
</g>
<path d="M32.03 20.69C31.92 22.67 27.95 25.68 27.95 25.68C27.95 25.68 23.87 22.65 23.87 20.66C23.87 19.29 24.99 18.19 26.35 18.19C27.11 18.19 27.97 18.88 27.97 18.88C27.97 18.88 28.78 18.19 29.57 18.2C30.94 18.22 32.11 19.31 32.04 20.68L32.03 20.69Z" fill="#D66142"/>
<g style="mix-blend-mode:color-burn" opacity="0.2">
<path d="M29.5601 18.2099C28.7701 18.1999 27.9601 18.89 27.9601 18.89C27.9601 18.89 27.9501 18.89 27.9301 18.87V25.6799C27.9301 25.6799 31.9 22.67 32.01 20.69C32.08 19.32 30.9101 18.2299 29.5401 18.2099H29.5601Z" fill="#616161"/>
</g>
<path d="M9.16003 47.68C9.26003 45.7 13.24 42.69 13.24 42.69C13.24 42.69 17.33 45.72 17.33 47.71C17.33 49.08 16.21 50.18 14.85 50.18C14.08 50.18 13.23 49.49 13.23 49.49C13.23 49.49 12.42 50.18 11.63 50.17C10.26 50.15 9.09003 49.06 9.17003 47.69L9.16003 47.68Z" fill="#D66142"/>
<g style="mix-blend-mode:color-burn" opacity="0.2">
<path d="M11.63 50.16C12.42 50.17 13.23 49.48 13.23 49.48C13.23 49.48 13.23 49.49 13.26 49.5V42.69H13.25C13.25 42.69 9.27998 45.7 9.16998 47.68C9.09998 49.05 10.27 50.15 11.63 50.16Z" fill="#616161"/>
</g>
<path d="M32.03 47.68C31.92 45.7 27.95 42.69 27.95 42.69C27.95 42.69 23.87 45.72 23.87 47.71C23.87 49.08 24.99 50.18 26.35 50.18C27.11 50.18 27.97 49.49 27.97 49.49C27.97 49.49 28.78 50.18 29.57 50.17C30.94 50.15 32.11 49.06 32.04 47.69L32.03 47.68Z" fill="#D66142"/>
<g style="mix-blend-mode:color-burn" opacity="0.2">
<path d="M29.5601 50.16C28.7701 50.17 27.9601 49.48 27.9601 49.48C27.9601 49.48 27.9501 49.49 27.9301 49.5V42.69C27.9301 42.69 31.9 45.7 32.01 47.68C32.08 49.05 30.9101 50.15 29.5401 50.16H29.5601Z" fill="#616161"/>
</g>
<path d="M9.16003 35.44C9.26003 33.46 13.24 30.45 13.24 30.45C13.24 30.45 17.33 33.48 17.33 35.47C17.33 36.84 16.21 37.94 14.85 37.94C14.08 37.94 13.23 37.25 13.23 37.25C13.23 37.25 12.42 37.94 11.63 37.93C10.26 37.91 9.09003 36.82 9.17003 35.45L9.16003 35.44Z" fill="#D66142"/>
<g style="mix-blend-mode:color-burn" opacity="0.2">
<path d="M11.63 37.92C12.42 37.93 13.23 37.24 13.23 37.24C13.23 37.24 13.23 37.24 13.26 37.26V30.45H13.25C13.25 30.45 9.27998 33.46 9.16998 35.44C9.09998 36.81 10.27 37.9 11.63 37.92Z" fill="#616161"/>
</g>
<path d="M32.03 35.44C31.92 33.46 27.95 30.45 27.95 30.45C27.95 30.45 23.87 33.48 23.87 35.47C23.87 36.84 24.99 37.94 26.35 37.94C27.11 37.94 27.97 37.25 27.97 37.25C27.97 37.25 28.78 37.94 29.57 37.93C30.94 37.91 32.11 36.82 32.04 35.45L32.03 35.44Z" fill="#D66142"/>
<g style="mix-blend-mode:color-burn" opacity="0.2">
<path d="M29.5601 37.92C28.7701 37.93 27.9601 37.24 27.9601 37.24C27.9601 37.24 27.9501 37.24 27.9301 37.26V30.45C27.9301 30.45 31.9 33.46 32.01 35.44C32.08 36.81 30.9101 37.9 29.5401 37.92H29.5601Z" fill="#616161"/>
</g>
</svg>
