<svg width="41" height="57" viewBox="0 0 41 57" fill="none" xmlns="http://www.w3.org/2000/svg">
<path d="M4.80002 56.47C2.45002 56.47 0.530023 54.6 0.520023 52.28L0.400024 4.98002C0.400024 2.65002 2.31002 0.759998 4.67002 0.769998L35.93 0.829996C38.28 0.829996 40.2 2.73 40.2 5.05V52.25C40.2 54.56 38.29 56.44 35.95 56.44L4.80002 56.48V56.47Z" fill="#C9C9C9"/>
<path d="M5.18998 56.35C2.86998 56.35 0.97998 54.47 0.97998 52.15V4.95999C0.97998 2.64999 2.86998 0.76001 5.18998 0.76001H36C38.32 0.76001 40.21 2.63999 40.21 4.95999V52.15C40.21 54.47 38.32 56.35 36 56.35H5.18998Z" fill="white"/>
<path d="M5.91003 5.86996C5.91003 6.16996 5.84003 6.48997 5.71003 6.83997C5.58003 7.18997 5.44003 7.43995 5.30003 7.60995C5.05003 7.89995 4.80003 8.13996 4.58003 8.32996C4.21003 8.64996 3.92003 8.80997 3.69003 8.80997C3.67003 8.80997 3.65003 8.80997 3.63003 8.77997C3.61003 8.75997 3.59003 8.73997 3.57003 8.71997C3.77003 8.58997 3.98003 8.40998 4.19003 8.16998C4.40003 7.92998 4.61003 7.60996 4.81003 7.20996V7.12997C4.81003 7.12997 4.78003 7.10998 4.76003 7.09998C4.60003 7.16998 4.45003 7.23998 4.31003 7.28998C4.17003 7.33998 4.05003 7.36996 3.95003 7.36996C3.74003 7.36996 3.54003 7.24996 3.35003 7.01996C3.13003 6.74996 3.03003 6.42997 3.03003 6.05997C3.03003 5.68997 3.25003 5.30996 3.69003 4.89996C4.09003 4.52996 4.43003 4.33997 4.70003 4.33997C4.95003 4.33997 5.20003 4.46996 5.45003 4.73996C5.75003 5.04996 5.90003 5.42996 5.90003 5.86996H5.91003ZM4.98003 6.39996C4.98003 6.03996 4.87003 5.73997 4.65003 5.49997C4.45003 5.28997 4.25003 5.17996 4.05003 5.17996C4.00003 5.17996 3.97003 5.20996 3.95003 5.26996C3.93003 5.32996 3.93003 5.38997 3.93003 5.46997C3.93003 5.77997 4.01003 6.03996 4.16003 6.23996C4.35003 6.48996 4.53003 6.60995 4.70003 6.60995C4.79003 6.60995 4.85003 6.59996 4.89003 6.57996C4.95003 6.53996 4.98003 6.48997 4.98003 6.40997V6.39996Z" fill="#333333"/>
<path d="M35.53 51.77C35.53 51.48 35.6 51.15 35.73 50.8C35.86 50.45 36 50.2 36.14 50.03C36.4 49.74 36.64 49.5 36.86 49.31C37.23 48.99 37.52 48.84 37.74 48.84C37.76 48.84 37.78 48.84 37.8 48.86C37.82 48.88 37.84 48.9 37.86 48.91C37.66 49.04 37.45 49.22 37.24 49.46C37.03 49.7 36.82 50.02 36.62 50.42V50.5C36.62 50.5 36.65 50.52 36.67 50.52C36.83 50.45 36.98 50.38 37.12 50.33C37.26 50.28 37.38 50.25 37.48 50.25C37.69 50.25 37.89 50.37 38.08 50.6C38.3 50.86 38.4 51.18 38.4 51.56C38.4 51.94 38.18 52.32 37.74 52.72C37.34 53.1 37 53.28 36.73 53.28C36.48 53.28 36.23 53.15 35.97 52.88C35.67 52.57 35.52 52.19 35.52 51.75L35.53 51.77ZM36.46 51.24C36.46 51.6 36.57 51.9 36.79 52.14C36.98 52.35 37.18 52.46 37.39 52.46C37.44 52.46 37.47 52.43 37.49 52.37C37.51 52.31 37.52 52.25 37.52 52.17C37.52 51.86 37.44 51.6 37.29 51.4C37.1 51.15 36.92 51.03 36.75 51.03C36.66 51.03 36.6 51.03 36.56 51.06C36.5 51.09 36.47 51.15 36.47 51.23L36.46 51.24Z" fill="#333333"/>
<path d="M32.32 10.15C32.32 9.14999 27.96 4.85999 27.96 4.85999C27.96 4.85999 23.71 9.28001 23.7 10.14C23.7 11.58 24.86 12.75 26.3 12.75C26.79 12.75 27.25 12.62 27.64 12.38L26 15.17H29.97L28.35 12.38C28.74 12.62 29.2 12.76 29.69 12.76C31.13 12.76 32.31 11.6 32.31 10.15H32.32Z" fill="#333333"/>
<g style="mix-blend-mode:color-burn" opacity="0.2">
<path d="M32.32 10.15C32.32 9.14999 27.96 4.85999 27.96 4.85999V15.16H30L28.38 12.37C28.77 12.61 29.23 12.75 29.72 12.75C31.16 12.75 32.34 11.59 32.34 10.14L32.32 10.15Z" fill="#616161"/>
</g>
<path d="M32.32 22.51C32.32 21.51 27.96 17.22 27.96 17.22C27.96 17.22 23.71 21.64 23.7 22.5C23.7 23.94 24.86 25.11 26.3 25.11C26.79 25.11 27.25 24.98 27.64 24.74L26 27.53H29.97L28.35 24.74C28.74 24.98 29.2 25.12 29.69 25.12C31.13 25.12 32.31 23.96 32.31 22.51H32.32Z" fill="#333333"/>
<g style="mix-blend-mode:color-burn" opacity="0.2">
<path d="M32.32 22.51C32.32 21.51 27.96 17.22 27.96 17.22V27.52H30L28.38 24.73C28.77 24.97 29.23 25.11 29.72 25.11C31.16 25.11 32.34 23.95 32.34 22.5L32.32 22.51Z" fill="#616161"/>
</g>
<path d="M8.88 10.15C8.88 9.14999 13.24 4.85999 13.24 4.85999C13.24 4.85999 17.49 9.28001 17.5 10.14C17.5 11.58 16.34 12.75 14.9 12.75C14.41 12.75 13.95 12.62 13.55 12.38L15.19 15.17H11.22L12.84 12.38C12.45 12.62 11.99 12.76 11.5 12.76C10.06 12.76 8.88 11.6 8.88 10.15Z" fill="#333333"/>
<g style="mix-blend-mode:color-burn" opacity="0.2">
<path d="M8.87999 10.15C8.87999 9.14999 13.24 4.85999 13.24 4.85999V15.17H11.2L12.82 12.38C12.43 12.62 11.97 12.76 11.48 12.76C10.04 12.76 8.85999 11.6 8.85999 10.15H8.87999Z" fill="#616161"/>
</g>
<path d="M16.28 28.61C16.28 27.61 20.64 23.32 20.64 23.32C20.64 23.32 24.9 27.74 24.9 28.6C24.9 30.04 23.74 31.21 22.29 31.21C21.8 31.21 21.34 31.08 20.94 30.84L22.58 33.63H18.61L20.23 30.84C19.84 31.08 19.38 31.22 18.89 31.22C17.45 31.22 16.27 30.05 16.27 28.61H16.28Z" fill="#333333"/>
<g style="mix-blend-mode:color-burn" opacity="0.2">
<path d="M16.28 28.61C16.28 27.61 20.64 23.32 20.64 23.32V33.62H18.6L20.22 30.83C19.83 31.07 19.37 31.21 18.88 31.21C17.44 31.21 16.26 30.04 16.26 28.6L16.28 28.61Z" fill="#616161"/>
</g>
<path d="M8.88 22.51C8.88 21.51 13.24 17.22 13.24 17.22C13.24 17.22 17.49 21.64 17.5 22.5C17.5 23.94 16.34 25.11 14.9 25.11C14.41 25.11 13.95 24.98 13.55 24.74L15.19 27.53H11.22L12.84 24.74C12.45 24.98 11.99 25.12 11.5 25.12C10.06 25.12 8.88 23.96 8.88 22.51Z" fill="#333333"/>
<g style="mix-blend-mode:color-burn" opacity="0.2">
<path d="M8.87999 22.51C8.87999 21.51 13.24 17.22 13.24 17.22V27.53H11.2L12.82 24.74C12.43 24.98 11.97 25.12 11.48 25.12C10.04 25.12 8.85999 23.96 8.85999 22.51H8.87999Z" fill="#616161"/>
</g>
<path d="M32.3 47.18C32.3 48.18 27.94 52.47 27.94 52.47C27.94 52.47 23.69 48.05 23.68 47.19C23.68 45.75 24.84 44.58 26.29 44.58C26.78 44.58 27.24 44.71 27.63 44.95L25.99 42.16H29.96L28.34 44.94C28.73 44.71 29.19 44.56 29.68 44.56C31.12 44.56 32.3 45.72 32.3 47.17V47.18Z" fill="#333333"/>
<g style="mix-blend-mode:color-burn" opacity="0.2">
<path d="M32.3 47.18C32.3 48.18 27.94 52.47 27.94 52.47V42.17H29.98L28.36 44.96C28.75 44.73 29.21 44.58 29.7 44.58C31.14 44.58 32.32 45.74 32.32 47.19L32.3 47.18Z" fill="#616161"/>
</g>
<path d="M32.3 34.82C32.3 35.82 27.94 40.11 27.94 40.11C27.94 40.11 23.69 35.68 23.68 34.83C23.68 33.39 24.84 32.22 26.29 32.22C26.78 32.22 27.24 32.35 27.63 32.59L25.99 29.8H29.96L28.34 32.59C28.73 32.35 29.19 32.21 29.68 32.21C31.12 32.21 32.3 33.37 32.3 34.82Z" fill="#333333"/>
<g style="mix-blend-mode:color-burn" opacity="0.2">
<path d="M32.3 34.82C32.3 35.82 27.94 40.11 27.94 40.11V29.81H29.98L28.36 32.6C28.75 32.36 29.21 32.22 29.7 32.22C31.14 32.22 32.32 33.38 32.32 34.83L32.3 34.82Z" fill="#616161"/>
</g>
<path d="M8.85998 47.18C8.85998 48.18 13.22 52.47 13.22 52.47C13.22 52.47 17.47 48.05 17.47 47.19C17.47 45.75 16.31 44.58 14.87 44.58C14.38 44.58 13.92 44.71 13.52 44.95L15.16 42.16H11.19L12.81 44.94C12.42 44.71 11.96 44.56 11.47 44.56C10.03 44.56 8.84998 45.72 8.84998 47.17L8.85998 47.18Z" fill="#333333"/>
<g style="mix-blend-mode:color-burn" opacity="0.2">
<path d="M8.86003 47.18C8.86003 48.18 13.22 52.47 13.22 52.47V42.17H11.18L12.8 44.96C12.41 44.73 11.95 44.58 11.46 44.58C10.02 44.58 8.84003 45.74 8.84003 47.19L8.86003 47.18Z" fill="#616161"/>
</g>
<path d="M8.85998 34.82C8.85998 35.82 13.22 40.11 13.22 40.11C13.22 40.11 17.47 35.68 17.47 34.83C17.47 33.39 16.31 32.22 14.87 32.22C14.38 32.22 13.92 32.35 13.52 32.59L15.16 29.8H11.19L12.81 32.59C12.42 32.35 11.96 32.21 11.47 32.21C10.03 32.21 8.84998 33.37 8.84998 34.82H8.85998Z" fill="#333333"/>
<g style="mix-blend-mode:color-burn" opacity="0.2">
<path d="M8.86003 34.82C8.86003 35.82 13.22 40.11 13.22 40.11V29.81H11.18L12.8 32.6C12.41 32.36 11.95 32.22 11.46 32.22C10.02 32.22 8.84003 33.38 8.84003 34.83L8.86003 34.82Z" fill="#616161"/>
</g>
<path d="M5.46999 12.05C5.46999 11.78 4.30999 10.64 4.30999 10.64C4.30999 10.64 3.17999 11.82 3.17999 12.05C3.17999 12.43 3.48999 12.75 3.86999 12.75C3.99999 12.75 4.11999 12.71 4.22999 12.65L3.78999 13.39H4.84999L4.41999 12.65C4.51999 12.71 4.64999 12.75 4.77999 12.75C5.15999 12.75 5.47999 12.44 5.47999 12.06L5.46999 12.05Z" fill="#333333"/>
<g style="mix-blend-mode:color-burn" opacity="0.2">
<path d="M5.47 12.05C5.47 11.78 4.31 10.64 4.31 10.64V13.39H4.84999L4.41999 12.65C4.51999 12.71 4.64999 12.75 4.77999 12.75C5.15999 12.75 5.48 12.44 5.48 12.06L5.47 12.05Z" fill="#616161"/>
</g>
<path d="M35.83 45.72C35.83 45.99 36.99 47.13 36.99 47.13C36.99 47.13 38.13 45.95 38.13 45.72C38.13 45.34 37.82 45.02 37.44 45.02C37.31 45.02 37.19 45.05 37.08 45.12L37.52 44.38H36.46L36.89 45.12C36.79 45.06 36.66 45.02 36.53 45.02C36.14 45.02 35.83 45.33 35.83 45.71V45.72Z" fill="#333333"/>
<g style="mix-blend-mode:color-burn" opacity="0.2">
<path d="M35.83 45.72C35.83 45.99 36.99 47.13 36.99 47.13V44.38H36.45L36.88 45.12C36.78 45.06 36.65 45.02 36.52 45.02C36.13 45.02 35.82 45.33 35.82 45.71L35.83 45.72Z" fill="#616161"/>
</g>
</svg>
