<svg width="40" height="55" viewBox="0 0 40 55" fill="none" xmlns="http://www.w3.org/2000/svg">
<path d="M5.03995 54.85C2.71995 54.85 0.829956 53 0.829956 50.73L0.709961 4.15002C0.709961 1.86002 2.58995 0 4.91995 0L35.7 0.0599976C38.02 0.0599976 39.8999 1.93 39.8999 4.22V50.7C39.8999 52.97 38.02 54.82 35.71 54.83L5.03995 54.87V54.85Z" fill="#C9C9C9"/>
<path d="M5.46007 54.8C3.17007 54.8 1.31006 52.94 1.31006 50.67V4.20001C1.31006 1.92001 3.17007 0.0700073 5.46007 0.0700073H35.7901C38.0801 0.0700073 39.9401 1.92001 39.9401 4.20001V50.67C39.9401 52.95 38.0801 54.8 35.7901 54.8H5.46007Z" fill="white"/>
<mask id="mask0_1_5079" style="mask-type:luminance" maskUnits="userSpaceOnUse" x="3" y="2" width="35" height="51">
<path d="M5.45999 52.5C4.43999 52.5 3.60999 51.67 3.60999 50.66V4.19003C3.60999 3.18003 4.43999 2.35004 5.45999 2.35004H35.79C36.81 2.35004 37.64 3.17003 37.64 4.19003V50.66C37.64 51.67 36.81 52.5 35.79 52.5H5.45999Z" fill="white"/>
</mask>
<g mask="url(#mask0_1_5079)">
<path d="M32.5701 13.8401V18.5201L37.2601 13.8401H32.5701Z" fill="#AD3F3C"/>
<path d="M32.5701 30.7101V35.5101L37.3801 30.7101H32.5701Z" fill="#AD493C"/>
<path d="M32.5701 19.4601V24.1901L37.3001 19.4601H32.5701Z" fill="#B72843"/>
<path d="M37.85 35.86V30.91L32.89 35.86H37.85Z" fill="#A54B3E"/>
<path d="M32.5701 36.3301V41.1801L37.4201 36.3301H32.5701Z" fill="#9B3B34"/>
<path d="M32.5701 41.9601V46.8401L37.4601 41.9601H32.5701Z" fill="#A53E59"/>
<path d="M37.8501 41.4901V36.5701L32.9301 41.4901H37.8501Z" fill="#971E3F"/>
<path d="M37.8501 2.59009L32.6901 7.74008H37.6901L37.8501 7.59009V2.59009Z" fill="#B33F36"/>
<path d="M37.85 8.25L32.73 13.37H37.73L37.85 13.25V8.25Z" fill="#B74132"/>
<path d="M32.5701 8.22003V12.86L37.2201 8.22003H32.5701Z" fill="#9E2852"/>
<path d="M32.5701 2.59009V7.20007L37.1801 2.59009H32.5701Z" fill="#A3584C"/>
<path d="M37.85 47.11V42.23L32.97 47.11H37.85Z" fill="#A24A76"/>
<path d="M32.1001 8.34009L27.0701 13.3701H32.0701L32.1001 13.3301V8.34009Z" fill="#9E3259"/>
<path d="M32.5701 47.5801V52.5001L37.5001 47.5801H32.5701Z" fill="#B12C35"/>
<path d="M32.1 2.67004L27.03 7.74005H32.03L32.1 7.67004V2.67004Z" fill="#A2406E"/>
<path d="M32.1 18.99V14L27.11 18.99H32.1Z" fill="#BD2522"/>
<path d="M37.85 52.73V47.9L33.01 52.73H37.85Z" fill="#97384F"/>
<path d="M32.5701 25.0901V29.8501L37.3401 25.0901H32.5701Z" fill="#9D384D"/>
<path d="M37.8501 19.5801L32.8101 24.6201H37.8101L37.8501 24.5801V19.5801Z" fill="#9D3E45"/>
<path d="M37.8501 30.24V25.25L32.8501 30.24H37.8501Z" fill="#A7332E"/>
<path d="M37.85 13.92L32.77 18.9901H37.77L37.85 18.91V13.92Z" fill="#9D3938"/>
<path d="M14.8701 30.2401V25.5601L10.2001 30.2401H14.8701Z" fill="#B3243D"/>
<path d="M3.85999 2.59009V2.60007V7.59009L8.85999 2.59009H3.85999Z" fill="#913641"/>
<path d="M3.89998 8.22003L3.85999 8.26004V13.26L8.89998 8.22003H3.89998Z" fill="#AD5346"/>
<path d="M3.93999 13.8401L3.85999 13.9201V18.9201L8.93999 13.8401H3.93999Z" fill="#9D4249"/>
<path d="M9.13004 42.63L4.65002 47.11H9.13004V42.63Z" fill="#A33932"/>
<path d="M9.12999 41.9701V41.9601H4.13998L3.85999 42.2401V47.1101H3.98999L9.12999 41.9701Z" fill="#C36544"/>
<path d="M9.12999 41.4901V36.97L4.60999 41.4901H9.12999Z" fill="#A74257"/>
<path d="M9.13007 48.3L4.69006 52.73H9.13007V48.3Z" fill="#AD283F"/>
<path d="M9.12999 47.6301V47.5801H4.17998L3.85999 47.9001V52.7301H4.02998L9.12999 47.6301Z" fill="#A94044"/>
<path d="M9.13004 13.37V8.65002L4.41003 13.37H9.13004Z" fill="#B53D3C"/>
<path d="M9.09999 36.3301H4.09999L3.85999 36.5801V41.4901H3.94998L9.09999 36.3301Z" fill="#AD2A37"/>
<path d="M3.97998 19.4601L3.85999 19.5901V24.5801L8.97998 19.4601H3.97998Z" fill="#9A2A58"/>
<path d="M9.13008 18.9901V14.3101L4.45007 18.9901H9.13008Z" fill="#B96142"/>
<path d="M9.13005 30.24V25.64L4.54004 30.24H9.13005Z" fill="#A53847"/>
<path d="M9.05998 30.7101H4.05998L3.85999 30.9101V35.8601H3.90999L9.05998 30.7101Z" fill="#AB453E"/>
<path d="M9.13 24.6201V19.98L4.5 24.6201H9.13Z" fill="#A32320"/>
<path d="M9.13007 35.8601V31.3101L4.57007 35.8601H9.13007Z" fill="#A13435"/>
<path d="M9.13 7.74005V2.99005L4.38 7.74005H9.13Z" fill="#BF3242"/>
<path d="M9.01999 25.0901H4.01999L3.85999 25.2501V30.2401H3.86998L9.01999 25.0901Z" fill="#AD2724"/>
<path d="M26.3601 18.9901V14.0801L21.4501 18.9901H26.3601Z" fill="#BD1E2C"/>
<path d="M21.0901 19.4601V24.3401L25.9701 19.4601H21.0901Z" fill="#B95D48"/>
<path d="M21.0901 13.8401V18.6801L25.9301 13.8401H21.0901Z" fill="#B7303A"/>
<path d="M26.36 13.3701V8.41003L21.41 13.3701H26.36Z" fill="#A53934"/>
<path d="M21.0901 8.22003V13.0201L25.8901 8.22003H21.0901Z" fill="#953250"/>
<path d="M26.36 30.24V25.4L21.53 30.24H26.36Z" fill="#BD523C"/>
<path d="M26.36 24.6201V19.7401L21.48 24.6201H26.36Z" fill="#AB2A38"/>
<path d="M21.0901 25.0901V30.0101L26.0101 25.0901H21.0901Z" fill="#9F5242"/>
<path d="M21.0901 30.7101V35.6701L26.0501 30.7101H21.0901Z" fill="#B14B4A"/>
<path d="M21.0901 2.59009V7.36008L25.8501 2.59009H21.0901Z" fill="#B92A35"/>
<path d="M21.1701 47.5801L21.0901 47.6701V52.6701L26.1701 47.5801H21.1701Z" fill="#9C365B"/>
<path d="M26.3601 41.4901V36.73L21.6001 41.4901H26.3601Z" fill="#B55748"/>
<path d="M21.0901 36.3301V36.3401V41.3401L26.0901 36.3301H21.0901Z" fill="#AF5742"/>
<path d="M21.1301 41.9601L21.0901 42.0001V47.0001L26.1301 41.9601H21.1301Z" fill="#A52448"/>
<path d="M26.36 47.11V42.39L21.64 47.11H26.36Z" fill="#A34536"/>
<path d="M26.3601 52.7301V48.0601L21.6901 52.7301H26.3601Z" fill="#C12D26"/>
<path d="M32.1 24.6201V19.66L27.15 24.6201H32.1Z" fill="#A2406E"/>
<path d="M26.8301 25.0901V29.9301L31.6701 25.0901H26.8301Z" fill="#972435"/>
<path d="M26.8301 13.8401V18.6001L31.5901 13.8401H26.8301Z" fill="#B93F28"/>
<path d="M32.1001 30.2401V25.3301L27.1901 30.2401H32.1001Z" fill="#953E52"/>
<path d="M26.8301 19.4601V24.2601L31.6301 19.4601H26.8301Z" fill="#995061"/>
<path d="M26.8301 36.3301V41.2601L31.7501 36.3301H26.8301Z" fill="#9C1E49"/>
<path d="M32.1 35.86V30.9901L27.23 35.86H32.1Z" fill="#B9372A"/>
<path d="M26.8301 30.7101V35.5901L31.7101 30.7101H26.8301Z" fill="#A2305B"/>
<path d="M26.8301 8.22003V12.94L31.5601 8.22003H26.8301Z" fill="#B72C39"/>
<path d="M32.1 41.49V36.65L27.27 41.49H32.1Z" fill="#C3694C"/>
<path d="M26.8301 2.59009V7.27008L31.5101 2.59009H26.8301Z" fill="#C1593C"/>
<path d="M26.36 7.74002V2.75L21.37 7.74002H26.36Z" fill="#C33230"/>
<path d="M26.8301 41.9601V46.9201L31.8001 41.9601H26.8301Z" fill="#A24A70"/>
<path d="M32.1001 52.73V47.98L27.3501 52.73H32.1001Z" fill="#B14E4E"/>
<path d="M26.8301 47.5801V47.5901V52.5801L31.8301 47.5801H26.8301Z" fill="#A54338"/>
<path d="M32.1001 47.1101V42.3101L27.3101 47.1101H32.1001Z" fill="#BB3930"/>
<path d="M26.3601 35.8601V31.0701L21.5701 35.8601H26.3601Z" fill="#C35752"/>
<path d="M9.6001 2.59009V7.51007L14.5201 2.59009H9.6001Z" fill="#C3674A"/>
<path d="M14.8701 13.3701V8.57007L10.0801 13.3701H14.8701Z" fill="#944E66"/>
<path d="M14.87 7.74005V2.91003L10.04 7.74005H14.87Z" fill="#B13332"/>
<path d="M9.6001 8.22003V13.1801L14.5601 8.22003H9.6001Z" fill="#BD3528"/>
<path d="M9.61009 13.8401L9.6001 13.8501V18.8401L14.6101 13.8401H9.61009Z" fill="#A24470"/>
<path d="M14.87 41.49V36.89L10.28 41.49H14.87Z" fill="#A13E38"/>
<path d="M14.8401 47.5801H9.84009L9.6001 47.8301V52.7301H9.69009L14.8401 47.5801Z" fill="#992039"/>
<path d="M14.8701 47.11V42.55L10.3201 47.11H14.8701Z" fill="#A91E41"/>
<path d="M14.87 18.9901V14.2401L10.12 18.9901H14.87Z" fill="#B93D2A"/>
<path d="M14.8001 41.9601H9.81009L9.6001 42.1601V47.1101H9.65009L14.8001 41.9601Z" fill="#A23A6A"/>
<path d="M14.87 52.73V48.22L10.36 52.73H14.87Z" fill="#C14544"/>
<path d="M14.87 24.62V19.9L10.16 24.62H14.87Z" fill="#B94F46"/>
<path d="M9.65009 19.4601L9.6001 19.5101V24.5101L14.6401 19.4601H9.65009Z" fill="#A32848"/>
<path d="M9.69009 25.0901L9.6001 25.1701V30.1701L14.6801 25.0901H9.69009Z" fill="#945068"/>
<path d="M14.7601 36.3301H9.76009L9.6001 36.5001V41.4901H9.61009L14.7601 36.3301Z" fill="#B72225"/>
<path d="M14.87 35.86V31.23L10.24 35.86H14.87Z" fill="#A94C5C"/>
<path d="M9.73009 30.7101L9.6001 30.8301V35.8301L14.7201 30.7101H9.73009Z" fill="#A44A69"/>
<path d="M20.62 13.3701V8.49005L15.74 13.3701H20.62Z" fill="#B14E56"/>
<path d="M15.3401 13.8401V18.7601L20.2701 13.8401H15.3401Z" fill="#9D3C57"/>
<path d="M15.3401 8.22003V13.1L20.2301 8.22003H15.3401Z" fill="#A1534C"/>
<path d="M15.3501 25.0901H15.3401V30.0901L20.3501 25.0901H15.3501Z" fill="#BD4A4F"/>
<path d="M20.6201 24.6201V19.8201L15.8201 24.6201H20.6201Z" fill="#A34463"/>
<path d="M15.3401 19.4601V24.4301L20.3101 19.4601H15.3401Z" fill="#B94632"/>
<path d="M20.62 18.9901V14.16L15.78 18.9901H20.62Z" fill="#BF2439"/>
<path d="M20.6201 7.74008V2.83008L15.7001 7.74008H20.6201Z" fill="#98365C"/>
<path d="M15.3401 2.59009V7.43008L20.1901 2.59009H15.3401Z" fill="#B53E43"/>
<path d="M20.62 52.73V48.14L16.02 52.73H20.62Z" fill="#992A3A"/>
<path d="M20.5001 47.5801H15.5101L15.3401 47.7401V52.7301H15.3501L20.5001 47.5801Z" fill="#A1264A"/>
<path d="M20.6201 41.4901V36.8101L15.9401 41.4901H20.6201Z" fill="#A14746"/>
<path d="M20.62 35.86V31.15L15.9 35.86H20.62Z" fill="#9D3643"/>
<path d="M20.62 47.11V42.47L15.98 47.11H20.62Z" fill="#933638"/>
<path d="M15.3901 30.7101L15.3401 30.7601V35.7501L20.3901 30.7101H15.3901Z" fill="#B52035"/>
<path d="M15.4301 36.3301L15.3401 36.4201V41.4201L20.4301 36.3301H15.4301Z" fill="#99554C"/>
<path d="M15.4701 41.9601L15.3401 42.0801V47.0801L20.4701 41.9601H15.4701Z" fill="#B73532"/>
<path d="M20.62 30.2401V25.48L15.86 30.2401H20.62Z" fill="#956152"/>
<path d="M-1.44997 58.88L-1.39996 58.83H3.39003V58.88H4.21004L4.26003 58.83H9.13004V58.88H9.88004L9.93002 58.83H14.88V58.88H15.55L15.6 58.83H20.6L20.55 58.88H21.22L21.27 58.83H26.27L26.22 58.88H26.89L26.94 58.83H31.93L31.88 58.88H32.59V58.8401H37.59L37.54 58.89H38.33V58.8401H42.73V58.3701H38.72L42.73 54.36V53.69L38.33 58.1V53.22H42.73V52.75H38.68L42.73 48.7V48.03L38.33 52.4301V47.5901H42.73V47.1201H38.64L42.73 43.03V42.36L38.33 46.76V41.9601H42.73V41.4901H38.61L42.73 37.3701V36.7L38.33 41.1V36.3401H42.73V35.8701H38.56L42.73 31.7V31.03L38.33 35.4301V30.7101H42.73V30.2401H38.52L42.73 26.03V25.36L38.33 29.76V25.08H42.73V24.61H38.48L42.73 20.3701V19.7L38.33 24.1V19.4601H42.73V18.9901H38.44L42.73 14.7101V14.04L38.33 18.45V13.8401H42.73V13.3701H38.4L42.73 9.05005V8.38004L38.33 12.79V8.22003H42.73V7.75003H38.37L42.73 3.39005V2.72003L38.33 7.13004V2.60004H42.73V2.13004H38.33L42.73 -2.26996V-2.93997L38.33 1.47003V-3.01996H42.73V-3.46997H-2.34998V58.89H-1.44997V58.88ZM37.85 58.36H33.05L37.85 53.56V58.36ZM37.85 52.7401H33.01L37.85 47.9001V52.7401ZM37.85 47.1201H32.98L37.85 42.2401V47.1201ZM37.85 41.5H32.94L37.85 36.5901V41.5ZM37.85 35.88H32.9L37.85 30.92V35.88ZM37.85 30.26H32.86L37.85 25.2701V30.26ZM37.85 24.6L37.81 24.64H32.81L37.84 19.61V24.61L37.85 24.6ZM37.85 18.9301L37.77 19.01H32.77L37.84 13.94V18.94L37.85 18.9301ZM37.85 13.2701L37.74 13.39H32.74L37.85 8.28003V13.28V13.2701ZM37.85 7.61005L37.69 7.77005H32.69L37.84 2.62006V7.62006L37.85 7.61005ZM37.85 -3.00995V1.95004L37.65 2.15005H32.66L37.81 -2.99997H37.85V-3.00995ZM32.58 -3.00995H37.14L32.58 1.56003V-3.00995ZM32.58 2.61005H37.18L32.58 7.21005V2.61005ZM32.58 8.23004H37.22L32.58 12.8701V8.23004ZM32.58 13.85H37.26L32.58 18.53V13.85ZM32.58 19.47H37.3L32.58 24.19V19.47ZM32.58 25.0901H37.34L32.58 29.85V25.0901ZM32.58 30.7101H37.38L32.58 35.51V30.7101ZM32.58 36.33H37.42L32.58 41.17V36.33ZM32.58 41.9601H37.46L32.58 46.8401V41.9601ZM32.58 47.58H37.5L32.58 52.5V47.58ZM32.58 53.2H37.54L32.58 58.16V53.2ZM3.39003 58.35H-0.929962L3.39003 54.03V58.35ZM3.39003 52.73H-0.969971L3.39003 48.3701V52.73ZM3.39003 47.11H-1.00996L3.39003 42.7101V47.11ZM3.39003 41.4901H-1.04997L3.39003 37.05V41.4901ZM3.39003 35.8701H-1.08997L3.39003 31.39V35.8701ZM3.39003 30.25H-1.12997L3.39003 25.73V30.25ZM3.39003 24.63H-1.16997L3.39003 20.07V24.63ZM3.39003 19.01H-1.20998L3.39003 14.41V19.01ZM3.39003 13.39H-1.24997L3.39003 8.75003V13.39ZM3.39003 7.77005H-1.28996L3.39003 3.10004V7.77005ZM9.13004 58.39H4.73003L9.13004 53.9901V58.39ZM9.13004 52.7701H4.69003L9.13004 48.33V52.7701ZM9.13004 47.1501H4.65002L9.13004 42.67V47.1501ZM9.13004 41.53H4.62003L9.13004 37.01V41.53ZM9.13004 35.91H4.58003L9.13004 31.35V35.91ZM9.13004 30.29H4.54002L9.13004 25.69V30.29ZM9.13004 24.67H4.50003L9.13004 20.03V24.67ZM9.13004 19.05H4.46004L9.13004 14.3701V19.05ZM9.13004 13.4301H4.41003L9.13004 8.71005V13.4301ZM9.13004 7.81003H4.38004L9.13004 3.06003V7.81003ZM14.87 58.4301H10.39L14.87 53.95V58.4301ZM14.87 52.81H10.35L14.87 48.29V52.81ZM14.87 47.19H10.31L14.87 42.63V47.19ZM14.87 41.57H10.27L14.87 36.97V41.57ZM14.87 35.95H10.24L14.87 31.31V35.95ZM14.87 30.33H10.19L14.87 25.6501V30.33ZM14.87 24.7101H10.16L14.87 19.9901V24.7101ZM14.87 19.0901H10.12L14.87 14.3401V19.0901ZM14.87 13.47H10.08L14.87 8.68005V13.47ZM14.87 7.85004H10.04L14.87 3.02005V7.85004ZM20.61 58.47H16.06L20.61 53.91V58.47ZM20.61 52.85H16.01L20.61 48.25V52.85ZM20.61 47.23H15.98L20.61 42.5901V47.23ZM20.61 41.61H15.94L20.61 36.94V41.61ZM20.61 35.9901H15.9L20.61 31.2701V35.9901ZM20.61 30.3701H15.85L20.61 25.6201V30.3701ZM20.61 24.75H15.82L20.61 19.9601V24.75ZM20.61 19.13H15.78L20.61 14.29V19.13ZM20.61 13.51H15.74L20.61 8.64005V13.51ZM20.61 7.89005H15.7L20.61 2.98004V7.89005ZM26.36 58.51H21.72L26.36 53.8701V58.51ZM26.36 52.89H21.68L26.36 48.2101V52.89ZM26.36 47.2701H21.64L26.36 42.55V47.2701ZM26.36 41.6501H21.6L26.36 36.89V41.6501ZM26.36 36.03H21.56L26.36 31.23V36.03ZM26.36 30.41H21.52L26.36 25.57V30.41ZM26.36 24.79H21.48L26.36 19.91V24.79ZM26.36 19.17H21.44L26.36 14.25V19.17ZM26.36 13.55H21.41L26.36 8.60004V13.55ZM26.36 7.93005H21.36L26.36 2.94003V7.93005ZM32.1 58.55H27.39L32.1 53.83V58.55ZM32.1 52.9301H27.35L32.1 48.17V52.9301ZM32.1 47.31H27.3L32.1 42.51V47.31ZM32.1 41.69H27.26L32.1 36.86V41.69ZM32.1 36.07H27.23L32.1 31.19V36.07ZM32.1 30.45H27.19L32.1 25.54V30.45ZM32.1 24.83H27.15L32.1 19.88V24.83ZM32.1 19.2101H27.11L32.1 14.2101V19.2101ZM32.1 13.55L32.06 13.5901H27.06L32.1 8.56003V13.56V13.55ZM32.1 7.89005L32.03 7.97003H27.03L32.1 2.90005V7.90005V7.89005ZM32.1 2.23004L31.98 2.35004H26.99L32.1 -2.75995V2.24005V2.23004ZM26.83 -2.80997H31.48L26.83 1.83005V-2.80997ZM26.83 2.81003H31.51L26.83 7.49005V2.81003ZM26.83 8.43005H31.55L26.83 13.1501V8.43005ZM26.83 14.05H31.59L26.83 18.81V14.05ZM26.83 19.67H31.63L26.83 24.47V19.67ZM26.83 25.29H31.67L26.83 30.13V25.29ZM26.83 30.91H31.71L26.83 35.79V30.91ZM26.83 36.53H31.75L26.83 41.45V36.53ZM26.83 42.16H31.79L26.83 47.1201V42.16ZM26.83 47.79H31.83L26.83 52.79V47.79ZM26.83 53.45L26.88 53.41H31.88L26.84 58.45V53.45H26.83ZM26.36 2.29004L26.32 2.33005H21.32L26.36 -2.70996V2.29004ZM21.09 -2.82996H25.82L21.09 1.89005V-2.82996ZM21.09 2.79004H25.86L21.09 7.56003V2.79004ZM21.09 8.41003H25.9L21.09 13.2101V8.41003ZM21.09 14.03H25.94L21.09 18.8701V14.03ZM21.09 19.6501H25.97L21.09 24.53V19.6501ZM21.09 25.2701H26.01L21.09 30.19V25.2701ZM21.09 30.89H26.05L21.09 35.85V30.89ZM21.09 36.5201H26.09L21.08 41.5201V36.5201H21.09ZM21.09 42.1801L21.14 42.14H26.14L21.1 47.1801V42.1801H21.09ZM21.09 47.8401L21.18 47.76H26.18L21.1 52.8401V47.8401H21.09ZM21.09 53.5L21.22 53.38H26.21L21.09 58.5V53.5ZM20.62 2.29004H15.67L20.62 -2.65994V2.29004ZM15.35 -2.85995H20.15L15.35 1.94003V-2.85995ZM15.35 2.76004H20.19L15.35 7.60004V2.76004ZM15.35 8.38004H20.23L15.35 13.26V8.38004ZM15.35 14H20.27L15.35 18.92V14ZM15.35 19.6201H20.31L15.35 24.58V19.6201ZM15.35 25.25H20.35L15.35 30.25V25.25ZM15.35 30.91L15.39 30.8701H20.39L15.35 35.91V30.91ZM15.35 36.57L15.44 36.4901H20.44L15.36 41.57V36.57H15.35ZM15.35 42.2401L15.47 42.1201H20.47L15.35 47.2401V42.2401ZM15.35 47.9001L15.52 47.7401H20.51L15.36 52.89V47.9001H15.35ZM15.35 53.57L15.55 53.3701H20.55L15.4 58.5201H15.35V53.57ZM14.88 2.28003H10L14.88 -2.58997V2.28003ZM9.61003 -2.86996H14.49L9.61003 2.01004V-2.86996ZM9.61003 2.75003H14.53L9.61003 7.67004V2.75003ZM9.61003 8.37006H14.57L9.61003 13.33V8.37006ZM9.61003 14H14.61L9.61003 19V14ZM9.61003 19.66L9.66003 19.6201H14.66L9.62003 24.66V19.66H9.61003ZM9.61003 25.32L9.70003 25.2401H14.7L9.62003 30.32V25.32H9.61003ZM9.61003 30.98L9.73003 30.86H14.73L9.61003 35.98V30.98ZM9.61003 36.64L9.77003 36.48H14.77L9.62003 41.63V36.64H9.61003ZM9.61003 42.31L9.82004 42.11H14.82L9.67003 47.26H9.62003V42.31H9.61003ZM9.61003 47.97L9.85004 47.73H14.85L9.70003 52.88H9.61003V47.97ZM9.61003 53.63L9.90002 53.35H14.89L9.75003 58.5H9.62003V53.63H9.61003ZM9.14003 2.26004H4.35004L9.14003 -2.53995V2.26004ZM3.87003 -2.88995H8.83003L3.87003 2.07004V-2.88995ZM3.87003 2.74005H8.87003L3.87003 7.74005V2.74005ZM3.87003 8.40005L3.91003 8.36005H8.91003L3.87003 13.4001V8.40005ZM3.87003 14.06L3.95003 13.98H8.95003L3.87003 19.06V14.06ZM3.87003 19.72L4.00003 19.6H9.00003L3.88004 24.72V19.72H3.87003ZM3.87003 25.38L4.04002 25.22H9.04002L3.89003 30.3701V25.38H3.87003ZM3.87003 31.04L4.07004 30.8401H9.07004L3.92003 35.9901H3.87003V31.04ZM3.87003 36.7L4.11003 36.4601H9.11003L3.96004 41.61H3.87003V36.7ZM3.87003 42.3701L4.15002 42.0901H9.14003L4.00003 47.2401H3.87003V42.3701ZM3.87003 48.03L4.19003 47.7101H9.14003V47.76L4.04002 52.86H3.87003V48.03ZM3.87003 53.69L4.23003 53.33H9.14003V53.42L4.08003 58.4901H3.87003V53.7V53.69ZM3.40002 2.24005H-1.31998L3.40002 -2.47995V2.24005ZM-1.86996 -2.86996L-1.82997 -2.90994H3.17003L-1.86996 2.13004V-2.86996ZM-1.86996 2.79004L-1.78996 2.71005H3.21004L-1.86996 7.79004V2.79004ZM-1.86996 8.46005L-1.74997 8.34006H3.25003L-1.86996 13.4601V8.46005ZM-1.86996 14.1201L-1.70998 13.9601H3.29002L-1.85997 19.11V14.1201H-1.86996ZM-1.86996 19.78L-1.66997 19.58H3.33003L-1.81998 24.73H-1.85997V19.78H-1.86996ZM-1.86996 25.44L-1.62997 25.2H3.37003L-1.77997 30.35H-1.85997V25.44H-1.86996ZM-1.86996 31.11L-1.58997 30.83H3.40002L-1.73997 35.98H-1.86996V31.11ZM-1.86996 36.7701L-1.54997 36.45H3.40002V36.5L-1.69997 41.6H-1.86996V36.7701ZM-1.86996 42.4301L-1.50996 42.07H3.40002V42.16L-1.66997 47.22H-1.86996V42.4301ZM-1.86996 48.0901L-1.46997 47.69H3.40002V47.82L-1.61996 52.85H-1.86996V48.1V48.0901ZM-1.86996 53.75L-1.42996 53.31H3.40002V53.48L-1.57997 58.47H-1.86996V53.76V53.75Z" fill="white"/>
</g>
</svg>
